<?xml version="1.0" encoding="iso-8859-1"?>
<!-- Generator: Adobe Illustrator 10.0.3, SVG Export Plug-In . SVG Version: 3.0.0 Build 77)  -->
<!DOCTYPE svg PUBLIC "-//W3C//DTD SVG 1.0//EN"    "http://www.w3.org/TR/2001/REC-SVG-20010904/DTD/svg10.dtd" [
	<!ENTITY ns_flows "http://ns.adobe.com/Flows/1.0/">
	<!ENTITY ns_svg "http://www.w3.org/2000/svg">
	<!ENTITY ns_xlink "http://www.w3.org/1999/xlink">
]>
<svg  xmlns="&ns_svg;" xmlns:xlink="&ns_xlink;" xmlns:a="http://ns.adobe.com/AdobeSVGViewerExtensions/3.0/"
	 width="128" height="128" viewBox="0 0 128 128" overflow="visible" enable-background="new 0 0 128 128" xml:space="preserve">
	<g id="Layer_1">
		<g>
			<g>
				<path fill="#FFFFFF" d="M121.164,1.052H6.836v125.896h80.701l33.627-33.627V1.052z"/>
				<linearGradient id="XMLID_1_" gradientUnits="userSpaceOnUse" x1="63.9204" y1="154.5645" x2="63.9204" y2="-100.9347">
					<stop  offset="0" style="stop-color:#FFFFFF"/>
					<stop  offset="0.2457" style="stop-color:#F6F6F6"/>
					<stop  offset="0.6374" style="stop-color:#DFDFDF"/>
					<stop  offset="1" style="stop-color:#C4C4C4"/>
					<a:midPointStop  offset="0" style="stop-color:#FFFFFF"/>
					<a:midPointStop  offset="0.6045" style="stop-color:#FFFFFF"/>
					<a:midPointStop  offset="1" style="stop-color:#C4C4C4"/>
				</linearGradient>
				<path fill="url(#XMLID_1_)" d="M117.734,4.019H10.266l-0.16,122.654h76.457l31.172-31.252V4.019z"/>
				<linearGradient id="XMLID_2_" gradientUnits="userSpaceOnUse" x1="-26.333" y1="-26.333" x2="56.1662" y2="56.1662">
					<stop  offset="0" style="stop-color:#B3B3B3"/>
					<stop  offset="1" style="stop-color:#828282"/>
					<a:midPointStop  offset="0" style="stop-color:#B3B3B3"/>
					<a:midPointStop  offset="0.5" style="stop-color:#B3B3B3"/>
					<a:midPointStop  offset="1" style="stop-color:#828282"/>
				</linearGradient>
				<path fill="url(#XMLID_2_)" d="M121.164,0.552H6.336v126.896h81.408l33.92-33.92V0.552H121.164z M120.664,1.552
					c0,0.987,0,91.152,0,91.562c-0.289,0.289-33.045,33.045-33.334,33.334c-0.41,0-79.01,0-79.994,0c0-0.988,0-123.909,0-124.896
					C8.322,1.552,119.678,1.552,120.664,1.552z"/>
				<linearGradient id="XMLID_3_" gradientUnits="userSpaceOnUse" x1="43.0229" y1="25.4214" x2="204.0073" y2="111.0652">
					<stop  offset="0" style="stop-color:#FFFFFF"/>
					<stop  offset="0.8603" style="stop-color:#DADADA"/>
					<stop  offset="1" style="stop-color:#D4D4D4"/>
					<a:midPointStop  offset="0" style="stop-color:#FFFFFF"/>
					<a:midPointStop  offset="0.5254" style="stop-color:#FFFFFF"/>
					<a:midPointStop  offset="1" style="stop-color:#D4D4D4"/>
				</linearGradient>
				<path fill="url(#XMLID_3_)" d="M118.006,15.223V3.94H10.199l-0.096,65.34c9.975,4.547,21.151,7.096,32.954,7.096
					C80.402,76.376,111.455,48.876,118.006,15.223z"/>
			</g>
			<g>
				
					<radialGradient id="XMLID_4_" cx="108.4668" cy="118.249" r="34.7364" fx="108.4668" fy="118.249" gradientUnits="userSpaceOnUse">
					<stop  offset="0" style="stop-color:#000000"/>
					<stop  offset="1" style="stop-color:#000000"/>
					<a:midPointStop  offset="0" style="stop-color:#000000"/>
					<a:midPointStop  offset="0.5" style="stop-color:#000000"/>
					<a:midPointStop  offset="1" style="stop-color:#000000"/>
				</radialGradient>
				<path opacity="0.1" fill="url(#XMLID_4_)" d="M85.191,90.976v35.754h1.793l33.639-33.639v-2.115H85.191z"/>
				<path fill="#FFFFFF" d="M87.537,126.948l33.627-33.627H87.537V126.948z"/>
				<linearGradient id="XMLID_5_" gradientUnits="userSpaceOnUse" x1="104.0166" y1="98.1807" x2="95.0883" y2="135.7938">
					<stop  offset="0" style="stop-color:#FFFFFF"/>
					<stop  offset="1" style="stop-color:#CCCCCC"/>
					<a:midPointStop  offset="0" style="stop-color:#FFFFFF"/>
					<a:midPointStop  offset="0.5" style="stop-color:#FFFFFF"/>
					<a:midPointStop  offset="1" style="stop-color:#CCCCCC"/>
				</linearGradient>
				<path fill="url(#XMLID_5_)" d="M89.865,125.056l29.594-29.592H89.865V125.056z"/>
				<linearGradient id="XMLID_6_" gradientUnits="userSpaceOnUse" x1="82.3086" y1="88.0928" x2="96.1043" y2="101.8885">
					<stop  offset="0" style="stop-color:#B3B3B3"/>
					<stop  offset="1" style="stop-color:#828282"/>
					<a:midPointStop  offset="0" style="stop-color:#B3B3B3"/>
					<a:midPointStop  offset="0.5" style="stop-color:#B3B3B3"/>
					<a:midPointStop  offset="1" style="stop-color:#828282"/>
				</linearGradient>
				<path fill="url(#XMLID_6_)" d="M87.537,92.821c-0.277,0-0.5,0.223-0.5,0.5v33.627c0,0.203,0.121,0.385,0.309,0.463
					c0.186,0.076,0.402,0.033,0.545-0.109l33.627-33.627c0.143-0.145,0.186-0.359,0.109-0.545c-0.078-0.188-0.26-0.309-0.463-0.309
					H87.537z M119.957,93.821c-1.58,1.578-30.342,30.34-31.92,31.92c0-2.209,0-30.986,0-31.92
					C88.971,93.821,117.748,93.821,119.957,93.821z"/>
			</g>
			<linearGradient id="XMLID_7_" gradientUnits="userSpaceOnUse" x1="-3.7275" y1="10.6514" x2="127.5933" y2="10.6514">
				<stop  offset="0" style="stop-color:#B3CAFF"/>
				<stop  offset="1" style="stop-color:#0053BD"/>
				<a:midPointStop  offset="0" style="stop-color:#B3CAFF"/>
				<a:midPointStop  offset="0.5" style="stop-color:#B3CAFF"/>
				<a:midPointStop  offset="1" style="stop-color:#0053BD"/>
			</linearGradient>
			<path fill="url(#XMLID_7_)" d="M117.692,17.023H10.308V4.279h107.385V17.023z"/>
			<g>
				<path fill="#FFFFFF" d="M12.201,15.115V6.521h1.734v3.808l3.517-3.808h2.335l-3.246,3.35l3.418,5.244h-2.246l-2.381-4.026
					l-1.397,1.432v2.595H12.201z"/>
				<path fill="#FFFFFF" d="M20.852,6.521h1.734v4.66c0,0.739,0.021,1.219,0.064,1.438c0.073,0.353,0.25,0.635,0.529,0.849
					c0.278,0.213,0.659,0.319,1.143,0.319c0.492,0,0.862-0.101,1.111-0.302c0.25-0.202,0.4-0.449,0.451-0.743
					c0.051-0.293,0.076-0.78,0.076-1.461v-4.76h1.734v4.519c0,1.033-0.047,1.763-0.141,2.189c-0.094,0.426-0.267,0.786-0.519,1.08
					c-0.252,0.293-0.589,0.527-1.01,0.701c-0.422,0.174-0.972,0.261-1.651,0.261c-0.819,0-1.441-0.095-1.864-0.284
					c-0.424-0.19-0.759-0.437-1.004-0.74c-0.246-0.303-0.408-0.621-0.486-0.953c-0.113-0.493-0.169-1.221-0.169-2.184V6.521z"/>
				<path fill="#FFFFFF" d="M33.518,11.958v-1.453h3.719v3.434c-0.363,0.353-0.889,0.662-1.576,0.931
					c-0.688,0.268-1.385,0.401-2.09,0.401c-0.896,0-1.678-0.188-2.345-0.567c-0.667-0.377-1.167-0.918-1.503-1.621
					c-0.335-0.703-0.502-1.468-0.502-2.294c0-0.897,0.187-1.694,0.561-2.392c0.375-0.696,0.922-1.231,1.644-1.604
					c0.55-0.285,1.233-0.429,2.053-0.429c1.064,0,1.896,0.223,2.494,0.669c0.599,0.445,0.983,1.061,1.155,1.847l-1.719,0.328
					c-0.121-0.42-0.349-0.751-0.683-0.995c-0.333-0.242-0.75-0.364-1.249-0.364c-0.757,0-1.358,0.241-1.805,0.724
					c-0.447,0.481-0.67,1.197-0.67,2.146c0,1.022,0.227,1.79,0.68,2.302c0.454,0.511,1.049,0.767,1.784,0.767
					c0.363,0,0.729-0.071,1.094-0.215c0.366-0.143,0.68-0.316,0.942-0.521v-1.093H33.518z"/>
				<path fill="#FFFFFF" d="M46.602,15.115h-1.867l-0.746-1.953h-3.447l-0.705,1.953h-1.859l3.305-8.594h1.857L46.602,15.115z
					 M43.418,11.708l-1.199-3.188l-1.152,3.188H43.418z"/>
				<path fill="#FFFFFF" d="M47.518,15.115V6.521h3.645c0.917,0,1.583,0.077,1.998,0.231c0.416,0.154,0.748,0.428,0.998,0.822
					s0.375,0.845,0.375,1.353c0,0.644-0.189,1.176-0.565,1.595c-0.377,0.42-0.939,0.685-1.689,0.793
					c0.374,0.22,0.683,0.461,0.926,0.723c0.243,0.263,0.571,0.729,0.983,1.397l1.049,1.68h-2.074l-1.246-1.873
					c-0.445-0.67-0.751-1.091-0.915-1.266c-0.165-0.174-0.339-0.294-0.522-0.358c-0.185-0.064-0.476-0.097-0.875-0.097h-0.352v3.594
					H47.518z M49.252,10.146h1.281c0.831,0,1.35-0.035,1.557-0.104c0.207-0.07,0.369-0.191,0.486-0.362s0.176-0.386,0.176-0.643
					c0-0.288-0.078-0.521-0.231-0.697c-0.154-0.177-0.372-0.289-0.653-0.336c-0.141-0.02-0.562-0.029-1.264-0.029h-1.352V10.146z"/>
			</g>
			<g opacity="0.22">
				<path d="M38.281,62.584c0,6.515-3.771,11.797-8.427,11.797s-8.427-5.282-8.427-11.797c0-6.516,3.771-11.798,8.427-11.798
					S38.281,56.068,38.281,62.584z"/>
				<path d="M55.978,41.308c0,6.398-3.772,11.585-8.428,11.585c-4.654,0-8.427-5.188-8.427-11.585
					c0-6.399,3.772-11.588,8.427-11.588C52.206,29.72,55.978,34.909,55.978,41.308z"/>
				<path d="M79.994,41.727c0-6.63-3.771-12.007-8.427-12.007s-8.427,5.376-8.427,12.007c0,6.632,3.771,12.009,8.427,12.009
					S79.994,48.359,79.994,41.727z"/>
				<path d="M99.796,59.843c0-7.095-3.869-12.848-8.638-12.848c-4.77,0-8.64,5.753-8.64,12.848c0,7.101,3.87,12.854,8.64,12.854
					C95.927,72.696,99.796,66.943,99.796,59.843z"/>
				<path d="M84.629,81.335c-4.635-14.958-10.66-23.807-23.806-23.807c-13.146,0-20.435,10.533-23.806,23.807
					c-3.235,12.742,10.66,23.803,23.806,23.803C73.969,105.138,88.52,93.892,84.629,81.335z"/>
			</g>
		</g>
		<path fill="none" d="M128,128H0V0h128V128z"/>
	</g>
</svg>
