<?xml version="1.0"?>
<!DOCTYPE svg PUBLIC "-//W3C//DTD SVG 1.0//EN"
	"http://www.w3.org/TR/2001/REC-SVG-20010904/DTD/svg10.dtd">
<svg xmlns:x="http://ns.adobe.com/Extensibility/1.0/"
	xmlns:i="http://ns.adobe.com/AdobeIllustrator/10.0/" xmlns:graph=""
	xmlns="http://www.w3.org/2000/svg" xmlns:xlink="http://www.w3.org/1999/xlink"
	xmlns:a="http://ns.adobe.com/AdobeSVGViewerExtensions/3.0/" width="116"
	height="127" viewBox="-0.358 -0.104 116 127" overflow="visible"
	enable-background="new -0.358 -0.104 116 127" xml:space="preserve">
	<g id="Layer_1_2_">
		<g>
			<path d="M114.828 0.5 L0.5 0.5 L0.5 126.396 L81.201 126.396 L114.828 92.769 z"
				 style="fill:rgb(255,255,255)"/>
			<linearGradient id="XMLID_1_" gradientUnits="userSpaceOnUse" x1="57.5845"
				y1="154.013" x2="57.5845" y2="-101.487">
				<stop offset="0" style="stop-color:rgb(255,255,255)"/>
				<stop offset="0.2457" style="stop-color:rgb(246,246,246)"/>
				<stop offset="0.6374" style="stop-color:rgb(223,223,223)"/>
				<stop offset="1" style="stop-color:rgb(196,196,196)"/>
				<a:midPointStop offset="0" style="stop-color:#FFFFFF"/>
				<a:midPointStop offset="0.6045" style="stop-color:#FFFFFF"/>
				<a:midPointStop offset="1" style="stop-color:#C4C4C4"/>
			</linearGradient>
			<path
				d="M111.398 3.467 L3.93 3.467 L3.77 126.121 L80.227 126.121 L111.399 94.869 L111.399
					3.467 z"
				 style="fill:url(#XMLID_1_)"/>
			<linearGradient id="XMLID_2_" gradientUnits="userSpaceOnUse" x1="-32.6685"
				y1="-26.8843" x2="49.8302" y2="55.6144">
				<stop offset="0" style="stop-color:rgb(178,178,178)"/>
				<stop offset="1" style="stop-color:rgb(130,130,130)"/>
				<a:midPointStop offset="0" style="stop-color:#B2B2B2"/>
				<a:midPointStop offset="0.5" style="stop-color:#B2B2B2"/>
				<a:midPointStop offset="1" style="stop-color:#828282"/>
			</linearGradient>
			<path
				d="M114.828 0 L0 0 L0 126.896 L81.408 126.896 L115.328 92.976 L115.328 0 zM114.328 1
					C114.328 1.987 114.328 92.152 114.328 92.563 C114.039 92.852 81.283 125.608
					80.994 125.897 C80.584 125.897 1.984 125.897 1 125.897 C1 124.908 1 1.988
					1 1 C1.986 1 113.342 1 114.328 1 z"
				 style="fill:url(#XMLID_2_)"/>
			<linearGradient id="XMLID_3_" gradientUnits="userSpaceOnUse" x1="36.6875"
				y1="24.8701" x2="197.672" y2="110.514">
				<stop offset="0" style="stop-color:rgb(255,255,255)"/>
				<stop offset="0.8603" style="stop-color:rgb(218,218,218)"/>
				<stop offset="1" style="stop-color:rgb(212,212,212)"/>
				<a:midPointStop offset="0" style="stop-color:#FFFFFF"/>
				<a:midPointStop offset="0.5254" style="stop-color:#FFFFFF"/>
				<a:midPointStop offset="1" style="stop-color:#D4D4D4"/>
			</linearGradient>
			<path
				d="M111.67 14.671 L111.67 3.388 L3.863 3.388 L3.767 68.728 C13.742 73.275 24.918 75.824
					36.721 75.824 C74.066 75.824 105.119 48.325 111.67 14.671 z"
				 style="fill:url(#XMLID_3_)"/>
		</g>
		<linearGradient id="XMLID_4_" gradientUnits="userSpaceOnUse" x1="-47.0254"
			y1="10.0996" x2="61.6372" y2="10.0996">
			<stop offset="0" style="stop-color:rgb(255,255,255)"/>
			<stop offset="1" style="stop-color:rgb(0,0,0)"/>
			<a:midPointStop offset="0" style="stop-color:#FFFFFF"/>
			<a:midPointStop offset="0.5" style="stop-color:#FFFFFF"/>
			<a:midPointStop offset="1" style="stop-color:#000000"/>
		</linearGradient>
		<path
			d="M111.356 16.471 L3.972 16.471 L3.972 3.728 L111.357 3.728 L111.357 16.471 z"
			 style="fill:url(#XMLID_4_)"/>
		<g>
			<path
				d="M97.193 55.241 L70.776 28.825 C69.732 27.78 68.345 27.204 66.868 27.204 C65.392 27.204
					64.005 27.778 62.961 28.824 L17.938 73.846 C16.895 74.889 16.318 76.277
					16.32 77.756 C16.32 79.23 16.895 80.619 17.938 81.663 L44.354 108.077 C45.398
					109.124 46.789 109.696 48.263 109.696 C49.741 109.696 51.13 109.123 52.17
					108.076 L52.17 108.077 L97.192 63.056 C99.349 60.9 99.349 57.395 97.193
					55.241 zM92.691 59.146 C92.109 59.728 48.845 102.995 48.262 103.575 C47.689
					103.002 23.012 78.325 22.437 77.754 C23.022 77.173 66.285 33.908 66.868
					33.324 C67.442 33.898 92.119 58.574 92.691 59.146 z"/>
			<radialGradient id="XMLID_5_" cx="129.309" cy="72.748" r="66.7925" fx="129.309"
				fy="72.748" gradientTransform="matrix(0 1 -1 0 123.72 7.5908)"
				gradientUnits="userSpaceOnUse">
				<stop offset="0" style="stop-color:rgb(255,255,255)"/>
				<stop offset="1" style="stop-color:rgb(0,0,0)"/>
				<a:midPointStop offset="0" style="stop-color:#FFFFFF"/>
				<a:midPointStop offset="0.5" style="stop-color:#FFFFFF"/>
				<a:midPointStop offset="1" style="stop-color:#000000"/>
			</radialGradient>
			<path
				d="M50.326 104.687 C49.361 105.647 47.804 105.647 46.837 104.684 L21.333 79.177 C20.366
					78.214 20.366 76.654 21.333 75.689 L64.803 32.216 C65.769 31.252 67.327
					31.252 68.293 32.216 L93.8 57.724 C94.764 58.687 94.764 60.248 93.8 61.212
					z"
				 style="fill:url(#XMLID_5_)"/>
			<radialGradient id="XMLID_6_" cx="68.2197" cy="105.79" r="74.9212" fx="68.2197"
				fy="105.79" gradientTransform="matrix(0 1 -1 0 123.72 7.5908)"
				gradientUnits="userSpaceOnUse">
				<stop offset="0" style="stop-color:rgb(255,255,255)"/>
				<stop offset="1" style="stop-color:rgb(0,0,0)"/>
				<a:midPointStop offset="0" style="stop-color:#FFFFFF"/>
				<a:midPointStop offset="0.5" style="stop-color:#FFFFFF"/>
				<a:midPointStop offset="1" style="stop-color:#000000"/>
			</radialGradient>
			<path
				d="M94.055 57.471 L68.544 31.961 C68.012 31.429 67.304 31.133 66.549 31.133 C65.793
					31.133 65.083 31.428 64.551 31.962 L21.077 75.436 C20.543 75.97 20.251 76.679
					20.251 77.434 C20.251 78.189 20.543 78.898 21.078 79.432 L46.584 104.94
					C47.119 105.472 47.829 105.769 48.582 105.769 C49.34 105.769 50.047 105.472
					50.58 104.94 L94.054 61.464 C95.155 60.364 95.155 58.571 94.055 57.471 zM21.586
					75.944 L65.059 32.47 C65.457 32.07 65.986 31.853 66.548 31.853 C67.111
					31.853 67.64 32.071 68.039 32.471 L93.548 57.978 C94.369 58.8 94.369 60.137
					93.547 60.957 L50.071 104.434 C49.674 104.83 49.145 105.047 48.581 105.047
					C48.019 105.049 47.49 104.83 47.089 104.431 L21.585 78.925 C21.188 78.524
					20.966 77.996 20.966 77.434 C20.966 76.871 21.187 76.342 21.586 75.944 z"
				 style="fill:url(#XMLID_6_)"/>
			<radialGradient id="XMLID_7_" cx="71.832" cy="86.8447" r="110.967" fx="71.832"
				fy="86.8447" gradientTransform="matrix(0 1 -1 0 123.72 7.5908)"
				gradientUnits="userSpaceOnUse">
				<stop offset="0" style="stop-color:rgb(255,255,255)"/>
				<stop offset="1" style="stop-color:rgb(0,109,255)"/>
				<a:midPointStop offset="0" style="stop-color:#FFFFFF"/>
				<a:midPointStop offset="0.5" style="stop-color:#FFFFFF"/>
				<a:midPointStop offset="1" style="stop-color:#006DFF"/>
			</radialGradient>
			<path
				d="M77.543 66.44 C76.578 67.403 75.017 67.403 74.055 66.438 L59.575 51.96 C58.613 50.998
					58.613 49.436 59.575 48.473 L68.184 39.864 C69.149 38.902 70.709 38.902
					71.673 39.864 L86.15 54.343 C87.113 55.307 87.113 56.869 86.15 57.833 z"
				 style="fill-rule:evenodd;clip-rule:evenodd;fill:url(#XMLID_7_)"/>
			<radialGradient id="XMLID_8_" cx="72.6572" cy="92.3203" r="162.702"
				fx="72.6572" fy="92.3203"
				gradientTransform="matrix(0 1 -1 0 123.72 7.5908)"
				gradientUnits="userSpaceOnUse">
				<stop offset="0" style="stop-color:rgb(255,255,255)"/>
				<stop offset="1" style="stop-color:rgb(0,109,255)"/>
				<a:midPointStop offset="0" style="stop-color:#FFFFFF"/>
				<a:midPointStop offset="0.5" style="stop-color:#FFFFFF"/>
				<a:midPointStop offset="1" style="stop-color:#006DFF"/>
			</radialGradient>
			<path
				d="M62.422 81.559 C61.46 82.525 59.898 82.525 58.935 81.559 L44.456 67.082 C43.494 66.119
					43.492 64.556 44.455 63.594 L53.066 54.986 C54.028 54.023 55.589 54.023
					56.553 54.986 L71.029 69.465 C71.996 70.427 71.996 71.988 71.029 72.952 z"
				 style="fill-rule:evenodd;clip-rule:evenodd;fill:url(#XMLID_8_)"/>
			<radialGradient id="XMLID_9_" cx="73.4365" cy="93.0986" r="162.726"
				fx="73.4365" fy="93.0986"
				gradientTransform="matrix(0 1 -1 0 123.72 7.5908)"
				gradientUnits="userSpaceOnUse">
				<stop offset="0" style="stop-color:rgb(255,255,255)"/>
				<stop offset="1" style="stop-color:rgb(0,109,255)"/>
				<a:midPointStop offset="0" style="stop-color:#FFFFFF"/>
				<a:midPointStop offset="0.5" style="stop-color:#FFFFFF"/>
				<a:midPointStop offset="1" style="stop-color:#006DFF"/>
			</radialGradient>
			<path
				d="M47.3 96.682 C46.338 97.644 44.777 97.643 43.815 96.681 L29.337 82.201 C28.376 81.237
					28.375 79.678 29.335 78.714 L37.942 70.104 C38.907 69.142 40.467 69.142
					41.432 70.104 L55.911 84.583 C56.871 85.546 56.871 87.107 55.911 88.071 z"
				 style="fill-rule:evenodd;clip-rule:evenodd;fill:url(#XMLID_9_)"/>
			<linearGradient id="XMLID_10_" gradientUnits="userSpaceOnUse" x1="50.7095"
				y1="35.5869" x2="50.7095" y2="87.1619"
				gradientTransform="matrix(0 1 -1 0 123.72 7.5908)">
				<stop offset="0%" style="stop-color:rgb(255,255,255)"/>
				<stop offset="99%" style="stop-opacity:0;stop-color:rgb(255,255,255)"/>
			</linearGradient>
			<path a:adobe-blending-mode="screen"
				d="M71.169 82.771 L92.934 61.007 C93.836 60.104 93.835 58.642 92.934 57.739 L69.024
					33.83 C68.12 32.927 66.658 32.927 65.756 33.83 L46.945 52.639 C46.924 53.097
					46.909 53.559 46.909 54.022 C46.909 68.175 57.316 79.985 71.169 82.771 z"
				 style="fill:url(#XMLID_10_)"/>
		</g>
		<g>
			<radialGradient id="XMLID_11_" cx="102.131" cy="117.697" r="34.7364"
				fx="102.131" fy="117.697" gradientUnits="userSpaceOnUse">
				<stop offset="0" style="stop-color:rgb(0,0,0)"/>
				<stop offset="1" style="stop-color:rgb(0,0,0)"/>
				<a:midPointStop offset="0" style="stop-color:#000000"/>
				<a:midPointStop offset="0.5" style="stop-color:#000000"/>
				<a:midPointStop offset="1" style="stop-color:#000000"/>
			</radialGradient>
			<path
				d="M78.855 90.424 L78.855 126.178 L80.648 126.178 L114.287 92.539 L114.287 90.424 z"
				
				 style="opacity:0.1;fill:url(#XMLID_11_)"/>
			<path d="M81.201 126.396 L114.828 92.769 L81.201 92.769 z"
				 style="fill:rgb(255,255,255)"/>
			<linearGradient id="XMLID_12_" gradientUnits="userSpaceOnUse" x1="97.6807"
				y1="97.6289" x2="88.7524" y2="135.242">
				<stop offset="0" style="stop-color:rgb(255,255,255)"/>
				<stop offset="1" style="stop-color:rgb(204,204,204)"/>
				<a:midPointStop offset="0" style="stop-color:#FFFFFF"/>
				<a:midPointStop offset="0.5" style="stop-color:#FFFFFF"/>
				<a:midPointStop offset="1" style="stop-color:#CCCCCC"/>
			</linearGradient>
			<path d="M83.529 124.504 L113.123 94.912 L83.529 94.912 z"
				 style="fill:url(#XMLID_12_)"/>
			<linearGradient id="XMLID_13_" gradientUnits="userSpaceOnUse" x1="75.9727"
				y1="87.541" x2="89.7684" y2="101.337">
				<stop offset="0" style="stop-color:rgb(178,178,178)"/>
				<stop offset="1" style="stop-color:rgb(130,130,130)"/>
				<a:midPointStop offset="0" style="stop-color:#B2B2B2"/>
				<a:midPointStop offset="0.5" style="stop-color:#B2B2B2"/>
				<a:midPointStop offset="1" style="stop-color:#828282"/>
			</linearGradient>
			<path
				d="M81.201 92.27 C80.924 92.27 80.701 92.493 80.701 92.77 L80.701 126.397 C80.701 126.6
					80.822 126.782 81.01 126.86 C81.196 126.936 81.412 126.893 81.555 126.751
					L115.182 93.124 C115.325 92.979 115.368 92.765 115.291 92.579 C115.213 92.391
					115.031 92.27 114.828 92.27 zM113.621 93.27 C112.041 94.848 83.279 123.61
					81.701 125.19 C81.701 122.981 81.701 94.204 81.701 93.27 C82.635 93.27
					111.412 93.27 113.621 93.27 z"
				 style="fill:url(#XMLID_13_)"/>
		</g>
		<g>
			<path
				d="M8.808 15.037 L5.737 6.443 L7.617 6.443 L9.791 12.802 L11.895 6.443 L13.737 6.443
					L10.681 15.037 z"
				 style="fill:rgb(255,255,255)"/>
			<path d="M14.569 15.037 L14.569 6.443 L16.303 6.443 L16.303 15.037 z"
				 style="fill:rgb(255,255,255)"/>
			<path
				d="M17.95 6.443 L21.121 6.443 C21.836 6.443 22.381 6.498 22.756 6.607 C23.26 6.755 23.692
					7.019 24.051 7.398 C24.41 7.778 24.684 8.242 24.871 8.791 C25.058 9.34
					25.153 10.018 25.153 10.822 C25.153 11.529 25.065 12.139 24.889 12.651 C24.674
					13.276 24.367 13.783 23.969 14.17 C23.668 14.463 23.262 14.691 22.75
					14.856 C22.367 14.977 21.855 15.038 21.214 15.038 L17.95 15.038 zM19.684 7.896
					L19.684 13.584 L20.984 13.584 C21.47 13.584 21.821 13.557 22.037 13.502
					C22.319 13.432 22.553 13.313 22.74 13.145 C22.927 12.977 23.078 12.702 23.196
					12.317 C23.313 11.932 23.372 11.408 23.372 10.744 C23.372 10.08 23.313
					9.571 23.196 9.216 C23.078 8.861 22.914 8.583 22.702 8.384 C22.49 8.185 22.222
					8.05 21.896 7.98 C21.653 7.925 21.176 7.898 20.467 7.898 L19.684 7.898 z"
				 style="fill:rgb(255,255,255)"/>
			<path
				d="M26.616 15.037 L26.616 6.443 L32.975 6.443 L32.975 7.896 L28.35 7.896 L28.35 9.802
					L32.647 9.802 L32.647 11.255 L28.35 11.255 L28.35 13.583 L33.147 13.583 L33.147
					15.036 L26.616 15.036 z"
				 style="fill:rgb(255,255,255)"/>
			<path
				d="M34.26 10.793 C34.26 9.916 34.39 9.18 34.652 8.584 C34.847 8.146 35.114 7.752 35.452
					7.403 C35.79 7.054 36.16 6.797 36.562 6.628 C37.097 6.4 37.714 6.287 38.413
					6.287 C39.678 6.287 40.69 6.681 41.45 7.468 C42.209 8.255 42.589 9.35
					42.589 10.752 C42.589 12.143 42.212 13.231 41.459 14.016 C40.705 14.801 39.698
					15.194 38.437 15.194 C37.16 15.194 36.145 14.803 35.392 14.022 C34.637
					13.24 34.26 12.164 34.26 10.793 zM36.042 10.734 C36.042 11.711 36.267 12.45
					36.718 12.953 C37.169 13.457 37.74 13.709 38.434 13.709 C39.128 13.709 39.696
					13.459 40.141 12.959 C40.586 12.46 40.808 11.711 40.808 10.711 C40.808
					9.724 40.592 8.986 40.159 8.5 C39.726 8.015 39.151 7.771 38.434 7.771 C37.717
					7.771 37.139 8.017 36.7 8.509 C36.261 9.001 36.042 9.743 36.042 10.734 z"
				 style="fill:rgb(255,255,255)"/>
		</g>
	</g>
</svg>
