<?xml version="1.0" encoding="iso-8859-1"?>
<!-- Generator: Adobe Illustrator 10.0.3, SVG Export Plug-In . SVG Version: 3.0.0 Build 77)  -->
<!DOCTYPE svg PUBLIC "-//W3C//DTD SVG 1.0//EN"    "http://www.w3.org/TR/2001/REC-SVG-20010904/DTD/svg10.dtd" [
	<!ENTITY ns_flows "http://ns.adobe.com/Flows/1.0/">
	<!ENTITY ns_svg "http://www.w3.org/2000/svg">
	<!ENTITY ns_xlink "http://www.w3.org/1999/xlink">
]>
<svg  xmlns="&ns_svg;" xmlns:xlink="&ns_xlink;" xmlns:a="http://ns.adobe.com/AdobeSVGViewerExtensions/3.0/"
	 width="128" height="128" viewBox="0 0 128 128" overflow="visible" enable-background="new 0 0 128 128" xml:space="preserve">
	<g id="Layer_1">
		<g>
			<g>
				<path fill="#FFFFFF" d="M121.164,1.052H6.836v125.896h80.701l33.627-33.627V1.052z"/>
				<linearGradient id="XMLID_1_" gradientUnits="userSpaceOnUse" x1="63.9204" y1="154.5645" x2="63.9204" y2="-100.9347">
					<stop  offset="0" style="stop-color:#FFFFFF"/>
					<stop  offset="0.258" style="stop-color:#F1F1F1"/>
					<stop  offset="0.7396" style="stop-color:#CECECE"/>
					<stop  offset="0.8595" style="stop-color:#C4C4C4"/>
					<a:midPointStop  offset="0" style="stop-color:#FFFFFF"/>
					<a:midPointStop  offset="0.5674" style="stop-color:#FFFFFF"/>
					<a:midPointStop  offset="0.8595" style="stop-color:#C4C4C4"/>
				</linearGradient>
				<path fill="url(#XMLID_1_)" d="M117.734,4.019H10.266l-0.16,122.654h76.457l31.172-31.252V4.019z"/>
				<linearGradient id="XMLID_2_" gradientUnits="userSpaceOnUse" x1="-26.333" y1="-26.333" x2="56.1662" y2="56.1662">
					<stop  offset="0" style="stop-color:#B3B3B3"/>
					<stop  offset="1" style="stop-color:#828282"/>
					<a:midPointStop  offset="0" style="stop-color:#B3B3B3"/>
					<a:midPointStop  offset="0.5" style="stop-color:#B3B3B3"/>
					<a:midPointStop  offset="1" style="stop-color:#828282"/>
				</linearGradient>
				<path fill="url(#XMLID_2_)" d="M121.164,0.552H6.336v126.896h81.408l33.92-33.92V0.552H121.164z M120.664,1.552
					c0,0.987,0,91.152,0,91.562c-0.289,0.289-33.045,33.045-33.334,33.334c-0.41,0-79.01,0-79.994,0c0-0.988,0-123.909,0-124.896
					C8.322,1.552,119.678,1.552,120.664,1.552z"/>
				<linearGradient id="XMLID_3_" gradientUnits="userSpaceOnUse" x1="43.0229" y1="25.4214" x2="204.0073" y2="111.0652">
					<stop  offset="0" style="stop-color:#FFFFFF"/>
					<stop  offset="0.5033" style="stop-color:#E7E7E7"/>
					<stop  offset="1" style="stop-color:#D4D4D4"/>
					<a:midPointStop  offset="0" style="stop-color:#FFFFFF"/>
					<a:midPointStop  offset="0.452" style="stop-color:#FFFFFF"/>
					<a:midPointStop  offset="1" style="stop-color:#D4D4D4"/>
				</linearGradient>
				<path fill="url(#XMLID_3_)" d="M118.006,15.223V3.94H10.199l-0.096,65.34c9.975,4.547,21.151,7.096,32.954,7.096
					C80.402,76.376,111.455,48.876,118.006,15.223z"/>
			</g>
			<linearGradient id="XMLID_4_" gradientUnits="userSpaceOnUse" x1="92.6777" y1="10.6509" x2="-23.9856" y2="10.6509">
				<stop  offset="0" style="stop-color:#0095FF"/>
				<stop  offset="1" style="stop-color:#00E1FF"/>
				<a:midPointStop  offset="0" style="stop-color:#0095FF"/>
				<a:midPointStop  offset="0.5" style="stop-color:#0095FF"/>
				<a:midPointStop  offset="1" style="stop-color:#00E1FF"/>
			</linearGradient>
			<path fill="url(#XMLID_4_)" d="M117.397,17.023H10.013V4.279h107.385V17.023z"/>
			<path fill="#FFFFFF" d="M21.278,13.387c-0.024-0.033-0.066-0.047-0.105-0.036c0,0-0.315,0.092-0.414,0.121
				c-0.072-0.104-0.842-1.215-0.842-1.215c-0.018-0.026-0.048-0.042-0.08-0.042c-0.032,0-0.062,0.016-0.08,0.042
				c-0.535,0.776-1.408,1.241-2.335,1.241c-1.402,0-2.569-1.014-2.806-2.344c-0.006-0.039-0.012-0.077-0.018-0.116
				c-0.001-0.005-0.001-0.01-0.002-0.016c-0.004-0.034-0.008-0.069-0.012-0.104c-0.001-0.016-0.002-0.032-0.003-0.047
				c-0.002-0.026-0.004-0.052-0.005-0.079c-0.002-0.044-0.004-0.088-0.004-0.133c0-1.08,0.59-2.049,1.541-2.529
				c0.032-0.016,0.053-0.049,0.053-0.086V7.201c0-0.032-0.015-0.063-0.042-0.081c-0.027-0.018-0.06-0.021-0.09-0.008l-0.141,0.06
				c-0.158,0.069-0.308,0.153-0.431,0.225c-0.093-0.065-1.151-0.806-1.151-0.806c-0.038-0.027-0.089-0.023-0.123,0.009l-0.801,0.782
				c-0.02,0.019-0.029,0.044-0.029,0.069c0,0.019,0.005,0.038,0.017,0.054c0,0,0.737,1.092,0.798,1.183
				c-0.201,0.335-0.34,0.668-0.425,1.014c-0.11,0.021-1.463,0.27-1.463,0.27c-0.044,0.008-0.077,0.046-0.079,0.091l-0.05,1.123
				c0,0.001,0,0.002,0,0.004c0,0.046,0.033,0.086,0.08,0.095c0,0,0.007,0.001,0.019,0.003c0.167,0.03,1.371,0.248,1.475,0.266
				c0.085,0.341,0.224,0.687,0.415,1.03c-0.064,0.09-0.897,1.254-0.897,1.254c-0.012,0.017-0.018,0.037-0.018,0.056
				c0,0.024,0.009,0.049,0.028,0.068l0.801,0.812c0.032,0.033,0.084,0.038,0.123,0.012c0,0,1.209-0.815,1.303-0.878
				c0.305,0.189,0.642,0.332,1.024,0.433c0.02,0.109,0.28,1.535,0.28,1.535c0.009,0.046,0.048,0.079,0.095,0.079h1.152
				c0.047,0,0.087-0.034,0.095-0.081c0,0,0.242-1.444,0.261-1.554c0.337-0.093,0.671-0.231,0.994-0.414l0.198,0.118
				c0.351,0.246,1.073,0.751,1.073,0.751c0.039,0.027,0.09,0.022,0.124-0.011l0.812-0.812c0.034-0.034,0.038-0.087,0.01-0.125
				L21.278,13.387z M23.086,5.768c0-0.01-0.001-0.021-0.005-0.031c-0.01-0.031-0.037-0.055-0.068-0.063l-2.064-0.511
				c-0.038-0.009-0.076,0.004-0.1,0.035c0,0-2.102,2.723-2.403,3.113c0-0.475,0-3.083,0-3.083c0-0.053-0.042-0.097-0.095-0.097
				l-1.864-0.02c-0.025,0-0.05,0.01-0.068,0.028S16.39,5.181,16.39,5.206l-0.061,7.796c0,0.026,0.011,0.053,0.03,0.071
				c0.02,0.018,0.046,0.028,0.073,0.026l1.963-0.12c0.052-0.003,0.091-0.046,0.091-0.096c0,0-0.031-2.635-0.036-3.143
				c0.31,0.431,2.437,3.39,2.437,3.39c0.024,0.033,0.066,0.047,0.106,0.036l1.994-0.582c0.03-0.008,0.054-0.032,0.064-0.062
				c0.004-0.01,0.005-0.021,0.005-0.031c0-0.021-0.007-0.041-0.019-0.058c0,0-2.455-3.321-2.541-3.437
				c0.09-0.112,2.569-3.169,2.569-3.169C23.079,5.812,23.086,5.79,23.086,5.768z M22.945,9.922l-1.323-0.23
				c-0.038-0.006-0.077,0.01-0.098,0.043c-0.021,0.033-0.021,0.075,0.002,0.107l1.002,1.443c0.021,0.031,0.059,0.046,0.097,0.04
				l0.331-0.061c0.046-0.008,0.08-0.049,0.079-0.096l-0.01-1.152C23.024,9.97,22.991,9.93,22.945,9.922z"/>
			<g>
				<g>
					<linearGradient id="XMLID_5_" gradientUnits="userSpaceOnUse" x1="40.8608" y1="121.5488" x2="40.8608" y2="59.0822">
						<stop  offset="0" style="stop-color:#3FA6FF"/>
						<stop  offset="1" style="stop-color:#0068FF"/>
						<a:midPointStop  offset="0" style="stop-color:#3FA6FF"/>
						<a:midPointStop  offset="0.5" style="stop-color:#3FA6FF"/>
						<a:midPointStop  offset="1" style="stop-color:#0068FF"/>
					</linearGradient>
					<path fill="url(#XMLID_5_)" d="M51.34,51.868c0-0.982-0.794-1.777-1.776-1.777H32.16c-0.983,0-1.777,0.795-1.777,1.777v43.816
						H51.34V51.868z"/>
					<linearGradient id="XMLID_6_" gradientUnits="userSpaceOnUse" x1="65.5215" y1="109.3271" x2="65.5215" y2="46.8613">
						<stop  offset="0" style="stop-color:#3FA600"/>
						<stop  offset="1" style="stop-color:#008300"/>
						<a:midPointStop  offset="0" style="stop-color:#3FA600"/>
						<a:midPointStop  offset="0.5" style="stop-color:#3FA600"/>
						<a:midPointStop  offset="1" style="stop-color:#008300"/>
					</linearGradient>
					<path fill="url(#XMLID_6_)" d="M76.001,39.648c0-0.981-0.794-1.777-1.779-1.777H56.82c-0.982,0-1.777,0.796-1.777,1.777v56.035
						h20.958V39.648z"/>
					<linearGradient id="XMLID_7_" gradientUnits="userSpaceOnUse" x1="89.5156" y1="131.3223" x2="89.5156" y2="68.8559">
						<stop  offset="0" style="stop-color:#FFA600"/>
						<stop  offset="1" style="stop-color:#FF6800"/>
						<a:midPointStop  offset="0" style="stop-color:#FFA600"/>
						<a:midPointStop  offset="0.5" style="stop-color:#FFA600"/>
						<a:midPointStop  offset="1" style="stop-color:#FF6800"/>
					</linearGradient>
					<path fill="url(#XMLID_7_)" d="M99.995,61.641c0-0.98-0.795-1.776-1.779-1.776H80.812c-0.98,0-1.775,0.796-1.775,1.776v34.042
						h20.959V61.641z"/>
					<path opacity="0.5" fill="#FFFFFF" d="M48.586,51.273h-15.5c-0.875,0-1.583,0.709-1.583,1.583v2.333
						c0-0.874,0.708-1.583,1.583-1.583h15.5c0.875,0,1.583,0.709,1.583,1.583v-2.333C50.168,51.982,49.46,51.273,48.586,51.273z"/>
					<path opacity="0.5" fill="#FFFFFF" d="M73.246,39.054H57.747c-0.875,0-1.584,0.709-1.584,1.583v2.334
						c0-0.874,0.709-1.583,1.584-1.583h15.499c0.876,0,1.583,0.709,1.583,1.583v-2.334C74.829,39.763,74.122,39.054,73.246,39.054z"
						/>
					<path opacity="0.5" fill="#FFFFFF" d="M97.239,61.048H81.74c-0.873,0-1.584,0.708-1.584,1.583v2.333
						c0-0.874,0.711-1.582,1.584-1.582h15.499c0.876,0,1.585,0.708,1.585,1.582v-2.333C98.824,61.757,98.115,61.048,97.239,61.048z"
						/>
				</g>
				<g>
					<path opacity="0.11" d="M25.902,81.687v1.777h73.76v-1.777H25.902z"/>
					<path opacity="0.11" d="M25.902,67.247v1.776h73.76v-1.776H25.902z"/>
					<path opacity="0.11" d="M25.902,53.25v1.777h73.76V53.25H25.902z"/>
					<path opacity="0.11" d="M25.902,39.475v1.778h73.76v-1.778H25.902z"/>
					<path fill="#949494" d="M23.681,31.7v67.094h79.092v-3.556c0,0-72.144,0-75.538,0c0-3.362,0-63.539,0-63.539H23.681z"/>
				</g>
			</g>
			<g>
				
					<radialGradient id="XMLID_8_" cx="108.4668" cy="118.249" r="34.7364" fx="108.4668" fy="118.249" gradientUnits="userSpaceOnUse">
					<stop  offset="0" style="stop-color:#000000"/>
					<stop  offset="1" style="stop-color:#000000"/>
					<a:midPointStop  offset="0" style="stop-color:#000000"/>
					<a:midPointStop  offset="0.5" style="stop-color:#000000"/>
					<a:midPointStop  offset="1" style="stop-color:#000000"/>
				</radialGradient>
				<path opacity="0.1" fill="url(#XMLID_8_)" d="M85.191,90.976v35.754h1.793l33.639-33.639v-2.115H85.191z"/>
				<path fill="#FFFFFF" d="M87.537,126.948l33.627-33.627H87.537V126.948z"/>
				<linearGradient id="XMLID_9_" gradientUnits="userSpaceOnUse" x1="104.0166" y1="98.1807" x2="95.0883" y2="135.7938">
					<stop  offset="0" style="stop-color:#FFFFFF"/>
					<stop  offset="1" style="stop-color:#CCCCCC"/>
					<a:midPointStop  offset="0" style="stop-color:#FFFFFF"/>
					<a:midPointStop  offset="0.5" style="stop-color:#FFFFFF"/>
					<a:midPointStop  offset="1" style="stop-color:#CCCCCC"/>
				</linearGradient>
				<path fill="url(#XMLID_9_)" d="M89.865,125.056l29.594-29.592H89.865V125.056z"/>
				<linearGradient id="XMLID_10_" gradientUnits="userSpaceOnUse" x1="82.3086" y1="88.0928" x2="96.1043" y2="101.8885">
					<stop  offset="0" style="stop-color:#B3B3B3"/>
					<stop  offset="1" style="stop-color:#828282"/>
					<a:midPointStop  offset="0" style="stop-color:#B3B3B3"/>
					<a:midPointStop  offset="0.5" style="stop-color:#B3B3B3"/>
					<a:midPointStop  offset="1" style="stop-color:#828282"/>
				</linearGradient>
				<path fill="url(#XMLID_10_)" d="M87.537,92.821c-0.277,0-0.5,0.223-0.5,0.5v33.627c0,0.203,0.121,0.385,0.309,0.463
					c0.186,0.076,0.402,0.033,0.545-0.109l33.627-33.627c0.143-0.145,0.186-0.359,0.109-0.545c-0.078-0.188-0.26-0.309-0.463-0.309
					H87.537z M119.957,93.821c-1.58,1.578-30.342,30.34-31.92,31.92c0-2.209,0-30.986,0-31.92
					C88.971,93.821,117.748,93.821,119.957,93.821z"/>
			</g>
		</g>
		<path fill="none" d="M128,128H0V0h128V128z"/>
	</g>
</svg>
