<?xml version="1.0"?>
<!DOCTYPE svg PUBLIC "-//W3C//DTD SVG 1.0//EN"
	"http://www.w3.org/TR/2001/REC-SVG-20010904/DTD/svg10.dtd">
<svg xmlns:x="http://ns.adobe.com/Extensibility/1.0/"
	xmlns:i="http://ns.adobe.com/AdobeIllustrator/10.0/" xmlns:graph=""
	xmlns="http://www.w3.org/2000/svg" xmlns:xlink="http://www.w3.org/1999/xlink"
	xmlns:a="http://ns.adobe.com/AdobeSVGViewerExtensions/3.0/" width="116"
	height="127" viewBox="-0.322 -0.104 116 127" overflow="visible"
	enable-background="new -0.322 -0.104 116 127" xml:space="preserve">
	<g id="Layer_1_2_">
		<g>
			<path d="M114.828 0.5 L0.5 0.5 L0.5 126.396 L81.201 126.396 L114.828 92.769 z"
				 style="fill:rgb(255,255,255)"/>
			<linearGradient id="XMLID_1_" gradientUnits="userSpaceOnUse" x1="57.5845"
				y1="154.013" x2="57.5845" y2="-101.487">
				<stop offset="0" style="stop-color:rgb(255,255,255)"/>
				<stop offset="0.258" style="stop-color:rgb(241,241,241)"/>
				<stop offset="0.7396" style="stop-color:rgb(206,206,206)"/>
				<stop offset="0.8595" style="stop-color:rgb(196,196,196)"/>
			</linearGradient>
			<path
				d="M111.398 3.467 L3.93 3.467 L3.77 126.121 L80.227 126.121 L111.399 94.869 L111.399
					3.467 z"
				 style="fill:url(#XMLID_1_)"/>
			<linearGradient id="XMLID_2_" gradientUnits="userSpaceOnUse" x1="-32.6685"
				y1="-26.8843" x2="49.8302" y2="55.6144">
				<stop offset="0" style="stop-color:rgb(178,178,178)"/>
				<stop offset="1" style="stop-color:rgb(130,130,130)"/>
				<a:midPointStop offset="0" style="stop-color:#B2B2B2"/>
				<a:midPointStop offset="0.5" style="stop-color:#B2B2B2"/>
				<a:midPointStop offset="1" style="stop-color:#828282"/>
			</linearGradient>
			<path
				d="M114.828 0 L0 0 L0 126.896 L81.408 126.896 L115.328 92.976 L115.328 0 zM114.328 1
					C114.328 1.987 114.328 92.152 114.328 92.563 C114.039 92.852 81.283 125.608
					80.994 125.897 C80.584 125.897 1.984 125.897 1 125.897 C1 124.908 1 1.988
					1 1 C1.986 1 113.342 1 114.328 1 z"
				 style="fill:url(#XMLID_2_)"/>
			<linearGradient id="XMLID_3_" gradientUnits="userSpaceOnUse" x1="36.6865"
				y1="24.8691" x2="197.669" y2="110.512">
				<stop offset="0" style="stop-color:rgb(255,255,255)"/>
				<stop offset="0.5033" style="stop-color:rgb(231,231,231)"/>
				<stop offset="1" style="stop-color:rgb(212,212,212)"/>
				<a:midPointStop offset="0" style="stop-color:#FFFFFF"/>
				<a:midPointStop offset="0.452" style="stop-color:#FFFFFF"/>
				<a:midPointStop offset="1" style="stop-color:#D4D4D4"/>
			</linearGradient>
			<path
				d="M111.67 14.671 L111.67 3.388 L3.863 3.388 L3.767 68.728 C13.742 73.275 24.918 75.824
					36.721 75.824 C74.066 75.824 105.119 48.325 111.67 14.671 z"
				 style="fill:url(#XMLID_3_)"/>
		</g>
		<path
			d="M65.822 82.66 L65.822 69.978 C57.254 73.554 47.899 75.616 38.09 75.793 L38.09 82.66
				z"
			 style="fill:none"/>
		<linearGradient id="XMLID_4_" gradientUnits="userSpaceOnUse" x1="21.8281"
			y1="52.8003" x2="182.81" y2="138.443">
			<stop offset="0" style="stop-color:rgb(255,255,255)"/>
			<stop offset="0.5033" style="stop-color:rgb(231,231,231)"/>
			<stop offset="1" style="stop-color:rgb(212,212,212)"/>
		</linearGradient>
		<path
			d="M65.822 61.863 L38.09 61.863 L38.09 75.793 C47.899 75.615 57.254 73.554 65.822 69.978
				z"
			 style="fill:url(#XMLID_4_)"/>
		<path
			d="M81.372 76.148 C81.372 77.835 81.806 79.091 82.675 79.919 C83.542 80.747 84.86 81.16
				86.624 81.16 C89.144 81.16 90.944 80.75 92.022 79.927 C93.1 79.104 93.64
				77.534 93.64 75.218 L93.64 74.456 L93.64 66.378 C89.297 67.248 86.167 68.448
				84.248 69.98 C82.331 71.511 81.372 73.565 81.372 76.148 z"
			 style="fill:none"/>
		<linearGradient id="XMLID_5_" gradientUnits="userSpaceOnUse" x1="-10.3584"
			y1="10.0996" x2="120.962" y2="10.0996">
			<stop offset="0" style="stop-color:rgb(179,202,255)"/>
			<stop offset="1" style="stop-color:rgb(0,83,189)"/>
			<a:midPointStop offset="0" style="stop-color:#B3CAFF"/>
			<a:midPointStop offset="0.5" style="stop-color:#B3CAFF"/>
			<a:midPointStop offset="1" style="stop-color:#0053BD"/>
		</linearGradient>
		<path d="M111.062 16.471 L3.677 16.471 L3.677 3.728 L111.062 3.728 z"
			 style="fill:url(#XMLID_5_)"/>
		<g>
			<path
				d="M80.708 45.108 C81.127 45.528 81.544 45.946 81.963 46.363 L81.963 43.529 C81.544
					43.959 81.127 44.39 80.708 44.82 C80.708 44.916 80.708 45.014 80.708 45.108
					z"
				 style="fill:none"/>
			<path
				d="M80.78 50.906 C80.658 50.035 79.299 48.968 78.679 48.515 C78.583 48.515 78.487 48.515
					78.391 48.515 C78.317 48.587 78.244 48.659 78.172 48.731 C78.164 49.996
					78.175 50.872 78.172 51.849 C79.089 52.743 80.009 53.634 80.923 54.528 C81.022
					54.528 81.119 54.528 81.216 54.528 C81.286 54.456 81.361 54.383 81.432
					54.311 C81.432 54.19 81.432 54.069 81.432 53.951 C81.166 53.634 80.902 53.322
					80.635 53.006 C81.046 53.006 81.457 53.006 81.866 53.006 C81.898 53.039
					81.929 53.07 81.962 53.104 L81.962 50.947 C81.378 51.042 81.609 51.029 80.78
					50.906 z"
				 style="fill:none"/>
			<g>
				<linearGradient id="XMLID_6_" gradientUnits="userSpaceOnUse" x1="56.498"
					y1="146.564" x2="56.498" y2="35.8929">
					<stop offset="0" style="stop-color:rgb(179,202,255)"/>
					<stop offset="1" style="stop-color:rgb(0,83,189)"/>
				</linearGradient>
				<path
					d="M16.194 67.357 C16.194 89.58 34.274 107.661 56.501 107.661 C78.723 107.661 96.802
						89.58 96.802 67.357 C96.802 45.131 78.723 27.049 56.501 27.049 C34.273 27.05
						16.194 45.132 16.194 67.357 zM19.857 67.357 C19.857 47.151 36.294 30.714
						56.501 30.714 C76.702 30.714 93.138 47.151 93.138 67.357 C93.138 87.558
						76.702 103.996 56.501 103.996 C36.294 103.996 19.857 87.559 19.857 67.357
						z"
					 style="fill:url(#XMLID_6_)"/>
				<radialGradient id="XMLID_7_" cx="55.8057" cy="109.628" r="80.5726"
					fx="55.8057" fy="109.628" gradientUnits="userSpaceOnUse">
					<stop offset="0" style="stop-color:rgb(255,255,255)"/>
					<stop offset="0.0626" style="stop-color:rgb(230,249,255)"/>
					<stop offset="0.1386" style="stop-color:rgb(206,242,255)"/>
					<stop offset="0.1854" style="stop-color:rgb(197,240,255)"/>
					<stop offset="1" style="stop-color:rgb(29,116,217)"/>
				</radialGradient>
				<path
					d="M94.971 67.357 C94.971 88.602 77.746 105.827 56.501 105.827 C35.251 105.827 18.026
						88.602 18.026 67.357 C18.026 46.108 35.251 28.883 56.501 28.883 C77.746
						28.883 94.971 46.108 94.971 67.357 z"
					 style="fill-rule:evenodd;clip-rule:evenodd;fill:url(#XMLID_7_)"/>
				<linearGradient id="XMLID_8_" gradientUnits="userSpaceOnUse" x1="56.4966"
					y1="28.2969" x2="56.4966" y2="57.5648">
					<stop offset="0%" style="stop-color:rgb(255,255,255)"/>
					<stop offset="100%" style="stop-opacity:0;stop-color:rgb(255,255,255)"/>
				</linearGradient>
				<path a:adobe-blending-mode="screen"
					d="M88.688 54.175 C88.688 67.003 74.274 77.399 56.5 77.399 C38.719 77.399 24.304 67.003
						24.304 54.175 C24.304 41.349 38.719 30.949 56.5 30.949 C74.274 30.949
						88.688 41.349 88.688 54.175 z"
					 style="fill:url(#XMLID_8_)"/>
			</g>
			<linearGradient id="XMLID_9_" gradientUnits="userSpaceOnUse" x1="56.4961"
				y1="146.565" x2="56.4961" y2="35.9005">
				<stop offset="0" style="stop-color:rgb(179,202,255)"/>
				<stop offset="1" style="stop-color:rgb(0,83,189)"/>
			</linearGradient>
			<path
				d="M56.495 34.914 C38.606 34.914 24.053 49.467 24.053 67.353 C24.053 85.243 38.606 99.797
					56.495 99.797 C74.385 99.797 88.938 85.242 88.938 67.353 C88.938 49.467
					74.385 34.914 56.495 34.914 zM56.495 98.323 C39.391 98.323 25.529 84.461
					25.529 67.353 C25.529 50.253 39.391 36.388 56.495 36.388 C73.599 36.388 87.463
					50.254 87.463 67.353 C87.463 84.461 73.599 98.323 56.495 98.323 z"
				 style="fill:url(#XMLID_9_)"/>
			<radialGradient id="XMLID_10_" cx="56.1016" cy="94.9063" r="56.5206"
				fx="56.1016" fy="94.9063" gradientUnits="userSpaceOnUse">
				<stop offset="0" style="stop-color:rgb(157,255,0)"/>
				<stop offset="0.764" style="stop-color:rgb(0,151,0)"/>
			</radialGradient>
			<path
				d="M56.495 37.863 C40.232 37.863 27.004 51.094 27.004 67.354 C27.004 83.619 40.233 96.847
					56.495 96.847 C72.757 96.847 85.989 83.618 85.989 67.354 C85.989 51.094
					72.758 37.863 56.495 37.863 z"
				 style="fill:url(#XMLID_10_)"/>
			<radialGradient id="XMLID_11_" cx="51.3433" cy="92.5322" r="53.668"
				fx="51.3433" fy="92.5322" gradientUnits="userSpaceOnUse">
				<stop offset="0" style="stop-color:rgb(255,255,255)"/>
				<stop offset="0.9719" style="stop-color:rgb(255,255,255)"/>
			</radialGradient>
			<path
				d="M56.495 36.388 C39.391 36.388 25.529 50.254 25.529 67.353 C25.529 84.46 39.391 98.323
					56.495 98.323 C73.599 98.323 87.463 84.461 87.463 67.353 C87.463 50.254
					73.599 36.388 56.495 36.388 zM56.495 96.847 C40.232 96.847 27.004 83.618
					27.004 67.354 C27.004 51.094 40.233 37.863 56.495 37.863 C72.757 37.863 85.989
					51.094 85.989 67.354 C85.989 83.618 72.758 96.847 56.495 96.847 z"
				 style="fill-rule:evenodd;clip-rule:evenodd;fill:url(#XMLID_11_)"/>
			<radialGradient id="XMLID_12_" cx="56.3784" cy="86.1943" r="33.1416"
				fx="56.3784" fy="86.1943" gradientUnits="userSpaceOnUse">
				<stop offset="0" style="stop-color:rgb(255,255,255)"/>
				<stop offset="0.3045" style="stop-color:rgb(252,253,255)"/>
				<stop offset="0.5184" style="stop-color:rgb(243,248,255)"/>
				<stop offset="0.7047" style="stop-color:rgb(227,238,255)"/>
				<stop offset="0.874" style="stop-color:rgb(206,225,255)"/>
				<stop offset="1" style="stop-color:rgb(184,212,255)"/>
			</radialGradient>
			<path
				d="M56.495 96.847 C40.232 96.847 27.004 83.618 27.004 67.354 C27.004 51.094 40.233 37.863
					56.495 37.863 C72.757 37.863 85.989 51.094 85.989 67.354 C85.989 83.618
					72.758 96.847 56.495 96.847 z"
				 style="fill-rule:evenodd;clip-rule:evenodd;fill:url(#XMLID_12_)"/>
			<g style="opacity:0.7">
				<g>
					<path
						d="M59.723 43.407 C59.723 45.188 58.28 46.634 56.497 46.634 C54.718 46.634 53.274 45.188
							53.274 43.407 C53.274 41.625 54.718 40.182 56.497 40.182 C58.279 40.183
							59.723 41.625 59.723 43.407 z"
						 style="opacity:0.8;fill:rgb(0,0,157)"/>
					<path
						d="M59.723 91.302 C59.723 93.084 58.28 94.529 56.497 94.529 C54.718 94.529 53.274 93.085
							53.274 91.302 C53.274 89.522 54.718 88.077 56.497 88.077 C58.279 88.077
							59.723 89.521 59.723 91.302 z"
						 style="opacity:0.8;fill:rgb(0,0,157)"/>
				</g>
				<g>
					<path
						d="M80.447 70.581 C78.664 70.581 77.219 69.135 77.219 67.353 C77.219 65.574 78.663 64.129
							80.447 64.129 C82.228 64.129 83.671 65.573 83.671 67.353 C83.671 69.135
							82.229 70.581 80.447 70.581 z"
						 style="opacity:0.8;fill:rgb(0,0,157)"/>
					<path
						d="M32.55 70.581 C30.768 70.581 29.325 69.135 29.325 67.353 C29.325 65.574 30.768 64.129
							32.55 64.129 C34.333 64.129 35.777 65.573 35.777 67.353 C35.777 69.135
							34.333 70.581 32.55 70.581 z"
						 style="opacity:0.8;fill:rgb(0,0,157)"/>
				</g>
			</g>
			<g>
				<g>
					<path d="M44.162 54.462 L41.666 56.96 L56.353 71.649 L58.852 69.152 z"/>
					<path d="M73.587 53.903 L70.958 51.271 L53.96 68.27 L56.589 70.901 z"/>
				</g>
				<path
					d="M60.106 68.149 C60.106 70.402 58.279 72.223 56.03 72.223 C53.781 72.223 51.953 70.402
						51.953 68.149 C51.953 65.898 53.781 64.074 56.03 64.074 C58.279 64.074
						60.106 65.898 60.106 68.149 z"/>
			</g>
			<linearGradient id="XMLID_13_" gradientUnits="userSpaceOnUse" x1="55.0239"
				y1="38.6411" x2="55.0239" y2="69.9256">
				<stop offset="0%" style="stop-color:rgb(255,255,255)"/>
				<stop offset="100%" style="stop-opacity:0;stop-color:rgb(255,255,255)"/>
			</linearGradient>
			<path a:adobe-blending-mode="screen"
				d="M56.099 68.233 C67.81 59.422 78.822 56.436 83.65 55.491 C79.001 44.826 68.513 37.38
					56.308 37.38 C39.789 37.38 26.399 51.014 26.399 67.824 C26.399 70.468 26.731
					73.029 27.354 75.473 C32.198 76.383 44.048 77.295 56.099 68.233 z"
				 style="fill:url(#XMLID_13_)"/>
		</g>
		<g>
			<radialGradient id="XMLID_14_" cx="102.131" cy="117.697" r="34.7364"
				fx="102.131" fy="117.697" gradientUnits="userSpaceOnUse">
				<stop offset="0" style="stop-color:rgb(0,0,0)"/>
				<stop offset="1" style="stop-color:rgb(0,0,0)"/>
				<a:midPointStop offset="0" style="stop-color:#000000"/>
				<a:midPointStop offset="0.5" style="stop-color:#000000"/>
				<a:midPointStop offset="1" style="stop-color:#000000"/>
			</radialGradient>
			<path
				d="M78.855 90.424 L78.855 126.178 L80.648 126.178 L114.287 92.539 L114.287 90.424 z"
				
				 style="opacity:0.1;fill:url(#XMLID_14_)"/>
			<path d="M81.201 126.396 L114.828 92.769 L81.201 92.769 z"
				 style="fill:rgb(255,255,255)"/>
			<linearGradient id="XMLID_15_" gradientUnits="userSpaceOnUse" x1="97.6816"
				y1="97.6289" x2="88.7534" y2="135.242">
				<stop offset="0" style="stop-color:rgb(255,255,255)"/>
				<stop offset="1" style="stop-color:rgb(204,204,204)"/>
				<a:midPointStop offset="0" style="stop-color:#FFFFFF"/>
				<a:midPointStop offset="0.5" style="stop-color:#FFFFFF"/>
				<a:midPointStop offset="1" style="stop-color:#CCCCCC"/>
			</linearGradient>
			<path d="M83.529 124.504 L113.123 94.912 L83.529 94.912 z"
				 style="fill:url(#XMLID_15_)"/>
			<linearGradient id="XMLID_16_" gradientUnits="userSpaceOnUse" x1="75.9727"
				y1="87.541" x2="89.7684" y2="101.337">
				<stop offset="0" style="stop-color:rgb(178,178,178)"/>
				<stop offset="1" style="stop-color:rgb(130,130,130)"/>
				<a:midPointStop offset="0" style="stop-color:#B2B2B2"/>
				<a:midPointStop offset="0.5" style="stop-color:#B2B2B2"/>
				<a:midPointStop offset="1" style="stop-color:#828282"/>
			</linearGradient>
			<path
				d="M81.201 92.27 C80.924 92.27 80.701 92.493 80.701 92.77 L80.701 126.397 C80.701 126.6
					80.822 126.782 81.01 126.86 C81.196 126.936 81.412 126.893 81.555 126.751
					L115.182 93.124 C115.325 92.979 115.368 92.765 115.291 92.579 C115.213 92.391
					115.031 92.27 114.828 92.27 zM113.621 93.27 C112.041 94.848 83.279 123.61
					81.701 125.19 C81.701 122.981 81.701 94.204 81.701 93.27 C82.635 93.27
					111.412 93.27 113.621 93.27 z"
				 style="fill:url(#XMLID_16_)"/>
		</g>
		<g>
			<path
				d="M7.49 14.396 L7.49 7.256 L4.959 7.256 L4.959 5.803 L11.756 5.803 L11.756 7.256 L9.225
					7.256 L9.225 14.397 L7.49 14.397 z"
				 style="fill:rgb(255,255,255)"/>
			<path
				d="M12.867 14.396 L12.867 5.803 L15.468 5.803 L17.016 11.665 L18.553 5.803 L21.164 5.803
					L21.164 14.397 L19.555 14.397 L19.547 7.632 L17.836 14.397 L16.17 14.397
					L14.484 7.632 L14.476 14.397 L12.867 14.397 z"
				 style="fill:rgb(255,255,255)"/>
			<path
				d="M22.879 14.396 L22.879 5.803 L25.661 5.803 C26.716 5.803 27.402 5.846 27.723 5.932
					C28.215 6.061 28.627 6.342 28.959 6.775 C29.291 7.208 29.457 7.766 29.457
					8.451 C29.457 8.979 29.361 9.424 29.17 9.784 C28.979 10.144 28.735 10.427
					28.441 10.632 C28.146 10.838 27.846 10.974 27.543 11.04 C27.129 11.122 26.529
					11.163 25.745 11.163 L24.614 11.163 L24.614 14.397 L22.879 14.397 zM24.613
					7.256 L24.613 9.709 L25.563 9.709 C26.248 9.709 26.705 9.664 26.936 9.573
					C27.166 9.483 27.347 9.342 27.479 9.149 C27.61 8.956 27.675 8.732 27.675
					8.477 C27.675 8.163 27.583 7.903 27.4 7.699 C27.215 7.495 26.983 7.367 26.702
					7.316 C26.494 7.276 26.078 7.257 25.452 7.257 L24.613 7.257 z"
				 style="fill:rgb(255,255,255)"/>
		</g>
	</g>
</svg>
