<?xml version="1.0"?>
<!DOCTYPE svg PUBLIC "-//W3C//DTD SVG 1.0//EN"
	"http://www.w3.org/TR/2001/REC-SVG-20010904/DTD/svg10.dtd">
<svg xmlns:x="http://ns.adobe.com/Extensibility/1.0/"
	xmlns:i="http://ns.adobe.com/AdobeIllustrator/10.0/" xmlns:graph=""
	xmlns="http://www.w3.org/2000/svg" xmlns:xlink="http://www.w3.org/1999/xlink"
	xmlns:a="http://ns.adobe.com/AdobeSVGViewerExtensions/3.0/" width="116"
	height="127" viewBox="-0.322 -0.104 116 127" overflow="visible"
	enable-background="new -0.322 -0.104 116 127" xml:space="preserve">
	<g id="Layer_1_2_">
		<g>
			<path d="M114.828 0.5 L0.5 0.5 L0.5 126.396 L81.201 126.396 L114.828 92.769 z"
				 style="fill:rgb(255,255,255)"/>
			<linearGradient id="XMLID_1_" gradientUnits="userSpaceOnUse" x1="57.5845"
				y1="154.013" x2="57.5845" y2="-101.487">
				<stop offset="0" style="stop-color:rgb(255,255,255)"/>
				<stop offset="0.258" style="stop-color:rgb(241,241,241)"/>
				<stop offset="0.7396" style="stop-color:rgb(206,206,206)"/>
				<stop offset="0.8595" style="stop-color:rgb(196,196,196)"/>
				<a:midPointStop offset="0" style="stop-color:#FFFFFF"/>
				<a:midPointStop offset="0.5674" style="stop-color:#FFFFFF"/>
				<a:midPointStop offset="0.8595" style="stop-color:#C4C4C4"/>
			</linearGradient>
			<path
				d="M111.398 3.467 L3.93 3.467 L3.77 126.121 L80.227 126.121 L111.399 94.869 L111.399
					3.467 z"
				 style="fill:url(#XMLID_1_)"/>
			<linearGradient id="XMLID_2_" gradientUnits="userSpaceOnUse" x1="-32.6685"
				y1="-26.8843" x2="49.8302" y2="55.6144">
				<stop offset="0" style="stop-color:rgb(178,178,178)"/>
				<stop offset="1" style="stop-color:rgb(130,130,130)"/>
				<a:midPointStop offset="0" style="stop-color:#B2B2B2"/>
				<a:midPointStop offset="0.5" style="stop-color:#B2B2B2"/>
				<a:midPointStop offset="1" style="stop-color:#828282"/>
			</linearGradient>
			<path
				d="M114.828 0 L0 0 L0 126.896 L81.408 126.896 L115.328 92.976 L115.328 0 zM114.328 1
					C114.328 1.987 114.328 92.152 114.328 92.563 C114.039 92.852 81.283 125.608
					80.994 125.897 C80.584 125.897 1.984 125.897 1 125.897 C1 124.908 1 1.988
					1 1 C1.986 1 113.342 1 114.328 1 z"
				 style="fill:url(#XMLID_2_)"/>
			<linearGradient id="XMLID_3_" gradientUnits="userSpaceOnUse" x1="36.6865"
				y1="24.8691" x2="197.669" y2="110.512">
				<stop offset="0" style="stop-color:rgb(255,255,255)"/>
				<stop offset="0.5033" style="stop-color:rgb(231,231,231)"/>
				<stop offset="1" style="stop-color:rgb(212,212,212)"/>
				<a:midPointStop offset="0" style="stop-color:#FFFFFF"/>
				<a:midPointStop offset="0.452" style="stop-color:#FFFFFF"/>
				<a:midPointStop offset="1" style="stop-color:#D4D4D4"/>
			</linearGradient>
			<path
				d="M111.67 14.671 L111.67 3.388 L3.863 3.388 L3.767 68.728 C13.742 73.275 24.918 75.824
					36.721 75.824 C74.066 75.824 105.119 48.325 111.67 14.671 z"
				 style="fill:url(#XMLID_3_)"/>
		</g>
		<path
			d="M65.822 82.66 L65.822 69.978 C57.254 73.554 47.899 75.616 38.09 75.793 L38.09 82.66
				z"
			 style="fill:none"/>
		<path
			d="M53.227 44.28 C49.823 46.36 46.538 50.295 43.463 55.974 C40.361 61.704 38.789 67.482
				38.789 73.147 C38.789 76.316 39.471 77.715 40.043 78.333 C40.781 79.131
				41.62 79.471 42.847 79.471 C46.054 79.471 49.692 77.9 53.662 74.801 C57.752
				71.613 60.82 66.884 62.782 60.742 C62.782 60.742 68.034 44.418 68.972 41.502
				C67.455 41.325 66.118 41.206 65.122 41.206 C60.567 41.206 56.565 42.24 53.227
				44.28 z"
			 style="fill:none"/>
		<path
			d="M35.965 75.814 C36.244 77.803 36.861 79.313 37.843 80.373 C39.15 81.784 40.787 82.471
				42.847 82.471 C46.738 82.471 50.998 80.686 55.507 77.166 C57.374 75.711
				59.036 73.965 60.509 71.969 C53.024 74.456 45.03 75.824 36.722 75.824 C36.469
				75.824 36.218 75.816 35.965 75.814 z"
			 style="fill:none"/>
		<g>
			<linearGradient id="XMLID_4_" gradientUnits="userSpaceOnUse" x1="58.4233"
				y1="132.449" x2="58.4233" y2="74.146">
				<stop offset="0" style="stop-color:rgb(255,144,0)"/>
				<stop offset="1" style="stop-color:rgb(255,0,0)"/>
			</linearGradient>
			<path
				d="M90.85 75.364 L89.564 76.372 C86.37 78.875 82.992 80.996 79.521 82.678 C77.058 83.878
					76.147 83.971 75.926 83.971 C75.618 83.971 75.516 83.921 75.514 83.92
					C75.514 83.914 75.419 83.781 75.419 83.383 C75.419 82.427 75.743 79.971 77.287
					73.701 C79.573 64.301 82.036 55.888 84.608 48.696 L91.891 28.194 L89.154
					28.679 L82.793 29.807 C82.793 29.807 81.444 31.597 80.856 32.376 C79.26 32.242
					77.659 32.13 76.107 32.13 C68.559 32.13 62.255 33.097 57.373 35.003 C51.126
					37.479 45.118 41.373 39.506 46.583 C33.922 51.77 29.406 57.622 26.085
					63.977 C22.746 70.373 21.052 76.286 21.052 81.552 C21.052 86.122 22.389 89.901
					25.026 92.778 C27.133 95.1 30.172 96.282 34.051 96.282 C37.868 96.282
					42.068 95.094 46.533 92.75 C51.39 90.231 55.797 87.312 59.752 84.078 C59.049
					86.04 58.304 88.115 58.304 88.115 C57.791 89.504 57.538 90.61 57.538 91.487
					C57.538 92.993 58.099 94.189 59.203 95.043 C60.281 95.866 61.8 96.282 63.727
					96.282 C66.001 96.282 68.36 95.915 70.74 95.19 C74.206 94.154 77.904
					92.528 81.72 90.363 C83.651 89.265 87.865 86.263 94.602 81.185 L95.79 80.291
					zM42.847 83.971 C41.205 83.971 39.965 83.456 38.943 82.353 C37.845 81.169
					37.289 79.082 37.289 76.148 C37.289 70.231 38.922 64.213 42.143 58.261 C45.346
					52.346 48.811 48.221 52.444 46.001 C56.022 43.814 60.289 42.707 65.122
					42.707 C66.712 42.707 68.727 42.913 70.957 43.23 C70.127 45.81 64.209 64.202
					64.209 64.202 C62.154 70.636 58.917 75.607 54.584 78.984 C50.344 82.293
					46.395 83.971 42.847 83.971 z"
				 style="fill:url(#XMLID_4_)"/>
			<path
				d="M91.805 27.701 L82.512 29.348 C82.512 29.348 80.886 31.506 80.617 31.863 C80.118
					31.837 76.107 31.63 76.107 31.63 C68.497 31.63 62.132 32.608 57.191 34.537
					C50.885 37.037 44.821 40.966 39.165 46.216 C33.538 51.443 28.988 57.34 25.641
					63.745 C22.264 70.215 20.552 76.206 20.552 81.552 C20.552 86.252 21.933
					90.143 24.657 93.115 C26.864 95.547 30.025 96.781 34.051 96.781 C37.952 96.781
					42.23 95.573 46.766 93.191 C51.036 90.977 55.022 88.342 58.731 85.445 C58.308
					86.624 57.835 87.945 57.835 87.945 C57.301 89.391 57.04 90.55 57.04
					91.486 C57.04 93.155 57.665 94.484 58.899 95.437 C60.066 96.33 61.691 96.781
					63.729 96.781 C66.052 96.781 68.46 96.406 70.887 95.668 C74.388 94.621 78.116
					92.982 81.969 90.797 C83.92 89.688 88.152 86.674 94.905 81.584 L96.554
					80.344 L90.889 74.698 L89.254 75.978 C86.088 78.459 82.739 80.562 79.302 82.227
					C76.832 83.43 76.019 83.469 75.929 83.47 C75.924 83.434 75.918 83.382
					75.918 83.382 C75.918 82.453 76.239 80.041 77.772 73.819 C80.054 64.435 82.512
					56.039 85.079 48.863 L92.65 27.55 zM89.241 29.17 C89.241 29.17 90.325
					28.978 91.133 28.835 C90.603 30.329 84.138 48.528 84.138 48.528 C81.56 55.736
					79.091 64.166 76.801 73.583 C75.571 78.583 74.919 81.973 74.919 83.383 L75.134
					84.487 L75.29 84.367 L75.926 84.471 C76.321 84.471 77.341 84.296 79.739
					83.127 C83.24 81.431 86.649 79.291 89.872 76.766 C89.872 76.766 90.439
					76.322 90.81 76.031 C91.311 76.531 94.392 79.6 95.032 80.239 C94.686 80.499
					94.304 80.786 94.304 80.786 C87.585 85.85 83.389 88.841 81.476 89.929 C77.69
					92.076 74.031 93.686 70.599 94.711 C68.265 95.422 65.954 95.782 63.73 95.782
					C61.917 95.782 60.497 95.399 59.51 94.645 C58.536 93.893 58.041 92.83
					58.041 91.487 C58.041 90.673 58.281 89.626 58.776 88.288 C58.777 88.284 60.834
					82.55 60.834 82.55 L59.438 83.692 C55.435 86.965 51.016 89.864 46.305 92.306
					C41.911 94.614 37.79 95.783 34.053 95.783 C30.321 95.783 27.408 94.659
					25.398 92.443 C22.847 89.659 21.554 85.996 21.554 81.553 C21.554 76.37 23.228
					70.534 26.53 64.209 C29.823 57.906 34.304 52.099 39.848 46.95 C45.412
					41.784 51.371 37.922 57.559 35.469 C62.381 33.586 68.623 32.631 76.109 32.631
					L81.082 32.889 L81.258 32.678 C81.258 32.678 82.867 30.543 83.076 30.266
					C83.438 30.2 89.241 29.17 89.241 29.17 z"
				 style="fill:rgb(174,0,0)"/>
			<path
				d="M52.184 45.574 C48.475 47.84 44.949 52.029 41.704 58.022 C38.443 64.049 36.789 70.147
					36.789 76.147 C36.789 79.211 37.39 81.414 38.576 82.692 C39.7 83.905 41.056
					84.47 42.847 84.47 C46.51 84.47 50.562 82.756 54.892 79.377 C59.305 75.937
					62.6 70.882 64.686 64.353 L71.615 42.817 L71.028 42.734 C68.529 42.379
					66.597 42.206 65.123 42.206 C60.193 42.206 55.841 43.339 52.184 45.574 zM39.309
					82.013 C38.3 80.925 37.788 78.952 37.788 76.148 C37.788 70.315 39.401
					64.377 42.582 58.499 C45.742 52.663 49.147 48.601 52.704 46.428 C56.202 44.291
					60.38 43.207 65.121 43.207 C66.419 43.207 68.156 43.367 70.294 43.654
					C69.942 44.747 63.732 64.049 63.732 64.049 C61.709 70.384 58.527 75.277 54.275
					78.59 C50.126 81.829 46.28 83.472 42.845 83.472 C41.354 83.471 40.23 83.008
					39.309 82.013 z"
				 style="fill:rgb(174,0,0)"/>
			<linearGradient id="XMLID_5_" gradientUnits="userSpaceOnUse" x1="56.2407"
				y1="8.8989" x2="56.2407" y2="89.4012">
				<stop offset="13.2184%" style="stop-color:rgb(255,255,255)"/>
				<stop offset="100%" style="stop-opacity:0;stop-color:rgb(255,255,255)"/>
			</linearGradient>
			<path a:adobe-blending-mode="screen"
				d="M35.789 76.147 C35.789 69.978 37.483 63.72 40.825 57.545 C44.155 51.394 47.802 47.079
					51.663 44.72 C55.479 42.388 60.008 41.205 65.123 41.205 C66.645 41.205
					68.623 41.381 71.169 41.743 L72.931 41.993 L65.639 64.657 C64.368 68.636 62.644
					72.074 60.51 74.968 C66.529 72.968 72.215 70.239 77.468 66.905 C79.292
					60.021 81.211 53.743 83.197 48.193 C83.197 48.193 88.276 33.894 89.617 30.119
					C89.591 30.123 89.418 30.154 89.418 30.154 C89.418 30.154 84.597 31.009
					83.638 31.179 C83.164 31.807 82.056 33.277 82.056 33.277 L81.53 33.91 L76.11
					33.628 C68.75 33.628 62.63 34.56 57.929 36.396 C51.854 38.804 46 42.601
					40.527 47.682 C35.067 52.753 30.655 58.47 27.415 64.671 C25.003 69.291 23.482
					73.63 22.867 77.624 C27.12 78.366 31.496 78.772 35.965 78.814 C35.852 78.004
					35.789 77.123 35.789 76.147 z"
				 style="fill:url(#XMLID_5_)"/>
		</g>
		<linearGradient id="XMLID_6_" gradientUnits="userSpaceOnUse" x1="-62.5581"
			y1="10.0996" x2="68.4835" y2="10.0996">
			<stop offset="0" style="stop-color:rgb(255,255,255)"/>
			<stop offset="1" style="stop-color:rgb(255,0,0)"/>
			<a:midPointStop offset="0" style="stop-color:#FFFFFF"/>
			<a:midPointStop offset="0.5" style="stop-color:#FFFFFF"/>
			<a:midPointStop offset="1" style="stop-color:#FF0000"/>
		</linearGradient>
		<path d="M111.062 16.471 L3.677 16.471 L3.677 3.728 L111.062 3.728 z"
			 style="fill:url(#XMLID_6_)"/>
		<g>
			<path
				d="M15.195 14.663 L13.134 14.663 L12.326 12.527 L8.573 12.527 L7.8 14.663 L5.773 14.663
					L9.398 5.272 L11.446 5.272 zM11.711 10.943 L10.408 7.455 L9.147 10.943 z"
				 style="fill:rgb(255,255,255)"/>
			<path
				d="M22.419 14.663 L20.744 14.663 L20.744 13.665 C20.466 14.053 20.139 14.345 19.762
					14.54 C19.385 14.735 19.003 14.832 18.62 14.832 C17.84 14.832 17.171 14.517
					16.614 13.886 C16.058 13.256 15.78 12.376 15.78 11.248 C15.78 10.094 16.051
					9.216 16.593 8.616 C17.135 8.016 17.82 7.715 18.649 7.715 C19.408 7.715 20.066
					8.032 20.621 8.663 L20.621 5.271 L22.419 5.271 zM17.624 11.133 C17.624
					11.861 17.725 12.387 17.926 12.712 C18.218 13.183 18.626 13.418 19.15 13.418
					C19.566 13.418 19.921 13.242 20.213 12.889 C20.505 12.535 20.651 12.008
					20.651 11.306 C20.651 10.523 20.509 9.96 20.226 9.615 C19.943 9.271 19.58
					9.098 19.137 9.098 C18.707 9.098 18.348 9.268 18.058 9.609 C17.768 9.949 17.624
					10.458 17.624 11.133 z"
				 style="fill:rgb(255,255,255)"/>
			<path
				d="M23.757 11.178 C23.757 10.579 23.904 10 24.2 9.44 C24.495 8.881 24.914 8.453 25.456
					8.158 C25.998 7.863 26.602 7.715 27.27 7.715 C28.302 7.715 29.147 8.05 29.807
					8.719 C30.467 9.388 30.797 10.234 30.797 11.255 C30.797 12.285 30.464
					13.138 29.798 13.816 C29.132 14.493 28.294 14.832 27.284 14.832 C26.658 14.832
					26.062 14.691 25.494 14.409 C24.927 14.127 24.495 13.714 24.2 13.169 C23.904
					12.624 23.757 11.96 23.757 11.178 zM25.602 11.274 C25.602 11.951 25.763
					12.47 26.085 12.831 C26.408 13.191 26.806 13.372 27.279 13.372 C27.753
					13.372 28.15 13.191 28.47 12.831 C28.791 12.471 28.951 11.947 28.951 11.261
					C28.951 10.592 28.791 10.076 28.47 9.716 C28.15 9.356 27.753 9.175 27.279
					9.175 C26.806 9.175 26.408 9.356 26.085 9.716 C25.763 10.076 25.602 10.596
					25.602 11.274 z"
				 style="fill:rgb(255,255,255)"/>
			<path
				d="M32.118 14.663 L32.118 5.271 L33.917 5.271 L33.917 8.663 C34.474 8.032 35.133 7.715
					35.895 7.715 C36.726 7.715 37.413 8.016 37.958 8.616 C38.501 9.216 38.773
					10.079 38.773 11.203 C38.773 12.366 38.496 13.261 37.942 13.889 C37.388 14.517
					36.715 14.831 35.924 14.831 C35.534 14.831 35.151 14.731 34.772 14.532
					C34.394 14.333 34.068 14.044 33.793 13.664 L33.793 14.662 L32.118 14.662
					zM33.886 11.133 C33.886 11.84 33.999 12.362 34.223 12.699 C34.538 13.178 34.957
					13.418 35.479 13.418 C35.88 13.418 36.222 13.248 36.505 12.908 C36.788
					12.567 36.928 12.032 36.928 11.301 C36.928 10.522 36.786 9.96 36.501 9.615
					C36.216 9.271 35.851 9.098 35.406 9.098 C34.97 9.098 34.607 9.266 34.318 9.602
					C34.031 9.938 33.886 10.449 33.886 11.133 z"
				 style="fill:rgb(255,255,255)"/>
			<path
				d="M44.138 12.527 L45.936 12.834 C45.705 13.486 45.341 13.982 44.845 14.322 C44.347
					14.663 43.725 14.833 42.979 14.833 C41.796 14.833 40.921 14.446 40.354 13.672
					C39.906 13.052 39.682 12.27 39.682 11.326 C39.682 10.198 39.976 9.314 40.565
					8.675 C41.153 8.036 41.898 7.716 42.797 7.716 C43.809 7.716 44.606 8.052
					45.191 8.723 C45.776 9.394 46.055 10.421 46.029 11.806 L41.525 11.806 C41.538
					12.339 41.683 12.755 41.96 13.052 C42.237 13.348 42.582 13.496 42.995
					13.496 C43.276 13.496 43.512 13.42 43.704 13.267 C43.896 13.112 44.041 12.866
					44.138 12.527 zM44.247 10.697 C44.234 10.175 44.099 9.778 43.842 9.506
					C43.587 9.235 43.275 9.098 42.908 9.098 C42.516 9.098 42.192 9.242 41.935 9.529
					C41.678 9.815 41.553 10.205 41.557 10.697 z"
				 style="fill:rgb(255,255,255)"/>
		</g>
		<g>
			<radialGradient id="XMLID_7_" cx="102.131" cy="117.697" r="34.7364"
				fx="102.131" fy="117.697" gradientUnits="userSpaceOnUse">
				<stop offset="0" style="stop-color:rgb(0,0,0)"/>
				<stop offset="1" style="stop-color:rgb(0,0,0)"/>
				<a:midPointStop offset="0" style="stop-color:#000000"/>
				<a:midPointStop offset="0.5" style="stop-color:#000000"/>
				<a:midPointStop offset="1" style="stop-color:#000000"/>
			</radialGradient>
			<path
				d="M78.855 90.424 L78.855 126.178 L80.648 126.178 L114.287 92.539 L114.287 90.424 z"
				
				 style="opacity:0.1;fill:url(#XMLID_7_)"/>
			<path d="M81.201 126.396 L114.828 92.769 L81.201 92.769 z"
				 style="fill:rgb(255,255,255)"/>
			<linearGradient id="XMLID_8_" gradientUnits="userSpaceOnUse" x1="97.6816"
				y1="97.6289" x2="88.7534" y2="135.242">
				<stop offset="0" style="stop-color:rgb(255,255,255)"/>
				<stop offset="1" style="stop-color:rgb(204,204,204)"/>
				<a:midPointStop offset="0" style="stop-color:#FFFFFF"/>
				<a:midPointStop offset="0.5" style="stop-color:#FFFFFF"/>
				<a:midPointStop offset="1" style="stop-color:#CCCCCC"/>
			</linearGradient>
			<path d="M83.529 124.504 L113.123 94.912 L83.529 94.912 z"
				 style="fill:url(#XMLID_8_)"/>
			<linearGradient id="XMLID_9_" gradientUnits="userSpaceOnUse" x1="75.9727"
				y1="87.541" x2="89.7684" y2="101.337">
				<stop offset="0" style="stop-color:rgb(178,178,178)"/>
				<stop offset="1" style="stop-color:rgb(130,130,130)"/>
				<a:midPointStop offset="0" style="stop-color:#B2B2B2"/>
				<a:midPointStop offset="0.5" style="stop-color:#B2B2B2"/>
				<a:midPointStop offset="1" style="stop-color:#828282"/>
			</linearGradient>
			<path
				d="M81.201 92.27 C80.924 92.27 80.701 92.493 80.701 92.77 L80.701 126.397 C80.701 126.6
					80.822 126.782 81.01 126.86 C81.196 126.936 81.412 126.893 81.555 126.751
					L115.182 93.124 C115.325 92.979 115.368 92.765 115.291 92.579 C115.213 92.391
					115.031 92.27 114.828 92.27 zM113.621 93.27 C112.041 94.848 83.279 123.61
					81.701 125.19 C81.701 122.981 81.701 94.204 81.701 93.27 C82.635 93.27
					111.412 93.27 113.621 93.27 z"
				 style="fill:url(#XMLID_9_)"/>
		</g>
	</g>
</svg>
