<?xml version="1.0" encoding="iso-8859-1"?>
<!-- Generator: Adobe Illustrator 10.0.3, SVG Export Plug-In . SVG Version: 3.0.0 Build 77)  -->
<!DOCTYPE svg PUBLIC "-//W3C//DTD SVG 1.0//EN"    "http://www.w3.org/TR/2001/REC-SVG-20010904/DTD/svg10.dtd" [
	<!ENTITY ns_flows "http://ns.adobe.com/Flows/1.0/">
	<!ENTITY ns_svg "http://www.w3.org/2000/svg">
	<!ENTITY ns_xlink "http://www.w3.org/1999/xlink">
]>
<svg  xmlns="&ns_svg;" xmlns:xlink="&ns_xlink;" xmlns:a="http://ns.adobe.com/AdobeSVGViewerExtensions/3.0/"
	 width="128" height="128" viewBox="0 0 128 128" overflow="visible" enable-background="new 0 0 128 128" xml:space="preserve">
	<g id="Layer_1">
		<g>
			<g>
				<path fill="#FFFFFF" d="M121.164,1.052H6.836v125.896h80.701l33.627-33.627V1.052z"/>
				<linearGradient id="XMLID_1_" gradientUnits="userSpaceOnUse" x1="63.9204" y1="154.5645" x2="63.9204" y2="-100.9347">
					<stop  offset="0" style="stop-color:#FFFFFF"/>
					<stop  offset="0.2457" style="stop-color:#F6F6F6"/>
					<stop  offset="0.6374" style="stop-color:#DFDFDF"/>
					<stop  offset="1" style="stop-color:#C4C4C4"/>
					<a:midPointStop  offset="0" style="stop-color:#FFFFFF"/>
					<a:midPointStop  offset="0.6045" style="stop-color:#FFFFFF"/>
					<a:midPointStop  offset="1" style="stop-color:#C4C4C4"/>
				</linearGradient>
				<path fill="url(#XMLID_1_)" d="M117.734,4.019H10.266l-0.16,122.654h76.457l31.172-31.252V4.019z"/>
				<linearGradient id="XMLID_2_" gradientUnits="userSpaceOnUse" x1="-26.333" y1="-26.333" x2="56.1662" y2="56.1662">
					<stop  offset="0" style="stop-color:#B3B3B3"/>
					<stop  offset="1" style="stop-color:#828282"/>
					<a:midPointStop  offset="0" style="stop-color:#B3B3B3"/>
					<a:midPointStop  offset="0.5" style="stop-color:#B3B3B3"/>
					<a:midPointStop  offset="1" style="stop-color:#828282"/>
				</linearGradient>
				<path fill="url(#XMLID_2_)" d="M121.164,0.552H6.336v126.896h81.408l33.92-33.92V0.552H121.164z M120.664,1.552
					c0,0.987,0,91.152,0,91.562c-0.289,0.289-33.045,33.045-33.334,33.334c-0.41,0-79.01,0-79.994,0c0-0.988,0-123.909,0-124.896
					C8.322,1.552,119.678,1.552,120.664,1.552z"/>
				<linearGradient id="XMLID_3_" gradientUnits="userSpaceOnUse" x1="43.0229" y1="25.4214" x2="204.0073" y2="111.0652">
					<stop  offset="0" style="stop-color:#FFFFFF"/>
					<stop  offset="0.8603" style="stop-color:#DADADA"/>
					<stop  offset="1" style="stop-color:#D4D4D4"/>
					<a:midPointStop  offset="0" style="stop-color:#FFFFFF"/>
					<a:midPointStop  offset="0.5254" style="stop-color:#FFFFFF"/>
					<a:midPointStop  offset="1" style="stop-color:#D4D4D4"/>
				</linearGradient>
				<path fill="url(#XMLID_3_)" d="M118.006,15.223V3.94H10.199l-0.096,65.34c9.975,4.547,21.151,7.096,32.954,7.096
					C80.402,76.376,111.455,48.876,118.006,15.223z"/>
			</g>
			<g>
				
					<radialGradient id="XMLID_4_" cx="108.4668" cy="118.249" r="34.7364" fx="108.4668" fy="118.249" gradientUnits="userSpaceOnUse">
					<stop  offset="0" style="stop-color:#000000"/>
					<stop  offset="1" style="stop-color:#000000"/>
					<a:midPointStop  offset="0" style="stop-color:#000000"/>
					<a:midPointStop  offset="0.5" style="stop-color:#000000"/>
					<a:midPointStop  offset="1" style="stop-color:#000000"/>
				</radialGradient>
				<path opacity="0.1" fill="url(#XMLID_4_)" d="M85.191,90.976v35.754h1.793l33.639-33.639v-2.115H85.191z"/>
				<path fill="#FFFFFF" d="M87.537,126.948l33.627-33.627H87.537V126.948z"/>
				<linearGradient id="XMLID_5_" gradientUnits="userSpaceOnUse" x1="104.0166" y1="98.1807" x2="95.0883" y2="135.7938">
					<stop  offset="0" style="stop-color:#FFFFFF"/>
					<stop  offset="1" style="stop-color:#CCCCCC"/>
					<a:midPointStop  offset="0" style="stop-color:#FFFFFF"/>
					<a:midPointStop  offset="0.5" style="stop-color:#FFFFFF"/>
					<a:midPointStop  offset="1" style="stop-color:#CCCCCC"/>
				</linearGradient>
				<path fill="url(#XMLID_5_)" d="M89.865,125.056l29.594-29.592H89.865V125.056z"/>
				<linearGradient id="XMLID_6_" gradientUnits="userSpaceOnUse" x1="82.3086" y1="88.0928" x2="96.1043" y2="101.8885">
					<stop  offset="0" style="stop-color:#B3B3B3"/>
					<stop  offset="1" style="stop-color:#828282"/>
					<a:midPointStop  offset="0" style="stop-color:#B3B3B3"/>
					<a:midPointStop  offset="0.5" style="stop-color:#B3B3B3"/>
					<a:midPointStop  offset="1" style="stop-color:#828282"/>
				</linearGradient>
				<path fill="url(#XMLID_6_)" d="M87.537,92.821c-0.277,0-0.5,0.223-0.5,0.5v33.627c0,0.203,0.121,0.385,0.309,0.463
					c0.186,0.076,0.402,0.033,0.545-0.109l33.627-33.627c0.143-0.145,0.186-0.359,0.109-0.545c-0.078-0.188-0.26-0.309-0.463-0.309
					H87.537z M119.957,93.821c-1.58,1.578-30.342,30.34-31.92,31.92c0-2.209,0-30.986,0-31.92
					C88.971,93.821,117.748,93.821,119.957,93.821z"/>
			</g>
			<linearGradient id="XMLID_7_" gradientUnits="userSpaceOnUse" x1="-3.7275" y1="10.6514" x2="127.5933" y2="10.6514">
				<stop  offset="0" style="stop-color:#B3CAFF"/>
				<stop  offset="1" style="stop-color:#0053BD"/>
				<a:midPointStop  offset="0" style="stop-color:#B3CAFF"/>
				<a:midPointStop  offset="0.5" style="stop-color:#B3CAFF"/>
				<a:midPointStop  offset="1" style="stop-color:#0053BD"/>
			</linearGradient>
			<path fill="url(#XMLID_7_)" d="M117.692,17.023H10.308V4.279h107.385V17.023z"/>
			<g>
				<path opacity="0.1" fill="#000030" enable-background="new    " d="M98.858,70.789c0,0-5.203-3.882-5.784-4.315
					c-0.015-0.269-0.022-0.414-0.035-0.651c0.384-0.471,4.148-5.095,4.148-5.095c0.13-0.157,0.195-0.352,0.195-0.548
					c0-0.129-0.028-0.26-0.089-0.382l-3.101-6.291c-0.116-0.237-0.336-0.408-0.596-0.463c0,0-4.234-0.908-4.789-1.026
					c-0.324-0.428-3.341-4.411-3.97-5.24c0.528-0.704,1.796-2.394,1.796-2.394c0.116-0.156,0.174-0.338,0.174-0.52
					c0-0.233-0.094-0.466-0.277-0.635l-5.196-4.832c-0.262-0.244-0.647-0.302-0.97-0.144c0,0-2.761,1.348-3.468,1.693
					c-0.687-0.466-5.172-3.519-5.781-3.933c-0.019-0.665-0.079-2.84-0.079-2.84c-0.009-0.339-0.217-0.642-0.528-0.773l-7.111-3.008
					c-0.217-0.092-0.46-0.092-0.677,0.001c-0.216,0.091-0.386,0.268-0.47,0.486c0,0-1.015,2.651-1.383,3.609
					c-1.028-0.191-4.312-0.808-4.806-0.9c-0.354-0.444-2.99-3.759-2.99-3.759c-0.188-0.236-0.486-0.357-0.786-0.32l-7.091,0.888
					c-0.394,0.05-0.704,0.361-0.752,0.753c0,0-0.744,6.012-0.849,6.859c-0.306,0.136-0.478,0.213-0.75,0.335
					c-0.649-0.325-5.833-2.917-5.833-2.917c-0.355-0.178-0.785-0.091-1.044,0.21l-3.998,4.643c-0.115,0.133-0.187,0.297-0.205,0.472
					l-0.829,7.661c-0.002,0.031-0.004,0.063-0.004,0.093c0,0.242,0.102,0.475,0.283,0.641c0,0,1.188,1.084,2.298,2.097
					c-2.092,0.057-4.957,0.134-4.957,0.134c-0.42,0.011-0.771,0.32-0.834,0.736l-1.155,7.635c-0.006,0.042-0.01,0.087-0.01,0.13
					c0,0.029,0.002,0.06,0.005,0.089l0.85,8.217c0.042,0.408,0.366,0.729,0.773,0.771c0,0,6.499,0.67,7.341,0.755
					c0.302,0.616,1.43,2.908,1.822,3.706c-0.547,0.509-1.509,1.404-1.509,1.404c-0.118,0.108-0.202,0.246-0.244,0.4l-1.951,6.927
					c-0.022,0.078-0.033,0.156-0.033,0.235c0,0.208,0.076,0.414,0.218,0.574l6.713,7.592c0.295,0.333,0.796,0.39,1.157,0.127
					c0,0,5.266-3.81,6.074-4.394c0.821,0.505,6.399,3.935,7.086,4.356c0.009,0.863,0.081,8.81,0.081,8.81
					c0.003,0.41,0.295,0.762,0.697,0.842l8.536,1.699c0.327,0.064,0.661-0.062,0.862-0.329l4.923-6.537
					c0.087-0.115,0.145-0.252,0.165-0.395c0,0,0.101-0.678,0.187-1.26c0.889-0.029,2.669-0.091,3.309-0.111
					c0.473,0.728,4.32,6.646,4.32,6.646c0.245,0.376,0.737,0.503,1.135,0.292l6.373-3.394c0.096-0.053,0.183-0.121,0.253-0.204
					c0,0,5.414-6.386,5.558-6.555c0.158-0.11,0.287-0.259,0.344-0.444c0.026-0.085,0.041-0.173,0.041-0.26
					c0-0.142-0.034-0.281-0.102-0.407c0,0-0.755-1.417-1.504-2.82c0.296,0.154,0.803,0.422,0.803,0.422
					c0.343,0.179,0.765,0.11,1.031-0.169l6.158-6.458c0.126-0.131,0.207-0.301,0.231-0.48l0.94-6.925
					c0.007-0.04,0.009-0.079,0.009-0.118C99.207,71.213,99.079,70.954,98.858,70.789z M46.529,52.415
					c4.723-5.661,14.416-5.819,22.623-0.054c7.104,4.989,10.916,12.884,9.966,19.438c-1.302,0.815-2.805,1.42-4.488,1.777
					c-5.312,1.13-11.75-0.317-17.225-3.871C50.519,65.234,46.49,58.42,46.529,52.415z"/>
				<g>
					<path fill="#FFFFFF" d="M44.341,28.305l-0.899-1.479l-1.215,7.309l4.354-1.942L44.341,28.305z"/>
					<path fill="#FFFFFF" d="M94.454,56.868l-3.335-0.028L89.7,56.896l0.287,5.172L94.454,56.868z"/>
					<path fill="#FFFFFF" d="M34.912,47.506l1.55-6.838l-4.722-3.597L30.701,36.5l-1.071,7.539l3.886,3.546L34.912,47.506z"/>
					<path fill="#FFFFFF" d="M36.241,69.146l4.049-3.863l-4.194-8.113l-8.387-0.821l-0.905-8.328l-0.112-0.004l-1.438,7.394
						l0.85,8.217l7.818,0.804L36.241,69.146z"/>
					<path fill="#FFFFFF" d="M93.756,73.737l-5.059-2.529l-4.468,5.561l1.547,2.898l3.297,1.733l6.081-6.856L93.756,73.737z"/>
				</g>
				<linearGradient id="XMLID_8_" gradientUnits="userSpaceOnUse" x1="63.2739" y1="20.7769" x2="63.2739" y2="57.1845">
					<stop  offset="0" style="stop-color:#00009F"/>
					<stop  offset="1" style="stop-color:#58E8FF"/>
					<a:midPointStop  offset="0" style="stop-color:#00009F"/>
					<a:midPointStop  offset="0.5" style="stop-color:#00009F"/>
					<a:midPointStop  offset="1" style="stop-color:#58E8FF"/>
				</linearGradient>
				<path fill="url(#XMLID_8_)" d="M71.762,40.784c-9.856-6.398-21.651-5.726-26.345,1.503c-1.49,2.297-2.082,4.979-1.884,7.773
					c4.33-6.739,14.735-7.292,23.454-1.167c7.514,5.276,11.352,13.809,9.758,20.56c1.768-0.966,3.265-2.297,4.365-3.995
					C85.804,58.23,81.617,47.183,71.762,40.784z"/>
				<linearGradient id="XMLID_9_" gradientUnits="userSpaceOnUse" x1="60.7139" y1="57.6211" x2="60.7139" y2="83.63">
					<stop  offset="0" style="stop-color:#006FFF"/>
					<stop  offset="1" style="stop-color:#00E1FF"/>
					<a:midPointStop  offset="0" style="stop-color:#006FFF"/>
					<a:midPointStop  offset="0.5" style="stop-color:#006FFF"/>
					<a:midPointStop  offset="1" style="stop-color:#00E1FF"/>
				</linearGradient>
				<path fill="url(#XMLID_9_)" d="M34.26,70.989l-1.951,6.928l6.713,7.592l6.542-4.735l7.988,4.912l0.085,9.289l8.535,1.698
					l4.925-6.537l0.29-1.975l4.52-0.153l4.589,7.056l6.373-3.393l5.632-6.644H88.5l0.106-0.055l-2.83-5.306l3.297,1.733l6.158-6.458
					l0.941-6.925l-6.108-4.558l-0.077-1.392l4.362-5.355l-3.1-6.29l-5.104-1.093l-4.559-6.017l2.188-2.918l-5.196-4.831
					l-3.919,1.913l-6.564-4.466l-0.092-3.283l-7.109-3.008l-1.642,4.285l-5.834-1.095l-3.191-4.011l-7.091,0.888l-0.909,7.345
					l-1.571,0.701l-6.199-3.1l-3.998,4.642l-0.829,7.662l3.886,3.546l-7.105,0.191l-1.155,7.635l0.85,8.217l7.818,0.804l2.318,4.714
					L34.26,70.989z M81.109,65.459c-4.691,7.23-16.487,7.904-26.343,1.506c-9.857-6.399-14.043-17.447-9.35-24.677
					c4.694-7.229,16.489-7.902,26.345-1.503C81.617,47.183,85.804,58.23,81.109,65.459z"/>
				<linearGradient id="XMLID_10_" gradientUnits="userSpaceOnUse" x1="61.4849" y1="75.7334" x2="61.4849" y2="33.0462">
					<stop  offset="0" style="stop-color:#0095FF"/>
					<stop  offset="1" style="stop-color:#00E1FF"/>
					<a:midPointStop  offset="0" style="stop-color:#0095FF"/>
					<a:midPointStop  offset="0.5" style="stop-color:#0095FF"/>
					<a:midPointStop  offset="1" style="stop-color:#00E1FF"/>
				</linearGradient>
				<path fill="url(#XMLID_10_)" d="M89.623,63.375l-0.359-6.461l4.579-0.18l-3.052-6.193l-5.027-1.076l-4.487-5.924l2.154-2.873
					l-5.116-4.757l-3.859,1.885l-6.462-4.397l-0.091-3.232l-7.001-2.96l-1.615,4.218l-5.743-1.077l-3.142-3.951l-6.642,0.898
					l3.051,5.295l-5.834,2.604l-6.104-3.052l-3.68,4.488l5.654,4.309l-1.525,6.732l-7.99,0.448l0.899,8.259l8.256,0.807l4.128,7.987
					l-5.833,5.566l7.09,7.629l6.911-4.758l8.437,4.936l0.09,9.336l9.693,1.795l1.257-8.526l8.347-0.27l4.848,7.091l6.731-3.41
					l-4.308-8.079l4.397-5.475l6.462,3.23l0.897-6.372L89.623,63.375z M80.806,65.345c-4.619,7.118-16.232,7.78-25.936,1.481
					c-9.705-6.299-13.826-17.176-9.205-24.295c4.62-7.118,16.233-7.782,25.938-1.482C81.307,47.351,85.428,58.227,80.806,65.345z"/>
				<linearGradient id="XMLID_11_" gradientUnits="userSpaceOnUse" x1="34.0386" y1="24.7729" x2="76.7121" y2="67.4469">
					<stop  offset="0" style="stop-color:#003DC7"/>
					<stop  offset="1" style="stop-color:#6DCDFF"/>
					<a:midPointStop  offset="0" style="stop-color:#003DC7"/>
					<a:midPointStop  offset="0.5" style="stop-color:#003DC7"/>
					<a:midPointStop  offset="1" style="stop-color:#6DCDFF"/>
				</linearGradient>
				<path fill="url(#XMLID_11_)" d="M44.69,41.816c-4.946,7.618-0.638,19.226,9.604,25.874c5.852,3.8,12.778,5.337,18.529,4.113
					c3.948-0.839,7.064-2.87,9.013-5.873c1.372-2.11,2.069-4.556,2.069-7.195c0-1.111-0.124-2.258-0.374-3.427
					c-1.223-5.751-5.446-11.452-11.298-15.252C61.991,33.409,49.636,34.197,44.69,41.816z M55.238,66.237
					c-9.44-6.128-13.519-16.66-9.094-23.477c4.425-6.817,15.706-7.378,25.145-1.25c5.475,3.555,9.418,8.847,10.547,14.158
					c0.742,3.488,0.24,6.71-1.454,9.318c-1.692,2.608-4.431,4.378-7.92,5.121C67.152,71.239,60.712,69.792,55.238,66.237z
					 M81.836,65.931z"/>
				<linearGradient id="XMLID_12_" gradientUnits="userSpaceOnUse" x1="94.75" y1="96.3027" x2="23.2337" y2="24.7865">
					<stop  offset="0" style="stop-color:#003DC7"/>
					<stop  offset="1" style="stop-color:#6DCDFF"/>
					<a:midPointStop  offset="0" style="stop-color:#003DC7"/>
					<a:midPointStop  offset="0.5" style="stop-color:#003DC7"/>
					<a:midPointStop  offset="1" style="stop-color:#6DCDFF"/>
				</linearGradient>
				<path fill="url(#XMLID_12_)" d="M50.12,25.041l-7.091,0.888c-0.394,0.049-0.704,0.36-0.752,0.754c0,0-0.745,6.011-0.849,6.859
					c-0.306,0.137-0.479,0.213-0.75,0.334c-0.649-0.324-5.833-2.916-5.833-2.916c-0.354-0.178-0.784-0.091-1.043,0.21l-3.998,4.642
					c-0.115,0.133-0.187,0.297-0.205,0.472l-0.829,7.661c-0.003,0.032-0.005,0.062-0.005,0.094c0,0.241,0.103,0.474,0.283,0.64
					c0,0,1.188,1.083,2.298,2.098c-2.091,0.057-4.957,0.134-4.957,0.134c-0.42,0.01-0.771,0.321-0.834,0.736l-1.155,7.635
					c-0.006,0.043-0.01,0.086-0.01,0.129c0,0.03,0.001,0.06,0.005,0.089l0.849,8.217c0.042,0.408,0.365,0.731,0.774,0.772
					c0,0,6.499,0.669,7.34,0.755c0.302,0.615,1.43,2.908,1.822,3.706c-0.547,0.51-1.51,1.405-1.51,1.405
					c-0.117,0.107-0.201,0.246-0.243,0.399l-1.952,6.927c-0.022,0.078-0.032,0.156-0.032,0.235c0,0.208,0.076,0.412,0.218,0.574
					l6.713,7.591c0.294,0.334,0.796,0.389,1.157,0.128c0,0,5.266-3.809,6.073-4.395c0.822,0.505,6.4,3.935,7.087,4.357
					c0.008,0.861,0.081,8.809,0.081,8.809c0.003,0.411,0.294,0.763,0.697,0.843l8.535,1.698c0.327,0.066,0.662-0.062,0.863-0.328
					l4.922-6.536c0.088-0.116,0.145-0.252,0.166-0.396c0,0,0.1-0.678,0.186-1.26c0.889-0.03,2.669-0.091,3.307-0.112
					c0.475,0.729,4.322,6.646,4.322,6.646c0.245,0.375,0.737,0.504,1.134,0.292l6.373-3.394c0.098-0.051,0.184-0.121,0.255-0.205
					c0,0,5.411-6.383,5.557-6.554c0.158-0.108,0.285-0.258,0.345-0.443c0.026-0.084,0.039-0.173,0.039-0.261
					c0-0.141-0.033-0.28-0.101-0.407c0,0-0.755-1.415-1.505-2.819c0.297,0.155,0.805,0.422,0.805,0.422
					c0.342,0.18,0.762,0.11,1.029-0.17l6.158-6.457c0.127-0.132,0.208-0.301,0.231-0.48l0.94-6.925
					c0.006-0.039,0.01-0.078,0.01-0.117c0-0.271-0.128-0.53-0.349-0.694c0,0-5.202-3.882-5.784-4.316
					c-0.015-0.269-0.022-0.414-0.036-0.653c0.384-0.47,4.15-5.094,4.15-5.094c0.129-0.158,0.194-0.352,0.194-0.547
					c0-0.129-0.029-0.262-0.089-0.383l-3.099-6.291c-0.118-0.237-0.339-0.408-0.598-0.464c0,0-4.234-0.907-4.789-1.025
					c-0.324-0.428-3.342-4.412-3.97-5.24c0.528-0.704,1.796-2.395,1.796-2.395c0.116-0.154,0.173-0.338,0.173-0.52
					c0-0.233-0.094-0.465-0.275-0.635l-5.196-4.831c-0.264-0.246-0.648-0.302-0.971-0.145c0,0-2.761,1.347-3.468,1.693
					c-0.687-0.466-5.172-3.52-5.782-3.934c-0.019-0.664-0.079-2.839-0.079-2.839c-0.009-0.338-0.215-0.642-0.528-0.773l-7.11-3.009
					c-0.217-0.092-0.461-0.091-0.677,0c-0.216,0.092-0.386,0.269-0.471,0.488c0,0-1.015,2.651-1.382,3.609
					c-1.028-0.193-4.312-0.808-4.806-0.901c-0.353-0.444-2.99-3.758-2.99-3.758C50.717,25.124,50.419,25.003,50.12,25.041z
					 M49.852,26.822c0.497,0.625,2.888,3.63,2.888,3.63c0.129,0.163,0.314,0.274,0.518,0.312l5.835,1.094
					c0.411,0.078,0.819-0.151,0.968-0.542c0,0,0.905-2.363,1.32-3.447c1.186,0.501,4.998,2.114,5.771,2.441
					c0.021,0.769,0.075,2.725,0.075,2.725c0.009,0.279,0.149,0.536,0.38,0.693l6.563,4.466c0.257,0.175,0.589,0.2,0.868,0.062
					c0,0,2.587-1.264,3.385-1.653c0.644,0.599,3.37,3.133,4.189,3.896c-0.579,0.771-1.72,2.292-1.72,2.292
					c-0.116,0.155-0.174,0.337-0.174,0.521s0.059,0.368,0.176,0.523l4.559,6.017c0.125,0.165,0.306,0.28,0.51,0.324
					c0,0,3.999,0.856,4.693,1.005c0.301,0.61,2.279,4.624,2.669,5.416c-0.595,0.729-4.012,4.923-4.012,4.923
					c-0.125,0.155-0.194,0.349-0.194,0.547c0,0.016,0.001,0.031,0.001,0.047l0.078,1.392c0.015,0.257,0.141,0.493,0.347,0.646
					c0,0,4.986,3.722,5.698,4.254c-0.112,0.832-0.769,5.666-0.834,6.139c-0.336,0.354-4.765,4.997-5.513,5.781
					c-0.786-0.413-2.719-1.427-2.719-1.427c-0.336-0.178-0.75-0.114-1.018,0.156c-0.165,0.167-0.252,0.388-0.252,0.612
					c0,0.138,0.033,0.278,0.102,0.406c0,0,2.05,3.843,2.53,4.744c-0.519,0.61-5.029,5.934-5.226,6.163
					c-0.248,0.132-4.443,2.366-5.525,2.942c-0.711-1.092-4.155-6.39-4.155-6.39c-0.165-0.255-0.453-0.403-0.757-0.394l-4.519,0.153
					c-0.419,0.014-0.768,0.325-0.829,0.739c0,0-0.208,1.411-0.258,1.757c-0.235,0.312-3.909,5.189-4.464,5.926
					c-0.857-0.171-6.223-1.239-7.311-1.455c-0.011-1.204-0.078-8.583-0.078-8.583c-0.003-0.299-0.159-0.575-0.413-0.731
					l-7.989-4.911c-0.298-0.184-0.678-0.17-0.962,0.036c0,0-4.868,3.522-5.906,4.273c-0.842-0.953-5.356-6.059-5.88-6.649
					c0.216-0.766,1.643-5.831,1.758-6.238c0.294-0.273,1.803-1.678,1.803-1.678c0.181-0.169,0.276-0.399,0.276-0.636
					c0-0.128-0.029-0.26-0.088-0.381l-2.319-4.716c-0.131-0.267-0.392-0.448-0.689-0.479c0,0-5.955-0.612-7.116-0.732
					c-0.121-1.157-0.747-7.211-0.766-7.405c0.029-0.192,0.854-5.65,1.03-6.81c1.169-0.031,6.38-0.172,6.38-0.172
					c0.353-0.01,0.666-0.233,0.789-0.563c0.037-0.099,0.055-0.201,0.055-0.303c0-0.239-0.1-0.473-0.283-0.64
					c0,0-3.016-2.752-3.561-3.25c0.081-0.749,0.701-6.485,0.752-6.956c0.284-0.33,2.718-3.156,3.381-3.926
					c0.984,0.492,5.595,2.798,5.595,2.798c0.232,0.115,0.504,0.122,0.74,0.016l1.572-0.7c0.277-0.124,0.47-0.384,0.507-0.686
					c0,0,0.69-5.568,0.828-6.675C44.929,27.438,49.098,26.916,49.852,26.822z"/>
			</g>
			<g>
				<path fill="#FFFFFF" d="M12.837,15.115V6.521h2.6l1.548,5.862l1.538-5.862h2.611v8.594h-1.609L19.517,8.35l-1.71,6.765h-1.666
					L14.455,8.35l-0.008,6.765H12.837z"/>
				<path fill="#FFFFFF" d="M30.599,15.115h-1.867l-0.746-1.953h-3.447l-0.705,1.953h-1.86l3.305-8.594h1.857L30.599,15.115z
					 M27.416,11.708l-1.199-3.188l-1.152,3.188H27.416z"/>
				<path fill="#FFFFFF" d="M31.531,15.115V6.521h1.734v3.807l3.517-3.807h2.334l-3.246,3.35l3.417,5.244h-2.246l-2.381-4.027
					l-1.396,1.432v2.595H31.531z"/>
				<path fill="#FFFFFF" d="M40.181,15.115V6.521h6.359v1.453h-4.625V9.88h4.297v1.453h-4.297v2.328h4.797v1.453H40.181z"/>
			</g>
		</g>
		<path fill="none" d="M128,128H0V0h128V128z"/>
	</g>
</svg>
