<?xml version="1.0"?>
<!DOCTYPE svg PUBLIC "-//W3C//DTD SVG 1.0//EN"
	"http://www.w3.org/TR/2001/REC-SVG-20010904/DTD/svg10.dtd">
<svg xmlns:x="http://ns.adobe.com/Extensibility/1.0/"
	xmlns:i="http://ns.adobe.com/AdobeIllustrator/10.0/" xmlns:graph=""
	xmlns="http://www.w3.org/2000/svg" xmlns:xlink="http://www.w3.org/1999/xlink"
	xmlns:a="http://ns.adobe.com/AdobeSVGViewerExtensions/3.0/" width="116"
	height="127" viewBox="-0.322 -0.104 116 127" overflow="visible"
	enable-background="new -0.322 -0.104 116 127" xml:space="preserve">
	<g id="Layer_1_2_">
		<g>
			<path d="M114.828 0.5 L0.5 0.5 L0.5 126.396 L81.201 126.396 L114.828 92.769 z"
				 style="fill:rgb(255,255,255)"/>
			<linearGradient id="XMLID_1_" gradientUnits="userSpaceOnUse" x1="57.5845"
				y1="154.013" x2="57.5845" y2="-101.487">
				<stop offset="0" style="stop-color:rgb(255,255,255)"/>
				<stop offset="0.258" style="stop-color:rgb(241,241,241)"/>
				<stop offset="0.7396" style="stop-color:rgb(206,206,206)"/>
				<stop offset="0.8595" style="stop-color:rgb(196,196,196)"/>
			</linearGradient>
			<path
				d="M111.398 3.467 L3.93 3.467 L3.77 126.121 L80.227 126.121 L111.399 94.869 L111.399
					3.467 z"
				 style="fill:url(#XMLID_1_)"/>
			<linearGradient id="XMLID_2_" gradientUnits="userSpaceOnUse" x1="-32.6685"
				y1="-26.8843" x2="49.8302" y2="55.6144">
				<stop offset="0" style="stop-color:rgb(178,178,178)"/>
				<stop offset="1" style="stop-color:rgb(130,130,130)"/>
			</linearGradient>
			<path
				d="M114.828 0 L0 0 L0 126.896 L81.408 126.896 L115.328 92.976 L115.328 0 zM114.328 1
					C114.328 1.987 114.328 92.152 114.328 92.563 C114.039 92.852 81.283 125.608
					80.994 125.897 C80.584 125.897 1.984 125.897 1 125.897 C1 124.908 1 1.988
					1 1 C1.986 1 113.342 1 114.328 1 z"
				 style="fill:url(#XMLID_2_)"/>
			<linearGradient id="XMLID_3_" gradientUnits="userSpaceOnUse" x1="36.6865"
				y1="24.8691" x2="197.669" y2="110.512">
				<stop offset="0" style="stop-color:rgb(255,255,255)"/>
				<stop offset="0.5033" style="stop-color:rgb(231,231,231)"/>
				<stop offset="1" style="stop-color:rgb(212,212,212)"/>
			</linearGradient>
			<path
				d="M111.67 14.671 L111.67 3.388 L3.863 3.388 L3.767 68.728 C13.742 73.275 24.918 75.824
					36.721 75.824 C74.066 75.824 105.119 48.325 111.67 14.671 z"
				 style="fill:url(#XMLID_3_)"/>
		</g>
		<path
			d="M65.822 82.66 L65.822 69.978 C57.254 73.554 47.899 75.616 38.09 75.793 L38.09 82.66
				z"
			 style="fill:none"/>
		<path
			d="M53.227 44.28 C49.823 46.36 46.538 50.295 43.463 55.974 C40.361 61.704 38.789 67.482
				38.789 73.147 C38.789 76.316 39.471 77.715 40.043 78.333 C40.781 79.131
				41.62 79.471 42.847 79.471 C46.054 79.471 49.692 77.9 53.662 74.801 C57.752
				71.613 60.82 66.884 62.782 60.742 C62.782 60.742 68.034 44.418 68.972 41.502
				C67.455 41.325 66.118 41.206 65.122 41.206 C60.567 41.206 56.565 42.24 53.227
				44.28 z"
			 style="fill:none"/>
		<path
			d="M35.965 75.814 C36.244 77.803 36.861 79.313 37.843 80.373 C39.15 81.784 40.787 82.471
				42.847 82.471 C46.738 82.471 50.998 80.686 55.507 77.166 C57.374 75.711
				59.036 73.965 60.509 71.969 C53.024 74.456 45.03 75.824 36.722 75.824 C36.469
				75.824 36.218 75.816 35.965 75.814 z"
			 style="fill:none"/>
		<linearGradient id="XMLID_4_" gradientUnits="userSpaceOnUse" x1="-94.9883"
			y1="10.0996" x2="122.681" y2="10.0996">
			<stop offset="0" style="stop-color:rgb(255,255,255)"/>
			<stop offset="1" style="stop-color:rgb(0,131,0)"/>
		</linearGradient>
		<path d="M111.062 16.471 L3.677 16.471 L3.677 3.728 L111.062 3.728 z"
			 style="fill:url(#XMLID_4_)"/>
		<g>
			<linearGradient id="XMLID_5_" gradientUnits="userSpaceOnUse" x1="11.5459"
				y1="1.6826" x2="38.2455" y2="41.732">
				<stop offset="0.0112" style="stop-color:rgb(0,149,0)"/>
				<stop offset="0.2978" style="stop-color:rgb(0,144,0)"/>
				<stop offset="1" style="stop-color:rgb(0,91,0)"/>
			</linearGradient>
			<path
				d="M55.454 30.188 C34.854 30.188 18.097 46.946 18.097 67.547 C18.097 88.148 34.854 104.907
					55.454 104.907 C76.057 104.907 92.816 88.147 92.816 67.547 C92.815 46.945
					76.057 30.188 55.454 30.188 zM55.454 103.21 C35.758 103.21 19.793 87.246
					19.793 67.547 C19.793 47.852 35.757 31.885 55.454 31.885 C75.15 31.885
					91.116 47.852 91.116 67.547 C91.115 87.246 75.149 103.21 55.454 103.21 z"
				 style="fill:url(#XMLID_5_)"/>
			<linearGradient id="XMLID_6_" gradientUnits="userSpaceOnUse" x1="55.4536"
				y1="33.6538" x2="55.4536" y2="85.4933">
				<stop offset="0" style="stop-color:rgb(0,177,0)"/>
				<stop offset="1" style="stop-color:rgb(0,131,0)"/>
			</linearGradient>
			<path
				d="M55.454 31.885 C35.758 31.885 19.793 47.852 19.793 67.547 C19.793 87.246 35.757 103.21
					55.454 103.21 C75.15 103.21 91.116 87.246 91.116 67.547 C91.115 47.852
					75.149 31.885 55.454 31.885 z"
				 style="fill:url(#XMLID_6_)"/>
			<linearGradient id="XMLID_7_" gradientUnits="userSpaceOnUse" x1="55.3887"
				y1="62.1958" x2="55.3887" y2="97.9612">
				<stop offset="0" style="stop-color:rgb(255,255,255)"/>
				<stop offset="1" style="stop-color:rgb(196,196,196)"/>
			</linearGradient>
			<path
				d="M55.325 34.282 C46.594 34.282 38.661 37.57 32.662 42.921 C26.439 48.477 22.333 56.261
					21.658 65.013 C22.871 61.788 24.648 58.812 26.909 56.201 C32.794 49.397
					41.823 45.029 51.965 45.029 C51.977 45.029 51.988 45.033 52 45.033 C52.012
					45.033 52.021 45.029 52.032 45.029 C53.132 45.029 54.218 45.079 55.289 45.181
					L55.289 34.801 L74.869 54.081 L55.487 73.161 L55.289 73.359 L55.289 61.958
					L35.908 81.038 L37.088 82.201 C37.504 82.556 37.944 82.888 38.381 83.223
					C38.074 83.035 37.772 82.825 37.474 82.581 L55.487 100.317 L55.487 89.93
					C56.569 90.03 57.667 90.087 58.777 90.087 C68.907 90.078 77.629 86.004 83.508
					79.211 C83.514 79.175 83.816 78.822 83.816 78.822 C86.037 76.231 87.791
					73.289 88.988 70.099 C89.055 69.258 89.12 68.414 89.12 67.562 C89.12 49.18
					73.987 34.282 55.325 34.282 z"
				 style="fill:url(#XMLID_7_)"/>
			<linearGradient id="XMLID_8_" gradientUnits="userSpaceOnUse" x1="54.6445"
				y1="34.5195" x2="54.6445" y2="72.6214">
				<stop offset="0%" style="stop-color:rgb(255,255,255)"/>
				<stop offset="100%" style="stop-opacity:0;stop-color:rgb(255,255,255)"/>
			</linearGradient>
			<path a:adobe-blending-mode="screen"
				d="M55.787 67.153 C68.253 57.778 79.977 54.598 85.116 53.59 C80.168 42.233 69.002 34.312
					56.012 34.312 C38.429 34.312 24.176 48.824 24.176 66.72 C24.176 69.531
					24.53 72.258 25.191 74.859 C30.347 75.828 42.959 76.802 55.787 67.153 z"
				 style="fill:url(#XMLID_8_)"/>
			<linearGradient id="XMLID_9_" gradientUnits="userSpaceOnUse" x1="54.2983"
				y1="108.96" x2="54.2983" y2="80.4964">
				<stop offset="3.44828%" style="stop-color:rgb(255,255,255)"/>
				<stop offset="100%" style="stop-opacity:0;stop-color:rgb(255,255,255)"/>
			</linearGradient>
			<path a:adobe-blending-mode="screen"
				d="M54.296 93.905 C39.161 93.905 26.573 85.564 25.421 72.515 C25.363 73.157 25.325 73.802
					25.325 74.455 C25.325 88.413 38.412 99.789 54.297 99.789 C70.295 99.789
					83.273 88.413 83.273 74.455 C83.273 73.802 83.234 73.156 83.179 72.515 C82.032
					85.564 69.54 93.905 54.296 93.905 z"
				 style="opacity:0.8;fill:url(#XMLID_9_)"/>
		</g>
		<g>
			<radialGradient id="XMLID_10_" cx="102.131" cy="117.697" r="34.7364"
				fx="102.131" fy="117.697" gradientUnits="userSpaceOnUse">
				<stop offset="0" style="stop-color:rgb(0,0,0)"/>
				<stop offset="1" style="stop-color:rgb(0,0,0)"/>
				<a:midPointStop offset="0" style="stop-color:#000000"/>
				<a:midPointStop offset="0.5" style="stop-color:#000000"/>
				<a:midPointStop offset="1" style="stop-color:#000000"/>
			</radialGradient>
			<path
				d="M78.855 90.424 L78.855 126.178 L80.648 126.178 L114.287 92.539 L114.287 90.424 z"
				
				 style="opacity:0.1;fill:url(#XMLID_10_)"/>
			<path d="M81.201 126.396 L114.828 92.769 L81.201 92.769 z"
				 style="fill:rgb(255,255,255)"/>
			<linearGradient id="XMLID_11_" gradientUnits="userSpaceOnUse" x1="97.6816"
				y1="97.6289" x2="88.7534" y2="135.242">
				<stop offset="0" style="stop-color:rgb(255,255,255)"/>
				<stop offset="1" style="stop-color:rgb(204,204,204)"/>
				<a:midPointStop offset="0" style="stop-color:#FFFFFF"/>
				<a:midPointStop offset="0.5" style="stop-color:#FFFFFF"/>
				<a:midPointStop offset="1" style="stop-color:#CCCCCC"/>
			</linearGradient>
			<path d="M83.529 124.504 L113.123 94.912 L83.529 94.912 z"
				 style="fill:url(#XMLID_11_)"/>
			<linearGradient id="XMLID_12_" gradientUnits="userSpaceOnUse" x1="75.9727"
				y1="87.541" x2="89.7684" y2="101.337">
				<stop offset="0" style="stop-color:rgb(178,178,178)"/>
				<stop offset="1" style="stop-color:rgb(130,130,130)"/>
				<a:midPointStop offset="0" style="stop-color:#B2B2B2"/>
				<a:midPointStop offset="0.5" style="stop-color:#B2B2B2"/>
				<a:midPointStop offset="1" style="stop-color:#828282"/>
			</linearGradient>
			<path
				d="M81.201 92.27 C80.924 92.27 80.701 92.493 80.701 92.77 L80.701 126.397 C80.701 126.6
					80.822 126.782 81.01 126.86 C81.196 126.936 81.412 126.893 81.555 126.751
					L115.182 93.124 C115.325 92.979 115.368 92.765 115.291 92.579 C115.213 92.391
					115.031 92.27 114.828 92.27 zM113.621 93.27 C112.041 94.848 83.279 123.61
					81.701 125.19 C81.701 122.981 81.701 94.204 81.701 93.27 C82.635 93.27
					111.412 93.27 113.621 93.27 z"
				 style="fill:url(#XMLID_12_)"/>
		</g>
		<g>
			<path
				d="M7.553 14.23 L7.553 5.636 L11.199 5.636 C12.115 5.636 12.781 5.713 13.197 5.867 C13.612
					6.021 13.945 6.296 14.195 6.69 C14.444 7.084 14.569 7.535 14.569 8.042
					C14.569 8.687 14.381 9.218 14.004 9.638 C13.628 10.057 13.065 10.322 12.316
					10.431 C12.689 10.65 12.998 10.891 13.241 11.154 C13.484 11.416 13.812
					11.882 14.225 12.551 L15.273 14.23 L13.199 14.23 L11.954 12.356 C11.508 11.687
					11.202 11.265 11.038 11.091 C10.874 10.917 10.7 10.798 10.516 10.733 C10.332
					10.669 10.04 10.636 9.642 10.636 L9.288 10.636 L9.288 14.23 zM9.288 9.261
					L10.57 9.261 C11.4 9.261 11.92 9.226 12.127 9.156 C12.334 9.086 12.495
					8.966 12.612 8.794 C12.729 8.623 12.788 8.409 12.788 8.152 C12.788 7.864 12.711
					7.632 12.557 7.454 C12.403 7.277 12.186 7.165 11.905 7.119 C11.764 7.099
					11.342 7.09 10.641 7.09 L9.288 7.09 z"
				 style="fill:rgb(255,255,255)"/>
			<path
				d="M16.219 14.23 L16.219 5.636 L22.578 5.636 L22.578 7.089 L17.953 7.089 L17.953 8.995
					L22.25 8.995 L22.25 10.448 L17.953 10.448 L17.953 12.776 L22.75 12.776 L22.75
					14.229 L16.219 14.229 z"
				 style="fill:rgb(255,255,255)"/>
			<path
				d="M29.739 11.058 L31.427 11.574 C31.168 12.52 30.738 13.223 30.135 13.682 C29.532 14.141
					28.769 14.371 27.843 14.371 C26.697 14.371 25.755 13.981 25.018 13.201
					C24.28 12.421 23.912 11.355 23.912 10.002 C23.912 8.571 24.282 7.46 25.023
					6.669 C25.763 5.877 26.738 5.481 27.945 5.481 C28.999 5.481 29.856 5.792
					30.514 6.413 C30.906 6.781 31.2 7.309 31.396 7.996 L29.677 8.402 C29.574 7.958
					29.362 7.608 29.036 7.35 C28.71 7.092 28.317 6.964 27.852 6.964 C27.21
					6.964 26.691 7.193 26.29 7.65 C25.892 8.108 25.691 8.848 25.691 9.872 C25.691
					10.958 25.887 11.733 26.282 12.194 C26.676 12.655 27.188 12.886 27.818 12.886
					C28.283 12.886 28.682 12.739 29.017 12.445 C29.352 12.151 29.593 11.689
					29.739 11.058 z"
				 style="fill:rgb(255,255,255)"/>
			<path
				d="M35.131 14.23 L35.131 10.613 L31.983 5.636 L34.033 5.636 L36.041 9.045 L38.019 5.636
					L40.015 5.636 L36.867 10.625 L36.867 14.23 z"
				 style="fill:rgb(255,255,255)"/>
			<path
				d="M46.409 11.058 L48.097 11.574 C47.838 12.52 47.408 13.223 46.805 13.682 C46.202 14.141
					45.439 14.371 44.513 14.371 C43.367 14.371 42.425 13.981 41.688 13.201
					C40.95 12.421 40.582 11.355 40.582 10.002 C40.582 8.571 40.952 7.46 41.693
					6.669 C42.433 5.877 43.408 5.481 44.615 5.481 C45.669 5.481 46.526 5.792
					47.184 6.413 C47.576 6.781 47.87 7.309 48.066 7.996 L46.347 8.402 C46.244 7.958
					46.032 7.608 45.706 7.35 C45.38 7.092 44.987 6.964 44.522 6.964 C43.88
					6.964 43.361 7.193 42.96 7.65 C42.562 8.108 42.361 8.848 42.361 9.872 C42.361
					10.958 42.557 11.733 42.952 12.194 C43.346 12.655 43.858 12.886 44.488
					12.886 C44.953 12.886 45.352 12.739 45.687 12.445 C46.022 12.151 46.263 11.689
					46.409 11.058 z"
				 style="fill:rgb(255,255,255)"/>
			<path
				d="M49.606 14.23 L49.606 5.714 L51.34 5.714 L51.34 12.777 L55.653 12.777 L55.653 14.23
					z"
				 style="fill:rgb(255,255,255)"/>
			<path
				d="M56.889 14.23 L56.889 5.636 L63.248 5.636 L63.248 7.089 L58.623 7.089 L58.623 8.995
					L62.919 8.995 L62.919 10.448 L58.623 10.448 L58.623 12.776 L63.419 12.776
					L63.419 14.229 L56.889 14.229 z"
				 style="fill:rgb(255,255,255)"/>
			<path
				d="M64.893 5.636 L68.065 5.636 C68.78 5.636 69.325 5.691 69.7 5.8 C70.204 5.949 70.636
					6.213 70.995 6.592 C71.354 6.971 71.628 7.435 71.815 7.985 C72.003 8.534
					72.096 9.211 72.096 10.016 C72.096 10.724 72.008 11.333 71.832 11.845 C71.617
					12.47 71.311 12.976 70.912 13.363 C70.611 13.656 70.205 13.885 69.693 14.049
					C69.31 14.17 68.798 14.231 68.158 14.231 L64.892 14.231 L64.892 5.636
					zM66.627 7.089 L66.627 12.777 L67.928 12.777 C68.414 12.777 68.764 12.75 68.981
					12.695 C69.262 12.625 69.497 12.506 69.684 12.338 C69.87 12.17 70.022
					11.894 70.139 11.509 C70.256 11.124 70.315 10.6 70.315 9.936 C70.315 9.272
					70.256 8.763 70.139 8.407 C70.022 8.051 69.856 7.775 69.645 7.575 C69.434
					7.375 69.165 7.241 68.84 7.171 C68.596 7.116 68.119 7.089 67.41 7.089 z"
				 style="fill:rgb(255,255,255)"/>
		</g>
	</g>
</svg>
