<?xml version="1.0" encoding="iso-8859-1"?>
<!-- Generator: Adobe Illustrator 10.0.3, SVG Export Plug-In . SVG Version: 3.0.0 Build 77)  -->
<!DOCTYPE svg PUBLIC "-//W3C//DTD SVG 1.0//EN"    "http://www.w3.org/TR/2001/REC-SVG-20010904/DTD/svg10.dtd" [
	<!ENTITY ns_flows "http://ns.adobe.com/Flows/1.0/">
	<!ENTITY ns_svg "http://www.w3.org/2000/svg">
	<!ENTITY ns_xlink "http://www.w3.org/1999/xlink">
]>
<svg  xmlns="&ns_svg;" xmlns:xlink="&ns_xlink;" xmlns:a="http://ns.adobe.com/AdobeSVGViewerExtensions/3.0/"
	 width="128" height="128" viewBox="0 0 128 128" overflow="visible" enable-background="new 0 0 128 128" xml:space="preserve">
	<g id="Layer_1">
		<g>
			<g>
				<path fill="#FFFFFF" d="M121.164,1.052H6.836v125.896h80.701l33.627-33.627V1.052z"/>
				<linearGradient id="XMLID_1_" gradientUnits="userSpaceOnUse" x1="63.9204" y1="154.5645" x2="63.9204" y2="-100.9347">
					<stop  offset="0" style="stop-color:#FFFFFF"/>
					<stop  offset="0.258" style="stop-color:#F1F1F1"/>
					<stop  offset="0.7396" style="stop-color:#CECECE"/>
					<stop  offset="0.8595" style="stop-color:#C4C4C4"/>
					<a:midPointStop  offset="0" style="stop-color:#FFFFFF"/>
					<a:midPointStop  offset="0.5674" style="stop-color:#FFFFFF"/>
					<a:midPointStop  offset="0.8595" style="stop-color:#C4C4C4"/>
				</linearGradient>
				<path fill="url(#XMLID_1_)" d="M117.734,4.019H10.266l-0.16,122.654h76.457l31.172-31.252V4.019z"/>
				<linearGradient id="XMLID_2_" gradientUnits="userSpaceOnUse" x1="-26.333" y1="-26.333" x2="56.1662" y2="56.1662">
					<stop  offset="0" style="stop-color:#B3B3B3"/>
					<stop  offset="1" style="stop-color:#828282"/>
					<a:midPointStop  offset="0" style="stop-color:#B3B3B3"/>
					<a:midPointStop  offset="0.5" style="stop-color:#B3B3B3"/>
					<a:midPointStop  offset="1" style="stop-color:#828282"/>
				</linearGradient>
				<path fill="url(#XMLID_2_)" d="M121.164,0.552H6.336v126.896h81.408l33.92-33.92V0.552H121.164z M120.664,1.552
					c0,0.987,0,91.152,0,91.562c-0.289,0.289-33.045,33.045-33.334,33.334c-0.41,0-79.01,0-79.994,0c0-0.988,0-123.909,0-124.896
					C8.322,1.552,119.678,1.552,120.664,1.552z"/>
				<linearGradient id="XMLID_3_" gradientUnits="userSpaceOnUse" x1="43.0229" y1="25.4214" x2="204.0073" y2="111.0652">
					<stop  offset="0" style="stop-color:#FFFFFF"/>
					<stop  offset="0.5033" style="stop-color:#E7E7E7"/>
					<stop  offset="1" style="stop-color:#D4D4D4"/>
					<a:midPointStop  offset="0" style="stop-color:#FFFFFF"/>
					<a:midPointStop  offset="0.452" style="stop-color:#FFFFFF"/>
					<a:midPointStop  offset="1" style="stop-color:#D4D4D4"/>
				</linearGradient>
				<path fill="url(#XMLID_3_)" d="M118.006,15.223V3.94H10.199l-0.096,65.34c9.975,4.547,21.151,7.096,32.954,7.096
					C80.402,76.376,111.455,48.876,118.006,15.223z"/>
			</g>
			<linearGradient id="XMLID_4_" gradientUnits="userSpaceOnUse" x1="92.6777" y1="10.6509" x2="-23.9856" y2="10.6509">
				<stop  offset="0" style="stop-color:#0095FF"/>
				<stop  offset="1" style="stop-color:#00E1FF"/>
				<a:midPointStop  offset="0" style="stop-color:#0095FF"/>
				<a:midPointStop  offset="0.5" style="stop-color:#0095FF"/>
				<a:midPointStop  offset="1" style="stop-color:#00E1FF"/>
			</linearGradient>
			<path fill="url(#XMLID_4_)" d="M117.397,17.023H10.013V4.279h107.385V17.023z"/>
			<path fill="#FFFFFF" d="M21.278,13.387c-0.024-0.033-0.066-0.047-0.105-0.036c0,0-0.315,0.092-0.414,0.121
				c-0.072-0.104-0.842-1.215-0.842-1.215c-0.018-0.026-0.048-0.042-0.08-0.042c-0.032,0-0.062,0.016-0.08,0.042
				c-0.535,0.776-1.408,1.241-2.335,1.241c-1.402,0-2.569-1.014-2.806-2.344c-0.006-0.039-0.012-0.077-0.018-0.116
				c-0.001-0.005-0.001-0.01-0.002-0.016c-0.004-0.034-0.008-0.069-0.012-0.104c-0.001-0.016-0.002-0.032-0.003-0.047
				c-0.002-0.026-0.004-0.052-0.005-0.079c-0.002-0.044-0.004-0.088-0.004-0.133c0-1.08,0.59-2.049,1.541-2.529
				c0.032-0.016,0.053-0.049,0.053-0.086V7.201c0-0.032-0.015-0.063-0.042-0.081c-0.027-0.018-0.06-0.021-0.09-0.008l-0.141,0.06
				c-0.158,0.069-0.308,0.153-0.431,0.225c-0.093-0.065-1.151-0.806-1.151-0.806c-0.038-0.027-0.089-0.023-0.123,0.009l-0.801,0.782
				c-0.02,0.019-0.029,0.044-0.029,0.069c0,0.019,0.005,0.038,0.017,0.054c0,0,0.737,1.092,0.798,1.183
				c-0.201,0.335-0.34,0.668-0.425,1.014c-0.11,0.021-1.463,0.27-1.463,0.27c-0.044,0.008-0.077,0.046-0.079,0.091l-0.05,1.123
				c0,0.001,0,0.002,0,0.004c0,0.046,0.033,0.086,0.08,0.095c0,0,0.007,0.001,0.019,0.003c0.167,0.03,1.371,0.248,1.475,0.266
				c0.085,0.341,0.224,0.687,0.415,1.03c-0.064,0.09-0.897,1.254-0.897,1.254c-0.012,0.017-0.018,0.037-0.018,0.056
				c0,0.024,0.009,0.049,0.028,0.068l0.801,0.812c0.032,0.033,0.084,0.038,0.123,0.012c0,0,1.209-0.815,1.303-0.878
				c0.305,0.189,0.642,0.332,1.024,0.433c0.02,0.109,0.28,1.535,0.28,1.535c0.009,0.046,0.048,0.079,0.095,0.079h1.152
				c0.047,0,0.087-0.034,0.095-0.081c0,0,0.242-1.444,0.261-1.554c0.337-0.093,0.671-0.231,0.994-0.414l0.198,0.118
				c0.351,0.246,1.073,0.751,1.073,0.751c0.039,0.027,0.09,0.022,0.124-0.011l0.812-0.812c0.034-0.034,0.038-0.087,0.01-0.125
				L21.278,13.387z M23.086,5.768c0-0.01-0.001-0.021-0.005-0.031c-0.01-0.031-0.037-0.055-0.068-0.063l-2.064-0.511
				c-0.038-0.009-0.076,0.004-0.1,0.035c0,0-2.102,2.723-2.403,3.113c0-0.475,0-3.083,0-3.083c0-0.053-0.042-0.097-0.095-0.097
				l-1.864-0.02c-0.025,0-0.05,0.01-0.068,0.028S16.39,5.181,16.39,5.206l-0.061,7.796c0,0.026,0.011,0.053,0.03,0.071
				c0.02,0.018,0.046,0.028,0.073,0.026l1.963-0.12c0.052-0.003,0.091-0.046,0.091-0.096c0,0-0.031-2.635-0.036-3.143
				c0.31,0.431,2.437,3.39,2.437,3.39c0.024,0.033,0.066,0.047,0.106,0.036l1.994-0.582c0.03-0.008,0.054-0.032,0.064-0.062
				c0.004-0.01,0.005-0.021,0.005-0.031c0-0.021-0.007-0.041-0.019-0.058c0,0-2.455-3.321-2.541-3.437
				c0.09-0.112,2.569-3.169,2.569-3.169C23.079,5.812,23.086,5.79,23.086,5.768z M22.945,9.922l-1.323-0.23
				c-0.038-0.006-0.077,0.01-0.098,0.043c-0.021,0.033-0.021,0.075,0.002,0.107l1.002,1.443c0.021,0.031,0.059,0.046,0.097,0.04
				l0.331-0.061c0.046-0.008,0.08-0.049,0.079-0.096l-0.01-1.152C23.024,9.97,22.991,9.93,22.945,9.922z"/>
			<g>
				<g>
					<linearGradient id="XMLID_5_" gradientUnits="userSpaceOnUse" x1="87.1299" y1="4.0596" x2="57.9404" y2="211.7532">
						<stop  offset="0.35" style="stop-color:#F0CD87"/>
						<stop  offset="0.464" style="stop-color:#D6A84A"/>
						<stop  offset="0.65" style="stop-color:#A87D28"/>
						<a:midPointStop  offset="0.35" style="stop-color:#F0CD87"/>
						<a:midPointStop  offset="0.5" style="stop-color:#F0CD87"/>
						<a:midPointStop  offset="0.464" style="stop-color:#D6A84A"/>
						<a:midPointStop  offset="0.5" style="stop-color:#D6A84A"/>
						<a:midPointStop  offset="0.65" style="stop-color:#A87D28"/>
					</linearGradient>
					<path fill="url(#XMLID_5_)" d="M117.414,79.332c-5.154,0.843-6.563,4.112-9.471,5.743c-3.652,6.348,3.435,24.505-5.403,16.026
						c-8.838-8.475-22.846-4.204-16.622-10.781c6.227-6.574,12.791,2.176,15.187-12.874c-5.39-11.687-14.893,3.624-19.08,0.037
						c-0.154-0.132-0.22-0.306-0.241-0.502c-1.664,1.068-3.51,1.647-4.847,2.711c1.536-2.707,4.066-3.536,5.678-7.541
						c0.847-2.101,1.686-5.047,2.383-8.294c-2.607-4.766-9.148-10.729-9.807-11.07c-1.482-0.773,0.351-9.143,2.646-4.186
						c1.363,2.933,5.369,6.654,7.38,8.374c-1.545-4.38-4.219-9.07-6.909-12.326c2.871,1.875,6.511,4.708,7.973,9.224
						c2.35-4.298,4.792-7.348,6.093-10.889c1.305-3.543,2.727-9.288,1.317-10.328c-1.418-1.035-6.64,1.546-9.659,3.017
						c-3.027,1.478-5.107,4.197-8.845,6.487c-6.356-1.305-12.758-2.451-19.456-2.47c-2.55-3.841-4.303-7.683-6.484-10.359
						c-2.174-2.682-4.886-6.344-6.482-5.92c-1.598,0.431-2.054,5.951-2.357,9.692c-0.301,3.736,0.424,5.812,0.718,11.301
						c2.652-2.096,5.693-4.453,8.73-4.695c-3.092,2.12-6.273,5.108-9.192,7.621c-0.678,2.563-2.631,8.17-1.456,11.238
						c2.094,5.445,3.578,12.567,10.628,21.306c2.821,1.89,6.068,3.012,9.49,3.778c-3.313,0.143-6.058-0.28-9.368-1.26
						c-1.033,4.259-1.857,10.983,1.021,16.179c2.873,5.193,7.745,7.902,12.417,12.381c3.372,3.133,10.611,7.952,15.737,12.088h1.711
						c-1.62-3.772-3.744-7.904-5.664-11.148c2.793,3.243,6.032,7.404,8.359,11.148h1.719l25.741-23.92
						c-0.002-0.016-0.005-0.03-0.007-0.044c0.003,0.013,0.008,0.026,0.011,0.04l6.413-5.96V79.332z M54.682,58.225
						c-1.422-0.53-4.282,0.188-5.678-0.369c-1.389-0.548-1.551-1.622-1.854-2.638c-0.307-1.015,0.07-2.126,0.096-3.186
						c1.334-0.762,2.388-2.295,4.013-2.276c1.61,0.011,3.281,0.349,4.301,2.362c1.02,2.021,0.852,5.77,1.269,8.656
						C56.117,59.92,56.098,58.748,54.682,58.225z M73.724,62.434c-1.512,0.031-3.888-1.627-5.41-1.633
						c-1.525,0-2.007,1.084-3.028,1.621c1.559-2.531,2.898-6.068,4.66-7.583c1.757-1.516,3.433-1.248,4.949-0.705
						c1.505,0.543,1.869,2.332,2.808,3.499c-0.401,0.999-0.497,2.157-1.194,2.994C75.822,61.467,75.231,62.404,73.724,62.434z"/>
					<linearGradient id="XMLID_6_" gradientUnits="userSpaceOnUse" x1="85.3955" y1="2.8022" x2="55.9217" y2="212.5194">
						<stop  offset="0.35" style="stop-color:#F0CD87"/>
						<stop  offset="0.464" style="stop-color:#D6A84A"/>
						<stop  offset="0.65" style="stop-color:#A87D28"/>
						<a:midPointStop  offset="0.35" style="stop-color:#F0CD87"/>
						<a:midPointStop  offset="0.5" style="stop-color:#F0CD87"/>
						<a:midPointStop  offset="0.464" style="stop-color:#D6A84A"/>
						<a:midPointStop  offset="0.5" style="stop-color:#D6A84A"/>
						<a:midPointStop  offset="0.65" style="stop-color:#A87D28"/>
					</linearGradient>
					<path fill="url(#XMLID_6_)" d="M62.159,123.039h12.679c-2.966-1.942-5.995-3.822-8.935-5.783
						C64.622,119.147,63.384,121.085,62.159,123.039z"/>
					<linearGradient id="XMLID_7_" gradientUnits="userSpaceOnUse" x1="99.5986" y1="47.0537" x2="99.5986" y2="157.9278">
						<stop  offset="0.27" style="stop-color:#FFFFFF"/>
						<stop  offset="0.4034" style="stop-color:#E7C071"/>
						<stop  offset="0.73" style="stop-color:#BA8A2B"/>
						<a:midPointStop  offset="0.27" style="stop-color:#FFFFFF"/>
						<a:midPointStop  offset="0.5" style="stop-color:#FFFFFF"/>
						<a:midPointStop  offset="0.4034" style="stop-color:#E7C071"/>
						<a:midPointStop  offset="0.5" style="stop-color:#E7C071"/>
						<a:midPointStop  offset="0.73" style="stop-color:#BA8A2B"/>
					</linearGradient>
					<path fill="url(#XMLID_7_)" d="M101.104,77.446c-2.396,15.05-8.96,6.3-15.187,12.874c-6.224,6.577,7.784,2.307,16.622,10.781
						c8.838,8.479,1.751-9.679,5.403-16.026c2.907-1.631,4.316-4.9,9.471-5.743V68.749c-8.689-0.302-16.669-0.295-21.625-1.451
						c-9.88-2.294-5.979-2.257-8.584-4.39c0.162,4.847-0.845,8.12-2.752,11.369c-0.72,1.228-1.662,2.056-2.67,2.704
						c0.021,0.196,0.087,0.37,0.241,0.502C86.212,81.07,95.715,65.76,101.104,77.446z"/>
					<path fill="#663333" d="M87.514,56.423c1.334-2.281,2.604-4.479,3.748-6.594c0.929-1.718,1.766-3.376,2.479-4.973
						c0.325-0.73,0.634-1.452,0.901-2.155c1.165-3.042,2.014-6.407,1.99-8.872c-0.014-1.478-0.342-2.631-1.104-3.197
						c-2.041-1.508-7.771,0.83-11.497,2.47c-3.723,1.634-6.094,3.791-10.316,6.537c-5.309-1.398-10.617-2.034-15.917-2.146
						c-2.846-4.029-4.658-7.627-7.37-10.428c-2.705-2.801-6.55-6.568-8.55-6.038c-0.249,0.065-0.485,0.202-0.712,0.4
						c-0.856,0.755-1.552,2.392-2.09,4.396c-0.459,1.712-0.803,3.692-1.024,5.632c-0.134,1.15-0.187,2.347-0.186,3.601
						c0.005,3.762,0.495,8.026,0.736,13.058l0,0.001c0,0.001,0,0.003,0,0.005c-0.279,0.625-0.587,1.212-0.886,1.802
						c-0.97,1.92-1.836,3.866-1.221,7.161c1.047,5.619,4.705,16.421,10.859,24.055c-0.09,0.712-0.194,1.462-0.302,2.237
						c-0.75,5.435-1.645,12.214,0.979,17.297c3,5.812,8.436,8.322,13.107,13.222c0.644,0.493,1.301,0.969,1.974,1.44
						c-1.502,2.566-3.007,5.138-4.51,7.704h3.557c1.225-1.954,2.463-3.892,3.745-5.783c2.939,1.961,5.969,3.841,8.935,5.783h4.293
						c-5.126-4.136-12.365-8.955-15.737-12.088c-4.671-4.479-9.544-7.188-12.417-12.381c-2.878-5.195-2.054-11.92-1.021-16.179
						c3.31,0.979,6.055,1.402,9.368,1.26c-3.421-0.767-6.669-1.889-9.49-3.778c-7.051-8.738-8.535-15.86-10.628-21.306
						c-1.175-3.068,0.778-8.675,1.456-11.238c2.919-2.513,6.1-5.501,9.192-7.621c-3.037,0.242-6.078,2.6-8.73,4.695
						c-0.294-5.489-1.019-7.565-0.718-11.301c0.303-3.741,0.759-9.262,2.357-9.692c1.596-0.424,4.308,3.238,6.482,5.92
						c2.181,2.676,3.934,6.518,6.484,10.359c6.698,0.02,13.1,1.166,19.456,2.47c3.737-2.29,5.817-5.01,8.845-6.487
						c3.02-1.471,8.241-4.052,9.659-3.017c1.409,1.041-0.013,6.785-1.317,10.328c-1.301,3.541-3.743,6.591-6.093,10.889
						c-1.462-4.515-5.102-7.348-7.973-9.224c2.69,3.256,5.364,7.946,6.909,12.326c0.762,0.649,1.246,1.022,1.183,0.946
						c3.531,5.424,6.264,8.487,24.282,9.783c2.299-0.009,4.537,0.036,6.733,0.122v-1.499c-8.948-0.297-17.033-0.438-22.089-2.015
						C87.367,61.83,88.339,58.942,87.514,56.423z"/>
					<path fill="#663333" d="M80.842,123.039h2.695c-2.327-3.744-5.566-7.905-8.359-11.148
						C77.098,115.135,79.222,119.267,80.842,123.039z"/>
					<path fill="#663333" d="M76.937,79.692c1.337-1.063,3.183-1.643,4.847-2.711c-0.219-1.804,4.532-6.164,4.246-10.419
						c-0.121-0.812-0.502-1.736-1.032-2.706c-0.697,3.248-1.536,6.194-2.383,8.294C81.003,76.156,78.473,76.985,76.937,79.692z"/>
					<path fill="#663333" d="M86.398,57.92c0.063,0.077-0.421-0.296-1.183-0.946c0.252,0.711,0.481,1.417,0.667,2.104
						c-0.251,1.626-0.554,3.233-0.886,4.778c0.53,0.969,0.911,1.893,1.032,2.706c0.286,4.255-4.465,8.615-4.246,10.419
						c1.008-0.648,1.95-1.477,2.67-2.704c1.907-3.249,2.914-6.522,2.752-11.369c2.604,2.133-1.296,2.096,8.584,4.39
						c4.956,1.156,12.936,1.149,21.625,1.451v-0.924c-2.196-0.086-4.435-0.131-6.733-0.122C92.662,66.407,89.93,63.345,86.398,57.92
						z"/>
				</g>
				
					<linearGradient id="XMLID_8_" gradientUnits="userSpaceOnUse" x1="-218.4902" y1="474.6895" x2="-227.3062" y2="510.0483" gradientTransform="matrix(1 0 0 1 284.3096 -431.7676)">
					<stop  offset="0.23" style="stop-color:#F0CD87"/>
					<stop  offset="0.4514" style="stop-color:#D6A84A"/>
					<stop  offset="0.77" style="stop-color:#A3761D"/>
					<a:midPointStop  offset="0.23" style="stop-color:#F0CD87"/>
					<a:midPointStop  offset="0.5" style="stop-color:#F0CD87"/>
					<a:midPointStop  offset="0.4514" style="stop-color:#D6A84A"/>
					<a:midPointStop  offset="0.5" style="stop-color:#D6A84A"/>
					<a:midPointStop  offset="0.77" style="stop-color:#A3761D"/>
				</linearGradient>
				<path fill-rule="evenodd" clip-rule="evenodd" fill="url(#XMLID_8_)" d="M40.273,48.258c-0.29,1.173,2.368,12.536,2.649,14.563
					c0.282,2.02,3.261,5.743,4.773,7.896c1.51,2.15,2.02,4.17,5.301,5.925c3.283,1.751,7.263,2.487,11.135,2.222
					c3.872-0.276,6.886-3.09,9.007-4.692c2.129-1.604,4.213-2.462,6.1-4.94c1.892-2.469,10.438-13.895,5.04-9.622
					c-5.397,4.272,2.55-13.834-20.416-17.519C51.635,40.125,40.56,47.085,40.273,48.258z"/>
				
					<linearGradient id="XMLID_9_" gradientUnits="userSpaceOnUse" x1="-234.4863" y1="477.0205" x2="-235.8487" y2="484.7471" gradientTransform="matrix(1 0 0 1 284.5854 -431.7061)">
					<stop  offset="0.09" style="stop-color:#FFFFFF"/>
					<stop  offset="0.213" style="stop-color:#E7C071"/>
					<stop  offset="0.91" style="stop-color:#BA8A2B"/>
					<a:midPointStop  offset="0.09" style="stop-color:#FFFFFF"/>
					<a:midPointStop  offset="0.5" style="stop-color:#FFFFFF"/>
					<a:midPointStop  offset="0.213" style="stop-color:#E7C071"/>
					<a:midPointStop  offset="0.5" style="stop-color:#E7C071"/>
					<a:midPointStop  offset="0.91" style="stop-color:#BA8A2B"/>
				</linearGradient>
				<path fill-rule="evenodd" clip-rule="evenodd" fill="url(#XMLID_9_)" d="M42.17,48.646c1.774-1.679,8.371-4.229,10.868-4.441
					c2.488-0.218,7.698,6.044,2.765,5.395c-4.933-0.655-9.542,1.553-13.026,3.667C39.293,55.38,40.394,50.323,42.17,48.646z"/>
				
					<linearGradient id="XMLID_10_" gradientUnits="userSpaceOnUse" x1="-226.7915" y1="499.0605" x2="-225.175" y2="487.5584" gradientTransform="matrix(1 0 0 1 286.8555 -430.2598)">
					<stop  offset="0.17" style="stop-color:#FFFFFF"/>
					<stop  offset="0.4274" style="stop-color:#E7C071"/>
					<stop  offset="0.83" style="stop-color:#BA8A2B"/>
					<a:midPointStop  offset="0.17" style="stop-color:#FFFFFF"/>
					<a:midPointStop  offset="0.5" style="stop-color:#FFFFFF"/>
					<a:midPointStop  offset="0.4274" style="stop-color:#E7C071"/>
					<a:midPointStop  offset="0.5" style="stop-color:#E7C071"/>
					<a:midPointStop  offset="0.83" style="stop-color:#BA8A2B"/>
				</linearGradient>
				<path fill-rule="evenodd" clip-rule="evenodd" fill="url(#XMLID_10_)" d="M57.24,59.864c0.758-2.587,8.409-1.796,7.952,1.479
					c-0.463,3.273-2.556,4.503-3.711,6.168c-1.154,1.671-5.04,2.201-4.504,0C57.514,65.31,56.481,62.447,57.24,59.864z"/>
				
					<linearGradient id="XMLID_11_" gradientUnits="userSpaceOnUse" x1="-217.4712" y1="488.2334" x2="-220.5863" y2="504.2594" gradientTransform="matrix(1 0 0 1 289.7793 -430.1914)">
					<stop  offset="0.24" style="stop-color:#FFFFFF"/>
					<stop  offset="0.396" style="stop-color:#E7C071"/>
					<stop  offset="0.76" style="stop-color:#BA8A2B"/>
					<a:midPointStop  offset="0.24" style="stop-color:#FFFFFF"/>
					<a:midPointStop  offset="0.5" style="stop-color:#FFFFFF"/>
					<a:midPointStop  offset="0.396" style="stop-color:#E7C071"/>
					<a:midPointStop  offset="0.5" style="stop-color:#E7C071"/>
					<a:midPointStop  offset="0.76" style="stop-color:#BA8A2B"/>
				</linearGradient>
				<path fill-rule="evenodd" clip-rule="evenodd" fill="url(#XMLID_11_)" d="M76.692,57.158c2.66,0.743,2.217,6.468,0.501,7.627
					c-1.714,1.161-4.611-0.261-7.128,0.543c-0.577,0.094,6.179,3.236,1.436,8.266c-8.485,1.72-8.993-2.87-7.974-5.44
					c0.228-0.312,3.189-4.378,3.261-7.964C68.293,57.589,74.052,56.41,76.692,57.158z"/>
				
					<linearGradient id="XMLID_12_" gradientUnits="userSpaceOnUse" x1="-235.5864" y1="461.2051" x2="-239.1523" y2="475.5072" gradientTransform="matrix(1 0 0 1 284.7339 -432.5)">
					<stop  offset="0.21" style="stop-color:#F0CD87"/>
					<stop  offset="0.4478" style="stop-color:#D6A84A"/>
					<stop  offset="0.79" style="stop-color:#A3761D"/>
					<a:midPointStop  offset="0.21" style="stop-color:#F0CD87"/>
					<a:midPointStop  offset="0.5" style="stop-color:#F0CD87"/>
					<a:midPointStop  offset="0.4478" style="stop-color:#D6A84A"/>
					<a:midPointStop  offset="0.5" style="stop-color:#D6A84A"/>
					<a:midPointStop  offset="0.79" style="stop-color:#A3761D"/>
				</linearGradient>
				<path fill-rule="evenodd" clip-rule="evenodd" fill="url(#XMLID_12_)" d="M43.192,43.575c0.173-5.102-2.349-13.958,0.521-15.305
					c2.887-1.341,6.014,7.409,9.022,11.107C48.662,39.539,45.836,41.435,43.192,43.575z"/>
				
					<linearGradient id="XMLID_13_" gradientUnits="userSpaceOnUse" x1="-251.27" y1="459.4795" x2="-254.8439" y2="473.8137" gradientTransform="matrix(-1.0189 -0.3874 -0.3874 1.0189 6.4759 -530.8416)">
					<stop  offset="0.22" style="stop-color:#F0CD87"/>
					<stop  offset="0.4496" style="stop-color:#D6A84A"/>
					<stop  offset="0.78" style="stop-color:#A3761D"/>
					<a:midPointStop  offset="0.22" style="stop-color:#F0CD87"/>
					<a:midPointStop  offset="0.5" style="stop-color:#F0CD87"/>
					<a:midPointStop  offset="0.4496" style="stop-color:#D6A84A"/>
					<a:midPointStop  offset="0.5" style="stop-color:#D6A84A"/>
					<a:midPointStop  offset="0.78" style="stop-color:#A3761D"/>
				</linearGradient>
				<path fill-rule="evenodd" clip-rule="evenodd" fill="url(#XMLID_13_)" d="M84.562,52.156c1.943-5.264,8.211-13.377,5.837-15.785
					c-2.376-2.408-9.207,4.891-13.818,7.584C80.667,45.583,82.755,49.019,84.562,52.156z"/>
				
					<linearGradient id="XMLID_14_" gradientUnits="userSpaceOnUse" x1="-232.8071" y1="487.9502" x2="-237.1573" y2="503.1212" gradientTransform="matrix(-0.9791 -0.1369 -0.2198 0.9906 -71.0697 -458.2182)">
					<stop  offset="0.23" style="stop-color:#FFFFFF"/>
					<stop  offset="0.392" style="stop-color:#E7C071"/>
					<stop  offset="0.77" style="stop-color:#BA8A2B"/>
					<a:midPointStop  offset="0.23" style="stop-color:#FFFFFF"/>
					<a:midPointStop  offset="0.5" style="stop-color:#FFFFFF"/>
					<a:midPointStop  offset="0.392" style="stop-color:#E7C071"/>
					<a:midPointStop  offset="0.5" style="stop-color:#E7C071"/>
					<a:midPointStop  offset="0.77" style="stop-color:#BA8A2B"/>
				</linearGradient>
				<path fill-rule="evenodd" clip-rule="evenodd" fill="url(#XMLID_14_)" d="M46.18,55.012c-2.773,0.395-3.699,6.125-2.29,7.491
					c1.403,1.367,4.577,0.331,6.845,1.447c0.551,0.163-6.811,2.42-3.355,8.002c7.906,2.78,9.49-1.698,9.101-4.371
					c-0.147-0.339-2.095-4.748-1.315-8.309C54.307,56.504,48.95,54.607,46.18,55.012z"/>
				<path fill-rule="evenodd" clip-rule="evenodd" d="M56.481,65.341c0.999-0.062,2.093,1.061,3.273,1.261
					c1.169,0.192,2.699-0.432,3.605-0.107c0.906,0.319,0.751,1.186,1.128,1.784c-1.967,0.682-3.86,1.446-5.523,2.413
					c-1.087-1.416-2.591-2.645-4.282-3.779C55.286,66.388,55.487,65.403,56.481,65.341z"/>
				<linearGradient id="XMLID_15_" gradientUnits="userSpaceOnUse" x1="92.2441" y1="55.4561" x2="-26.5425" y2="55.456">
					<stop  offset="0" style="stop-color:#0095FF"/>
					<stop  offset="1" style="stop-color:#00E1FF"/>
					<a:midPointStop  offset="0" style="stop-color:#0095FF"/>
					<a:midPointStop  offset="0.5" style="stop-color:#0095FF"/>
					<a:midPointStop  offset="1" style="stop-color:#00E1FF"/>
				</linearGradient>
				<path fill="url(#XMLID_15_)" d="M77.836,48.601c-2.295-4.958-4.128,3.413-2.646,4.186c0.658,0.342,7.199,6.304,9.807,11.07
					c0.332-1.545,0.635-3.152,0.886-4.778c-0.186-0.688-0.415-1.393-0.667-2.104C83.205,55.255,79.199,51.534,77.836,48.601z"/>
				<linearGradient id="XMLID_16_" gradientUnits="userSpaceOnUse" x1="87.499" y1="3.9326" x2="58.3613" y2="211.258">
					<stop  offset="0.35" style="stop-color:#F0CD87"/>
					<stop  offset="0.464" style="stop-color:#D6A84A"/>
					<stop  offset="0.65" style="stop-color:#A87D28"/>
					<a:midPointStop  offset="0.35" style="stop-color:#F0CD87"/>
					<a:midPointStop  offset="0.5" style="stop-color:#F0CD87"/>
					<a:midPointStop  offset="0.464" style="stop-color:#D6A84A"/>
					<a:midPointStop  offset="0.5" style="stop-color:#D6A84A"/>
					<a:midPointStop  offset="0.65" style="stop-color:#A87D28"/>
				</linearGradient>
				<path fill="url(#XMLID_16_)" d="M77.836,48.601c-2.295-4.958-4.128,3.413-2.646,4.186c0.658,0.342,7.199,6.304,9.807,11.07
					c0.332-1.545,0.635-3.152,0.886-4.778c-0.186-0.688-0.415-1.393-0.667-2.104C83.205,55.255,79.199,51.534,77.836,48.601z"/>
				<linearGradient id="XMLID_17_" gradientUnits="userSpaceOnUse" x1="80.4902" y1="47.0552" x2="80.4902" y2="157.9283">
					<stop  offset="0.27" style="stop-color:#FFFFFF"/>
					<stop  offset="0.4034" style="stop-color:#E7C071"/>
					<stop  offset="0.73" style="stop-color:#BA8A2B"/>
					<a:midPointStop  offset="0.27" style="stop-color:#FFFFFF"/>
					<a:midPointStop  offset="0.5" style="stop-color:#FFFFFF"/>
					<a:midPointStop  offset="0.4034" style="stop-color:#E7C071"/>
					<a:midPointStop  offset="0.5" style="stop-color:#E7C071"/>
					<a:midPointStop  offset="0.73" style="stop-color:#BA8A2B"/>
				</linearGradient>
				<path fill="url(#XMLID_17_)" d="M77.836,48.601c-2.295-4.958-4.128,3.413-2.646,4.186c0.658,0.342,7.199,6.304,9.807,11.07
					c0.332-1.545,0.635-3.152,0.886-4.778c-0.186-0.688-0.415-1.393-0.667-2.104C83.205,55.255,79.199,51.534,77.836,48.601z"/>
				<path fill="#663333" d="M74.895,54.134c-1.517-0.543-3.192-0.812-4.949,0.705c-1.762,1.515-3.102,5.052-4.66,7.583
					c1.021-0.537,1.503-1.621,3.028-1.621c1.522,0.005,3.898,1.664,5.41,1.633c1.508-0.03,2.099-0.967,2.784-1.808
					c0.697-0.837,0.793-1.995,1.194-2.994C76.764,56.465,76.399,54.677,74.895,54.134z"/>
				<path fill="#663333" d="M51.26,49.756c-1.625-0.019-2.679,1.515-4.013,2.276c-0.026,1.06-0.403,2.171-0.096,3.186
					c0.303,1.016,0.465,2.09,1.854,2.638c1.396,0.557,4.255-0.162,5.678,0.369c1.416,0.523,1.435,1.696,2.148,2.55
					c-0.417-2.887-0.249-6.635-1.269-8.656C54.541,50.105,52.87,49.767,51.26,49.756z"/>
				<path fill="#663333" d="M110.997,99.119l0.004-0.004c-0.003-0.014-0.008-0.027-0.011-0.04
					C110.992,99.089,110.995,99.104,110.997,99.119z"/>
				<path fill-rule="evenodd" clip-rule="evenodd" fill="#FFFFFF" d="M48.32,52.848c0.174-1.196,1.105-1.746,2.349-1.726
					c1.247,0.011,3.147,0.754,4.014,1.821c0.865,1.06,0.792,2.532-0.39,3.548c-1.181,1.017-3.033,0.917-4.502,0.093
					C48.32,55.755,48.146,54.045,48.32,52.848z"/>
				<g>
					<path fill-rule="evenodd" clip-rule="evenodd" d="M49.641,52.48c0.235-1.085,1.008-1.578,1.981-1.566
						c0.979,0.013,2.415,0.687,3.005,1.653c0.592,0.961,0.418,2.296-0.59,3.212c-1.02,0.922-2.456,0.829-3.543,0.087
						C49.405,55.113,49.405,53.566,49.641,52.48z"/>
					<path fill-rule="evenodd" clip-rule="evenodd" fill="#FFFFFF" d="M50.157,52.699c0.089-0.418,0.39-0.605,0.766-0.599
						c0.376,0,0.928,0.263,1.154,0.637c0.229,0.366,0.161,0.88-0.227,1.235c-0.39,0.355-0.947,0.316-1.372,0.031
						C50.065,53.715,50.065,53.117,50.157,52.699z"/>
				</g>
				<path fill-rule="evenodd" clip-rule="evenodd" fill="#FFFFFF" d="M76.371,58.019c0.321-1.173-0.32-2.002-1.488-2.42
					c-1.155-0.418-3.222-0.387-4.45,0.3c-1.226,0.685-1.751,2.076-1.065,3.43c0.698,1.353,2.449,1.902,4.146,1.646
					C75.205,60.72,76.051,59.191,76.371,58.019z"/>
				<g>
					<path fill-rule="evenodd" clip-rule="evenodd" d="M70.144,57.227c-0.04-1.091,0.593-1.82,1.559-2.14
						c0.96-0.331,2.536-0.206,3.368,0.486c0.826,0.686,0.992,1.984,0.226,3.187c-0.755,1.205-2.198,1.623-3.46,1.31
						C70.58,59.747,70.191,58.312,70.144,57.227z"/>
					<path fill-rule="evenodd" clip-rule="evenodd" fill="#FFFFFF" d="M70.71,57.245c-0.015-0.417,0.228-0.697,0.595-0.822
						c0.372-0.125,0.976-0.077,1.297,0.192c0.322,0.262,0.382,0.762,0.095,1.222c-0.297,0.468-0.854,0.625-1.338,0.506
						C70.875,58.219,70.722,57.669,70.71,57.245z"/>
				</g>
			</g>
			<g>
				
					<radialGradient id="XMLID_18_" cx="108.4668" cy="118.249" r="34.7364" fx="108.4668" fy="118.249" gradientUnits="userSpaceOnUse">
					<stop  offset="0" style="stop-color:#000000"/>
					<stop  offset="1" style="stop-color:#000000"/>
					<a:midPointStop  offset="0" style="stop-color:#000000"/>
					<a:midPointStop  offset="0.5" style="stop-color:#000000"/>
					<a:midPointStop  offset="1" style="stop-color:#000000"/>
				</radialGradient>
				<path opacity="0.1" fill="url(#XMLID_18_)" d="M85.191,90.976v35.754h1.793l33.639-33.639v-2.115H85.191z"/>
				<path fill="#FFFFFF" d="M87.537,126.948l33.627-33.627H87.537V126.948z"/>
				<linearGradient id="XMLID_19_" gradientUnits="userSpaceOnUse" x1="104.0166" y1="98.1807" x2="95.0883" y2="135.7938">
					<stop  offset="0" style="stop-color:#FFFFFF"/>
					<stop  offset="1" style="stop-color:#CCCCCC"/>
					<a:midPointStop  offset="0" style="stop-color:#FFFFFF"/>
					<a:midPointStop  offset="0.5" style="stop-color:#FFFFFF"/>
					<a:midPointStop  offset="1" style="stop-color:#CCCCCC"/>
				</linearGradient>
				<path fill="url(#XMLID_19_)" d="M89.865,125.056l29.594-29.592H89.865V125.056z"/>
				<linearGradient id="XMLID_20_" gradientUnits="userSpaceOnUse" x1="82.3086" y1="88.0928" x2="96.1043" y2="101.8885">
					<stop  offset="0" style="stop-color:#B3B3B3"/>
					<stop  offset="1" style="stop-color:#828282"/>
					<a:midPointStop  offset="0" style="stop-color:#B3B3B3"/>
					<a:midPointStop  offset="0.5" style="stop-color:#B3B3B3"/>
					<a:midPointStop  offset="1" style="stop-color:#828282"/>
				</linearGradient>
				<path fill="url(#XMLID_20_)" d="M87.537,92.821c-0.277,0-0.5,0.223-0.5,0.5v33.627c0,0.203,0.121,0.385,0.309,0.463
					c0.186,0.076,0.402,0.033,0.545-0.109l33.627-33.627c0.143-0.145,0.186-0.359,0.109-0.545c-0.078-0.188-0.26-0.309-0.463-0.309
					H87.537z M119.957,93.821c-1.58,1.578-30.342,30.34-31.92,31.92c0-2.209,0-30.986,0-31.92
					C88.971,93.821,117.748,93.821,119.957,93.821z"/>
			</g>
		</g>
		<path fill="none" d="M128,128H0V0h128V128z"/>
	</g>
</svg>
