<?xml version="1.0" encoding="iso-8859-1"?>
<!-- Generator: Adobe Illustrator 10.0.3, SVG Export Plug-In . SVG Version: 3.0.0 Build 77)  -->
<!DOCTYPE svg PUBLIC "-//W3C//DTD SVG 1.0//EN"    "http://www.w3.org/TR/2001/REC-SVG-20010904/DTD/svg10.dtd" [
	<!ENTITY ns_flows "http://ns.adobe.com/Flows/1.0/">
	<!ENTITY ns_svg "http://www.w3.org/2000/svg">
	<!ENTITY ns_xlink "http://www.w3.org/1999/xlink">
]>
<svg  xmlns="&ns_svg;" xmlns:xlink="&ns_xlink;" xmlns:a="http://ns.adobe.com/AdobeSVGViewerExtensions/3.0/"
	 width="128" height="128" viewBox="0 0 128 128" overflow="visible" enable-background="new 0 0 128 128" xml:space="preserve">
	<g id="Layer_1">
		<g>
			<g>
				<path fill="#FFFFFF" d="M121.164,1.052H6.836v125.896h80.701l33.627-33.627V1.052z"/>
				<linearGradient id="XMLID_1_" gradientUnits="userSpaceOnUse" x1="63.9204" y1="154.5645" x2="63.9204" y2="-100.9347">
					<stop  offset="0" style="stop-color:#FFFFFF"/>
					<stop  offset="0.2457" style="stop-color:#F6F6F6"/>
					<stop  offset="0.6374" style="stop-color:#DFDFDF"/>
					<stop  offset="1" style="stop-color:#C4C4C4"/>
					<a:midPointStop  offset="0" style="stop-color:#FFFFFF"/>
					<a:midPointStop  offset="0.6045" style="stop-color:#FFFFFF"/>
					<a:midPointStop  offset="1" style="stop-color:#C4C4C4"/>
				</linearGradient>
				<path fill="url(#XMLID_1_)" d="M117.734,4.019H10.266l-0.16,122.654h76.457l31.172-31.252V4.019z"/>
				<linearGradient id="XMLID_2_" gradientUnits="userSpaceOnUse" x1="-26.333" y1="-26.333" x2="56.1662" y2="56.1662">
					<stop  offset="0" style="stop-color:#B3B3B3"/>
					<stop  offset="1" style="stop-color:#828282"/>
					<a:midPointStop  offset="0" style="stop-color:#B3B3B3"/>
					<a:midPointStop  offset="0.5" style="stop-color:#B3B3B3"/>
					<a:midPointStop  offset="1" style="stop-color:#828282"/>
				</linearGradient>
				<path fill="url(#XMLID_2_)" d="M121.164,0.552H6.336v126.896h81.408l33.92-33.92V0.552H121.164z M120.664,1.552
					c0,0.987,0,91.152,0,91.562c-0.289,0.289-33.045,33.045-33.334,33.334c-0.41,0-79.01,0-79.994,0c0-0.988,0-123.909,0-124.896
					C8.322,1.552,119.678,1.552,120.664,1.552z"/>
				<linearGradient id="XMLID_3_" gradientUnits="userSpaceOnUse" x1="43.0229" y1="25.4214" x2="204.0073" y2="111.0652">
					<stop  offset="0" style="stop-color:#FFFFFF"/>
					<stop  offset="0.8603" style="stop-color:#DADADA"/>
					<stop  offset="1" style="stop-color:#D4D4D4"/>
					<a:midPointStop  offset="0" style="stop-color:#FFFFFF"/>
					<a:midPointStop  offset="0.5254" style="stop-color:#FFFFFF"/>
					<a:midPointStop  offset="1" style="stop-color:#D4D4D4"/>
				</linearGradient>
				<path fill="url(#XMLID_3_)" d="M118.006,15.223V3.94H10.199l-0.096,65.34c9.975,4.547,21.151,7.096,32.954,7.096
					C80.402,76.376,111.455,48.876,118.006,15.223z"/>
			</g>
			<linearGradient id="XMLID_4_" gradientUnits="userSpaceOnUse" x1="-3.7275" y1="10.6514" x2="127.5933" y2="10.6514">
				<stop  offset="0" style="stop-color:#B3CAFF"/>
				<stop  offset="1" style="stop-color:#0053BD"/>
				<a:midPointStop  offset="0" style="stop-color:#B3CAFF"/>
				<a:midPointStop  offset="0.5" style="stop-color:#B3CAFF"/>
				<a:midPointStop  offset="1" style="stop-color:#0053BD"/>
			</linearGradient>
			<path fill="url(#XMLID_4_)" d="M117.692,17.023H10.308V4.279h107.385V17.023z"/>
			<linearGradient id="XMLID_5_" gradientUnits="userSpaceOnUse" x1="62.8315" y1="95.1143" x2="62.8315" y2="-25.5516">
				<stop  offset="0" style="stop-color:#B3CAFF"/>
				<stop  offset="1" style="stop-color:#0053BD"/>
				<a:midPointStop  offset="0" style="stop-color:#B3CAFF"/>
				<a:midPointStop  offset="0.5" style="stop-color:#B3CAFF"/>
				<a:midPointStop  offset="1" style="stop-color:#0053BD"/>
			</linearGradient>
			<path fill="url(#XMLID_5_)" d="M90.644,83.539h8c-2.477,5.074-6.275,9.051-11.398,11.926c-5.867,3.299-13.021,4.949-21.462,4.949
				c-8.168,0-15.223-1.385-21.165-4.152c-5.941-2.771-10.359-6.855-13.256-12.254c-2.896-5.4-4.344-11.279-4.344-17.637
				c0-6.977,1.645-13.477,4.936-19.498s7.795-10.541,13.51-13.559c5.715-3.016,12.248-4.525,19.596-4.525
				c6.233,0,11.776,1.217,16.626,3.646s8.555,5.883,11.115,10.359s3.842,9.367,3.842,14.674c0,6.324-1.943,12.041-5.826,17.148
				c-4.875,6.449-11.121,9.672-18.742,9.672c-2.055,0-3.6-0.357-4.638-1.074c-1.039-0.717-1.732-1.768-2.078-3.152
				c-2.901,2.818-6.243,4.227-10.026,4.227c-4.078,0-7.463-1.416-10.154-4.252c-2.691-2.834-4.035-6.604-4.035-11.307
				c0-5.816,1.621-11.125,4.863-15.928c3.93-5.842,8.965-8.764,15.107-8.764c4.372,0,7.601,1.684,9.689,5.047l0.926-4.297h9.783
				l-5.6,26.73c-0.348,1.691-0.52,2.785-0.52,3.281c0,0.621,0.141,1.088,0.426,1.398s0.625,0.465,1.021,0.465
				c1.186,0,2.719-0.717,4.598-2.154c2.521-1.881,4.561-4.406,6.119-7.576c1.557-3.168,2.336-6.449,2.336-9.842
				c0-6.09-2.201-11.184-6.6-15.281s-10.541-6.146-18.423-6.146c-6.697,0-12.375,1.371-17.033,4.113
				c-4.66,2.742-8.17,6.6-10.529,11.574c-2.359,4.977-3.539,10.156-3.539,15.539c0,5.236,1.314,10,3.947,14.293
				c2.633,4.291,6.328,7.424,11.086,9.396s10.203,2.959,16.334,2.959c5.905,0,10.985-0.834,15.237-2.5
				C84.624,89.371,88.048,86.871,90.644,83.539z M50.769,68.375c0,3.141,0.629,5.453,1.887,6.938s2.816,2.227,4.676,2.227
				c1.391,0,2.699-0.346,3.922-1.039c0.928-0.494,1.844-1.273,2.75-2.338c1.295-1.508,2.413-3.707,3.354-6.602
				c0.94-2.895,1.411-5.59,1.411-8.09c0-2.795-0.643-4.941-1.925-6.438c-1.283-1.496-2.903-2.244-4.856-2.244
				c-2.104,0-4.047,0.822-5.83,2.467c-1.785,1.645-3.129,3.988-4.033,7.031S50.769,66.025,50.769,68.375z"/>
			<g>
				
					<radialGradient id="XMLID_6_" cx="108.4668" cy="118.249" r="34.7364" fx="108.4668" fy="118.249" gradientUnits="userSpaceOnUse">
					<stop  offset="0" style="stop-color:#000000"/>
					<stop  offset="1" style="stop-color:#000000"/>
					<a:midPointStop  offset="0" style="stop-color:#000000"/>
					<a:midPointStop  offset="0.5" style="stop-color:#000000"/>
					<a:midPointStop  offset="1" style="stop-color:#000000"/>
				</radialGradient>
				<path opacity="0.1" fill="url(#XMLID_6_)" d="M85.191,90.976v35.754h1.793l33.639-33.639v-2.115H85.191z"/>
				<path fill="#FFFFFF" d="M87.537,126.948l33.627-33.627H87.537V126.948z"/>
				<linearGradient id="XMLID_7_" gradientUnits="userSpaceOnUse" x1="104.0166" y1="98.1807" x2="95.0883" y2="135.7938">
					<stop  offset="0" style="stop-color:#FFFFFF"/>
					<stop  offset="1" style="stop-color:#CCCCCC"/>
					<a:midPointStop  offset="0" style="stop-color:#FFFFFF"/>
					<a:midPointStop  offset="0.5" style="stop-color:#FFFFFF"/>
					<a:midPointStop  offset="1" style="stop-color:#CCCCCC"/>
				</linearGradient>
				<path fill="url(#XMLID_7_)" d="M89.865,125.056l29.594-29.592H89.865V125.056z"/>
				<linearGradient id="XMLID_8_" gradientUnits="userSpaceOnUse" x1="82.3086" y1="88.0928" x2="96.1043" y2="101.8885">
					<stop  offset="0" style="stop-color:#B3B3B3"/>
					<stop  offset="1" style="stop-color:#828282"/>
					<a:midPointStop  offset="0" style="stop-color:#B3B3B3"/>
					<a:midPointStop  offset="0.5" style="stop-color:#B3B3B3"/>
					<a:midPointStop  offset="1" style="stop-color:#828282"/>
				</linearGradient>
				<path fill="url(#XMLID_8_)" d="M87.537,92.821c-0.277,0-0.5,0.223-0.5,0.5v33.627c0,0.203,0.121,0.385,0.309,0.463
					c0.186,0.076,0.402,0.033,0.545-0.109l33.627-33.627c0.143-0.145,0.186-0.359,0.109-0.545c-0.078-0.188-0.26-0.309-0.463-0.309
					H87.537z M119.957,93.821c-1.58,1.578-30.342,30.34-31.92,31.92c0-2.209,0-30.986,0-31.92
					C88.971,93.821,117.748,93.821,119.957,93.821z"/>
			</g>
			<g>
				<path fill="#FFFFFF" d="M13.503,14.448V5.854h2.6l1.548,5.862l1.538-5.862H21.8v8.594h-1.609l-0.008-6.765l-1.71,6.765h-1.666
					l-1.686-6.765l-0.008,6.765H13.503z"/>
				<path fill="#FFFFFF" d="M31.265,14.448h-1.867l-0.746-1.953h-3.447L24.5,14.448h-1.86l3.305-8.594h1.857L31.265,14.448z
					 M28.082,11.042l-1.199-3.188l-1.152,3.188H28.082z"/>
				<path fill="#FFFFFF" d="M32.134,14.448V5.854h1.734v8.594H32.134z"/>
				<path fill="#FFFFFF" d="M35.562,14.448V5.933h1.734v7.062h4.312v1.453H35.562z"/>
			</g>
			<path fill="none" d="M75.913,71.52c-0.348,1.691-0.52,2.785-0.52,3.281c0,0.621,0.141,1.088,0.426,1.398s0.625,0.465,1.021,0.465
				c1.186,0,2.719-0.717,4.598-2.154c2.521-1.881,4.561-4.406,6.119-7.576c1.048-2.133,1.735-4.319,2.078-6.555
				c-4.059,3.127-8.447,5.861-13.097,8.154L75.913,71.52z"/>
		</g>
		<path fill="none" d="M128,128H0V0h128V128z"/>
	</g>
</svg>
