<?xml version="1.0" encoding="iso-8859-1"?>
<!-- Generator: Adobe Illustrator 10.0.3, SVG Export Plug-In . SVG Version: 3.0.0 Build 77)  -->
<!DOCTYPE svg PUBLIC "-//W3C//DTD SVG 1.0//EN"    "http://www.w3.org/TR/2001/REC-SVG-20010904/DTD/svg10.dtd" [
	<!ENTITY ns_flows "http://ns.adobe.com/Flows/1.0/">
	<!ENTITY ns_svg "http://www.w3.org/2000/svg">
	<!ENTITY ns_xlink "http://www.w3.org/1999/xlink">
]>
<svg  xmlns="&ns_svg;" xmlns:xlink="&ns_xlink;" xmlns:a="http://ns.adobe.com/AdobeSVGViewerExtensions/3.0/"
	 width="128" height="128" viewBox="0 0 128 128" overflow="visible" enable-background="new 0 0 128 128" xml:space="preserve">
	<g id="Layer_1">
		<g>
			<g>
				<path fill="#FFFFFF" d="M121.164,1.052H6.836v125.896h80.701l33.627-33.627V1.052z"/>
				<linearGradient id="XMLID_1_" gradientUnits="userSpaceOnUse" x1="63.9204" y1="154.5645" x2="63.9204" y2="-100.9347">
					<stop  offset="0" style="stop-color:#FFFFFF"/>
					<stop  offset="0.2457" style="stop-color:#F6F6F6"/>
					<stop  offset="0.6374" style="stop-color:#DFDFDF"/>
					<stop  offset="1" style="stop-color:#C4C4C4"/>
					<a:midPointStop  offset="0" style="stop-color:#FFFFFF"/>
					<a:midPointStop  offset="0.6045" style="stop-color:#FFFFFF"/>
					<a:midPointStop  offset="1" style="stop-color:#C4C4C4"/>
				</linearGradient>
				<path fill="url(#XMLID_1_)" d="M117.734,4.019H10.266l-0.16,122.654h76.457l31.172-31.252V4.019z"/>
				<linearGradient id="XMLID_2_" gradientUnits="userSpaceOnUse" x1="-26.333" y1="-26.333" x2="56.1662" y2="56.1662">
					<stop  offset="0" style="stop-color:#B3B3B3"/>
					<stop  offset="1" style="stop-color:#828282"/>
					<a:midPointStop  offset="0" style="stop-color:#B3B3B3"/>
					<a:midPointStop  offset="0.5" style="stop-color:#B3B3B3"/>
					<a:midPointStop  offset="1" style="stop-color:#828282"/>
				</linearGradient>
				<path fill="url(#XMLID_2_)" d="M121.164,0.552H6.336v126.896h81.408l33.92-33.92V0.552H121.164z M120.664,1.552
					c0,0.987,0,91.152,0,91.562c-0.289,0.289-33.045,33.045-33.334,33.334c-0.41,0-79.01,0-79.994,0c0-0.988,0-123.909,0-124.896
					C8.322,1.552,119.678,1.552,120.664,1.552z"/>
				<linearGradient id="XMLID_3_" gradientUnits="userSpaceOnUse" x1="43.0229" y1="25.4214" x2="204.0073" y2="111.0652">
					<stop  offset="0" style="stop-color:#FFFFFF"/>
					<stop  offset="0.8603" style="stop-color:#DADADA"/>
					<stop  offset="1" style="stop-color:#D4D4D4"/>
					<a:midPointStop  offset="0" style="stop-color:#FFFFFF"/>
					<a:midPointStop  offset="0.5254" style="stop-color:#FFFFFF"/>
					<a:midPointStop  offset="1" style="stop-color:#D4D4D4"/>
				</linearGradient>
				<path fill="url(#XMLID_3_)" d="M118.006,15.223V3.94H10.199l-0.096,65.34c9.975,4.547,21.151,7.096,32.954,7.096
					C80.402,76.376,111.455,48.876,118.006,15.223z"/>
			</g>
			<linearGradient id="XMLID_4_" gradientUnits="userSpaceOnUse" x1="-3.7275" y1="10.6514" x2="127.5933" y2="10.6514">
				<stop  offset="0" style="stop-color:#B3CAFF"/>
				<stop  offset="1" style="stop-color:#0053BD"/>
				<a:midPointStop  offset="0" style="stop-color:#B3CAFF"/>
				<a:midPointStop  offset="0.5" style="stop-color:#B3CAFF"/>
				<a:midPointStop  offset="1" style="stop-color:#0053BD"/>
			</linearGradient>
			<path fill="url(#XMLID_4_)" d="M117.692,17.023H10.308V4.279h107.385V17.023z"/>
			<g>
				<linearGradient id="XMLID_5_" gradientUnits="userSpaceOnUse" x1="85.3018" y1="89.5713" x2="41.845" y2="46.1145">
					<stop  offset="0" style="stop-color:#FFE692"/>
					<stop  offset="1" style="stop-color:#FFFFDC"/>
					<a:midPointStop  offset="0" style="stop-color:#FFE692"/>
					<a:midPointStop  offset="0.5" style="stop-color:#FFE692"/>
					<a:midPointStop  offset="1" style="stop-color:#FFFFDC"/>
				</linearGradient>
				<path fill="url(#XMLID_5_)" d="M28.555,81.263v-36.18l37.352-20.586L95.83,51.662V87.63l-37.775,20.585L28.555,81.263z"/>
				<linearGradient id="XMLID_6_" gradientUnits="userSpaceOnUse" x1="88.085" y1="92.3545" x2="40.4942" y2="44.7637">
					<stop  offset="0" style="stop-color:#744426"/>
					<stop  offset="1" style="stop-color:#DE972B"/>
					<a:midPointStop  offset="0" style="stop-color:#744426"/>
					<a:midPointStop  offset="0.5" style="stop-color:#744426"/>
					<a:midPointStop  offset="1" style="stop-color:#DE972B"/>
				</linearGradient>
				<path fill="url(#XMLID_6_)" d="M65.446,23.661L28.094,44.246c-0.305,0.168-0.493,0.488-0.493,0.836v36.18
					c0,0.269,0.111,0.523,0.31,0.705l29.5,26.953c0.301,0.275,0.743,0.329,1.101,0.134l37.775-20.586
					c0.309-0.167,0.5-0.489,0.5-0.839V51.662c0-0.269-0.113-0.525-0.312-0.707L66.549,23.789
					C66.245,23.515,65.803,23.464,65.446,23.661z M65.77,25.663c0.966,0.877,28.503,25.875,29.106,26.421c0,0.816,0,33.888,0,34.979
					c-0.955,0.52-35.537,19.365-36.681,19.988c-0.961-0.879-28.086-25.664-28.684-26.21c0-0.812,0-34.111,0-35.195
					C30.457,45.125,64.629,26.292,65.77,25.663z"/>
				<linearGradient id="XMLID_7_" gradientUnits="userSpaceOnUse" x1="53.9004" y1="108.3457" x2="32.1115" y2="36.1887">
					<stop  offset="0" style="stop-color:#FFB82D"/>
					<stop  offset="1" style="stop-color:#FFFFDC"/>
					<a:midPointStop  offset="0" style="stop-color:#FFB82D"/>
					<a:midPointStop  offset="0.5" style="stop-color:#FFB82D"/>
					<a:midPointStop  offset="1" style="stop-color:#FFFFDC"/>
				</linearGradient>
				<path fill="url(#XMLID_7_)" d="M58.114,73.658l0.021,31.491L30.503,80.678l-0.025-33.994l26.253,23.25
					c0,0,0.882,0.646,1.141,1.752C58.132,72.79,58.114,73.658,58.114,73.658z"/>
				<linearGradient id="XMLID_8_" gradientUnits="userSpaceOnUse" x1="49.5557" y1="62.8286" x2="87.6053" y2="85.5124">
					<stop  offset="0" style="stop-color:#FFA221"/>
					<stop  offset="1" style="stop-color:#FFE192"/>
					<a:midPointStop  offset="0" style="stop-color:#FFA221"/>
					<a:midPointStop  offset="0.5" style="stop-color:#FFA221"/>
					<a:midPointStop  offset="1" style="stop-color:#FFE192"/>
				</linearGradient>
				<path fill="url(#XMLID_8_)" d="M59.464,73.985l-0.023,31.49l34.832-18.733l0.025-33.993L60.893,70.26
					c0,0-0.913,0.647-1.181,1.752C59.443,73.117,59.464,73.985,59.464,73.985z"/>
				<linearGradient id="XMLID_9_" gradientUnits="userSpaceOnUse" x1="62.3877" y1="74.3711" x2="62.3877" y2="36.49">
					<stop  offset="0" style="stop-color:#FFAC2D"/>
					<stop  offset="1" style="stop-color:#FFFFDC"/>
					<a:midPointStop  offset="0" style="stop-color:#FFAC2D"/>
					<a:midPointStop  offset="0.5" style="stop-color:#FFAC2D"/>
					<a:midPointStop  offset="1" style="stop-color:#FFFFDC"/>
				</linearGradient>
				<path fill="url(#XMLID_9_)" d="M65.658,26.496L93.554,52.14L60.884,69.263c0,0-1.26,0.424-2.066,0.349
					c-0.807-0.074-1.791-0.889-1.791-0.889L31.221,45.613L65.658,26.496z"/>
				<linearGradient id="XMLID_10_" gradientUnits="userSpaceOnUse" x1="80.2959" y1="64.916" x2="64.229" y2="48.8491">
					<stop  offset="0" style="stop-color:#744426"/>
					<stop  offset="1" style="stop-color:#DE972B"/>
					<a:midPointStop  offset="0" style="stop-color:#744426"/>
					<a:midPointStop  offset="0.5" style="stop-color:#744426"/>
					<a:midPointStop  offset="1" style="stop-color:#DE972B"/>
				</linearGradient>
				<path opacity="0.8" fill="url(#XMLID_10_)" d="M58.992,70.326l5.236-25.838l30.152,7.799l-29.395-1.828L58.992,70.326z"/>
				<linearGradient id="XMLID_11_" gradientUnits="userSpaceOnUse" x1="73.0488" y1="42.3618" x2="61.8241" y2="39.3394">
					<stop  offset="0" style="stop-color:#744426"/>
					<stop  offset="1" style="stop-color:#DE972B"/>
					<a:midPointStop  offset="0" style="stop-color:#744426"/>
					<a:midPointStop  offset="0.5" style="stop-color:#744426"/>
					<a:midPointStop  offset="1" style="stop-color:#DE972B"/>
				</linearGradient>
				<path opacity="0.7" fill="url(#XMLID_11_)" d="M65.009,26.032l-0.78,18.456l-33.272,0.706l31.608-1.985L65.009,26.032z"/>
			</g>
			<g>
				<path fill="#FFFFFF" d="M14.965,14.874V7.733h-2.531V6.28h6.797v1.453H16.7v7.141H14.965z"/>
				<path fill="#FFFFFF" d="M24.358,11.718v-1.453h3.719v3.434c-0.362,0.352-0.888,0.662-1.576,0.93s-1.385,0.402-2.09,0.402
					c-0.896,0-1.678-0.189-2.344-0.567s-1.167-0.918-1.502-1.621c-0.335-0.703-0.503-1.468-0.503-2.294
					c0-0.897,0.187-1.694,0.562-2.391c0.374-0.697,0.922-1.231,1.643-1.604c0.549-0.286,1.234-0.429,2.053-0.429
					c1.064,0,1.896,0.223,2.494,0.668c0.599,0.445,0.983,1.062,1.155,1.847l-1.719,0.328c-0.121-0.42-0.349-0.751-0.682-0.995
					c-0.334-0.243-0.75-0.365-1.249-0.365c-0.757,0-1.359,0.241-1.806,0.723s-0.67,1.197-0.67,2.146c0,1.023,0.227,1.79,0.681,2.302
					c0.453,0.512,1.048,0.767,1.783,0.767c0.364,0,0.729-0.072,1.095-0.214c0.365-0.144,0.679-0.316,0.941-0.521v-1.093H24.358z"/>
				<path fill="#FFFFFF" d="M28.942,14.874v-1.562l4.521-5.578h-4.006V6.28h6.281v1.344l-4.699,5.797h4.871v1.453H28.942z"/>
			</g>
			<g>
				
					<radialGradient id="XMLID_12_" cx="108.4668" cy="118.249" r="34.7364" fx="108.4668" fy="118.249" gradientUnits="userSpaceOnUse">
					<stop  offset="0" style="stop-color:#000000"/>
					<stop  offset="1" style="stop-color:#000000"/>
					<a:midPointStop  offset="0" style="stop-color:#000000"/>
					<a:midPointStop  offset="0.5" style="stop-color:#000000"/>
					<a:midPointStop  offset="1" style="stop-color:#000000"/>
				</radialGradient>
				<path opacity="0.1" fill="url(#XMLID_12_)" d="M85.191,90.976v35.754h1.793l33.639-33.639v-2.115H85.191z"/>
				<path fill="#FFFFFF" d="M87.537,126.948l33.627-33.627H87.537V126.948z"/>
				<linearGradient id="XMLID_13_" gradientUnits="userSpaceOnUse" x1="104.0166" y1="98.1807" x2="95.0883" y2="135.7938">
					<stop  offset="0" style="stop-color:#FFFFFF"/>
					<stop  offset="1" style="stop-color:#CCCCCC"/>
					<a:midPointStop  offset="0" style="stop-color:#FFFFFF"/>
					<a:midPointStop  offset="0.5" style="stop-color:#FFFFFF"/>
					<a:midPointStop  offset="1" style="stop-color:#CCCCCC"/>
				</linearGradient>
				<path fill="url(#XMLID_13_)" d="M89.865,125.056l29.594-29.592H89.865V125.056z"/>
				<linearGradient id="XMLID_14_" gradientUnits="userSpaceOnUse" x1="82.3086" y1="88.0928" x2="96.1043" y2="101.8885">
					<stop  offset="0" style="stop-color:#B3B3B3"/>
					<stop  offset="1" style="stop-color:#828282"/>
					<a:midPointStop  offset="0" style="stop-color:#B3B3B3"/>
					<a:midPointStop  offset="0.5" style="stop-color:#B3B3B3"/>
					<a:midPointStop  offset="1" style="stop-color:#828282"/>
				</linearGradient>
				<path fill="url(#XMLID_14_)" d="M87.537,92.821c-0.277,0-0.5,0.223-0.5,0.5v33.627c0,0.203,0.121,0.385,0.309,0.463
					c0.186,0.076,0.402,0.033,0.545-0.109l33.627-33.627c0.143-0.145,0.186-0.359,0.109-0.545c-0.078-0.188-0.26-0.309-0.463-0.309
					H87.537z M119.957,93.821c-1.58,1.578-30.342,30.34-31.92,31.92c0-2.209,0-30.986,0-31.92
					C88.971,93.821,117.748,93.821,119.957,93.821z"/>
			</g>
		</g>
		<path fill="none" d="M128,128H0V0h128V128z"/>
	</g>
</svg>
