<?xml version="1.0" encoding="iso-8859-1"?>
<!-- Generator: Adobe Illustrator 10.0.3, SVG Export Plug-In . SVG Version: 3.0.0 Build 77)  -->
<!DOCTYPE svg PUBLIC "-//W3C//DTD SVG 1.0//EN"    "http://www.w3.org/TR/2001/REC-SVG-20010904/DTD/svg10.dtd" [
	<!ENTITY ns_flows "http://ns.adobe.com/Flows/1.0/">
	<!ENTITY ns_svg "http://www.w3.org/2000/svg">
	<!ENTITY ns_xlink "http://www.w3.org/1999/xlink">
]>
<svg  xmlns="&ns_svg;" xmlns:xlink="&ns_xlink;" xmlns:a="http://ns.adobe.com/AdobeSVGViewerExtensions/3.0/"
	 width="128" height="128" viewBox="0 0 128 128" overflow="visible" enable-background="new 0 0 128 128" xml:space="preserve">
	<g id="Layer_1">
		<g>
			<g>
				<path fill="#FFFFFF" d="M121.164,1.052H6.836v125.896h80.701l33.627-33.627V1.052z"/>
				<linearGradient id="XMLID_1_" gradientUnits="userSpaceOnUse" x1="63.9204" y1="154.5645" x2="63.9204" y2="-100.9347">
					<stop  offset="0" style="stop-color:#FFFFFF"/>
					<stop  offset="0.258" style="stop-color:#F1F1F1"/>
					<stop  offset="0.7396" style="stop-color:#CECECE"/>
					<stop  offset="0.8595" style="stop-color:#C4C4C4"/>
					<a:midPointStop  offset="0" style="stop-color:#FFFFFF"/>
					<a:midPointStop  offset="0.5674" style="stop-color:#FFFFFF"/>
					<a:midPointStop  offset="0.8595" style="stop-color:#C4C4C4"/>
				</linearGradient>
				<path fill="url(#XMLID_1_)" d="M117.734,4.019H10.266l-0.16,122.654h76.457l31.172-31.252V4.019z"/>
				<linearGradient id="XMLID_2_" gradientUnits="userSpaceOnUse" x1="-26.333" y1="-26.333" x2="56.1662" y2="56.1662">
					<stop  offset="0" style="stop-color:#B3B3B3"/>
					<stop  offset="1" style="stop-color:#828282"/>
					<a:midPointStop  offset="0" style="stop-color:#B3B3B3"/>
					<a:midPointStop  offset="0.5" style="stop-color:#B3B3B3"/>
					<a:midPointStop  offset="1" style="stop-color:#828282"/>
				</linearGradient>
				<path fill="url(#XMLID_2_)" d="M121.164,0.552H6.336v126.896h81.408l33.92-33.92V0.552H121.164z M120.664,1.552
					c0,0.987,0,91.152,0,91.562c-0.289,0.289-33.045,33.045-33.334,33.334c-0.41,0-79.01,0-79.994,0c0-0.988,0-123.909,0-124.896
					C8.322,1.552,119.678,1.552,120.664,1.552z"/>
				<linearGradient id="XMLID_3_" gradientUnits="userSpaceOnUse" x1="43.0229" y1="25.4214" x2="204.0073" y2="111.0652">
					<stop  offset="0" style="stop-color:#FFFFFF"/>
					<stop  offset="0.5033" style="stop-color:#E7E7E7"/>
					<stop  offset="1" style="stop-color:#D4D4D4"/>
					<a:midPointStop  offset="0" style="stop-color:#FFFFFF"/>
					<a:midPointStop  offset="0.452" style="stop-color:#FFFFFF"/>
					<a:midPointStop  offset="1" style="stop-color:#D4D4D4"/>
				</linearGradient>
				<path fill="url(#XMLID_3_)" d="M118.006,15.223V3.94H10.199l-0.096,65.34c9.975,4.547,21.151,7.096,32.954,7.096
					C80.402,76.376,111.455,48.876,118.006,15.223z"/>
			</g>
			<path fill="none" d="M72.158,83.212V70.529c-8.568,3.576-17.923,5.638-27.732,5.815v6.867H72.158z"/>
			<linearGradient id="XMLID_4_" gradientUnits="userSpaceOnUse" x1="28.1636" y1="53.3511" x2="189.1511" y2="138.9965">
				<stop  offset="0" style="stop-color:#FFFFFF"/>
				<stop  offset="0.5033" style="stop-color:#E7E7E7"/>
				<stop  offset="1" style="stop-color:#D4D4D4"/>
				<a:midPointStop  offset="0" style="stop-color:#FFFFFF"/>
				<a:midPointStop  offset="0.452" style="stop-color:#FFFFFF"/>
				<a:midPointStop  offset="1" style="stop-color:#D4D4D4"/>
			</linearGradient>
			<path fill="url(#XMLID_4_)" d="M72.158,62.415H44.426v13.93c9.809-0.178,19.164-2.239,27.732-5.815V62.415z"/>
			<g>
				
					<radialGradient id="XMLID_5_" cx="108.4668" cy="118.249" r="34.7364" fx="108.4668" fy="118.249" gradientUnits="userSpaceOnUse">
					<stop  offset="0" style="stop-color:#000000"/>
					<stop  offset="1" style="stop-color:#000000"/>
					<a:midPointStop  offset="0" style="stop-color:#000000"/>
					<a:midPointStop  offset="0.5" style="stop-color:#000000"/>
					<a:midPointStop  offset="1" style="stop-color:#000000"/>
				</radialGradient>
				<path opacity="0.1" fill="url(#XMLID_5_)" d="M85.191,90.976v35.754h1.793l33.639-33.639v-2.115H85.191z"/>
				<path fill="#FFFFFF" d="M87.537,126.948l33.627-33.627H87.537V126.948z"/>
				<linearGradient id="XMLID_6_" gradientUnits="userSpaceOnUse" x1="104.0166" y1="98.1807" x2="95.0883" y2="135.7938">
					<stop  offset="0" style="stop-color:#FFFFFF"/>
					<stop  offset="1" style="stop-color:#CCCCCC"/>
					<a:midPointStop  offset="0" style="stop-color:#FFFFFF"/>
					<a:midPointStop  offset="0.5" style="stop-color:#FFFFFF"/>
					<a:midPointStop  offset="1" style="stop-color:#CCCCCC"/>
				</linearGradient>
				<path fill="url(#XMLID_6_)" d="M89.865,125.056l29.594-29.592H89.865V125.056z"/>
				<linearGradient id="XMLID_7_" gradientUnits="userSpaceOnUse" x1="82.3086" y1="88.0928" x2="96.1043" y2="101.8885">
					<stop  offset="0" style="stop-color:#B3B3B3"/>
					<stop  offset="1" style="stop-color:#828282"/>
					<a:midPointStop  offset="0" style="stop-color:#B3B3B3"/>
					<a:midPointStop  offset="0.5" style="stop-color:#B3B3B3"/>
					<a:midPointStop  offset="1" style="stop-color:#828282"/>
				</linearGradient>
				<path fill="url(#XMLID_7_)" d="M87.537,92.821c-0.277,0-0.5,0.223-0.5,0.5v33.627c0,0.203,0.121,0.385,0.309,0.463
					c0.186,0.076,0.402,0.033,0.545-0.109l33.627-33.627c0.143-0.145,0.186-0.359,0.109-0.545c-0.078-0.188-0.26-0.309-0.463-0.309
					H87.537z M119.957,93.821c-1.58,1.578-30.342,30.34-31.92,31.92c0-2.209,0-30.986,0-31.92
					C88.971,93.821,117.748,93.821,119.957,93.821z"/>
			</g>
			<path fill="none" d="M87.708,76.7c0,1.687,0.434,2.943,1.303,3.771c0.867,0.828,2.185,1.241,3.949,1.241
				c2.52,0,4.32-0.41,5.398-1.233s1.618-2.393,1.618-4.709v-0.762v-8.078c-4.343,0.87-7.473,2.07-9.392,3.602
				C88.667,72.062,87.708,74.117,87.708,76.7z"/>
			<linearGradient id="XMLID_8_" gradientUnits="userSpaceOnUse" x1="-4.0225" y1="10.6514" x2="127.2984" y2="10.6514">
				<stop  offset="0" style="stop-color:#B3CAFF"/>
				<stop  offset="1" style="stop-color:#0053BD"/>
				<a:midPointStop  offset="0" style="stop-color:#B3CAFF"/>
				<a:midPointStop  offset="0.5" style="stop-color:#B3CAFF"/>
				<a:midPointStop  offset="1" style="stop-color:#0053BD"/>
			</linearGradient>
			<path fill="url(#XMLID_8_)" d="M117.397,17.023H10.013V4.279h107.385V17.023z"/>
			<g>
				<path fill="#FFFFFF" d="M15.867,15.276V7.369h-2.806V5.762h7.527v1.607h-2.806v7.907H15.867z"/>
				<path fill="#FFFFFF" d="M21.846,15.276V5.762h7.044v1.607h-5.129v2.104h4.779v1.608h-4.779v2.586h5.305v1.608H21.846z"/>
				<path fill="#FFFFFF" d="M29.726,15.276l3.284-4.951l-2.977-4.563h2.243l1.875,2.842l1.886-2.842h2.225l-2.984,4.549l3.276,4.965
					H36.24l-2.104-3.225l-2.115,3.225H29.726z"/>
			</g>
			<g>
				<path fill="#FFFFFF" d="M115.195,67.921h-6.583v13.681h6.583V67.921z"/>
				<linearGradient id="XMLID_9_" gradientUnits="userSpaceOnUse" x1="114.5684" y1="77.4922" x2="105.663" y2="68.5868">
					<stop  offset="0" style="stop-color:#FFFFFF"/>
					<stop  offset="1" style="stop-color:#474747"/>
					<a:midPointStop  offset="0" style="stop-color:#FFFFFF"/>
					<a:midPointStop  offset="0.5" style="stop-color:#FFFFFF"/>
					<a:midPointStop  offset="1" style="stop-color:#474747"/>
				</linearGradient>
				<path fill="url(#XMLID_9_)" d="M113.841,67.921h-5.229v12.461h5.229V67.921z"/>
				<path fill="#FFFFFF" d="M115.195,46.041h-6.583v13.681h6.583V46.041z"/>
				<linearGradient id="XMLID_10_" gradientUnits="userSpaceOnUse" x1="114.5664" y1="55.6108" x2="105.6628" y2="46.7072">
					<stop  offset="0" style="stop-color:#FFFFFF"/>
					<stop  offset="1" style="stop-color:#474747"/>
					<a:midPointStop  offset="0" style="stop-color:#FFFFFF"/>
					<a:midPointStop  offset="0.5" style="stop-color:#FFFFFF"/>
					<a:midPointStop  offset="1" style="stop-color:#474747"/>
				</linearGradient>
				<path fill="url(#XMLID_10_)" d="M113.841,46.041h-5.229v12.46h5.229V46.041z"/>
				<path fill="#FFFFFF" d="M115.195,24.161h-6.583v13.682h6.583V24.161z"/>
				<linearGradient id="XMLID_11_" gradientUnits="userSpaceOnUse" x1="114.5664" y1="33.731" x2="105.6621" y2="24.8266">
					<stop  offset="0" style="stop-color:#FFFFFF"/>
					<stop  offset="1" style="stop-color:#474747"/>
					<a:midPointStop  offset="0" style="stop-color:#FFFFFF"/>
					<a:midPointStop  offset="0.5" style="stop-color:#FFFFFF"/>
					<a:midPointStop  offset="1" style="stop-color:#474747"/>
				</linearGradient>
				<path fill="url(#XMLID_11_)" d="M113.841,24.161h-5.229v12.461h5.229V24.161z"/>
			</g>
			<g>
				<g opacity="0.15">
					<path d="M45.813,47.882v9.002H44.93c-0.523-2.071-1.104-3.559-1.741-4.464c-0.637-0.904-1.511-1.626-2.621-2.165
						c-0.621-0.293-1.708-0.439-3.259-0.439h-2.485v25.623c0,1.709,0.093,2.777,0.28,3.205c0.187,0.426,0.55,0.801,1.094,1.119
						c0.544,0.322,1.286,0.48,2.227,0.48h1.094v0.885H22.122v-0.885h1.1c0.961,0,1.736-0.172,2.323-0.518
						c0.423-0.229,0.757-0.623,1.002-1.182c0.18-0.395,0.27-1.428,0.27-3.105V49.815h-2.485c-2.237,0-3.861,0.473-4.873,1.418
						c-1.42,1.321-2.318,3.205-2.693,5.65h-0.939v-9.002H45.813z"/>
					<path d="M60.402,61.302v13.529h0.663c2.11,0,3.641-0.66,4.589-1.984c0.949-1.322,1.555-3.275,1.816-5.857h0.884v17.396h-0.884
						c-0.196-1.898-0.609-3.453-1.24-4.662c-0.629-1.211-1.362-2.025-2.196-2.443c-0.834-0.416-2.045-0.627-3.632-0.627v9.377
						c0,1.834,0.077,2.955,0.232,3.363c0.154,0.408,0.443,0.744,0.867,1.006c0.422,0.264,1.107,0.393,2.052,0.393h1.979
						c3.095,0,5.573-0.721,7.438-2.164c1.865-1.443,3.205-3.637,4.02-6.578h0.918l-1.494,10.564H47.7v-0.883h1.106
						c0.967,0,1.744-0.174,2.334-0.518c0.426-0.23,0.754-0.623,0.983-1.184c0.18-0.395,0.271-1.428,0.271-3.104V65.058
						c0-1.512-0.042-2.439-0.123-2.785c-0.164-0.575-0.467-1.017-0.909-1.33c-0.623-0.46-1.476-0.69-2.556-0.69H47.7v-0.884h27.778
						v9.774h-0.939c-0.473-2.379-1.139-4.086-1.994-5.121c-0.856-1.036-2.068-1.797-3.634-2.284
						c-0.915-0.291-2.628-0.437-5.14-0.437H60.402z"/>
					<path d="M100.574,61.601l9.152,13.607c1.521,2.283,2.604,3.668,3.25,4.156c0.645,0.488,1.408,0.781,2.291,0.879v0.885H99.029
						v-0.885c1.291-0.098,2.125-0.295,2.5-0.59s0.562-0.656,0.562-1.084c0-0.295-0.057-0.559-0.17-0.787
						c-0.23-0.494-0.803-1.414-1.717-2.76l-4.836-7.121l-5.074,6.143c-1.52,1.885-2.279,3.166-2.279,3.838
						c0,0.477,0.195,0.918,0.588,1.328c0.391,0.41,0.973,0.707,1.74,0.887c0.344,0.098,1.045,0.146,2.109,0.146v0.885h-12.77v-0.885
						c1.455-0.213,2.6-0.605,3.432-1.18c1.096-0.756,2.623-2.33,4.584-4.727l6.609-8L85.84,53.865
						c-1.389-2.052-2.182-3.194-2.377-3.424c-0.441-0.542-0.875-0.928-1.301-1.157c-0.424-0.23-1.012-0.402-1.764-0.518v-0.884
						h16.486v0.884h-0.832c-0.947,0-1.609,0.152-1.986,0.456c-0.375,0.304-0.562,0.685-0.562,1.144c0,0.361,0.057,0.672,0.172,0.935
						l1.691,2.559l4.15,6.171l3.453-4.18c1.797-2.213,2.695-3.763,2.695-4.649c0-0.442-0.127-0.853-0.379-1.229
						c-0.254-0.377-0.617-0.672-1.092-0.885c-0.473-0.213-1.209-0.32-2.205-0.32v-0.884h12.23v0.884
						c-0.965,0.017-1.74,0.136-2.328,0.358c-0.59,0.222-1.219,0.637-1.889,1.244c-0.424,0.395-1.486,1.619-3.186,3.672
						L100.574,61.601z"/>
				</g>
				<g>
					<linearGradient id="XMLID_12_" gradientUnits="userSpaceOnUse" x1="27.9868" y1="134.1709" x2="27.9868" y2="71.434">
						<stop  offset="0" style="stop-color:#B3CAFF"/>
						<stop  offset="1" style="stop-color:#0053BD"/>
						<a:midPointStop  offset="0" style="stop-color:#B3CAFF"/>
						<a:midPointStop  offset="0.5" style="stop-color:#B3CAFF"/>
						<a:midPointStop  offset="1" style="stop-color:#0053BD"/>
					</linearGradient>
					<path fill="url(#XMLID_12_)" d="M42.98,43.049v9.002h-0.883c-0.523-2.071-1.104-3.559-1.741-4.464
						c-0.637-0.904-1.511-1.626-2.621-2.165c-0.621-0.293-1.708-0.439-3.259-0.439H31.99v25.624c0,1.709,0.093,2.777,0.28,3.204
						s0.55,0.801,1.094,1.12c0.544,0.321,1.286,0.48,2.227,0.48h1.094v0.884H19.289v-0.884h1.1c0.961,0,1.736-0.172,2.323-0.518
						c0.423-0.229,0.757-0.623,1.002-1.182c0.18-0.395,0.27-1.429,0.27-3.105V44.982h-2.485c-2.237,0-3.861,0.473-4.873,1.418
						c-1.42,1.321-2.318,3.205-2.693,5.65h-0.939v-9.002H42.98z"/>
					<linearGradient id="XMLID_13_" gradientUnits="userSpaceOnUse" x1="59.9722" y1="134.1729" x2="59.9722" y2="71.4351">
						<stop  offset="0" style="stop-color:#B3CAFF"/>
						<stop  offset="1" style="stop-color:#0053BD"/>
						<a:midPointStop  offset="0" style="stop-color:#B3CAFF"/>
						<a:midPointStop  offset="0.5" style="stop-color:#B3CAFF"/>
						<a:midPointStop  offset="1" style="stop-color:#0053BD"/>
					</linearGradient>
					<path fill="url(#XMLID_13_)" d="M57.569,56.469v13.53h0.663c2.11,0,3.641-0.661,4.59-1.984
						c0.949-1.323,1.554-3.275,1.816-5.857h0.883v17.396h-0.883c-0.197-1.897-0.61-3.452-1.24-4.662
						c-0.63-1.211-1.362-2.025-2.197-2.442s-2.045-0.627-3.632-0.627v9.377c0,1.833,0.077,2.954,0.232,3.363
						c0.154,0.408,0.443,0.744,0.867,1.006c0.422,0.263,1.107,0.393,2.052,0.393H62.7c3.095,0,5.574-0.722,7.439-2.165
						s3.205-3.636,4.02-6.578h0.918l-1.494,10.565H44.867v-0.884h1.106c0.967,0,1.744-0.173,2.334-0.518
						c0.426-0.229,0.754-0.623,0.983-1.183c0.18-0.395,0.271-1.429,0.271-3.104V60.225c0-1.511-0.042-2.44-0.123-2.785
						c-0.164-0.575-0.467-1.017-0.909-1.33c-0.623-0.46-1.476-0.69-2.556-0.69h-1.106v-0.884h27.778v9.775h-0.938
						c-0.474-2.379-1.139-4.087-1.995-5.123s-2.068-1.797-3.634-2.283c-0.915-0.291-2.627-0.437-5.14-0.437H57.569z"/>
					<linearGradient id="XMLID_14_" gradientUnits="userSpaceOnUse" x1="94.6436" y1="134.1709" x2="94.6436" y2="71.434">
						<stop  offset="0" style="stop-color:#B3CAFF"/>
						<stop  offset="1" style="stop-color:#0053BD"/>
						<a:midPointStop  offset="0" style="stop-color:#B3CAFF"/>
						<a:midPointStop  offset="0.5" style="stop-color:#B3CAFF"/>
						<a:midPointStop  offset="1" style="stop-color:#0053BD"/>
					</linearGradient>
					<path fill="url(#XMLID_14_)" d="M97.742,56.768l9.152,13.608c1.521,2.283,2.604,3.668,3.25,4.155
						c0.645,0.488,1.408,0.781,2.291,0.88v0.884H96.197v-0.884c1.291-0.099,2.125-0.295,2.5-0.591
						c0.375-0.295,0.562-0.656,0.562-1.083c0-0.296-0.057-0.56-0.17-0.788c-0.23-0.493-0.803-1.413-1.717-2.759l-4.836-7.123
						l-5.074,6.144c-1.52,1.886-2.279,3.166-2.279,3.838c0,0.477,0.195,0.919,0.588,1.329c0.391,0.41,0.973,0.706,1.74,0.887
						c0.344,0.098,1.045,0.146,2.109,0.146v0.884h-12.77v-0.884c1.455-0.213,2.6-0.606,3.432-1.181
						c1.096-0.755,2.623-2.329,4.584-4.727l6.609-8l-8.469-12.472c-1.389-2.052-2.182-3.194-2.377-3.424
						c-0.441-0.542-0.875-0.928-1.301-1.157c-0.424-0.23-1.012-0.402-1.764-0.518v-0.884h16.486v0.884h-0.832
						c-0.947,0-1.609,0.152-1.986,0.456c-0.375,0.304-0.562,0.685-0.562,1.144c0,0.361,0.057,0.672,0.172,0.935l1.691,2.559
						l4.15,6.171l3.453-4.18c1.797-2.213,2.695-3.763,2.695-4.649c0-0.442-0.127-0.853-0.379-1.229
						c-0.254-0.377-0.617-0.672-1.092-0.885c-0.473-0.213-1.209-0.32-2.205-0.32v-0.884h12.23v0.884
						c-0.965,0.017-1.74,0.136-2.328,0.358c-0.59,0.222-1.219,0.637-1.889,1.244c-0.424,0.395-1.486,1.619-3.186,3.672
						L97.742,56.768z"/>
				</g>
			</g>
		</g>
		<path fill="none" d="M128,128H0V0h128V128z"/>
	</g>
</svg>
