<?xml version="1.0"?>
<!DOCTYPE svg PUBLIC "-//W3C//DTD SVG 1.0//EN"
	"http://www.w3.org/TR/2001/REC-SVG-20010904/DTD/svg10.dtd">
<svg xmlns:x="http://ns.adobe.com/Extensibility/1.0/"
	xmlns:i="http://ns.adobe.com/AdobeIllustrator/10.0/" xmlns:graph=""
	xmlns="http://www.w3.org/2000/svg" xmlns:xlink="http://www.w3.org/1999/xlink"
	xmlns:a="http://ns.adobe.com/AdobeSVGViewerExtensions/3.0/" width="115"
	height="127" viewBox="0.164 -0.104 115 127" overflow="visible"
	enable-background="new 0.164 -0.104 115 127" xml:space="preserve">
	<g id="Layer_1_2_">
		<path d="M114.828 0.5 L0.5 0.5 L0.5 126.396 L81.201 126.396 L114.828 92.769 z"
			 style="fill:rgb(255,255,255)"/>
		<linearGradient id="XMLID_1_" gradientUnits="userSpaceOnUse" x1="57.5845"
			y1="154.013" x2="57.5845" y2="-101.487">
			<stop offset="0" style="stop-color:rgb(255,255,255)"/>
			<stop offset="0.2457" style="stop-color:rgb(246,246,246)"/>
			<stop offset="0.6374" style="stop-color:rgb(223,223,223)"/>
			<stop offset="1" style="stop-color:rgb(196,196,196)"/>
		</linearGradient>
		<path
			d="M111.398 3.467 L3.93 3.467 L3.77 126.121 L80.227 126.121 L111.399 94.869 L111.399
				3.467 z"
			 style="fill:url(#XMLID_1_)"/>
		<linearGradient id="XMLID_2_" gradientUnits="userSpaceOnUse" x1="-32.6694"
			y1="-26.8853" x2="49.8298" y2="55.614">
			<stop offset="0" style="stop-color:rgb(178,178,178)"/>
			<stop offset="1" style="stop-color:rgb(130,130,130)"/>
			<a:midPointStop offset="0" style="stop-color:#B2B2B2"/>
			<a:midPointStop offset="0.5" style="stop-color:#B2B2B2"/>
			<a:midPointStop offset="1" style="stop-color:#828282"/>
		</linearGradient>
		<path
			d="M114.828 0 L0 0 L0 126.896 L81.408 126.896 L115.328 92.976 L115.328 0 zM114.328 1
				C114.328 1.987 114.328 92.152 114.328 92.563 C114.039 92.852 81.283 125.608
				80.994 125.897 C80.584 125.897 1.984 125.897 1 125.897 C1 124.908 1 1.988 1
				1 C1.986 1 113.342 1 114.328 1 z"
			 style="fill:url(#XMLID_2_)"/>
		<linearGradient id="XMLID_3_" gradientUnits="userSpaceOnUse" x1="36.687"
			y1="24.8696" x2="197.673" y2="110.514">
			<stop offset="0" style="stop-color:rgb(255,255,255)"/>
			<stop offset="0.8603" style="stop-color:rgb(218,218,218)"/>
			<stop offset="1" style="stop-color:rgb(212,212,212)"/>
		</linearGradient>
		<path
			d="M111.67 14.671 L111.67 3.388 L3.863 3.388 L3.767 68.728 C13.742 73.275 24.918 75.824
				36.721 75.824 C74.066 75.824 105.119 48.325 111.67 14.671 z"
			 style="fill:url(#XMLID_3_)"/>
		<linearGradient id="XMLID_4_" gradientUnits="userSpaceOnUse" x1="-10.1421"
			y1="10.0996" x2="121.178" y2="10.0996">
			<stop offset="0" style="stop-color:rgb(179,202,255)"/>
			<stop offset="1" style="stop-color:rgb(0,83,189)"/>
			<a:midPointStop offset="0" style="stop-color:#B3CAFF"/>
			<a:midPointStop offset="0.5" style="stop-color:#B3CAFF"/>
			<a:midPointStop offset="1" style="stop-color:#0053BD"/>
		</linearGradient>
		<path d="M111.277 16.471 L3.893 16.471 L3.893 3.728 L111.277 3.728 z"
			 style="fill:url(#XMLID_4_)"/>
		<g>
			<path
				d="M10.513 14.586 L10.513 7.446 L7.981 7.446 L7.981 5.993 L14.778 5.993 L14.778 7.446
					L12.247 7.446 L12.247 14.587 L10.513 14.587 z"
				 style="fill:rgb(255,255,255)"/>
			<path
				d="M15.03 14.586 L17.994 10.104 L15.311 5.993 L17.335 5.993 L19.021 8.551 L20.713 5.993
					L22.733 5.993 L20.043 10.101 L22.999 14.586 L20.919 14.586 L19.016 11.67
					L17.107 14.586 z"
				 style="fill:rgb(255,255,255)"/>
			<path
				d="M25.847 14.586 L25.847 7.446 L23.316 7.446 L23.316 5.993 L30.113 5.993 L30.113 7.446
					L27.582 7.446 L27.582 14.587 L25.847 14.587 z"
				 style="fill:rgb(255,255,255)"/>
		</g>
		<path
			d="M103.727 86.215 C102.776 86.194 101.849 86.714 100.899 87.378 C99.734 88.069 98.532
				89.019 97.357 89.663 C95.756 90.539 94.363 91.516 92.787 92.275 C92.532 92.381
				92.272 92.484 92.005 92.578 C90.359 93.154 87.834 93.016 85.517 92.559
				C89.538 88.618 89.638 83.176 82.213 79.73 C77.401 77.495 71.7 76.71 66.435
				76.995 C64.176 77.033 61.98 77.277 59.938 77.684 C59.23 73.818 61.875 70.362
				60.433 68.387 C60.206 68.076 59.967 67.824 59.722 67.616 C58.206 65.508 54.46
				67.329 54.952 69.388 C55.406 71.289 55.208 74.687 57.175 78.365 C55.464 78.875
				53.928 79.515 52.64 80.263 C52.615 80.253 52.59 80.243 52.564 80.234 C52.21
				80.451 51.877 80.695 51.551 80.951 C48.561 79.891 45.533 78.816 42.515
				77.747 C43.245 77.178 43.937 76.559 44.567 75.907 C44.965 75.806 45.383 75.706
				45.798 75.763 C46.119 75.806 46.381 75.979 46.629 76.169 C46.712 77.858
				47.538 79.206 48.689 79.34 C50.053 79.498 51.366 77.899 51.613 75.777 C51.859
				73.657 50.947 71.798 49.584 71.64 C48.328 71.494 47.118 72.838 46.741 74.707
				C46.638 74.801 46.513 74.887 46.33 74.941 C46.068 75.02 45.702 75.048 45.324
				75.068 C48.808 70.943 49.593 65.81 42.101 62.953 C40.039 62.166 37.899 61.803
				35.773 61.755 C25.635 61.046 15.481 67.987 15.187 72.473 C14.912 76.627
				24.098 81.065 31.622 81.227 C33.867 81.38 36.006 81.178 37.766 80.513 C38.531
				82.388 42.395 84.769 46.073 84.771 C47.128 84.773 48.001 84.557 48.772 84.222
				C48.789 84.218 48.804 84.212 48.82 84.209 C46.638 90.316 60.886 98.192
				72.346 97.425 C72.817 97.421 73.284 97.404 73.747 97.373 C76.354 97.901 81.613
				98.604 82.946 98.861 C83.379 98.944 83.721 98.928 83.981 98.861 C85.193
				98.763 85.947 97.666 84.236 97.265 C84.151 97.245 84.055 97.228 83.967 97.208
				C83.133 96.609 82.255 96.01 81.353 95.405 C82.291 94.954 83.152 94.443 83.928
				93.883 C87.056 94.62 90.04 94.82 92.4 94.489 C93.259 94.368 95.366 93.72
				97.726 92.88 C102.235 91.401 108.123 89.108 108.184 88.222 C108.244 87.354
				105.605 86.253 103.727 86.215 zM50.115 77.343 C49.711 78.081 49.147 78.531 48.58
				78.465 C47.922 78.389 47.43 77.639 47.257 76.612 C47.263 76.615 47.268
				76.618 47.274 76.622 C47.558 77.347 48.069 77.855 48.707 77.929 C49.215 77.988
				49.71 77.761 50.115 77.343 zM60.99 83.066 C61.754 83.758 62.598 84.464 63.52
				85.184 C62.124 84.691 60.69 84.185 59.235 83.671 C59.817 83.508 60.408 83.305
				60.99 83.066 zM58.938 82.96 C58.598 83.063 58.266 83.149 57.949 83.217
				C57.824 83.173 57.699 83.129 57.574 83.085 C57.988 83.089 58.451 83.045 58.938
				82.96 zM57.818 79.454 C57.877 79.545 57.929 79.636 57.992 79.725 C57.651
				79.88 57.315 80.046 56.992 80.223 C56.877 80.286 56.779 80.352 56.67 80.416
				C56.409 80.393 56.132 80.351 55.857 80.31 C56.465 80 57.12 79.715 57.818 79.454
				zM55.978 82.52 C55.796 82.456 55.613 82.391 55.431 82.326 C55.573 82.052
				55.839 81.741 56.22 81.417 C55.894 81.837 55.805 82.223 55.978 82.52 zM54.706
				80.962 C55.065 80.958 55.428 80.96 55.744 81.02 C55.273 81.368 54.891 81.713
				54.629 82.042 C54.307 81.928 53.98 81.813 53.654 81.697 C53.975 81.441
				54.332 81.198 54.706 80.962 zM38.444 78.567 C37.831 78.924 37.21 79.24 36.595
				79.505 C35.166 80.117 33.425 80.36 31.574 80.322 C24.94 79.841 17.367 76.006
				17.605 72.404 C17.627 72.072 17.713 71.722 17.85 71.364 C19.09 71.591 20.636
				71.827 21.739 72.002 C21.724 72.025 21.71 72.048 21.695 72.07 C26.972 73.938
				32.88 76.038 38.91 78.184 C38.74 78.311 38.587 78.438 38.444 78.567 zM40.624
				77.079 C35.003 75.087 29.478 73.132 24.447 71.365 C24.394 71.178 24.209
				71.005 23.818 70.903 C22.51 70.565 20.63 70.402 19.29 70.33 C19.008 70.315
				18.69 70.317 18.377 70.332 C20.705 66.658 27.933 62.482 35.358 62.619 C36.989
				62.734 38.619 63.063 40.199 63.665 C48.572 66.859 45.578 73.181 40.624 77.079
				zM48.245 83.316 C47.968 83.367 47.68 83.406 47.371 83.418 C44.348 83.53
				41.422 81.581 40.942 80.049 C40.823 79.672 40.86 79.297 40.994 78.927 C44.023
				80.006 47.066 81.088 50.066 82.156 C49.503 82.599 48.917 83.011 48.245 83.316
				zM49.986 85.792 C50.089 87.007 50.729 88.251 51.779 89.455 C50.695 88.254
				50.044 87.005 49.986 85.792 zM73.141 96.56 C72.784 96.605 72.423 96.639 72.059
				96.665 C61.526 96.732 49.223 89.564 51.677 84.1 C51.851 83.712 52.091
				83.338 52.375 82.977 C53.097 83.235 53.82 83.493 54.531 83.746 C54.633 83.82
				54.75 83.89 54.897 83.945 C55.081 84.015 55.293 84.066 55.527 84.099 C60.03
				85.7 64.337 87.227 68.202 88.591 C71.393 90.791 74.887 93.047 78.132 95.258
				C76.62 95.88 74.939 96.335 73.141 96.56 zM78.53 96.502 C78.852 96.402 79.172
				96.301 79.482 96.189 C79.703 96.342 79.909 96.493 80.127 96.645 C79.579 96.589
				79.042 96.543 78.53 96.502 zM79.865 94.431 C77.902 93.15 75.862 91.862
				73.851 90.577 C76.654 91.558 79.078 92.399 80.967 93.042 C81.205 93.123 81.444
				93.19 81.682 93.265 C81.128 93.683 80.517 94.072 79.865 94.431 zM83.154 91.962
				C83.087 91.941 83.012 91.923 82.947 91.901 C79.493 90.762 74.306 88.969
				68.203 86.83 C66.015 85.291 64.077 83.771 62.614 82.287 C65.222 80.832 66.127
				79.192 64.619 78.618 C63.681 78.26 62.021 78.396 60.261 78.895 C60.237 78.831
				60.223 78.766 60.2 78.703 C62.158 78.19 64.324 77.854 66.579 77.729 C71.072
				77.658 75.807 78.426 79.859 80.309 C86.595 83.436 86.646 88.33 83.154
				91.962 z"
			 style="opacity:0.23;fill-rule:evenodd;clip-rule:evenodd"/>
		<g>
			<radialGradient id="XMLID_5_" cx="102.131" cy="117.697" r="34.7364"
				fx="102.131" fy="117.697" gradientUnits="userSpaceOnUse">
				<stop offset="0" style="stop-color:rgb(0,0,0)"/>
				<stop offset="1" style="stop-color:rgb(0,0,0)"/>
			</radialGradient>
			<path
				d="M78.855 90.424 L78.855 126.178 L80.648 126.178 L114.287 92.539 L114.287 90.424 z"
				
				 style="opacity:0.1;fill:url(#XMLID_5_)"/>
			<path d="M81.201 126.396 L114.828 92.769 L81.201 92.769 z"
				 style="fill:rgb(255,255,255)"/>
			<linearGradient id="XMLID_6_" gradientUnits="userSpaceOnUse" x1="97.6816"
				y1="97.6289" x2="88.7534" y2="135.242">
				<stop offset="0" style="stop-color:rgb(255,255,255)"/>
				<stop offset="1" style="stop-color:rgb(204,204,204)"/>
				<a:midPointStop offset="0" style="stop-color:#FFFFFF"/>
				<a:midPointStop offset="0.5" style="stop-color:#FFFFFF"/>
				<a:midPointStop offset="1" style="stop-color:#CCCCCC"/>
			</linearGradient>
			<path d="M83.529 124.504 L113.123 94.912 L83.529 94.912 z"
				 style="fill:url(#XMLID_6_)"/>
			<linearGradient id="XMLID_7_" gradientUnits="userSpaceOnUse" x1="75.9727"
				y1="87.541" x2="89.7684" y2="101.337">
				<stop offset="0" style="stop-color:rgb(178,178,178)"/>
				<stop offset="1" style="stop-color:rgb(130,130,130)"/>
				<a:midPointStop offset="0" style="stop-color:#B2B2B2"/>
				<a:midPointStop offset="0.5" style="stop-color:#B2B2B2"/>
				<a:midPointStop offset="1" style="stop-color:#828282"/>
			</linearGradient>
			<path
				d="M81.201 92.27 C80.924 92.27 80.701 92.493 80.701 92.77 L80.701 126.397 C80.701 126.6
					80.822 126.782 81.01 126.86 C81.196 126.936 81.412 126.893 81.555 126.751
					L115.182 93.124 C115.325 92.979 115.368 92.765 115.291 92.579 C115.213 92.391
					115.031 92.27 114.828 92.27 zM113.621 93.27 C112.041 94.848 83.279 123.61
					81.701 125.19 C81.701 122.981 81.701 94.204 81.701 93.27 C82.635 93.27
					111.412 93.27 113.621 93.27 z"
				 style="fill:url(#XMLID_7_)"/>
		</g>
		<g>
			<g>
				<g>
					<linearGradient id="XMLID_8_" gradientUnits="userSpaceOnUse" x1="-212.175"
						y1="505.692" x2="-223.147" y2="482.164"
						gradientTransform="matrix(1 0 0 1 285.343 -423.543)">
						<stop offset="0" style="stop-color:rgb(0,0,0)"/>
						<stop offset="0.41" style="stop-color:rgb(255,255,255)"/>
						<stop offset="0.72" style="stop-color:rgb(0,0,0)"/>
						<stop offset="1" style="stop-color:rgb(255,255,255)"/>
					</linearGradient>
					<path
						d="M21.489 58.398 C41.921 67.649 71.48 81.324 82.787 86.154 C87.087 87.99 91.283 87.966
							94.309 86.399 C96.668 85.178 108.714 73.752 108.652 71.171 C108.614 69.438
							105.865 67.869 103.994 68.225 C102.126 68.579 100.595 73.041 98.677
							75.744 C96.754 78.446 95.2 81.41 93.085 83.452 C90.9 85.556 86.86 85.349
							84.011 84.191 C72.733 79.595 43.513 66.055 22.837 56.801 C22.673 57.456
							21.653 57.744 21.489 58.398 z"
						 style="fill-rule:evenodd;clip-rule:evenodd;fill:url(#XMLID_8_)"/>
					<path
						d="M20.878 59.134 C41.31 68.386 70.868 82.06 82.176 86.891 C86.476 88.726 90.672 88.701
							93.698 87.136 C96.059 85.912 107.737 74.242 107.674 71.662 C107.632 69.926
							105.619 68.484 103.753 68.838 C101.882 69.191 99.985 73.778 98.065
							76.481 C96.142 79.182 94.588 82.145 92.473 84.188 C90.291 86.292 86.248 86.085
							83.402 84.926 C72.123 80.331 42.044 66.422 21.368 57.171 C21.206 57.823
							21.042 58.478 20.878 59.134 z"
						 style="fill-rule:evenodd;clip-rule:evenodd"/>
				</g>
				<linearGradient id="XMLID_9_" gradientUnits="userSpaceOnUse" x1="-209.582"
					y1="483.285" x2="-209.928" y2="501.837"
					gradientTransform="matrix(1 0 0 1 310.472 -419.952)">
					<stop offset="0.26" style="stop-color:rgb(255,255,255)"/>
					<stop offset="0.74" style="stop-color:rgb(0,0,0)"/>
				</linearGradient>
				<path
					d="M103.019 70.221 C104.539 68.503 107.39 70.914 106.41 72.769 C105.434 74.628 99.196
						81.543 97.198 83.339 C95.201 85.134 93.493 84.573 95.138 82.365 C96.783
						80.155 101.496 71.942 103.019 70.221 z"
					 style="fill-rule:evenodd;clip-rule:evenodd;fill:url(#XMLID_9_)"/>
			</g>
			<g>
				<linearGradient id="XMLID_10_" gradientUnits="userSpaceOnUse" x1="-286.226"
					y1="483.359" x2="-275.878" y2="479.997"
					gradientTransform="matrix(0.6161 0 0 0.975 192.742 -411.772)">
					<stop offset="0.27" style="stop-color:rgb(0,0,0)"/>
					<stop offset="0.73" style="stop-color:rgb(255,255,255)"/>
				</linearGradient>
				<path
					d="M18.289 56.254 C19.629 56.088 21.515 55.981 22.853 56.346 C24.19 56.715 23.441 59.147
						22.428 58.987 C21.414 58.824 17.584 58.576 16.219 58.03 C14.854 57.485
						16.95 56.417 18.289 56.254 z"
					 style="fill-rule:evenodd;clip-rule:evenodd;fill:url(#XMLID_10_)"/>
				<path
					d="M17.641 56.858 C19.093 56.72 21.922 56.682 22.681 57.31 C23.44 57.938 23.12 59.298
						22.121 59.119 C21.12 58.94 16.879 58.78 15.402 58.328 C13.926 57.877 16.192
						56.995 17.641 56.858 z"
					 style="fill-rule:evenodd;clip-rule:evenodd"/>
			</g>
			<g>
				<linearGradient id="XMLID_11_" gradientUnits="userSpaceOnUse" x1="-229.603"
					y1="499.247" x2="-245.078" y2="466.06"
					gradientTransform="matrix(1 0 0.0009 1.0123 304.265 -418.76)">
					<stop offset="0.03" style="stop-color:rgb(0,0,0)"/>
					<stop offset="0.4154" style="stop-color:rgb(255,255,255)"/>
					<stop offset="0.7068" style="stop-color:rgb(0,0,0)"/>
					<stop offset="0.97" style="stop-color:rgb(255,255,255)"/>
				</linearGradient>
				<path
					d="M85.705 94.503 C77.621 85.572 66.161 76.923 61.453 67.718 C56.745 58.506 61.062 47.576
						58.932 43.005 C56.232 37.21 52.849 43.267 54.573 47.524 C56.393 52.025
						54.807 60.146 59.907 68.761 C65.009 77.371 75.731 86.614 83.642 95.546
						C84.329 95.195 85.017 94.849 85.705 94.503 z"
					 style="fill-rule:evenodd;clip-rule:evenodd;fill:url(#XMLID_11_)"/>
				<path
					d="M85.39 94.858 C77.316 86.04 65.863 77.495 61.163 68.401 C56.464 59.302 59.79 47.817
						58.585 42.97 C57.099 36.98 52.807 41.91 53.603 46.234 C54.473 50.963 54.525
						60.922 59.617 69.433 C64.711 77.937 75.425 87.068 83.326 95.889 C84.016
						95.546 84.703 95.202 85.39 94.858 z"
					 style="fill-rule:evenodd;clip-rule:evenodd"/>
				<linearGradient id="XMLID_12_" gradientUnits="userSpaceOnUse" x1="56.3481"
					y1="31.9561" x2="55.8826" y2="56.8599">
					<stop offset="0.26" style="stop-color:rgb(255,255,255)"/>
					<stop offset="0.74" style="stop-color:rgb(0,0,0)"/>
					<a:midPointStop offset="0.26" style="stop-color:#FFFFFF"/>
					<a:midPointStop offset="0.5" style="stop-color:#FFFFFF"/>
					<a:midPointStop offset="0.74" style="stop-color:#000000"/>
				</linearGradient>
				<path
					d="M54.157 44.705 C54.157 43.56 54.844 41.205 56.116 40.991 C57.388 40.775 57.767 42.582
						58.076 44.005 C58.386 45.425 58.106 58.979 57.028 60.062 C55.949 61.141
						56.539 60.039 56.189 59.008 C55.837 57.978 54.157 45.851 54.157 44.705 z"
					 style="fill-rule:evenodd;clip-rule:evenodd;fill:url(#XMLID_12_)"/>
			</g>
			<g>
				<path
					d="M63.501 62.975 C64.771 63.618 64.278 66.28 62.4 68.921 C60.525 71.56 57.973 73.18
						56.702 72.54 C55.434 71.899 55.928 69.242 57.803 66.601 C59.68 63.958 62.232
						62.335 63.501 62.975 z"
					 style="fill-rule:evenodd;clip-rule:evenodd;fill:rgb(255,255,255)"/>
				<path
					d="M64.271 62.208 C65.854 63.004 65.114 66.515 62.622 70.019 C60.131 73.521 56.811 75.733
						55.229 74.933 C53.647 74.135 54.391 70.624 56.881 67.121 C59.371 63.616
						62.691 61.41 64.271 62.208 M63.329 63.074 C64.429 63.627 63.679 66.399
						61.658 69.245 C59.638 72.086 57.091 73.953 55.993 73.399 C54.896 72.845 55.649
						70.072 57.668 67.229 C59.691 64.385 62.233 62.52 63.329 63.074"
					 style="fill-rule:evenodd;clip-rule:evenodd;fill:rgb(102,153,153)"/>
				<path
					d="M62.36 65.568 C63.104 65.944 62.72 67.633 61.506 69.342 C60.291 71.053 58.705 72.135
						57.962 71.759 C57.221 71.384 57.602 69.696 58.818 67.988 C60.032 66.279
						61.619 65.196 62.36 65.568 z"
					 style="fill-rule:evenodd;clip-rule:evenodd;fill:rgb(102,153,153)"/>
			</g>
			<g>
				<g>
					<linearGradient id="XMLID_13_" gradientUnits="userSpaceOnUse" x1="-252.739"
						y1="498.397" x2="-240.521" y2="486.179"
						gradientTransform="matrix(0.8964 0 0 0.9444 267.24 -395.928)">
						<stop offset="0.23" style="stop-color:rgb(255,255,255)"/>
						<stop offset="0.3272" style="stop-color:rgb(0,0,0)"/>
						<stop offset="0.6782" style="stop-color:rgb(0,0,0)"/>
						<stop offset="0.77" style="stop-color:rgb(255,255,255)"/>
						<a:midPointStop offset="0.23" style="stop-color:#FFFFFF"/>
						<a:midPointStop offset="0.5" style="stop-color:#FFFFFF"/>
						<a:midPointStop offset="0.3272" style="stop-color:#000000"/>
						<a:midPointStop offset="0.5" style="stop-color:#000000"/>
						<a:midPointStop offset="0.6782" style="stop-color:#000000"/>
						<a:midPointStop offset="0.5" style="stop-color:#000000"/>
						<a:midPointStop offset="0.77" style="stop-color:#FFFFFF"/>
					</linearGradient>
					<path
						d="M43.117 60.894 C41.571 64.073 38.124 67.293 39.035 70.848 C39.946 74.403 44.122 78.314
							47.819 77.47 C51.512 76.626 52.698 71.092 54.998 67.696 C54.581 67.472
							54.162 67.253 53.744 67.035 C51.82 70.035 50.684 74.702 47.694 75.618
							C44.704 76.531 41.572 73.359 40.919 70.45 C40.263 67.546 42.025 64.137 43.281
							61.404 C42.944 61.092 43.453 61.202 43.117 60.894 z"
						 style="fill-rule:evenodd;clip-rule:evenodd;fill:url(#XMLID_13_)"/>
					<path
						d="M41.855 62.018 C40.31 65.197 36.864 68.417 37.775 71.971 C38.685 75.526 42.86 79.438
							46.558 78.59 C50.252 77.749 51.438 72.215 53.737 68.819 C53.319 68.595
							52.902 68.377 52.483 68.157 C50.559 71.156 49.421 75.825 46.432 76.742
							C43.442 77.655 40.312 74.482 39.657 71.574 C39.002 68.67 41.606 65.681 42.861
							62.948 C42.525 62.638 42.19 62.327 41.855 62.018 z"
						 style="fill-rule:evenodd;clip-rule:evenodd"/>
				</g>
				<path
					d="M42.822 62.02 C43.531 62.236 44.357 60.858 45.246 60.894 C46.137 60.925 46.702 63.01
						47.583 62.192 C48.465 61.377 48.788 58.828 48.623 57.768 C48.456 56.711
						47.423 56.956 46.804 57.248 C46.185 57.541 46.298 58.627 45.679 59.156 C45.06
						59.685 43.779 59.76 43.255 60.284 C42.73 60.812 42.113 61.804 42.822
						62.02 z"
					 style="fill-rule:evenodd;clip-rule:evenodd"/>
				<path
					d="M53.159 69.185 C53.778 69.681 55.147 68.641 56.017 69.032 C56.889 69.421 56.619 71.714
						57.82 71.256 C59.022 70.796 60.362 68.396 60.619 67.276 C60.875 66.159
						59.751 65.99 59.019 66.035 C58.287 66.081 57.966 67.203 57.14 67.481 C56.312
						67.759 55.011 67.321 54.282 67.632 C53.55 67.942 52.542 68.685 53.159
						69.185 z"
					 style="fill-rule:evenodd;clip-rule:evenodd"/>
			</g>
			<g>
				<linearGradient id="XMLID_14_" gradientUnits="userSpaceOnUse" x1="-237.22"
					y1="508.729" x2="-211.768" y2="483.277"
					gradientTransform="matrix(1 0 0 1 294.294 -418.19)">
					<stop offset="0.23" style="stop-color:rgb(255,255,255)"/>
					<stop offset="0.3272" style="stop-color:rgb(0,0,0)"/>
					<stop offset="0.6782" style="stop-color:rgb(0,0,0)"/>
					<stop offset="0.77" style="stop-color:rgb(255,255,255)"/>
				</linearGradient>
				<path
					d="M50.662 75.838 C48.558 89.035 65.129 102.216 76.695 96.593 C88.258 90.97 94.265 68.489
						81.877 60.372 C69.487 52.253 52.763 62.641 50.662 75.838 M52.049 75.974
						C50.098 88.207 65.456 100.422 76.177 95.209 C86.892 89.998 92.458 69.165
						80.976 61.642 C69.496 54.118 53.997 63.746 52.049 75.974"
					 style="fill-rule:evenodd;clip-rule:evenodd;fill:url(#XMLID_14_)"/>
				<linearGradient id="XMLID_15_" gradientUnits="userSpaceOnUse" x1="-263.514"
					y1="490.567" x2="-240.686" y2="467.74"
					gradientTransform="matrix(1 0 0 1 283.487 -422.658)">
					<stop offset="0.23" style="stop-color:rgb(255,255,255)"/>
					<stop offset="0.3272" style="stop-color:rgb(0,0,0)"/>
					<stop offset="0.6782" style="stop-color:rgb(0,0,0)"/>
					<stop offset="0.77" style="stop-color:rgb(255,255,255)"/>
				</linearGradient>
				<path
					d="M15.443 61.282 C15.176 50.793 28.099 30.45 40.095 36.497 C52.092 42.543 45.133 63.803
						38.168 71.735 C31.202 79.665 15.705 71.77 15.443 61.282 M16.855 60.728
						C16.614 51.19 28.365 32.695 39.272 38.19 C50.181 43.69 43.853 63.023 37.52
						70.234 C31.185 77.447 17.094 70.266 16.855 60.728"
					 style="fill-rule:evenodd;clip-rule:evenodd;fill:url(#XMLID_15_)"/>
				<linearGradient id="XMLID_16_" gradientUnits="userSpaceOnUse" x1="29.8755"
					y1="66.6621" x2="29.8755" y2="42.1818">
					<stop offset="0" style="stop-color:rgb(255,255,255)"/>
					<stop offset="0.0862" style="stop-color:rgb(247,251,255)"/>
					<stop offset="0.2177" style="stop-color:rgb(226,240,255)"/>
					<stop offset="0.3779" style="stop-color:rgb(192,222,255)"/>
					<stop offset="0.5609" style="stop-color:rgb(143,198,255)"/>
					<stop offset="0.7631" style="stop-color:rgb(82,166,255)"/>
					<stop offset="0.9783" style="stop-color:rgb(8,128,255)"/>
					<stop offset="1" style="stop-color:rgb(0,124,255)"/>
				</linearGradient>
				<path
					d="M15.872 60.867 C15.63 51.33 27.382 32.831 38.289 38.33 C49.199 43.83 42.872 63.159
						36.536 70.373 C30.203 77.585 16.112 70.401 15.872 60.867 z"
					 style="opacity:0.6;fill-rule:evenodd;clip-rule:evenodd;fill:url(#XMLID_16_)"/>
				<path
					d="M14.459 61.422 C14.193 50.932 27.115 30.59 39.112 36.636 C51.108 42.683 44.15 63.942
						37.185 71.874 C30.219 79.806 14.721 71.91 14.459 61.422 M15.872 60.867
						C15.63 51.33 27.382 32.834 38.289 38.33 C49.199 43.83 42.871 63.163 36.538
						70.373 C30.201 77.587 16.11 70.405 15.872 60.867"
					 style="fill-rule:evenodd;clip-rule:evenodd"/>
				<linearGradient id="XMLID_17_" gradientUnits="userSpaceOnUse" x1="68.1045"
					y1="89.7051" x2="68.1045" y2="64.4126">
					<stop offset="0" style="stop-color:rgb(255,255,255)"/>
					<stop offset="0.0862" style="stop-color:rgb(247,251,255)"/>
					<stop offset="0.2177" style="stop-color:rgb(226,240,255)"/>
					<stop offset="0.3779" style="stop-color:rgb(192,222,255)"/>
					<stop offset="0.5609" style="stop-color:rgb(143,198,255)"/>
					<stop offset="0.7631" style="stop-color:rgb(82,166,255)"/>
					<stop offset="0.9783" style="stop-color:rgb(8,128,255)"/>
					<stop offset="1" style="stop-color:rgb(0,124,255)"/>
				</linearGradient>
				<path
					d="M50.679 76.388 C48.731 88.618 64.086 100.833 74.805 95.619 C85.525 90.409 91.089
						69.579 79.611 62.056 C68.128 54.528 52.626 64.155 50.679 76.388 z"
					 style="opacity:0.6;fill-rule:evenodd;clip-rule:evenodd;fill:url(#XMLID_17_)"/>
				<path
					d="M49.292 76.248 C47.189 89.445 63.759 102.627 75.326 97.004 C86.888 91.381 92.897
						68.9 80.508 60.782 C68.119 52.664 51.395 63.051 49.292 76.248 M50.681 76.385
						C48.729 88.618 64.088 100.833 74.808 95.619 C85.525 90.409 91.089 69.575
						79.607 62.052 C68.128 54.528 52.628 64.155 50.681 76.385"
					 style="fill-rule:evenodd;clip-rule:evenodd"/>
				<linearGradient id="XMLID_18_" gradientUnits="userSpaceOnUse" x1="27.1885"
					y1="37.4019" x2="31.1115" y2="61.5447">
					<stop offset="2.87356%" style="stop-color:rgb(255,255,255)"/>
					<stop offset="100%" style="stop-opacity:0;stop-color:rgb(255,255,255)"/>
				</linearGradient>
				<path a:adobe-blending-mode="screen"
					d="M17.164 60.362 C16.946 51.695 27.623 34.883 37.537 39.879 C47.449 44.876 41.699 62.444
						35.944 69 C30.188 75.551 17.384 69.028 17.164 60.362 z"
					 style="fill-rule:evenodd;clip-rule:evenodd;fill:url(#XMLID_18_)"/>
				<linearGradient id="XMLID_19_" gradientUnits="userSpaceOnUse" x1="65.626"
					y1="57.8232" x2="69.6879" y2="84.9506">
					<stop offset="4.5977%" style="stop-color:rgb(255,255,255)"/>
					<stop offset="100%" style="stop-opacity:0;stop-color:rgb(255,255,255)"/>
				</linearGradient>
				<path a:adobe-blending-mode="screen"
					d="M52.063 76.525 C50.27 87.79 64.414 99.04 74.29 94.241 C84.161 89.442 89.289 70.254
						78.713 63.323 C68.135 56.391 53.858 65.257 52.063 76.525 z"
					 style="fill-rule:evenodd;clip-rule:evenodd;fill:url(#XMLID_19_)"/>
			</g>
			<g>
				<linearGradient id="XMLID_20_" gradientUnits="userSpaceOnUse" x1="-225.524"
					y1="506.366" x2="-215.178" y2="503.005"
					gradientTransform="matrix(0.9242 0 0 1.2097 284.655 -514.16)">
					<stop offset="0.27" style="stop-color:rgb(0,0,0)"/>
					<stop offset="0.73" style="stop-color:rgb(255,255,255)"/>
					<a:midPointStop offset="0.27" style="stop-color:#000000"/>
					<a:midPointStop offset="0.5" style="stop-color:#000000"/>
					<a:midPointStop offset="0.73" style="stop-color:#FFFFFF"/>
				</linearGradient>
				<path
					d="M79.063 94.362 C81.075 94.158 83.902 94.025 85.91 94.476 C87.918 94.934 86.794 97.955
						85.272 97.753 C83.752 97.554 78.006 97.244 75.958 96.566 C73.91 95.89
						77.051 94.565 79.063 94.362 z"
					 style="fill-rule:evenodd;clip-rule:evenodd;fill:url(#XMLID_20_)"/>
				<path
					d="M78.092 95.113 C80.269 94.945 84.515 94.896 85.65 95.674 C86.792 96.449 86.31 98.141
						84.811 97.916 C83.311 97.694 76.95 97.498 74.736 96.937 C72.517 96.376
						75.919 95.282 78.092 95.113 z"
					 style="fill-rule:evenodd;clip-rule:evenodd"/>
			</g>
			<g>
				<path
					d="M48.386 52.935 C49.49 52.935 50.384 55.522 50.384 58.714 C50.384 61.906 49.49 64.494
						48.386 64.494 C47.284 64.494 46.39 61.906 46.39 58.714 C46.39 55.522 47.284
						52.935 48.386 52.935 z"
					 style="fill-rule:evenodd;clip-rule:evenodd;fill:rgb(255,255,255)"/>
				<path
					d="M48.531 51.903 C49.904 51.903 51.024 55.357 51.024 59.593 C51.024 63.827 49.904 67.283
						48.531 67.283 C47.157 67.283 46.037 63.827 46.037 59.593 C46.037 55.356
						47.157 51.903 48.531 51.903 M48.322 53.097 C49.275 53.097 50.055 55.9
						50.055 59.337 C50.055 62.771 49.275 65.579 48.322 65.579 C47.369 65.579 46.592
						62.771 46.592 59.337 C46.591 55.9 47.369 53.097 48.322 53.097"
					 style="fill-rule:evenodd;clip-rule:evenodd;fill:rgb(153,153,153)"/>
				<path
					d="M48.835 55.755 C49.481 55.755 50.005 57.428 50.005 59.493 C50.005 61.562 49.482 63.236
						48.835 63.236 C48.191 63.236 47.669 61.562 47.669 59.493 C47.669 57.428
						48.191 55.755 48.835 55.755 z"
					 style="fill-rule:evenodd;clip-rule:evenodd;fill:rgb(153,153,153)"/>
			</g>
		</g>
	</g>
</svg>
