<?xml version="1.0" encoding="iso-8859-1"?>
<!-- Generator: Adobe Illustrator 10.0.3, SVG Export Plug-In . SVG Version: 3.0.0 Build 77)  -->
<!DOCTYPE svg PUBLIC "-//W3C//DTD SVG 1.0//EN"    "http://www.w3.org/TR/2001/REC-SVG-20010904/DTD/svg10.dtd" [
	<!ENTITY ns_flows "http://ns.adobe.com/Flows/1.0/">
	<!ENTITY ns_svg "http://www.w3.org/2000/svg">
	<!ENTITY ns_xlink "http://www.w3.org/1999/xlink">
]>
<svg  xmlns="&ns_svg;" xmlns:xlink="&ns_xlink;" xmlns:a="http://ns.adobe.com/AdobeSVGViewerExtensions/3.0/"
	 width="128" height="128" viewBox="0 0 128 128" overflow="visible" enable-background="new 0 0 128 128" xml:space="preserve">
	<g id="Layer_1">
		<g>
			<path fill="#FFFFFF" d="M121.164,1.052H6.836v125.896h80.701l33.627-33.627V1.052z"/>
			<linearGradient id="XMLID_1_" gradientUnits="userSpaceOnUse" x1="63.9204" y1="154.5645" x2="63.9204" y2="-100.9347">
				<stop  offset="0" style="stop-color:#FFFFFF"/>
				<stop  offset="0.2457" style="stop-color:#F6F6F6"/>
				<stop  offset="0.6374" style="stop-color:#DFDFDF"/>
				<stop  offset="1" style="stop-color:#C4C4C4"/>
				<a:midPointStop  offset="0" style="stop-color:#FFFFFF"/>
				<a:midPointStop  offset="0.6045" style="stop-color:#FFFFFF"/>
				<a:midPointStop  offset="1" style="stop-color:#C4C4C4"/>
			</linearGradient>
			<path fill="url(#XMLID_1_)" d="M117.734,4.019H10.266l-0.16,122.654h76.457l31.172-31.252V4.019z"/>
			<linearGradient id="XMLID_2_" gradientUnits="userSpaceOnUse" x1="-26.333" y1="-26.333" x2="56.1662" y2="56.1662">
				<stop  offset="0" style="stop-color:#B3B3B3"/>
				<stop  offset="1" style="stop-color:#828282"/>
				<a:midPointStop  offset="0" style="stop-color:#B3B3B3"/>
				<a:midPointStop  offset="0.5" style="stop-color:#B3B3B3"/>
				<a:midPointStop  offset="1" style="stop-color:#828282"/>
			</linearGradient>
			<path fill="url(#XMLID_2_)" d="M121.164,0.552H6.336v126.896h81.408l33.92-33.92V0.552H121.164z M120.664,1.552
				c0,0.987,0,91.152,0,91.562c-0.289,0.289-33.045,33.045-33.334,33.334c-0.41,0-79.01,0-79.994,0c0-0.988,0-123.909,0-124.896
				C8.322,1.552,119.678,1.552,120.664,1.552z"/>
			<linearGradient id="XMLID_3_" gradientUnits="userSpaceOnUse" x1="43.0229" y1="25.4214" x2="204.0073" y2="111.0652">
				<stop  offset="0" style="stop-color:#FFFFFF"/>
				<stop  offset="0.8603" style="stop-color:#DADADA"/>
				<stop  offset="1" style="stop-color:#D4D4D4"/>
				<a:midPointStop  offset="0" style="stop-color:#FFFFFF"/>
				<a:midPointStop  offset="0.5254" style="stop-color:#FFFFFF"/>
				<a:midPointStop  offset="1" style="stop-color:#D4D4D4"/>
			</linearGradient>
			<path fill="url(#XMLID_3_)" d="M118.006,15.223V3.94H10.199l-0.096,65.34c9.975,4.547,21.151,7.096,32.954,7.096
				C80.402,76.376,111.455,48.876,118.006,15.223z"/>
			<linearGradient id="XMLID_4_" gradientUnits="userSpaceOnUse" x1="-3.8062" y1="10.6514" x2="127.5141" y2="10.6514">
				<stop  offset="0" style="stop-color:#B3CAFF"/>
				<stop  offset="1" style="stop-color:#0053BD"/>
				<a:midPointStop  offset="0" style="stop-color:#B3CAFF"/>
				<a:midPointStop  offset="0.5" style="stop-color:#B3CAFF"/>
				<a:midPointStop  offset="1" style="stop-color:#0053BD"/>
			</linearGradient>
			<path fill="url(#XMLID_4_)" d="M117.613,17.023H10.229V4.279h107.384V17.023z"/>
			<g>
				<path fill="#FFFFFF" d="M17.419,11.914l1.688,0.516c-0.259,0.946-0.689,1.649-1.292,2.108c-0.603,0.459-1.366,0.689-2.292,0.689
					c-1.146,0-2.088-0.39-2.825-1.17c-0.738-0.78-1.106-1.846-1.106-3.199c0-1.431,0.37-2.542,1.111-3.333
					c0.74-0.792,1.715-1.188,2.922-1.188c1.054,0,1.911,0.311,2.569,0.932c0.392,0.368,0.686,0.896,0.882,1.583l-1.719,0.406
					c-0.103-0.444-0.316-0.794-0.641-1.052S15.998,7.82,15.533,7.82c-0.642,0-1.162,0.229-1.561,0.686
					c-0.399,0.458-0.599,1.198-0.599,2.222c0,1.086,0.197,1.861,0.591,2.322c0.394,0.461,0.906,0.692,1.536,0.692
					c0.465,0,0.864-0.147,1.199-0.441S17.274,12.545,17.419,11.914z"/>
				<path fill="#FFFFFF" d="M28.32,15.086h-1.867l-0.745-1.953H22.26l-0.706,1.953h-1.859L23,6.492h1.857L28.32,15.086z
					 M25.136,11.68l-1.199-3.188l-1.152,3.188H25.136z"/>
				<path fill="#FFFFFF" d="M29.283,15.086V6.57h1.734v7.062h4.312v1.453H29.283z"/>
			</g>
			<g>
				<path fill-rule="evenodd" clip-rule="evenodd" fill="#666E75" d="M26.54,50.443c-0.474,19.917,0.593,39.837,1.712,59.759
					c4.412,0.316,6.922,1.389,9.01,2.988c-1.648-20.919-3.299-41.826-4.947-62.748C30.389,50.443,28.465,50.443,26.54,50.443z"/>
				<path fill-rule="evenodd" clip-rule="evenodd" fill="#666E75" d="M93.378,38.068c-0.878,17.784-1.016,35.566,0.479,53.354
					c-19.98,5.943-38.274,13.871-56.595,21.769c-4.049-20.524-4.837-41.582-4.945-62.748C52.668,46.317,73.024,42.192,93.378,38.068
					z"/>
				
					<linearGradient id="XMLID_5_" gradientUnits="userSpaceOnUse" x1="-222.4521" y1="467.3789" x2="-229.6251" y2="535.6253" gradientTransform="matrix(1.0077 0 0.0235 1.0077 279.3983 -430.8782)">
					<stop  offset="0.41" style="stop-color:#C5CAD1"/>
					<stop  offset="0.5162" style="stop-color:#DBE1E8"/>
					<stop  offset="0.59" style="stop-color:#FFFFFF"/>
					<a:midPointStop  offset="0.41" style="stop-color:#C5CAD1"/>
					<a:midPointStop  offset="0.5" style="stop-color:#C5CAD1"/>
					<a:midPointStop  offset="0.5162" style="stop-color:#DBE1E8"/>
					<a:midPointStop  offset="0.5" style="stop-color:#DBE1E8"/>
					<a:midPointStop  offset="0.59" style="stop-color:#FFFFFF"/>
				</linearGradient>
				<path fill-rule="evenodd" clip-rule="evenodd" fill="url(#XMLID_5_)" d="M93.386,37.895c-0.856,17.388-0.99,34.778,0.472,52.171
					c-19.536,5.81-37.427,13.562-55.34,21.283c-3.959-20.068-4.731-40.653-4.837-61.352C53.583,45.966,73.485,41.928,93.386,37.895z
					"/>
				<g>
					<path fill-rule="evenodd" clip-rule="evenodd" fill="#666E75" d="M31.27,50.917c3.345,20.136,6.453,41,13.528,61.209
						c4.451-4.832,25.961-11.451,55.742-17.779c-5.01-18.021-5.575-35.947-5.764-53.867C73.606,43.962,52.438,47.437,31.27,50.917z"
						/>
					
						<linearGradient id="XMLID_6_" gradientUnits="userSpaceOnUse" x1="-206.895" y1="471.5693" x2="-242.0762" y2="527.871" gradientTransform="matrix(1 0.0251 -0.0899 1.0896 333.9921 -464.4864)">
						<stop  offset="0" style="stop-color:#D8DEE6"/>
						<stop  offset="0.72" style="stop-color:#FFFFFF"/>
						<stop  offset="1" style="stop-color:#FEFEFD"/>
						<a:midPointStop  offset="0" style="stop-color:#D8DEE6"/>
						<a:midPointStop  offset="0.5" style="stop-color:#D8DEE6"/>
						<a:midPointStop  offset="0.72" style="stop-color:#FFFFFF"/>
						<a:midPointStop  offset="0.5" style="stop-color:#FFFFFF"/>
						<a:midPointStop  offset="1" style="stop-color:#FEFEFD"/>
					</linearGradient>
					<path fill-rule="evenodd" clip-rule="evenodd" fill="url(#XMLID_6_)" d="M33.392,50.859
						c3.056,19.948,5.561,39.878,12.128,59.896c4.219-4.794,24.856-10.624,52.955-16.927c-4.632-17.853-5.078-35.621-5.168-53.376
						C73.337,43.92,53.36,47.39,33.392,50.859z"/>
					
						<linearGradient id="XMLID_7_" gradientUnits="userSpaceOnUse" x1="-228.3442" y1="467.4482" x2="-224.8561" y2="534.0056" gradientTransform="matrix(1 0.0251 -0.0899 1.0896 333.9921 -464.4864)">
						<stop  offset="0.27" style="stop-color:#C5CAD1"/>
						<stop  offset="0.4632" style="stop-color:#DBE1E8"/>
						<stop  offset="0.73" style="stop-color:#FFFFFF"/>
						<a:midPointStop  offset="0.27" style="stop-color:#C5CAD1"/>
						<a:midPointStop  offset="0.5" style="stop-color:#C5CAD1"/>
						<a:midPointStop  offset="0.4632" style="stop-color:#DBE1E8"/>
						<a:midPointStop  offset="0.5" style="stop-color:#DBE1E8"/>
						<a:midPointStop  offset="0.73" style="stop-color:#FFFFFF"/>
					</linearGradient>
					<path fill-rule="evenodd" clip-rule="evenodd" fill="url(#XMLID_7_)" d="M33.392,50.859
						c3.056,19.948,5.561,39.878,12.128,59.896c1.239-1.409,3.898-2.909,7.747-4.485C33.323,67.976,37.61,50.179,93.321,42.954
						c-0.002-0.838-0.011-1.671-0.015-2.502C73.337,43.92,53.36,47.39,33.392,50.859z"/>
				</g>
				
					<linearGradient id="XMLID_8_" gradientUnits="userSpaceOnUse" x1="-264.4185" y1="505.249" x2="-246.439" y2="509.7318" gradientTransform="matrix(1.0305 0 0.024 1.0305 283.5052 -442.7468)">
					<stop  offset="0.33" style="stop-color:#AAAFB5"/>
					<stop  offset="0.4932" style="stop-color:#DAE0E6"/>
					<stop  offset="0.67" style="stop-color:#AAAFB5"/>
					<a:midPointStop  offset="0.33" style="stop-color:#AAAFB5"/>
					<a:midPointStop  offset="0.5" style="stop-color:#AAAFB5"/>
					<a:midPointStop  offset="0.4932" style="stop-color:#DAE0E6"/>
					<a:midPointStop  offset="0.5" style="stop-color:#DAE0E6"/>
					<a:midPointStop  offset="0.67" style="stop-color:#AAAFB5"/>
				</linearGradient>
				<path fill-rule="evenodd" clip-rule="evenodd" fill="url(#XMLID_8_)" d="M27.606,49.482
					c-0.475,19.914,0.593,39.833,1.711,59.752c0.64,0.051,1.215,0.099,1.735,0.157c0.262,0.029-0.792-20.855-0.557-20.822
					c0.237,0.033,1.762,20.99,1.974,21.027c0.666,0.122,1.231,0.269,1.738,0.446c0.263,0.09-2.847-33.923-2.607-33.811
					c0.242,0.115,3.831,34.353,4.059,34.484c0.484,0.287,0.962,0.627,1.483,1.026c-2.917-20.918-5.045-41.154-5.421-62.068
					c-0.991,0-1.544-0.053-2.11-0.105c0.108,0.188,0.013,23.493-0.521,23.162c-0.134-0.009-0.151-23.214-0.303-23.22
					C28.466,49.494,28.086,49.482,27.606,49.482z"/>
				<g>
					<path fill-rule="evenodd" clip-rule="evenodd" fill="#003399" d="M22.795,50.835l6.846,1.002l66.761-11.661l-0.006-13.717
						l-7.939-0.738l-65.634,7.067L22.795,50.835z"/>
					
						<linearGradient id="XMLID_9_" gradientUnits="userSpaceOnUse" x1="-251.3535" y1="483.9629" x2="-262.9652" y2="470.6051" gradientTransform="matrix(1.1276 0.1664 0 0.8523 317.1191 -321.7438)">
						<stop  offset="0.3" style="stop-color:#6699FF"/>
						<stop  offset="0.7" style="stop-color:#6666FF"/>
						<a:midPointStop  offset="0.3" style="stop-color:#6699FF"/>
						<a:midPointStop  offset="0.5" style="stop-color:#6699FF"/>
						<a:midPointStop  offset="0.7" style="stop-color:#6666FF"/>
					</linearGradient>
					<path fill-rule="evenodd" clip-rule="evenodd" fill="url(#XMLID_9_)" d="M24.129,33.796v16.19l6.03,0.727V34.517L24.129,33.796
						z"/>
					
						<linearGradient id="XMLID_10_" gradientUnits="userSpaceOnUse" x1="-196.3101" y1="465.8281" x2="-260.3716" y2="462.4708" gradientTransform="matrix(1.1276 0.1664 0 0.8523 317.1191 -327.1383)">
						<stop  offset="0.23" style="stop-color:#6699FF"/>
						<stop  offset="0.77" style="stop-color:#CCCCFF"/>
						<a:midPointStop  offset="0.23" style="stop-color:#6699FF"/>
						<a:midPointStop  offset="0.5" style="stop-color:#6699FF"/>
						<a:midPointStop  offset="0.77" style="stop-color:#CCCCFF"/>
					</linearGradient>
					<path fill-rule="evenodd" clip-rule="evenodd" fill="url(#XMLID_10_)" d="M89.127,26.395l-64.998,7.407l6.03,0.724
						l64.996-7.407L89.127,26.395z"/>
					<linearGradient id="XMLID_11_" gradientUnits="userSpaceOnUse" x1="16.7305" y1="57.5684" x2="107.3123" y2="17.0446">
						<stop  offset="0.17" style="stop-color:#6699FF"/>
						<stop  offset="0.83" style="stop-color:#FFFFFF"/>
						<a:midPointStop  offset="0.17" style="stop-color:#6699FF"/>
						<a:midPointStop  offset="0.5" style="stop-color:#6699FF"/>
						<a:midPointStop  offset="0.83" style="stop-color:#FFFFFF"/>
					</linearGradient>
					<path fill-rule="evenodd" clip-rule="evenodd" fill="url(#XMLID_11_)" d="M94.948,39.607l-64.85,11.017l0.061-16.099
						l64.996-7.407L94.948,39.607z"/>
				</g>
				<path opacity="0.4" fill-rule="evenodd" clip-rule="evenodd" fill="#003399" d="M38.126,61.002
					c0.226,1.056,0.443,2.11,0.665,3.164c17.483-3.415,34.968-6.826,52.45-10.242c-0.008-0.791-0.012-1.582-0.017-2.373
					C73.521,54.698,55.824,57.85,38.126,61.002z"/>
				<linearGradient id="XMLID_12_" gradientUnits="userSpaceOnUse" x1="58.1094" y1="80.6035" x2="99.1018" y2="62.8496">
					<stop  offset="0.08" style="stop-color:#FF0000"/>
					<stop  offset="0.92" style="stop-color:#FFFFFF"/>
					<a:midPointStop  offset="0.08" style="stop-color:#FF0000"/>
					<a:midPointStop  offset="0.5" style="stop-color:#FF0000"/>
					<a:midPointStop  offset="0.92" style="stop-color:#FFFFFF"/>
				</linearGradient>
				<path fill-rule="evenodd" clip-rule="evenodd" fill="url(#XMLID_12_)" d="M70.305,83.654c-2.854,0.731-5.781,1.477-8.736,2.236
					c-3.002,0.773-6.062,1.557-9.182,2.353c0.021-2.314,0.05-4.62,0.072-6.915c3.105-3.707,6.147-7.328,9.117-10.856
					c2.89-3.444,5.726-6.82,8.498-10.113c2.617-0.487,5.201-0.967,7.748-1.442c0.048,2.737,0.099,5.491,0.148,8.263
					c0.051,2.789,0.109,5.596,0.161,8.423c1.324-0.31,2.644-0.624,3.948-0.937c0.039,1.976,0.086,3.945,0.136,5.931
					c-1.315,0.34-2.641,0.683-3.971,1.022c0.025,1.753,0.061,3.512,0.097,5.283c-2.62,0.712-5.286,1.438-7.989,2.176
					C70.336,87.263,70.321,85.453,70.305,83.654 M70.239,77.48c-0.031-2.967-0.055-5.911-0.086-8.841
					c-1.468,1.779-2.957,3.585-4.463,5.411c-1.521,1.845-3.062,3.722-4.619,5.614C64.177,78.924,67.236,78.193,70.239,77.48"/>
				<linearGradient id="XMLID_13_" gradientUnits="userSpaceOnUse" x1="54.1587" y1="38.5972" x2="102.8996" y2="34.1244">
					<stop  offset="0.15" style="stop-color:#003399"/>
					<stop  offset="0.85" style="stop-color:#FFFFFF"/>
					<a:midPointStop  offset="0.15" style="stop-color:#003399"/>
					<a:midPointStop  offset="0.5" style="stop-color:#003399"/>
					<a:midPointStop  offset="0.85" style="stop-color:#FFFFFF"/>
				</linearGradient>
				<path fill-rule="evenodd" clip-rule="evenodd" fill="url(#XMLID_13_)" d="M56.236,43.177c-2.548,0.404-5.15,0.809-7.799,1.23
					c0.102-0.802,0.389-1.582,0.865-2.344c0.476-0.756,1.354-1.688,2.63-2.803c0.771-0.671,1.269-1.172,1.484-1.494
					c0.216-0.322,0.332-0.618,0.332-0.882c0.004-0.287-0.097-0.516-0.303-0.692c-0.202-0.173-0.468-0.24-0.786-0.199
					c-0.334,0.041-0.612,0.182-0.825,0.419c-0.213,0.234-0.364,0.627-0.443,1.172c-0.879,0.047-1.766,0.097-2.652,0.144
					c0.115-0.762,0.317-1.369,0.605-1.822c0.288-0.455,0.685-0.82,1.193-1.108c0.508-0.281,1.204-0.48,2.079-0.589
					c0.916-0.111,1.617-0.097,2.118,0.05c0.495,0.143,0.879,0.416,1.154,0.808c0.274,0.396,0.415,0.855,0.403,1.386
					c-0.01,0.569-0.18,1.134-0.511,1.691c-0.332,0.562-0.944,1.217-1.823,1.962c-0.526,0.439-0.879,0.738-1.056,0.908
					s-0.389,0.392-0.634,0.662c1.352-0.199,2.684-0.398,4.007-0.598C56.264,41.776,56.25,42.479,56.236,43.177 M57.396,38.352
					c0.014-0.876,0.11-1.635,0.273-2.268c0.158-0.635,0.404-1.148,0.72-1.538c0.627-0.776,1.557-1.242,2.796-1.392
					c0.59-0.073,1.074-0.059,1.449,0.047c0.369,0.103,0.67,0.261,0.902,0.472c0.23,0.208,0.415,0.439,0.54,0.683
					c0.129,0.252,0.237,0.545,0.313,0.888c0.144,0.65,0.211,1.339,0.199,2.066c-0.016,0.817-0.102,1.535-0.242,2.152
					c-0.142,0.616-0.35,1.137-0.621,1.553c-0.543,0.844-1.466,1.366-2.777,1.57c-0.744,0.117-1.344,0.094-1.801-0.082
					c-0.456-0.17-0.83-0.475-1.123-0.903c-0.204-0.311-0.371-0.75-0.479-1.319C57.432,39.707,57.389,39.064,57.396,38.352
					 M59.863,38.012c-0.018,1.164,0.069,1.947,0.255,2.34c0.196,0.398,0.477,0.568,0.852,0.51c0.251-0.036,0.469-0.159,0.648-0.37
					c0.185-0.205,0.326-0.509,0.415-0.908c0.09-0.4,0.148-1.012,0.163-1.833c0.022-1.207-0.064-2.004-0.251-2.394
					c-0.185-0.386-0.48-0.557-0.872-0.507c-0.404,0.053-0.704,0.305-0.888,0.753C59.998,36.055,59.881,36.858,59.863,38.012
					 M65.568,37.204c0.014-0.853,0.1-1.585,0.256-2.201c0.155-0.615,0.381-1.113,0.681-1.491c0.587-0.75,1.473-1.199,2.633-1.342
					c0.555-0.067,1.014-0.049,1.367,0.053c0.348,0.103,0.631,0.257,0.851,0.463c0.216,0.202,0.388,0.428,0.509,0.668
					c0.117,0.24,0.218,0.527,0.287,0.858c0.136,0.633,0.201,1.304,0.188,2.007c-0.019,0.793-0.099,1.491-0.236,2.089
					c-0.137,0.598-0.325,1.101-0.582,1.505c-0.516,0.814-1.385,1.324-2.624,1.518c-0.698,0.111-1.261,0.082-1.692-0.088
					c-0.43-0.17-0.786-0.469-1.061-0.885c-0.193-0.299-0.346-0.727-0.443-1.279C65.598,38.522,65.555,37.895,65.568,37.204
					 M67.888,36.884c-0.021,1.131,0.059,1.89,0.234,2.273c0.181,0.385,0.452,0.549,0.8,0.497c0.234-0.035,0.44-0.152,0.614-0.352
					c0.176-0.2,0.306-0.497,0.392-0.883c0.092-0.39,0.14-0.981,0.154-1.778c0.023-1.172-0.054-1.949-0.23-2.327
					c-0.171-0.378-0.447-0.542-0.82-0.495c-0.381,0.05-0.664,0.293-0.84,0.727C68.011,34.986,67.911,35.765,67.888,36.884
					 M75.438,34.034c-0.688-0.044-1.381-0.088-2.08-0.129c0.19-0.753,0.538-1.356,1.043-1.805c0.501-0.446,1.196-0.724,2.09-0.835
					c1.021-0.126,1.742-0.006,2.181,0.351c0.439,0.361,0.655,0.853,0.641,1.477c-0.009,0.369-0.109,0.715-0.296,1.034
					c-0.186,0.328-0.469,0.627-0.844,0.902c0.3,0.042,0.528,0.103,0.681,0.188c0.249,0.138,0.439,0.342,0.578,0.606
					c0.134,0.264,0.201,0.592,0.19,0.988c-0.015,0.492-0.145,0.981-0.385,1.474c-0.241,0.486-0.583,0.888-1.031,1.206
					c-0.447,0.311-1.034,0.534-1.763,0.645c-0.71,0.111-1.275,0.111-1.682-0.006c-0.415-0.117-0.75-0.34-1.014-0.656
					c-0.262-0.312-0.461-0.731-0.597-1.253c0.741-0.217,1.48-0.431,2.216-0.645c0.075,0.469,0.198,0.785,0.375,0.943
					c0.176,0.156,0.406,0.217,0.68,0.176c0.287-0.047,0.539-0.202,0.735-0.466c0.195-0.258,0.304-0.586,0.311-0.976
					c0.008-0.396-0.08-0.692-0.258-0.882c-0.183-0.19-0.434-0.267-0.754-0.22c-0.172,0.023-0.404,0.105-0.708,0.24
					c0.048-0.574,0.099-1.149,0.145-1.726c0.126,0,0.22,0,0.289-0.008c0.284-0.039,0.521-0.173,0.716-0.398
					c0.195-0.223,0.293-0.475,0.3-0.745c0.004-0.264-0.061-0.463-0.199-0.601c-0.136-0.138-0.335-0.19-0.584-0.159
					c-0.256,0.033-0.463,0.146-0.626,0.337C75.621,33.283,75.506,33.6,75.438,34.034"/>
				<linearGradient id="XMLID_14_" gradientUnits="userSpaceOnUse" x1="63.1084" y1="96.8311" x2="98.5969" y2="88.3806">
					<stop  offset="0.09" style="stop-color:#003399"/>
					<stop  offset="0.91" style="stop-color:#FFFFFF"/>
					<a:midPointStop  offset="0.09" style="stop-color:#003399"/>
					<a:midPointStop  offset="0.5" style="stop-color:#003399"/>
					<a:midPointStop  offset="0.91" style="stop-color:#FFFFFF"/>
				</linearGradient>
				<path fill-rule="evenodd" clip-rule="evenodd" fill="url(#XMLID_14_)" d="M58.477,93.482c1.44-0.316,2.874-0.631,4.296-0.94
					c0.092,0.565,0.186,1.131,0.288,1.696c-0.476,0.104-0.947,0.214-1.425,0.32c0.148,0.863,0.293,1.729,0.443,2.595
					c0.153,0.863,0.303,1.726,0.448,2.589c-0.462,0.117-0.93,0.234-1.398,0.348c-0.152-0.867-0.303-1.734-0.455-2.602
					c-0.152-0.871-0.299-1.74-0.447-2.611c-0.482,0.109-0.969,0.22-1.455,0.329C58.671,94.632,58.574,94.056,58.477,93.482
					 M67.563,98.487c-0.371,0.095-0.749,0.187-1.124,0.28c-0.051-0.264-0.093-0.529-0.137-0.793
					c-0.115,0.368-0.244,0.645-0.393,0.822c-0.148,0.183-0.348,0.307-0.602,0.369c-0.338,0.086-0.634-0.004-0.879-0.269
					c-0.245-0.264-0.419-0.725-0.53-1.371c-0.09-0.525-0.183-1.052-0.277-1.573c-0.093-0.527-0.176-1.053-0.267-1.581
					c0.415-0.092,0.829-0.19,1.241-0.28c0.154,0.902,0.305,1.808,0.46,2.71c0.058,0.308,0.129,0.521,0.227,0.632
					c0.098,0.109,0.213,0.151,0.347,0.115c0.146-0.035,0.252-0.146,0.313-0.343c0.065-0.195,0.057-0.516-0.021-0.964
					c-0.135-0.785-0.268-1.572-0.396-2.362c0.399-0.09,0.799-0.18,1.207-0.274c0.138,0.815,0.273,1.632,0.414,2.444
					C67.291,96.86,67.425,97.675,67.563,98.487 M71.364,95.518c-0.781,0.187-1.562,0.377-2.352,0.563
					c0.07,0.293,0.165,0.505,0.27,0.631c0.153,0.178,0.316,0.249,0.501,0.205c0.112-0.029,0.218-0.103,0.304-0.218
					c0.054-0.073,0.104-0.19,0.154-0.354c0.394-0.035,0.785-0.073,1.18-0.11c-0.095,0.523-0.25,0.923-0.463,1.191
					c-0.212,0.272-0.551,0.467-1.021,0.584c-0.401,0.099-0.741,0.088-1.003-0.033c-0.268-0.122-0.513-0.362-0.732-0.721
					c-0.225-0.358-0.382-0.802-0.476-1.338c-0.128-0.761-0.075-1.414,0.157-1.956c0.23-0.538,0.622-0.871,1.162-0.995
					c0.439-0.101,0.806-0.073,1.098,0.08c0.282,0.146,0.529,0.406,0.729,0.767c0.198,0.364,0.35,0.867,0.454,1.495
					C71.337,95.378,71.35,95.449,71.364,95.518 M70.032,94.919c-0.09-0.352-0.195-0.595-0.32-0.727
					c-0.122-0.132-0.267-0.181-0.43-0.143c-0.187,0.044-0.316,0.201-0.392,0.459c-0.042,0.163-0.055,0.39-0.022,0.683
					C69.26,95.099,69.645,95.009,70.032,94.919 M71.791,96.052c0.379-0.148,0.746-0.3,1.118-0.448
					c0.082,0.205,0.176,0.344,0.272,0.417c0.101,0.073,0.22,0.09,0.362,0.055c0.153-0.038,0.258-0.12,0.327-0.245
					c0.05-0.093,0.068-0.197,0.046-0.312c-0.021-0.132-0.08-0.222-0.176-0.271c-0.071-0.034-0.247-0.062-0.523-0.069
					c-0.415-0.02-0.708-0.051-0.884-0.109c-0.168-0.059-0.323-0.188-0.47-0.383c-0.146-0.203-0.247-0.446-0.293-0.735
					c-0.055-0.318-0.04-0.601,0.035-0.856c0.078-0.251,0.21-0.463,0.39-0.622c0.185-0.157,0.444-0.274,0.783-0.352
					c0.353-0.082,0.622-0.097,0.805-0.048c0.182,0.048,0.348,0.15,0.492,0.308c0.136,0.154,0.274,0.379,0.399,0.67
					c-0.35,0.141-0.697,0.278-1.045,0.419c-0.055-0.145-0.119-0.245-0.198-0.302c-0.105-0.075-0.221-0.101-0.348-0.067
					c-0.128,0.03-0.218,0.089-0.26,0.172c-0.049,0.088-0.065,0.185-0.049,0.287c0.023,0.117,0.078,0.197,0.159,0.241
					c0.082,0.042,0.26,0.059,0.516,0.048c0.392-0.019,0.685,0.009,0.888,0.088c0.203,0.075,0.375,0.218,0.507,0.421
					c0.134,0.199,0.227,0.436,0.271,0.706c0.046,0.272,0.039,0.551-0.02,0.835c-0.059,0.281-0.182,0.528-0.377,0.735
					c-0.198,0.205-0.487,0.358-0.869,0.454c-0.54,0.135-0.95,0.109-1.225-0.081C72.147,96.814,71.942,96.494,71.791,96.052
					 M77.657,89.283c0.178,1.072,0.355,2.145,0.538,3.215c0.178,1.07,0.354,2.138,0.536,3.206c-0.34,0.084-0.681,0.17-1.021,0.254
					c-0.039-0.229-0.079-0.459-0.115-0.688c-0.098,0.327-0.194,0.556-0.295,0.691c-0.134,0.172-0.3,0.282-0.496,0.333
					c-0.392,0.097-0.737-0.069-1.024-0.507c-0.291-0.434-0.5-1.005-0.615-1.702c-0.134-0.779-0.117-1.403,0.05-1.873
					c0.157-0.465,0.419-0.741,0.771-0.82c0.172-0.04,0.34-0.025,0.492,0.033c0.161,0.065,0.309,0.176,0.446,0.339
					c-0.128-0.743-0.249-1.49-0.375-2.238C76.92,89.447,77.286,89.365,77.657,89.283 M77.244,93.629
					c-0.062-0.366-0.152-0.626-0.282-0.787c-0.126-0.157-0.264-0.218-0.406-0.187c-0.128,0.033-0.22,0.145-0.281,0.337
					c-0.059,0.195-0.05,0.496,0.018,0.907c0.064,0.381,0.154,0.653,0.273,0.804c0.12,0.159,0.25,0.22,0.377,0.188
					c0.145-0.035,0.247-0.152,0.309-0.352C77.315,94.335,77.312,94.033,77.244,93.629 M79.848,92.176
					c-0.35,0.021-0.702,0.044-1.056,0.064c-0.015-0.308,0.004-0.551,0.05-0.741c0.047-0.185,0.128-0.358,0.245-0.515
					c0.084-0.113,0.205-0.216,0.373-0.3c0.161-0.088,0.346-0.159,0.547-0.203c0.322-0.073,0.584-0.103,0.785-0.084
					c0.203,0.015,0.383,0.103,0.544,0.258c0.109,0.111,0.214,0.274,0.306,0.5c0.091,0.227,0.153,0.446,0.188,0.66
					c0.111,0.677,0.221,1.349,0.336,2.021c0.035,0.212,0.07,0.382,0.11,0.499c0.034,0.117,0.099,0.264,0.185,0.439
					c-0.327,0.082-0.664,0.163-0.986,0.247c-0.062-0.108-0.103-0.194-0.124-0.253c-0.021-0.055-0.05-0.151-0.086-0.281
					c-0.104,0.258-0.215,0.45-0.339,0.578c-0.165,0.176-0.375,0.295-0.626,0.356c-0.333,0.081-0.607,0.019-0.825-0.195
					c-0.218-0.209-0.358-0.505-0.419-0.879c-0.059-0.353-0.042-0.658,0.044-0.916c0.086-0.253,0.291-0.479,0.607-0.67
					c0.383-0.226,0.628-0.381,0.737-0.463c0.106-0.079,0.222-0.182,0.341-0.299c-0.037-0.216-0.086-0.362-0.154-0.436
					c-0.069-0.073-0.172-0.099-0.311-0.065c-0.176,0.04-0.295,0.119-0.372,0.23C79.892,91.817,79.86,91.968,79.848,92.176
					 M80.933,92.886c-0.13,0.121-0.271,0.236-0.421,0.341c-0.201,0.145-0.325,0.272-0.365,0.379
					c-0.046,0.111-0.057,0.229-0.035,0.348c0.025,0.139,0.073,0.243,0.145,0.321c0.075,0.073,0.17,0.096,0.285,0.066
					c0.117-0.029,0.22-0.103,0.306-0.222c0.086-0.122,0.136-0.256,0.159-0.402c0.021-0.146,0.015-0.331-0.027-0.549
					C80.966,93.076,80.947,92.981,80.933,92.886 M81.896,90.163c0.368-0.086,0.735-0.168,1.104-0.253
					c0.176,0.483,0.356,0.967,0.532,1.448c0.172,0.48,0.354,0.962,0.525,1.441c0.004-0.521,0.009-1.045,0.009-1.568
					c0.004-0.521,0.006-1.043,0.006-1.564c0.339-0.075,0.679-0.151,1.02-0.23c-0.046,0.844-0.098,1.689-0.14,2.534
					c-0.04,0.844-0.088,1.689-0.126,2.538c-0.033,0.58-0.095,0.984-0.187,1.206c-0.138,0.32-0.383,0.527-0.754,0.622
					c-0.148,0.037-0.385,0.064-0.71,0.075c-0.094-0.397-0.188-0.796-0.289-1.196c0.166,0.045,0.34,0.04,0.526-0.004
					c0.123-0.033,0.215-0.103,0.273-0.218c0.062-0.115,0.095-0.295,0.109-0.553c-0.316-0.708-0.637-1.42-0.948-2.132
					C82.53,91.596,82.212,90.882,81.896,90.163"/>
				<linearGradient id="XMLID_15_" gradientUnits="userSpaceOnUse" x1="56.6177" y1="52.4561" x2="104.6163" y2="47.5171">
					<stop  offset="0.1" style="stop-color:#003399"/>
					<stop  offset="0.9" style="stop-color:#FFFFFF"/>
					<a:midPointStop  offset="0.1" style="stop-color:#003399"/>
					<a:midPointStop  offset="0.5" style="stop-color:#003399"/>
					<a:midPointStop  offset="0.9" style="stop-color:#FFFFFF"/>
				</linearGradient>
				<path fill-rule="evenodd" clip-rule="evenodd" fill="url(#XMLID_15_)" d="M43.522,50.971l4.562-0.792l0.145,1.418l-2.709,0.474
					l0.115,1.155l2.309-0.404l0.134,1.336l-2.313,0.398l0.266,2.702l-1.851,0.322L43.522,50.971 M53.951,53.912l-3.322,0.574
					c0.057,0.293,0.151,0.498,0.277,0.621c0.184,0.182,0.4,0.246,0.659,0.205c0.163-0.029,0.314-0.099,0.45-0.217
					c0.083-0.076,0.169-0.193,0.26-0.352l1.646-0.117c-0.201,0.522-0.465,0.92-0.799,1.19c-0.332,0.27-0.83,0.463-1.489,0.58
					c-0.573,0.1-1.03,0.088-1.379-0.035c-0.343-0.123-0.643-0.357-0.901-0.709c-0.252-0.351-0.403-0.791-0.454-1.318
					c-0.079-0.75,0.079-1.389,0.469-1.928c0.386-0.539,0.958-0.873,1.722-1.008c0.62-0.105,1.117-0.088,1.499,0.059
					c0.375,0.141,0.681,0.398,0.908,0.756c0.224,0.363,0.367,0.855,0.432,1.488L53.951,53.912 M52.178,53.326
					c-0.072-0.352-0.181-0.592-0.335-0.721c-0.155-0.129-0.35-0.17-0.573-0.135c-0.267,0.047-0.465,0.2-0.599,0.457
					c-0.085,0.165-0.129,0.387-0.129,0.68L52.178,53.326 M54.175,49.119l1.671-0.293l0.23,2.292
					c0.145-0.223,0.319-0.398,0.519-0.528c0.202-0.135,0.433-0.223,0.685-0.27c0.527-0.088,0.984,0.047,1.369,0.405
					c0.391,0.357,0.621,0.931,0.699,1.716c0.05,0.522,0.015,0.997-0.101,1.418c-0.116,0.428-0.306,0.762-0.564,1.008
					c-0.256,0.246-0.559,0.398-0.898,0.457c-0.288,0.053-0.562,0.029-0.822-0.064c-0.191-0.082-0.41-0.252-0.656-0.51l0.072,0.709
					l-1.549,0.27L54.175,49.119 M56.253,53.033c0.04,0.41,0.142,0.697,0.3,0.855c0.158,0.164,0.342,0.223,0.558,0.188
					c0.198-0.035,0.358-0.158,0.472-0.357c0.116-0.205,0.152-0.527,0.108-0.955c-0.036-0.381-0.13-0.645-0.277-0.803
					c-0.152-0.153-0.321-0.211-0.508-0.182c-0.224,0.042-0.396,0.165-0.523,0.375C56.257,52.365,56.214,52.658,56.253,53.033
					 M59.925,49.974l1.553-0.27l0.076,0.779c0.119-0.363,0.249-0.621,0.396-0.779c0.145-0.152,0.336-0.252,0.57-0.293
					c0.245-0.041,0.519-0.005,0.828,0.112l-0.385,1.4c-0.206-0.059-0.363-0.076-0.479-0.059c-0.217,0.042-0.375,0.17-0.478,0.387
					c-0.144,0.311-0.176,0.85-0.1,1.612l0.158,1.605L60.4,54.762L59.925,49.974 M68.922,53.279l-1.55,0.27l-0.075-0.779
					c-0.196,0.363-0.41,0.627-0.634,0.803c-0.22,0.176-0.505,0.293-0.842,0.357c-0.456,0.076-0.829-0.012-1.117-0.27
					c-0.289-0.258-0.465-0.697-0.527-1.33l-0.303-3.042l1.665-0.292l0.26,2.631c0.029,0.305,0.102,0.51,0.217,0.616
					c0.111,0.111,0.259,0.146,0.439,0.117c0.201-0.036,0.354-0.146,0.463-0.34c0.109-0.188,0.143-0.498,0.099-0.937l-0.227-2.303
					l1.657-0.287L68.922,53.279 M71.117,49.605l-1.601,0.088c0.029-0.316,0.091-0.574,0.188-0.768
					c0.093-0.193,0.241-0.375,0.438-0.545c0.146-0.117,0.347-0.228,0.606-0.322c0.26-0.1,0.545-0.176,0.856-0.229
					c0.495-0.088,0.898-0.123,1.204-0.117c0.311,0.012,0.574,0.094,0.792,0.258c0.157,0.111,0.285,0.281,0.394,0.516
					c0.104,0.234,0.17,0.463,0.193,0.691l0.207,2.115c0.022,0.223,0.055,0.399,0.09,0.522c0.04,0.123,0.113,0.275,0.22,0.457
					l-1.556,0.27c-0.075-0.111-0.121-0.199-0.153-0.258c-0.022-0.064-0.054-0.158-0.086-0.293c-0.194,0.27-0.394,0.469-0.597,0.604
					c-0.282,0.188-0.613,0.311-1.003,0.381c-0.515,0.088-0.919,0.023-1.215-0.193c-0.295-0.217-0.46-0.522-0.498-0.908
					c-0.036-0.363,0.031-0.68,0.199-0.95c0.169-0.27,0.509-0.503,1.016-0.709c0.609-0.246,1.003-0.41,1.183-0.499
					c0.176-0.087,0.369-0.199,0.563-0.322c-0.022-0.229-0.079-0.375-0.172-0.451c-0.092-0.077-0.247-0.094-0.46-0.059
					c-0.271,0.047-0.47,0.129-0.595,0.251C71.236,49.229,71.161,49.382,71.117,49.605 M72.654,50.314
					c-0.223,0.135-0.453,0.252-0.689,0.369c-0.329,0.152-0.534,0.293-0.613,0.399c-0.084,0.117-0.115,0.24-0.104,0.369
					c0.015,0.14,0.073,0.252,0.174,0.328c0.096,0.071,0.236,0.1,0.412,0.065c0.185-0.029,0.352-0.111,0.501-0.234
					c0.148-0.129,0.249-0.27,0.303-0.422c0.053-0.158,0.065-0.345,0.045-0.574L72.654,50.314 M75.033,47.343l1.554-0.27l0.075,0.785
					c0.119-0.363,0.249-0.626,0.394-0.779c0.146-0.159,0.333-0.258,0.569-0.299c0.245-0.042,0.518,0,0.83,0.117l-0.388,1.395
					c-0.201-0.059-0.362-0.076-0.476-0.053c-0.22,0.035-0.375,0.164-0.476,0.387c-0.145,0.305-0.176,0.844-0.101,1.611l0.157,1.606
					l-1.662,0.287L75.033,47.343 M78.725,46.704l1.751-0.305l1.206,3.03l0.516-3.329l1.633-0.287l-1.21,5.415
					c-0.139,0.622-0.3,1.049-0.483,1.29c-0.26,0.34-0.681,0.557-1.271,0.662c-0.239,0.041-0.609,0.064-1.118,0.082l-0.256-1.259
					c0.245,0.046,0.516,0.041,0.811-0.012c0.194-0.035,0.346-0.111,0.459-0.228c0.112-0.123,0.198-0.317,0.255-0.586L78.725,46.704"
					/>
			</g>
			<g>
				
					<radialGradient id="XMLID_16_" cx="108.4668" cy="118.249" r="34.7364" fx="108.4668" fy="118.249" gradientUnits="userSpaceOnUse">
					<stop  offset="0" style="stop-color:#000000"/>
					<stop  offset="1" style="stop-color:#000000"/>
					<a:midPointStop  offset="0" style="stop-color:#000000"/>
					<a:midPointStop  offset="0.5" style="stop-color:#000000"/>
					<a:midPointStop  offset="1" style="stop-color:#000000"/>
				</radialGradient>
				<path opacity="0.1" fill="url(#XMLID_16_)" d="M85.191,90.976v35.754h1.793l33.639-33.639v-2.115H85.191z"/>
				<path fill="#FFFFFF" d="M87.537,126.948l33.627-33.627H87.537V126.948z"/>
				<linearGradient id="XMLID_17_" gradientUnits="userSpaceOnUse" x1="104.0166" y1="98.1807" x2="95.0883" y2="135.7938">
					<stop  offset="0" style="stop-color:#FFFFFF"/>
					<stop  offset="1" style="stop-color:#CCCCCC"/>
					<a:midPointStop  offset="0" style="stop-color:#FFFFFF"/>
					<a:midPointStop  offset="0.5" style="stop-color:#FFFFFF"/>
					<a:midPointStop  offset="1" style="stop-color:#CCCCCC"/>
				</linearGradient>
				<path fill="url(#XMLID_17_)" d="M89.865,125.056l29.594-29.592H89.865V125.056z"/>
				<linearGradient id="XMLID_18_" gradientUnits="userSpaceOnUse" x1="82.3086" y1="88.0928" x2="96.1043" y2="101.8885">
					<stop  offset="0" style="stop-color:#B3B3B3"/>
					<stop  offset="1" style="stop-color:#828282"/>
					<a:midPointStop  offset="0" style="stop-color:#B3B3B3"/>
					<a:midPointStop  offset="0.5" style="stop-color:#B3B3B3"/>
					<a:midPointStop  offset="1" style="stop-color:#828282"/>
				</linearGradient>
				<path fill="url(#XMLID_18_)" d="M87.537,92.821c-0.277,0-0.5,0.223-0.5,0.5v33.627c0,0.203,0.121,0.385,0.309,0.463
					c0.186,0.076,0.402,0.033,0.545-0.109l33.627-33.627c0.143-0.145,0.186-0.359,0.109-0.545c-0.078-0.188-0.26-0.309-0.463-0.309
					H87.537z M119.957,93.821c-1.58,1.578-30.342,30.34-31.92,31.92c0-2.209,0-30.986,0-31.92
					C88.971,93.821,117.748,93.821,119.957,93.821z"/>
			</g>
		</g>
		<path fill="none" d="M128,128H0V0h128V128z"/>
	</g>
</svg>
