<?xml version="1.0" encoding="iso-8859-1"?>
<!-- Generator: Adobe Illustrator 10.0.3, SVG Export Plug-In . SVG Version: 3.0.0 Build 77)  -->
<!DOCTYPE svg PUBLIC "-//W3C//DTD SVG 1.0//EN"    "http://www.w3.org/TR/2001/REC-SVG-20010904/DTD/svg10.dtd" [
	<!ENTITY ns_flows "http://ns.adobe.com/Flows/1.0/">
	<!ENTITY ns_svg "http://www.w3.org/2000/svg">
	<!ENTITY ns_xlink "http://www.w3.org/1999/xlink">
]>
<svg  xmlns="&ns_svg;" xmlns:xlink="&ns_xlink;" xmlns:a="http://ns.adobe.com/AdobeSVGViewerExtensions/3.0/"
	 width="128" height="128" viewBox="0 0 128 128" overflow="visible" enable-background="new 0 0 128 128" xml:space="preserve">
	<g id="Layer_1">
		<g>
			<path fill="#FFFFFF" d="M121.164,1.052H6.836v125.896h80.701l33.627-33.627V1.052z"/>
			<linearGradient id="XMLID_1_" gradientUnits="userSpaceOnUse" x1="63.9204" y1="154.5645" x2="63.9204" y2="-100.9347">
				<stop  offset="0" style="stop-color:#FFFFFF"/>
				<stop  offset="0.2457" style="stop-color:#F6F6F6"/>
				<stop  offset="0.6374" style="stop-color:#DFDFDF"/>
				<stop  offset="1" style="stop-color:#C4C4C4"/>
				<a:midPointStop  offset="0" style="stop-color:#FFFFFF"/>
				<a:midPointStop  offset="0.6045" style="stop-color:#FFFFFF"/>
				<a:midPointStop  offset="1" style="stop-color:#C4C4C4"/>
			</linearGradient>
			<path fill="url(#XMLID_1_)" d="M117.734,4.019H10.266l-0.16,122.654h76.457l31.172-31.252V4.019z"/>
			<linearGradient id="XMLID_2_" gradientUnits="userSpaceOnUse" x1="-26.333" y1="-26.333" x2="56.1662" y2="56.1662">
				<stop  offset="0" style="stop-color:#B3B3B3"/>
				<stop  offset="1" style="stop-color:#828282"/>
				<a:midPointStop  offset="0" style="stop-color:#B3B3B3"/>
				<a:midPointStop  offset="0.5" style="stop-color:#B3B3B3"/>
				<a:midPointStop  offset="1" style="stop-color:#828282"/>
			</linearGradient>
			<path fill="url(#XMLID_2_)" d="M121.164,0.552H6.336v126.896h81.408l33.92-33.92V0.552H121.164z M120.664,1.552
				c0,0.987,0,91.152,0,91.562c-0.289,0.289-33.045,33.045-33.334,33.334c-0.41,0-79.01,0-79.994,0c0-0.988,0-123.909,0-124.896
				C8.322,1.552,119.678,1.552,120.664,1.552z"/>
			<linearGradient id="XMLID_3_" gradientUnits="userSpaceOnUse" x1="43.0229" y1="25.4214" x2="204.0073" y2="111.0652">
				<stop  offset="0" style="stop-color:#FFFFFF"/>
				<stop  offset="0.8603" style="stop-color:#DADADA"/>
				<stop  offset="1" style="stop-color:#D4D4D4"/>
				<a:midPointStop  offset="0" style="stop-color:#FFFFFF"/>
				<a:midPointStop  offset="0.5254" style="stop-color:#FFFFFF"/>
				<a:midPointStop  offset="1" style="stop-color:#D4D4D4"/>
			</linearGradient>
			<path fill="url(#XMLID_3_)" d="M118.006,15.223V3.94H10.199l-0.096,65.34c9.975,4.547,21.151,7.096,32.954,7.096
				C80.402,76.376,111.455,48.876,118.006,15.223z"/>
			<linearGradient id="XMLID_4_" gradientUnits="userSpaceOnUse" x1="79.2451" y1="10.6509" x2="-59.5067" y2="10.6509">
				<stop  offset="0.13" style="stop-color:#006633"/>
				<stop  offset="0.4852" style="stop-color:#33CC33"/>
				<stop  offset="0.87" style="stop-color:#99FF00"/>
				<a:midPointStop  offset="0.13" style="stop-color:#006633"/>
				<a:midPointStop  offset="0.5" style="stop-color:#006633"/>
				<a:midPointStop  offset="0.4852" style="stop-color:#33CC33"/>
				<a:midPointStop  offset="0.5" style="stop-color:#33CC33"/>
				<a:midPointStop  offset="0.87" style="stop-color:#99FF00"/>
			</linearGradient>
			<path fill-rule="evenodd" clip-rule="evenodd" fill="url(#XMLID_4_)" d="M117.613,17.023H10.229V4.279h107.384V17.023z"/>
			<g>
				<path fill="#FFFFFF" d="M14.713,15.069V5.89h2.964c1.123,0,1.855,0.046,2.197,0.138c0.524,0.138,0.963,0.437,1.316,0.897
					c0.354,0.461,0.53,1.056,0.53,1.786c0,0.563-0.102,1.036-0.306,1.42c-0.204,0.384-0.463,0.685-0.777,0.904
					c-0.314,0.219-0.633,0.364-0.958,0.435c-0.441,0.088-1.079,0.131-1.916,0.131h-1.204v3.469H14.713z M16.561,7.441v2.608h1.011
					c0.728,0,1.214-0.048,1.46-0.144c0.245-0.096,0.438-0.247,0.577-0.452c0.139-0.205,0.209-0.443,0.209-0.715
					c0-0.334-0.098-0.61-0.293-0.828c-0.195-0.217-0.443-0.353-0.742-0.408c-0.221-0.042-0.664-0.062-1.329-0.062H16.561z"/>
				<path fill="#FFFFFF" d="M25.65,15.069v-3.863L22.287,5.89h2.183l2.149,3.641l2.109-3.641h2.131l-3.363,5.329v3.851H25.65z"/>
				<path fill="#FFFFFF" d="M33.865,15.069V7.441h-2.707V5.89h7.261v1.551h-2.708v7.628H33.865z"/>
				<path fill="#FFFFFF" d="M39.634,15.069V5.89h1.847V9.5h3.624V5.89h1.847v9.179h-1.847v-4.019H41.48v4.019H39.634z"/>
				<path fill="#FFFFFF" d="M48.506,10.536c0-0.938,0.14-1.724,0.419-2.36c0.208-0.469,0.493-0.89,0.854-1.262
					c0.361-0.373,0.756-0.649,1.186-0.829c0.571-0.243,1.23-0.364,1.977-0.364c1.352,0,2.433,0.421,3.244,1.262
					c0.811,0.841,1.217,2.011,1.217,3.509c0,1.486-0.402,2.648-1.208,3.487c-0.805,0.839-1.881,1.259-3.229,1.259
					c-1.364,0-2.448-0.417-3.253-1.252C48.909,13.151,48.506,12.001,48.506,10.536z M50.41,10.473c0,1.045,0.24,1.838,0.722,2.377
					c0.481,0.54,1.092,0.809,1.833,0.809s1.348-0.268,1.823-0.803c0.475-0.535,0.712-1.338,0.712-2.408
					c0-1.058-0.231-1.847-0.694-2.367S53.73,7.3,52.964,7.3s-1.383,0.264-1.852,0.79C50.644,8.617,50.41,9.412,50.41,10.473z"/>
				<path fill="#FFFFFF" d="M58.854,15.069V5.89h1.801l3.754,6.133V5.89h1.719v9.179h-1.857l-3.698-6.014v6.014H58.854z"/>
			</g>
			<g>
				
					<linearGradient id="XMLID_5_" gradientUnits="userSpaceOnUse" x1="33.9966" y1="102.499" x2="63.2704" y2="100.9648" gradientTransform="matrix(1 0 0 1 55.563 -15.8262)">
					<stop  offset="0.28" style="stop-color:#009933"/>
					<stop  offset="0.5396" style="stop-color:#33CC33"/>
					<stop  offset="0.72" style="stop-color:#99FF00"/>
					<a:midPointStop  offset="0.28" style="stop-color:#009933"/>
					<a:midPointStop  offset="0.5" style="stop-color:#009933"/>
					<a:midPointStop  offset="0.5396" style="stop-color:#33CC33"/>
					<a:midPointStop  offset="0.5" style="stop-color:#33CC33"/>
					<a:midPointStop  offset="0.72" style="stop-color:#99FF00"/>
				</linearGradient>
				<path fill-rule="evenodd" clip-rule="evenodd" fill="url(#XMLID_5_)" d="M117.524,55.941v0.034v40.306l-19.062,19.192
					l-7.411-51.093l-0.021-0.144L117.524,55.941z"/>
				
					<linearGradient id="XMLID_6_" gradientUnits="userSpaceOnUse" x1="30.5186" y1="62.041" x2="61.8597" y2="62.5881" gradientTransform="matrix(1 0 0 1 55.563 -15.8262)">
					<stop  offset="0.27" style="stop-color:#009933"/>
					<stop  offset="0.5092" style="stop-color:#33CC33"/>
					<stop  offset="0.73" style="stop-color:#99FF00"/>
					<a:midPointStop  offset="0.27" style="stop-color:#009933"/>
					<a:midPointStop  offset="0.5" style="stop-color:#009933"/>
					<a:midPointStop  offset="0.5092" style="stop-color:#33CC33"/>
					<a:midPointStop  offset="0.5" style="stop-color:#33CC33"/>
					<a:midPointStop  offset="0.73" style="stop-color:#99FF00"/>
				</linearGradient>
				<path fill-rule="evenodd" clip-rule="evenodd" fill="url(#XMLID_6_)" d="M85.991,28.278l31.533,10.438v17.225l-26.493,8.296
					L85.991,28.278z"/>
				<g>
					
						<linearGradient id="XMLID_7_" gradientUnits="userSpaceOnUse" x1="42.0215" y1="114.9443" x2="94.9706" y2="102.7201" gradientTransform="matrix(1 0 0 1 12.6226 -14.4951)">
						<stop  offset="0.36" style="stop-color:#009933"/>
						<stop  offset="0.472" style="stop-color:#33CC33"/>
						<stop  offset="0.64" style="stop-color:#99FF00"/>
						<a:midPointStop  offset="0.36" style="stop-color:#009933"/>
						<a:midPointStop  offset="0.5" style="stop-color:#009933"/>
						<a:midPointStop  offset="0.472" style="stop-color:#33CC33"/>
						<a:midPointStop  offset="0.5" style="stop-color:#33CC33"/>
						<a:midPointStop  offset="0.64" style="stop-color:#99FF00"/>
					</linearGradient>
					<path fill-rule="evenodd" clip-rule="evenodd" fill="url(#XMLID_7_)" d="M57.963,74.895c5.121-3.018,10.241-3.693,13.928-9.769
						c12.087-0.712,28.668,7.939,35.369,5.249c-12.501,18.997-12.159,28.027-8.797,45.099c-3.361-0.033-8.442,8.361-9.161,8.316
						c-6.755-0.422-12.634,0.137-19.719,0.067C62.22,107.759,59.065,91.799,57.963,74.895z"/>
					
						<linearGradient id="XMLID_8_" gradientUnits="userSpaceOnUse" x1="40.7188" y1="128.5371" x2="67.9325" y2="99.354" gradientTransform="matrix(1 0 0 1 14.3774 -10.7061)">
						<stop  offset="0.28" style="stop-color:#009933"/>
						<stop  offset="0.478" style="stop-color:#33CC33"/>
						<stop  offset="0.72" style="stop-color:#99FF00"/>
						<a:midPointStop  offset="0.28" style="stop-color:#009933"/>
						<a:midPointStop  offset="0.5" style="stop-color:#009933"/>
						<a:midPointStop  offset="0.478" style="stop-color:#33CC33"/>
						<a:midPointStop  offset="0.5" style="stop-color:#33CC33"/>
						<a:midPointStop  offset="0.72" style="stop-color:#99FF00"/>
					</linearGradient>
					<path fill-rule="evenodd" clip-rule="evenodd" fill="url(#XMLID_8_)" d="M64.094,88.144c-0.598,0.132-1.812,2.765-1.631,3.45
						c0.188,0.686,1.515,1.56,1.802,1.369c0.287-0.191,1.584-2.522,1.611-2.973C65.91,89.536,64.695,88.013,64.094,88.144
						 M69.638,117.33c-0.607,0.32-1.256,2.991-0.895,3.52c0.368,0.525,2,0.816,2.263,0.554c0.26-0.26,1.068-2.704,0.99-3.104
						C71.921,117.903,70.249,117.012,69.638,117.33 M70.007,123.86c0.074-0.358,0.115-0.646,0.088-0.758
						c-0.054-0.208-0.595-0.522-1.174-0.709c0.218,0.487,0.437,0.976,0.662,1.464C69.723,123.857,69.862,123.86,70.007,123.86
						 M73.399,117.835c-0.604,0.354-1.131,3.012-0.728,3.5c0.399,0.484,2.083,0.647,2.336,0.375c0.249-0.276,0.949-2.717,0.85-3.1
						C75.759,118.228,74.003,117.479,73.399,117.835 M71.266,122.574c-0.242,0.163-0.447,0.692-0.569,1.297
						c1.04,0.014,2.071,0.027,3.096,0.051c0.064-0.403,0.096-0.727,0.054-0.843C73.716,122.717,71.863,122.171,71.266,122.574
						 M67.801,119.778c0.362-0.822,0.819-2.176,0.781-2.473c-0.058-0.399-1.572-1.365-2.215-1.153
						C66.821,117.36,67.303,118.57,67.801,119.778 M67.323,106.062c-0.614,0.242-1.501,2.922-1.208,3.52
						c0.29,0.598,1.815,1.134,2.085,0.901c0.276-0.236,1.294-2.652,1.26-3.079C69.43,106.98,67.931,105.815,67.323,106.062
						 M64.91,110.831c-0.099,0.041-0.208,0.14-0.317,0.289c0.431,1.301,0.877,2.602,1.351,3.902c0.39-0.669,1.135-2.485,1.104-2.848
						C67.016,111.748,65.521,110.588,64.91,110.831 M70.896,107.35c-0.611,0.242-1.501,2.922-1.208,3.522
						c0.293,0.597,1.812,1.129,2.089,0.897c0.273-0.235,1.291-2.652,1.26-3.079C73.007,108.267,71.508,107.104,70.896,107.35
						 M71.389,112.749c-0.611,0.287-1.369,2.963-1.034,3.525c0.334,0.557,1.921,0.956,2.188,0.707
						c0.267-0.253,1.171-2.687,1.112-3.099C73.597,113.473,71.999,112.459,71.389,112.749 M68.326,111.547
						c-0.614,0.243-1.502,2.922-1.208,3.52c0.29,0.598,1.816,1.133,2.089,0.897c0.27-0.231,1.29-2.648,1.26-3.074
						C70.436,112.463,68.935,111.302,68.326,111.547 M63.624,105.092c-0.206,0.109-0.41,0.481-0.577,0.953
						c0.29,1.037,0.597,2.075,0.921,3.113c0.481,0.095,0.946,0.095,1.071-0.037c0.26-0.264,1.049-2.704,0.967-3.1
						C65.924,105.624,64.23,104.765,63.624,105.092 M64.469,94.482c-0.607,0.212-1.601,2.885-1.338,3.513
						c0.26,0.629,1.728,1.264,2.007,1.041c0.279-0.219,1.383-2.621,1.369-3.056C66.494,95.548,65.077,94.274,64.469,94.482
						 M61.889,99.319c-0.137,0.059-0.284,0.236-0.435,0.488c0.305,1.32,0.625,2.636,0.97,3.953c0.181,0.02,0.325,0.011,0.389-0.049
						c0.27-0.235,1.273-2.658,1.239-3.078C64.019,100.207,62.503,99.07,61.889,99.319 M67.869,95.776
						c-0.607,0.249-1.48,2.933-1.181,3.522c0.3,0.594,1.829,1.105,2.103,0.87s1.277-2.658,1.239-3.081
						C69.996,96.664,68.483,95.527,67.869,95.776 M68.613,101.361c-0.607,0.324-1.229,2.993-0.856,3.512
						c0.372,0.52,2.021,0.782,2.276,0.52c0.26-0.267,1.045-2.707,0.963-3.106C70.914,101.89,69.225,101.033,68.613,101.361
						 M65.211,100.315c-0.611,0.305-1.315,2.98-0.967,3.523c0.352,0.542,1.963,0.888,2.226,0.631
						c0.263-0.255,1.12-2.696,1.052-3.099C67.457,100.965,65.822,100.016,65.211,100.315 M61.564,92.591
						c-0.355,0.106-0.874,1.066-1.198,1.974c0.144,0.765,0.293,1.529,0.45,2.29c0.478,0.328,1.036,0.537,1.203,0.414
						c0.28-0.208,1.468-2.581,1.475-3.024C63.5,93.8,62.172,92.417,61.564,92.591 M63.964,82.184
						c-0.601,0.133-1.815,2.765-1.632,3.45c0.185,0.687,1.516,1.558,1.803,1.366c0.287-0.188,1.581-2.52,1.611-2.974
						C65.78,83.576,64.565,82.05,63.964,82.184 M61.042,86.699c-0.461,0.103-1.27,1.652-1.55,2.689
						c0.062,0.41,0.123,0.819,0.191,1.229c0.451,0.549,1.304,1.048,1.525,0.901c0.287-0.191,1.582-2.522,1.616-2.974
						C62.858,88.092,61.639,86.569,61.042,86.699 M67.084,84.259c-0.601,0.134-1.816,2.765-1.631,3.45
						c0.184,0.689,1.512,1.56,1.802,1.369c0.283-0.188,1.577-2.521,1.611-2.973C68.896,85.655,67.685,84.129,67.084,84.259
						 M66.75,90.03c-0.604,0.178-1.693,2.833-1.465,3.49c0.229,0.654,1.635,1.393,1.919,1.185c0.283-0.208,1.471-2.582,1.478-3.026
						C68.688,91.235,67.357,89.854,66.75,90.03"/>
					
						<linearGradient id="XMLID_9_" gradientUnits="userSpaceOnUse" x1="48.3667" y1="128.4502" x2="82.5364" y2="99.7784" gradientTransform="matrix(0.9736 -0.1099 -0.0908 0.9916 26.387 -6.4824)">
						<stop  offset="0.22" style="stop-color:#009933"/>
						<stop  offset="0.472" style="stop-color:#33CC33"/>
						<stop  offset="0.78" style="stop-color:#99FF00"/>
						<a:midPointStop  offset="0.22" style="stop-color:#009933"/>
						<a:midPointStop  offset="0.5" style="stop-color:#009933"/>
						<a:midPointStop  offset="0.472" style="stop-color:#33CC33"/>
						<a:midPointStop  offset="0.5" style="stop-color:#33CC33"/>
						<a:midPointStop  offset="0.78" style="stop-color:#99FF00"/>
					</linearGradient>
					<path fill-rule="evenodd" clip-rule="evenodd" fill="url(#XMLID_9_)" d="M75.353,80.832c-0.885,0.132-2.964,2.761-2.786,3.45
						c0.181,0.686,1.99,1.554,2.428,1.369c0.437-0.191,2.598-2.525,2.696-2.977C77.797,82.221,76.233,80.702,75.353,80.832
						 M79.404,119.996c-0.905,0.427-1.614,3.018-0.99,3.421c0.622,0.406,3.179,0.313,3.554,0.017
						c0.368-0.297,1.352-2.714,1.188-3.064C82.991,120.021,80.309,119.573,79.404,119.996 M79.704,110.019
						c-0.918,0.316-2.188,2.99-1.727,3.516c0.46,0.525,2.781,0.815,3.188,0.553c0.405-0.26,1.88-2.7,1.818-3.099
						C82.923,110.585,80.619,109.7,79.704,110.019 M76.192,115.016c-0.918,0.354-2.008,3.011-1.488,3.493
						c0.515,0.488,2.921,0.651,3.321,0.378c0.396-0.272,1.71-2.717,1.615-3.101C79.545,115.404,77.107,114.657,76.192,115.016
						 M85.066,110.523c-0.917,0.354-2.006,3.007-1.487,3.495c0.515,0.485,2.922,0.651,3.322,0.376c0.396-0.276,1.71-2.717,1.614-3.1
						S85.985,110.165,85.066,110.523 M86.741,115.527c-0.906,0.427-1.616,3.025-0.994,3.429c0.624,0.399,3.182,0.311,3.553,0.013
						c0.376-0.293,1.355-2.714,1.192-3.062C90.328,115.555,87.645,115.104,86.741,115.527 M81.394,115.262
						c-0.91,0.398-1.744,3.02-1.152,3.451c0.59,0.427,3.105,0.424,3.484,0.13c0.379-0.29,1.472-2.718,1.328-3.08
						C84.913,115.404,82.306,114.858,81.394,115.262 M75.056,108.857c-0.92,0.29-2.343,2.97-1.934,3.526
						c0.413,0.56,2.654,0.956,3.07,0.703c0.416-0.246,2.021-2.684,1.99-3.093C78.151,109.581,75.97,108.574,75.056,108.857
						 M77.77,98.746c-0.912,0.245-2.533,2.922-2.186,3.52c0.35,0.598,2.479,1.133,2.902,0.901c0.423-0.236,2.194-2.652,2.201-3.079
						C80.694,99.664,78.681,98.501,77.77,98.746 M73.688,103.518c-0.91,0.243-2.529,2.92-2.181,3.521
						c0.348,0.601,2.476,1.133,2.898,0.897c0.424-0.231,2.198-2.649,2.202-3.076C76.615,104.434,74.602,103.272,73.688,103.518
						 M82.764,100.037c-0.908,0.242-2.53,2.922-2.182,3.519c0.349,0.598,2.475,1.133,2.897,0.897
						c0.427-0.231,2.198-2.648,2.202-3.075C85.691,100.951,83.678,99.787,82.764,100.037 M82.8,105.433
						c-0.917,0.291-2.345,2.968-1.931,3.527c0.412,0.557,2.652,0.955,3.068,0.707c0.413-0.249,2.021-2.687,1.99-3.097
						C85.896,106.157,83.715,105.146,82.8,105.433 M78.53,104.231c-0.911,0.242-2.529,2.923-2.181,3.52
						c0.348,0.602,2.479,1.135,2.9,0.901c0.421-0.235,2.192-2.652,2.202-3.079C81.459,105.146,79.445,103.988,78.53,104.231
						 M72.556,97.777c-0.921,0.327-2.15,2.992-1.683,3.512c0.478,0.519,2.815,0.781,3.223,0.519
						c0.403-0.262,1.844-2.706,1.779-3.103C75.807,98.31,73.471,97.449,72.556,97.777 M75.1,87.17
						c-0.908,0.212-2.67,2.884-2.37,3.51c0.301,0.628,2.337,1.263,2.767,1.044c0.43-0.222,2.321-2.621,2.358-3.056
						C77.889,88.231,76.004,86.958,75.1,87.17 M70.774,92.004c-0.915,0.256-2.506,2.937-2.147,3.526
						c0.361,0.595,2.505,1.106,2.929,0.87c0.42-0.238,2.167-2.658,2.175-3.081C73.73,92.895,71.689,91.755,70.774,92.004
						 M79.845,88.464c-0.911,0.249-2.506,2.933-2.144,3.519c0.358,0.595,2.502,1.109,2.926,0.874
						c0.423-0.235,2.171-2.662,2.171-3.081C82.798,89.352,80.759,88.212,79.845,88.464 M80.224,94.046
						c-0.918,0.328-2.15,2.997-1.68,3.516c0.475,0.516,2.815,0.778,3.219,0.516c0.406-0.266,1.848-2.707,1.778-3.103
						C83.473,94.578,81.142,93.722,80.224,94.046 M75.438,93.003c-0.917,0.301-2.267,2.981-1.83,3.524
						c0.437,0.539,2.719,0.884,3.128,0.628c0.412-0.256,1.952-2.692,1.908-3.1C78.599,93.653,76.356,92.703,75.438,93.003
						 M71.146,85.279c-0.897,0.178-2.8,2.837-2.554,3.488c0.246,0.655,2.188,1.396,2.622,1.188c0.43-0.208,2.443-2.581,2.508-3.028
						C73.788,86.487,72.04,85.102,71.146,85.279 M75.909,74.867c-0.884,0.134-2.964,2.765-2.787,3.454
						c0.182,0.687,1.991,1.558,2.428,1.366c0.438-0.188,2.595-2.52,2.701-2.974C78.353,76.26,76.789,74.737,75.909,74.867
						 M71.123,79.387c-0.885,0.13-2.964,2.766-2.782,3.452c0.177,0.686,1.989,1.556,2.426,1.365
						c0.438-0.188,2.595-2.519,2.697-2.973C73.565,80.781,72.003,79.253,71.123,79.387 M80.146,76.946
						c-0.881,0.134-2.964,2.765-2.782,3.45c0.181,0.688,1.986,1.559,2.427,1.37c0.437-0.191,2.594-2.526,2.696-2.978
						C82.59,78.336,81.028,76.816,80.146,76.946 M78.947,82.716c-0.898,0.177-2.799,2.833-2.554,3.488
						c0.249,0.652,2.188,1.396,2.621,1.185c0.434-0.204,2.448-2.58,2.513-3.021C81.593,83.924,79.845,82.542,78.947,82.716"/>
				</g>
				
					<linearGradient id="XMLID_10_" gradientUnits="userSpaceOnUse" x1="47.311" y1="102.0107" x2="93.555" y2="92.1813" gradientTransform="matrix(1 0 0 1 12.7646 -14.4238)">
					<stop  offset="0.13" style="stop-color:#006633"/>
					<stop  offset="0.4852" style="stop-color:#33CC33"/>
					<stop  offset="0.87" style="stop-color:#99FF00"/>
					<a:midPointStop  offset="0.13" style="stop-color:#006633"/>
					<a:midPointStop  offset="0.5" style="stop-color:#006633"/>
					<a:midPointStop  offset="0.4852" style="stop-color:#33CC33"/>
					<a:midPointStop  offset="0.5" style="stop-color:#33CC33"/>
					<a:midPointStop  offset="0.87" style="stop-color:#99FF00"/>
				</linearGradient>
				<path fill-rule="evenodd" clip-rule="evenodd" fill="url(#XMLID_10_)" d="M58.458,75.144c5.125-3.014,10.245-3.696,13.931-9.772
					c12.088-0.711,28.669,7.939,35.365,5.257c-6.389,9.704-9.063,19.222-9.701,28.486c-0.253-0.528-0.472-1.033-0.646-1.525
					c-3.557-9.818-4.116-17.321-8.188-21.875c-4.073-4.554-7.422-5.482-13.149-1.986c-4.845,2.959-12.699,8.5-16.039,16.204
					C59.287,85.064,58.785,80.148,58.458,75.144z"/>
				
					<linearGradient id="XMLID_11_" gradientUnits="userSpaceOnUse" x1="49.8032" y1="71.918" x2="100.0642" y2="79.8785" gradientTransform="matrix(1 0 0 1 15.0498 -15.8262)">
					<stop  offset="0.04" style="stop-color:#009933"/>
					<stop  offset="0.316" style="stop-color:#33CC33"/>
					<stop  offset="0.96" style="stop-color:#99FF00"/>
					<a:midPointStop  offset="0.04" style="stop-color:#009933"/>
					<a:midPointStop  offset="0.5" style="stop-color:#009933"/>
					<a:midPointStop  offset="0.316" style="stop-color:#33CC33"/>
					<a:midPointStop  offset="0.5" style="stop-color:#33CC33"/>
					<a:midPointStop  offset="0.96" style="stop-color:#99FF00"/>
				</linearGradient>
				<path fill-rule="evenodd" clip-rule="evenodd" fill="url(#XMLID_11_)" d="M66.445,70.246c3.035-0.8,6.019-2.561,7.432-11.088
					c8.322-2.479,23.998,8.671,38.514,7.292c4.447-5.593,4.444-10.912,2.424-16.1c-4.773,1.802-13.768-0.628-21.685-1.98
					c-6.314-1.57-12.634-3.141-18.953-4.704c-2.676,2.479-5.354,4.957-8.034,7.441C66.244,57.484,66.348,63.868,66.445,70.246z"/>
				
					<linearGradient id="XMLID_12_" gradientUnits="userSpaceOnUse" x1="55.2925" y1="82.3916" x2="95.2001" y2="87.2916" gradientTransform="matrix(1 0 0 1 17.0566 -19.1318)">
					<stop  offset="0.16" style="stop-color:#FFFF66"/>
					<stop  offset="0.84" style="stop-color:#FFFFFF"/>
					<a:midPointStop  offset="0.16" style="stop-color:#FFFF66"/>
					<a:midPointStop  offset="0.5" style="stop-color:#FFFF66"/>
					<a:midPointStop  offset="0.84" style="stop-color:#FFFFFF"/>
				</linearGradient>
				<path fill-rule="evenodd" clip-rule="evenodd" fill="url(#XMLID_12_)" d="M73.461,58.686l-1.362,7.21
					c2.438-0.123,5.002,0,7.442-0.123c7.794,1.379,14.419,3.571,21.462,5.714c5.079-0.333,8.892-2.108,11.661-5.092L73.461,58.686z"
					/>
				
					<linearGradient id="XMLID_13_" gradientUnits="userSpaceOnUse" x1="57.1592" y1="77.3184" x2="96.4483" y2="84.9554" gradientTransform="matrix(1 0 0 1 17.0923 -19.7354)">
					<stop  offset="0.09" style="stop-color:#99FF00"/>
					<stop  offset="0.7132" style="stop-color:#FFFF99"/>
					<stop  offset="0.91" style="stop-color:#FFFFCC"/>
					<a:midPointStop  offset="0.09" style="stop-color:#99FF00"/>
					<a:midPointStop  offset="0.5" style="stop-color:#99FF00"/>
					<a:midPointStop  offset="0.7132" style="stop-color:#FFFF99"/>
					<a:midPointStop  offset="0.5" style="stop-color:#FFFF99"/>
					<a:midPointStop  offset="0.91" style="stop-color:#FFFFCC"/>
				</linearGradient>
				<path fill-rule="evenodd" clip-rule="evenodd" fill="url(#XMLID_13_)" d="M73.587,56.576c6.408-2.915,26.464,6.425,40.814,5.722
					c-0.372,2.069-1.864,3.77-3.227,4.848c-12.985,0.205-26.589-8.418-37.96-6.965C73.338,58.98,73.461,57.778,73.587,56.576z"/>
				
					<linearGradient id="XMLID_14_" gradientUnits="userSpaceOnUse" x1="40.5117" y1="68.9453" x2="87.1045" y2="68.9453" gradientTransform="matrix(1 0 0 1 15.6763 -20.668)">
					<stop  offset="0.18" style="stop-color:#006633"/>
					<stop  offset="0.436" style="stop-color:#009933"/>
					<stop  offset="0.82" style="stop-color:#99FF00"/>
					<a:midPointStop  offset="0.18" style="stop-color:#006633"/>
					<a:midPointStop  offset="0.5" style="stop-color:#006633"/>
					<a:midPointStop  offset="0.436" style="stop-color:#009933"/>
					<a:midPointStop  offset="0.5" style="stop-color:#009933"/>
					<a:midPointStop  offset="0.82" style="stop-color:#99FF00"/>
				</linearGradient>
				<path fill-rule="evenodd" clip-rule="evenodd" fill="url(#XMLID_14_)" d="M68.634,53.32c1.127-2.021-1.536-5.503,4.745-6.056
					c6.285-0.56,19.147,2.021,29.402,3.031c-16.615-3.12-32.294-10.172-46.593-5.523C61.999,46.999,65.486,50.098,68.634,53.32z"/>
				
					<linearGradient id="XMLID_15_" gradientUnits="userSpaceOnUse" x1="55.082" y1="61.8882" x2="91.2002" y2="67.6087" gradientTransform="matrix(1 0 0 1 15.6846 -26.2227)">
					<stop  offset="0.05" style="stop-color:#009933"/>
					<stop  offset="0.32" style="stop-color:#33CC33"/>
					<stop  offset="0.95" style="stop-color:#99FF00"/>
					<a:midPointStop  offset="0.05" style="stop-color:#009933"/>
					<a:midPointStop  offset="0.5" style="stop-color:#009933"/>
					<a:midPointStop  offset="0.32" style="stop-color:#33CC33"/>
					<a:midPointStop  offset="0.5" style="stop-color:#33CC33"/>
					<a:midPointStop  offset="0.95" style="stop-color:#99FF00"/>
				</linearGradient>
				<path fill-rule="evenodd" clip-rule="evenodd" fill="url(#XMLID_15_)" d="M69.118,34.02c1.979,4.233,5.999,6.848,12.895,10.971
					c7.83,2.171,15.664,4.342,23.5,6.513c0.985-0.915,1.976-1.829,2.965-2.744c-6.54-4.643-13.08-9.292-19.621-13.941
					c-4.756-2.82-9.735-6.097-14.486-8.917C71.46,26.687,69.9,29.274,69.118,34.02z"/>
				
					<linearGradient id="XMLID_16_" gradientUnits="userSpaceOnUse" x1="49.8208" y1="69.6797" x2="94.0846" y2="52.6884" gradientTransform="matrix(1 0 0 1 22.8418 -21.9404)">
					<stop  offset="0.28" style="stop-color:#006633"/>
					<stop  offset="0.456" style="stop-color:#009933"/>
					<stop  offset="0.72" style="stop-color:#99FF00"/>
					<a:midPointStop  offset="0.28" style="stop-color:#006633"/>
					<a:midPointStop  offset="0.5" style="stop-color:#006633"/>
					<a:midPointStop  offset="0.456" style="stop-color:#009933"/>
					<a:midPointStop  offset="0.5" style="stop-color:#009933"/>
					<a:midPointStop  offset="0.72" style="stop-color:#99FF00"/>
				</linearGradient>
				<path fill-rule="evenodd" clip-rule="evenodd" fill="url(#XMLID_16_)" d="M93.684,48.869c6.039,1.407,14.306,3.878,18.112,4.227
					c3.807,0.348,3.616-0.355,3.722-2.233c-4.318-7.735-20.65-12.631-29.276-20.141c-1.14-2.847,13.802,3.325,29.026,7.708
					c-13.23-3.987-30.088-15.812-39.242-13.327c-1.769,0.819-4.098,1.85,1.033,5.872c5.135,4.021,23.026,11.504,28.04,16.904
					C110.109,53.273,97.489,48.541,93.684,48.869z"/>
				
					<linearGradient id="XMLID_17_" gradientUnits="userSpaceOnUse" x1="53.2837" y1="65.4424" x2="62.8965" y2="66.6227" gradientTransform="matrix(1 0 0 1 15.6641 -25.5439)">
					<stop  offset="0.17" style="stop-color:#FFFF66"/>
					<stop  offset="0.83" style="stop-color:#FFFFFF"/>
					<a:midPointStop  offset="0.17" style="stop-color:#FFFF66"/>
					<a:midPointStop  offset="0.5" style="stop-color:#FFFF66"/>
					<a:midPointStop  offset="0.83" style="stop-color:#FFFFFF"/>
				</linearGradient>
				<path fill-rule="evenodd" clip-rule="evenodd" fill="url(#XMLID_17_)" d="M68.593,36.272c0.126,2.301,0.253,4.603,0.382,6.896
					c3.315,0.512,6.631,1.024,9.944,1.536C75.592,41.215,72.267,37.692,68.593,36.272z"/>
				
					<linearGradient id="XMLID_18_" gradientUnits="userSpaceOnUse" x1="57.1226" y1="64.4258" x2="63.2812" y2="68.5799" gradientTransform="matrix(1 0 0 1 15.8477 -26.6807)">
					<stop  offset="0.01" style="stop-color:#99FF00"/>
					<stop  offset="0.7548" style="stop-color:#FFFF99"/>
					<stop  offset="0.99" style="stop-color:#FFFFCC"/>
					<a:midPointStop  offset="0.01" style="stop-color:#99FF00"/>
					<a:midPointStop  offset="0.5" style="stop-color:#99FF00"/>
					<a:midPointStop  offset="0.7548" style="stop-color:#FFFF99"/>
					<a:midPointStop  offset="0.5" style="stop-color:#FFFF99"/>
					<a:midPointStop  offset="0.99" style="stop-color:#FFFFCC"/>
				</linearGradient>
				<path fill-rule="evenodd" clip-rule="evenodd" fill="url(#XMLID_18_)" d="M69.351,32.189c2.823,5.004,8.274,9.395,15.058,13.484
					c-2.283-0.341-3.536-0.683-5.82-1.024c-5.172-3.011-7.603-5.906-9.694-8.691C69.044,34.702,69.197,33.445,69.351,32.189z"/>
				<g>
					<g>
						<path fill-rule="evenodd" clip-rule="evenodd" fill="#003333" d="M19.002,68.826c1.052,1.651,1.689,3.474,3.783,4.532
							c2.092,1.051,5.288,1.993,7.766,2.191c2.478,0.194,3.673-1.55,6.919-1.355c3.247,0.195,9.046,1.827,12.907,1.867
							c3.858,0.038,7.312-0.853,10.009-1.638c2.701-0.785,4.442-1.059,6.233-3.734c1.797-2.669,3.626-7.531,3.783-11.204
							c0.156-3.674-1.011-6.213-3.113-8.869c-2.103-2.656-6.469-5.107-8.903-6.309c-2.431-1.188-3.288-0.15-5.339-0.696
							c-2.051-0.546-4.363-2.41-6.899-2.567c-2.537-0.164-5.421,0.724-7.787,1.632c-2.369,0.907-4.471,2.915-6.233,3.735
							c-1.754,0.826-3.229,0.122-4.226,1.167c-0.998,1.051-0.273,2.99-0.888,4.198c-0.618,1.223-1.683,1.373-2.669,1.912
							c-0.99,0.532-1.898,0.724-2.894,1.126c-0.998,0.403-2.039,0.635-2.896,2.103c-0.853,1.468-2.079,4.172-2,6.302
							C16.637,65.351,17.951,67.167,19.002,68.826z"/>
						<path fill-rule="evenodd" clip-rule="evenodd" fill="#003333" d="M65.549,69.897c5.305-1.638,8.188-5.94,7.058-20.284
							c3.351,11.524,0.939,20.871-7.762,22.755C65.139,71.604,65.254,70.662,65.549,69.897z"/>
						<path fill-rule="evenodd" clip-rule="evenodd" fill="#003333" d="M58.85,45.202c9.368-4.703,32.465,4.964,49.916,5.824
							c-18.082-1.755-33.007-12.835-53.09-7.06C56.966,44.5,57.553,44.677,58.85,45.202z"/>
						<path fill-rule="evenodd" clip-rule="evenodd" fill="#003333" d="M67.842,42.383c-0.116-6.001-0.382-17.389,10.231-18.167
							c10.613-0.785,25.281,10.938,40.038,14.46c-16.167-2.055-29.479-14.003-39.509-13.047c-10.03,0.949-9.583,10.343-8.818,17.635
							C69.139,42.97,68.491,42.677,67.842,42.383z"/>
						<path fill-rule="evenodd" clip-rule="evenodd" fill="#003333" d="M57.437,74.481c-0.737,16.393,4.562,34.015,11.819,47.621
							c-5.295-14.023-10.645-33.721-9.347-48.676C59.082,73.897,58.259,74.014,57.437,74.481z"/>
						<path fill-rule="evenodd" clip-rule="evenodd" fill="#003333" d="M110.232,68.703c-12.139,18.129-12.105,29.243-11.399,46.578
							c-1.707-12.009-4.91-23.964,7.351-44.326C107.13,70.369,109.29,69.289,110.232,68.703z"/>
					</g>
					<path fill-rule="evenodd" clip-rule="evenodd" fill="#003333" d="M71.549,67.071c3.176-0.348,5.009-0.655,10.405,0.177
						c5.397,0.834,15.379,5.285,21.52,4.766c6.138-0.526,9.6-4.212,11.463-8.821c1.865-4.609,4.002-9.661-1.409-16.051
						c-5.415-6.39-22.52-11.641-28.75-18.522c3.232,7.878,21.274,12.569,26.633,18.877c5.357,6.301,3.834,10.609,2.292,14.815
						c-1.543,4.2-4.812,7.435-10.583,7.756c-5.773,0.328-15.802-3.898-20.987-4.759c-5.186-0.867-6.763-0.649-9.702-0.355
						C72.136,65.665,71.843,66.368,71.549,67.071z"/>
				</g>
				<g>
					<g>
						
							<linearGradient id="XMLID_19_" gradientUnits="userSpaceOnUse" x1="65.7139" y1="71.5664" x2="17.9946" y2="80.8421" gradientTransform="matrix(1 0 0 1 2.0083 -16.5264)">
							<stop  offset="0.33" style="stop-color:#FFFF66"/>
							<stop  offset="0.67" style="stop-color:#FFFFFF"/>
							<a:midPointStop  offset="0.33" style="stop-color:#FFFF66"/>
							<a:midPointStop  offset="0.5" style="stop-color:#FFFF66"/>
							<a:midPointStop  offset="0.67" style="stop-color:#FFFFFF"/>
						</linearGradient>
						<path fill-rule="evenodd" clip-rule="evenodd" fill="url(#XMLID_19_)" d="M20.856,67.802c0.976,1.468,1.57,3.079,3.516,4.015
							c1.939,0.935,4.909,1.774,7.209,1.945c2.301,0.177,3.411-1.373,6.425-1.201c3.018,0.177,8.401,1.621,11.982,1.655
							c3.585,0.034,6.793-0.755,9.299-1.451c2.506-0.696,4.125-0.936,5.787-3.311c1.665-2.369,3.365-6.678,3.512-9.935
							c0.144-3.257-0.941-5.51-2.895-7.865c-1.952-2.355-6.001-4.526-8.261-5.592c-2.26-1.058-3.055-0.13-4.959-0.621
							c-1.905-0.485-4.049-2.13-6.408-2.273c-2.356-0.143-5.032,0.642-7.231,1.447c-2.198,0.805-4.15,2.581-5.782,3.312
							s-3,0.109-3.925,1.038c-0.929,0.928-0.253,2.649-0.826,3.722c-0.573,1.078-1.564,2.006-2.479,2.484
							c-0.918,0.478-1.761-0.15-2.689,0.211c-0.925,0.355-1.891,0.56-2.684,1.857c-0.795,1.304-1.932,3.702-1.86,5.592
							C18.658,64.722,19.88,66.334,20.856,67.802z"/>
						
							<linearGradient id="XMLID_20_" gradientUnits="userSpaceOnUse" x1="60.4438" y1="69.9141" x2="22.2347" y2="92.8724" gradientTransform="matrix(1 0 0 1 1.686 -18.7188)">
							<stop  offset="0.2" style="stop-color:#99FF00"/>
							<stop  offset="0.62" style="stop-color:#FFFF99"/>
							<stop  offset="0.8" style="stop-color:#FFFFCC"/>
							<a:midPointStop  offset="0.2" style="stop-color:#99FF00"/>
							<a:midPointStop  offset="0.5" style="stop-color:#99FF00"/>
							<a:midPointStop  offset="0.62" style="stop-color:#FFFF99"/>
							<a:midPointStop  offset="0.5" style="stop-color:#FFFF99"/>
							<a:midPointStop  offset="0.8" style="stop-color:#FFFFCC"/>
						</linearGradient>
						<path fill-rule="evenodd" clip-rule="evenodd" fill="url(#XMLID_20_)" d="M19.729,60.134c0.58,0.785,0.587,1.864,1.741,2.362
							c1.15,0.498,3.127-0.484,4.587,0.376c1.462,0.853,1.482,3.489,3.476,4.35c1.99,0.86,5.435,0.519,7.442,0.368
							c2.007-0.143,2.536-0.928,4.465-1.242c1.932-0.308,4.513-0.703,7.073-0.621c2.558,0.089,12.671,0.123,8.309,1.74
							c-4.359,1.618-12.866,3.175-19.24,5.079c0.137,0-0.365-0.027,0.423,0.015c0.792,0.047,3.407,0.457,5.465,0.825
							c4.452-1.311,10.006-3.105,13.351-3.925c3.352-0.826,4.464-0.669,6.701-0.997c0.707,0.034,1.417,0.068,2.12,0.103
							c0.444-0.744,0.874-1.598,1.263-2.513l0.51-1.653c-0.021,0.007-0.042,0.007-0.059,0.014c-0.048,0.007-0.096,0.015-0.137,0.021
							c-0.023,0.008-0.041,0.014-0.061,0.014c-0.049,0.007-0.093,0.014-0.137,0.027c-4.069,0.738-9.221,0.499-12.802-1.604
							c-3.018-1.775-1.266-0.157-2.731-5.347c-1.994-5.632-7.545-4.178-9.439-0.451c-0.041,0.15-0.078,0.293-0.113,0.451
							c-0.266,1.216-0.628,2.021-1.044,2.52c-0.792,1.126-1.926,0.846-3.059,0.321c-0.779-0.341-1.543-0.805-2.188-1.017
							c-0.004-0.007-0.004-0.007-0.004-0.007c-0.031-0.007-0.062-0.021-0.095-0.027c-0.031-0.007-0.062-0.014-0.096-0.027
							c-0.031-0.007-0.062-0.014-0.089-0.021c-1.973-0.417-3.769-0.984-5.584-0.875c-1.816,0.116-3.162,1.162-4.342,1.497
							c-1.182,0.334-1.734-0.417-2.604-0.622l-0.745-3.107l-0.112-0.321c-0.027-0.096,0.164-0.082,0.259-0.116
							c0.003,0,0.007,0,0.01-0.007h-0.01c-0.611,0.26-1.215,0.622-1.741,1.448L19.729,60.134 M22.246,55.716"/>
						
							<linearGradient id="XMLID_21_" gradientUnits="userSpaceOnUse" x1="18.0688" y1="85.7402" x2="54.009" y2="83.8567" gradientTransform="matrix(1 0 0 1 1.9185 -16.8857)">
							<stop  offset="0.09" style="stop-color:#336666"/>
							<stop  offset="0.91" style="stop-color:#FFFFFF"/>
							<a:midPointStop  offset="0.09" style="stop-color:#336666"/>
							<a:midPointStop  offset="0.5" style="stop-color:#336666"/>
							<a:midPointStop  offset="0.91" style="stop-color:#FFFFFF"/>
						</linearGradient>
						<path fill-rule="evenodd" clip-rule="evenodd" fill="url(#XMLID_21_)" d="M19.996,66.539c0.403,0.185,1.1,0.512,1.762,0.308
							c0.666-0.212,1.018-1.852,2.321-1.413c1.297,0.443,1.83,2.996,3.861,3.761s4.435,0.724,6.292,0.553
							c1.857-0.17,1.079-1.215,4.523-1.549c3.445-0.335,17.13-1.325,17.215-0.444c0.088,0.881-13.409,1.353-16.775,1.877
							c-3.365,0.52-2.549,1.468-4.526,1.659c-1.974,0.185-4.848-0.041-6.95-0.703c-2.103-0.655-2.301-2.622-3.639-2.955
							c-1.345-0.329-1.843,0.743-2.836,1.256C21.095,68.19,20.143,67.242,19.996,66.539z"/>
						
							<linearGradient id="XMLID_22_" gradientUnits="userSpaceOnUse" x1="-16.1367" y1="72.6104" x2="-18.6045" y2="76.269" gradientTransform="matrix(1 0 0 1 55.5591 -15.874)">
							<stop  offset="0.11" style="stop-color:#33CC33"/>
							<stop  offset="0.89" style="stop-color:#99FF00"/>
							<a:midPointStop  offset="0.11" style="stop-color:#33CC33"/>
							<a:midPointStop  offset="0.5" style="stop-color:#33CC33"/>
							<a:midPointStop  offset="0.89" style="stop-color:#99FF00"/>
						</linearGradient>
						<path fill-rule="evenodd" clip-rule="evenodd" fill="url(#XMLID_22_)" d="M33.896,58.933c0.014,0,0.028,0.007,0.042,0.007
							c0.467,0.109,0.942,0.225,1.426,0.328c1.973,0.416,5.592,3.898,6.698-0.752c0.123-0.505,0.304-0.99,0.532-1.447
							c0.082-0.164,0.171-0.321,0.267-0.471c-1.307,0.505-2.567,0.982-3.755,1.283C37.174,58.372,35.508,58.665,33.896,58.933z"/>
						
							<linearGradient id="XMLID_23_" gradientUnits="userSpaceOnUse" x1="13.0571" y1="71.7939" x2="-6.2655" y2="78.4473" gradientTransform="matrix(1 0 0 1 55.5591 -15.874)">
							<stop  offset="0.06" style="stop-color:#33CC33"/>
							<stop  offset="0.94" style="stop-color:#99FF00"/>
							<a:midPointStop  offset="0.06" style="stop-color:#33CC33"/>
							<a:midPointStop  offset="0.5" style="stop-color:#33CC33"/>
							<a:midPointStop  offset="0.94" style="stop-color:#99FF00"/>
						</linearGradient>
						<path fill-rule="evenodd" clip-rule="evenodd" fill="url(#XMLID_23_)" d="M49.35,54.467c0.546-0.109,1.096-0.198,1.646-0.246
							c4.215-0.368,9.213,2.096,12.88,1.489c1.447-0.239,2.573-0.806,3.57-1.502c0.819,1.557,1.232,3.223,1.14,5.312
							c-0.068,1.495-0.464,3.208-1.034,4.854c-4.14,0.854-10.21,0.444-13.951-1.754c-2.332-1.372-1.079-3.318-2.11-5.094
							c-0.31-0.881-0.703-1.584-1.144-2.13C50.036,55.006,49.702,54.699,49.35,54.467z"/>
						
							<linearGradient id="XMLID_24_" gradientUnits="userSpaceOnUse" x1="9.0254" y1="61.9917" x2="-32.0993" y2="74.5648" gradientTransform="matrix(1 0 0 1 55.5591 -15.874)">
							<stop  offset="0.21" style="stop-color:#009933"/>
							<stop  offset="0.442" style="stop-color:#33CC33"/>
							<stop  offset="0.79" style="stop-color:#99FF00"/>
							<a:midPointStop  offset="0.21" style="stop-color:#009933"/>
							<a:midPointStop  offset="0.5" style="stop-color:#009933"/>
							<a:midPointStop  offset="0.442" style="stop-color:#33CC33"/>
							<a:midPointStop  offset="0.5" style="stop-color:#33CC33"/>
							<a:midPointStop  offset="0.79" style="stop-color:#99FF00"/>
						</linearGradient>
						<path fill-rule="evenodd" clip-rule="evenodd" fill="url(#XMLID_24_)" d="M22.088,56.153l0.745,3.114
							c0.215,0.048-1.287,4.294-1.096,4.41c0.184,0.116,2.068-3.891,2.28-3.897c1.284-0.048,3.591,5.564,3.489,5.571
							c-0.304,0.007-1.468-5.681-1.148-5.824c0.963-0.437,2.062-1.052,3.421-1.134c1.358-0.082,2.7,0.211,4.117,0.541
							c1.611-0.268,3.277-0.561,5.209-1.053c1.188-0.3,2.448-0.778,3.755-1.283c1.468-2.376,4.308-3.604,6.489-2.13
							c0.546-0.109,1.096-0.198,1.646-0.246c4.215-0.368,9.213,2.096,12.88,1.489c1.447-0.239,2.573-0.806,3.57-1.502
							c-0.396-0.744-0.888-1.467-1.461-2.198c-0.096-0.116-0.191-0.239-0.294-0.355c-1.949-2.355-6.001-4.526-8.261-5.592
							c-2.26-1.058-3.055-0.136-4.959-0.621c-1.905-0.485-4.049-2.13-6.408-2.273c-2.356-0.143-5.032,0.642-7.231,1.447
							c-2.194,0.805-4.15,2.581-5.782,3.312s-3,0.109-3.925,1.038c-0.929,0.928-0.253,2.649-0.826,3.722
							c-0.573,1.078-1.564,2.006-2.479,2.484c-0.918,0.478-1.761-0.15-2.689,0.211c-0.383,0.144-0.771,0.267-1.154,0.451
							L22.088,56.153z"/>
						
							<linearGradient id="XMLID_25_" gradientUnits="userSpaceOnUse" x1="41.1035" y1="72.1836" x2="24.5752" y2="76.3046" gradientTransform="matrix(1 0 0 1 4.377 -21.7188)">
							<stop  offset="0.23" style="stop-color:#33CC33"/>
							<stop  offset="0.77" style="stop-color:#CCFF66"/>
							<a:midPointStop  offset="0.23" style="stop-color:#33CC33"/>
							<a:midPointStop  offset="0.5" style="stop-color:#33CC33"/>
							<a:midPointStop  offset="0.77" style="stop-color:#CCFF66"/>
						</linearGradient>
						<path fill-rule="evenodd" clip-rule="evenodd" fill="url(#XMLID_25_)" d="M29.138,49.647
							c-0.089,0.294-0.062,2.165-0.362,2.779c-0.304,0.615,4.246,0.027,6.284,0.724c2.038,0.703,4.229,4.573,5.684,3.386
							c1.455-1.188,6.486-2.758,5.196-3.871c-1.291-1.106-6.855-0.342-9.668-0.847C33.453,51.313,29.227,49.347,29.138,49.647z"/>
						
							<linearGradient id="XMLID_26_" gradientUnits="userSpaceOnUse" x1="50.582" y1="70.9971" x2="31.6544" y2="76.7838" gradientTransform="matrix(1 0.0721 0 0.8449 11.3203 -14.1697)">
							<stop  offset="0.21" style="stop-color:#009933"/>
							<stop  offset="0.442" style="stop-color:#33CC33"/>
							<stop  offset="0.79" style="stop-color:#99FF00"/>
							<a:midPointStop  offset="0.21" style="stop-color:#009933"/>
							<a:midPointStop  offset="0.5" style="stop-color:#009933"/>
							<a:midPointStop  offset="0.442" style="stop-color:#33CC33"/>
							<a:midPointStop  offset="0.5" style="stop-color:#33CC33"/>
							<a:midPointStop  offset="0.79" style="stop-color:#99FF00"/>
						</linearGradient>
						<path fill-rule="evenodd" clip-rule="evenodd" fill="url(#XMLID_26_)" d="M53.409,47.019
							c-3.209,0.027-10.098,1.448-11.654,2.717c-1.553,1.263,7.544,2.109,10.685,2.546c3.14,0.431,8.963,2.99,9.466,0.273
							C62.408,49.838,56.618,46.992,53.409,47.019z"/>
						
							<linearGradient id="XMLID_27_" gradientUnits="userSpaceOnUse" x1="34.519" y1="78.6484" x2="24.6076" y2="81.1196" gradientTransform="matrix(1 0 0 1 4.1958 -18.5322)">
							<stop  offset="0" style="stop-color:#85DE00"/>
							<stop  offset="0.5" style="stop-color:#FFFF99"/>
							<stop  offset="1" style="stop-color:#FFFFCC"/>
							<a:midPointStop  offset="0" style="stop-color:#85DE00"/>
							<a:midPointStop  offset="0.5" style="stop-color:#85DE00"/>
							<a:midPointStop  offset="0.5" style="stop-color:#FFFF99"/>
							<a:midPointStop  offset="0.5" style="stop-color:#FFFF99"/>
							<a:midPointStop  offset="1" style="stop-color:#FFFFCC"/>
						</linearGradient>
						<path fill-rule="evenodd" clip-rule="evenodd" fill="url(#XMLID_27_)" d="M28.503,60.783
							c-0.819,1.235,4.321,1.549,6.186,1.597c1.867,0.055,4.669,1.434,3.994-0.198s-4.533-3.332-5.588-3.195
							C32.043,59.124,29.322,59.547,28.503,60.783z"/>
						
							<linearGradient id="XMLID_28_" gradientUnits="userSpaceOnUse" x1="25.5928" y1="82.7412" x2="21.5575" y2="83.7473" gradientTransform="matrix(0.8673 0 0 0.8673 11.1006 -7.4709)">
							<stop  offset="0" style="stop-color:#85DE00"/>
							<stop  offset="0.5" style="stop-color:#FFFF99"/>
							<stop  offset="1" style="stop-color:#FFFFCC"/>
							<a:midPointStop  offset="0" style="stop-color:#85DE00"/>
							<a:midPointStop  offset="0.5" style="stop-color:#85DE00"/>
							<a:midPointStop  offset="0.5" style="stop-color:#FFFF99"/>
							<a:midPointStop  offset="0.5" style="stop-color:#FFFF99"/>
							<a:midPointStop  offset="1" style="stop-color:#FFFFCC"/>
						</linearGradient>
						<path fill-rule="evenodd" clip-rule="evenodd" fill="url(#XMLID_28_)" d="M30.101,62.66c0.235,0.648,0.666,2.746,0.525,3.879
							c-0.144,1.14,1.85,0.601,2.307-0.314c0.458-0.908,0.042-1.857-0.525-2.725C31.841,62.632,29.868,62.012,30.101,62.66z"/>
						
							<linearGradient id="XMLID_29_" gradientUnits="userSpaceOnUse" x1="27.5752" y1="82.7412" x2="23.5399" y2="83.7473" gradientTransform="matrix(0.8673 0 0.1969 0.8673 -3.8214 -7.4709)">
							<stop  offset="0" style="stop-color:#85DE00"/>
							<stop  offset="0.5" style="stop-color:#FFFF99"/>
							<stop  offset="1" style="stop-color:#FFFFCC"/>
							<a:midPointStop  offset="0" style="stop-color:#85DE00"/>
							<a:midPointStop  offset="0.5" style="stop-color:#85DE00"/>
							<a:midPointStop  offset="0.5" style="stop-color:#FFFF99"/>
							<a:midPointStop  offset="0.5" style="stop-color:#FFFF99"/>
							<a:midPointStop  offset="1" style="stop-color:#FFFFCC"/>
						</linearGradient>
						<path fill-rule="evenodd" clip-rule="evenodd" fill="url(#XMLID_29_)" d="M32.824,62.66c0.379,0.648,1.284,2.746,1.4,3.879
							c0.123,1.14,1.986,0.601,2.239-0.314c0.249-0.908-0.382-1.857-1.147-2.725C34.559,62.632,32.442,62.012,32.824,62.66z"/>
						
							<linearGradient id="XMLID_30_" gradientUnits="userSpaceOnUse" x1="26.3599" y1="83.0098" x2="22.3981" y2="83.8519" gradientTransform="matrix(0.7345 -0.0209 0.1877 0.7297 4.7347 4.6306)">
							<stop  offset="0" style="stop-color:#85DE00"/>
							<stop  offset="0.5" style="stop-color:#FFFF99"/>
							<stop  offset="1" style="stop-color:#FFFFCC"/>
							<a:midPointStop  offset="0" style="stop-color:#85DE00"/>
							<a:midPointStop  offset="0.5" style="stop-color:#85DE00"/>
							<a:midPointStop  offset="0.5" style="stop-color:#FFFF99"/>
							<a:midPointStop  offset="0.5" style="stop-color:#FFFF99"/>
							<a:midPointStop  offset="1" style="stop-color:#FFFFCC"/>
						</linearGradient>
						<path fill-rule="evenodd" clip-rule="evenodd" fill="url(#XMLID_30_)" d="M36.62,63.274c0.342,0.539,1.161,2.295,1.284,3.25
							c0.13,0.963,1.7,0.465,1.889-0.313c0.188-0.777-0.366-1.564-1.035-2.288C38.092,63.213,36.286,62.735,36.62,63.274z"/>
						
							<linearGradient id="XMLID_31_" gradientUnits="userSpaceOnUse" x1="26.8325" y1="74.0908" x2="24.0282" y2="73.7961" gradientTransform="matrix(0.6018 -0.2128 0.3495 0.5534 -0.5758 27.9815)">
							<stop  offset="0" style="stop-color:#85DE00"/>
							<stop  offset="0.5" style="stop-color:#FFFF99"/>
							<stop  offset="1" style="stop-color:#FFFFCC"/>
							<a:midPointStop  offset="0" style="stop-color:#85DE00"/>
							<a:midPointStop  offset="0.5" style="stop-color:#85DE00"/>
							<a:midPointStop  offset="0.5" style="stop-color:#FFFF99"/>
							<a:midPointStop  offset="0.5" style="stop-color:#FFFF99"/>
							<a:midPointStop  offset="1" style="stop-color:#FFFFCC"/>
						</linearGradient>
						<path fill-rule="evenodd" clip-rule="evenodd" fill="url(#XMLID_31_)" d="M38.682,62.353c0.423,0.354,1.567,1.583,1.929,2.341
							c0.362,0.766,1.526-0.068,1.471-0.765c-0.047-0.696-0.717-1.194-1.461-1.611C39.881,61.902,38.259,61.991,38.682,62.353z"/>
						
							<linearGradient id="XMLID_32_" gradientUnits="userSpaceOnUse" x1="98.9258" y1="101.7295" x2="101.6412" y2="97.2103" gradientTransform="matrix(-0.533 -0.2128 -0.174 0.5534 92.2149 27.3584)">
							<stop  offset="0" style="stop-color:#85DE00"/>
							<stop  offset="0.5" style="stop-color:#FFFF99"/>
							<stop  offset="1" style="stop-color:#FFFFCC"/>
							<a:midPointStop  offset="0" style="stop-color:#85DE00"/>
							<a:midPointStop  offset="0.5" style="stop-color:#85DE00"/>
							<a:midPointStop  offset="0.5" style="stop-color:#FFFF99"/>
							<a:midPointStop  offset="0.5" style="stop-color:#FFFF99"/>
							<a:midPointStop  offset="1" style="stop-color:#FFFFCC"/>
						</linearGradient>
						<path fill-rule="evenodd" clip-rule="evenodd" fill="url(#XMLID_32_)" d="M22.662,60.175
							c-0.273,0.354-0.959,1.583-1.099,2.348c-0.143,0.758-1.26-0.075-1.356-0.771c-0.095-0.689,0.349-1.195,0.868-1.611
							C21.601,59.731,22.939,59.82,22.662,60.175z"/>
						
							<linearGradient id="XMLID_33_" gradientUnits="userSpaceOnUse" x1="112.5176" y1="104.1523" x2="115.2305" y2="99.6372" gradientTransform="matrix(-0.3857 -0.2128 -0.224 0.5534 87.3038 26.7363)">
							<stop  offset="0" style="stop-color:#85DE00"/>
							<stop  offset="0.5" style="stop-color:#FFFF99"/>
							<stop  offset="1" style="stop-color:#FFFFCC"/>
							<a:midPointStop  offset="0" style="stop-color:#85DE00"/>
							<a:midPointStop  offset="0.5" style="stop-color:#85DE00"/>
							<a:midPointStop  offset="0.5" style="stop-color:#FFFF99"/>
							<a:midPointStop  offset="0.5" style="stop-color:#FFFF99"/>
							<a:midPointStop  offset="1" style="stop-color:#FFFFCC"/>
						</linearGradient>
						<path fill-rule="evenodd" clip-rule="evenodd" fill="url(#XMLID_33_)" d="M21.648,57.997
							c-0.273,0.354-1.004,1.591-1.236,2.349s-0.976-0.075-0.945-0.765c0.031-0.696,0.461-1.196,0.938-1.612
							C20.88,57.552,21.918,57.641,21.648,57.997z"/>
						
							<linearGradient id="XMLID_34_" gradientUnits="userSpaceOnUse" x1="29.9126" y1="75.2969" x2="22.1566" y2="78.2741" gradientTransform="matrix(1 0 0 1 3.0068 -19.0635)">
							<stop  offset="0.33" style="stop-color:#009933"/>
							<stop  offset="0.466" style="stop-color:#33CC33"/>
							<stop  offset="0.67" style="stop-color:#99FF00"/>
							<a:midPointStop  offset="0.33" style="stop-color:#009933"/>
							<a:midPointStop  offset="0.5" style="stop-color:#009933"/>
							<a:midPointStop  offset="0.466" style="stop-color:#33CC33"/>
							<a:midPointStop  offset="0.5" style="stop-color:#33CC33"/>
							<a:midPointStop  offset="0.67" style="stop-color:#99FF00"/>
						</linearGradient>
						<path fill-rule="evenodd" clip-rule="evenodd" fill="url(#XMLID_34_)" d="M24.348,58.933c-1.696,1.01,1.232-1.729,2.84-2.001
							s9.022,0.669,6.292,0.464C30.749,57.184,26.044,57.921,24.348,58.933z"/>
					</g>
					
						<linearGradient id="XMLID_35_" gradientUnits="userSpaceOnUse" x1="37.0679" y1="74.6934" x2="36.6574" y2="82.5254" gradientTransform="matrix(0.8713 0 0 0.8441 15.2285 -7.7885)">
						<stop  offset="0.21" style="stop-color:#999966"/>
						<stop  offset="0.79" style="stop-color:#333300"/>
						<a:midPointStop  offset="0.21" style="stop-color:#999966"/>
						<a:midPointStop  offset="0.5" style="stop-color:#999966"/>
						<a:midPointStop  offset="0.79" style="stop-color:#333300"/>
					</linearGradient>
					<path fill-rule="evenodd" clip-rule="evenodd" fill="url(#XMLID_35_)" d="M47.346,55.252c1.748,0,3.161,1.488,3.161,3.317
						c0,1.831-1.413,3.312-3.161,3.312s-3.161-1.481-3.161-3.312C44.186,56.74,45.599,55.252,47.346,55.252z"/>
					
						<linearGradient id="XMLID_36_" gradientUnits="userSpaceOnUse" x1="36.0249" y1="80.9824" x2="31.3816" y2="75.0393" gradientTransform="matrix(0.6795 0 0 0.6795 24.3872 5.3907)">
						<stop  offset="0.32" style="stop-color:#999966"/>
						<stop  offset="0.68" style="stop-color:#FFFFFF"/>
						<a:midPointStop  offset="0.32" style="stop-color:#999966"/>
						<a:midPointStop  offset="0.5" style="stop-color:#999966"/>
						<a:midPointStop  offset="0.68" style="stop-color:#FFFFFF"/>
					</linearGradient>
					<path fill-rule="evenodd" clip-rule="evenodd" fill="url(#XMLID_36_)" d="M47.292,55.729c1.358,0,2.464,1.195,2.464,2.669
						c0,1.476-1.106,2.67-2.464,2.67c-1.366,0-2.472-1.194-2.472-2.67C44.82,56.924,45.926,55.729,47.292,55.729z"/>
					
						<linearGradient id="XMLID_37_" gradientUnits="userSpaceOnUse" x1="-14.7515" y1="73.6816" x2="-14.8886" y2="81.5369" gradientTransform="matrix(0.1783 0 -0.0407 0.4903 53.5471 20.5797)">
						<stop  offset="0.17" style="stop-color:#999966"/>
						<stop  offset="0.83" style="stop-color:#333300"/>
						<a:midPointStop  offset="0.17" style="stop-color:#999966"/>
						<a:midPointStop  offset="0.5" style="stop-color:#999966"/>
						<a:midPointStop  offset="0.83" style="stop-color:#333300"/>
					</linearGradient>
					<path fill-rule="evenodd" clip-rule="evenodd" fill="url(#XMLID_37_)" d="M47.906,56.706c0.355,0,0.573,0.86,0.485,1.925
						c-0.089,1.066-0.451,1.926-0.806,1.926s-0.573-0.86-0.485-1.926C47.186,57.566,47.548,56.706,47.906,56.706z"/>
				</g>
				
					<linearGradient id="XMLID_38_" gradientUnits="userSpaceOnUse" x1="84.5703" y1="135.0986" x2="76.2789" y2="88.0756" gradientTransform="matrix(0.137 -0.4108 0.7052 0.2473 5.4668 59.4601)">
					<stop  offset="0" style="stop-color:#009933"/>
					<stop  offset="0.37" style="stop-color:#33CC33"/>
					<stop  offset="1" style="stop-color:#99FF00"/>
					<a:midPointStop  offset="0" style="stop-color:#009933"/>
					<a:midPointStop  offset="0.5" style="stop-color:#009933"/>
					<a:midPointStop  offset="0.37" style="stop-color:#33CC33"/>
					<a:midPointStop  offset="0.5" style="stop-color:#33CC33"/>
					<a:midPointStop  offset="1" style="stop-color:#99FF00"/>
				</linearGradient>
				<path fill-rule="evenodd" clip-rule="evenodd" fill="url(#XMLID_38_)" d="M80.909,51.565c-0.099,0.375,1.358,1.769,1.905,1.843
					c0.542,0.069,1.58-0.463,1.543-0.675c-0.041-0.219-1.271-1.571-1.574-1.707C82.473,50.89,81.012,51.183,80.909,51.565
					 M110.468,58.29c0.109,0.452,1.851,1.285,2.285,1.121c0.434-0.157,0.938-1.196,0.805-1.408
					c-0.132-0.211-1.686-1.119-1.977-1.126C111.287,56.863,110.363,57.839,110.468,58.29 M103.238,56.043
					c0.027,0.437,1.697,1.509,2.186,1.441c0.487-0.075,1.218-0.936,1.116-1.154c-0.1-0.218-1.558-1.325-1.861-1.386
					C104.372,54.883,103.208,55.614,103.238,56.043 M106.109,58.508c0.055,0.438,1.755,1.441,2.222,1.339
					c0.471-0.103,1.13-1.031,1.021-1.244c-0.115-0.218-1.606-1.263-1.907-1.304C107.141,57.252,106.052,58.064,106.109,58.508
					 M104.802,54.016c0.055,0.444,1.755,1.44,2.229,1.338c0.469-0.102,1.127-1.024,1.015-1.242
					c-0.113-0.211-1.608-1.256-1.908-1.304C105.836,52.768,104.744,53.579,104.802,54.016 M108.84,54.419
					c0.109,0.45,1.851,1.284,2.283,1.126c0.435-0.164,0.94-1.202,0.805-1.413c-0.132-0.212-1.682-1.119-1.976-1.126
					C109.659,53,108.731,53.968,108.84,54.419 M107.45,56.488c0.089,0.45,1.82,1.338,2.267,1.194
					c0.444-0.143,1.004-1.146,0.874-1.358c-0.126-0.211-1.659-1.161-1.956-1.188C108.339,55.123,107.358,56.043,107.45,56.488
					 M101.351,57.648c0.004,0.423,1.648,1.564,2.147,1.517c0.502-0.041,1.29-0.848,1.202-1.066
					c-0.089-0.219-1.513-1.379-1.823-1.454C102.569,56.569,101.348,57.225,101.351,57.648 M94.558,54.419
					c-0.023,0.41,1.573,1.625,2.088,1.618c0.513-0.014,1.383-0.745,1.309-0.962c-0.079-0.219-1.451-1.441-1.763-1.536
					C95.882,53.45,94.581,54.002,94.558,54.419 M97.138,57.054c-0.023,0.417,1.57,1.632,2.09,1.618
					c0.516-0.014,1.383-0.745,1.304-0.963c-0.074-0.219-1.448-1.44-1.758-1.529C98.462,56.085,97.161,56.638,97.138,57.054
					 M96.615,52.706c-0.023,0.41,1.574,1.624,2.09,1.61c0.512-0.006,1.38-0.737,1.305-0.956c-0.075-0.218-1.452-1.44-1.759-1.536
					C97.939,51.729,96.64,52.289,96.615,52.706 M100.576,53.839c0.004,0.423,1.646,1.563,2.146,1.515
					c0.499-0.041,1.291-0.853,1.201-1.064c-0.088-0.219-1.511-1.378-1.822-1.454C101.795,52.761,100.569,53.408,100.576,53.839
					 M98.742,55.279c-0.027,0.416,1.57,1.632,2.086,1.618c0.516-0.007,1.383-0.745,1.308-0.963c-0.078-0.219-1.45-1.434-1.762-1.529
					C100.064,54.31,98.766,54.863,98.742,55.279 M92.684,56.283c0.037,0.437,1.71,1.495,2.194,1.42
					c0.488-0.082,1.201-0.956,1.1-1.174c-0.103-0.218-1.57-1.311-1.874-1.365C93.8,55.102,92.649,55.846,92.684,56.283
					 M85.49,53.013c-0.048,0.409,1.517,1.679,2.039,1.692c0.529,0.014,1.447-0.662,1.382-0.88c-0.063-0.219-1.398-1.481-1.71-1.59
					C86.892,52.132,85.538,52.611,85.49,53.013 M88.065,55.764c-0.021,0.417,1.587,1.618,2.099,1.604
					c0.516-0.021,1.365-0.765,1.291-0.983c-0.082-0.219-1.462-1.427-1.771-1.516C89.376,54.774,88.086,55.348,88.065,55.764
					 M87.498,51.402c-0.021,0.416,1.585,1.618,2.097,1.604c0.516-0.02,1.368-0.765,1.294-0.983
					c-0.079-0.219-1.466-1.427-1.771-1.516C88.806,50.412,87.52,50.985,87.498,51.402 M91.666,52.439
					c0.034,0.438,1.71,1.495,2.198,1.413c0.481-0.075,1.198-0.949,1.096-1.167c-0.105-0.22-1.569-1.312-1.873-1.373
					C92.782,51.258,91.632,52.002,91.666,52.439 M89.837,54.119c0.013,0.43,1.672,1.536,2.168,1.481
					c0.49-0.062,1.256-0.895,1.156-1.113c-0.092-0.219-1.532-1.351-1.84-1.419C91.015,53,89.819,53.688,89.837,54.119 M83.224,54.18
					c-0.067,0.396,1.45,1.72,1.983,1.761c0.536,0.041,1.508-0.574,1.454-0.792c-0.055-0.211-1.341-1.522-1.652-1.638
					C84.698,53.388,83.296,53.791,83.224,54.18 M76.67,50.07c-0.099,0.382,1.365,1.768,1.905,1.843
					c0.542,0.075,1.583-0.458,1.543-0.676c-0.042-0.211-1.263-1.563-1.574-1.707C78.236,49.395,76.772,49.695,76.67,50.07
					 M78.909,52.938c-0.103,0.382,1.362,1.767,1.905,1.842c0.539,0.075,1.58-0.464,1.539-0.676
					c-0.041-0.212-1.264-1.569-1.573-1.707C80.473,52.262,79.009,52.563,78.909,52.938 M79.138,48.828
					c-0.099,0.382,1.362,1.768,1.905,1.843s1.583-0.457,1.543-0.676c-0.041-0.211-1.267-1.57-1.574-1.707
					C80.701,48.152,79.24,48.445,79.138,48.828 M83.091,50.535c-0.068,0.396,1.451,1.713,1.983,1.754s1.509-0.573,1.454-0.785
					c-0.056-0.218-1.346-1.522-1.652-1.646C84.565,49.736,83.162,50.139,83.091,50.535"/>
				
					<linearGradient id="XMLID_39_" gradientUnits="userSpaceOnUse" x1="88.0713" y1="83.7695" x2="101.3496" y2="34.214" gradientTransform="matrix(0.0301 -0.4734 -0.4953 -0.1543 109.2221 91.85)">
					<stop  offset="0.29" style="stop-color:#009933"/>
					<stop  offset="0.4454" style="stop-color:#33CC33"/>
					<stop  offset="0.71" style="stop-color:#99FF00"/>
					<a:midPointStop  offset="0.29" style="stop-color:#009933"/>
					<a:midPointStop  offset="0.5" style="stop-color:#009933"/>
					<a:midPointStop  offset="0.4454" style="stop-color:#33CC33"/>
					<a:midPointStop  offset="0.5" style="stop-color:#33CC33"/>
					<a:midPointStop  offset="0.71" style="stop-color:#99FF00"/>
				</linearGradient>
				<path fill-rule="evenodd" clip-rule="evenodd" fill="url(#XMLID_39_)" d="M92.13,43.721c-0.044,0.423-1.307,0.949-1.658,0.724
					c-0.352-0.232-0.833-1.331-0.751-1.515c0.086-0.185,1.202-0.812,1.423-0.771C91.369,42.199,92.175,43.298,92.13,43.721
					 M72.371,33.74c-0.191,0.375-1.475,0.212-1.693-0.185c-0.217-0.403-0.238-1.686-0.098-1.816c0.14-0.13,1.327-0.136,1.508,0.014
					C72.269,31.909,72.562,33.364,72.371,33.74 M77.37,35.604c-0.134,0.402-1.444,0.512-1.717,0.171
					c-0.277-0.342-0.485-1.584-0.362-1.734c0.119-0.157,1.308-0.41,1.509-0.3C77.005,33.849,77.506,35.201,77.37,35.604
					 M74.953,36.381c-0.154,0.396-1.458,0.417-1.715,0.055c-0.259-0.362-0.402-1.618-0.276-1.769
					c0.13-0.143,1.322-0.321,1.517-0.198C74.674,34.6,75.11,35.993,74.953,36.381 M76.98,32.777
					c-0.153,0.389-1.458,0.41-1.717,0.048c-0.256-0.362-0.403-1.618-0.272-1.769c0.126-0.143,1.32-0.321,1.512-0.198
					C76.697,30.988,77.138,32.38,76.98,32.777 M74.424,30.913c-0.191,0.368-1.476,0.205-1.694-0.191s-0.235-1.679-0.099-1.809
					c0.141-0.136,1.327-0.144,1.51,0.007C74.318,29.077,74.615,30.538,74.424,30.913 M74.697,33.685
					c-0.177,0.382-1.472,0.28-1.705-0.11c-0.229-0.389-0.29-1.666-0.152-1.802c0.136-0.137,1.324-0.198,1.513-0.055
					C74.537,31.862,74.878,33.302,74.697,33.685 M78.073,38.205c-0.119,0.41-1.431,0.594-1.721,0.273
					c-0.29-0.321-0.546-1.543-0.43-1.707c0.112-0.157,1.293-0.484,1.502-0.389C77.629,36.484,78.192,37.794,78.073,38.205
					 M83.077,38.874c-0.099,0.409-1.399,0.696-1.71,0.396c-0.308-0.293-0.632-1.488-0.525-1.658
					c0.105-0.171,1.272-0.581,1.487-0.499C82.541,37.194,83.18,38.457,83.077,38.874 M80.786,39.98
					c-0.099,0.416-1.398,0.703-1.71,0.402c-0.31-0.3-0.631-1.489-0.525-1.659c0.105-0.171,1.272-0.581,1.488-0.499
					C80.254,38.307,80.889,39.569,80.786,39.98 M82.302,36.067c-0.099,0.41-1.398,0.697-1.71,0.396
					c-0.307-0.294-0.631-1.488-0.525-1.659c0.106-0.164,1.273-0.58,1.488-0.499C81.767,34.388,82.405,35.651,82.302,36.067
					 M79.592,34.955c-0.119,0.41-1.426,0.594-1.721,0.273c-0.289-0.321-0.546-1.543-0.433-1.708
					c0.116-0.157,1.297-0.484,1.505-0.389C79.148,33.234,79.711,34.545,79.592,34.955 M80.305,37.371
					c-0.098,0.417-1.398,0.697-1.71,0.403c-0.31-0.3-0.631-1.495-0.524-1.659c0.104-0.17,1.272-0.581,1.487-0.498
					C79.77,35.699,80.404,36.955,80.305,37.371 M83.698,41.721c-0.141,0.403-1.447,0.492-1.72,0.144
					c-0.273-0.348-0.465-1.591-0.342-1.741c0.119-0.157,1.311-0.397,1.509-0.281C83.347,39.959,83.838,41.318,83.698,41.721
					 M88.956,42.567c-0.082,0.423-1.379,0.778-1.7,0.498c-0.324-0.279-0.694-1.447-0.595-1.618c0.101-0.177,1.254-0.655,1.472-0.58
					C88.352,40.936,89.038,42.151,88.956,42.567 M86.641,43.796c-0.106,0.41-1.406,0.683-1.714,0.375
					c-0.307-0.3-0.618-1.495-0.512-1.666c0.109-0.164,1.276-0.566,1.491-0.478C86.118,42.109,86.742,43.379,86.641,43.796
					 M88.185,39.891c-0.103,0.417-1.408,0.684-1.712,0.383c-0.307-0.301-0.621-1.502-0.512-1.667c0.106-0.17,1.278-0.566,1.49-0.485
					C87.662,38.211,88.287,39.481,88.185,39.891 M85.374,38.573c-0.14,0.396-1.447,0.484-1.721,0.143
					c-0.272-0.348-0.463-1.59-0.344-1.748c0.125-0.15,1.311-0.389,1.512-0.273C85.023,36.812,85.514,38.17,85.374,38.573
					 M86.02,41.215c-0.126,0.41-1.438,0.553-1.721,0.218c-0.283-0.327-0.515-1.557-0.396-1.714c0.116-0.164,1.301-0.451,1.505-0.348
					C85.613,39.481,86.146,40.813,86.02,41.215 M90.007,44.963c-0.064,0.423-1.352,0.854-1.686,0.594
					c-0.335-0.259-0.755-1.393-0.662-1.57c0.092-0.178,1.231-0.724,1.454-0.669C89.335,43.373,90.072,44.547,90.007,44.963
					 M95.11,44.643c-0.044,0.423-1.314,0.949-1.662,0.724c-0.349-0.232-0.833-1.331-0.748-1.516
					c0.082-0.184,1.198-0.812,1.424-0.771C94.35,43.12,95.151,44.226,95.11,44.643 M92.964,46.166
					c-0.042,0.423-1.312,0.949-1.659,0.724c-0.349-0.232-0.833-1.332-0.748-1.516c0.082-0.184,1.198-0.806,1.423-0.771
					C92.202,44.643,93.008,45.749,92.964,46.166 M93.957,42.069c-0.045,0.423-1.312,0.949-1.659,0.717
					c-0.352-0.232-0.833-1.325-0.751-1.509c0.085-0.184,1.201-0.812,1.424-0.771C93.195,40.54,94.001,41.646,93.957,42.069
					 M91.093,41.509c-0.065,0.423-1.352,0.854-1.687,0.594c-0.334-0.252-0.754-1.393-0.662-1.57
					c0.093-0.177,1.232-0.724,1.455-0.669C90.417,39.918,91.158,41.093,91.093,41.509"/>
			</g>
			<g>
				<path fill-rule="evenodd" clip-rule="evenodd" fill="#4C4C4C" d="M25.799,69.211c-5.23,1.986-7.817,7.183-8.65,14.915
					c-0.571-4.486-0.936-6.716-0.332-8.809c-2.987,0.792-3.725,2.178-6.551,4.476c2.451-5.523,6.028-10.199,13.607-11.865
					C24.516,68.352,25.157,68.781,25.799,69.211z"/>
				
					<linearGradient id="XMLID_40_" gradientUnits="userSpaceOnUse" x1="22.5879" y1="87.4033" x2="13.5055" y2="86.2881" gradientTransform="matrix(1 0 0 1 -0.0181 -14.751)">
					<stop  offset="0.21" style="stop-color:#4C4C4C"/>
					<stop  offset="0.79" style="stop-color:#FFFFFF"/>
					<a:midPointStop  offset="0.21" style="stop-color:#4C4C4C"/>
					<a:midPointStop  offset="0.5" style="stop-color:#4C4C4C"/>
					<a:midPointStop  offset="0.79" style="stop-color:#FFFFFF"/>
				</linearGradient>
				<path fill-rule="evenodd" clip-rule="evenodd" fill="url(#XMLID_40_)" d="M13.776,75.008c2.024-3.018,4.751-5.107,8.504-5.824
					c-1.762,1.147-3.342,2.403-3.664,4.417C17.002,73.15,15.388,74.229,13.776,75.008z"/>
			</g>
			<g>
				
					<radialGradient id="XMLID_41_" cx="108.4668" cy="118.249" r="34.7364" fx="108.4668" fy="118.249" gradientUnits="userSpaceOnUse">
					<stop  offset="0" style="stop-color:#000000"/>
					<stop  offset="1" style="stop-color:#000000"/>
					<a:midPointStop  offset="0" style="stop-color:#000000"/>
					<a:midPointStop  offset="0.5" style="stop-color:#000000"/>
					<a:midPointStop  offset="1" style="stop-color:#000000"/>
				</radialGradient>
				<path opacity="0.1" fill="url(#XMLID_41_)" d="M85.191,90.976v35.754h1.793l33.639-33.639v-2.115H85.191z"/>
				<path fill="#FFFFFF" d="M87.537,126.948l33.627-33.627H87.537V126.948z"/>
				<linearGradient id="XMLID_42_" gradientUnits="userSpaceOnUse" x1="104.0166" y1="98.1807" x2="95.0883" y2="135.7938">
					<stop  offset="0" style="stop-color:#FFFFFF"/>
					<stop  offset="1" style="stop-color:#CCCCCC"/>
					<a:midPointStop  offset="0" style="stop-color:#FFFFFF"/>
					<a:midPointStop  offset="0.5" style="stop-color:#FFFFFF"/>
					<a:midPointStop  offset="1" style="stop-color:#CCCCCC"/>
				</linearGradient>
				<path fill="url(#XMLID_42_)" d="M89.865,125.056l29.594-29.592H89.865V125.056z"/>
				<linearGradient id="XMLID_43_" gradientUnits="userSpaceOnUse" x1="82.3086" y1="88.0928" x2="96.1043" y2="101.8885">
					<stop  offset="0" style="stop-color:#B3B3B3"/>
					<stop  offset="1" style="stop-color:#828282"/>
					<a:midPointStop  offset="0" style="stop-color:#B3B3B3"/>
					<a:midPointStop  offset="0.5" style="stop-color:#B3B3B3"/>
					<a:midPointStop  offset="1" style="stop-color:#828282"/>
				</linearGradient>
				<path fill="url(#XMLID_43_)" d="M87.537,92.821c-0.277,0-0.5,0.223-0.5,0.5v33.627c0,0.203,0.121,0.385,0.309,0.463
					c0.186,0.076,0.402,0.033,0.545-0.109l33.627-33.627c0.143-0.145,0.186-0.359,0.109-0.545c-0.078-0.188-0.26-0.309-0.463-0.309
					H87.537z M119.957,93.821c-1.58,1.578-30.342,30.34-31.92,31.92c0-2.209,0-30.986,0-31.92
					C88.971,93.821,117.748,93.821,119.957,93.821z"/>
			</g>
		</g>
		<path fill="none" d="M128,128H0V0h128V128z"/>
	</g>
</svg>
