<?xml version="1.0" encoding="iso-8859-1"?>
<!-- Generator: Adobe Illustrator 10.0.3, SVG Export Plug-In . SVG Version: 3.0.0 Build 77)  -->
<!DOCTYPE svg PUBLIC "-//W3C//DTD SVG 1.0//EN"    "http://www.w3.org/TR/2001/REC-SVG-20010904/DTD/svg10.dtd" [
	<!ENTITY ns_flows "http://ns.adobe.com/Flows/1.0/">
	<!ENTITY ns_svg "http://www.w3.org/2000/svg">
	<!ENTITY ns_xlink "http://www.w3.org/1999/xlink">
]>
<svg  xmlns="&ns_svg;" xmlns:xlink="&ns_xlink;" xmlns:a="http://ns.adobe.com/AdobeSVGViewerExtensions/3.0/"
	 width="128" height="128" viewBox="0 0 128 128" overflow="visible" enable-background="new 0 0 128 128" xml:space="preserve">
	<g id="Layer_1">
		<g>
			<g>
				<path fill="#FFFFFF" d="M121.164,1.052H6.836v125.896h80.701l33.627-33.627V1.052z"/>
				<linearGradient id="XMLID_1_" gradientUnits="userSpaceOnUse" x1="63.9204" y1="154.5645" x2="63.9204" y2="-100.9347">
					<stop  offset="0" style="stop-color:#FFFFFF"/>
					<stop  offset="0.258" style="stop-color:#F1F1F1"/>
					<stop  offset="0.7396" style="stop-color:#CECECE"/>
					<stop  offset="0.8595" style="stop-color:#C4C4C4"/>
					<a:midPointStop  offset="0" style="stop-color:#FFFFFF"/>
					<a:midPointStop  offset="0.5674" style="stop-color:#FFFFFF"/>
					<a:midPointStop  offset="0.8595" style="stop-color:#C4C4C4"/>
				</linearGradient>
				<path fill="url(#XMLID_1_)" d="M117.734,4.019H10.266l-0.16,122.654h76.457l31.172-31.252V4.019z"/>
				<linearGradient id="XMLID_2_" gradientUnits="userSpaceOnUse" x1="-26.333" y1="-26.333" x2="56.1662" y2="56.1662">
					<stop  offset="0" style="stop-color:#B3B3B3"/>
					<stop  offset="1" style="stop-color:#828282"/>
					<a:midPointStop  offset="0" style="stop-color:#B3B3B3"/>
					<a:midPointStop  offset="0.5" style="stop-color:#B3B3B3"/>
					<a:midPointStop  offset="1" style="stop-color:#828282"/>
				</linearGradient>
				<path fill="url(#XMLID_2_)" d="M121.164,0.552H6.336v126.896h81.408l33.92-33.92V0.552H121.164z M120.664,1.552
					c0,0.987,0,91.152,0,91.562c-0.289,0.289-33.045,33.045-33.334,33.334c-0.41,0-79.01,0-79.994,0c0-0.988,0-123.909,0-124.896
					C8.322,1.552,119.678,1.552,120.664,1.552z"/>
				<linearGradient id="XMLID_3_" gradientUnits="userSpaceOnUse" x1="43.0229" y1="25.4214" x2="204.0073" y2="111.0652">
					<stop  offset="0" style="stop-color:#FFFFFF"/>
					<stop  offset="0.5033" style="stop-color:#E7E7E7"/>
					<stop  offset="1" style="stop-color:#D4D4D4"/>
					<a:midPointStop  offset="0" style="stop-color:#FFFFFF"/>
					<a:midPointStop  offset="0.452" style="stop-color:#FFFFFF"/>
					<a:midPointStop  offset="1" style="stop-color:#D4D4D4"/>
				</linearGradient>
				<path fill="url(#XMLID_3_)" d="M118.006,15.223V3.94H10.199l-0.096,65.34c9.975,4.547,21.151,7.096,32.954,7.096
					C80.402,76.376,111.455,48.876,118.006,15.223z"/>
			</g>
			<path fill="none" d="M72.158,83.212V70.529c-8.568,3.576-17.923,5.638-27.732,5.815v6.867H72.158z"/>
			<linearGradient id="XMLID_4_" gradientUnits="userSpaceOnUse" x1="28.1636" y1="53.3511" x2="189.1511" y2="138.9965">
				<stop  offset="0" style="stop-color:#FFFFFF"/>
				<stop  offset="0.5033" style="stop-color:#E7E7E7"/>
				<stop  offset="1" style="stop-color:#D4D4D4"/>
				<a:midPointStop  offset="0" style="stop-color:#FFFFFF"/>
				<a:midPointStop  offset="0.452" style="stop-color:#FFFFFF"/>
				<a:midPointStop  offset="1" style="stop-color:#D4D4D4"/>
			</linearGradient>
			<path fill="url(#XMLID_4_)" d="M72.158,62.415H44.426v13.93c9.809-0.178,19.164-2.239,27.732-5.815V62.415z"/>
			<g>
				<path d="M72.269,25.833h-0.11H44.426v12.85h27.732v14.262H44.426V66.19H29.771v21.191h14.655v13.297h27.732h2.479h11.499V38.683
					v-0.412H72.269V25.833z M72.158,87.212H44.426V66.415h27.732V87.212z"/>
				<linearGradient id="XMLID_5_" gradientUnits="userSpaceOnUse" x1="8.5776" y1="-130.9097" x2="68.091" y2="97.7148">
					<stop  offset="0" style="stop-color:#FFFFFF"/>
					<stop  offset="1" style="stop-color:#000000"/>
					<a:midPointStop  offset="0" style="stop-color:#FFFFFF"/>
					<a:midPointStop  offset="0.5" style="stop-color:#FFFFFF"/>
					<a:midPointStop  offset="1" style="stop-color:#000000"/>
				</linearGradient>
				<path fill="url(#XMLID_5_)" d="M86.137,38.271H72.269V25.833h-0.11H44.426v12.85h27.732v14.262H44.426V66.19H29.771v13.086
					c4.315,0.721,8.754,1.1,13.286,1.1c0.458,0,0.912-0.023,1.369-0.031v-13.93h27.732v8.114c4.944-2.063,9.623-4.63,13.979-7.619
					V38.683V38.271z"/>
			</g>
			<g>
				
					<radialGradient id="XMLID_6_" cx="108.4668" cy="118.249" r="34.7364" fx="108.4668" fy="118.249" gradientUnits="userSpaceOnUse">
					<stop  offset="0" style="stop-color:#000000"/>
					<stop  offset="1" style="stop-color:#000000"/>
					<a:midPointStop  offset="0" style="stop-color:#000000"/>
					<a:midPointStop  offset="0.5" style="stop-color:#000000"/>
					<a:midPointStop  offset="1" style="stop-color:#000000"/>
				</radialGradient>
				<path opacity="0.1" fill="url(#XMLID_6_)" d="M85.191,90.976v35.754h1.793l33.639-33.639v-2.115H85.191z"/>
				<path fill="#FFFFFF" d="M87.537,126.948l33.627-33.627H87.537V126.948z"/>
				<linearGradient id="XMLID_7_" gradientUnits="userSpaceOnUse" x1="104.0166" y1="98.1807" x2="95.0883" y2="135.7938">
					<stop  offset="0" style="stop-color:#FFFFFF"/>
					<stop  offset="1" style="stop-color:#CCCCCC"/>
					<a:midPointStop  offset="0" style="stop-color:#FFFFFF"/>
					<a:midPointStop  offset="0.5" style="stop-color:#FFFFFF"/>
					<a:midPointStop  offset="1" style="stop-color:#CCCCCC"/>
				</linearGradient>
				<path fill="url(#XMLID_7_)" d="M89.865,125.056l29.594-29.592H89.865V125.056z"/>
				<linearGradient id="XMLID_8_" gradientUnits="userSpaceOnUse" x1="82.3086" y1="88.0928" x2="96.1043" y2="101.8885">
					<stop  offset="0" style="stop-color:#B3B3B3"/>
					<stop  offset="1" style="stop-color:#828282"/>
					<a:midPointStop  offset="0" style="stop-color:#B3B3B3"/>
					<a:midPointStop  offset="0.5" style="stop-color:#B3B3B3"/>
					<a:midPointStop  offset="1" style="stop-color:#828282"/>
				</linearGradient>
				<path fill="url(#XMLID_8_)" d="M87.537,92.821c-0.277,0-0.5,0.223-0.5,0.5v33.627c0,0.203,0.121,0.385,0.309,0.463
					c0.186,0.076,0.402,0.033,0.545-0.109l33.627-33.627c0.143-0.145,0.186-0.359,0.109-0.545c-0.078-0.188-0.26-0.309-0.463-0.309
					H87.537z M119.957,93.821c-1.58,1.578-30.342,30.34-31.92,31.92c0-2.209,0-30.986,0-31.92
					C88.971,93.821,117.748,93.821,119.957,93.821z"/>
			</g>
			<linearGradient id="XMLID_9_" gradientUnits="userSpaceOnUse" x1="-4.0225" y1="10.6514" x2="127.2984" y2="10.6514">
				<stop  offset="0" style="stop-color:#B3CAFF"/>
				<stop  offset="1" style="stop-color:#0053BD"/>
				<a:midPointStop  offset="0" style="stop-color:#B3CAFF"/>
				<a:midPointStop  offset="0.5" style="stop-color:#B3CAFF"/>
				<a:midPointStop  offset="1" style="stop-color:#0053BD"/>
			</linearGradient>
			<path fill="url(#XMLID_9_)" d="M117.397,17.023H10.013V4.279h107.385V17.023z"/>
			<g>
				<path fill="#FFFFFF" d="M12.938,15.153V6.23h6.107v1.512h-4.313v2.104h3.721v1.512h-3.721v3.794H12.938z"/>
				<path fill="#FFFFFF" d="M20.174,10.754c0-0.91,0.136-1.673,0.406-2.29c0.202-0.455,0.478-0.863,0.828-1.225
					c0.35-0.361,0.733-0.629,1.149-0.804c0.554-0.235,1.193-0.353,1.917-0.353c1.31,0,2.358,0.409,3.146,1.225
					c0.787,0.816,1.18,1.951,1.18,3.405c0,1.441-0.391,2.57-1.171,3.384c-0.781,0.814-1.824,1.221-3.13,1.221
					c-1.322,0-2.374-0.405-3.154-1.215C20.564,13.292,20.174,12.175,20.174,10.754z M22.026,10.693c0,1.011,0.232,1.777,0.698,2.299
					c0.465,0.522,1.056,0.783,1.771,0.783c0.716,0,1.304-0.258,1.763-0.776s0.688-1.294,0.688-2.33c0-1.022-0.223-1.786-0.67-2.29
					c-0.447-0.503-1.041-0.755-1.781-0.755s-1.337,0.255-1.79,0.764C22.253,8.897,22.026,9.667,22.026,10.693z"/>
				<path fill="#FFFFFF" d="M30.23,15.153V6.23h1.74l3.685,6.007V6.23h1.66v8.923h-1.795l-3.63-5.889v5.889H30.23z"/>
				<path fill="#FFFFFF" d="M41.21,15.153V7.742h-2.624V6.23h7.041v1.512h-2.624v7.411H41.21z"/>
			</g>
		</g>
		<path fill="none" d="M128,128H0V0h128V128z"/>
	</g>
</svg>
