<?xml version="1.0" encoding="iso-8859-1"?>
<!-- Generator: Adobe Illustrator 10.0.3, SVG Export Plug-In . SVG Version: 3.0.0 Build 77)  -->
<!DOCTYPE svg PUBLIC "-//W3C//DTD SVG 1.0//EN"    "http://www.w3.org/TR/2001/REC-SVG-20010904/DTD/svg10.dtd" [
	<!ENTITY ns_flows "http://ns.adobe.com/Flows/1.0/">
	<!ENTITY ns_svg "http://www.w3.org/2000/svg">
	<!ENTITY ns_xlink "http://www.w3.org/1999/xlink">
]>
<svg  xmlns="&ns_svg;" xmlns:xlink="&ns_xlink;" xmlns:a="http://ns.adobe.com/AdobeSVGViewerExtensions/3.0/"
	 width="128" height="128" viewBox="0 0 128 128" overflow="visible" enable-background="new 0 0 128 128" xml:space="preserve">
	<g id="Layer_1">
		<g>
			<g>
				<path fill="#FFFFFF" d="M121.164,1.052H6.836v125.896h80.701l33.627-33.627V1.052z"/>
				<linearGradient id="XMLID_1_" gradientUnits="userSpaceOnUse" x1="63.9204" y1="154.5645" x2="63.9204" y2="-100.9347">
					<stop  offset="0" style="stop-color:#FFFFFF"/>
					<stop  offset="0.258" style="stop-color:#F1F1F1"/>
					<stop  offset="0.7396" style="stop-color:#CECECE"/>
					<stop  offset="0.8595" style="stop-color:#C4C4C4"/>
					<a:midPointStop  offset="0" style="stop-color:#FFFFFF"/>
					<a:midPointStop  offset="0.5674" style="stop-color:#FFFFFF"/>
					<a:midPointStop  offset="0.8595" style="stop-color:#C4C4C4"/>
				</linearGradient>
				<path fill="url(#XMLID_1_)" d="M117.734,4.019H10.266l-0.16,122.654h76.457l31.172-31.252V4.019z"/>
				<linearGradient id="XMLID_2_" gradientUnits="userSpaceOnUse" x1="-26.333" y1="-26.333" x2="56.1662" y2="56.1662">
					<stop  offset="0" style="stop-color:#B3B3B3"/>
					<stop  offset="1" style="stop-color:#828282"/>
					<a:midPointStop  offset="0" style="stop-color:#B3B3B3"/>
					<a:midPointStop  offset="0.5" style="stop-color:#B3B3B3"/>
					<a:midPointStop  offset="1" style="stop-color:#828282"/>
				</linearGradient>
				<path fill="url(#XMLID_2_)" d="M121.164,0.552H6.336v126.896h81.408l33.92-33.92V0.552H121.164z M120.664,1.552
					c0,0.987,0,91.152,0,91.562c-0.289,0.289-33.045,33.045-33.334,33.334c-0.41,0-79.01,0-79.994,0c0-0.988,0-123.909,0-124.896
					C8.322,1.552,119.678,1.552,120.664,1.552z"/>
				<linearGradient id="XMLID_3_" gradientUnits="userSpaceOnUse" x1="43.0229" y1="25.4214" x2="204.0073" y2="111.0652">
					<stop  offset="0" style="stop-color:#FFFFFF"/>
					<stop  offset="0.5033" style="stop-color:#E7E7E7"/>
					<stop  offset="1" style="stop-color:#D4D4D4"/>
					<a:midPointStop  offset="0" style="stop-color:#FFFFFF"/>
					<a:midPointStop  offset="0.452" style="stop-color:#FFFFFF"/>
					<a:midPointStop  offset="1" style="stop-color:#D4D4D4"/>
				</linearGradient>
				<path fill="url(#XMLID_3_)" d="M118.006,15.223V3.94H10.199l-0.096,65.34c9.975,4.547,21.151,7.096,32.954,7.096
					C80.402,76.376,111.455,48.876,118.006,15.223z"/>
			</g>
			<linearGradient id="XMLID_4_" gradientUnits="userSpaceOnUse" x1="92.6777" y1="10.6509" x2="-23.9856" y2="10.6509">
				<stop  offset="0" style="stop-color:#0095FF"/>
				<stop  offset="1" style="stop-color:#00E1FF"/>
				<a:midPointStop  offset="0" style="stop-color:#0095FF"/>
				<a:midPointStop  offset="0.5" style="stop-color:#0095FF"/>
				<a:midPointStop  offset="1" style="stop-color:#00E1FF"/>
			</linearGradient>
			<path fill="url(#XMLID_4_)" d="M117.397,17.023H10.013V4.279h107.385V17.023z"/>
			<path fill="#FFFFFF" d="M21.278,13.387c-0.024-0.033-0.066-0.047-0.105-0.036c0,0-0.315,0.092-0.414,0.121
				c-0.072-0.104-0.842-1.215-0.842-1.215c-0.018-0.026-0.048-0.042-0.08-0.042c-0.032,0-0.062,0.016-0.08,0.042
				c-0.535,0.776-1.408,1.241-2.335,1.241c-1.402,0-2.569-1.014-2.806-2.344c-0.006-0.039-0.012-0.077-0.018-0.116
				c-0.001-0.005-0.001-0.01-0.002-0.016c-0.004-0.034-0.008-0.069-0.012-0.104c-0.001-0.016-0.002-0.032-0.003-0.047
				c-0.002-0.026-0.004-0.052-0.005-0.079c-0.002-0.044-0.004-0.088-0.004-0.133c0-1.08,0.59-2.049,1.541-2.529
				c0.032-0.016,0.053-0.049,0.053-0.086V7.201c0-0.032-0.015-0.063-0.042-0.081c-0.027-0.018-0.06-0.021-0.09-0.008l-0.141,0.06
				c-0.158,0.069-0.308,0.153-0.431,0.225c-0.093-0.065-1.151-0.806-1.151-0.806c-0.038-0.027-0.089-0.023-0.123,0.009l-0.801,0.782
				c-0.02,0.019-0.029,0.044-0.029,0.069c0,0.019,0.005,0.038,0.017,0.054c0,0,0.737,1.092,0.798,1.183
				c-0.201,0.335-0.34,0.668-0.425,1.014c-0.11,0.021-1.463,0.27-1.463,0.27c-0.044,0.008-0.077,0.046-0.079,0.091l-0.05,1.123
				c0,0.001,0,0.002,0,0.004c0,0.046,0.033,0.086,0.08,0.095c0,0,0.007,0.001,0.019,0.003c0.167,0.03,1.371,0.248,1.475,0.266
				c0.085,0.341,0.224,0.687,0.415,1.03c-0.064,0.09-0.897,1.254-0.897,1.254c-0.012,0.017-0.018,0.037-0.018,0.056
				c0,0.024,0.009,0.049,0.028,0.068l0.801,0.812c0.032,0.033,0.084,0.038,0.123,0.012c0,0,1.209-0.815,1.303-0.878
				c0.305,0.189,0.642,0.332,1.024,0.433c0.02,0.109,0.28,1.535,0.28,1.535c0.009,0.046,0.048,0.079,0.095,0.079h1.152
				c0.047,0,0.087-0.034,0.095-0.081c0,0,0.242-1.444,0.261-1.554c0.337-0.093,0.671-0.231,0.994-0.414l0.198,0.118
				c0.351,0.246,1.073,0.751,1.073,0.751c0.039,0.027,0.09,0.022,0.124-0.011l0.812-0.812c0.034-0.034,0.038-0.087,0.01-0.125
				L21.278,13.387z M23.086,5.768c0-0.01-0.001-0.021-0.005-0.031c-0.01-0.031-0.037-0.055-0.068-0.063l-2.064-0.511
				c-0.038-0.009-0.076,0.004-0.1,0.035c0,0-2.102,2.723-2.403,3.113c0-0.475,0-3.083,0-3.083c0-0.053-0.042-0.097-0.095-0.097
				l-1.864-0.02c-0.025,0-0.05,0.01-0.068,0.028S16.39,5.181,16.39,5.206l-0.061,7.796c0,0.026,0.011,0.053,0.03,0.071
				c0.02,0.018,0.046,0.028,0.073,0.026l1.963-0.12c0.052-0.003,0.091-0.046,0.091-0.096c0,0-0.031-2.635-0.036-3.143
				c0.31,0.431,2.437,3.39,2.437,3.39c0.024,0.033,0.066,0.047,0.106,0.036l1.994-0.582c0.03-0.008,0.054-0.032,0.064-0.062
				c0.004-0.01,0.005-0.021,0.005-0.031c0-0.021-0.007-0.041-0.019-0.058c0,0-2.455-3.321-2.541-3.437
				c0.09-0.112,2.569-3.169,2.569-3.169C23.079,5.812,23.086,5.79,23.086,5.768z M22.945,9.922l-1.323-0.23
				c-0.038-0.006-0.077,0.01-0.098,0.043c-0.021,0.033-0.021,0.075,0.002,0.107l1.002,1.443c0.021,0.031,0.059,0.046,0.097,0.04
				l0.331-0.061c0.046-0.008,0.08-0.049,0.079-0.096l-0.01-1.152C23.024,9.97,22.991,9.93,22.945,9.922z"/>
			<g>
				<g>
					
						<radialGradient id="XMLID_5_" cx="93.9443" cy="47.4072" r="21.8578" fx="93.9443" fy="47.4072" gradientTransform="matrix(-1 0 0 1 195.4629 0)" gradientUnits="userSpaceOnUse">
						<stop  offset="0" style="stop-color:#FFFFFF"/>
						<stop  offset="1" style="stop-color:#D200DE"/>
						<a:midPointStop  offset="0" style="stop-color:#FFFFFF"/>
						<a:midPointStop  offset="0.5" style="stop-color:#FFFFFF"/>
						<a:midPointStop  offset="1" style="stop-color:#D200DE"/>
					</radialGradient>
					<path fill="url(#XMLID_5_)" d="M91.499,40.425V18.868l21.556,21.557H91.499z"/>
					<path fill="#7E00B3" d="M91.324,18.448c-0.169,0.07-0.281,0.237-0.281,0.42v21.557c0,0.251,0.204,0.456,0.456,0.456h21.556
						c0.186,0,0.351-0.111,0.421-0.281c0.071-0.17,0.031-0.366-0.099-0.496L91.821,18.546
						C91.691,18.416,91.494,18.377,91.324,18.448z M111.956,39.97c-1.938,0-19.175,0-20.002,0c0-0.827,0-18.065,0-20.002
						C93.345,21.358,110.565,38.579,111.956,39.97z"/>
					
						<radialGradient id="XMLID_6_" cx="95.3584" cy="42.9028" r="14.6374" fx="95.3584" fy="42.9028" gradientTransform="matrix(-1 0 0 1 195.4629 0)" gradientUnits="userSpaceOnUse">
						<stop  offset="0" style="stop-color:#FFFFFF"/>
						<stop  offset="1" style="stop-color:#D200DE"/>
						<a:midPointStop  offset="0" style="stop-color:#FFFFFF"/>
						<a:midPointStop  offset="0.5" style="stop-color:#FFFFFF"/>
						<a:midPointStop  offset="1" style="stop-color:#D200DE"/>
					</radialGradient>
					<path fill="url(#XMLID_6_)" d="M104.683,35.082c-0.888,0.114-1.8,0.181-2.736,0.181c-3.19,0-6.136-0.702-8.552-1.884v-9.585
						L104.683,35.082z"/>
					
						<linearGradient id="XMLID_7_" gradientUnits="userSpaceOnUse" x1="96.4238" y1="20.918" x2="96.4238" y2="48.6976" gradientTransform="matrix(-1 0 0 1 195.4629 0)">
						<stop  offset="0" style="stop-color:#FFFFFF"/>
						<stop  offset="1" style="stop-color:#D200DE"/>
						<a:midPointStop  offset="0" style="stop-color:#FFFFFF"/>
						<a:midPointStop  offset="0.5" style="stop-color:#FFFFFF"/>
						<a:midPointStop  offset="1" style="stop-color:#D200DE"/>
					</linearGradient>
					<path fill="url(#XMLID_7_)" d="M104.683,35.082c-0.888,0.114-1.8,0.181-2.736,0.181c-3.19,0-6.136-0.702-8.552-1.884v-9.585
						L104.683,35.082z"/>
				</g>
				<g>
					
						<radialGradient id="XMLID_8_" cx="168.6318" cy="123.6143" r="22.772" fx="168.6318" fy="123.6143" gradientTransform="matrix(-1 0 0 1 195.4629 0)" gradientUnits="userSpaceOnUse">
						<stop  offset="0" style="stop-color:#FFFFFF"/>
						<stop  offset="1" style="stop-color:#D200DE"/>
						<a:midPointStop  offset="0" style="stop-color:#FFFFFF"/>
						<a:midPointStop  offset="0.5" style="stop-color:#FFFFFF"/>
						<a:midPointStop  offset="1" style="stop-color:#D200DE"/>
					</radialGradient>
					<path fill="url(#XMLID_8_)" d="M31.992,99.933v21.556L10.435,99.933H31.992z"/>
					<path fill="#7E00B3" d="M10.435,99.478c-0.185,0-0.35,0.111-0.421,0.281c-0.071,0.169-0.031,0.366,0.1,0.497l21.556,21.555
						c0.13,0.131,0.327,0.171,0.496,0.1c0.17-0.071,0.282-0.235,0.282-0.422V99.933c0-0.252-0.204-0.455-0.455-0.455H10.435z
						 M31.536,100.388c0,0.828,0,18.065,0,20.003c-1.392-1.392-18.611-18.612-20.002-20.003
						C13.47,100.388,30.709,100.388,31.536,100.388z"/>
					
						<radialGradient id="XMLID_9_" cx="168.9482" cy="118.2627" r="15.6723" fx="168.9482" fy="118.2627" gradientTransform="matrix(-1 0 0 1 195.4629 0)" gradientUnits="userSpaceOnUse">
						<stop  offset="0" style="stop-color:#FFFFFF"/>
						<stop  offset="1" style="stop-color:#D200DE"/>
						<a:midPointStop  offset="0" style="stop-color:#FFFFFF"/>
						<a:midPointStop  offset="0.5" style="stop-color:#FFFFFF"/>
						<a:midPointStop  offset="1" style="stop-color:#D200DE"/>
					</radialGradient>
					<path fill="url(#XMLID_9_)" d="M15.238,101.955h0.547c0.099,0.295,0.202,0.589,0.329,0.877L15.238,101.955z"/>
					
						<linearGradient id="XMLID_10_" gradientUnits="userSpaceOnUse" x1="172.3457" y1="97.0049" x2="172.3457" y2="117.0406" gradientTransform="matrix(-1 0 0 1 195.4629 0)">
						<stop  offset="0" style="stop-color:#FFFFFF"/>
						<stop  offset="1" style="stop-color:#D200DE"/>
						<a:midPointStop  offset="0" style="stop-color:#FFFFFF"/>
						<a:midPointStop  offset="0.5" style="stop-color:#FFFFFF"/>
						<a:midPointStop  offset="1" style="stop-color:#D200DE"/>
					</linearGradient>
					<path fill="url(#XMLID_10_)" d="M30.053,101.456v8.874c-2.833-0.202-5.44-0.958-7.64-2.111
						c-2.745-1.439-4.845-3.502-5.912-5.911c-0.123-0.279-0.224-0.565-0.318-0.852H30.053z"/>
				</g>
			</g>
			<path opacity="0.34" fill-rule="evenodd" clip-rule="evenodd" fill="#999999" d="M26.852,78.259
				c4.568-0.898,14.64-5.104,18.998-2.965c4.358,2.137,13.046,2.52,17.78,3.943c4.73,1.424,6.673,3.307,9.821,3.638
				c3.146,0.333,3.361,0.957,8.038,2.128c4.679,1.17,15.683,4.021,19.202,6.941c3.519,2.922-4.402,3.145-5.344,4.562
				c-0.943,1.414-1.038,1.862,0.198,3.172c1.237,1.313,6.271,1.7,6.531,3.965c0.261,2.27-3.726,1.191-5.938,1.191
				c-2.214,0-3.587-0.162-7.128-1.191c-3.54-1.026-7.095-2.968-11.219-3.773c-4.121-0.807-5.784,1.501-11.238-0.747
				c-5.454-2.246-7.546-8.896-11.885-9.863c-4.336-0.966-1.226,7.929-13.585,4.018c-12.36-3.908-7.888-7.509-10.47-9.265
				c-2.582-1.76-7.392-1.816-9.108-2.978c-1.713-1.157-0.529-2.192,0.593-2.775C23.221,77.676,22.284,79.158,26.852,78.259z"/>
			<g>
				
					<linearGradient id="XMLID_11_" gradientUnits="userSpaceOnUse" x1="-192" y1="440.0439" x2="-204.7959" y2="531.0915" gradientTransform="matrix(1 0 0 1 262.3989 -422.2715)">
					<stop  offset="0.35" style="stop-color:#F0CD87"/>
					<stop  offset="0.464" style="stop-color:#D6A84A"/>
					<stop  offset="0.65" style="stop-color:#A87D28"/>
					<a:midPointStop  offset="0.35" style="stop-color:#F0CD87"/>
					<a:midPointStop  offset="0.5" style="stop-color:#F0CD87"/>
					<a:midPointStop  offset="0.464" style="stop-color:#D6A84A"/>
					<a:midPointStop  offset="0.5" style="stop-color:#D6A84A"/>
					<a:midPointStop  offset="0.65" style="stop-color:#A87D28"/>
				</linearGradient>
				<path fill-rule="evenodd" clip-rule="evenodd" fill="url(#XMLID_11_)" d="M25.105,33.649c-0.479,1.16-1.182,2.035-0.855,3.917
					c0.425,2.454,1.91,7.171,4.407,10.505c-0.294,2.489-0.942,5.995,0.275,8.53c1.218,2.537,3.423,3.638,5.319,5.773
					c0.261,0.218,0.528,0.425,0.801,0.632c-2.359,4.336-4.721,8.675-7.079,13.013c-0.951-0.244-1.743-1.119-2.854-0.737
					c-1.111,0.384-2.712,1.765-3.037,2.767c-0.327,1.003,0.294,1.049,1.656,1.477s4.358,1.356,6.352,0.737
					c1.994-0.621,2.668-2.614,4.145-4.058c2.784-2.64,5.742-5.279,8.53-7.917c0.063,0.014,0.126,0.026,0.185,0.037
					c0.044,0.137,0.083,0.271,0.118,0.401c0.558,2.031-1.049,3.48-0.324,5.256c0.313,0.763,0.885,1.42,1.552,2.04
					c-1.133,0.656-2.32,1.559-1.574,3.086c0.318,0.648,1.367,1.732,2.021,2.072c1.09,0.57,1.988,0.164,3.208,0.191
					c1.95,0.044,2.778-0.676,3.562-1.907c0.791-1.23-0.59-3.083,0.12-4.164s2.926-1.661,3.922-3.094
					c0.002-0.008,0.008-0.014,0.01-0.022c0.559,4.012,3.154,6.917,6.114,9.528c-0.756-0.297-1.707-0.493-2.715-0.396
					c-1.803,0.175-4.854,2.955-2.331,5.047c1.702,1.417,6.389,3.494,8.805,4.52c2.416,1.022,4.164,0.143,5.411-1.488
					c1.248-1.631,0.284-2.799,0.213-5.104c0.022-2.331,0.88-2.721,2.177-2.498c2.897,0.235,6.085,1.081,8.8,0.537
					c0.288,1.396,0.574,2.772,0.91,4.301c1.65,7.544,1.999,15.094,11.354,17.539c2.32,0.608,5.176,0.468,6.79,0
					c2.217-0.633,2.565-4.826,0.531-5.845c-2.204-1.105-5.965,0.36-7.929-2.33c-0.624-0.856-1.12-1.747-1.515-2.667
					c0.163,0.125,0.393,0.242,0.76,0.354c1.106,0.337,3.141,0.331,4.415,0.063c1.275-0.268,2.4-0.177,3.026-1.324
					c0.623-1.148,0.308-3.538-0.819-3.917c-1.014-0.341-2.171-0.917-3.552-2.005c-0.773-1.348-1.463-2.745-1.765-4.359
					c-0.578-3.094,0.985-6.913,0.509-9.929c-0.411-2.604-1.756-4.54-2.824-6.668c-0.406-3.758-1.098-7.442-3.69-10.642
					c-4.578-5.654-13.679-10.367-20.523-12.129s-15.573-0.705-19.591-2.05c-3.233-1.087-2.838-2.348-3.173-3.446
					c1.183-2.176,2.255-4.189,2.893-5.992c0.757-2.127,1.185-4.614,0.359-5.273c-0.828-0.656-3.154,0.365-4.665,1.079
					c-1.512,0.716-2.471,1.656-4.187,2.854c-2.154-0.607-4.309-0.885-6.46-0.937c-1.155-1.757-1.89-3.331-2.991-4.551
					c-1.095-1.223-2.658-2.868-3.467-2.639c-0.81,0.231-1.333,2.454-1.556,4.554C24.665,28.385,24.975,30.719,25.105,33.649z"/>
				
					<linearGradient id="XMLID_12_" gradientUnits="userSpaceOnUse" x1="-262.811" y1="488.2119" x2="-227.4873" y2="480.7036" gradientTransform="matrix(1 0 0 1 284.0869 -431.6484)">
					<stop  offset="0.13" style="stop-color:#FFFFFF"/>
					<stop  offset="0.6258" style="stop-color:#E7C071"/>
					<stop  offset="0.87" style="stop-color:#BA8A2B"/>
					<a:midPointStop  offset="0.13" style="stop-color:#FFFFFF"/>
					<a:midPointStop  offset="0.5" style="stop-color:#FFFFFF"/>
					<a:midPointStop  offset="0.6258" style="stop-color:#E7C071"/>
					<a:midPointStop  offset="0.5" style="stop-color:#E7C071"/>
					<a:midPointStop  offset="0.87" style="stop-color:#BA8A2B"/>
				</linearGradient>
				<path fill-rule="evenodd" clip-rule="evenodd" fill="url(#XMLID_12_)" d="M25.163,34.042
					c2.645,7.354,6.125,13.785,15.483,13.763c-1.149,2.007-4.049,3.012-6.449,3.263c0.368,3.646,5.186,8.104,7.561,9.749
					c4.013,2.293,10.255,5.256,11.791,7.629c1.537,2.378-4.872,5.35-4.551,3.549c0.319-1.797-0.806-5.219-5.341-5.697
					c-0.861,0.289-1.719,0.571-2.58,0.86c-6.559-6.521-12.616-8.023-12.158-18.051C29.921,46.167,24.158,45.843,25.163,34.042z"/>
				
					<linearGradient id="XMLID_13_" gradientUnits="userSpaceOnUse" x1="-248.0771" y1="463.1514" x2="-251.8532" y2="478.2963" gradientTransform="matrix(1 0 0 1 284.3096 -431.7676)">
					<stop  offset="0.23" style="stop-color:#F0CD87"/>
					<stop  offset="0.4514" style="stop-color:#D6A84A"/>
					<stop  offset="0.77" style="stop-color:#A3761D"/>
					<a:midPointStop  offset="0.23" style="stop-color:#F0CD87"/>
					<a:midPointStop  offset="0.5" style="stop-color:#F0CD87"/>
					<a:midPointStop  offset="0.4514" style="stop-color:#D6A84A"/>
					<a:midPointStop  offset="0.5" style="stop-color:#D6A84A"/>
					<a:midPointStop  offset="0.77" style="stop-color:#A3761D"/>
				</linearGradient>
				<path fill-rule="evenodd" clip-rule="evenodd" fill="url(#XMLID_13_)" d="M25.784,33.712c-0.117,0.512,0.961,5.475,1.076,6.36
					c0.114,0.883,1.323,2.509,1.937,3.448c0.613,0.94,0.82,1.822,2.151,2.588c1.332,0.765,2.947,1.087,4.519,0.969
					c1.572-0.119,2.794-1.348,3.655-2.048c0.864-0.7,1.71-1.076,2.476-2.157c0.768-1.079,4.235-6.069,2.045-4.203
					c-2.19,1.865,1.035-6.042-8.286-7.651C30.395,30.161,25.901,33.2,25.784,33.712z"/>
				
					<linearGradient id="XMLID_14_" gradientUnits="userSpaceOnUse" x1="-254.9683" y1="464.0703" x2="-255.5194" y2="467.1961" gradientTransform="matrix(1 0 0 1 284.5854 -431.7061)">
					<stop  offset="0.09" style="stop-color:#FFFFFF"/>
					<stop  offset="0.213" style="stop-color:#E7C071"/>
					<stop  offset="0.91" style="stop-color:#BA8A2B"/>
					<a:midPointStop  offset="0.09" style="stop-color:#FFFFFF"/>
					<a:midPointStop  offset="0.5" style="stop-color:#FFFFFF"/>
					<a:midPointStop  offset="0.213" style="stop-color:#E7C071"/>
					<a:midPointStop  offset="0.5" style="stop-color:#E7C071"/>
					<a:midPointStop  offset="0.91" style="stop-color:#BA8A2B"/>
				</linearGradient>
				<path fill-rule="evenodd" clip-rule="evenodd" fill="url(#XMLID_14_)" d="M26.555,33.881c0.719-0.732,3.396-1.846,4.41-1.939
					c1.011-0.095,3.124,2.639,1.122,2.356c-2.002-0.286-3.873,0.678-5.287,1.602C25.387,36.822,25.833,34.614,26.555,33.881z"/>
				
					<linearGradient id="XMLID_15_" gradientUnits="userSpaceOnUse" x1="-228.2651" y1="460.3828" x2="-228.2651" y2="508.8027" gradientTransform="matrix(1 0 0 1 293.1611 -427.1973)">
					<stop  offset="0.27" style="stop-color:#FFFFFF"/>
					<stop  offset="0.4034" style="stop-color:#E7C071"/>
					<stop  offset="0.73" style="stop-color:#BA8A2B"/>
					<a:midPointStop  offset="0.27" style="stop-color:#FFFFFF"/>
					<a:midPointStop  offset="0.5" style="stop-color:#FFFFFF"/>
					<a:midPointStop  offset="0.4034" style="stop-color:#E7C071"/>
					<a:midPointStop  offset="0.5" style="stop-color:#E7C071"/>
					<a:midPointStop  offset="0.73" style="stop-color:#BA8A2B"/>
				</linearGradient>
				<path fill-rule="evenodd" clip-rule="evenodd" fill="url(#XMLID_15_)" d="M50.471,46.458c-0.972,6.573-3.636,2.751-6.164,5.622
					c-2.525,2.874,3.159,1.007,6.747,4.709c3.587,3.7,0.71-4.228,2.192-7c1.427-0.861,1.958-2.776,5.376-2.585
					c1.28,0.074-0.453,5.273,1.016,5.464c2.454,0.316,8.496-4.072,13.218-1.771c1.479,1.171,3.146,1.245,4.626,2.416
					c-6.508,0.7-21.61,4.331-21.036,12.339c3.95-4.973,20.019-9.397,22.459-7.747c-0.052,5.612-2.923,9.327-10.241,7.84
					c-7.318-1.492-3.124,2.429-0.667,4.887c2.457,2.457,4.799,2.438,8.018,0.896c3.218-1.541,2.231-8.015,5.211-8.479
					c2.982-0.468,3.121,1.907,4.72,4.726c1.6,2.824,2.019,10.254,3.375,13.83c1.048-6.568,0.553-13.784-0.37-20.348
					c0.746-4.694-1.662-7.159-3.884-8.878c-4.317-2.963-8.755-5.801-14.06-7.771c-4.905-1.449-10.271-2.435-16.65-2.405
					c-7.313-0.566-8.421-1.904-9.854-4.273c0.092,0.123-2.713-2.304-3.476-4.069c-0.932-2.165-1.675,1.49-1.073,1.828
					c0.321,0.18,4.107,3.917,4.398,6.017c0.128,2.059-2.263,4.181-1.625,4.77C44.427,48.042,48.284,41.354,50.471,46.458z"/>
				
					<linearGradient id="XMLID_16_" gradientUnits="userSpaceOnUse" x1="-253.0015" y1="472.4189" x2="-252.3771" y2="467.9765" gradientTransform="matrix(1 0 0 1 286.8555 -430.2598)">
					<stop  offset="0.17" style="stop-color:#FFFFFF"/>
					<stop  offset="0.4274" style="stop-color:#E7C071"/>
					<stop  offset="0.83" style="stop-color:#BA8A2B"/>
					<a:midPointStop  offset="0.17" style="stop-color:#FFFFFF"/>
					<a:midPointStop  offset="0.5" style="stop-color:#FFFFFF"/>
					<a:midPointStop  offset="0.4274" style="stop-color:#E7C071"/>
					<a:midPointStop  offset="0.5" style="stop-color:#E7C071"/>
					<a:midPointStop  offset="0.83" style="stop-color:#BA8A2B"/>
				</linearGradient>
				<path fill-rule="evenodd" clip-rule="evenodd" fill="url(#XMLID_16_)" d="M32.669,38.781c0.308-1.13,3.413-0.785,3.228,0.646
					c-0.188,1.43-1.038,1.967-1.506,2.694c-0.468,0.73-2.045,0.961-1.827,0C32.781,41.159,32.362,39.909,32.669,38.781z"/>
				
					<linearGradient id="XMLID_17_" gradientUnits="userSpaceOnUse" x1="-251.0649" y1="468.1475" x2="-252.3508" y2="474.7625" gradientTransform="matrix(1 0 0 1 289.7793 -430.1914)">
					<stop  offset="0.24" style="stop-color:#FFFFFF"/>
					<stop  offset="0.396" style="stop-color:#E7C071"/>
					<stop  offset="0.76" style="stop-color:#BA8A2B"/>
					<a:midPointStop  offset="0.24" style="stop-color:#FFFFFF"/>
					<a:midPointStop  offset="0.5" style="stop-color:#FFFFFF"/>
					<a:midPointStop  offset="0.396" style="stop-color:#E7C071"/>
					<a:midPointStop  offset="0.5" style="stop-color:#E7C071"/>
					<a:midPointStop  offset="0.76" style="stop-color:#BA8A2B"/>
				</linearGradient>
				<path fill-rule="evenodd" clip-rule="evenodd" fill="url(#XMLID_17_)" d="M40.565,37.599c1.079,0.324,0.899,2.824,0.202,3.331
					c-0.694,0.507-1.871-0.114-2.893,0.237c-0.234,0.041,2.508,1.414,0.583,3.609c-3.443,0.751-3.649-1.253-3.235-2.375
					c0.093-0.136,1.293-1.912,1.323-3.478C37.155,37.787,39.492,37.271,40.565,37.599z"/>
				
					<linearGradient id="XMLID_18_" gradientUnits="userSpaceOnUse" x1="-255.1655" y1="457.6768" x2="-256.722" y2="463.9195" gradientTransform="matrix(1 0 0 1 284.7339 -432.5)">
					<stop  offset="0.21" style="stop-color:#F0CD87"/>
					<stop  offset="0.4478" style="stop-color:#D6A84A"/>
					<stop  offset="0.79" style="stop-color:#A3761D"/>
					<a:midPointStop  offset="0.21" style="stop-color:#F0CD87"/>
					<a:midPointStop  offset="0.5" style="stop-color:#F0CD87"/>
					<a:midPointStop  offset="0.4478" style="stop-color:#D6A84A"/>
					<a:midPointStop  offset="0.5" style="stop-color:#D6A84A"/>
					<a:midPointStop  offset="0.79" style="stop-color:#A3761D"/>
				</linearGradient>
				<path fill-rule="evenodd" clip-rule="evenodd" fill="url(#XMLID_18_)" d="M26.969,31.667c0.07-2.228-0.954-6.095,0.212-6.684
					c1.171-0.585,2.44,3.236,3.661,4.851C29.188,29.904,28.042,30.733,26.969,31.667z"/>
				
					<linearGradient id="XMLID_19_" gradientUnits="userSpaceOnUse" x1="-213.9688" y1="466.9082" x2="-215.525" y2="473.1501" gradientTransform="matrix(-1.0189 -0.3874 -0.3874 1.0189 6.4759 -530.8416)">
					<stop  offset="0.22" style="stop-color:#F0CD87"/>
					<stop  offset="0.4496" style="stop-color:#D6A84A"/>
					<stop  offset="0.78" style="stop-color:#A3761D"/>
					<a:midPointStop  offset="0.22" style="stop-color:#F0CD87"/>
					<a:midPointStop  offset="0.5" style="stop-color:#F0CD87"/>
					<a:midPointStop  offset="0.4496" style="stop-color:#D6A84A"/>
					<a:midPointStop  offset="0.5" style="stop-color:#D6A84A"/>
					<a:midPointStop  offset="0.78" style="stop-color:#A3761D"/>
				</linearGradient>
				<path fill-rule="evenodd" clip-rule="evenodd" fill="url(#XMLID_19_)" d="M43.758,35.414c0.79-2.298,3.333-5.842,2.369-6.894
					c-0.964-1.051-3.737,2.136-5.608,3.312C42.177,32.544,43.024,34.044,43.758,35.414z"/>
				
					<linearGradient id="XMLID_20_" gradientUnits="userSpaceOnUse" x1="-208.6846" y1="471.5908" x2="-210.5138" y2="477.9702" gradientTransform="matrix(-0.9791 -0.1369 -0.2198 0.9906 -71.0697 -458.2182)">
					<stop  offset="0.23" style="stop-color:#FFFFFF"/>
					<stop  offset="0.392" style="stop-color:#E7C071"/>
					<stop  offset="0.77" style="stop-color:#BA8A2B"/>
					<a:midPointStop  offset="0.23" style="stop-color:#FFFFFF"/>
					<a:midPointStop  offset="0.5" style="stop-color:#FFFFFF"/>
					<a:midPointStop  offset="0.392" style="stop-color:#E7C071"/>
					<a:midPointStop  offset="0.5" style="stop-color:#E7C071"/>
					<a:midPointStop  offset="0.77" style="stop-color:#BA8A2B"/>
				</linearGradient>
				<path fill-rule="evenodd" clip-rule="evenodd" fill="url(#XMLID_20_)" d="M28.181,36.662c-1.125,0.172-1.501,2.675-0.929,3.271
					c0.569,0.597,1.857,0.145,2.778,0.632c0.223,0.071-2.765,1.057-1.362,3.495c3.208,1.215,3.851-0.741,3.693-1.909
					c-0.06-0.147-0.85-2.073-0.534-3.628C31.479,37.313,29.306,36.485,28.181,36.662z"/>
				<path fill-rule="evenodd" clip-rule="evenodd" d="M32.362,41.172c0.406-0.027,0.85,0.463,1.329,0.55
					c0.474,0.085,1.095-0.188,1.462-0.046c0.368,0.139,0.305,0.518,0.458,0.779c-0.798,0.297-1.566,0.632-2.241,1.054
					c-0.442-0.618-1.052-1.155-1.738-1.651C31.876,41.63,31.958,41.199,32.362,41.172z"/>
				<path fill-rule="evenodd" clip-rule="evenodd" fill="#663333" d="M25.105,33.652c-0.13-2.93-0.441-5.267-0.223-7.277
					c0.223-2.103,0.746-4.325,1.552-4.554c0.812-0.231,2.373,1.414,3.47,2.637c1.101,1.223,1.835,2.794,2.991,4.554
					c2.151,0.049,4.306,0.327,6.46,0.938c1.713-1.199,2.675-2.141,4.187-2.854c1.511-0.716,3.837-1.738,4.665-1.079
					c0.826,0.66,0.398,3.144-0.359,5.273c-0.64,1.804-1.71,3.816-2.893,5.99c0.335,1.101-0.06,2.361,3.17,3.446
					c4.018,1.348,12.747,0.291,19.594,2.05c6.845,1.762,15.945,6.475,20.523,12.129c2.593,3.203,3.284,6.884,3.69,10.642
					c1.068,2.13,2.413,4.066,2.824,6.671c0.477,3.016-1.087,6.832-0.509,9.928c0.302,1.615,0.991,3.01,1.765,4.357
					c1.381,1.09,2.538,1.664,3.549,2.005c1.13,0.379,1.445,2.769,0.819,3.917c-0.623,1.149-1.751,1.057-3.023,1.324
					c-1.274,0.27-3.309,0.278-4.415-0.063c-0.367-0.111-0.597-0.225-0.76-0.351c0.395,0.917,0.891,1.808,1.515,2.664
					c1.964,2.69,5.723,1.228,7.929,2.33c2.034,1.019,1.683,5.212-0.531,5.85c-1.614,0.463-4.47,0.604-6.79,0
					c-9.355-2.446-9.704-10-11.354-17.544c-0.336-1.528-0.622-2.904-0.91-4.298c-2.715,0.544-5.902-0.305-8.8-0.54
					c-1.297-0.223-2.158,0.167-2.177,2.501c0.071,2.302,1.032,3.47-0.213,5.101c-1.247,1.636-2.995,2.511-5.411,1.488
					c-2.416-1.023-7.105-3.101-8.809-4.517c-2.519-2.092,0.532-4.875,2.334-5.05c1.008-0.098,1.96,0.104,2.718,0.397
					c-2.963-2.611-5.562-5.519-6.118-9.527c-0.005,0.006-0.008,0.014-0.014,0.02c-0.993,1.433-3.211,2.013-3.919,3.094
					c-0.713,1.081,0.667,2.937-0.12,4.168c-0.787,1.229-1.612,1.947-3.562,1.903c-1.22-0.027-2.119,0.379-3.208-0.191
					c-0.653-0.34-1.705-1.421-2.021-2.072c-0.747-1.527,0.441-2.43,1.574-3.082c-0.665-0.624-1.242-1.281-1.552-2.044
					c-0.725-1.775,0.882-3.222,0.321-5.256c-0.032-0.128-0.071-0.259-0.115-0.396c-0.059-0.011-0.125-0.027-0.185-0.043
					c-2.792,2.638-5.749,5.277-8.533,7.917c-1.474,1.446-2.149,3.44-4.143,4.058c-1.994,0.621-4.993-0.31-6.352-0.737
					c-1.362-0.428-1.982-0.474-1.658-1.477c0.324-1.002,1.925-2.383,3.037-2.767c1.114-0.382,1.906,0.493,2.854,0.74
					c2.361-4.339,4.723-8.68,7.082-13.016c-0.272-0.207-0.54-0.414-0.804-0.626c-1.896-2.141-4.099-3.236-5.319-5.776
					c-1.215-2.539-0.566-6.044-0.272-8.533c-2.497-3.331-3.981-8.049-4.407-10.505C23.924,35.684,24.624,34.812,25.105,33.652
					 M28.614,35.36c0.542-0.333,0.97-1.002,1.629-0.994c0.654,0.005,1.332,0.152,1.746,1.032c0.414,0.882,0.346,2.52,0.515,3.781
					c-0.289-0.373-0.297-0.886-0.872-1.114c-0.577-0.231-1.737,0.082-2.304-0.161c-0.563-0.24-0.629-0.708-0.751-1.152
					C28.451,36.308,28.603,35.823,28.614,35.36 M40.974,37.806c-0.382-0.509-0.529-1.291-1.139-1.528
					c-0.616-0.237-1.297-0.354-2.01,0.308c-0.713,0.662-1.258,2.207-1.89,3.312c0.414-0.234,0.61-0.708,1.228-0.708
					c0.619,0.003,1.583,0.728,2.195,0.714c0.613-0.014,0.853-0.423,1.13-0.791C40.772,38.748,40.811,38.242,40.974,37.806
					 M81.869,81.501c-0.226-1.099-0.458-2.231-0.724-3.481c-0.671-3.17-1.397-2.448-2.035-5.921c0.956,3.365,2.195,2.467,2.99,5.602
					c0.796,3.138,1.308,5.761,1.912,8.72c1.346,6.588,2.072,14.526,10.718,16.583c2.016,0.482,4.669,0.153,5.941-0.105
					c1.187-0.239,1.543-3.001,0.424-3.403c-2.446-0.873-5.81,0.453-8.016-2.254c-3.854-4.733-3.552-12.093-4.08-17.838
					c-0.425-4.592,1.609-10.275,0.044-15.911c2.849,4.977,0.509,10.599,1.054,15.062c0.482,3.933,0.297,7.979,1.122,11.723
					c0.469,0.743,0.81,1.385,1.662,1.893c1.195,0.715,3.085,0.728,4.224,0.629c1.139-0.095,1.834-0.042,2.331-0.882
					c0.499-0.836,0.161-2.391-0.504-2.652c-0.556-0.219-1.211-0.62-2.021-1.246c0.428,0.723,0.85,1.45,1.213,2.208
					c-1.653-2.717-4.211-5.054-4.955-8.147c-0.746-3.094,0.926-6.985,0.698-9.543c-0.194-2.18-1.044-3.296-1.708-4.706
					c0.2,2.123,0.418,4.245,0.934,6.291c-1.929-6.032-1.236-12.752-5.782-18.098c-4.549-5.344-13.452-9.881-19.779-11.94
					c-6.328-2.059-15.208-1.048-19.218-2.054c-4.009-1.002-2.427-0.986-3.483-1.917c0.065,2.117-0.343,3.546-1.117,4.965
					s-2.179,1.618-3.051,2.364c0.624-1.183,1.65-1.544,2.305-3.293c0.506-1.354,1.01-3.505,1.326-5.708
					c-0.542-2.149-1.806-4.65-3.075-6.303c1.166,0.82,2.642,2.057,3.236,4.029c0.953-1.877,1.944-3.209,2.473-4.756
					c0.528-1.547,1.105-4.055,0.534-4.51c-0.575-0.453-2.693,0.675-3.919,1.318c-1.229,0.646-2.073,1.833-3.59,2.833
					c-2.58-0.569-5.178-1.07-7.896-1.079c-1.035-1.678-1.746-3.355-2.631-4.524c-0.883-1.171-1.983-2.77-2.631-2.585
					c-0.648,0.188-0.833,2.598-0.956,4.233c-0.123,1.631,0.172,2.538,0.292,4.935c1.076-0.915,2.31-1.944,3.543-2.051
					c-1.255,0.926-2.547,2.23-3.732,3.328c-0.274,1.119-1.067,3.568-0.591,4.908c0.85,2.377,1.452,5.488,4.314,9.304
					c1.144,0.825,2.462,1.315,3.851,1.65c-1.345,0.062-2.459-0.123-3.802-0.55c-0.419,1.86-0.754,4.796,0.414,7.065
					c1.166,2.269,3.143,3.45,5.039,5.405c1.626,1.628,5.472,4.293,7.457,6.262c-0.675-1.876-1.737-4.143-2.674-5.848
					c1.58,1.972,3.514,4.724,4.304,6.677c0.787,1.955-0.812,3.24-0.327,5.034c0.49,1.799,2.086,3.507,3.127,5.258
					c-0.755-0.785-1.7-1.492-2.539-2.248c-0.509,0.837-1.296,1.393-0.787,2.411c0.258,0.521,0.907,1.285,1.569,1.525
					c0.85,0.311,1.79,0.021,2.655,0.021c1.536,0,1.825-0.089,2.375-1.19c0.376-0.757-0.223-1.806-0.397-2.786
					c-0.038-0.224-2.076,0.33-2.054,0.12c0.021-0.213,2.1-1.19,2.212-1.381c0.73-1.226,3.608-2.149,4.636-3.688
					c1.024-1.542,1.305-1.381,1.305-4.288c0-2.906-1.027-7.378-1.545-11.064c0.506,2.225,1.27,4.618,1.823,6.873
					c0.256-1.078,0.964-2.271,2.631-3.699c4.417-3.779,9.895-3.853,14.675-5.16c-4.96,2.125-10.456,3.015-13.664,6.07
					c-2.022,1.928-2.621,4.232-2.991,6.515c0.008,0.12,0.017,0.233,0.022,0.349c0.098,2.171-0.137,3.202-0.605,4.085
					c0.779,5.007,4.886,8.944,8.231,13.237c-0.724-0.599-1.455-1.201-2.176-1.813c-1.026-0.073-2.383-0.281-3.249-0.088
					c-1.264,0.286-3.835,1.446-1.645,3.402c1.47,1.316,6.128,3.516,8.384,4.252c2.257,0.735,3.112,0.274,4.033-1.221
					c0.921-1.496,0.283-2.445,0.158-4.573c0.092-3.277,1.407-3.323,2.654-3.562C75.589,81.062,79.012,81.68,81.869,81.501
					 M41.044,67.258c-1.334,2.646-4.62,5.295-7.457,8.209c-1.226,1.108-2.065,3.188-3.775,3.691
					c-1.708,0.501-4.816-0.096-5.981-0.739c-1.171-0.642,0.398-1.574,1.286-1.844c0.888-0.27,2.151,0.49,3.225,0.739
					c2.767-4.307,5.109-9.125,7.844-13.469C37.79,64.995,39.459,66.084,41.044,67.258"/>
				<path fill-rule="evenodd" clip-rule="evenodd" fill="#FFFFFF" d="M29.049,35.717c0.071-0.523,0.45-0.763,0.954-0.754
					c0.507,0.005,1.277,0.329,1.628,0.795c0.352,0.463,0.322,1.106-0.158,1.55c-0.479,0.443-1.231,0.4-1.828,0.041
					C29.049,36.986,28.979,36.24,29.049,35.717z"/>
				<g>
					<path fill-rule="evenodd" clip-rule="evenodd" d="M29.586,35.556c0.095-0.474,0.409-0.688,0.804-0.684
						c0.398,0.006,0.981,0.3,1.22,0.722c0.24,0.419,0.169,1.002-0.239,1.403c-0.415,0.403-0.998,0.362-1.438,0.038
						C29.491,36.706,29.491,36.03,29.586,35.556z"/>
					<path fill-rule="evenodd" clip-rule="evenodd" fill="#FFFFFF" d="M29.796,35.651c0.035-0.183,0.158-0.264,0.311-0.261
						c0.153,0,0.376,0.114,0.468,0.278c0.093,0.16,0.065,0.383-0.092,0.539c-0.158,0.155-0.384,0.139-0.556,0.013
						C29.758,36.095,29.758,35.833,29.796,35.651z"/>
				</g>
				<path fill-rule="evenodd" clip-rule="evenodd" fill="#FFFFFF" d="M40.435,37.975c0.13-0.512-0.131-0.875-0.604-1.057
					c-0.469-0.182-1.308-0.168-1.806,0.131c-0.498,0.299-0.71,0.907-0.433,1.498c0.283,0.591,0.994,0.831,1.683,0.719
					C39.96,39.154,40.304,38.487,40.435,37.975z"/>
				<g>
					<path fill-rule="evenodd" clip-rule="evenodd" d="M37.907,37.628c-0.016-0.476,0.24-0.795,0.632-0.934
						c0.39-0.144,1.03-0.09,1.368,0.213c0.335,0.299,0.403,0.866,0.093,1.392c-0.308,0.526-0.894,0.708-1.406,0.572
						C38.084,38.729,37.926,38.103,37.907,37.628z"/>
					<path fill-rule="evenodd" clip-rule="evenodd" fill="#FFFFFF" d="M38.136,37.637c-0.005-0.183,0.093-0.305,0.243-0.359
						c0.149-0.055,0.395-0.032,0.525,0.084c0.131,0.115,0.155,0.333,0.038,0.534c-0.12,0.204-0.346,0.272-0.542,0.22
						C38.204,38.062,38.141,37.822,38.136,37.637z"/>
				</g>
			</g>
			<g>
				
					<radialGradient id="XMLID_21_" cx="108.4668" cy="118.249" r="34.7364" fx="108.4668" fy="118.249" gradientUnits="userSpaceOnUse">
					<stop  offset="0" style="stop-color:#000000"/>
					<stop  offset="1" style="stop-color:#000000"/>
					<a:midPointStop  offset="0" style="stop-color:#000000"/>
					<a:midPointStop  offset="0.5" style="stop-color:#000000"/>
					<a:midPointStop  offset="1" style="stop-color:#000000"/>
				</radialGradient>
				<path opacity="0.1" fill="url(#XMLID_21_)" d="M85.191,90.976v35.754h1.793l33.639-33.639v-2.115H85.191z"/>
				<path fill="#FFFFFF" d="M87.537,126.948l33.627-33.627H87.537V126.948z"/>
				<linearGradient id="XMLID_22_" gradientUnits="userSpaceOnUse" x1="104.0166" y1="98.1807" x2="95.0883" y2="135.7938">
					<stop  offset="0" style="stop-color:#FFFFFF"/>
					<stop  offset="1" style="stop-color:#CCCCCC"/>
					<a:midPointStop  offset="0" style="stop-color:#FFFFFF"/>
					<a:midPointStop  offset="0.5" style="stop-color:#FFFFFF"/>
					<a:midPointStop  offset="1" style="stop-color:#CCCCCC"/>
				</linearGradient>
				<path fill="url(#XMLID_22_)" d="M89.865,125.056l29.594-29.592H89.865V125.056z"/>
				<linearGradient id="XMLID_23_" gradientUnits="userSpaceOnUse" x1="82.3086" y1="88.0928" x2="96.1043" y2="101.8885">
					<stop  offset="0" style="stop-color:#B3B3B3"/>
					<stop  offset="1" style="stop-color:#828282"/>
					<a:midPointStop  offset="0" style="stop-color:#B3B3B3"/>
					<a:midPointStop  offset="0.5" style="stop-color:#B3B3B3"/>
					<a:midPointStop  offset="1" style="stop-color:#828282"/>
				</linearGradient>
				<path fill="url(#XMLID_23_)" d="M87.537,92.821c-0.277,0-0.5,0.223-0.5,0.5v33.627c0,0.203,0.121,0.385,0.309,0.463
					c0.186,0.076,0.402,0.033,0.545-0.109l33.627-33.627c0.143-0.145,0.186-0.359,0.109-0.545c-0.078-0.188-0.26-0.309-0.463-0.309
					H87.537z M119.957,93.821c-1.58,1.578-30.342,30.34-31.92,31.92c0-2.209,0-30.986,0-31.92
					C88.971,93.821,117.748,93.821,119.957,93.821z"/>
			</g>
		</g>
		<path fill="none" d="M128,128H0V0h128V128z"/>
	</g>
</svg>
