<?xml version="1.0" encoding="UTF-8" standalone="no"?>
<!-- Generator: Adobe Illustrator 10.0.3, SVG Export Plug-In . SVG Version: 3.0.0 Build 77)  -->
<svg
   xmlns:a="http://ns.adobe.com/AdobeSVGViewerExtensions/3.0/"
   xmlns:dc="http://purl.org/dc/elements/1.1/"
   xmlns:cc="http://web.resource.org/cc/"
   xmlns:rdf="http://www.w3.org/1999/02/22-rdf-syntax-ns#"
   xmlns:svg="http://www.w3.org/2000/svg"
   xmlns="http://www.w3.org/2000/svg"
   xmlns:xlink="http://www.w3.org/1999/xlink"
   xmlns:sodipodi="http://inkscape.sourceforge.net/DTD/sodipodi-0.dtd"
   xmlns:inkscape="http://www.inkscape.org/namespaces/inkscape"
   width="128"
   height="128"
   viewBox="0 0 128 128"
   overflow="visible"
   enable-background="new 0 0 128 128"
   xml:space="preserve"
   id="svg1866"
   sodipodi:version="0.32"
   inkscape:version="0.43"
   sodipodi:docname="mime-presentation.svg"
   sodipodi:docbase="/home/eric/anakeen/what/app/WorkSpace/Images/mime/svg"
   inkscape:export-filename="/home/eric/anakeen/what/app/WorkSpace/Images/mime/png/mime-presentation.png"
   inkscape:export-xdpi="56.25"
   inkscape:export-ydpi="56.25"><metadata
   id="metadata2077"><rdf:RDF><cc:Work
       rdf:about=""><dc:format>image/svg+xml</dc:format><dc:type
         rdf:resource="http://purl.org/dc/dcmitype/StillImage" /></cc:Work></rdf:RDF></metadata><defs
   id="defs2075"><linearGradient
   id="linearGradient2389"
   x1="204.76241"
   x2="202.27575"
   xlink:href="#linearGradient1722"
   y1="224.49793"
   y2="280.36687"
   gradientTransform="scale(1.059808,0.943567)"
   gradientUnits="userSpaceOnUse" /><linearGradient
   inkscape:collect="always"
   xlink:href="#linearGradient1722"
   id="linearGradient2299"
   x1="204.76241"
   y1="224.49793"
   x2="202.27575"
   y2="280.36687"
   gradientTransform="scale(1.059808,0.943567)"
   gradientUnits="userSpaceOnUse" /><linearGradient
   id="linearGradient2441"
   x1="86.698266"
   x2="80.221137"
   xlink:href="#linearGradient1722"
   y1="-98.280071"
   y2="-45.06258"
   gradientTransform="scale(1.055404,0.947504)"
   gradientUnits="userSpaceOnUse" /><linearGradient
   inkscape:collect="always"
   xlink:href="#linearGradient1722"
   id="linearGradient2297"
   x1="103.77222"
   y1="-110.71574"
   x2="97.00002"
   y2="-55.073885"
   gradientTransform="scale(1.198705,0.834234)"
   gradientUnits="userSpaceOnUse" /><linearGradient
   inkscape:collect="always"
   xlink:href="#linearGradient1722"
   id="linearGradient2295"
   x1="204.76241"
   y1="224.49793"
   x2="202.27575"
   y2="280.36687"
   gradientTransform="scale(1.059808,0.943567)"
   gradientUnits="userSpaceOnUse" /><linearGradient
   inkscape:collect="always"
   xlink:href="#linearGradient1722"
   id="linearGradient2293"
   x1="60.582246"
   y1="-101.17698"
   x2="53.748589"
   y2="-45.030174"
   gradientTransform="scale(1.106029,0.904136)"
   gradientUnits="userSpaceOnUse" /><linearGradient
   id="linearGradient3022"
   x1="590.36191"
   x2="587.34625"
   xlink:href="#linearGradient1515"
   y1="36.236439"
   y2="89.851781"
   gradientTransform="scale(0.772622,1.294294)"
   gradientUnits="userSpaceOnUse" /><linearGradient
   id="linearGradient1515"><stop
     id="stop1516"
     offset="0.0000000"
     style="stop-color:#ffffff;stop-opacity:1.0000000;" /><stop
     id="stop1517"
     offset="1.0000000"
     style="stop-color:#ffffff;stop-opacity:0.0000000;" /></linearGradient><linearGradient
   id="linearGradient1657"
   x1="538.13641"
   x2="535.01955"
   xlink:href="#linearGradient1515"
   y1="61.730895"
   y2="88.248521"
   gradientTransform="scale(0.911868,1.09665)"
   gradientUnits="userSpaceOnUse" /><linearGradient
   id="linearGradient2391"
   x1="65.357729"
   x2="52.744212"
   xlink:href="#linearGradient1722"
   y1="66.159141"
   y2="99.99037"
   gradientTransform="scale(1.448134,0.690544)"
   gradientUnits="userSpaceOnUse" /><linearGradient
   id="linearGradient3129"
   x1="72.938399"
   x2="59.364239"
   xlink:href="#linearGradient1722"
   y1="72.557041"
   y2="115.14878"
   gradientTransform="scale(1.337382,0.747729)"
   gradientUnits="userSpaceOnUse" /><linearGradient
   id="linearGradient1518"><stop
     id="stop1519"
     offset="0.0000000"
     style="stop-color:#000000;stop-opacity:0.70056498;" /><stop
     id="stop1520"
     offset="1.0000000"
     style="stop-color:#000000;stop-opacity:0.0000000;" /></linearGradient><linearGradient
   id="linearGradient1512"
   x1="154.2018"
   x2="87.614309"
   xlink:href="#linearGradient1518"
   y1="104.77988"
   y2="138.92008"
   gradientTransform="scale(0.965525,1.035706)"
   gradientUnits="userSpaceOnUse" /><linearGradient
   id="linearGradient1638"
   x1="137.70742"
   x2="123.19006"
   xlink:href="#linearGradient1722"
   y1="66.431586"
   y2="73.780994"
   gradientTransform="scale(0.740956,1.349609)"
   gradientUnits="userSpaceOnUse" /><radialGradient
   cx="24.825565"
   cy="176.56437"
   fx="30.80272"
   fy="141.28563"
   id="radialGradient1528"
   r="51.667703"
   xlink:href="#linearGradient1806"
   gradientUnits="userSpaceOnUse" /><radialGradient
   inkscape:collect="always"
   xlink:href="#linearGradient1806"
   id="radialGradient2291"
   cx="24.825565"
   cy="176.56437"
   fx="30.80272"
   fy="141.28563"
   r="51.667703"
   gradientUnits="userSpaceOnUse" /><radialGradient
   inkscape:collect="always"
   xlink:href="#linearGradient1806"
   id="radialGradient2289"
   cx="24.825565"
   cy="176.56437"
   fx="30.80272"
   fy="141.28563"
   r="51.667703"
   gradientUnits="userSpaceOnUse" /><linearGradient
   id="linearGradient1722"><stop
     id="stop1723"
     offset="0.0000000"
     style="stop-color:#ffffff;stop-opacity:1.0000000;" /><stop
     id="stop1724"
     offset="1.0000000"
     style="stop-color:#ffffff;stop-opacity:0.0000000;" /></linearGradient><linearGradient
   id="linearGradient2403"
   x1="101.22418"
   x2="69.199883"
   xlink:href="#linearGradient1722"
   y1="289.49568"
   y2="387.13226"
   gradientTransform="scale(1.317832,0.758822)"
   gradientUnits="userSpaceOnUse" /><linearGradient
   id="linearGradient1806"><stop
     id="stop1807"
     offset="0.0000000"
     style="stop-color:#000000;stop-opacity:0.40784314;" /><stop
     id="stop3276"
     offset="0.64777780"
     style="stop-color:#000000;stop-opacity:0.079096042;" /><stop
     id="stop1808"
     offset="1.0000000"
     style="stop-color:#000000;stop-opacity:0.0000000;" /></linearGradient><linearGradient
   id="linearGradient1625"
   x1="78.88083"
   x2="75.335429"
   xlink:href="#linearGradient1806"
   y1="312.33929"
   y2="354.64013"
   gradientTransform="scale(1.130379,0.884659)"
   gradientUnits="userSpaceOnUse" /><linearGradient
   id="linearGradient1544"><stop
     id="stop1545"
     offset="0.0000000"
     style="stop-color:#3075a7;stop-opacity:1.0000000;" /><stop
     id="stop1547"
     offset="0.43156424"
     style="stop-color:#9aadbc;stop-opacity:1.0000000;" /><stop
     id="stop2180"
     offset="0.84995461"
     style="stop-color:#dce0e3;stop-opacity:1.0000000;" /><stop
     id="stop1546"
     offset="1.0000000"
     style="stop-color:#eeeeee;stop-opacity:1.0000000;" /></linearGradient><linearGradient
   id="linearGradient1543"
   x1="92.725091"
   x2="78.425955"
   xlink:href="#linearGradient1544"
   y1="280.7876"
   y2="390.64889"
   gradientTransform="scale(1.130379,0.884659)"
   gradientUnits="userSpaceOnUse" />
		
		
	
			
			<linearGradient
   id="XMLID_4_"
   gradientUnits="userSpaceOnUse"
   x1="92.677696"
   y1="10.6509"
   x2="-23.9856"
   y2="10.6509">
				<stop
   offset="0"
   style="stop-color:#0095FF"
   id="stop1903" />
				<stop
   offset="1"
   style="stop-color:#00E1FF"
   id="stop1905" />
				<a:midPointStop
   offset="0"
   style="stop-color:#0095FF" />
				<a:midPointStop
   offset="0.5"
   style="stop-color:#0095FF" />
				<a:midPointStop
   offset="1"
   style="stop-color:#00E1FF" />
			</linearGradient>
			
			
			
			
		</defs><sodipodi:namedview
   inkscape:window-height="718"
   inkscape:window-width="816"
   inkscape:pageshadow="2"
   inkscape:pageopacity="0.0"
   borderopacity="1.0"
   bordercolor="#666666"
   pagecolor="#ffffff"
   id="base"
   showguides="true"
   inkscape:guide-bbox="true"
   inkscape:zoom="2.9296875"
   inkscape:cx="64"
   inkscape:cy="64"
   inkscape:window-x="0"
   inkscape:window-y="34"
   inkscape:current-layer="svg1866" />
	<g
   id="g1871">
				<path
   d="M 121.164,1.052 L 6.836,1.052 L 6.836,126.948 L 87.537,126.948 L 121.164,93.321 L 121.164,1.052 L 121.164,1.052 z "
   id="path1873"
   style="fill:#ffffff" />
				<linearGradient
   id="XMLID_1_"
   gradientUnits="userSpaceOnUse"
   x1="63.920399"
   y1="154.5645"
   x2="63.920399"
   y2="-100.9347">
					<stop
   offset="0"
   style="stop-color:#FFFFFF"
   id="stop1876" />
					<stop
   offset="0.258"
   style="stop-color:#F1F1F1"
   id="stop1878" />
					<stop
   offset="0.7396"
   style="stop-color:#CECECE"
   id="stop1880" />
					<stop
   offset="0.8595"
   style="stop-color:#C4C4C4"
   id="stop1882" />
					<a:midPointStop
   offset="0"
   style="stop-color:#FFFFFF" />
					<a:midPointStop
   offset="0.5674"
   style="stop-color:#FFFFFF" />
					<a:midPointStop
   offset="0.8595"
   style="stop-color:#C4C4C4" />
				</linearGradient>
				<path
   d="M 117.734,4.019 L 10.266,4.019 L 10.106,126.673 L 86.563,126.673 L 117.735,95.421 L 117.735,4.019 L 117.734,4.019 z "
   id="path1884"
   style="fill:url(#XMLID_1_)" />
				<linearGradient
   id="XMLID_2_"
   gradientUnits="userSpaceOnUse"
   x1="-26.333"
   y1="-26.333"
   x2="56.166199"
   y2="56.166199">
					<stop
   offset="0"
   style="stop-color:#B3B3B3"
   id="stop1887" />
					<stop
   offset="1"
   style="stop-color:#828282"
   id="stop1889" />
					<a:midPointStop
   offset="0"
   style="stop-color:#B3B3B3" />
					<a:midPointStop
   offset="0.5"
   style="stop-color:#B3B3B3" />
					<a:midPointStop
   offset="1"
   style="stop-color:#828282" />
				</linearGradient>
				<path
   d="M 121.164,0.552 L 6.336,0.552 L 6.336,127.448 L 87.744,127.448 L 121.664,93.528 L 121.664,0.552 L 121.164,0.552 z M 120.664,1.552 C 120.664,2.539 120.664,92.704 120.664,93.114 C 120.375,93.403 87.619,126.159 87.33,126.448 C 86.92,126.448 8.32,126.448 7.336,126.448 C 7.336,125.46 7.336,2.539 7.336,1.552 C 8.322,1.552 119.678,1.552 120.664,1.552 z "
   id="path1891"
   style="fill:url(#XMLID_2_)" />
				<linearGradient
   id="XMLID_3_"
   gradientUnits="userSpaceOnUse"
   x1="43.0229"
   y1="25.4214"
   x2="204.00729"
   y2="111.0652">
					<stop
   offset="0"
   style="stop-color:#FFFFFF"
   id="stop1894" />
					<stop
   offset="0.5033"
   style="stop-color:#E7E7E7"
   id="stop1896" />
					<stop
   offset="1"
   style="stop-color:#D4D4D4"
   id="stop1898" />
					<a:midPointStop
   offset="0"
   style="stop-color:#FFFFFF" />
					<a:midPointStop
   offset="0.452"
   style="stop-color:#FFFFFF" />
					<a:midPointStop
   offset="1"
   style="stop-color:#D4D4D4" />
				</linearGradient>
				<path
   d="M 118.006,15.223 L 118.006,3.94 L 10.199,3.94 L 10.103,69.28 C 20.078,73.827 31.254,76.376 43.057,76.376 C 80.402,76.376 111.455,48.876 118.006,15.223 z "
   id="path1900"
   style="fill:url(#XMLID_3_)" />
			</g><path
   d="M 117.397,17.023 L 10.013,17.023 L 10.013,4.279 L 117.398,4.279 L 117.398,17.023 L 117.397,17.023 z "
   id="path1907"
   style="fill:url(#XMLID_4_)" /><path
   d="M 21.278,13.387 C 21.254,13.354 21.212,13.34 21.173,13.351 C 21.173,13.351 20.858,13.443 20.759,13.472 C 20.687,13.368 19.917,12.257 19.917,12.257 C 19.899,12.231 19.869,12.215 19.837,12.215 C 19.805,12.215 19.775,12.231 19.757,12.257 C 19.222,13.033 18.349,13.498 17.422,13.498 C 16.02,13.498 14.853,12.484 14.616,11.154 C 14.61,11.115 14.604,11.077 14.598,11.038 C 14.597,11.033 14.597,11.028 14.596,11.022 C 14.592,10.988 14.588,10.953 14.584,10.918 C 14.583,10.902 14.582,10.886 14.581,10.871 C 14.579,10.845 14.577,10.819 14.576,10.792 C 14.574,10.748 14.572,10.704 14.572,10.659 C 14.572,9.579 15.162,8.61 16.113,8.13 C 16.145,8.114 16.166,8.081 16.166,8.044 L 16.166,7.201 C 16.166,7.169 16.151,7.138 16.124,7.12 C 16.097,7.102 16.064,7.099 16.034,7.112 L 15.893,7.172 C 15.735,7.241 15.585,7.325 15.462,7.397 C 15.369,7.332 14.311,6.591 14.311,6.591 C 14.273,6.564 14.222,6.568 14.188,6.6 L 13.387,7.382 C 13.367,7.401 13.358,7.426 13.358,7.451 C 13.358,7.47 13.363,7.489 13.375,7.505 C 13.375,7.505 14.112,8.597 14.173,8.688 C 13.972,9.023 13.833,9.356 13.748,9.702 C 13.638,9.723 12.285,9.972 12.285,9.972 C 12.241,9.98 12.208,10.018 12.206,10.063 L 12.156,11.186 C 12.156,11.187 12.156,11.188 12.156,11.19 C 12.156,11.236 12.189,11.276 12.236,11.285 C 12.236,11.285 12.243,11.286 12.255,11.288 C 12.422,11.318 13.626,11.536 13.73,11.554 C 13.815,11.895 13.954,12.241 14.145,12.584 C 14.081,12.674 13.248,13.838 13.248,13.838 C 13.236,13.855 13.23,13.875 13.23,13.894 C 13.23,13.918 13.239,13.943 13.258,13.962 L 14.059,14.774 C 14.091,14.807 14.143,14.812 14.182,14.786 C 14.182,14.786 15.391,13.971 15.485,13.908 C 15.79,14.097 16.127,14.24 16.509,14.341 C 16.529,14.45 16.789,15.876 16.789,15.876 C 16.798,15.922 16.837,15.955 16.884,15.955 L 18.036,15.955 C 18.083,15.955 18.123,15.921 18.131,15.874 C 18.131,15.874 18.373,14.43 18.392,14.32 C 18.729,14.227 19.063,14.089 19.386,13.906 L 19.584,14.024 C 19.935,14.27 20.657,14.775 20.657,14.775 C 20.696,14.802 20.747,14.797 20.781,14.764 L 21.593,13.952 C 21.627,13.918 21.631,13.865 21.603,13.827 L 21.278,13.387 z M 23.086,5.768 C 23.086,5.758 23.085,5.747 23.081,5.737 C 23.071,5.706 23.044,5.682 23.013,5.674 L 20.949,5.163 C 20.911,5.154 20.873,5.167 20.849,5.198 C 20.849,5.198 18.747,7.921 18.446,8.311 C 18.446,7.836 18.446,5.228 18.446,5.228 C 18.446,5.175 18.404,5.131 18.351,5.131 L 16.487,5.111 C 16.462,5.111 16.437,5.121 16.419,5.139 C 16.401,5.157 16.39,5.181 16.39,5.206 L 16.329,13.002 C 16.329,13.028 16.34,13.055 16.359,13.073 C 16.379,13.091 16.405,13.101 16.432,13.099 L 18.395,12.979 C 18.447,12.976 18.486,12.933 18.486,12.883 C 18.486,12.883 18.455,10.248 18.45,9.74 C 18.76,10.171 20.887,13.13 20.887,13.13 C 20.911,13.163 20.953,13.177 20.993,13.166 L 22.987,12.584 C 23.017,12.576 23.041,12.552 23.051,12.522 C 23.055,12.512 23.056,12.501 23.056,12.491 C 23.056,12.47 23.049,12.45 23.037,12.433 C 23.037,12.433 20.582,9.112 20.496,8.996 C 20.586,8.884 23.065,5.827 23.065,5.827 C 23.079,5.812 23.086,5.79 23.086,5.768 z M 22.945,9.922 L 21.622,9.692 C 21.584,9.686 21.545,9.702 21.524,9.735 C 21.503,9.768 21.503,9.81 21.526,9.842 L 22.528,11.285 C 22.549,11.316 22.587,11.331 22.625,11.325 L 22.956,11.264 C 23.002,11.256 23.036,11.215 23.035,11.168 L 23.025,10.016 C 23.024,9.97 22.991,9.93 22.945,9.922 z "
   id="path1909"
   style="fill:#ffffff" /><path
   style="fill:none"
   id="path2072"
   d="M 128,128 L 0,128 L 0,0 L 128,0 L 128,128 z " />
<g
   id="g1506"
   transform="matrix(0.673799,0,0,0.696697,-6.596876,-117.2355)"><path
     d="M 43.253877,253.57062 L 44.295057,329.09295 L 139.9748,326.30615 L 138.57122,253.84527 L 43.253877,253.57062 z "
     id="path925"
     sodipodi:nodetypes="ccccc"
     style="fill:url(#linearGradient1543);fill-rule:evenodd;stroke:url(#linearGradient1625);stroke-width:0.79849851;stroke-opacity:0.08074526"
     transform="translate(15.04185,-50.13951)" /><path
     d="M 40.638564,251.88716 C 61.612281,251.01325 62.656062,282.10381 93.747843,277.7727 C 123.98212,273.56105 141.731,278.6049 138.2354,308.31767 L 42.792743,304.85362 L 40.638564,251.88716 z "
     id="path3395"
     sodipodi:nodetypes="czccc"
     style="fill:url(#linearGradient2403);fill-opacity:1;fill-rule:evenodd;stroke-width:1pt"
     transform="translate(15.04185,-50.13951)" /><path
     d="M 82.055313 175.83524 A 56.143108 56.143108 0 1 1  -30.230904,175.83524 A 56.143108 56.143108 0 1 1  82.055313 175.83524 z"
     id="path1692"
     sodipodi:cx="25.912205"
     sodipodi:cy="175.83524"
     sodipodi:rx="56.143108"
     sodipodi:ry="56.143108"
     sodipodi:type="arc"
     style="opacity:0.54268296;fill:url(#radialGradient2289);fill-opacity:1;fill-rule:evenodd;stroke-width:1pt"
     transform="matrix(1.063017,0,0,0.262433,72.75469,282.6493)" /><path
     d="M 82.055313 175.83524 A 56.143108 56.143108 0 1 1  -30.230904,175.83524 A 56.143108 56.143108 0 1 1  82.055313 175.83524 z"
     id="path3394"
     sodipodi:cx="25.912205"
     sodipodi:cy="175.83524"
     sodipodi:rx="56.143108"
     sodipodi:ry="56.143108"
     sodipodi:type="arc"
     style="opacity:0.54268296;fill:url(#radialGradient2291);fill-opacity:1;fill-rule:evenodd;stroke-width:1pt"
     transform="matrix(0.716269,0,0,0.236721,49.34793,261.2702)" /><path
     d="M 82.055313 175.83524 A 56.143108 56.143108 0 1 1  -30.230904,175.83524 A 56.143108 56.143108 0 1 1  82.055313 175.83524 z"
     id="path3447"
     sodipodi:cx="25.912205"
     sodipodi:cy="175.83524"
     sodipodi:rx="56.143108"
     sodipodi:ry="56.143108"
     sodipodi:type="arc"
     style="fill:url(#radialGradient1528);fill-opacity:1;fill-rule:evenodd;stroke-width:1pt"
     transform="matrix(1.20462,0,0,-0.362886,77.43639,371.6393)" /><path
     d="M 85.103829,111.3627 C 78.614619,110.97335 73.922949,97.214132 74.337079,91.071582 C 74.751209,84.929032 75.395849,70.389732 88.416659,73.679192 C 101.52998,76.992032 101.25392,87.413662 100.83978,93.556212 C 100.42565,99.698762 92.005549,111.7768 85.103829,111.3627 z "
     id="path1521"
     sodipodi:nodetypes="czzzz"
     style="fill:#ded6b5;fill-rule:evenodd;stroke-width:1pt"
     transform="matrix(0.487887,0,0,0.487887,17.07262,209.7229)" /><path
     d="M 85.649909,78.643078 C 85.649909,78.643078 99.249122,77.9797 100.24419,89.2571 C 101.23925,100.53449 91.288608,106.1732 89.961856,106.83658 C 88.635103,107.49995 82.664716,81.959955 85.649909,78.643078 z "
     id="path2777"
     style="fill:url(#linearGradient1638);fill-opacity:1;fill-rule:evenodd;stroke-width:1pt"
     transform="matrix(0.487887,0,0,0.487887,17.07262,209.7229)" /><path
     d="M 471.97157,97.584695 C 471.97157,97.584695 469.94012,82.687458 475.3573,81.333164 C 480.77448,79.978869 478.74304,84.718899 478.74304,84.718899 C 478.74304,84.718899 489.89013,72.096347 495.67171,76.593133 C 501.76604,81.333163 492.96312,96.230401 487.54595,100.29328 C 482.12877,104.35616 477.38874,109.77334 477.38874,109.77334 L 471.97157,97.584695 z "
     id="path3426"
     sodipodi:nodetypes="ccczccc"
     style="fill:#dbd5b5;fill-rule:evenodd;stroke-width:1pt"
     transform="matrix(0.487887,0,0,0.487887,-150.5514,216.6591)" /><path
     d="M 61.35214,166.88183 L 61.181589,135.71796 C 61.102534,121.27261 62.367249,104.47621 81.335529,104.04749 C 101.01137,103.60278 105.99491,113.42977 108.32741,129.9597 C 116.48496,128.40016 125.36229,121.08237 128.48134,109.08598 L 139.99788,122.40197 C 135.8445,140.69617 115.32692,143.76759 110.12687,147.59439 L 111.60907,162.41642 C 112.50961,171.42178 102.98253,178.35069 87.496328,179.20779 C 71.335004,180.10225 61.396138,174.92131 61.35214,166.88183 z "
     id="path1515"
     sodipodi:nodetypes="czzcccczzz"
     style="fill:#43823f;fill-opacity:1;fill-rule:evenodd;stroke-width:1pt"
     transform="matrix(0.487887,0,0,0.487887,17.07262,209.7229)" /><path
     d="M 92.132279,131.03937 C 92.132279,131.03937 98.250439,147.2345 105.44828,147.2345 C 112.64611,147.2345 121.6434,140.39656 121.6434,140.39656 L 110.12687,148.67406 C 110.12687,148.67406 110.12687,159.11092 111.56644,164.8692 C 114.08568,169.54779 98.610329,170.26757 92.492179,164.14941 C 86.374019,158.03125 65.860189,130.67948 87.093799,121.68219 C 94.291629,119.52284 92.132279,131.03937 92.132279,131.03937 z "
     id="path1517"
     sodipodi:nodetypes="cccccccc"
     style="fill:url(#linearGradient1512);fill-opacity:1;fill-rule:evenodd;stroke-width:1pt"
     transform="matrix(0.487887,0,0,0.487887,17.07262,209.7229)" /><g
     id="g2772"
     transform="matrix(0.409057,0,0,0.409057,26.20103,219.2862)"><path
       d="M 69.768964,83.636914 C 69.768964,87.187364 77.992017,90.068904 82.318183,90.198844 C 86.644325,90.328794 94.484435,86.927484 94.484435,83.377034 C 94.484435,79.826574 92.658985,76.384054 84.886255,76.384054 C 70.220355,76.384054 69.768964,80.086474 69.768964,83.636914 z "
       id="path2769"
       sodipodi:nodetypes="czccc"
       style="fill:url(#linearGradient3129);fill-rule:evenodd;stroke-width:1pt" /><path
       d="M 67.237174,91.396284 C 69.650887,90.729009 72.064599,90.061735 74.478312,89.39446 C 77.781076,88.481406 79.549679,77.584018 83.212063,78.192135 C 90.536831,79.408369 98.979338,77.430889 99.262465,73.34732 C 99.541095,69.328605 99.24473,66.534284 81.638978,63.100764 C 64.120474,59.68426 60.736789,80.015834 67.237174,91.396284 z "
       id="path2770"
       sodipodi:nodetypes="csszzc"
       style="fill:#7f7769;fill-rule:evenodd;stroke-width:1pt" /><path
       d="M 66.716437,74.023884 C 67.994048,78.385424 91.328235,78.443194 92.739485,73.734054 C 94.150735,69.024924 95.774575,64.407604 79.929559,64.117784 C 63.681344,63.827964 65.506792,69.894384 66.716437,74.023884 z "
       id="path2771"
       sodipodi:nodetypes="czzz"
       style="fill:url(#linearGradient2391);fill-rule:evenodd;stroke-width:1pt" /></g><path
     d="M 472.47123,95.891644 C 472.47123,95.891644 470.48331,82.471424 475.78439,81.251404 C 481.08546,80.031383 479.09756,84.301453 479.09756,84.301453 C 479.09756,84.301453 490.00575,72.93039 495.66342,76.981333 C 501.62713,81.251403 493.01288,94.671624 487.71181,98.331681 C 482.41073,101.99174 477.77229,106.87182 477.77229,106.87182 L 472.47123,95.891644 z "
     id="path3427"
     sodipodi:nodetypes="ccczccc"
     style="fill:url(#linearGradient1657);fill-rule:evenodd;stroke-width:1pt"
     transform="matrix(0.487887,0,0,0.487887,-150.5514,216.6591)" /><path
     d="M 409.0088,153.2677 L 408.86437,122.10383 C 408.79742,107.65848 409.86845,90.862082 425.93191,90.433362 C 442.59458,89.988652 446.81493,99.815636 448.79023,116.34557 C 455.69853,114.78603 454.71783,130.15346 450.31412,133.98026 L 451.56934,148.80229 C 452.33197,157.80765 444.26387,164.73656 431.14924,165.59366 C 417.46288,166.48812 409.04606,161.30718 409.0088,153.2677 z "
     id="path3428"
     sodipodi:nodetypes="czzcczzz"
     style="fill:url(#linearGradient3022);fill-rule:evenodd;stroke-width:1pt"
     transform="matrix(0.487887,0,0,0.487887,-150.5514,216.6591)" /><path
     d="M 55.991927,-53.587442 C 52.259087,-53.811411 49.56026,-61.726237 49.798483,-65.259665 C 50.036707,-68.793093 50.407528,-77.156651 57.897593,-75.264429 C 65.440844,-73.358757 65.282078,-67.363839 65.043815,-63.830411 C 64.805609,-60.296983 59.962059,-53.349236 55.991927,-53.587442 z "
     id="path1518"
     sodipodi:nodetypes="czzzz"
     style="fill:#ded6b5;fill-rule:evenodd;stroke-width:1pt"
     transform="matrix(0.984342,0,0,0.984342,29.61721,346.4535)" /><path
     d="M 40.471488,-30.013009 C 40.471488,-30.013009 33.444881,-54.606136 46.912543,-56.362787 C 60.380205,-58.119437 69.749031,-61.047191 71.505693,-46.993977 C 73.262297,-32.940763 70.334566,-27.085255 66.235708,-27.085255 C 62.136855,-27.085255 43.399237,-22.40085 40.471488,-30.013009 z "
     id="path927"
     style="fill:#606060;fill-rule:evenodd;stroke-width:1pt"
     transform="matrix(0.984342,0,0,0.984342,29.61721,346.4535)" /><path
     d="M 42.869673,-34.946653 C 40.309886,-45.55147 42.005291,-56.988611 56.483836,-56.772511 C 70.962381,-56.556417 72.907249,-34.08226 72.907249,-34.08226 C 73.879683,-30.948847 42.977725,-29.760307 42.869673,-34.946653 z "
     id="path2756"
     sodipodi:nodetypes="cccc"
     style="fill:url(#linearGradient2293);fill-rule:evenodd;stroke-width:1pt"
     transform="matrix(0.984342,0,0,0.984342,29.61721,346.4535)" /><g
     id="g2780"
     transform="matrix(0.433456,0,0,0.433456,-4.718962,161.5351)"><path
       d="M 229.75461,278.76443 C 227.88797,287.62998 194.53514,287.74742 192.47326,278.17532 C 190.41137,268.60323 187.40664,248.57087 208.97125,249.46205 C 230.49272,250.35145 231.52193,270.37056 229.75461,278.76443 z "
       id="path2778"
       sodipodi:nodetypes="czzz"
       style="fill:#7f7769;fill-rule:evenodd;stroke-width:1pt" /><path
       d="M 225.58554,274.60467 C 224.11283,281.59931 197.21527,281.69196 195.58851,274.13988 C 193.96175,266.58782 192.08993,251.95084 210.35464,251.48604 C 229.08413,251.02125 226.97991,267.98217 225.58554,274.60467 z "
       id="path2779"
       sodipodi:nodetypes="czzz"
       style="fill:url(#linearGradient2295);fill-rule:evenodd;stroke-width:1pt" /></g><path
     d="M 83.080862,-54.36147 C 87.164304,-54.606476 90.116541,-63.264607 89.855958,-67.129873 C 89.595375,-70.995133 89.18966,-80.144138 80.9962,-78.074213 C 72.744583,-75.989574 72.918248,-69.431653 73.178888,-65.566393 C 73.439471,-61.701128 78.737873,-54.100893 83.080862,-54.36147 z "
     id="path1520"
     sodipodi:nodetypes="czzzz"
     style="fill:#ded6b5;fill-rule:evenodd;stroke-width:1pt"
     transform="matrix(0.984342,0,0,0.984342,29.61721,346.4535)" /><path
     d="M 116.66021,-78.954707 C 120.39304,-78.730738 123.09189,-70.815912 122.85368,-67.282484 C 122.61542,-63.749055 122.24462,-55.385498 114.75456,-57.27772 C 107.21129,-59.183391 107.37006,-65.178309 107.60832,-68.711737 C 107.84653,-72.245165 112.69009,-79.192913 116.66021,-78.954707 z "
     id="path1523"
     sodipodi:nodetypes="czzzz"
     style="fill:#ded6b5;fill-rule:evenodd;stroke-width:1pt"
     transform="matrix(0.984342,0,0,0.984342,29.61721,346.4535)" /><path
     d="M 98.218768,-33.434174 C 98.218768,-33.434174 91.192121,-58.027301 104.65982,-59.783951 C 118.12747,-61.540602 127.49631,-64.468356 129.25297,-50.415142 C 131.00958,-36.361928 128.08185,-30.50642 123.98299,-30.50642 C 119.88413,-30.50642 101.1465,-25.822015 98.218768,-33.434174 z "
     id="path1522"
     style="fill:#5d5d5d;fill-rule:evenodd;stroke-width:1pt"
     transform="matrix(0.984342,0,0,0.984342,29.61721,346.4535)" /><path
     d="M 97.405819,-51.966404 C 97.405819,-51.966404 99.832587,-60.843764 114.31113,-60.627664 C 128.78968,-60.411571 130.73454,-37.937413 130.73454,-37.937413 C 131.70698,-34.804 97.513871,-46.780058 97.405819,-51.966404 z "
     id="path2757"
     sodipodi:nodetypes="cccc"
     style="fill:url(#linearGradient2297);fill-rule:evenodd;stroke-width:1pt"
     transform="matrix(0.984342,0,0,0.984342,29.61721,346.4535)" /><path
     d="M 100.0589,-28.573091 C 100.0589,-28.573091 103.72288,-57.304256 87.161986,-59.225878 C 72.429508,-61.147501 68.031831,-58.499272 66.110191,-43.126278 C 64.188608,-27.753279 67.391303,-25.370384 71.875053,-25.370384 C 76.358804,-25.370384 96.856144,-20.246049 100.0589,-28.573091 z "
     id="path1519"
     sodipodi:nodetypes="ccccc"
     style="fill:#5a5a5a;fill-rule:evenodd;stroke-width:1pt"
     transform="matrix(0.984342,0,0,0.984342,29.61721,346.4535)" /><path
     d="M 69.614794,-36.821152 C 67.420692,-51.082804 68.750412,-58.86311 83.228957,-58.647011 C 97.707502,-58.430917 97.09259,-50.218411 96.726905,-36.322444 C 97.69934,-33.18903 69.722847,-31.634806 69.614794,-36.821152 z "
     id="path2755"
     sodipodi:nodetypes="cccc"
     style="fill:url(#linearGradient2441);fill-rule:evenodd;stroke-width:1pt"
     transform="matrix(0.984342,0,0,0.984342,29.61721,346.4535)" /><g
     id="g2783"
     transform="matrix(-0.433456,0,0,0.433456,201.8844,160.5864)"><path
       d="M 229.75461,278.76443 C 227.88797,287.62998 194.53514,287.74742 192.47326,278.17532 C 190.41137,268.60323 187.40664,248.57087 208.97125,249.46205 C 230.49272,250.35145 231.52193,270.37056 229.75461,278.76443 z "
       id="path2784"
       sodipodi:nodetypes="czzz"
       style="fill:#7f7769;fill-rule:evenodd;stroke-width:1pt" /><path
       d="M 225.58554,274.60467 C 224.11283,281.59931 197.21527,281.69196 195.58851,274.13988 C 193.96175,266.58782 192.08993,251.95084 210.35464,251.48604 C 229.08413,251.02125 226.97991,267.98217 225.58554,274.60467 z "
       id="path2785"
       sodipodi:nodetypes="czzz"
       style="fill:url(#linearGradient2299);fill-rule:evenodd;stroke-width:1pt" /></g><g
     id="g2786"
     transform="matrix(0.433456,0,0,0.433456,52.20284,158.2146)"><path
       d="M 229.75461,278.76443 C 227.88797,287.62998 194.53514,287.74742 192.47326,278.17532 C 190.41137,268.60323 187.40664,248.57087 208.97125,249.46205 C 230.49272,250.35145 231.52193,270.37056 229.75461,278.76443 z "
       id="path2787"
       sodipodi:nodetypes="czzz"
       style="fill:#7f7769;fill-rule:evenodd;stroke-width:1pt" /><path
       d="M 225.58554,274.60467 C 224.11283,281.59931 197.21527,281.69196 195.58851,274.13988 C 193.96175,266.58782 192.08993,251.95084 210.35464,251.48604 C 229.08413,251.02125 226.97991,267.98217 225.58554,274.60467 z "
       id="path2788"
       sodipodi:nodetypes="czzz"
       style="fill:url(#linearGradient2389);fill-rule:evenodd;stroke-width:1pt" /></g></g><g
   id="g2047">
				
					<radialGradient
   id="XMLID_5_"
   cx="108.4668"
   cy="118.249"
   r="34.736401"
   fx="108.4668"
   fy="118.249"
   gradientUnits="userSpaceOnUse">
					<stop
   offset="0"
   style="stop-color:#000000"
   id="stop2050" />
					<stop
   offset="1"
   style="stop-color:#000000"
   id="stop2052" />
					<a:midPointStop
   offset="0"
   style="stop-color:#000000" />
					<a:midPointStop
   offset="0.5"
   style="stop-color:#000000" />
					<a:midPointStop
   offset="1"
   style="stop-color:#000000" />
				</radialGradient>
				<path
   d="M 85.191,90.976 L 85.191,126.73 L 86.984,126.73 L 120.623,93.091 L 120.623,90.976 L 85.191,90.976 L 85.191,90.976 z "
   id="path2054"
   style="opacity:0.1;fill:url(#XMLID_5_)" />
				<path
   d="M 87.537,126.948 L 121.164,93.321 L 87.537,93.321 L 87.537,126.948 z "
   id="path2056"
   style="fill:#ffffff" />
				<linearGradient
   id="XMLID_6_"
   gradientUnits="userSpaceOnUse"
   x1="104.0166"
   y1="98.180702"
   x2="95.088303"
   y2="135.79379">
					<stop
   offset="0"
   style="stop-color:#FFFFFF"
   id="stop2059" />
					<stop
   offset="1"
   style="stop-color:#CCCCCC"
   id="stop2061" />
					<a:midPointStop
   offset="0"
   style="stop-color:#FFFFFF" />
					<a:midPointStop
   offset="0.5"
   style="stop-color:#FFFFFF" />
					<a:midPointStop
   offset="1"
   style="stop-color:#CCCCCC" />
				</linearGradient>
				<path
   d="M 89.865,125.056 L 119.459,95.464 L 89.865,95.464 L 89.865,125.056 z "
   id="path2063"
   style="fill:url(#XMLID_6_)" />
				<linearGradient
   id="XMLID_7_"
   gradientUnits="userSpaceOnUse"
   x1="82.308601"
   y1="88.092796"
   x2="96.104301"
   y2="101.8885">
					<stop
   offset="0"
   style="stop-color:#B3B3B3"
   id="stop2066" />
					<stop
   offset="1"
   style="stop-color:#828282"
   id="stop2068" />
					<a:midPointStop
   offset="0"
   style="stop-color:#B3B3B3" />
					<a:midPointStop
   offset="0.5"
   style="stop-color:#B3B3B3" />
					<a:midPointStop
   offset="1"
   style="stop-color:#828282" />
				</linearGradient>
				<path
   d="M 87.537,92.821 C 87.26,92.821 87.037,93.044 87.037,93.321 L 87.037,126.948 C 87.037,127.151 87.158,127.333 87.346,127.411 C 87.532,127.487 87.748,127.444 87.891,127.302 L 121.518,93.675 C 121.661,93.53 121.704,93.316 121.627,93.13 C 121.549,92.942 121.367,92.821 121.164,92.821 L 87.537,92.821 L 87.537,92.821 z M 119.957,93.821 C 118.377,95.399 89.615,124.161 88.037,125.741 C 88.037,123.532 88.037,94.755 88.037,93.821 C 88.971,93.821 117.748,93.821 119.957,93.821 z "
   id="path2070"
   style="fill:url(#XMLID_7_)" />
			</g></svg>