<?xml version="1.0" encoding="iso-8859-1"?>
<!-- Generator: Adobe Illustrator 10.0.3, SVG Export Plug-In . SVG Version: 3.0.0 Build 77)  -->
<!DOCTYPE svg PUBLIC "-//W3C//DTD SVG 1.0//EN"    "http://www.w3.org/TR/2001/REC-SVG-20010904/DTD/svg10.dtd" [
	<!ENTITY ns_flows "http://ns.adobe.com/Flows/1.0/">
	<!ENTITY ns_svg "http://www.w3.org/2000/svg">
	<!ENTITY ns_xlink "http://www.w3.org/1999/xlink">
]>
<svg  xmlns="&ns_svg;" xmlns:xlink="&ns_xlink;" xmlns:a="http://ns.adobe.com/AdobeSVGViewerExtensions/3.0/"
	 width="128" height="128" viewBox="0 0 128 128" overflow="visible" enable-background="new 0 0 128 128" xml:space="preserve">
	<g id="Layer_1">
		<g>
			<g>
				<path fill="#FFFFFF" d="M121.164,1.052H6.836v125.896h80.701l33.627-33.627V1.052z"/>
				<linearGradient id="XMLID_1_" gradientUnits="userSpaceOnUse" x1="63.9204" y1="154.5645" x2="63.9204" y2="-100.9357">
					<stop  offset="0" style="stop-color:#FFFFFF"/>
					<stop  offset="0.2458" style="stop-color:#F6F6F6"/>
					<stop  offset="0.6375" style="stop-color:#DFDFDF"/>
					<stop  offset="1" style="stop-color:#C4C4C4"/>
					<a:midPointStop  offset="0" style="stop-color:#FFFFFF"/>
					<a:midPointStop  offset="0.6045" style="stop-color:#FFFFFF"/>
					<a:midPointStop  offset="1" style="stop-color:#C4C4C4"/>
				</linearGradient>
				<path fill="url(#XMLID_1_)" d="M117.734,4.019H10.266l-0.16,122.654h76.457l31.172-31.252V4.019z"/>
				<linearGradient id="XMLID_2_" gradientUnits="userSpaceOnUse" x1="-26.333" y1="-26.333" x2="56.1662" y2="56.1662">
					<stop  offset="0" style="stop-color:#B3B3B3"/>
					<stop  offset="1" style="stop-color:#828282"/>
					<a:midPointStop  offset="0" style="stop-color:#B3B3B3"/>
					<a:midPointStop  offset="0.5" style="stop-color:#B3B3B3"/>
					<a:midPointStop  offset="1" style="stop-color:#828282"/>
				</linearGradient>
				<path fill="url(#XMLID_2_)" d="M121.164,0.552H6.336v126.896h81.408l33.92-33.92V0.552H121.164 M120.664,1.552
					c0,0.986,0,91.152,0,91.562c-0.289,0.289-33.045,33.045-33.334,33.334c-0.41,0-79.01,0-79.994,0c0-0.988,0-123.908,0-124.896
					C8.322,1.552,119.678,1.552,120.664,1.552z"/>
				<linearGradient id="XMLID_3_" gradientUnits="userSpaceOnUse" x1="43.0229" y1="25.4214" x2="204.0072" y2="111.0654">
					<stop  offset="0" style="stop-color:#FFFFFF"/>
					<stop  offset="0.8604" style="stop-color:#DADADA"/>
					<stop  offset="1" style="stop-color:#D4D4D4"/>
					<a:midPointStop  offset="0" style="stop-color:#FFFFFF"/>
					<a:midPointStop  offset="0.5254" style="stop-color:#FFFFFF"/>
					<a:midPointStop  offset="1" style="stop-color:#D4D4D4"/>
				</linearGradient>
				<path fill="url(#XMLID_3_)" d="M118.006,15.223V3.94H10.199l-0.096,65.34c9.975,4.547,21.151,7.096,32.954,7.096
					C80.402,76.376,111.455,48.876,118.006,15.223z"/>
				<linearGradient id="XMLID_4_" gradientUnits="userSpaceOnUse" x1="-56.6899" y1="10.6509" x2="77.6484" y2="10.6509">
					<stop  offset="0" style="stop-color:#FFFFFF"/>
					<stop  offset="0.0072" style="stop-color:#FFFDFF"/>
					<stop  offset="0.1175" style="stop-color:#FFE5FF"/>
					<stop  offset="0.1854" style="stop-color:#FFDCFF"/>
					<stop  offset="1" style="stop-color:#B31200"/>
					<a:midPointStop  offset="0" style="stop-color:#FFFFFF"/>
					<a:midPointStop  offset="0.4" style="stop-color:#FFFFFF"/>
					<a:midPointStop  offset="0.1854" style="stop-color:#FFDCFF"/>
					<a:midPointStop  offset="0.5" style="stop-color:#FFDCFF"/>
					<a:midPointStop  offset="1" style="stop-color:#B31200"/>
				</linearGradient>
				<path fill-rule="evenodd" clip-rule="evenodd" fill="url(#XMLID_4_)" d="M117.692,17.022H10.308V4.279h107.385V17.022z"/>
				
					<radialGradient id="XMLID_5_" cx="108.4668" cy="118.249" r="34.7364" fx="108.4668" fy="118.249" gradientUnits="userSpaceOnUse">
					<stop  offset="0" style="stop-color:#FFFFFF"/>
					<stop  offset="1" style="stop-color:#000000"/>
					<a:midPointStop  offset="0" style="stop-color:#FFFFFF"/>
					<a:midPointStop  offset="0.5" style="stop-color:#FFFFFF"/>
					<a:midPointStop  offset="1" style="stop-color:#000000"/>
				</radialGradient>
				<path opacity="0.1" fill="url(#XMLID_5_)" d="M85.191,90.976v35.754h1.793l33.639-33.639v-2.115H85.191z"/>
				<path fill="#FFFFFF" d="M87.537,126.948l33.627-33.627H87.537V126.948z"/>
				<linearGradient id="XMLID_6_" gradientUnits="userSpaceOnUse" x1="104.0176" y1="98.1816" x2="95.089" y2="135.7953">
					<stop  offset="0" style="stop-color:#FFFFFF"/>
					<stop  offset="1" style="stop-color:#CCCCCC"/>
					<a:midPointStop  offset="0" style="stop-color:#FFFFFF"/>
					<a:midPointStop  offset="0.5" style="stop-color:#FFFFFF"/>
					<a:midPointStop  offset="1" style="stop-color:#CCCCCC"/>
				</linearGradient>
				<path fill="url(#XMLID_6_)" d="M89.865,125.056l29.594-29.592H89.865V125.056z"/>
				<linearGradient id="XMLID_7_" gradientUnits="userSpaceOnUse" x1="82.3086" y1="88.0928" x2="96.1043" y2="101.8885">
					<stop  offset="0" style="stop-color:#B3B3B3"/>
					<stop  offset="1" style="stop-color:#828282"/>
					<a:midPointStop  offset="0" style="stop-color:#B3B3B3"/>
					<a:midPointStop  offset="0.5" style="stop-color:#B3B3B3"/>
					<a:midPointStop  offset="1" style="stop-color:#828282"/>
				</linearGradient>
				<path fill="url(#XMLID_7_)" d="M87.537,92.821c-0.277,0-0.5,0.223-0.5,0.5v33.627c0,0.203,0.121,0.385,0.309,0.463
					c0.186,0.076,0.402,0.033,0.545-0.109l33.627-33.627c0.143-0.145,0.186-0.359,0.109-0.545c-0.078-0.188-0.26-0.309-0.463-0.309
					H87.537 M119.957,93.821c-1.58,1.578-30.342,30.34-31.92,31.92c0-2.209,0-30.986,0-31.92
					C88.971,93.821,117.748,93.821,119.957,93.821z"/>
			</g>
			<g>
				<path fill="#FFFFFF" d="M14.17,14.885v-1.641h1.641v1.641H14.17z"/>
				<path fill="#FFFFFF" d="M17.161,10.641c0-0.877,0.13-1.613,0.392-2.209c0.195-0.438,0.462-0.832,0.8-1.181
					s0.708-0.607,1.11-0.775c0.535-0.227,1.152-0.341,1.851-0.341c1.265,0,2.277,0.394,3.037,1.181
					c0.759,0.787,1.139,1.882,1.139,3.284c0,1.391-0.377,2.479-1.13,3.264c-0.754,0.785-1.761,1.178-3.022,1.178
					c-1.277,0-2.292-0.391-3.045-1.172C17.537,13.088,17.161,12.012,17.161,10.641z M18.942,10.582c0,0.976,0.225,1.716,0.676,2.219
					s1.022,0.755,1.716,0.755s1.262-0.25,1.707-0.75s0.667-1.249,0.667-2.249c0-0.987-0.216-1.725-0.649-2.21
					s-1.008-0.729-1.725-0.729c-0.717,0-1.295,0.246-1.734,0.738C19.161,8.849,18.942,9.591,18.942,10.582z"/>
			</g>
			<g>
				<path fill="#CCCCCC" d="M20.503,91.298V79.993h11.304v11.305H20.503z"/>
				<path fill="#CCCCCC" d="M41.106,62.055c0-6.042,0.898-11.116,2.702-15.22c1.346-3.014,3.183-5.732,5.511-8.128
					c2.328-2.409,4.875-4.186,7.647-5.343c3.684-1.568,7.937-2.355,12.751-2.355c8.717,0,15.688,2.718,20.923,8.142
					c5.231,5.423,7.849,12.959,7.849,22.622c0,9.582-2.598,17.078-7.788,22.488c-5.194,5.409-12.132,8.114-20.822,8.114
					c-8.798,0-15.792-2.691-20.983-8.074C43.7,78.917,41.106,71.502,41.106,62.055z M53.379,61.651
					c0,6.729,1.551,11.83,4.657,15.294c3.104,3.465,7.045,5.201,11.822,5.201s8.696-1.723,11.761-5.161
					c3.065-3.438,4.596-8.605,4.596-15.496c0-6.796-1.49-11.883-4.475-15.227c-2.983-3.344-6.943-5.026-11.882-5.026
					c-4.942,0-8.923,1.696-11.947,5.087C54.89,49.714,53.379,54.828,53.379,61.651z"/>
			</g>
		</g>
		<path fill="none" d="M128,128H0V0h128V128z"/>
	</g>
</svg>
