<?xml version="1.0" encoding="iso-8859-1"?>
<!-- Generator: Adobe Illustrator 10.0.3, SVG Export Plug-In . SVG Version: 3.0.0 Build 77)  -->
<!DOCTYPE svg PUBLIC "-//W3C//DTD SVG 1.0//EN"    "http://www.w3.org/TR/2001/REC-SVG-20010904/DTD/svg10.dtd" [
	<!ENTITY ns_flows "http://ns.adobe.com/Flows/1.0/">
	<!ENTITY ns_svg "http://www.w3.org/2000/svg">
	<!ENTITY ns_xlink "http://www.w3.org/1999/xlink">
]>
<svg  xmlns="&ns_svg;" xmlns:xlink="&ns_xlink;" xmlns:a="http://ns.adobe.com/AdobeSVGViewerExtensions/3.0/"
	 width="128" height="128" viewBox="0 0 128 128" overflow="visible" enable-background="new 0 0 128 128" xml:space="preserve">
	<g id="Layer_1">
		<g>
			<g>
				<path fill="#FFFFFF" d="M121.164,1.052H6.836v125.896h80.701l33.627-33.627V1.052z"/>
				<linearGradient id="XMLID_1_" gradientUnits="userSpaceOnUse" x1="63.9204" y1="154.5645" x2="63.9204" y2="-100.9347">
					<stop  offset="0" style="stop-color:#FFFFFF"/>
					<stop  offset="0.258" style="stop-color:#F1F1F1"/>
					<stop  offset="0.7396" style="stop-color:#CECECE"/>
					<stop  offset="0.8595" style="stop-color:#C4C4C4"/>
					<a:midPointStop  offset="0" style="stop-color:#FFFFFF"/>
					<a:midPointStop  offset="0.5674" style="stop-color:#FFFFFF"/>
					<a:midPointStop  offset="0.8595" style="stop-color:#C4C4C4"/>
				</linearGradient>
				<path fill="url(#XMLID_1_)" d="M117.734,4.019H10.266l-0.16,122.654h76.457l31.172-31.252V4.019z"/>
				<linearGradient id="XMLID_2_" gradientUnits="userSpaceOnUse" x1="-26.333" y1="-26.333" x2="56.1662" y2="56.1662">
					<stop  offset="0" style="stop-color:#B3B3B3"/>
					<stop  offset="1" style="stop-color:#828282"/>
					<a:midPointStop  offset="0" style="stop-color:#B3B3B3"/>
					<a:midPointStop  offset="0.5" style="stop-color:#B3B3B3"/>
					<a:midPointStop  offset="1" style="stop-color:#828282"/>
				</linearGradient>
				<path fill="url(#XMLID_2_)" d="M121.164,0.552H6.336v126.896h81.408l33.92-33.92V0.552H121.164z M120.664,1.552
					c0,0.987,0,91.152,0,91.562c-0.289,0.289-33.045,33.045-33.334,33.334c-0.41,0-79.01,0-79.994,0c0-0.988,0-123.909,0-124.896
					C8.322,1.552,119.678,1.552,120.664,1.552z"/>
				<linearGradient id="XMLID_3_" gradientUnits="userSpaceOnUse" x1="43.0229" y1="25.4214" x2="204.0073" y2="111.0652">
					<stop  offset="0" style="stop-color:#FFFFFF"/>
					<stop  offset="0.5033" style="stop-color:#E7E7E7"/>
					<stop  offset="1" style="stop-color:#D4D4D4"/>
					<a:midPointStop  offset="0" style="stop-color:#FFFFFF"/>
					<a:midPointStop  offset="0.452" style="stop-color:#FFFFFF"/>
					<a:midPointStop  offset="1" style="stop-color:#D4D4D4"/>
				</linearGradient>
				<path fill="url(#XMLID_3_)" d="M118.006,15.223V3.94H10.199l-0.096,65.34c9.975,4.547,21.151,7.096,32.954,7.096
					C80.402,76.376,111.455,48.876,118.006,15.223z"/>
			</g>
			<path fill="none" d="M72.158,83.212V70.529c-8.568,3.576-17.923,5.638-27.732,5.815v6.867H72.158z"/>
			<linearGradient id="XMLID_4_" gradientUnits="userSpaceOnUse" x1="28.1636" y1="53.3511" x2="189.1511" y2="138.9965">
				<stop  offset="0" style="stop-color:#FFFFFF"/>
				<stop  offset="0.5033" style="stop-color:#E7E7E7"/>
				<stop  offset="1" style="stop-color:#D4D4D4"/>
				<a:midPointStop  offset="0" style="stop-color:#FFFFFF"/>
				<a:midPointStop  offset="0.452" style="stop-color:#FFFFFF"/>
				<a:midPointStop  offset="1" style="stop-color:#D4D4D4"/>
			</linearGradient>
			<path fill="url(#XMLID_4_)" d="M72.158,62.415H44.426v13.93c9.809-0.178,19.164-2.239,27.732-5.815V62.415z"/>
			<g>
				
					<radialGradient id="XMLID_5_" cx="108.4668" cy="118.249" r="34.7364" fx="108.4668" fy="118.249" gradientUnits="userSpaceOnUse">
					<stop  offset="0" style="stop-color:#000000"/>
					<stop  offset="1" style="stop-color:#000000"/>
					<a:midPointStop  offset="0" style="stop-color:#000000"/>
					<a:midPointStop  offset="0.5" style="stop-color:#000000"/>
					<a:midPointStop  offset="1" style="stop-color:#000000"/>
				</radialGradient>
				<path opacity="0.1" fill="url(#XMLID_5_)" d="M85.191,90.976v35.754h1.793l33.639-33.639v-2.115H85.191z"/>
				<path fill="#FFFFFF" d="M87.537,126.948l33.627-33.627H87.537V126.948z"/>
				<linearGradient id="XMLID_6_" gradientUnits="userSpaceOnUse" x1="104.0166" y1="98.1807" x2="95.0883" y2="135.7938">
					<stop  offset="0" style="stop-color:#FFFFFF"/>
					<stop  offset="1" style="stop-color:#CCCCCC"/>
					<a:midPointStop  offset="0" style="stop-color:#FFFFFF"/>
					<a:midPointStop  offset="0.5" style="stop-color:#FFFFFF"/>
					<a:midPointStop  offset="1" style="stop-color:#CCCCCC"/>
				</linearGradient>
				<path fill="url(#XMLID_6_)" d="M89.865,125.056l29.594-29.592H89.865V125.056z"/>
				<linearGradient id="XMLID_7_" gradientUnits="userSpaceOnUse" x1="82.3086" y1="88.0928" x2="96.1043" y2="101.8885">
					<stop  offset="0" style="stop-color:#B3B3B3"/>
					<stop  offset="1" style="stop-color:#828282"/>
					<a:midPointStop  offset="0" style="stop-color:#B3B3B3"/>
					<a:midPointStop  offset="0.5" style="stop-color:#B3B3B3"/>
					<a:midPointStop  offset="1" style="stop-color:#828282"/>
				</linearGradient>
				<path fill="url(#XMLID_7_)" d="M87.537,92.821c-0.277,0-0.5,0.223-0.5,0.5v33.627c0,0.203,0.121,0.385,0.309,0.463
					c0.186,0.076,0.402,0.033,0.545-0.109l33.627-33.627c0.143-0.145,0.186-0.359,0.109-0.545c-0.078-0.188-0.26-0.309-0.463-0.309
					H87.537z M119.957,93.821c-1.58,1.578-30.342,30.34-31.92,31.92c0-2.209,0-30.986,0-31.92
					C88.971,93.821,117.748,93.821,119.957,93.821z"/>
			</g>
			<path fill="none" d="M87.708,76.7c0,1.687,0.434,2.943,1.303,3.771c0.867,0.828,2.185,1.241,3.949,1.241
				c2.52,0,4.32-0.41,5.398-1.233s1.618-2.393,1.618-4.709v-0.762v-8.078c-4.343,0.87-7.473,2.07-9.392,3.602
				C88.667,72.062,87.708,74.117,87.708,76.7z"/>
			<g>
				<g>
					<path d="M21.693,75.112l21.596-48.647v-0.042c0.335-0.754,0.781-1.131,1.339-1.131c0.307,0,0.606,0.14,0.9,0.419
						c0.292,0.28,0.538,0.643,0.732,1.089l21.888,51.173c0.697,1.654,1.43,2.882,2.197,3.68c0.767,0.8,1.737,1.409,2.909,1.831
						c0.224,0.085,0.559,0.182,1.005,0.294c0.109,0.027,0.181,0.042,0.209,0.042l0.042,0.041c1.282,0.387,1.925,1.05,1.925,1.987
						c0,0.663-0.091,1.096-0.271,1.305c-0.183,0.205-0.606,0.31-1.276,0.31c-0.447,0-2.017-0.12-4.709-0.355
						c-2.693-0.239-5.142-0.356-7.344-0.356c-3.154,0-6.376,0.223-9.668,0.672c-0.669,0.079-1.075,0.118-1.213,0.118
						c-0.391,0-0.719-0.166-0.983-0.496c-0.266-0.33-0.397-0.758-0.397-1.282c0-0.55,0.641-1.143,1.925-1.777
						c0.111-0.055,0.195-0.096,0.251-0.124c1.534-0.588,2.58-1.254,3.138-1.997c0.558-0.743,0.837-1.661,0.837-2.755
						c0-0.588-0.07-1.211-0.209-1.871c-0.14-0.658-0.349-1.297-0.628-1.914l-2.428-5.805c-0.614-1.513-1.249-2.508-1.904-2.985
						c-0.657-0.476-1.988-0.715-3.996-0.715h-0.921H35.462c-2.456,0-4.046,0.253-4.772,0.758c-0.726,0.504-1.353,1.484-1.882,2.942
						l-2.343,6.562c-0.223,0.614-0.391,1.157-0.503,1.632c-0.111,0.475-0.167,0.908-0.167,1.3c0,1.257,0.481,2.283,1.444,3.078
						c0.962,0.795,2.448,1.389,4.457,1.778c0.028,0.018,0.069,0.03,0.125,0.038c0.055,0.01,0.152,0.013,0.292,0.013
						c1.284,0.253,2.107,0.512,2.47,0.779c0.362,0.268,0.544,0.638,0.544,1.114c0,0.619-0.168,1.073-0.503,1.368
						c-0.334,0.294-0.823,0.441-1.464,0.441c-0.28,0-1.661-0.132-4.144-0.393c-2.482-0.264-4.785-0.395-6.904-0.395
						c-1.646,0-3.293,0.116-4.94,0.353c-1.647,0.233-2.483,0.352-2.51,0.352c-0.614,0-1.083-0.147-1.403-0.438
						c-0.321-0.292-0.481-0.718-0.481-1.277c0-0.779,0.627-1.422,1.884-1.925c0.753-0.278,1.325-0.544,1.716-0.795
						c0.919-0.613,1.749-1.457,2.489-2.531C19.606,79.5,20.549,77.681,21.693,75.112z M36.927,61.595h9.877
						c0.893,0,1.57-0.098,2.03-0.294c0.46-0.194,0.691-0.475,0.691-0.837c0-0.169-0.071-0.497-0.211-0.985
						c-0.14-0.489-0.32-1.014-0.543-1.573L42.66,43.36c-0.195-0.503-0.404-0.894-0.627-1.174s-0.434-0.419-0.628-0.419
						c-0.251,0-0.487,0.113-0.71,0.336s-0.419,0.531-0.586,0.92l-6.445,15.134c-0.168,0.419-0.308,0.831-0.42,1.236
						c-0.111,0.405-0.167,0.707-0.167,0.901c0,0.503,0.25,0.846,0.753,1.028C34.333,61.505,35.365,61.595,36.927,61.595z"/>
					<path d="M102.111,82.713c-2.569,1.757-5.075,3.069-7.517,3.934c-2.443,0.862-4.936,1.296-7.475,1.296
						c-2.43,0-4.315-0.722-5.654-2.16c-1.34-1.439-2.01-3.475-2.01-6.104c0-3.719,1.611-6.67,4.835-8.851
						c3.225-2.182,8.759-3.985,16.603-5.412c0-0.194,0.013-0.487,0.041-0.877s0.042-0.667,0.042-0.836
						c0-3.701-0.691-6.437-2.072-8.205c-1.383-1.768-3.538-2.652-6.469-2.652c-1.592,0-2.695,0.28-3.31,0.838
						c-0.614,0.559-0.921,1.591-0.921,3.097v0.712c0,1.48-0.52,2.533-1.557,3.161c-1.037,0.629-2.637,0.941-4.796,0.941
						c-0.729,0-1.227-0.152-1.494-0.459c-0.268-0.306-0.399-0.893-0.399-1.757c0-2.507,1.455-4.71,4.365-6.605
						s6.52-2.844,10.829-2.844c2.854,0,5.351,0.377,7.491,1.128c2.14,0.751,3.882,1.865,5.226,3.339
						c0.754,0.835,1.287,1.88,1.595,3.133c0.309,1.252,0.462,3.576,0.462,6.972v12.733c0,2.482,0.173,3.949,0.519,4.399
						c0.346,0.451,1.143,0.676,2.389,0.676c0.222,0,0.506-0.028,0.852-0.085s0.602-0.084,0.769-0.084
						c0.305,0,0.581,0.104,0.831,0.312c0.248,0.209,0.374,0.452,0.374,0.73c0,0.862-0.844,1.788-2.53,2.774
						c-1.688,0.985-3.394,1.48-5.122,1.48c-1.171,0-2.25-0.395-3.24-1.182C103.777,85.471,102.891,84.289,102.111,82.713z
						 M100.977,67.931c-4.343,0.87-7.473,2.07-9.392,3.602c-1.918,1.53-2.877,3.585-2.877,6.168c0,1.687,0.434,2.943,1.303,3.771
						c0.867,0.828,2.185,1.241,3.949,1.241c2.52,0,4.32-0.41,5.398-1.233s1.618-2.393,1.618-4.709v-0.762V67.931z"/>
				</g>
				<linearGradient id="XMLID_8_" gradientUnits="userSpaceOnUse" x1="44.2427" y1="-62.0508" x2="44.2427" y2="92.4501">
					<stop  offset="0" style="stop-color:#FFFFFF"/>
					<stop  offset="1" style="stop-color:#000000"/>
					<a:midPointStop  offset="0" style="stop-color:#FFFFFF"/>
					<a:midPointStop  offset="0.5" style="stop-color:#FFFFFF"/>
					<a:midPointStop  offset="1" style="stop-color:#000000"/>
				</linearGradient>
				<path fill="url(#XMLID_8_)" d="M45.528,25.711c-0.294-0.279-0.594-0.419-0.9-0.419c-0.558,0-1.004,0.377-1.339,1.131v0.042
					l-21.238,47.84c1.523,0.437,3.065,0.831,4.627,1.177l2.129-5.964c0.529-1.458,1.156-2.438,1.882-2.942
					c0.726-0.505,2.316-0.758,4.772-0.758h11.175h0.921c2.008,0,3.339,0.239,3.996,0.715c0.655,0.478,1.29,1.473,1.904,2.985
					l2.428,5.805c0.154,0.34,0.282,0.688,0.393,1.039c3.469-0.569,6.86-1.373,10.156-2.397L46.26,26.8
					C46.065,26.354,45.82,25.991,45.528,25.711z M49.314,59.479c0.14,0.488,0.211,0.816,0.211,0.985
					c0,0.362-0.231,0.643-0.691,0.837c-0.46,0.196-1.138,0.294-2.03,0.294h-9.877c-1.562,0-2.594-0.09-3.097-0.271
					c-0.503-0.183-0.753-0.525-0.753-1.028c0-0.194,0.055-0.496,0.167-0.901c0.112-0.405,0.251-0.817,0.42-1.236l6.445-15.134
					c0.167-0.39,0.363-0.697,0.586-0.92s0.459-0.336,0.71-0.336c0.195,0,0.405,0.14,0.628,0.419s0.432,0.671,0.627,1.174
					l6.111,14.545C48.994,58.465,49.175,58.989,49.314,59.479z"/>
				<linearGradient id="XMLID_9_" gradientUnits="userSpaceOnUse" x1="90.9023" y1="-62.0513" x2="90.9023" y2="92.4487">
					<stop  offset="0" style="stop-color:#FFFFFF"/>
					<stop  offset="1" style="stop-color:#000000"/>
					<a:midPointStop  offset="0" style="stop-color:#FFFFFF"/>
					<a:midPointStop  offset="0.5" style="stop-color:#FFFFFF"/>
					<a:midPointStop  offset="1" style="stop-color:#000000"/>
				</linearGradient>
				<path fill="url(#XMLID_9_)" d="M84.324,52.773c-2.91,1.895-4.365,4.098-4.365,6.605c0,0.864,0.132,1.451,0.399,1.757
					c0.268,0.307,0.766,0.459,1.494,0.459c2.159,0,3.759-0.312,4.796-0.941c1.037-0.628,1.557-1.681,1.557-3.161V56.78
					c0-1.505,0.307-2.538,0.921-3.097c0.614-0.558,1.718-0.838,3.31-0.838c2.47,0,4.383,0.636,5.753,1.892
					c1.266-1.264,2.484-2.571,3.658-3.916c-1.96-0.583-4.181-0.893-6.693-0.893C90.844,49.93,87.234,50.878,84.324,52.773z"/>
			</g>
			<linearGradient id="XMLID_10_" gradientUnits="userSpaceOnUse" x1="-4.0225" y1="10.6514" x2="127.2984" y2="10.6514">
				<stop  offset="0" style="stop-color:#B3CAFF"/>
				<stop  offset="1" style="stop-color:#0053BD"/>
				<a:midPointStop  offset="0" style="stop-color:#B3CAFF"/>
				<a:midPointStop  offset="0.5" style="stop-color:#B3CAFF"/>
				<a:midPointStop  offset="1" style="stop-color:#0053BD"/>
			</linearGradient>
			<path fill="url(#XMLID_10_)" d="M117.397,17.023H10.013V4.279h107.385V17.023z"/>
			<g>
				<path fill="#FFFFFF" d="M12.938,15.153V6.23h6.107v1.512h-4.313v2.104h3.721v1.512h-3.721v3.794H12.938z"/>
				<path fill="#FFFFFF" d="M20.174,10.754c0-0.91,0.136-1.673,0.406-2.29c0.202-0.455,0.478-0.863,0.828-1.225
					c0.35-0.361,0.733-0.629,1.149-0.804c0.554-0.235,1.193-0.353,1.917-0.353c1.31,0,2.358,0.409,3.146,1.225
					c0.787,0.816,1.18,1.951,1.18,3.405c0,1.441-0.391,2.57-1.171,3.384c-0.781,0.814-1.824,1.221-3.13,1.221
					c-1.322,0-2.374-0.405-3.154-1.215C20.564,13.292,20.174,12.175,20.174,10.754z M22.026,10.693c0,1.011,0.232,1.777,0.698,2.299
					c0.465,0.522,1.056,0.783,1.771,0.783c0.716,0,1.304-0.258,1.763-0.776s0.688-1.294,0.688-2.33c0-1.022-0.223-1.786-0.67-2.29
					c-0.447-0.503-1.041-0.755-1.781-0.755s-1.337,0.255-1.79,0.764C22.253,8.897,22.026,9.667,22.026,10.693z"/>
				<path fill="#FFFFFF" d="M30.23,15.153V6.23h1.74l3.685,6.007V6.23h1.66v8.923h-1.795l-3.63-5.889v5.889H30.23z"/>
				<path fill="#FFFFFF" d="M41.21,15.153V7.742h-2.624V6.23h7.041v1.512h-2.624v7.411H41.21z"/>
			</g>
		</g>
		<path fill="none" d="M128,128H0V0h128V128z"/>
	</g>
</svg>
