<?xml version="1.0" encoding="iso-8859-1"?>
<!-- Generator: Adobe Illustrator 10.0.3, SVG Export Plug-In . SVG Version: 3.0.0 Build 77)  -->
<!DOCTYPE svg PUBLIC "-//W3C//DTD SVG 1.0//EN"    "http://www.w3.org/TR/2001/REC-SVG-20010904/DTD/svg10.dtd" [
	<!ENTITY ns_flows "http://ns.adobe.com/Flows/1.0/">
	<!ENTITY ns_svg "http://www.w3.org/2000/svg">
	<!ENTITY ns_xlink "http://www.w3.org/1999/xlink">
]>
<svg  xmlns="&ns_svg;" xmlns:xlink="&ns_xlink;" xmlns:a="http://ns.adobe.com/AdobeSVGViewerExtensions/3.0/"
	 width="128" height="128" viewBox="0 0 128 128" overflow="visible" enable-background="new 0 0 128 128" xml:space="preserve">
	<g id="Layer_1">
		<g>
			<path fill="#FFFFFF" d="M121.164,1.052H6.836v125.896h80.701l33.627-33.627V1.052z"/>
			<linearGradient id="XMLID_1_" gradientUnits="userSpaceOnUse" x1="63.9204" y1="154.5645" x2="63.9204" y2="-100.9347">
				<stop  offset="0" style="stop-color:#FFFFFF"/>
				<stop  offset="0.2457" style="stop-color:#F6F6F6"/>
				<stop  offset="0.6374" style="stop-color:#DFDFDF"/>
				<stop  offset="1" style="stop-color:#C4C4C4"/>
				<a:midPointStop  offset="0" style="stop-color:#FFFFFF"/>
				<a:midPointStop  offset="0.6045" style="stop-color:#FFFFFF"/>
				<a:midPointStop  offset="1" style="stop-color:#C4C4C4"/>
			</linearGradient>
			<path fill="url(#XMLID_1_)" d="M117.734,4.019H10.266l-0.16,122.654h76.457l31.172-31.252V4.019z"/>
			<linearGradient id="XMLID_2_" gradientUnits="userSpaceOnUse" x1="-26.333" y1="-26.333" x2="56.1662" y2="56.1662">
				<stop  offset="0" style="stop-color:#B3B3B3"/>
				<stop  offset="1" style="stop-color:#828282"/>
				<a:midPointStop  offset="0" style="stop-color:#B3B3B3"/>
				<a:midPointStop  offset="0.5" style="stop-color:#B3B3B3"/>
				<a:midPointStop  offset="1" style="stop-color:#828282"/>
			</linearGradient>
			<path fill="url(#XMLID_2_)" d="M121.164,0.552H6.336v126.896h81.408l33.92-33.92V0.552H121.164z M120.664,1.552
				c0,0.987,0,91.152,0,91.562c-0.289,0.289-33.045,33.045-33.334,33.334c-0.41,0-79.01,0-79.994,0c0-0.988,0-123.909,0-124.896
				C8.322,1.552,119.678,1.552,120.664,1.552z"/>
			<linearGradient id="XMLID_3_" gradientUnits="userSpaceOnUse" x1="43.0229" y1="25.4214" x2="204.0073" y2="111.0652">
				<stop  offset="0" style="stop-color:#FFFFFF"/>
				<stop  offset="0.8603" style="stop-color:#DADADA"/>
				<stop  offset="1" style="stop-color:#D4D4D4"/>
				<a:midPointStop  offset="0" style="stop-color:#FFFFFF"/>
				<a:midPointStop  offset="0.5254" style="stop-color:#FFFFFF"/>
				<a:midPointStop  offset="1" style="stop-color:#D4D4D4"/>
			</linearGradient>
			<path fill="url(#XMLID_3_)" d="M118.006,15.223V3.94H10.199l-0.096,65.34c9.975,4.547,21.151,7.096,32.954,7.096
				C80.402,76.376,111.455,48.876,118.006,15.223z"/>
			<linearGradient id="XMLID_4_" gradientUnits="userSpaceOnUse" x1="-3.8062" y1="10.6514" x2="127.5141" y2="10.6514">
				<stop  offset="0" style="stop-color:#B3CAFF"/>
				<stop  offset="1" style="stop-color:#0053BD"/>
				<a:midPointStop  offset="0" style="stop-color:#B3CAFF"/>
				<a:midPointStop  offset="0.5" style="stop-color:#B3CAFF"/>
				<a:midPointStop  offset="1" style="stop-color:#0053BD"/>
			</linearGradient>
			<path fill="url(#XMLID_4_)" d="M117.613,17.023H10.229V4.279h107.384V17.023z"/>
			<g>
				<path fill="#FFFFFF" d="M15.167,15.033V6.707h1.675v8.327H15.167z"/>
				<path fill="#FFFFFF" d="M18.437,15.033V6.707h2.526l1.487,5.68l1.478-5.68h2.522v8.327h-1.554l-0.007-6.555l-1.633,6.555h-1.629
					l-1.629-6.555l-0.007,6.555H18.437z"/>
				<path fill="#FFFFFF" d="M35.642,15.033h-1.828l-0.717-1.895h-3.327l-0.685,1.895h-1.797l3.214-8.327h1.816L35.642,15.033z
					 M32.553,11.735l-1.155-3.094l-1.119,3.094H32.553z"/>
				<path fill="#FFFFFF" d="M40.411,11.966v-1.403h3.598v3.335c-0.352,0.34-0.86,0.639-1.526,0.897
					c-0.668,0.258-1.342,0.387-2.026,0.387c-0.868,0-1.625-0.183-2.271-0.549c-0.646-0.366-1.131-0.889-1.456-1.57
					c-0.325-0.681-0.487-1.421-0.487-2.222c0-0.868,0.181-1.64,0.543-2.315c0.363-0.675,0.894-1.193,1.593-1.554
					c0.532-0.277,1.195-0.415,1.988-0.415c1.031,0,1.835,0.216,2.415,0.648c0.58,0.432,0.954,1.028,1.12,1.791l-1.663,0.313
					c-0.118-0.408-0.337-0.731-0.66-0.967c-0.324-0.236-0.726-0.354-1.209-0.354c-0.733,0-1.315,0.234-1.748,0.702
					c-0.433,0.468-0.648,1.162-0.648,2.083c0,0.993,0.219,1.738,0.66,2.234c0.438,0.497,1.016,0.745,1.728,0.745
					c0.352,0,0.706-0.07,1.061-0.209c0.354-0.14,0.658-0.31,0.913-0.509v-1.067H40.411z"/>
				<path fill="#FFFFFF" d="M45.569,15.033V6.707h6.172V8.11h-4.497v1.854h4.184v1.404h-4.184v2.262h4.661v1.404H45.569z"/>
			</g>
			<g>
				<linearGradient id="XMLID_5_" gradientUnits="userSpaceOnUse" x1="29.2075" y1="39.9873" x2="29.2075" y2="34.2253">
					<stop  offset="0" style="stop-color:#9E9E9E"/>
					<stop  offset="1" style="stop-color:#616161"/>
					<a:midPointStop  offset="0" style="stop-color:#9E9E9E"/>
					<a:midPointStop  offset="0.5" style="stop-color:#9E9E9E"/>
					<a:midPointStop  offset="1" style="stop-color:#616161"/>
				</linearGradient>
				<path fill="url(#XMLID_5_)" d="M29.208,39.393c-4.537,0-8.216-1.351-8.216-3.017c0-1.667,3.679-3.018,8.216-3.018
					c4.539,0,8.217,1.351,8.217,3.018C37.424,38.042,33.746,39.393,29.208,39.393z"/>
				<linearGradient id="XMLID_6_" gradientUnits="userSpaceOnUse" x1="37.1567" y1="37.7593" x2="109.5998" y2="117.507">
					<stop  offset="0.0337" style="stop-color:#FFFFFF"/>
					<stop  offset="1" style="stop-color:#ABABAB"/>
					<a:midPointStop  offset="0.0337" style="stop-color:#FFFFFF"/>
					<a:midPointStop  offset="0.5" style="stop-color:#FFFFFF"/>
					<a:midPointStop  offset="1" style="stop-color:#ABABAB"/>
				</linearGradient>
				<path fill="url(#XMLID_6_)" d="M107.266,33.38H66.247c-2.195,0-4.028,1.456-4.646,3.447h-43.75
					c-2.699,0-4.887,2.189-4.887,4.888v51.462c0,2.699,2.188,4.887,4.887,4.887h89.415c2.7,0,4.887-2.188,4.887-4.887V38.267
					C112.152,35.569,109.966,33.38,107.266,33.38z"/>
				<g>
					<linearGradient id="XMLID_7_" gradientUnits="userSpaceOnUse" x1="106.1152" y1="45.8394" x2="95.008" y2="35.6796">
						<stop  offset="0.0337" style="stop-color:#FFFFFF"/>
						<stop  offset="1" style="stop-color:#ABABAB"/>
						<a:midPointStop  offset="0.0337" style="stop-color:#FFFFFF"/>
						<a:midPointStop  offset="0.5" style="stop-color:#FFFFFF"/>
						<a:midPointStop  offset="1" style="stop-color:#ABABAB"/>
					</linearGradient>
					<path fill="url(#XMLID_7_)" d="M107.001,44.928c0,0.407-0.304,0.737-0.68,0.737h-9.521c-0.376,0-0.681-0.33-0.681-0.737v-6.508
						c0-0.407,0.305-0.737,0.681-0.737h9.521c0.376,0,0.68,0.33,0.68,0.737V44.928z"/>
					
						<radialGradient id="XMLID_8_" cx="101.207" cy="113.6514" r="6.7013" fx="101.207" fy="113.6514" gradientTransform="matrix(1 0 0 1.0845 0 -76.0719)" gradientUnits="userSpaceOnUse">
						<stop  offset="0" style="stop-color:#85CAFF"/>
						<stop  offset="1" style="stop-color:#003DA9"/>
						<a:midPointStop  offset="0" style="stop-color:#85CAFF"/>
						<a:midPointStop  offset="0.5" style="stop-color:#85CAFF"/>
						<a:midPointStop  offset="1" style="stop-color:#003DA9"/>
					</radialGradient>
					<path fill="url(#XMLID_8_)" d="M106.592,44.682c0,0.377-0.281,0.682-0.628,0.682h-8.805c-0.347,0-0.63-0.305-0.63-0.682v-6.017
						c0-0.377,0.283-0.682,0.63-0.682h8.805c0.347,0,0.628,0.305,0.628,0.682V44.682z"/>
					<linearGradient id="XMLID_9_" gradientUnits="userSpaceOnUse" x1="101.5605" y1="38.7446" x2="101.5605" y2="44.6551">
						<stop  offset="0" style="stop-color:#FFFFFF"/>
						<stop  offset="1" style="stop-color:#000000"/>
						<a:midPointStop  offset="0" style="stop-color:#FFFFFF"/>
						<a:midPointStop  offset="0.5" style="stop-color:#FFFFFF"/>
						<a:midPointStop  offset="1" style="stop-color:#000000"/>
					</linearGradient>
					<path fill="url(#XMLID_9_)"  a:adobe-blending-mode="screen" d="M105.637,38.194h-8.151c-0.322,0-0.583,0.283-0.583,0.63v4.644
						c1.011,0.112,2.787,0.022,4.588-1.447c1.976-1.612,3.836-2.199,4.729-2.402v-0.795C106.22,38.477,105.96,38.194,105.637,38.194
						z"/>
				</g>
				<g>
					<linearGradient id="XMLID_10_" gradientUnits="userSpaceOnUse" x1="92.3604" y1="42.7524" x2="89.1546" y2="39.8201">
						<stop  offset="0.0337" style="stop-color:#FFFFFF"/>
						<stop  offset="1" style="stop-color:#ABABAB"/>
						<a:midPointStop  offset="0.0337" style="stop-color:#FFFFFF"/>
						<a:midPointStop  offset="0.5" style="stop-color:#FFFFFF"/>
						<a:midPointStop  offset="1" style="stop-color:#ABABAB"/>
					</linearGradient>
					<path fill="url(#XMLID_10_)" d="M91.045,39.28c-1.339,0-2.428,1.019-2.428,2.271c0,1.252,1.089,2.269,2.428,2.269
						c1.341,0,2.431-1.017,2.431-2.269C93.476,40.299,92.386,39.28,91.045,39.28z"/>
					<g>
						<g>
							
								<linearGradient id="XMLID_11_" gradientUnits="userSpaceOnUse" x1="99.5469" y1="17.8701" x2="99.5469" y2="14.2501" gradientTransform="matrix(1 0 0 1 -8.5 25.9482)">
								<stop  offset="0" style="stop-color:#9E9E9E"/>
								<stop  offset="1" style="stop-color:#616161"/>
								<a:midPointStop  offset="0" style="stop-color:#9E9E9E"/>
								<a:midPointStop  offset="0.5" style="stop-color:#9E9E9E"/>
								<a:midPointStop  offset="1" style="stop-color:#616161"/>
							</linearGradient>
							<path fill="url(#XMLID_11_)" d="M92.982,41.55c0,1-0.868,1.809-1.938,1.809c-1.068,0-1.936-0.81-1.936-1.809
								c0-1,0.867-1.81,1.936-1.809C92.115,39.742,92.982,40.55,92.982,41.55z"/>
							<path fill="url(#XMLID_11_)" d="M89.019,41.55c0,1.045,0.909,1.895,2.026,1.895c1.121,0,2.031-0.849,2.029-1.895
								c0.002-1.045-0.908-1.896-2.029-1.896C89.928,39.654,89.018,40.505,89.019,41.55z M89.202,41.55
								c0-0.95,0.826-1.724,1.843-1.724c1.019,0,1.845,0.774,1.845,1.723c0,0.95-0.826,1.723-1.845,1.723
								C90.028,43.272,89.202,42.5,89.202,41.55z"/>
							<path fill="url(#XMLID_11_)" d="M91.055,41.601c0.675-0.466,1.307-0.624,1.585-0.674c-0.267-0.563-0.871-0.956-1.572-0.956
								c-0.951,0-1.721,0.719-1.721,1.606c0,0.14,0.018,0.274,0.053,0.405C89.68,42.03,90.361,42.079,91.055,41.601z"/>
						</g>
						<g>
							
								<linearGradient id="XMLID_14_" gradientUnits="userSpaceOnUse" x1="871.8467" y1="-1614.1802" x2="871.8467" y2="-1616.3287" gradientTransform="matrix(1 0 0 1 -780.8008 1657.792)">
								<stop  offset="0" style="stop-color:#FFFFFF"/>
								<stop  offset="1" style="stop-color:#BDBDBD"/>
								<a:midPointStop  offset="0" style="stop-color:#FFFFFF"/>
								<a:midPointStop  offset="0.5" style="stop-color:#FFFFFF"/>
								<a:midPointStop  offset="1" style="stop-color:#BDBDBD"/>
							</linearGradient>
							<path fill="url(#XMLID_14_)" d="M92.982,41.55c0,1-0.868,1.809-1.938,1.809c-1.068,0-1.936-0.81-1.936-1.809
								c0-1,0.867-1.81,1.936-1.809C92.115,39.742,92.982,40.55,92.982,41.55z"/>
							<linearGradient id="XMLID_15_" gradientUnits="userSpaceOnUse" x1="91.0469" y1="43.8184" x2="91.0469" y2="40.1983">
								<stop  offset="0" style="stop-color:#9E9E9E"/>
								<stop  offset="1" style="stop-color:#616161"/>
								<a:midPointStop  offset="0" style="stop-color:#9E9E9E"/>
								<a:midPointStop  offset="0.5" style="stop-color:#9E9E9E"/>
								<a:midPointStop  offset="1" style="stop-color:#616161"/>
							</linearGradient>
							<path fill="url(#XMLID_15_)" d="M89.019,41.55c0,1.045,0.909,1.895,2.026,1.895c1.121,0,2.031-0.849,2.029-1.895
								c0.002-1.045-0.908-1.896-2.029-1.896C89.928,39.654,89.018,40.505,89.019,41.55z M89.202,41.55
								c0-0.95,0.826-1.724,1.843-1.724c1.019,0,1.845,0.774,1.845,1.723c0,0.95-0.826,1.723-1.845,1.723
								C90.028,43.272,89.202,42.5,89.202,41.55z"/>
							
								<linearGradient id="XMLID_16_" gradientUnits="userSpaceOnUse" x1="871.7939" y1="-1617.4233" x2="871.7939" y2="-1615.6201" gradientTransform="matrix(1 0 0 1 -780.8008 1657.792)">
								<stop  offset="0" style="stop-color:#FFFFFF"/>
								<stop  offset="1" style="stop-color:#CFCFCF"/>
								<a:midPointStop  offset="0" style="stop-color:#FFFFFF"/>
								<a:midPointStop  offset="0.5" style="stop-color:#FFFFFF"/>
								<a:midPointStop  offset="1" style="stop-color:#CFCFCF"/>
							</linearGradient>
							<path fill="url(#XMLID_16_)" d="M91.055,41.601c0.675-0.466,1.307-0.624,1.585-0.674c-0.267-0.563-0.871-0.956-1.572-0.956
								c-0.951,0-1.721,0.719-1.721,1.606c0,0.14,0.018,0.274,0.053,0.405C89.68,42.03,90.361,42.079,91.055,41.601z"/>
						</g>
					</g>
				</g>
				<linearGradient id="XMLID_17_" gradientUnits="userSpaceOnUse" x1="14.0947" y1="65.3086" x2="88.1704" y2="65.6873">
					<stop  offset="0.0337" style="stop-color:#FFFFFF"/>
					<stop  offset="1" style="stop-color:#ABABAB"/>
					<a:midPointStop  offset="0.0337" style="stop-color:#FFFFFF"/>
					<a:midPointStop  offset="0.5" style="stop-color:#FFFFFF"/>
					<a:midPointStop  offset="1" style="stop-color:#ABABAB"/>
				</linearGradient>
				<path fill="url(#XMLID_17_)" d="M13.004,91.251h62.054v-51.58H13.004V91.251z"/>
				<linearGradient id="XMLID_18_" gradientUnits="userSpaceOnUse" x1="21.605" y1="36.7822" x2="69.1592" y2="84.337">
					<stop  offset="0" style="stop-color:#9E9E9E"/>
					<stop  offset="1" style="stop-color:#616161"/>
					<a:midPointStop  offset="0" style="stop-color:#9E9E9E"/>
					<a:midPointStop  offset="0.5" style="stop-color:#9E9E9E"/>
					<a:midPointStop  offset="1" style="stop-color:#616161"/>
				</linearGradient>
				<path opacity="0.7" fill="url(#XMLID_18_)" d="M73.959,65.688V52.253H13.365v37.41h98.267V65.688H73.959z"/>
				<path opacity="0.5" fill="#FFFFFF" d="M39.078,52.133H38.31v37.479h0.768V52.133z"/>
				<linearGradient id="XMLID_19_" gradientUnits="userSpaceOnUse" x1="27.2358" y1="60.292" x2="40.6414" y2="73.6977">
					<stop  offset="0" style="stop-color:#9E9E9E"/>
					<stop  offset="1" style="stop-color:#616161"/>
					<a:midPointStop  offset="0" style="stop-color:#9E9E9E"/>
					<a:midPointStop  offset="0.5" style="stop-color:#9E9E9E"/>
					<a:midPointStop  offset="1" style="stop-color:#616161"/>
				</linearGradient>
				<path opacity="0.7" fill="url(#XMLID_19_)" d="M38.201,52.133h-0.768v37.479h0.768V52.133z"/>
				<path opacity="0.5" fill="#FFFFFF" d="M112.354,91.234v-0.769H13.001v0.769H112.354z"/>
				
					<linearGradient id="XMLID_20_" gradientUnits="userSpaceOnUse" x1="409.9971" y1="-340.3774" x2="445.0896" y2="-305.2845" gradientTransform="matrix(0 1 -1 0 -250 -347.7236)">
					<stop  offset="0" style="stop-color:#9E9E9E"/>
					<stop  offset="1" style="stop-color:#616161"/>
					<a:midPointStop  offset="0" style="stop-color:#9E9E9E"/>
					<a:midPointStop  offset="0.5" style="stop-color:#9E9E9E"/>
					<a:midPointStop  offset="1" style="stop-color:#616161"/>
				</linearGradient>
				<path opacity="0.7" fill="url(#XMLID_20_)" d="M112.354,90.356v-0.768H13.001v0.768H112.354z"/>
				<g>
					<linearGradient id="XMLID_21_" gradientUnits="userSpaceOnUse" x1="61.019" y1="51.5044" x2="95.5259" y2="89.4907">
						<stop  offset="0.0337" style="stop-color:#FFFFFF"/>
						<stop  offset="1" style="stop-color:#ABABAB"/>
						<a:midPointStop  offset="0.0337" style="stop-color:#FFFFFF"/>
						<a:midPointStop  offset="0.5" style="stop-color:#FFFFFF"/>
						<a:midPointStop  offset="1" style="stop-color:#ABABAB"/>
					</linearGradient>
					<path fill="url(#XMLID_21_)" d="M99.272,65.274c0,14.219-11.525,25.745-25.746,25.745c-14.219,0-25.745-11.526-25.745-25.745
						c0-14.22,11.526-25.747,25.745-25.747C87.747,39.528,99.272,51.055,99.272,65.274z"/>
					<linearGradient id="XMLID_22_" gradientUnits="userSpaceOnUse" x1="73.5264" y1="96.3545" x2="73.5264" y2="46.7664">
						<stop  offset="0" style="stop-color:#9E9E9E"/>
						<stop  offset="1" style="stop-color:#616161"/>
						<a:midPointStop  offset="0" style="stop-color:#9E9E9E"/>
						<a:midPointStop  offset="0.5" style="stop-color:#9E9E9E"/>
						<a:midPointStop  offset="1" style="stop-color:#616161"/>
					</linearGradient>
					<path fill="url(#XMLID_22_)" d="M47.562,65.274c0,14.316,11.647,25.965,25.964,25.965s25.965-11.648,25.965-25.965
						c0-14.317-11.648-25.966-25.965-25.966S47.562,50.957,47.562,65.274z M48,65.274c0-14.076,11.451-25.527,25.526-25.527
						s25.525,11.452,25.525,25.527c0,14.075-11.45,25.525-25.525,25.525S48,79.35,48,65.274z"/>
					<linearGradient id="XMLID_23_" gradientUnits="userSpaceOnUse" x1="56.3882" y1="65.1865" x2="98.7966" y2="65.4033">
						<stop  offset="0.0337" style="stop-color:#FFFFFF"/>
						<stop  offset="1" style="stop-color:#ABABAB"/>
						<a:midPointStop  offset="0.0337" style="stop-color:#FFFFFF"/>
						<a:midPointStop  offset="0.5" style="stop-color:#FFFFFF"/>
						<a:midPointStop  offset="1" style="stop-color:#ABABAB"/>
					</linearGradient>
					<path fill="url(#XMLID_23_)" d="M91.365,65.274c0,9.852-7.987,17.837-17.839,17.837s-17.838-7.985-17.838-17.837
						c0-9.853,7.986-17.838,17.838-17.838S91.365,55.422,91.365,65.274z"/>
					<linearGradient id="XMLID_24_" gradientUnits="userSpaceOnUse" x1="73.5264" y1="86.8652" x2="73.5264" y2="52.4175">
						<stop  offset="0" style="stop-color:#9E9E9E"/>
						<stop  offset="1" style="stop-color:#616161"/>
						<a:midPointStop  offset="0" style="stop-color:#9E9E9E"/>
						<a:midPointStop  offset="0.5" style="stop-color:#9E9E9E"/>
						<a:midPointStop  offset="1" style="stop-color:#616161"/>
					</linearGradient>
					<path fill="url(#XMLID_24_)" d="M55.49,65.274c0,9.945,8.092,18.037,18.036,18.037c9.946,0,18.037-8.092,18.037-18.037
						c0-9.946-8.091-18.038-18.037-18.038C63.582,47.236,55.49,55.329,55.49,65.274z M55.888,65.274
						c0-9.727,7.913-17.64,17.638-17.64c9.727,0,17.639,7.913,17.639,17.64c0,9.727-7.912,17.639-17.639,17.639
						C63.801,82.913,55.888,75.001,55.888,65.274z"/>
					<linearGradient id="XMLID_25_" gradientUnits="userSpaceOnUse" x1="52.6987" y1="79.6211" x2="76.0321" y2="63.5495">
						<stop  offset="0.0337" style="stop-color:#FFFFFF"/>
						<stop  offset="1" style="stop-color:#999999"/>
						<a:midPointStop  offset="0.0337" style="stop-color:#FFFFFF"/>
						<a:midPointStop  offset="0.5" style="stop-color:#FFFFFF"/>
						<a:midPointStop  offset="1" style="stop-color:#999999"/>
					</linearGradient>
					<path fill="url(#XMLID_25_)" d="M89.242,65.274c0,8.68-7.036,15.715-15.716,15.715c-8.679,0-15.715-7.035-15.715-15.715
						c0-8.681,7.036-15.716,15.715-15.716C82.206,49.559,89.242,56.594,89.242,65.274z"/>
					<linearGradient id="XMLID_26_" gradientUnits="userSpaceOnUse" x1="60.9019" y1="65.21" x2="92.1396" y2="65.3697">
						<stop  offset="0.0337" style="stop-color:#FFFFFF"/>
						<stop  offset="1" style="stop-color:#ABABAB"/>
						<a:midPointStop  offset="0.0337" style="stop-color:#FFFFFF"/>
						<a:midPointStop  offset="0.5" style="stop-color:#FFFFFF"/>
						<a:midPointStop  offset="1" style="stop-color:#ABABAB"/>
					</linearGradient>
					<path fill="url(#XMLID_26_)" d="M86.666,65.274c0,7.256-5.882,13.141-13.14,13.141c-7.256,0-13.14-5.885-13.14-13.141
						c0-7.257,5.884-13.14,13.14-13.14C80.784,52.134,86.666,58.018,86.666,65.274z"/>
					<linearGradient id="XMLID_27_" gradientUnits="userSpaceOnUse" x1="73.5264" y1="82.7422" x2="73.5264" y2="67.9182">
						<stop  offset="0.1685" style="stop-color:#FFFFFF"/>
						<stop  offset="1" style="stop-color:#363636"/>
						<a:midPointStop  offset="0.1685" style="stop-color:#FFFFFF"/>
						<a:midPointStop  offset="0.5" style="stop-color:#FFFFFF"/>
						<a:midPointStop  offset="1" style="stop-color:#363636"/>
					</linearGradient>
					<path fill="url(#XMLID_27_)" d="M84.399,65.274c0,6.006-4.866,10.872-10.873,10.872c-6.005,0-10.872-4.866-10.872-10.872
						S67.521,54.4,73.526,54.4C79.533,54.4,84.399,59.269,84.399,65.274z"/>
					<linearGradient id="XMLID_28_" gradientUnits="userSpaceOnUse" x1="73.5264" y1="81.2217" x2="73.5264" y2="67.6885">
						<stop  offset="0" style="stop-color:#FFFFFF"/>
						<stop  offset="1" style="stop-color:#000000"/>
						<a:midPointStop  offset="0" style="stop-color:#FFFFFF"/>
						<a:midPointStop  offset="0.5" style="stop-color:#FFFFFF"/>
						<a:midPointStop  offset="1" style="stop-color:#000000"/>
					</linearGradient>
					<path fill="url(#XMLID_28_)" d="M83.452,65.274c0,5.481-4.441,9.926-9.926,9.926c-5.482,0-9.925-4.444-9.925-9.926
						c0-5.483,4.442-9.927,9.925-9.927C79.011,55.348,83.452,59.792,83.452,65.274z"/>
					<g>
						
							<radialGradient id="XMLID_29_" cx="73.7393" cy="72.5088" r="11.8932" fx="73.7393" fy="72.5088" gradientUnits="userSpaceOnUse">
							<stop  offset="0" style="stop-color:#BBEBFF"/>
							<stop  offset="1" style="stop-color:#003DD7"/>
							<a:midPointStop  offset="0" style="stop-color:#BBEBFF"/>
							<a:midPointStop  offset="0.5" style="stop-color:#BBEBFF"/>
							<a:midPointStop  offset="1" style="stop-color:#003DD7"/>
						</radialGradient>
						<path fill="url(#XMLID_29_)" d="M79.905,65.274c0,3.523-2.856,6.379-6.379,6.379c-3.521,0-6.38-2.855-6.38-6.379
							s2.858-6.379,6.38-6.379C77.049,58.895,79.905,61.751,79.905,65.274z"/>
						<linearGradient id="XMLID_30_" gradientUnits="userSpaceOnUse" x1="73.5273" y1="58.29" x2="73.5273" y2="65.3286">
							<stop  offset="0" style="stop-color:#FFFFFF"/>
							<stop  offset="1" style="stop-color:#000000"/>
							<a:midPointStop  offset="0" style="stop-color:#FFFFFF"/>
							<a:midPointStop  offset="0.5" style="stop-color:#FFFFFF"/>
							<a:midPointStop  offset="1" style="stop-color:#000000"/>
						</linearGradient>
						<path fill="url(#XMLID_30_)"  a:adobe-blending-mode="screen" d="M78.234,63.059c0,2.088-2.108,3.783-4.708,3.783
							s-4.707-1.694-4.707-3.783c0-2.091,2.107-3.785,4.707-3.785S78.234,60.968,78.234,63.059z"/>
					</g>
				</g>
				<linearGradient id="XMLID_31_" gradientUnits="userSpaceOnUse" x1="49.0557" y1="50.8081" x2="107.7567" y2="115.4282">
					<stop  offset="0.0337" style="stop-color:#FFFFFF"/>
					<stop  offset="1" style="stop-color:#878787"/>
					<a:midPointStop  offset="0.0337" style="stop-color:#FFFFFF"/>
					<a:midPointStop  offset="0.5" style="stop-color:#FFFFFF"/>
					<a:midPointStop  offset="1" style="stop-color:#878787"/>
				</linearGradient>
				<path opacity="0.5" fill="url(#XMLID_31_)"  a:adobe-blending-mode="multiply" d="M108.716,33.6
					c0.143,0.458,0.22,0.945,0.22,1.452v54.91c0,2.698-2.187,4.887-4.887,4.887H14.634c-0.505,0-0.992-0.076-1.45-0.219
					c0.619,1.99,2.474,3.436,4.667,3.436h89.415c2.7,0,4.887-2.188,4.887-4.887V38.267C112.152,36.074,110.708,34.217,108.716,33.6z
					"/>
				<linearGradient id="XMLID_32_" gradientUnits="userSpaceOnUse" x1="62.3477" y1="40.083" x2="62.3477" y2="112.0958">
					<stop  offset="0" style="stop-color:#FFFFFF"/>
					<stop  offset="1" style="stop-color:#000000"/>
					<a:midPointStop  offset="0" style="stop-color:#FFFFFF"/>
					<a:midPointStop  offset="0.5" style="stop-color:#FFFFFF"/>
					<a:midPointStop  offset="1" style="stop-color:#000000"/>
				</linearGradient>
				<path fill="url(#XMLID_32_)"  a:adobe-blending-mode="screen" d="M15.451,44.2c0-2.698,2.187-4.886,4.886-4.886h43.751
					c0.616-1.991,2.45-3.447,4.646-3.447h41.019c0.705,0,1.373,0.151,1.979,0.42c-0.761-1.711-2.472-2.907-4.466-2.907H66.247
					c-2.195,0-4.028,1.456-4.646,3.447h-43.75c-2.699,0-4.887,2.189-4.887,4.888v51.462c0,1.993,1.196,3.705,2.908,4.465
					c-0.27-0.605-0.422-1.274-0.422-1.979V44.2z"/>
				<linearGradient id="XMLID_33_" gradientUnits="userSpaceOnUse" x1="62.5591" y1="104.9609" x2="62.5591" y2="42.3572">
					<stop  offset="0" style="stop-color:#9E9E9E"/>
					<stop  offset="1" style="stop-color:#616161"/>
					<a:midPointStop  offset="0" style="stop-color:#9E9E9E"/>
					<a:midPointStop  offset="0.5" style="stop-color:#9E9E9E"/>
					<a:midPointStop  offset="1" style="stop-color:#616161"/>
				</linearGradient>
				<path fill="url(#XMLID_33_)" d="M66.247,32.942c-2.216,0-4.126,1.386-4.911,3.447c-0.527,0-43.485,0-43.485,0
					c-2.936,0-5.325,2.388-5.325,5.326v51.462c0,2.937,2.389,5.325,5.325,5.325h89.415c2.937,0,5.325-2.389,5.325-5.325V38.267
					c0-2.936-2.389-5.325-5.325-5.325H66.247z M13.403,93.178V41.715c0-2.453,1.996-4.449,4.448-4.449h44.075l0.096-0.309
					c0.581-1.876,2.279-3.139,4.226-3.139h41.019c2.453,0,4.447,1.997,4.447,4.449v54.911c0,2.453-1.994,4.448-4.447,4.448H17.851
					C15.399,97.626,13.403,95.631,13.403,93.178z"/>
			</g>
			<g>
				
					<radialGradient id="XMLID_34_" cx="108.4668" cy="118.249" r="34.7364" fx="108.4668" fy="118.249" gradientUnits="userSpaceOnUse">
					<stop  offset="0" style="stop-color:#000000"/>
					<stop  offset="1" style="stop-color:#000000"/>
					<a:midPointStop  offset="0" style="stop-color:#000000"/>
					<a:midPointStop  offset="0.5" style="stop-color:#000000"/>
					<a:midPointStop  offset="1" style="stop-color:#000000"/>
				</radialGradient>
				<path opacity="0.1" fill="url(#XMLID_34_)" d="M85.191,90.976v35.754h1.793l33.639-33.639v-2.115H85.191z"/>
				<path fill="#FFFFFF" d="M87.537,126.948l33.627-33.627H87.537V126.948z"/>
				<linearGradient id="XMLID_35_" gradientUnits="userSpaceOnUse" x1="104.0166" y1="98.1807" x2="95.0883" y2="135.7938">
					<stop  offset="0" style="stop-color:#FFFFFF"/>
					<stop  offset="1" style="stop-color:#CCCCCC"/>
					<a:midPointStop  offset="0" style="stop-color:#FFFFFF"/>
					<a:midPointStop  offset="0.5" style="stop-color:#FFFFFF"/>
					<a:midPointStop  offset="1" style="stop-color:#CCCCCC"/>
				</linearGradient>
				<path fill="url(#XMLID_35_)" d="M89.865,125.056l29.594-29.592H89.865V125.056z"/>
				<linearGradient id="XMLID_36_" gradientUnits="userSpaceOnUse" x1="82.3086" y1="88.0928" x2="96.1043" y2="101.8885">
					<stop  offset="0" style="stop-color:#B3B3B3"/>
					<stop  offset="1" style="stop-color:#828282"/>
					<a:midPointStop  offset="0" style="stop-color:#B3B3B3"/>
					<a:midPointStop  offset="0.5" style="stop-color:#B3B3B3"/>
					<a:midPointStop  offset="1" style="stop-color:#828282"/>
				</linearGradient>
				<path fill="url(#XMLID_36_)" d="M87.537,92.821c-0.277,0-0.5,0.223-0.5,0.5v33.627c0,0.203,0.121,0.385,0.309,0.463
					c0.186,0.076,0.402,0.033,0.545-0.109l33.627-33.627c0.143-0.145,0.186-0.359,0.109-0.545c-0.078-0.188-0.26-0.309-0.463-0.309
					H87.537z M119.957,93.821c-1.58,1.578-30.342,30.34-31.92,31.92c0-2.209,0-30.986,0-31.92
					C88.971,93.821,117.748,93.821,119.957,93.821z"/>
			</g>
		</g>
		<path fill="none" d="M128,128H0V0h128V128z"/>
	</g>
</svg>
