<?xml version="1.0" encoding="iso-8859-1"?>
<!-- Generator: Adobe Illustrator 10.0.3, SVG Export Plug-In . SVG Version: 3.0.0 Build 77)  -->
<!DOCTYPE svg PUBLIC "-//W3C//DTD SVG 1.0//EN"    "http://www.w3.org/TR/2001/REC-SVG-20010904/DTD/svg10.dtd" [
	<!ENTITY ns_flows "http://ns.adobe.com/Flows/1.0/">
	<!ENTITY ns_svg "http://www.w3.org/2000/svg">
	<!ENTITY ns_xlink "http://www.w3.org/1999/xlink">
]>
<svg  xmlns="&ns_svg;" xmlns:xlink="&ns_xlink;" xmlns:a="http://ns.adobe.com/AdobeSVGViewerExtensions/3.0/"
	 width="128" height="128" viewBox="0 0 128 128" overflow="visible" enable-background="new 0 0 128 128" xml:space="preserve">
	<g id="Layer_1">
		<g>
			<path fill="#FFFFFF" d="M121.164,1.052H6.836v125.896h80.701l33.627-33.627V1.052z"/>
			<linearGradient id="XMLID_1_" gradientUnits="userSpaceOnUse" x1="63.9204" y1="154.5645" x2="63.9204" y2="-100.9347">
				<stop  offset="0" style="stop-color:#FFFFFF"/>
				<stop  offset="0.2457" style="stop-color:#F6F6F6"/>
				<stop  offset="0.6374" style="stop-color:#DFDFDF"/>
				<stop  offset="1" style="stop-color:#C4C4C4"/>
				<a:midPointStop  offset="0" style="stop-color:#FFFFFF"/>
				<a:midPointStop  offset="0.6045" style="stop-color:#FFFFFF"/>
				<a:midPointStop  offset="1" style="stop-color:#C4C4C4"/>
			</linearGradient>
			<path fill="url(#XMLID_1_)" d="M117.734,4.019H10.266l-0.16,122.654h76.457l31.172-31.252V4.019z"/>
			<linearGradient id="XMLID_2_" gradientUnits="userSpaceOnUse" x1="-26.333" y1="-26.333" x2="56.1662" y2="56.1662">
				<stop  offset="0" style="stop-color:#B3B3B3"/>
				<stop  offset="1" style="stop-color:#828282"/>
				<a:midPointStop  offset="0" style="stop-color:#B3B3B3"/>
				<a:midPointStop  offset="0.5" style="stop-color:#B3B3B3"/>
				<a:midPointStop  offset="1" style="stop-color:#828282"/>
			</linearGradient>
			<path fill="url(#XMLID_2_)" d="M121.164,0.552H6.336v126.896h81.408l33.92-33.92V0.552H121.164z M120.664,1.552
				c0,0.987,0,91.152,0,91.562c-0.289,0.289-33.045,33.045-33.334,33.334c-0.41,0-79.01,0-79.994,0c0-0.988,0-123.909,0-124.896
				C8.322,1.552,119.678,1.552,120.664,1.552z"/>
			<linearGradient id="XMLID_3_" gradientUnits="userSpaceOnUse" x1="43.0229" y1="25.4214" x2="204.0073" y2="111.0652">
				<stop  offset="0" style="stop-color:#FFFFFF"/>
				<stop  offset="0.8603" style="stop-color:#DADADA"/>
				<stop  offset="1" style="stop-color:#D4D4D4"/>
				<a:midPointStop  offset="0" style="stop-color:#FFFFFF"/>
				<a:midPointStop  offset="0.5254" style="stop-color:#FFFFFF"/>
				<a:midPointStop  offset="1" style="stop-color:#D4D4D4"/>
			</linearGradient>
			<path fill="url(#XMLID_3_)" d="M118.006,15.223V3.94H10.199l-0.096,65.34c9.975,4.547,21.151,7.096,32.954,7.096
				C80.402,76.376,111.455,48.876,118.006,15.223z"/>
			<linearGradient id="XMLID_4_" gradientUnits="userSpaceOnUse" x1="9.564" y1="8.9326" x2="117.8573" y2="12.3569">
				<stop  offset="0" style="stop-color:#FF9933"/>
				<stop  offset="1" style="stop-color:#CC6633"/>
				<a:midPointStop  offset="0" style="stop-color:#FF9933"/>
				<a:midPointStop  offset="0.5" style="stop-color:#FF9933"/>
				<a:midPointStop  offset="1" style="stop-color:#CC6633"/>
			</linearGradient>
			<path fill-rule="evenodd" clip-rule="evenodd" fill="url(#XMLID_4_)" d="M117.613,17.023H10.229V4.279h107.384V17.023z"/>
			<g>
				<path fill="#FFFFFF" d="M14.297,6.736h3.171c0.715,0,1.26,0.055,1.635,0.164c0.504,0.149,0.936,0.413,1.295,0.792
					s0.633,0.843,0.82,1.393c0.188,0.549,0.282,1.226,0.282,2.031c0,0.708-0.088,1.317-0.264,1.829
					c-0.215,0.625-0.522,1.131-0.92,1.518c-0.301,0.293-0.707,0.522-1.219,0.686c-0.383,0.121-0.895,0.182-1.536,0.182h-3.265V6.736
					z M16.031,8.189v5.688h1.3c0.486,0,0.837-0.027,1.053-0.082c0.282-0.07,0.516-0.189,0.703-0.357s0.338-0.444,0.456-0.829
					c0.117-0.385,0.176-0.909,0.176-1.573c0-0.664-0.059-1.173-0.176-1.529c-0.118-0.355-0.282-0.632-0.494-0.832
					s-0.48-0.334-0.806-0.404C18,8.216,17.523,8.189,16.813,8.189H16.031z"/>
				<path fill="#FFFFFF" d="M25.159,15.33l-3.071-8.594h1.88l2.174,6.359l2.104-6.359h1.842l-3.056,8.594H25.159z"/>
				<path fill="#FFFFFF" d="M30.92,15.33V6.736h1.734v8.594H30.92z"/>
			</g>
			<g>
				<g>
					
						<linearGradient id="XMLID_5_" gradientUnits="userSpaceOnUse" x1="-221.8516" y1="463.585" x2="-198.981" y2="548.9391" gradientTransform="matrix(1 0 0 1 308.4517 -432.9707)">
						<stop  offset="0.2" style="stop-color:#663300"/>
						<stop  offset="0.8" style="stop-color:#FF9933"/>
						<a:midPointStop  offset="0.2" style="stop-color:#663300"/>
						<a:midPointStop  offset="0.5" style="stop-color:#663300"/>
						<a:midPointStop  offset="0.8" style="stop-color:#FF9933"/>
					</linearGradient>
					<path fill-rule="evenodd" clip-rule="evenodd" fill="url(#XMLID_5_)" d="M99.629,28.441c1.489,0.778,2.979,1.55,4.468,2.321
						c3.225,1.871,6.22,3.963,8.883,6.398c-1.094-0.202-2.186-0.396-3.277-0.597c1.122,2.588,1.601,5.043,1.784,7.444
						c-0.674-0.731-1.323-1.516-2.38-1.489c2.011,7.25,2.603,14.501,3.275,21.745c-0.896-0.498-1.785-0.993-2.68-1.49
						c0.396,7.049,1.393,13.799,1.788,20.848c-1.388-1.189-3.376-2.082-4.769-3.271c1.408,8.277,1.899,4.837,3.289,21.88
						c-0.694-0.893-0.508,1.944-1.204,1.054c-1.157,7.561-3.147,0.052-4.814,4.534c-0.317-4.969-2.117-1.852-2.006,0
						c0.895-1.393,0.015,0.976-0.878,2.364c0-1.189-1.241,4.566-1.241,3.377c-3.476,1.883-5.755,4.221-9.229,6.105
						c1.489-1.488,0.889-4.023,2.377-5.514c-3.276,0.793-4.464,2.637-7.738,3.428l2.977-84.289l5.958-3.877
						C96.018,29.092,97.825,28.77,99.629,28.441z"/>
					
						<linearGradient id="XMLID_6_" gradientUnits="userSpaceOnUse" x1="-207.272" y1="472.4805" x2="-220.6486" y2="451.0734" gradientTransform="matrix(1 0 0 1 297.4355 -433.8398)">
						<stop  offset="0.31" style="stop-color:#FFCC00"/>
						<stop  offset="0.69" style="stop-color:#FFFFCC"/>
						<a:midPointStop  offset="0.31" style="stop-color:#FFCC00"/>
						<a:midPointStop  offset="0.5" style="stop-color:#FFCC00"/>
						<a:midPointStop  offset="0.69" style="stop-color:#FFFFCC"/>
					</linearGradient>
					<path fill-rule="evenodd" clip-rule="evenodd" fill="url(#XMLID_6_)" d="M60.133,25.524l11.304,10.349l29.807-7.103
						l3.392-1.912L94.51,26.731l2.741-3.366l-11.378,1.582l1.49-2.683l-6.6,1.268l-6.806-2.16l-0.252,3.461l-4.811-1.08l0.593,3.28
						L60.133,25.524z"/>
					
						<linearGradient id="XMLID_7_" gradientUnits="userSpaceOnUse" x1="-193.7368" y1="460.1289" x2="-246.7698" y2="484.8586" gradientTransform="matrix(1 0 0 1 295.8887 -429.0605)">
						<stop  offset="0.1" style="stop-color:#CC6633"/>
						<stop  offset="0.428" style="stop-color:#FF9E2E"/>
						<stop  offset="0.9" style="stop-color:#FFCC00"/>
						<a:midPointStop  offset="0.1" style="stop-color:#CC6633"/>
						<a:midPointStop  offset="0.5" style="stop-color:#CC6633"/>
						<a:midPointStop  offset="0.428" style="stop-color:#FF9E2E"/>
						<a:midPointStop  offset="0.5" style="stop-color:#FF9E2E"/>
						<a:midPointStop  offset="0.9" style="stop-color:#FFCC00"/>
					</linearGradient>
					<path fill-rule="evenodd" clip-rule="evenodd" fill="url(#XMLID_7_)" d="M56.135,43.143L44.82,39.616
						c3.109-1.583,6.217-3.166,9.328-4.749c-0.459-1.066-0.917-2.14-1.376-3.213c3.464-0.872,6.932-1.737,10.397-2.609
						c-1.224-1.22-2.449-2.447-3.671-3.675c4.514,1.912,9.051,3.742,13.152,6.895c-0.154-0.563-0.308-1.892-0.459-2.449
						c1.529,0.765,3.059,2.294,4.587,3.059c-0.255-1.375,0.252-3.978,0-5.359c1.12,0.718,1.479,2.656,2.6,3.374
						c1.32-3.38,3.719-4.957,6.268-6.285c-1.416,1.905-2.562,4.071-2.749,7.204c4.561-3.91,9.402-6.413,14.372-8.276
						c-2.449,2.199-4.893,4.393-7.34,6.586c4.822-1.489,9.202-2.092,13.606-2.757c-3.973,1.992-7.95,3.984-11.924,5.976
						c3.413-0.69,6.218,0.691,9.632,1.228c-2.649,1.63-4.689,2.039-7.338,3.675c3.056-0.945,6.113-1.247,9.172-0.153
						c-2.294,0.1-4.538,0.456-6.419,2.602c2.036-0.556,4.074,0.564,6.112,2.455c-1.119-0.1-2.242-0.207-3.361-0.308
						c2.568,4.749,1.872,9.497,1.834,14.246c-8.666-1.885-17.328-3.776-25.993-5.668c-4.078-1.784-8.157-3.575-12.233-5.359
						C60.72,45.081,58.428,44.109,56.135,43.143z"/>
					
						<linearGradient id="XMLID_8_" gradientUnits="userSpaceOnUse" x1="-224.9116" y1="473.8945" x2="-248.2098" y2="460.9801" gradientTransform="matrix(1 0 0 1 291.9258 -428.1689)">
						<stop  offset="0.4" style="stop-color:#FFCC00"/>
						<stop  offset="0.6" style="stop-color:#FFFFCC"/>
						<a:midPointStop  offset="0.4" style="stop-color:#FFCC00"/>
						<a:midPointStop  offset="0.5" style="stop-color:#FFCC00"/>
						<a:midPointStop  offset="0.6" style="stop-color:#FFFFCC"/>
					</linearGradient>
					<path fill-rule="evenodd" clip-rule="evenodd" fill="url(#XMLID_8_)" d="M42.527,46.208c2.699-0.207,5.4,0,8.105,0.611
						c6.318-2.248,12.64-4.494,18.96-6.741c-0.875-4.554-2.388-6.399-7.035-10.879c-3.211,0.926-6.422,1.844-9.633,2.763
						c2.419,0.175,4.458,0.483,5.657,1.067c-1.477,0.463-2.956,0.925-4.433,1.381c5.008,0.489,8.738,1.985,10.857,4.138
						c-3.721-1.892-8.006-2.857-12.999-3.065c0.868,1.019,2.804,1.892,3.67,2.911c-2.143-0.563-5.354-0.611-7.493-0.764
						c3.566,1.019,6.777,2.756,9.939,4.594c-4.105-1.274-8.335-2.293-12.844-2.757c1.02,1.221,2.037,2.448,3.059,3.675
						C45.587,43.961,43.648,44.98,42.527,46.208z"/>
					
						<linearGradient id="XMLID_9_" gradientUnits="userSpaceOnUse" x1="-226.8276" y1="503.626" x2="-237.1089" y2="539.481" gradientTransform="matrix(1 0 0 1 290.0171 -414.5371)">
						<stop  offset="0.33" style="stop-color:#FFCC00"/>
						<stop  offset="0.67" style="stop-color:#FFFFCC"/>
						<a:midPointStop  offset="0.33" style="stop-color:#FFCC00"/>
						<a:midPointStop  offset="0.5" style="stop-color:#FFCC00"/>
						<a:midPointStop  offset="0.67" style="stop-color:#FFFFCC"/>
					</linearGradient>
					<path fill-rule="evenodd" clip-rule="evenodd" fill="url(#XMLID_9_)" d="M35.972,93.013l-3.213,8.139l-0.427,5.137l3.212,7.068
						l6.638,1.711l0.643,5.143l6.21-5.568l-2.356,3.854l4.925-3.211l-2.354,5.783l6.638-4.285l-2.569,4.07l6.852-3.213l-2.571,3.428
						l7.924-3.428l-0.643,2.783l10.495-5.996l-0.43,6.211l8.993-9.852l-25.269-15.42L35.972,93.013z"/>
					
						<linearGradient id="XMLID_10_" gradientUnits="userSpaceOnUse" x1="-195.8867" y1="492.8799" x2="-217.5313" y2="520.5837" gradientTransform="matrix(1 0 0 1 301.0732 -410.3066)">
						<stop  offset="0.21" style="stop-color:#CC6633"/>
						<stop  offset="0.5812" style="stop-color:#FFCC00"/>
						<stop  offset="0.79" style="stop-color:#FFCC00"/>
						<a:midPointStop  offset="0.21" style="stop-color:#CC6633"/>
						<a:midPointStop  offset="0.5" style="stop-color:#CC6633"/>
						<a:midPointStop  offset="0.5812" style="stop-color:#FFCC00"/>
						<a:midPointStop  offset="0.5" style="stop-color:#FFCC00"/>
						<a:midPointStop  offset="0.79" style="stop-color:#FFCC00"/>
					</linearGradient>
					<path fill-rule="evenodd" clip-rule="evenodd" fill="url(#XMLID_10_)" d="M73.938,107.542l-7.124,12.398l6.862-3.691
						l-1.321,3.691l8.44-6.066l-2.9,6.33l8.179-7.648l-3.165,7.648l7.649-6.33l3.956-6.332l6.594,2.641l-3.953-4.75l7.91,2.375
						l1.322-9.496l-0.792-8.707l4.484,11.873l-3.433-16.094l4.224,6.068l-2.375-14.773l-4.484-12.657l-22.95,24.264L73.938,107.542z
						"/>
					
						<linearGradient id="XMLID_11_" gradientUnits="userSpaceOnUse" x1="-248.0371" y1="518.0156" x2="-257.7038" y2="534.1036" gradientTransform="matrix(1 0 0 1 290.312 -414.748)">
						<stop  offset="0.11" style="stop-color:#FF9933"/>
						<stop  offset="0.89" style="stop-color:#FFCC00"/>
						<a:midPointStop  offset="0.11" style="stop-color:#FF9933"/>
						<a:midPointStop  offset="0.5" style="stop-color:#FF9933"/>
						<a:midPointStop  offset="0.89" style="stop-color:#FFCC00"/>
					</linearGradient>
					<path fill-rule="evenodd" clip-rule="evenodd" fill="url(#XMLID_11_)" d="M31.687,108.069c0.478-1.562,0.692-2.469,1.172-4.031
						c-0.339,1.281-0.679,2.559-1.018,3.84c1.148-1.439,2.297-2.875,3.445-4.309c-0.226,1.311-0.018,2.627,0.049,3.912
						c2.284-1.92,5.313-4.914,8.566-4.773c-2.011,3.73-4.021,7.467-6.031,11.199c3.196-1.482,6.345-3.143,9.19-6.029
						c-2.091,6.557-4.903,10.949-8.042,14.355c-0.478-1.146,0.751-2.822,0.273-3.969c-1.627,0.668-4.831,1.732-6.458,2.404
						c-0.287-3.639-0.705-7.146-0.993-10.781L31.687,108.069z"/>
					<g>
						
							<linearGradient id="XMLID_12_" gradientUnits="userSpaceOnUse" x1="-237.2651" y1="473.377" x2="-243.9435" y2="477.5501" gradientTransform="matrix(1 0 0 1 293.3862 -426.0107)">
							<stop  offset="0.23" style="stop-color:#FFCC00"/>
							<stop  offset="0.77" style="stop-color:#FFFF99"/>
							<a:midPointStop  offset="0.23" style="stop-color:#FFCC00"/>
							<a:midPointStop  offset="0.5" style="stop-color:#FFCC00"/>
							<a:midPointStop  offset="0.77" style="stop-color:#FFFF99"/>
						</linearGradient>
						<path fill-rule="evenodd" clip-rule="evenodd" fill="url(#XMLID_12_)" d="M47.542,53.62l-0.134-5.279l9.447-5.138
							L53.48,53.485L47.542,53.62z"/>
						
							<linearGradient id="XMLID_13_" gradientUnits="userSpaceOnUse" x1="-235.9346" y1="464.3926" x2="-229.4024" y2="479.7814" gradientTransform="matrix(1 0 0 1 294.9976 -426.8379)">
							<stop  offset="0.33" style="stop-color:#663300"/>
							<stop  offset="0.67" style="stop-color:#FF9933"/>
							<a:midPointStop  offset="0.33" style="stop-color:#663300"/>
							<a:midPointStop  offset="0.5" style="stop-color:#663300"/>
							<a:midPointStop  offset="0.67" style="stop-color:#FF9933"/>
						</linearGradient>
						<path fill-rule="evenodd" clip-rule="evenodd" fill="url(#XMLID_13_)" d="M53.075,50.776c0.27-2.522,1.438-5.044,3.509-7.573
							c1.799-1.214,3.598-2.428,5.398-3.648c3.412,0.281,7.003,0.376,9.987,1.08c-0.63,2.033-1.257,4.058-1.888,6.083
							C64.411,48.073,58.742,49.428,53.075,50.776z"/>
						
							<linearGradient id="XMLID_14_" gradientUnits="userSpaceOnUse" x1="-219.5859" y1="483.0225" x2="-240.782" y2="482.6525" gradientTransform="matrix(1 0 0 1 297.5757 -419.9043)">
							<stop  offset="0.01" style="stop-color:#FFCC00"/>
							<stop  offset="0.99" style="stop-color:#FFFFFF"/>
							<a:midPointStop  offset="0.01" style="stop-color:#FFCC00"/>
							<a:midPointStop  offset="0.5" style="stop-color:#FFCC00"/>
							<a:midPointStop  offset="0.99" style="stop-color:#FFFFFF"/>
						</linearGradient>
						<path fill-rule="evenodd" clip-rule="evenodd" fill="url(#XMLID_14_)" d="M61.928,74.585l-2.865-2.871
							c-0.776-7.819-1.551-15.64-2.329-23.46c3.404-1.254,7.289-3.447,10.209-3.762c2.922-0.309,4.3,1.314,6.449,1.972
							c1.554,2.75,3.105,5.493,4.658,8.243v19.161l-9.315,7.523L61.928,74.585z"/>
						
							<linearGradient id="XMLID_15_" gradientUnits="userSpaceOnUse" x1="-251.7397" y1="474.6875" x2="-229.6262" y2="482.3018" gradientTransform="matrix(1 0 0 1 291.2124 -424.2344)">
							<stop  offset="0.35" style="stop-color:#FFCC00"/>
							<stop  offset="0.65" style="stop-color:#FFFFCC"/>
							<a:midPointStop  offset="0.35" style="stop-color:#FFCC00"/>
							<a:midPointStop  offset="0.5" style="stop-color:#FFCC00"/>
							<a:midPointStop  offset="0.65" style="stop-color:#FFFFCC"/>
						</linearGradient>
						<path fill-rule="evenodd" clip-rule="evenodd" fill="url(#XMLID_15_)" d="M40.077,59.715c0.686,2.059,2.714,3.375,7.702,3.046
							c4.178-1.792,8.358-3.582,12.537-5.373c0.061-3.4,0.119-6.807,0.18-10.208c-1.196-1.133-2.39-1.073-3.582,0.181
							C50.964,52.486,45.536,56.054,40.077,59.715z"/>
						
							<linearGradient id="XMLID_16_" gradientUnits="userSpaceOnUse" x1="-254.4663" y1="488.8906" x2="-240.0848" y2="480.2494" gradientTransform="matrix(1 0 0 1 290.2363 -422.1582)">
							<stop  offset="0.15" style="stop-color:#CC6633"/>
							<stop  offset="0.85" style="stop-color:#FFCC00"/>
							<a:midPointStop  offset="0.15" style="stop-color:#CC6633"/>
							<a:midPointStop  offset="0.5" style="stop-color:#CC6633"/>
							<a:midPointStop  offset="0.85" style="stop-color:#FFCC00"/>
						</linearGradient>
						<path fill-rule="evenodd" clip-rule="evenodd" fill="url(#XMLID_16_)" d="M36.725,66.845c-1.587-0.529-3.177-1.059-4.765-1.59
							c2.978-2.178,5.958-4.365,8.935-6.552c2.715,3.28,7.611,3.28,13.503,1.791C48.508,62.614,42.616,64.726,36.725,66.845z"/>
						
							<linearGradient id="XMLID_17_" gradientUnits="userSpaceOnUse" x1="-250.7578" y1="486.1465" x2="-257.1468" y2="490.1387" gradientTransform="matrix(1 0 0 1 288.6748 -422.2168)">
							<stop  offset="0.2" style="stop-color:#FFCC00"/>
							<stop  offset="0.8" style="stop-color:#FFFFCC"/>
							<a:midPointStop  offset="0.2" style="stop-color:#FFCC00"/>
							<a:midPointStop  offset="0.5" style="stop-color:#FFCC00"/>
							<a:midPointStop  offset="0.8" style="stop-color:#FFFFCC"/>
						</linearGradient>
						<path fill-rule="evenodd" clip-rule="evenodd" fill="url(#XMLID_17_)" d="M30.171,66.247l3.972,1.793l5.163-2.188
							c-4.302,0.664-6.221,0-5.757-1.985L30.171,66.247z"/>
						
							<linearGradient id="XMLID_18_" gradientUnits="userSpaceOnUse" x1="-236.0361" y1="488.5859" x2="-248.0063" y2="497.6061" gradientTransform="matrix(1 0 0 1 297.0557 -424.0918)">
							<stop  offset="0.18" style="stop-color:#FFCC00"/>
							<stop  offset="0.4744" style="stop-color:#FFFFBC"/>
							<stop  offset="0.82" style="stop-color:#FFFFFF"/>
							<a:midPointStop  offset="0.18" style="stop-color:#FFCC00"/>
							<a:midPointStop  offset="0.5" style="stop-color:#FFCC00"/>
							<a:midPointStop  offset="0.4744" style="stop-color:#FFFFBC"/>
							<a:midPointStop  offset="0.5" style="stop-color:#FFFFBC"/>
							<a:midPointStop  offset="0.82" style="stop-color:#FFFFFF"/>
						</linearGradient>
						<path fill-rule="evenodd" clip-rule="evenodd" fill="url(#XMLID_18_)" d="M60.142,60.206l-11.009,3.863l0.365,11.395
							l7.708,1.287l2.936-2.387V60.206z"/>
						
							<linearGradient id="XMLID_19_" gradientUnits="userSpaceOnUse" x1="-223.7935" y1="474.6338" x2="-247.4563" y2="487.7503" gradientTransform="matrix(1 0 0 1 289.9224 -421.9688)">
							<stop  offset="0.09" style="stop-color:#FF9933"/>
							<stop  offset="0.6886" style="stop-color:#FFCC00"/>
							<stop  offset="0.91" style="stop-color:#FFFFCC"/>
							<a:midPointStop  offset="0.09" style="stop-color:#FF9933"/>
							<a:midPointStop  offset="0.5" style="stop-color:#FF9933"/>
							<a:midPointStop  offset="0.6886" style="stop-color:#FFCC00"/>
							<a:midPointStop  offset="0.5" style="stop-color:#FFCC00"/>
							<a:midPointStop  offset="0.91" style="stop-color:#FFFFCC"/>
						</linearGradient>
						<path fill-rule="evenodd" clip-rule="evenodd" fill="url(#XMLID_19_)" d="M35.646,67.497c-0.343-1.65,2.08-2.281,3.724-3.066
							c1.644-0.784,3.793-0.839,5.913-1.536c2.121-0.691,4.411-1.489,6.791-2.622c2.378-1.134,6.119-2.791,7.447-4.165
							c1.326-1.368-0.162-2.006-0.657-2.844c-0.498-0.845-2.048-1.02-2.19-1.972c-0.145-0.959-0.677-2.455,1.533-2.408
							c2.21,0.04,7.691,1.22,10.076,2.622c2.384,1.409,4.491,2.958,3.286,5.258c-1.204,2.308-4.019,3.722-8.325,4.379
							s-10.047,4.138-12.92,7.23c-2.876,3.086-7.323,1.463-9.856,1.316C37.931,69.534,35.991,69.146,35.646,67.497z"/>
						
							<linearGradient id="XMLID_20_" gradientUnits="userSpaceOnUse" x1="-219.9653" y1="482.5635" x2="-247.6646" y2="499.8719" gradientTransform="matrix(1 0 0 1 290.2412 -421.3311)">
							<stop  offset="0.23" style="stop-color:#FFCC00"/>
							<stop  offset="0.77" style="stop-color:#FFFF99"/>
							<a:midPointStop  offset="0.23" style="stop-color:#FFCC00"/>
							<a:midPointStop  offset="0.5" style="stop-color:#FFCC00"/>
							<a:midPointStop  offset="0.77" style="stop-color:#FFFF99"/>
						</linearGradient>
						<path fill-rule="evenodd" clip-rule="evenodd" fill="url(#XMLID_20_)" d="M36.742,69.69c-1.628,8.84-0.568,9.768,6.352,16.42
							c4.162-0.436,8.323-0.875,12.483-1.314c7.402,10.965,17.761-9.818,11.389-11.385c-5.196,1.318-5.848-0.438-6.351-2.631
							c0.803-1.535,0.293-2.822,2.408-4.6c2.114-1.77,8.055-2.857,9.855-5.694c1.805-2.836,0.663-6.237-0.654-8.759
							c-1.321-2.522-4.092-4.286-6.573-5.037c-2.48-0.751-5.771,0.147-7.228,0.878c-1.456,0.725,0.19,1.147,1.535,1.965
							c1.343,0.825,4.844,1.576,6.351,2.851c1.51,1.274,3.156,2.502,2.191,4.379c-0.964,1.878-2.843,1.798-7.229,4.379
							c-4.385,2.583-3.239,9.566-3.503,13.146c-2.849,3.428-4.819-2.998-5.256-1.1c-1.605-1.752,0.273-5.111-1.534-6.352
							c-1.806-1.242-4.261-1.342-6.132-1.094c-1.872,0.248-2.775,2.193-4.162,3.287C39.37,69.245,38.056,69.466,36.742,69.69z"/>
						
							<linearGradient id="XMLID_21_" gradientUnits="userSpaceOnUse" x1="-226.7661" y1="490.7109" x2="-256.8665" y2="508.0894" gradientTransform="matrix(1 0 0 1 288.7871 -422.0586)">
							<stop  offset="0.16" style="stop-color:#FFFF99"/>
							<stop  offset="0.84" style="stop-color:#FFFFFF"/>
							<a:midPointStop  offset="0.16" style="stop-color:#FFFF99"/>
							<a:midPointStop  offset="0.5" style="stop-color:#FFFF99"/>
							<a:midPointStop  offset="0.84" style="stop-color:#FFFFFF"/>
						</linearGradient>
						<path fill-rule="evenodd" clip-rule="evenodd" fill="url(#XMLID_21_)" d="M31.749,67.187l3.679,4.293
							c1.978-0.475,3.952-0.953,5.929-1.428c-1.227,1.359-3.028,0.254-3.681,3.682c-1.903,9.99,12.669,10.08,13.697,10.42
							c2.191-1.732,4.216-3.549,6.336-5.312c3.407-2.25,6.541-3.955,9.404-5.107c0.919,1.695-0.718,4.424-7.974,9.4
							c-2.727,3.119,1.18,3.256,0,6.129c-1.703-1.09-3.407-2.18-5.11-3.27c-1.839-0.205-3.679-0.408-5.519-0.613
							c1.295,2.861,1.227,5.178-0.204,6.953c-2.044,1.223-4.087,2.449-6.132,3.678l-6.134-3.475l-2.249-4.701l1.023-4.498
							l-2.248-2.045l0.407-6.543L31.749,67.187z"/>
						
							<linearGradient id="XMLID_22_" gradientUnits="userSpaceOnUse" x1="-209.0786" y1="462.1211" x2="-226.1777" y2="495.6799" gradientTransform="matrix(1 0 0 1 301.3979 -421.2471)">
							<stop  offset="0.12" style="stop-color:#CC6633"/>
							<stop  offset="0.88" style="stop-color:#FF9966"/>
							<a:midPointStop  offset="0.12" style="stop-color:#CC6633"/>
							<a:midPointStop  offset="0.5" style="stop-color:#CC6633"/>
							<a:midPointStop  offset="0.88" style="stop-color:#FF9966"/>
						</linearGradient>
						<path fill-rule="evenodd" clip-rule="evenodd" fill="url(#XMLID_22_)" d="M75.056,69.978c-0.42-1.367-0.839-2.73-1.262-4.1
							c0.842-2.622,1.68-5.251,2.52-7.872c-0.632-2.207-1.258-4.414-1.889-6.62c-1.466-1.891-2.935-3.783-4.403-5.674
							c2.203,0.846,4.403,1.684,6.606,2.522c-0.631-0.945-1.257-1.891-1.889-2.837c2.308,1.476,4.611,2.945,6.919,4.414
							c-0.104-1.362-0.208-2.73-0.316-4.099c1.469-6.821,6.711-6.506,15.729,0.946c2.811,5.299,2.897,11.503,3.146,17.647
							c-2.307,3.675-4.614,7.349-6.921,11.025c-4.719,0.314-12.378,1.066-17.097,1.381C74.837,74.612,76.416,72.077,75.056,69.978z"
							/>
						
							<linearGradient id="XMLID_23_" gradientUnits="userSpaceOnUse" x1="-211.6431" y1="491.0342" x2="-241.4512" y2="520.8423" gradientTransform="matrix(1 0 0 1 297.8354 -416.5225)">
							<stop  offset="0.28" style="stop-color:#FF9933"/>
							<stop  offset="0.522" style="stop-color:#CC6633"/>
							<stop  offset="0.72" style="stop-color:#FFCC00"/>
							<a:midPointStop  offset="0.28" style="stop-color:#FF9933"/>
							<a:midPointStop  offset="0.5" style="stop-color:#FF9933"/>
							<a:midPointStop  offset="0.522" style="stop-color:#CC6633"/>
							<a:midPointStop  offset="0.5" style="stop-color:#CC6633"/>
							<a:midPointStop  offset="0.72" style="stop-color:#FFCC00"/>
						</linearGradient>
						<path fill-rule="evenodd" clip-rule="evenodd" fill="url(#XMLID_23_)" d="M62.819,86.198l-8.749,6.992l-6.479,0.154
							c1.979-2.418,1.653-4.832-0.976-7.248l8.502-0.213l3.844,3.264l5.528-7.957l-1.194-1.43l8.111-0.715l3.815-5.486l1.67-5.01
							h-5.011l-4.054,3.104l4.769-5.486l2.151-5.009l1.426-6.439l1.909,3.1v-2.146l5.487,2.863l-0.956-1.67l4.054,1.911
							l-1.428,8.109l-3.58-5.251l-1.907,1.911l-1.67-3.816l-3.335,4.051l2.621,5.252l-0.477,5.002l3.574-6.914l-0.952,6.203
							l2.861-3.814l1.909,3.096l2.383-8.348l4.055,2.387l3.577-0.477l1.67,12.398l-2.384,7.869L92.63,96.929l-3.336,4.293
							l1.429-4.77l-5.244,5.008l2.384-3.814l-7.87,9.775l-6.678,5.486l2.146-4.053l-7.87,7.395l1.434-3.58l-9.78,11.447l7.87-15.5
							L69.976,89.3L62.819,86.198z"/>
						
							<linearGradient id="XMLID_24_" gradientUnits="userSpaceOnUse" x1="-223.2456" y1="500.5039" x2="-239.3244" y2="521.0838" gradientTransform="matrix(1 0 0 1 292.0708 -413.6055)">
							<stop  offset="0.3" style="stop-color:#FFCC00"/>
							<stop  offset="0.7" style="stop-color:#FFFF66"/>
							<a:midPointStop  offset="0.3" style="stop-color:#FFCC00"/>
							<a:midPointStop  offset="0.5" style="stop-color:#FFCC00"/>
							<a:midPointStop  offset="0.7" style="stop-color:#FFFF66"/>
						</linearGradient>
						<path fill-rule="evenodd" clip-rule="evenodd" fill="url(#XMLID_24_)" d="M43.025,96.214
							c2.068,2.854,3.896,6.191,4.054,12.879c-0.399,2.545-0.794,5.088-1.192,7.631c1.509-2.781,3.02-5.566,4.53-8.346
							c0.079,1.908,0.16,3.816,0.238,5.723c2.175-4.434,5.117-7.912,8.586-10.732c-1.241,2.736-2.357,5.59-2.624,9.301
							c1.115-1.586,2.443-2.963,4.531-3.576c-0.471,2.471-1.509,4.375-2.624,6.199c2.907-2.18,5.37-4.805,7.631-7.629
							c-0.795,1.828-1.59,3.656-2.386,5.484c7.702-5.621,12.226-10.535,17.172-18.604c-1.19,0.719-2.384,1.434-3.578,2.148
							c0-1.91,0-3.816,0-5.725c-0.477,1.51-0.952,3.021-1.428,4.533c-0.162-1.908-0.319-3.816-0.479-5.725
							c-0.953,1.67-2.066,3.182-3.337,4.531c-0.239-1.83-0.477-3.656-0.714-5.486c0.385-1.756,1.26-3.025,2.622-3.814
							c0.557-1.59,1.114-3.178,1.67-4.771c-0.318-0.238-0.639-0.475-0.956-0.715c-1.109,2.234-2.385,3.984-3.816,5.244
							c-0.318-0.633-0.637-1.27-0.951-1.902c-1.99,1.971-3.978,2.676-5.966,3.336c0.319-0.953,0.636-1.908,0.954-2.861
							c-1.749,1.748-3.497,3.498-5.246,5.246c-1.431,1.193-2.863,2.385-4.292,3.578c-2.227,0.08-4.452,0.16-6.677,0.238
							C46.841,93.673,44.933,94.944,43.025,96.214z"/>
						
							<linearGradient id="XMLID_25_" gradientUnits="userSpaceOnUse" x1="-224.9849" y1="498.7422" x2="-230.6132" y2="530.6621" gradientTransform="matrix(0.8013 0 0 0.8013 247.9111 -318.0688)">
							<stop  offset="0.29" style="stop-color:#FF9933"/>
							<stop  offset="0.5294" style="stop-color:#FFCC00"/>
							<stop  offset="0.71" style="stop-color:#FFFFCC"/>
							<a:midPointStop  offset="0.29" style="stop-color:#FF9933"/>
							<a:midPointStop  offset="0.5" style="stop-color:#FF9933"/>
							<a:midPointStop  offset="0.5294" style="stop-color:#FFCC00"/>
							<a:midPointStop  offset="0.5" style="stop-color:#FFCC00"/>
							<a:midPointStop  offset="0.71" style="stop-color:#FFFFCC"/>
						</linearGradient>
						<path fill-rule="evenodd" clip-rule="evenodd" fill="url(#XMLID_25_)" d="M50.56,92.897c1.658,2.287,3.124,4.961,3.249,10.32
							c-0.319,2.037-0.637,4.074-0.956,6.115c1.209-2.229,2.42-4.463,3.631-6.689c0.063,1.529,0.127,3.059,0.191,4.588
							c1.742-3.555,4.101-6.342,6.879-8.602c-0.994,2.193-1.887,4.48-2.103,7.453c0.894-1.27,1.959-2.373,3.633-2.865
							c-0.378,1.979-1.209,3.508-2.104,4.967c2.331-1.746,4.305-3.852,6.115-6.111c-0.637,1.463-1.273,2.928-1.912,4.395
							c6.172-4.506,9.796-8.441,13.76-14.908c-0.951,0.574-1.911,1.146-2.866,1.721c0-1.527,0-3.059,0-4.588
							c-0.379,1.211-0.763,2.422-1.145,3.633c-0.127-1.529-0.254-3.059-0.382-4.588c-0.764,1.342-1.657,2.551-2.676,3.631
							c-0.19-1.465-0.382-2.926-0.575-4.395c0.313-1.406,1.011-2.426,2.104-3.057c0.446-1.273,0.893-2.549,1.339-3.822
							c-0.255-0.191-0.511-0.383-0.766-0.574c-0.892,1.791-1.911,3.193-3.058,4.203c-0.254-0.506-0.509-1.018-0.765-1.525
							c-1.593,1.578-3.187,2.146-4.778,2.676c0.255-0.766,0.51-1.529,0.765-2.293c-1.402,1.4-2.803,2.803-4.203,4.201
							c-1.148,0.955-2.294,1.91-3.44,2.867c-1.784,0.062-3.184,1.861-4.968,1.922C54,92.593,52.089,91.88,50.56,92.897z"/>
						
							<linearGradient id="XMLID_26_" gradientUnits="userSpaceOnUse" x1="-243.8057" y1="516.7939" x2="-241.7199" y2="506.0638" gradientTransform="matrix(1 0 0 1 292.2793 -413.8125)">
							<stop  offset="0.27" style="stop-color:#BD8C2A"/>
							<stop  offset="0.73" style="stop-color:#996633"/>
							<a:midPointStop  offset="0.27" style="stop-color:#BD8C2A"/>
							<a:midPointStop  offset="0.5" style="stop-color:#BD8C2A"/>
							<a:midPointStop  offset="0.73" style="stop-color:#996633"/>
						</linearGradient>
						<path fill-rule="evenodd" clip-rule="evenodd" fill="url(#XMLID_26_)" d="M43.74,95.501c0.317,0.713,0.636,1.432,0.954,2.145
							c0.159,2.066,0.317,4.137,0.476,6.201c1.273-2.146,2.544-3.1,3.817-5.244c0.316,1.748,0.635,2.305,0.954,4.051
							c1.352-4.293,3.655-7.947,6.917-10.969c-2.545,0.08-5.089,0.16-7.632,0.238C47.396,93.116,45.568,94.308,43.74,95.501z"/>
						
							<linearGradient id="XMLID_27_" gradientUnits="userSpaceOnUse" x1="-214.937" y1="473.2295" x2="-213.8811" y2="488.3302" gradientTransform="matrix(1 0 0 1 303.9604 -427.2021)">
							<stop  offset="0.2" style="stop-color:#FF9933"/>
							<stop  offset="0.8" style="stop-color:#FFCC00"/>
							<a:midPointStop  offset="0.2" style="stop-color:#FF9933"/>
							<a:midPointStop  offset="0.5" style="stop-color:#FF9933"/>
							<a:midPointStop  offset="0.8" style="stop-color:#FFCC00"/>
						</linearGradient>
						<path fill-rule="evenodd" clip-rule="evenodd" fill="url(#XMLID_27_)" d="M85.643,55.866c1.441,2.06,3.722,6.452,6.502,5.527
							c2.78-0.933,2.972-5.923,2.763-8.619c-0.208-2.696-2.286-4.756-3.899-6.016c-1.617-1.261-3.575-1.542-5.041-0.973
							c-1.464,0.563-2.056,1.925-2.112,3.736C83.798,51.332,84.2,53.8,85.643,55.866z"/>
						<g>
							<path fill-rule="evenodd" clip-rule="evenodd" d="M29.673,65.96c0.517,2.549,1.284,4.855,2.163,7.043
								c0.061,2.709-0.16,6.236,0.182,8.127c0.34,1.893,1.2,1.926,1.802,2.889c0,1.746-1.375,3.328-0.27,5.645
								c1.106,2.309,4.059,6.408,7.299,7.178c3.239,0.773,5.346-3.203,8.112-3.973c2.767-0.768,5.024,1.189,7.392-0.182
								c2.369-1.367,3.606-4.814,5.409-7.225c-1.923,1.748-3.491,4.193-5.768,5.24c-2.278,1.047-4.769-0.012-7.211,0.721
								c-2.443,0.734-4.467,4.012-7.21,3.615c-2.745-0.398-5.333-3.717-6.49-5.602c-1.156-1.885-0.208-3.604-0.087-4.693
								c0.121-1.09,0.629-1.205,0.81-1.809c3.063,1.266,6.905,3.236,9.191,3.793c2.288,0.557,2.693-0.727,4.147-0.539
								c1.455,0.184,2.935,1.838,4.326,1.623s3.826-1.465,2.704-2.709c-1.122-1.242-4.247-1.145-6.128-1.084
								c-1.881,0.062-2.166,2.221-4.867,1.443c-2.704-0.768-7.288-4.891-9.554-5.594c-2.266-0.707-1.203,1.383-1.442,2.166
								c-0.241-0.723-0.631-0.92-0.722-1.898c-0.092-0.98,0.12-3.217,0.18-4.422c1.201-1.385,1.502-3.154,2.932-4.152
								c1.431-0.994,4.456-0.355,5.361-1.088c0.903-0.723,0.429-1.49-0.182-1.984c-0.608-0.498-1.698-0.027-2.703-0.361
								c-1.006-0.338-3.333-2.127-4.86-1.082c-1.527,1.041-1.283-0.662-2.666-0.723c2.42-2.47,5.468-4.207,8.609-5.602
								c2.521-1.864,5.047-3.729,7.57-5.593c2.942-2.106,6.179-3.776,8.251-7.344c-2.704,1.945-4.827,4.031-7.53,5.534
								c0.121-1.563-0.621-3.273,0.36-4.695s2.735-1.596,4.867-2.891c2.133-1.294,5.163-3.998,7.931-4.876
								c2.768-0.872,4.675-0.382,6.514-0.322c1.842,0.06,3.521,0.503,4.484,0.684c-0.964-0.657-1.918-1.838-4.339-1.838
								c-2.418,0-4.557-1.368-7.741,0.363c-1.739,0.938-4.769,2.964-7.562,4.594c-2.313,1.348-4.47,2.334-5.597,3.024
								c-2.486,1.523,0.099,3.776-0.72,5.957c-1.023,0.302-2.044,0.603-3.065,0.905c0.181,0.423,0.36,0.844,0.541,1.26
								c-1.864,1.329-3.727,2.655-5.588,3.978C34.171,61.634,31.487,63.793,29.673,65.96z"/>
							<path fill-rule="evenodd" clip-rule="evenodd" d="M57.642,49.823c0.108,1.261-0.135,2.355,0.653,3.22
								c0.79,0.858,1.828,0.207,2.937,0.71c1.11,0.503,4.482,2.77,3.156,2.763c-1.326,0-3.766-2.092-5.333-1.16
								c-0.586,0.349,0.196,1.04-0.212,1.482c-0.681,0.737-2.457,1.281-3.159,2.006c1.16-0.094,2.369-0.363,3.48-0.289
								c1.113,0.074,1.961,0.537,3.155,0.175c1.196-0.364,2.393-1.289,3.59-2.214c-1.197-1.308-2.425-3.212-3.59-3.93
								c-1.163-0.711-2.191,0.362-3.046-0.141C58.42,51.942,58.185,50.695,57.642,49.823z"/>
							<path fill-rule="evenodd" clip-rule="evenodd" d="M80.753,50.903c0-2.435-1.286-5.265,0-7.304
								c1.28-2.031,3.283-3.527,6.479-2.978c3.2,0.557,8.829,2.375,10.801,5.956c1.976,3.582,1.395,9.015,0.272,12.442
								c-1.128,3.433-4.858,4.782-6.749,7.311c1.132-2.529,3.107-4.513,4.858-7.579c1.749-3.065,1.635-7.72,0.271-10.818
								c-1.364-3.106-6.445-5.386-8.909-5.957c-2.468-0.563-4.453,1.061-5.402,2.435c-0.95,1.375,1.08,3.876,1.08,5.412
								c1.764-1.998,4.485-1.12,7.021-0.811c-2.163,0.811-3.601,1.261-4.321,1.354c3.062,1.348,5.039,2.703,5.941,4.058
								c-1.53-0.295-3.062-0.979-4.591,0.268c-0.091,2.166-0.181,4.326-0.271,6.493C86.018,56.812,84.127,53.116,80.753,50.903z"/>
							<path fill-rule="evenodd" clip-rule="evenodd" d="M75.35,56.314c1.577,7.687-1.122,11.517-6.75,12.718
								C72.292,66.589,74.541,62.352,75.35,56.314z"/>
							<path fill-rule="evenodd" clip-rule="evenodd" d="M77.15,66.632c2.436,3.861-1.737,5.787-10.436,6.385
								C72.423,71.796,75.9,69.663,77.15,66.632z"/>
							<path fill-rule="evenodd" clip-rule="evenodd" d="M75.585,68.603c3.289,3.158-0.296,6.033-8.588,8.713
								C72.239,74.749,75.103,71.849,75.585,68.603z"/>
							<path fill-rule="evenodd" clip-rule="evenodd" d="M73.164,77.341c0.748,3.621-2.965,3.898-9.737,1.879
								C68.106,79.913,71.349,79.29,73.164,77.341z"/>
							<path fill-rule="evenodd" clip-rule="evenodd" d="M93.536,66.415c0.827,7.098,1.022,9.68-3.052,15.477
								c0-1.307-0.289-2.906-0.872-4.795c-0.697,4.369-2.323,9.518-5.453,11.992c0.218-2.18-0.437-4.578-0.219-6.76
								c-1.18,3.635-3.194,5.965-6.755,10.248c1.596-1.506,3.634-1.613,5.23-4.361c0.453,3.096-2.1,4.471-2.834,6.98
								c3.76-2.385,7.389-6.393,9.377-11.121c0.066,6.207-2.324,11.541-5.236,16.57c3.237-4.012,7.097-7.096,7.852-14.826
								c0.604,2.031,0.638,4.066,0.654,6.104c2.257-3.34,2.98-7.703,3.487-12.211c0.604,3.031,0.641,6.631,0.658,10.25
								c1.815-6.127,3.916-12.074,3.923-19.408c1.015,0.584,1.739,1.744,2.18,3.494c3.309-8.135,6.378-19.624-3.706-23.547
								C99.203,57.181,97.752,62.633,93.536,66.415z"/>
							<path fill-rule="evenodd" clip-rule="evenodd" d="M80.022,97.476c-1.349,6.697-5.561,7.791-10.917,8.551
								C71.715,104.825,76.374,102.696,80.022,97.476z"/>
							<path fill-rule="evenodd" clip-rule="evenodd" d="M85.688,92.896c-1.348,6.695-5.556,7.789-10.912,8.555
								C77.385,100.243,82.04,98.116,85.688,92.896z"/>
							<path fill-rule="evenodd" clip-rule="evenodd" d="M83.728,100.964c-1.349,6.697-5.558,7.791-10.916,8.551
								C75.424,108.31,80.079,106.185,83.728,100.964z"/>
							<path fill-rule="evenodd" clip-rule="evenodd" d="M98.073,90.853c1.02,6.754-2.562,9.223-7.338,11.768
								C92.777,100.595,96.426,97.007,98.073,90.853z"/>
							<path fill-rule="evenodd" clip-rule="evenodd" d="M86.081,102.845c1.021,6.754-2.562,9.223-7.338,11.768
								C80.786,112.587,84.435,108.997,86.081,102.845z"/>
							<path fill-rule="evenodd" clip-rule="evenodd" d="M47.53,41.97c3.097-2.308,7.706-1.402,7.052,2.421
								C53.035,42.7,50.684,41.896,47.53,41.97z"/>
							<path fill-rule="evenodd" clip-rule="evenodd" d="M49.334,44.049c1.838-1.368,4.572-0.832,4.184,1.435
								C52.601,44.478,51.206,44.001,49.334,44.049z"/>
							<path fill-rule="evenodd" clip-rule="evenodd" d="M67.047,29.454c2.897,2.475,4.93,9.168,2.565,10.952
								C69.656,37.201,68.801,33.552,67.047,29.454z"/>
							<path fill-rule="evenodd" clip-rule="evenodd" d="M71.99,32.438c1.928,3.287,1.657,10.275-1.164,11.187
								C71.924,40.615,72.309,36.885,71.99,32.438z"/>
							<path fill-rule="evenodd" clip-rule="evenodd" d="M77.661,39.28c-3.759,0.617-8.958,5.298-7.857,8.048
								C71.42,44.565,74.039,41.875,77.661,39.28z"/>
							<path fill-rule="evenodd" clip-rule="evenodd" d="M79.706,43.599c-3.472-0.57-9.392,1.986-9.245,4.715
								C72.691,46.376,75.773,44.799,79.706,43.599z"/>
							<path fill-rule="evenodd" clip-rule="evenodd" d="M85.598,25.786c1.577,7.686-1.122,11.522-6.75,12.716
								C82.54,36.067,84.791,31.829,85.598,25.786z"/>
							<path fill-rule="evenodd" clip-rule="evenodd" d="M101.098,34.92c-6.228-4.775-10.854-4.018-14.386,0.523
								C90.515,33.183,95.311,33.008,101.098,34.92z"/>
							
								<linearGradient id="XMLID_28_" gradientUnits="userSpaceOnUse" x1="-250.5684" y1="491.373" x2="-257.1986" y2="492.6618" gradientTransform="matrix(1 0 0 1 288.7324 -421.7314)">
								<stop  offset="0.03" style="stop-color:#000000"/>
								<stop  offset="0.97" style="stop-color:#FFFFFF"/>
								<a:midPointStop  offset="0.03" style="stop-color:#000000"/>
								<a:midPointStop  offset="0.5" style="stop-color:#000000"/>
								<a:midPointStop  offset="0.97" style="stop-color:#FFFFFF"/>
							</linearGradient>
							<path fill-rule="evenodd" clip-rule="evenodd" fill="url(#XMLID_28_)" d="M31.561,68.315
								c0.278,1.695,0.696,3.365,1.614,4.908c0.298-0.598,1.016-1.201,1.315-1.797c-1.436,0.039-1.181-1.322-0.956-1.857
								c0.223-0.529,0.763-0.779,1.553-0.779c0.792,0,2.054,0.637,3.11,0.779c0.079-0.678-0.857-1.719-2.212-1.92
								C32.947,68.032,31.934,67.931,31.561,68.315z"/>
						</g>
					</g>
					<path fill-rule="evenodd" clip-rule="evenodd" d="M35.117,91.694c-1.569,1.121-2.5,2.881-2.795,5.279
						c0.951-0.484,1.1-1.852,2.388-1.65c-2.311,2.43-3.211,6.623-4.872,10.033c0.725-0.926,1.434-1.914,2.483-1.861
						c-2.357,3.316-2.007,7.723-2.483,11.797c0.621-1.791,1.245-3.508,1.863-4.656c-0.351,3.875,0.573,7.33,1.243,10.867
						c-0.314-4.621-0.362-8.633-0.304-11.988c0.03-1.66,3.94-7.281,3.91-7.395c-0.247-0.943-3.78,2.822-3.377,1.012
						c1.065-4.787,2.188-7.471,4.117-8.643C36.566,93.56,35.841,92.626,35.117,91.694z"/>
					<path fill-rule="evenodd" clip-rule="evenodd" d="M50.511,46.584c-1.977-0.771-4.244-0.805-6.223-0.812
						c0.862-1.53,2.677-2.052,4.302-2.435c-0.491-1.717-1.507-2.917-2.761-3.877c2.568-1.757,5.801-3.414,9.13-4.406
						c-0.007-1.509-1.155-1.724-1.445-2.804c2.81-1.475,7.413-1.952,11.209-2.864c-0.902-1.086-2.134-2.266-3.414-2.971
						c3.443-0.295,6.379,1.368,9.417,2.287c-0.271-1.381-0.638-2.763-1.667-4.151c2.123,0.282,4.252,1.066,6.382,1.75
						c-0.164-1.368-0.376-2.729-0.921-4.097c2.297,0.201,4.047,1.194,5.968,2.542c1.886-0.953,3.77-2.052,5.653-1.858
						c-0.716,0.764-1.384,1.824-1.716,2.588c3.568-0.65,7.562-1.207,11.13-1.1c-0.862,0.825-2.153,2.361-3.016,3.179
						c3.103,0.134,6.49-1.301,9.593-0.174c-0.828,0.543-1.94,1.086-2.764,1.623c4.632,2.072,8.971,4.742,13.227,7.572
						c-3.116-2.736-5.927-5.782-10.26-7.297c1.352-0.906,2.7-1.805,4.053-2.703c-3.025-0.49-5.748-1.274-9.991-0.543
						c1.023-1.322,2.376-2.307,3.779-3.246c-4.131,0.08-7.978-0.422-12.955,1.354c0.617-1.476,2.02-2.689,3.78-3.789
						c-3.33,0.57-6.66,0.952-9.99,2.703c-2.317-1.281-5.017-2.179-8.096-2.703c0.306,1.368,0.912,2.83,0,3.789
						c-1.688-0.832-3.76-1.288-6.21-1.354c0.922,1.308,1.747,2.608,1.905,3.911c-3.793-1.081-7.542-2.241-12.112-2.16
						c1.876,1.06,4.157,1.811,4.411,4.091c-3.232,0.972-6.468,1.75-9.701,3.179c0.705,0.885,1.409,1.77,2.112,2.655
						c-4.094,1.027-6.667,3.065-9.542,4.896c1.122,0.892,2.246,1.489,3.367,3.595c-2.467,0.611-4.709,1.897-6.797,3.642
						c2.81,0.141,5.624-0.309,8.431,1.18C49.356,47.382,49.934,46.979,50.511,46.584z"/>
					<path fill-rule="evenodd" clip-rule="evenodd" fill="#FFFFCC" d="M49.951,37.637c1.921-1.073,4.877-1.114,9.483,2.515
						C56.158,40.159,53.298,37.972,49.951,37.637z"/>
					<path fill-rule="evenodd" clip-rule="evenodd" fill="#FFFFCC" d="M73.398,40.796c0.711-2.791,3.205-6.097,10.305-8.987
						C80.904,35.443,76.551,37.281,73.398,40.796z"/>
					<path fill-rule="evenodd" clip-rule="evenodd" fill="#FFFFCC" d="M73.097,44.538c0.888-2.548,3.998-5.009,12.846-5.493
						C82.453,41.734,77.03,42.097,73.097,44.538z"/>
				</g>
				<g>
					
						<linearGradient id="XMLID_29_" gradientUnits="userSpaceOnUse" x1="-242.4443" y1="504.2793" x2="-258.3558" y2="505.3919" gradientTransform="matrix(1 -0.0092 0 0.4623 296.2646 -162.1903)">
						<stop  offset="0.08" style="stop-color:#FFCC00"/>
						<stop  offset="0.92" style="stop-color:#CC6633"/>
						<a:midPointStop  offset="0.08" style="stop-color:#FFCC00"/>
						<a:midPointStop  offset="0.5" style="stop-color:#FFCC00"/>
						<a:midPointStop  offset="0.92" style="stop-color:#CC6633"/>
					</linearGradient>
					<path fill-rule="evenodd" clip-rule="evenodd" fill="url(#XMLID_29_)" d="M53.689,74.786c-1.641,0.416-3.703,0.678-5.94,0.697
						c-5.334,0.047-9.685-1.281-9.685-2.957c0-0.268,0.113-0.531,0.324-0.779c-0.007,0.041-0.01,0.088-0.01,0.135
						c0,1.678,4.349,3.004,9.685,2.959c1.146-0.012,2.25-0.086,3.273-0.209C52.093,74.694,52.88,74.749,53.689,74.786z"/>
					
						<linearGradient id="XMLID_30_" gradientUnits="userSpaceOnUse" x1="-242.021" y1="504.4756" x2="-257.9335" y2="505.5883" gradientTransform="matrix(1 -0.1331 0 0.4623 296.438 -190.1773)">
						<stop  offset="0.04" style="stop-color:#FFCC00"/>
						<stop  offset="0.96" style="stop-color:#CC6633"/>
						<a:midPointStop  offset="0.04" style="stop-color:#FFCC00"/>
						<a:midPointStop  offset="0.5" style="stop-color:#FFCC00"/>
						<a:midPointStop  offset="0.96" style="stop-color:#CC6633"/>
					</linearGradient>
					<path fill-rule="evenodd" clip-rule="evenodd" fill="url(#XMLID_30_)" d="M54.286,76.888c-1.642,0.621-3.705,1.137-5.941,1.438
						c-5.334,0.707-9.685-0.082-9.685-1.758c0-0.271,0.112-0.547,0.323-0.826c-0.007,0.049-0.009,0.094-0.009,0.141
						c0,1.678,4.349,2.469,9.684,1.76c1.147-0.156,2.25-0.367,3.273-0.617C52.689,76.995,53.476,76.952,54.286,76.888z"/>
					
						<linearGradient id="XMLID_31_" gradientUnits="userSpaceOnUse" x1="-242.6514" y1="507.8545" x2="-258.5654" y2="508.9673" gradientTransform="matrix(0.8959 -0.214 0 0.4623 271.9551 -208.8036)">
						<stop  offset="0.01" style="stop-color:#FFCC00"/>
						<stop  offset="0.99" style="stop-color:#CC6633"/>
						<a:midPointStop  offset="0.01" style="stop-color:#FFCC00"/>
						<a:midPointStop  offset="0.5" style="stop-color:#FFCC00"/>
						<a:midPointStop  offset="0.99" style="stop-color:#CC6633"/>
					</linearGradient>
					<path fill-rule="evenodd" clip-rule="evenodd" fill="url(#XMLID_31_)" d="M54.446,79.552c-1.47,0.754-3.318,1.434-5.322,1.912
						c-4.779,1.143-8.678,0.703-8.678-0.973c0-0.27,0.101-0.557,0.291-0.85c-0.007,0.047-0.008,0.094-0.008,0.143
						c0,1.676,3.896,2.115,8.675,0.973c1.027-0.248,2.017-0.545,2.932-0.881C53.016,79.786,53.72,79.679,54.446,79.552z"/>
				</g>
			</g>
			<g>
				
					<radialGradient id="XMLID_32_" cx="108.4668" cy="118.249" r="34.7364" fx="108.4668" fy="118.249" gradientUnits="userSpaceOnUse">
					<stop  offset="0" style="stop-color:#000000"/>
					<stop  offset="1" style="stop-color:#000000"/>
					<a:midPointStop  offset="0" style="stop-color:#000000"/>
					<a:midPointStop  offset="0.5" style="stop-color:#000000"/>
					<a:midPointStop  offset="1" style="stop-color:#000000"/>
				</radialGradient>
				<path opacity="0.1" fill="url(#XMLID_32_)" d="M85.191,90.976v35.754h1.793l33.639-33.639v-2.115H85.191z"/>
				<path fill="#FFFFFF" d="M87.537,126.948l33.627-33.627H87.537V126.948z"/>
				<linearGradient id="XMLID_33_" gradientUnits="userSpaceOnUse" x1="104.0166" y1="98.1807" x2="95.0883" y2="135.7938">
					<stop  offset="0" style="stop-color:#FFFFFF"/>
					<stop  offset="1" style="stop-color:#CCCCCC"/>
					<a:midPointStop  offset="0" style="stop-color:#FFFFFF"/>
					<a:midPointStop  offset="0.5" style="stop-color:#FFFFFF"/>
					<a:midPointStop  offset="1" style="stop-color:#CCCCCC"/>
				</linearGradient>
				<path fill="url(#XMLID_33_)" d="M89.865,125.056l29.594-29.592H89.865V125.056z"/>
				<linearGradient id="XMLID_34_" gradientUnits="userSpaceOnUse" x1="82.3086" y1="88.0928" x2="96.1043" y2="101.8885">
					<stop  offset="0" style="stop-color:#B3B3B3"/>
					<stop  offset="1" style="stop-color:#828282"/>
					<a:midPointStop  offset="0" style="stop-color:#B3B3B3"/>
					<a:midPointStop  offset="0.5" style="stop-color:#B3B3B3"/>
					<a:midPointStop  offset="1" style="stop-color:#828282"/>
				</linearGradient>
				<path fill="url(#XMLID_34_)" d="M87.537,92.821c-0.277,0-0.5,0.223-0.5,0.5v33.627c0,0.203,0.121,0.385,0.309,0.463
					c0.186,0.076,0.402,0.033,0.545-0.109l33.627-33.627c0.143-0.145,0.186-0.359,0.109-0.545c-0.078-0.188-0.26-0.309-0.463-0.309
					H87.537z M119.957,93.821c-1.58,1.578-30.342,30.34-31.92,31.92c0-2.209,0-30.986,0-31.92
					C88.971,93.821,117.748,93.821,119.957,93.821z"/>
			</g>
		</g>
		<path fill="none" d="M128,128H0V0h128V128z"/>
	</g>
</svg>
