<?xml version="1.0" encoding="UTF-8" standalone="no"?>
<!DOCTYPE svg PUBLIC "-//W3C//DTD SVG 20010904//EN"
"http://www.w3.org/TR/2001/REC-SVG-20010904/DTD/svg10.dtd">
<svg
   width="128"
   height="128"
>
  <defs
     id="defs603">
    <linearGradient
       id="defitem30"
       gradientUnits="userSpaceOnUse"
       x1="64.8646"
       y1="123.023"
       x2="64.8646"
       y2="4.20176">
      <stop
         stop-color="#dfdfdf"
         offset="0"
         stop-opacity="1"
         id="stop605" />
      <stop
         stop-color="#f9f9f9"
         offset="0.8595"
         stop-opacity="1"
         id="stop606" />
    </linearGradient>
    <linearGradient
       id="defitem31"
       gradientUnits="userSpaceOnUse"
       x1="104.89"
       y1="32.536"
       x2="90.0927"
       y2="3.63759">
      <stop
         stop-color="#ffffff"
         offset="0"
         stop-opacity="1"
         id="stop608" />
      <stop
         stop-color="#dadad6"
         offset="1"
         stop-opacity="1"
         id="stop609" />
    </linearGradient>
    <linearGradient
       id="defitem32"
       gradientUnits="userSpaceOnUse"
       x1="11.227"
       y1="123.494"
       x2="116.32"
       y2="55.5854">
      <stop
         stop-color="#ffffff"
         offset="0"
         stop-opacity="1"
         id="stop611" />
      <stop
         stop-color="#f4f4f4"
         offset="1"
         stop-opacity="1"
         id="stop612" />
    </linearGradient>
    <linearGradient
       id="defitem33"
       gradientUnits="userSpaceOnUse"
       x1="-56.2222"
       y1="10.6514"
       x2="74.8195"
       y2="10.6514">
      <stop
         offset="0"
         style="stop-color:#ffffff;stop-opacity:1;"
         id="stop654" />
      <stop
         offset="1"
         style="stop-color:#b6d1b1;stop-opacity:1;"
         id="stop655" />
    </linearGradient>
    <linearGradient
       id="defitem0"
       gradientUnits="userSpaceOnUse"
       x1="31.4171"
       y1="20.6732"
       x2="31.4171"
       y2="116.346">
      <stop
         stop-color="#9cff00"
         offset="0"
         stop-opacity="1"
         id="stop618" />
      <stop
         stop-color="#009700"
         offset="0.764"
         stop-opacity="1"
         id="stop619" />
    </linearGradient>
    <radialGradient
       id="defitem1"
       gradientUnits="userSpaceOnUse"
       cx="31.0459"
       cy="36.9991"
       fx="31.0459"
       fy="36.9991"
       r="53.1605">
      <stop
         stop-color="#9cff00"
         offset="0"
         stop-opacity="1"
         id="stop621" />
      <stop
         stop-color="#009700"
         offset="0.764"
         stop-opacity="1"
         id="stop622" />
    </radialGradient>
    <linearGradient
       id="defitem2"
       gradientUnits="userSpaceOnUse"
       x1="31.4171"
       y1="115.111"
       x2="31.4171"
       y2="41.6565">
      <stop
         stop-color="#ffffff"
         offset="0"
         stop-opacity="1"
         id="stop624" />
      <stop
         stop-color="#ffffff"
         offset="1"
         stop-opacity="0"
         id="stop625" />
    </linearGradient>
    <linearGradient
       id="defitem3"
       gradientUnits="userSpaceOnUse"
       x1="31.4171"
       y1="27.6678"
       x2="31.4171"
       y2="78.4256">
      <stop
         stop-color="#5da11f"
         offset="0"
         stop-opacity="1"
         id="stop614" />
      <stop
         stop-color="#0b6e00"
         offset="1"
         stop-opacity="1"
         id="stop615" />
    </linearGradient>
    <radialGradient
       id="defitem4"
       gradientUnits="userSpaceOnUse"
       cx="72.5594"
       cy="19.1307"
       fx="72.5594"
       fy="19.1307"
       r="98.4496">
      <stop
         stop-color="#ffffff"
         offset="0"
         stop-opacity="1"
         id="stop617" />
      <stop
         stop-color="#f9f9fb"
         offset="0.22"
         stop-opacity="1"
         id="stop631" />
      <stop
         stop-color="#e8e8ef"
         offset="0.5081"
         stop-opacity="1"
         id="stop632" />
      <stop
         stop-color="#cdcddb"
         offset="0.8327"
         stop-opacity="1"
         id="stop620" />
      <stop
         stop-color="#bcbccf"
         offset="1"
         stop-opacity="1"
         id="stop634" />
    </radialGradient>
    <radialGradient
       id="defitem5"
       gradientUnits="userSpaceOnUse"
       cx="45.8782"
       cy="24.376"
       fx="45.8782"
       fy="24.376"
       r="56.9438">
      <stop
         stop-color="#ffffff"
         offset="0"
         stop-opacity="1"
         id="stop623" />
      <stop
         stop-color="#f9f9fb"
         offset="0.22"
         stop-opacity="1"
         id="stop637" />
      <stop
         stop-color="#e8e8ef"
         offset="0.5081"
         stop-opacity="1"
         id="stop638" />
      <stop
         stop-color="#cdcddb"
         offset="0.8327"
         stop-opacity="1"
         id="stop626" />
      <stop
         stop-color="#bcbccf"
         offset="1"
         stop-opacity="1"
         id="stop627" />
    </radialGradient>
    <linearGradient
       id="defitem6"
       gradientUnits="userSpaceOnUse"
       x1="79.6331"
       y1="3.23727"
       x2="79.6331"
       y2="75.4554">
      <stop
         stop-color="#ffffff"
         offset="0"
         stop-opacity="1"
         id="stop629" />
      <stop
         stop-color="#6e6e87"
         offset="1"
         stop-opacity="1"
         id="stop630" />
    </linearGradient>
    <linearGradient
       id="defitem7"
       gradientUnits="userSpaceOnUse"
       x1="76.8698"
       y1="92.1997"
       x2="76.8698"
       y2="43.3257">
      <stop
         stop-color="#ffffff"
         offset="0"
         stop-opacity="1"
         id="stop645" />
      <stop
         stop-color="#ffffff"
         offset="1"
         stop-opacity="0"
         id="stop633" />
    </linearGradient>
    <linearGradient
       id="defitem8"
       gradientUnits="userSpaceOnUse"
       x1="65.4432"
       y1="3.23449"
       x2="65.4432"
       y2="75.4529">
      <stop
         stop-color="#ffffff"
         offset="0"
         stop-opacity="1"
         id="stop635" />
      <stop
         stop-color="#6e6e87"
         offset="1"
         stop-opacity="1"
         id="stop636" />
    </linearGradient>
  </defs>
  <path
     id="path605"
     fill="#ffffff"
     d="M121.164 126.948L6.836 126.948L6.836 1.052L87.537 1.052L121.164 34.679L121.164 126.948L121.164 126.948Z"
     transform="matrix(1,0,0,-1,0,128)"
     style="font-size:12;fill:#ffffff;" />
  <path
     id="path614"
     fill="url(#defitem30)"
     d="M117.734 123.981L10.266 123.981L10.106 1.327L86.563 1.327L117.735 32.579L117.735 123.981L117.734 123.981Z"
     transform="matrix(1,0,0,-1,0,128)"
     style="font-size:12;fill:url(#defitem30);" />
  <path
     id="path621"
     fill="#000000"
     fill-opacity="0.9804"
     d="M 85.19101 90.97601 L 85.19101 126.73 L 86.98401 126.73 L 120.623 93.09101 L 120.623 90.97601 L 85.19101 90.97601 L 85.19101 90.97601 z "
     style="font-size:12;fill:#919191;fill-opacity:0.24;" />
  <path
     id="path629"
     fill="#ffffff"
     d="M87.537 1.052L121.164 34.679L87.537 34.679L87.537 1.052Z"
     transform="matrix(1,0,0,-1,0,128)"
     style="font-size:12;fill:#ffffff;" />
  <path
     id="path636"
     fill="url(#defitem31)"
     d="M89.865 2.944L119.459 32.536L89.865 32.536L89.865 2.944Z"
     transform="matrix(1,0,0,-1,0,128)"
     style="font-size:12;fill:url(#defitem31);" />
  <path
     id="path643"
     fill="#828282"
     d="M87.537 35.179C87.26 35.179 87.037 34.956 87.037 34.679L87.037 1.052C87.037 0.849 87.158 0.667 87.346 0.589C87.532 0.513 87.748 0.556 87.891 0.698L121.518 34.325C121.661 34.47 121.704 34.684 121.627 34.87C121.549 35.058 121.367 35.179 121.164 35.179L87.537 35.179ZM119.957 34.179C118.377 32.601 89.615 3.839 88.037 2.259C88.037 4.468 88.037 33.245 88.037 34.179C88.971 34.179 117.748 34.179 119.957 34.179Z"
     transform="matrix(1,0,0,-1,0,128)"
     style="font-size:12;fill:#828282;" />
  <path
     id="path652"
     fill="none"
     d="M128 0L0 0L0 128L128 128L128 0Z"
     transform="matrix(1,0,0,-1,0,128)"
     style="font-size:12;fill:none;" />
  <path
     id="path651"
     fill="url(#defitem32)"
     d="M118.006 112.777L118.006 124.06L10.199 124.06L10.103 58.72C20.078 54.173 31.254 51.624 43.057 51.624C80.402 51.624 111.455 79.124 118.006 112.777Z"
     transform="matrix(1,0,0,-1,0,128)"
     style="font-size:12;fill:url(#defitem32);" />
  <path
     id="path659"
     fill="url(#defitem33)"
     d="M 117.374 16.875 L 10 16.875 L 10 4.130995 L 117.375 4.130995 L 117.375 16.875 L 117.374 16.875 z "
     style="font-size:12;fill:url(#defitem33);" />
  <path
     id="path628"
     fill="#828282"
     d="M121.164 127.448L6.336 127.448L6.336 0.552L87.744 0.552L121.664 34.472L121.664 127.448L121.164 127.448ZM120.664 126.448C120.664 125.461 120.664 35.296 120.664 34.886C120.375 34.597 87.619 1.841 87.33 1.552C86.92 1.552 8.32 1.552 7.336 1.552C7.336 2.54 7.336 125.461 7.336 126.448C8.322 126.448 119.678 126.448 120.664 126.448Z"
     transform="matrix(1,0,0,-1,0,128)"
     style="font-size:12;fill:#828282;" />
  <path
     id="path641"
     fill="#000000"
     stroke-width="0.925891"
     d="M60.056 101.575L29.1702 101.575C28.7729 101.575 28.3803 101.49 28.0192 101.325L1.62684 89.3129C0.636106 88.8629 0 87.8732 0 86.7844L0 69.1791C0 68.2338 0.480552 67.3542 1.27406 66.8431C2.0685 66.3311 3.0685 66.2589 3.92775 66.6515C3.92775 66.6515 7.1518 68.118 10.0786 69.4504C10.0786 62.4471 10.0786 30.2984 10.0786 30.2984C10.0786 28.7652 11.3221 27.5208 12.8564 27.5208L60.057 27.5208C61.5912 27.5208 62.8347 28.7652 62.8347 30.2984L62.8347 98.7974C62.8347 100.331 61.5903 101.575 60.056 101.575Z"
     transform="matrix(0.75,0,0,-0.75,16,112)"
     style="font-size:12;stroke-width:0.925891;" />
  <path
     id="path661"
     fill="url(#defitem0)"
     stroke-width="0.925891"
     d="M29.3711 97.8716L13.7823 90.7758L3.70368 86.19L3.70368 70.6169L13.7823 75.2046L13.7823 31.2243L59.131 31.2243L59.131 97.8716L29.3711 97.8716Z"
     transform="matrix(0.75,0,0,-0.75,16,112)"
     style="font-size:12;fill:url(#defitem0);stroke-width:0.925891;" />
  <path
     id="path644"
     fill="url(#defitem1)"
     stroke-width="0.925891"
     d="M29.3711 97.8716L13.7823 91.1702L3.70368 86.839L3.70368 73.9834L13.7823 78.3146L13.7823 34.9277L59.131 34.9277L59.131 97.8716L29.3711 97.8716Z"
     transform="matrix(0.75,0,0,-0.75,16,112)"
     style="font-size:12;fill:url(#defitem1);stroke-width:0.925891;" />
  <path
     id="path645"
     fill="url(#defitem2)"
     stroke-width="0.925891"
     d="M30.1738 94.1681C28.8452 93.5626 10.0796 85.0215 7.40735 83.8068C7.40735 81.8791 7.40735 79.8358 7.40735 76.373C9.82307 77.473 12.2471 78.5757 12.2471 78.5757C13.3934 79.0969 14.7267 79.0006 15.786 78.3192C16.8452 77.6378 17.486 76.4638 17.486 75.2055C17.486 75.2055 17.486 68.6699 17.486 60.8019C28.4924 57.1382 41.446 54.7764 55.4274 54.1634C55.4274 70.0374 55.4274 90.2323 55.4274 94.1691C49.9237 94.1681 31.4998 94.1681 30.1738 94.1681Z"
     transform="matrix(0.75,0,0,-0.75,16,112)"
     style="font-size:12;fill:url(#defitem2);stroke-width:0.925891;" />
  <path
     id="path646"
     fill="url(#defitem3)"
     stroke-width="0.925891"
     d="M59.1301 98.7974L29.1702 98.7974L2.77776 86.7844L2.77776 69.1791C2.77776 69.1791 10.8731 72.8631 12.8564 73.7649C12.8564 71.0725 12.8564 30.2984 12.8564 30.2984L60.057 30.2984L60.057 98.7974L59.1301 98.7974ZM58.2042 96.9457C58.2042 95.1699 58.2042 33.9259 58.2042 32.1501C56.4644 32.1501 16.4471 32.1501 14.7073 32.1501C14.7073 33.9259 14.7073 76.6425 14.7073 76.6425C14.7073 76.6425 6.61199 72.9585 4.6296 72.0557C4.6296 74.325 4.6296 84.5966 4.6296 85.5928C5.60088 86.0363 29.2146 96.7828 29.572 96.9457C29.9553 96.9457 56.4783 96.9457 58.2042 96.9457Z"
     transform="matrix(0.75,0,0,-0.75,16,112)"
     style="font-size:12;fill:url(#defitem3);stroke-width:0.925891;" />
  <path
     id="path648"
     fill="#000000"
     stroke-width="0.925891"
     d="M125.222 61.7231C125.222 61.7231 121.366 61.7231 118.61 61.7231C118.61 66.5302 118.61 98.7974 118.61 98.7974C118.61 100.332 117.367 101.575 115.832 101.575L52.2376 101.575C51.145 101.575 50.1543 100.935 49.7052 99.939L31.5137 59.5899C31.3516 59.2307 31.2683 58.8409 31.2683 58.4483L31.2683 43.8104C31.2683 42.2763 32.5118 41.0328 34.046 41.0328C34.046 41.0328 60.931 41.0328 65.6236 41.0328C65.6236 37.4664 65.6236 29.8401 65.6236 29.8401C65.6236 28.3059 66.868 27.0625 68.4013 27.0625L115.832 27.0625C117.367 27.0625 118.61 28.3059 118.61 29.8401C118.61 29.8401 118.61 36.2841 118.61 39.6589C121.366 39.6589 125.222 39.6589 125.222 39.6589C126.756 39.6589 128 40.9023 128 42.4365L128 58.9446C128 60.4797 126.756 61.7231 125.222 61.7231ZM69.0587 70.5077L69.0587 57.8308L64.0208 57.8308C65.5106 61.5815 67.343 66.1885 69.0587 70.5077Z"
     transform="matrix(0.75,0,0,-0.75,16,112)"
     style="font-size:12;stroke-width:0.925891;" />
  <path
     id="path650"
     fill="url(#defitem4)"
     stroke-width="0.925891"
     d="M114.907 58.0197L114.907 97.8716L52.8357 97.8716L34.972 58.2493L34.972 44.7363L69.3273 44.7363L69.3273 30.766L114.907 30.766L114.907 43.3632L124.296 43.3632L124.296 58.0197L114.907 58.0197ZM72.7624 54.1273L58.5616 54.1273L69.1226 80.6931L72.7633 80.6931L72.7624 54.1273Z"
     transform="matrix(0.75,0,0,-0.75,16,112)"
     style="font-size:12;fill:url(#defitem4);stroke-width:0.925891;" />
  <path
     id="path667"
     fill="url(#defitem5)"
     stroke-width="0.925891"
     d="M114.907 58.1317L114.907 97.8716L52.8357 97.8716L34.972 60.1621L34.972 47.3019L69.3273 47.3019L69.3273 34.0065L114.907 34.0065L114.907 45.9955L124.296 45.9955L124.296 58.1317L114.907 58.1317ZM72.7624 54.2625L58.5616 54.2625L69.1226 81.5218L72.7633 81.5218L72.7624 54.2625Z"
     transform="matrix(0.75,0,0,-0.75,16,112)"
     style="font-size:12;fill:url(#defitem5);stroke-width:0.925891;" />
  <path
     id="path668"
     fill="url(#defitem6)"
     stroke-width="0.925891"
     d="M114.907 98.7974L52.2376 98.7974L34.046 58.4483L34.046 43.8104C34.046 43.8104 66.6486 43.8104 68.4013 43.8104C68.4013 42.1957 68.4013 29.8401 68.4013 29.8401L115.832 29.8401C115.832 29.8401 115.832 40.8477 115.832 42.4365C117.337 42.4365 125.222 42.4365 125.222 42.4365L125.222 58.9446C125.222 58.9446 117.337 58.9446 115.832 58.9446C115.832 60.7111 115.832 98.7965 115.832 98.7965L114.907 98.7974ZM113.981 96.9457C113.981 95.1792 113.981 57.0938 113.981 57.0938C113.981 57.0938 121.866 57.0938 123.37 57.0938C123.37 55.5782 123.37 45.8047 123.37 44.2891C121.866 44.2891 113.981 44.2891 113.981 44.2891C113.981 44.2891 113.981 33.2815 113.981 31.6927C112.241 31.6927 71.9939 31.6927 70.2523 31.6927C70.2523 33.3074 70.2523 45.6631 70.2523 45.6631C70.2523 45.6631 37.6506 45.6631 35.897 45.6631C35.897 47.2445 35.897 57.691 35.897 58.0511C36.0571 58.4048 52.9579 95.8893 53.4348 96.9457C54.5903 96.9457 112.201 96.9457 113.981 96.9457Z"
     transform="matrix(0.75,0,0,-0.75,16,112)"
     style="font-size:12;fill:url(#defitem6);stroke-width:0.925891;" />
  <path
     id="path653"
     fill="url(#defitem7)"
     stroke-width="0.925891"
     d="M65.681 82.0615C66.2412 83.4707 67.605 84.3966 69.1226 84.3966L72.7633 84.3966C74.8087 84.3966 76.467 82.7383 76.467 80.6931L76.467 54.8208C77.7476 54.7597 79.0383 54.719 80.3457 54.719C92.1382 54.719 102.917 57.3086 111.203 61.5815C111.203 69.7189 111.203 89.3694 111.203 94.1681C104.922 94.1681 59.3783 94.1681 55.2283 94.1681C54.0524 91.5618 47.0543 76.0379 42.5349 66.0154C46.2802 63.0415 50.9839 60.5278 56.3662 58.6289L65.681 82.0615Z"
     transform="matrix(0.75,0,0,-0.75,16,112)"
     style="font-size:12;fill:url(#defitem7);stroke-width:0.925891;" />
  <path
     id="path654"
     fill="url(#defitem8)"
     stroke-width="0.925891"
     d="M72.7624 81.619L68.4949 81.619L57.1977 53.2015L73.6883 53.2015L73.6883 81.619L72.7624 81.619ZM71.8365 79.7673C71.8365 78.1044 71.8365 56.716 71.8365 55.0532C70.3847 55.0532 61.9949 55.0532 59.9264 55.0532C60.819 57.3003 69.3282 78.7053 69.7513 79.7673C70.3467 79.7673 71.0467 79.7673 71.8365 79.7673Z"
     transform="matrix(0.75,0,0,-0.75,16,112)"
     style="font-size:12;fill:url(#defitem8);stroke-width:0.925891;" />
  <path
     transform="scale(0.920348,0.881833)"
     style="font-size:12;font-weight:bold;fill:#ffffff;stroke-width:1;font-family:Helvetica;"
     d="M 63.6485 13.5991 L 63.6245 13.5991 L 60.2045 7.59907 L 58.3085 7.59907 L 58.3085 16.2151 L 59.9885 16.2151 L 59.9885 10.0711 L 60.0125 10.0711 L 63.5285 16.2151 L 65.3285 16.2151 L 65.3285 7.59907 L 63.6485 7.59907 L 63.6485 13.5991 z M 48.6725 11.9071 C 48.6725 15.9511 51.6725 16.4431 52.8125 16.4431 C 53.9525 16.4431 56.9525 15.9511 56.9525 11.9071 C 56.9525 7.86307 53.9525 7.37107 52.8125 7.37107 C 51.6725 7.37107 48.6725 7.86307 48.6725 11.9071 z M 50.4725 11.9071 C 50.4725 9.49507 51.8405 8.89507 52.8125 8.89507 C 53.7845 8.89507 55.1525 9.49507 55.1525 11.9071 C 55.1525 14.3191 53.7845 14.9191 52.8125 14.9191 C 51.8405 14.9191 50.4725 14.3191 50.4725 11.9071 z M 40.3925 16.2151 L 44.0405 16.2151 C 45.8045 16.2151 46.2725 15.9151 46.7645 15.4351 C 47.2205 14.9911 47.5085 14.3431 47.5085 13.6591 C 47.5085 12.8071 47.2325 11.9671 46.1765 11.5711 C 46.5365 11.3911 47.2325 11.0431 47.2325 9.80707 C 47.2325 8.91907 46.6925 7.59907 44.5805 7.59907 L 40.3925 7.59907 L 40.3925 16.2151 z M 42.1205 12.4231 L 44.4125 12.4231 C 45.0605 12.4231 45.7085 12.7111 45.7085 13.4671 C 45.7085 14.3431 45.2045 14.7271 44.3285 14.7271 L 42.1205 14.7271 L 42.1205 12.4231 z M 42.1205 9.08707 L 44.1845 9.08707 C 45.0005 9.08707 45.5045 9.30307 45.5045 10.0111 C 45.5045 10.6951 44.9405 10.9711 44.2325 10.9711 L 42.1205 10.9711 L 42.1205 9.08707 z M 31.7285 16.2151 L 33.4925 16.2151 L 33.4925 12.8431 L 35.3525 12.8431 C 36.6845 12.8431 36.7565 13.2991 36.7565 14.4751 C 36.7565 15.3631 36.8285 15.8071 36.9485 16.2151 L 38.9405 16.2151 L 38.9405 15.9871 C 38.5565 15.8431 38.5565 15.5311 38.5565 14.2711 C 38.5565 12.6631 38.1725 12.3991 37.4645 12.0871 C 38.3165 11.7991 38.7965 10.9831 38.7965 10.0351 C 38.7965 9.29107 38.3765 7.59907 36.0845 7.59907 L 31.7285 7.59907 L 31.7285 16.2151 z M 33.4925 11.3911 L 33.4925 9.08707 L 35.7365 9.08707 C 36.7925 9.08707 36.9965 9.75907 36.9965 10.2151 C 36.9965 11.0671 36.5405 11.3911 35.6045 11.3911 L 33.4925 11.3911 z M 24.8885 14.4391 L 28.0685 14.4391 L 28.6205 16.2151 L 30.5765 16.2151 L 27.5405 7.59907 L 25.4645 7.59907 L 22.3925 16.2151 L 24.2885 16.2151 L 24.8885 14.4391 z M 26.4725 9.54307 L 26.4965 9.54307 L 27.5645 12.9511 L 25.3685 12.9511 L 26.4725 9.54307 z M 16.3325 13.2991 L 17.1725 12.4351 L 19.8365 16.2151 L 22.1525 16.2151 L 18.4325 11.1271 L 21.9485 7.59907 L 19.6205 7.59907 L 16.3325 11.1031 L 16.3325 7.59907 L 14.5325 7.59907 L 14.5325 16.2151 L 16.3325 16.2151 L 16.3325 13.2991 z "
     id="path631" />
</svg>
