<?xml version="1.0" encoding="iso-8859-1"?>
<!-- Generator: Adobe Illustrator 10.0.3, SVG Export Plug-In . SVG Version: 3.0.0 Build 77)  -->
<!DOCTYPE svg PUBLIC "-//W3C//DTD SVG 1.0//EN"    "http://www.w3.org/TR/2001/REC-SVG-20010904/DTD/svg10.dtd" [
	<!ENTITY ns_flows "http://ns.adobe.com/Flows/1.0/">
	<!ENTITY ns_svg "http://www.w3.org/2000/svg">
	<!ENTITY ns_xlink "http://www.w3.org/1999/xlink">
]>
<svg  xmlns="&ns_svg;" xmlns:xlink="&ns_xlink;" xmlns:a="http://ns.adobe.com/AdobeSVGViewerExtensions/3.0/"
	 width="128" height="128" viewBox="0 0 128 128" overflow="visible" enable-background="new 0 0 128 128" xml:space="preserve">
	<g id="Layer_1">
		<g>
			<path fill="#FFFFFF" d="M121.164,1.052H6.836v125.896h80.701l33.627-33.627V1.052z"/>
			<linearGradient id="XMLID_1_" gradientUnits="userSpaceOnUse" x1="63.9204" y1="154.5645" x2="63.9204" y2="-100.9337">
				<stop  offset="0" style="stop-color:#FFFFFF"/>
				<stop  offset="0.258" style="stop-color:#F1F1F1"/>
				<stop  offset="0.7396" style="stop-color:#CECECE"/>
				<stop  offset="0.8595" style="stop-color:#C4C4C4"/>
				<a:midPointStop  offset="0" style="stop-color:#FFFFFF"/>
				<a:midPointStop  offset="0.5674" style="stop-color:#FFFFFF"/>
				<a:midPointStop  offset="0.8595" style="stop-color:#C4C4C4"/>
			</linearGradient>
			<path fill="url(#XMLID_1_)" d="M117.734,4.02H10.266l-0.16,122.653h76.457l31.172-31.252V4.02z"/>
			<linearGradient id="XMLID_2_" gradientUnits="userSpaceOnUse" x1="-26.333" y1="-26.333" x2="56.1662" y2="56.1662">
				<stop  offset="0" style="stop-color:#B3B3B3"/>
				<stop  offset="1" style="stop-color:#828282"/>
				<a:midPointStop  offset="0" style="stop-color:#B3B3B3"/>
				<a:midPointStop  offset="0.5" style="stop-color:#B3B3B3"/>
				<a:midPointStop  offset="1" style="stop-color:#828282"/>
			</linearGradient>
			<path fill="url(#XMLID_2_)" d="M121.164,0.552H6.336v126.896h81.408l33.92-33.92V0.552H121.164z M120.664,1.552
				c0,0.987,0,91.152,0,91.562c-0.289,0.289-33.045,33.045-33.334,33.334c-0.41,0-79.01,0-79.994,0c0-0.988,0-123.908,0-124.896
				C8.322,1.552,119.678,1.552,120.664,1.552z"/>
			<linearGradient id="XMLID_3_" gradientUnits="userSpaceOnUse" x1="43.0229" y1="25.4219" x2="204.0073" y2="111.0656">
				<stop  offset="0" style="stop-color:#FFFFFF"/>
				<stop  offset="0.5033" style="stop-color:#E7E7E7"/>
				<stop  offset="1" style="stop-color:#D4D4D4"/>
				<a:midPointStop  offset="0" style="stop-color:#FFFFFF"/>
				<a:midPointStop  offset="0.452" style="stop-color:#FFFFFF"/>
				<a:midPointStop  offset="1" style="stop-color:#D4D4D4"/>
			</linearGradient>
			<path fill="url(#XMLID_3_)" d="M118.006,15.223V3.94H10.199l-0.096,65.34c9.975,4.547,21.151,7.096,32.954,7.096
				C80.402,76.376,111.455,48.877,118.006,15.223z"/>
		</g>
		<g>
			<g>
				<path fill="#FF0700" d="M67.51,53.482c-0.911,0.012,0.173,0.469,1.363,0.653c0.329-0.258,0.627-0.517,0.893-0.77
					C69.025,53.547,68.271,53.552,67.51,53.482"/>
				<path fill="#FF0700" d="M72.403,52.263c0.544-0.75,0.939-1.57,1.079-2.418c-0.124,0.604-0.451,1.126-0.76,1.677
					c-1.703,1.074-0.162-0.637-0.001-1.288C70.891,52.542,72.47,51.618,72.403,52.263"/>
				<path fill="#FF0700" d="M74.209,47.563c0.111-1.641-0.322-1.123-0.467-0.497C73.911,47.156,74.046,48.225,74.209,47.563"/>
				<path fill="#FF0700" d="M64.054,25.125c0.486,0.086,1.051,0.153,0.971,0.271C65.558,25.277,65.679,25.171,64.054,25.125"/>
				<path fill="#FF0700" d="M65.024,25.395l-0.342,0.071l0.32-0.029L65.024,25.395"/>
				<path fill="#FF0700" d="M80.197,48.185c0.055,1.474-0.431,2.189-0.869,3.457l-0.79,0.393c-0.644,1.252,0.065,0.795-0.396,1.792
					c-1.009,0.895-3.055,2.799-3.71,2.974c-0.479-0.01,0.325-0.565,0.429-0.783c-1.347,0.926-1.083,1.39-3.144,1.952l-0.06-0.134
					c-5.082,2.391-12.142-2.348-12.049-8.812c-0.055,0.411-0.155,0.308-0.266,0.473c-0.263-3.326,1.536-6.666,4.569-8.032
					c2.967-1.468,6.445-0.866,8.568,1.115c-1.167-1.528-3.489-3.15-6.243-3c-2.696,0.044-5.22,1.758-6.062,3.62
					c-1.382,0.87-1.542,3.353-2.144,3.808c-0.811,5.954,1.523,8.526,5.473,11.553c0.619,0.418,0.174,0.483,0.257,0.801
					c-1.311-0.613-2.513-1.541-3.5-2.676c0.524,0.767,1.09,1.512,1.821,2.098c-1.238-0.417-2.889-2.997-3.372-3.102
					c2.132,3.818,8.649,6.695,12.065,5.268c-1.579,0.058-3.587,0.032-5.361-0.624c-0.746-0.383-1.759-1.178-1.579-1.326
					c4.659,1.74,9.471,1.317,13.502-1.914c1.023-0.799,2.144-2.158,2.469-2.176c-0.487,0.733,0.082,0.352-0.291,1
					c1.021-1.648-0.445-0.672,1.055-2.846l0.556,0.763c-0.207-1.369,1.698-3.03,1.504-5.193c0.437-0.661,0.487,0.712,0.023,2.235
					c0.644-1.689,0.171-1.96,0.336-3.354c0.178,0.469,0.414,0.966,0.533,1.46c-0.419-1.632,0.43-2.748,0.64-3.696
					c-0.208-0.092-0.646,0.721-0.747-1.206c0.015-0.837,0.232-0.438,0.316-0.644c-0.165-0.095-0.595-0.736-0.857-1.967
					c0.189-0.29,0.508,0.749,0.766,0.791c-0.165-0.978-0.451-1.724-0.463-2.475c-0.758-1.58-0.27,0.212-0.882-0.678
					c-0.805-2.511,0.667-0.583,0.769-1.723c1.219,1.766,1.913,4.506,2.233,5.639c-0.245-1.383-0.637-2.723-1.119-4.02
					c0.372,0.157-0.596-2.845,0.482-0.857c-1.152-4.236-4.928-8.195-8.402-10.054c0.424,0.389,0.962,0.877,0.769,0.954
					c-1.729-1.028-1.425-1.109-1.673-1.543c-1.406-0.572-1.501,0.046-2.432,0.001c-2.653-1.408-3.163-1.258-5.607-2.14l0.112,0.519
					c-1.76-0.584-2.049,0.221-3.948,0.001c-0.115-0.089,0.608-0.327,1.205-0.413c-1.7,0.224-1.619-0.335-3.283,0.062
					c0.41-0.288,0.843-0.478,1.281-0.722c-1.386,0.084-3.31,0.806-2.716,0.148c-2.26,1.009-6.276,2.425-8.529,4.538l-0.07-0.474
					c-1.033,1.239-4.501,3.701-4.778,5.308L46.31,34.39c-0.537,0.91-0.885,1.94-1.31,2.875c-0.704,1.198-1.031,0.461-0.932,0.65
					c-1.381,2.801-2.068,5.155-2.661,7.087c0.423,0.631,0.01,3.802,0.17,6.338c-0.694,12.535,8.795,24.704,19.168,27.512
					c1.52,0.544,3.78,0.524,5.705,0.579c-2.27-0.649-2.562-0.344-4.773-1.113c-1.594-0.753-1.942-1.61-3.072-2.591l0.447,0.791
					c-2.215-0.784-1.289-0.971-3.091-1.541l0.478-0.623c-0.718-0.056-1.901-1.208-2.224-1.852l-0.786,0.032
					c-0.943-1.163-1.447-2.004-1.409-2.653l-0.254,0.452c-0.287-0.493-3.472-4.366-1.82-3.466c-0.306-0.279-0.714-0.455-1.157-1.26
					l0.337-0.385c-0.794-1.022-1.463-2.334-1.413-2.771c0.424,0.571,0.719,0.68,1.01,0.779c-2.008-4.982-2.121-0.275-3.641-5.071
					l0.321-0.026c-0.246-0.372-0.396-0.774-0.594-1.169l0.14-1.394c-1.445-1.669-0.403-7.105-0.195-10.085
					c0.145-1.212,1.208-2.502,2.014-4.526l-0.492-0.083c0.942-1.64,5.371-6.589,7.424-6.334c0.993-1.249-0.199-0.006-0.393-0.318
					c2.183-2.26,2.869-1.596,4.343-2.003c1.588-0.942-1.364,0.369-0.61-0.359c2.747-0.701,1.947-1.595,5.529-1.95
					c0.378,0.214-0.877,0.332-1.192,0.61c2.289-1.121,7.242-0.864,10.459,0.621c3.731,1.746,7.927,6.902,8.094,11.755l0.188,0.051
					c-0.095,1.928,0.296,4.16-0.382,6.208L80.197,48.185"/>
				<path fill="#FF0700" d="M57.561,54.733l-0.13,0.639c0.601,0.814,1.076,1.696,1.84,2.331
					C58.722,56.63,58.312,56.187,57.561,54.733"/>
				<path fill="#FF0700" d="M58.977,54.678c-0.318-0.351-0.504-0.773-0.715-1.193c0.201,0.739,0.614,1.374,0.996,2.02L58.977,54.678
					"/>
				<path fill="#FF0700" d="M84.04,49.229l-0.133,0.338c-0.246,1.744-0.777,3.47-1.59,5.069
					C83.216,52.948,83.796,51.101,84.04,49.229"/>
				<path fill="#FF0700" d="M64.234,24.687c0.617-0.224,1.515-0.124,2.17-0.273c-0.854,0.072-1.703,0.114-2.54,0.222L64.234,24.687"
					/>
				<path fill="#FF0700" d="M42.595,36.194c0.142,1.314-0.99,1.825,0.25,0.957C43.509,35.655,42.584,36.739,42.595,36.194"/>
				<path fill="#FF0700" d="M41.137,42.28c0.286-0.877,0.337-1.404,0.447-1.912C40.795,41.378,41.22,41.592,41.137,42.28"/>
			</g>
			<g>
				<path d="M38.513,94.479c-0.028,0.028-0.028,4.579-0.084,5.767c-0.056,0.961-0.141,3.024-2.177,3.024
					c-2.092,0-2.601-2.402-2.771-3.449c-0.198-1.157-0.198-2.119-0.198-2.544c0-1.356,0.085-5.145,3.279-5.145
					c0.962,0,1.498,0.283,1.922,0.508L38.513,94.479z M30.314,97.814c0,7.973,4.241,7.973,4.863,7.973
					c1.753,0,2.883-0.963,3.364-2.629l0.056,2.515c0.538-0.028,1.075-0.084,1.951-0.084c0.311,0,0.565,0,0.792,0.029
					c0.226,0,0.451,0.026,0.706,0.055c-0.452-0.903-0.792-2.938-0.792-7.351c0-4.296,0-11.562,0.367-13.769
					c-1.017,0.482-1.894,0.794-3.817,0.962c0.764,0.821,0.764,1.244,0.764,4.976c-0.536-0.17-1.215-0.365-2.376-0.365
					C31.134,90.126,30.314,94.535,30.314,97.814"/>
				<path d="M45.646,96.372c0.028-2.346,0.51-4.439,2.516-4.439c2.206,0,2.374,2.431,2.318,4.439H45.646z M53.278,96.657
					c0-3.309-0.648-6.562-4.834-6.562c-5.766,0-5.766,6.391-5.766,7.746c0,5.74,2.572,8,6.898,8c1.921,0,2.854-0.282,3.364-0.424
					c-0.029-1.018,0.112-1.668,0.283-2.544c-0.594,0.368-1.358,0.849-3.054,0.849c-4.41,0-4.467-4.016-4.467-5.4h7.521
					L53.278,96.657"/>
				<path d="M62.475,97.871c0,2.628-0.479,6.163-3.759,6.163c-0.453,0-1.017-0.086-1.385-0.171
					c-0.057-1.018-0.057-2.771-0.057-4.806c0-2.432,0.254-3.702,0.454-4.325c0.593-2.007,1.921-2.036,2.175-2.036
					C62.051,92.696,62.475,95.666,62.475,97.871z M54.363,100.953c0,2.092,0,3.278-0.34,4.183c1.159,0.453,2.601,0.706,4.326,0.706
					c1.103,0,4.297,0,6.021-3.532c0.82-1.64,1.103-3.845,1.103-5.513c0-1.019-0.113-3.252-0.933-4.665
					c-0.791-1.328-2.065-2.006-3.42-2.006c-2.714,0-3.505,2.261-3.929,3.419c0-1.442,0.027-6.474,0.253-9.045
					c-1.838,0.848-2.968,0.988-4.182,1.102c1.102,0.452,1.102,2.318,1.102,8.396V100.953"/>
				<path d="M70.907,105.673c-0.565-0.084-0.964-0.141-1.783-0.141c-0.902,0-1.525,0.057-2.176,0.141
					c0.283-0.537,0.396-0.792,0.481-2.628c0.112-2.517,0.141-9.246-0.059-10.658c-0.14-1.075-0.394-1.245-0.789-1.526
					c2.316-0.227,2.969-0.397,4.041-0.905c-0.226,1.242-0.256,1.867-0.256,3.759C70.313,103.469,70.285,104.515,70.907,105.673"/>
				<path d="M79.958,97.672c-0.055,1.781-0.083,3.026-0.564,4.015c-0.595,1.272-1.582,1.64-2.318,1.64
					c-1.697,0-2.063-1.412-2.063-2.798c0-2.657,2.375-2.856,3.449-2.856H79.958z M72.184,101.151c0,1.781,0.538,3.56,2.121,4.323
					c0.707,0.312,1.414,0.312,1.641,0.312c2.6,0,3.476-1.924,4.013-3.11c-0.027,1.244,0,2.007,0.086,2.996
					c0.508-0.028,1.018-0.084,1.865-0.084c0.48,0,0.932,0.056,1.415,0.084c-0.313-0.479-0.483-0.763-0.567-1.865
					c-0.057-1.073-0.057-2.147-0.057-3.646l0.028-5.768c0-2.148-0.565-4.268-4.807-4.268c-2.797,0-4.437,0.847-5.257,1.271
					c0.341,0.622,0.623,1.159,0.876,2.375c1.104-0.962,2.545-1.469,4.014-1.469c2.349,0,2.349,1.554,2.349,3.758
					c-0.538-0.027-0.99-0.082-1.754-0.082C74.559,95.979,72.184,97.36,72.184,101.151"/>
				<path d="M96.243,102.874c0.028,0.963,0.028,1.979,0.424,2.799c-0.624-0.055-0.991-0.141-2.15-0.141
					c-0.678,0-1.044,0.057-1.583,0.141c0.113-0.367,0.171-0.508,0.227-0.989c0.085-0.649,0.143-2.827,0.143-3.591V98.04
					c0-1.329,0-3.253-0.086-3.929c-0.057-0.48-0.196-1.782-1.839-1.782c-1.609,0-2.146,1.188-2.345,2.149
					c-0.226,0.989-0.226,2.063-0.226,6.249c0.027,3.617,0.027,3.956,0.309,4.945c-0.479-0.055-1.073-0.113-1.92-0.113
					c-0.68,0-1.132,0.029-1.695,0.113c0.198-0.453,0.31-0.679,0.366-2.261c0.058-1.556,0.17-9.188-0.086-10.997
					c-0.141-1.104-0.424-1.357-0.734-1.64c2.29-0.114,3.024-0.481,3.732-0.849v2.996c0.337-0.876,1.045-2.827,3.873-2.827
					c3.534,0,3.561,2.574,3.591,4.268V102.874"/>
				<path fill="#FF0700" d="M71.145,85.953l-2.342,2.341l-2.34-2.341l2.34-2.34L71.145,85.953"/>
			</g>
		</g>
		<g>
			
				<radialGradient id="XMLID_4_" cx="108.4668" cy="118.249" r="34.7364" fx="108.4668" fy="118.249" gradientUnits="userSpaceOnUse">
				<stop  offset="0" style="stop-color:#000000"/>
				<stop  offset="1" style="stop-color:#000000"/>
				<a:midPointStop  offset="0" style="stop-color:#000000"/>
				<a:midPointStop  offset="0.5" style="stop-color:#000000"/>
				<a:midPointStop  offset="1" style="stop-color:#000000"/>
			</radialGradient>
			<path opacity="0.1" fill="url(#XMLID_4_)" d="M85.191,90.976v35.754h1.793l33.639-33.639v-2.115H85.191z"/>
			<path fill="#FFFFFF" d="M87.537,126.948l33.627-33.627H87.537V126.948z"/>
			<linearGradient id="XMLID_5_" gradientUnits="userSpaceOnUse" x1="104.0166" y1="98.1807" x2="95.0883" y2="135.7938">
				<stop  offset="0" style="stop-color:#FFFFFF"/>
				<stop  offset="1" style="stop-color:#CCCCCC"/>
				<a:midPointStop  offset="0" style="stop-color:#FFFFFF"/>
				<a:midPointStop  offset="0.5" style="stop-color:#FFFFFF"/>
				<a:midPointStop  offset="1" style="stop-color:#CCCCCC"/>
			</linearGradient>
			<path fill="url(#XMLID_5_)" d="M89.865,125.056l29.594-29.592H89.865V125.056z"/>
			<linearGradient id="XMLID_6_" gradientUnits="userSpaceOnUse" x1="82.3086" y1="88.0928" x2="96.1043" y2="101.8885">
				<stop  offset="0" style="stop-color:#B3B3B3"/>
				<stop  offset="1" style="stop-color:#828282"/>
				<a:midPointStop  offset="0" style="stop-color:#B3B3B3"/>
				<a:midPointStop  offset="0.5" style="stop-color:#B3B3B3"/>
				<a:midPointStop  offset="1" style="stop-color:#828282"/>
			</linearGradient>
			<path fill="url(#XMLID_6_)" d="M87.537,92.821c-0.277,0-0.5,0.223-0.5,0.5v33.627c0,0.203,0.121,0.385,0.309,0.463
				c0.186,0.076,0.402,0.033,0.545-0.109l33.627-33.627c0.143-0.145,0.186-0.359,0.109-0.545c-0.078-0.188-0.26-0.309-0.463-0.309
				H87.537z M119.957,93.821c-1.58,1.578-30.342,30.34-31.92,31.92c0-2.209,0-30.986,0-31.92
				C88.971,93.821,117.748,93.821,119.957,93.821z"/>
		</g>
		<path fill="none" d="M128,128H0V0h128V128z"/>
		<linearGradient id="XMLID_7_" gradientUnits="userSpaceOnUse" x1="-56.2222" y1="10.6514" x2="74.8195" y2="10.6514">
			<stop  offset="0" style="stop-color:#FFFFFF"/>
			<stop  offset="1" style="stop-color:#FF0000"/>
			<a:midPointStop  offset="0" style="stop-color:#FFFFFF"/>
			<a:midPointStop  offset="0.5" style="stop-color:#FFFFFF"/>
			<a:midPointStop  offset="1" style="stop-color:#FF0000"/>
		</linearGradient>
		<path fill="url(#XMLID_7_)" d="M117.397,17.023H10.013V4.279h107.385V17.023z"/>
		<g>
			<path fill="#FFFFFF" d="M13.138,7.27h3.171c0.715,0,1.26,0.055,1.635,0.164c0.504,0.148,0.936,0.413,1.295,0.792
				s0.633,0.843,0.82,1.392c0.188,0.549,0.282,1.226,0.282,2.031c0,0.708-0.088,1.317-0.264,1.829
				c-0.215,0.625-0.522,1.131-0.92,1.518c-0.301,0.293-0.708,0.522-1.219,0.686c-0.383,0.121-0.895,0.182-1.535,0.182h-3.265V7.27z
				 M14.872,8.723v5.688h1.3c0.486,0,0.837-0.027,1.053-0.082c0.282-0.07,0.516-0.189,0.703-0.357
				c0.186-0.168,0.338-0.444,0.456-0.829s0.177-0.909,0.177-1.573s-0.059-1.173-0.177-1.529s-0.282-0.632-0.494-0.832
				c-0.212-0.199-0.48-0.334-0.806-0.404c-0.243-0.055-0.72-0.082-1.429-0.082H14.872z"/>
			<path fill="#FFFFFF" d="M21.804,7.27h3.438c0.68,0,1.188,0.028,1.522,0.085c0.334,0.057,0.634,0.175,0.898,0.355
				c0.264,0.18,0.484,0.42,0.66,0.719c0.176,0.3,0.264,0.635,0.264,1.007c0,0.403-0.108,0.773-0.323,1.11
				c-0.215,0.337-0.506,0.589-0.874,0.758c0.52,0.152,0.92,0.412,1.199,0.778s0.419,0.798,0.419,1.293
				c0,0.39-0.091,0.77-0.273,1.138s-0.43,0.664-0.745,0.884c-0.315,0.221-0.703,0.356-1.164,0.407
				c-0.29,0.031-0.988,0.051-2.094,0.059h-2.927V7.27z M23.538,8.708v1.984h1.139c0.677,0,1.098-0.01,1.263-0.029
				c0.297-0.035,0.531-0.138,0.702-0.308c0.17-0.169,0.256-0.393,0.256-0.67c0-0.265-0.074-0.481-0.22-0.647
				c-0.147-0.166-0.365-0.266-0.655-0.301c-0.172-0.02-0.668-0.029-1.486-0.029H23.538z M23.538,12.129v2.281h1.614
				c0.628,0,1.027-0.018,1.196-0.053c0.259-0.046,0.47-0.16,0.633-0.34c0.163-0.18,0.245-0.422,0.245-0.725
				c0-0.256-0.063-0.473-0.188-0.651c-0.126-0.179-0.308-0.309-0.545-0.39c-0.238-0.082-0.753-0.122-1.546-0.122H23.538z"/>
		</g>
	</g>
</svg>
