<?xml version="1.0"?>
<!DOCTYPE svg PUBLIC "-//W3C//DTD SVG 1.0//EN"
	"http://www.w3.org/TR/2001/REC-SVG-20010904/DTD/svg10.dtd">
<svg xmlns:x="http://ns.adobe.com/Extensibility/1.0/"
	xmlns:i="http://ns.adobe.com/AdobeIllustrator/10.0/" xmlns:graph=""
	xmlns="http://www.w3.org/2000/svg" xmlns:xlink="http://www.w3.org/1999/xlink"
	xmlns:a="http://ns.adobe.com/AdobeSVGViewerExtensions/3.0/" width="116"
	height="127" viewBox="-0.358 -0.104 116 127" overflow="visible"
	enable-background="new -0.358 -0.104 116 127" xml:space="preserve">
	<g id="Layer_1_2_">
		<g>
			<g>
				<path d="M114.828 0.5 L0.5 0.5 L0.5 126.396 L81.201 126.396 L114.828 92.769 z"
					 style="fill:rgb(255,255,255)"/>
				<linearGradient id="XMLID_1_" gradientUnits="userSpaceOnUse" x1="57.5845"
					y1="154.013" x2="57.5845" y2="-101.487">
					<stop offset="0" style="stop-color:rgb(255,255,255)"/>
					<stop offset="0.2457" style="stop-color:rgb(246,246,246)"/>
					<stop offset="0.6374" style="stop-color:rgb(223,223,223)"/>
					<stop offset="1" style="stop-color:rgb(196,196,196)"/>
					<a:midPointStop offset="0" style="stop-color:#FFFFFF"/>
					<a:midPointStop offset="0.6045" style="stop-color:#FFFFFF"/>
					<a:midPointStop offset="1" style="stop-color:#C4C4C4"/>
				</linearGradient>
				<path
					d="M111.398 3.467 L3.93 3.467 L3.77 126.121 L80.227 126.121 L111.399 94.869 L111.399
						3.467 z"
					 style="fill:url(#XMLID_1_)"/>
				<linearGradient id="XMLID_2_" gradientUnits="userSpaceOnUse" x1="-32.6685"
					y1="-26.8843" x2="49.8302" y2="55.6144">
					<stop offset="0" style="stop-color:rgb(178,178,178)"/>
					<stop offset="1" style="stop-color:rgb(130,130,130)"/>
					<a:midPointStop offset="0" style="stop-color:#B2B2B2"/>
					<a:midPointStop offset="0.5" style="stop-color:#B2B2B2"/>
					<a:midPointStop offset="1" style="stop-color:#828282"/>
				</linearGradient>
				<path
					d="M114.828 0 L0 0 L0 126.896 L81.408 126.896 L115.328 92.976 L115.328 0 zM114.328 1
						C114.328 1.987 114.328 92.152 114.328 92.563 C114.039 92.852 81.283 125.608
						80.994 125.897 C80.584 125.897 1.984 125.897 1 125.897 C1 124.908 1 1.988
						1 1 C1.986 1 113.342 1 114.328 1 z"
					 style="fill:url(#XMLID_2_)"/>
				<linearGradient id="XMLID_3_" gradientUnits="userSpaceOnUse" x1="36.6875"
					y1="24.8701" x2="197.672" y2="110.514">
					<stop offset="0" style="stop-color:rgb(255,255,255)"/>
					<stop offset="0.8603" style="stop-color:rgb(218,218,218)"/>
					<stop offset="1" style="stop-color:rgb(212,212,212)"/>
					<a:midPointStop offset="0" style="stop-color:#FFFFFF"/>
					<a:midPointStop offset="0.5254" style="stop-color:#FFFFFF"/>
					<a:midPointStop offset="1" style="stop-color:#D4D4D4"/>
				</linearGradient>
				<path
					d="M111.67 14.671 L111.67 3.388 L3.863 3.388 L3.767 68.728 C13.742 73.275 24.918 75.824
						36.721 75.824 C74.066 75.824 105.119 48.325 111.67 14.671 z"
					 style="fill:url(#XMLID_3_)"/>
			</g>
			<linearGradient id="XMLID_4_" gradientUnits="userSpaceOnUse" x1="-10.0635"
				y1="10.0996" x2="121.257" y2="10.0996">
				<stop offset="0" style="stop-color:rgb(179,184,255)"/>
				<stop offset="1" style="stop-color:rgb(58,58,169)"/>
				<a:midPointStop offset="0" style="stop-color:#B3B8FF"/>
				<a:midPointStop offset="0.5" style="stop-color:#B3B8FF"/>
				<a:midPointStop offset="1" style="stop-color:#3A3AA9"/>
			</linearGradient>
			<path
				d="M111.356 16.471 L3.972 16.471 L3.972 3.728 L111.357 3.728 L111.357 16.471 z"
				 style="fill:url(#XMLID_4_)"/>
			<g>
				<radialGradient id="XMLID_5_" cx="102.131" cy="117.697" r="34.7364"
					fx="102.131" fy="117.697" gradientUnits="userSpaceOnUse">
					<stop offset="0" style="stop-color:rgb(0,0,0)"/>
					<stop offset="1" style="stop-color:rgb(0,0,0)"/>
					<a:midPointStop offset="0" style="stop-color:#000000"/>
					<a:midPointStop offset="0.5" style="stop-color:#000000"/>
					<a:midPointStop offset="1" style="stop-color:#000000"/>
				</radialGradient>
				<path
					d="M78.855 90.424 L78.855 126.178 L80.648 126.178 L114.287 92.539 L114.287 90.424 z"
					
					 style="opacity:0.1;fill:url(#XMLID_5_)"/>
				<path d="M81.201 126.396 L114.828 92.769 L81.201 92.769 z"
					 style="fill:rgb(255,255,255)"/>
				<linearGradient id="XMLID_6_" gradientUnits="userSpaceOnUse" x1="97.6807"
					y1="97.6289" x2="88.7524" y2="135.242">
					<stop offset="0" style="stop-color:rgb(255,255,255)"/>
					<stop offset="1" style="stop-color:rgb(204,204,204)"/>
					<a:midPointStop offset="0" style="stop-color:#FFFFFF"/>
					<a:midPointStop offset="0.5" style="stop-color:#FFFFFF"/>
					<a:midPointStop offset="1" style="stop-color:#CCCCCC"/>
				</linearGradient>
				<path d="M83.529 124.504 L113.123 94.912 L83.529 94.912 z"
					 style="fill:url(#XMLID_6_)"/>
				<linearGradient id="XMLID_7_" gradientUnits="userSpaceOnUse" x1="75.9727"
					y1="87.541" x2="89.7684" y2="101.337">
					<stop offset="0" style="stop-color:rgb(178,178,178)"/>
					<stop offset="1" style="stop-color:rgb(130,130,130)"/>
					<a:midPointStop offset="0" style="stop-color:#B2B2B2"/>
					<a:midPointStop offset="0.5" style="stop-color:#B2B2B2"/>
					<a:midPointStop offset="1" style="stop-color:#828282"/>
				</linearGradient>
				<path
					d="M81.201 92.27 C80.924 92.27 80.701 92.493 80.701 92.77 L80.701 126.397 C80.701 126.6
						80.822 126.782 81.01 126.86 C81.196 126.936 81.412 126.893 81.555 126.751
						L115.182 93.124 C115.325 92.979 115.368 92.765 115.291 92.579 C115.213
						92.391 115.031 92.27 114.828 92.27 zM113.621 93.27 C112.041 94.848 83.279
						123.61 81.701 125.19 C81.701 122.981 81.701 94.204 81.701 93.27 C82.635 93.27
						111.412 93.27 113.621 93.27 z"
					 style="fill:url(#XMLID_7_)"/>
			</g>
			<g>
				<path
					d="M6.516 13.896 L6.516 5.303 L9.299 5.303 C10.353 5.303 11.04 5.346 11.361 5.432 C11.853
						5.561 12.265 5.842 12.597 6.274 C12.929 6.707 13.095 7.265 13.095 7.95
						C13.095 8.478 12.999 8.923 12.808 9.283 C12.617 9.643 12.374 9.926 12.079
						10.131 C11.784 10.336 11.484 10.472 11.18 10.539 C10.766 10.622 10.167
						10.663 9.382 10.663 L8.25 10.663 L8.25 13.897 L6.516 13.897 zM8.25 6.756 L8.25
						9.209 L9.201 9.209 C9.885 9.209 10.343 9.164 10.574 9.074 C10.805 8.983
						10.986 8.842 11.116 8.649 C11.246 8.456 11.313 8.232 11.313 7.977 C11.313
						7.663 11.221 7.403 11.037 7.199 C10.853 6.995 10.62 6.867 10.339 6.816
						C10.132 6.777 9.715 6.757 9.089 6.757 L8.25 6.757 z"
					 style="fill:rgb(255,255,255)"/>
				<path
					d="M14.52 13.896 L14.52 5.303 L16.254 5.303 L16.254 8.678 L19.66 8.678 L19.66 5.303
						L21.394 5.303 L21.394 13.897 L19.66 13.897 L19.66 10.131 L16.254 10.131 L16.254
						13.897 L14.52 13.897 z"
					 style="fill:rgb(255,255,255)"/>
				<path
					d="M23.186 13.896 L23.186 5.303 L25.969 5.303 C27.023 5.303 27.71 5.346 28.031 5.432
						C28.523 5.561 28.935 5.842 29.267 6.274 C29.599 6.707 29.765 7.265 29.765
						7.95 C29.765 8.478 29.669 8.923 29.478 9.283 C29.287 9.643 29.044 9.926 28.749
						10.131 C28.454 10.336 28.154 10.472 27.85 10.539 C27.436 10.622 26.837
						10.663 26.052 10.663 L24.922 10.663 L24.922 13.897 L23.186 13.897 zM24.92
						6.756 L24.92 9.209 L25.871 9.209 C26.555 9.209 27.013 9.164 27.244 9.074
						C27.475 8.983 27.656 8.842 27.786 8.649 C27.916 8.456 27.983 8.232 27.983
						7.977 C27.983 7.663 27.891 7.403 27.707 7.199 C27.523 6.995 27.29 6.867
						27.009 6.816 C26.802 6.777 26.385 6.757 25.759 6.757 L24.92 6.757 z"
					 style="fill:rgb(255,255,255)"/>
			</g>
		</g>
		<g>
			<path
				d="M101.929 65.434 C101.929 79.112 81.371 90.2 56.012 90.2 C30.653 90.2 10.092 79.111
					10.092 65.434 C10.092 51.755 30.652 40.667 56.011 40.667 C81.37 40.667 101.929
					51.755 101.929 65.434 z"
				 style="opacity:0.15"/>
			<linearGradient id="XMLID_8_" gradientUnits="userSpaceOnUse" x1="56.0103"
				y1="28.0166" x2="56.0103" y2="91.7064">
				<stop offset="0" style="stop-color:rgb(179,184,255)"/>
				<stop offset="1" style="stop-color:rgb(58,58,169)"/>
			</linearGradient>
			<path
				d="M101.929 61.927 C101.929 75.607 81.371 86.694 56.012 86.694 C30.653 86.694 10.092
					75.606 10.092 61.927 C10.092 48.249 30.652 37.161 56.011 37.161 C81.37 37.161
					101.929 48.249 101.929 61.927 z"
				 style="fill:url(#XMLID_8_)"/>
			<g>
				<path
					d="M66.371 50.511 C65.252 49.161 63.517 48.391 61.614 48.391 C60.289 48.391 58.977 48.778
						57.782 49.435 C58.307 46.241 59.22 40.697 59.22 40.697 L53.218 40.697
						L48.56 69.055 L54.562 69.055 L56.48 57.371 L56.757 56.371 C57.385 55.14
						58.642 53.959 60.107 53.959 C61.048 53.959 61.324 54.294 61.414 54.402 C61.831
						54.904 61.94 55.991 61.709 57.389 L59.792 69.06 L65.797 69.06 L67.689
						57.521 C68.185 54.515 67.74 52.154 66.371 50.511 z"/>
				<path
					d="M53.218 40.188 L52.795 40.188 L47.97 69.564 L54.986 69.564 L56.974 57.455 L57.239
						56.51 C57.745 55.542 58.854 54.468 60.108 54.468 C60.43 54.468 60.853 54.513
						61.033 54.73 C61.279 55.026 61.456 55.857 61.217 57.305 L59.202 69.568
						L66.221 69.568 L68.182 57.604 C68.318 56.78 68.386 56.001 68.386 55.269 C68.386
						53.191 67.84 51.486 66.753 50.182 C65.54 48.721 63.667 47.882 61.614
						47.882 C60.559 47.882 59.477 48.181 58.422 48.631 C58.658 47.196 59.811
						40.189 59.811 40.189 L59.22 40.189 L53.218 40.189 zM58.629 41.206 C58.46 42.236
						57.12 50.377 57.12 50.377 L58.02 49.882 C59.189 49.238 60.432 48.899
						61.614 48.899 C63.372 48.899 64.967 49.606 65.989 50.838 L65.989 50.839 C66.919
						51.954 67.385 53.44 67.385 55.273 C67.385 55.948 67.322 56.669 67.196
						57.436 C67.196 57.436 65.504 67.761 65.374 68.55 C64.72 68.55 61.269 68.55
						60.383 68.55 C60.559 67.482 62.204 57.473 62.204 57.473 C62.288 56.965
						62.33 56.494 62.33 56.07 C62.33 55.186 62.149 54.497 61.798 54.074 C61.668
						53.918 61.278 53.45 60.109 53.45 C58.32 53.45 56.947 54.897 56.315 56.137
						L56 57.233 C56 57.233 54.27 67.756 54.14 68.546 C53.486 68.546 50.037 68.546
						49.152 68.546 C49.336 67.427 53.51 42.012 53.643 41.205 C54.296 41.206
						57.745 41.206 58.629 41.206 zM66.753 50.182 z"
					 style="fill:rgb(255,255,255)"/>
				<path
					d="M89.672 51.47 C88.31 49.832 85.684 48.722 83.278 48.722 L77.938 48.787 L73.873 48.787
						L72.913 55.676 L69.548 76.143 L75.557 76.143 C75.557 76.143 76.373 71.162
						76.828 68.388 C77.89 69.058 79.179 69.452 80.652 69.456 C84.924 69.456
						90.058 66.157 91.246 58.917 C91.877 55.083 90.74 52.749 89.672 51.47 zM81.06
						61.926 L80.129 61.926 L77.795 61.875 L79.21 54.722 L81.06 54.722 C81.226
						54.722 81.39 54.732 81.549 54.749 C83.542 54.965 85.087 56.481 85.087
						58.322 C85.087 60.313 83.284 61.926 81.06 61.926 z"/>
				<path
					d="M77.933 48.279 L73.439 48.279 L72.418 55.606 L68.957 76.653 L75.98 76.653 C75.98
						76.653 77.04 70.186 77.216 69.111 C78.259 69.634 79.393 69.964 80.651 69.966
						C85.126 69.966 90.504 66.535 91.739 59.003 C91.87 58.208 91.927 57.475
						91.927 56.798 C91.927 54.039 90.964 52.233 90.053 51.141 C88.596 49.39 85.873
						48.213 83.278 48.213 zM77.938 49.297 L83.284 49.232 C85.56 49.232 88.033
						50.288 89.29 51.799 L89.291 51.8 C90.289 52.995 91.354 55.186 90.753 58.836
						C89.613 65.785 84.718 68.95 80.652 68.95 C79.327 68.946 78.129 68.613
						77.091 67.959 L76.457 67.559 C76.457 67.559 75.257 74.878 75.132 75.637 C74.478
						75.637 71.023 75.637 70.138 75.637 C70.322 74.52 73.406 55.762 73.406
						55.762 C73.406 55.762 74.2 50.065 74.307 49.298 C75 49.297 77.938 49.297
						77.938 49.297 zM90.054 51.142 L90.054 51.142 C90.053 51.141 90.053 51.142
						90.054 51.142 z"
					 style="fill:rgb(255,255,255)"/>
				<path
					d="M79.21 54.213 L78.801 54.213 L77.187 62.371 L80.119 62.434 L81.06 62.434 C83.556
						62.434 85.587 60.588 85.587 58.322 C85.587 56.242 83.874 54.489 81.602 54.243
						L81.06 54.212 L79.21 54.212 zM81.06 55.23 L81.496 55.255 C83.259 55.446
						84.588 56.764 84.588 58.322 C84.588 60.029 83.006 61.417 81.061 61.417 L80.13
						61.417 C80.13 61.417 79.064 61.394 78.404 61.379 C78.59 60.44 79.489
						55.892 79.62 55.23 C80.116 55.23 81.06 55.23 81.06 55.23 z"
					 style="fill:rgb(255,255,255)"/>
				<path
					d="M44.152 51.47 C42.791 49.832 40.165 48.722 37.76 48.722 L32.42 48.787 L28.354 48.787
						L27.395 55.676 L24.03 76.143 L30.037 76.143 C30.037 76.143 30.856 71.162
						31.311 68.388 C32.373 69.058 33.66 69.452 35.136 69.456 C39.408 69.456
						44.542 66.157 45.729 58.917 C46.358 55.083 45.221 52.749 44.152 51.47 zM35.541
						61.926 L34.611 61.926 L32.277 61.875 L33.692 54.722 L35.541 54.722 C35.708
						54.722 35.871 54.732 36.031 54.749 C38.021 54.965 39.567 56.481 39.567
						58.322 C39.567 60.313 37.765 61.926 35.541 61.926 z"/>
				<path
					d="M32.414 48.279 L27.919 48.279 L26.898 55.606 L23.437 76.653 L30.458 76.653 C30.458
						76.653 31.521 70.186 31.697 69.111 C32.741 69.634 33.875 69.964 35.132 69.966
						C39.607 69.966 44.985 66.535 46.22 59.003 C46.351 58.209 46.408 57.475
						46.408 56.798 C46.408 54.039 45.445 52.233 44.533 51.141 C43.1 49.417 40.315
						48.213 37.76 48.213 zM32.419 49.297 L37.765 49.232 C40.042 49.232 42.514
						50.288 43.769 51.799 L43.77 51.8 C44.769 52.995 45.833 55.186 45.233
						58.836 C44.093 65.785 39.198 68.95 35.133 68.95 C33.808 68.946 32.61 68.613
						31.571 67.959 L30.938 67.56 C30.938 67.56 29.735 74.878 29.611 75.637 C28.957
						75.637 25.503 75.637 24.618 75.637 C24.802 74.52 27.886 55.762 27.886
						55.762 C27.886 55.762 28.679 50.065 28.786 49.298 C29.48 49.297 32.419 49.297
						32.419 49.297 zM44.533 51.142 z"
					 style="fill:rgb(255,255,255)"/>
				<path
					d="M33.691 54.213 L33.282 54.213 L31.668 62.371 L34.599 62.434 L35.54 62.434 C38.036
						62.434 40.066 60.588 40.066 58.322 C40.066 56.243 38.354 54.489 36.083 54.243
						L35.54 54.212 L33.691 54.212 zM35.541 55.23 L35.978 55.255 C37.739 55.446
						39.067 56.764 39.067 58.322 C39.067 60.029 37.485 61.417 35.541 61.417
						L34.611 61.417 C34.611 61.417 33.545 61.394 32.885 61.379 C33.071 60.44
						33.97 55.892 34.101 55.23 C34.597 55.23 35.541 55.23 35.541 55.23 z"
					 style="fill:rgb(255,255,255)"/>
			</g>
			<linearGradient id="XMLID_9_" gradientUnits="userSpaceOnUse" x1="87.0098"
				y1="158.602" x2="59.5353" y2="72.5764">
				<stop offset="59.1954%" style="stop-opacity:1;stop-color:rgb(255,255,255)"/>
				<stop offset="100%" style="stop-opacity:0;stop-color:rgb(255,255,255)"/>
			</linearGradient>
			<path a:adobe-blending-mode="screen"
				d="M51.333 79.579 C37.005 79.579 24.366 75.69 16.831 69.766 C22.936 78.143 38.054 84.077
					55.752 84.077 C78.848 84.077 97.572 73.978 97.572 61.523 C97.572 56.792
					94.869 52.405 90.257 48.779 C92.119 51.334 93.153 54.113 93.153 57.026 C93.153
					69.481 74.43 79.579 51.333 79.579 z"
				 style="fill:url(#XMLID_9_)"/>
			<linearGradient id="XMLID_10_" gradientUnits="userSpaceOnUse" x1="54.7632"
				y1="26.4766" x2="54.7632" y2="76.7156">
				<stop offset="0%" style="stop-color:rgb(255,255,255)"/>
				<stop offset="71.2644%" style="stop-opacity:0;stop-color:rgb(255,255,255)"/>
			</linearGradient>
			<path a:adobe-blending-mode="screen"
				d="M94.113 53.164 C90.418 45.095 74.384 39.022 55.165 39.022 C33.211 39.022 15.414 46.945
					15.414 56.717 C15.414 65.504 29.808 72.791 48.672 74.173 C66.986 72.52
					83.116 64.679 94.113 53.164 z"
				 style="fill:url(#XMLID_10_)"/>
		</g>
	</g>
</svg>
