<?xml version="1.0" encoding="iso-8859-1"?>
<!-- Generator: Adobe Illustrator 10.0.3, SVG Export Plug-In . SVG Version: 3.0.0 Build 77)  -->
<!DOCTYPE svg PUBLIC "-//W3C//DTD SVG 1.0//EN"    "http://www.w3.org/TR/2001/REC-SVG-20010904/DTD/svg10.dtd" [
	<!ENTITY ns_flows "http://ns.adobe.com/Flows/1.0/">
	<!ENTITY ns_svg "http://www.w3.org/2000/svg">
	<!ENTITY ns_xlink "http://www.w3.org/1999/xlink">
]>
<svg  xmlns="&ns_svg;" xmlns:xlink="&ns_xlink;" xmlns:a="http://ns.adobe.com/AdobeSVGViewerExtensions/3.0/"
	 width="128" height="128" viewBox="0 0 128 128" overflow="visible" enable-background="new 0 0 128 128" xml:space="preserve">
	<g id="Layer_1">
		<g>
			<g>
				<path fill="#FFFFFF" d="M121.164,1.052H6.836v125.896h80.701l33.627-33.627V1.052z"/>
				<linearGradient id="XMLID_1_" gradientUnits="userSpaceOnUse" x1="63.9204" y1="154.5645" x2="63.9204" y2="-100.9347">
					<stop  offset="0" style="stop-color:#FFFFFF"/>
					<stop  offset="0.258" style="stop-color:#F1F1F1"/>
					<stop  offset="0.7396" style="stop-color:#CECECE"/>
					<stop  offset="0.8595" style="stop-color:#C4C4C4"/>
					<a:midPointStop  offset="0" style="stop-color:#FFFFFF"/>
					<a:midPointStop  offset="0.5674" style="stop-color:#FFFFFF"/>
					<a:midPointStop  offset="0.8595" style="stop-color:#C4C4C4"/>
				</linearGradient>
				<path fill="url(#XMLID_1_)" d="M117.734,4.019H10.266l-0.16,122.654h76.457l31.172-31.252V4.019z"/>
				<linearGradient id="XMLID_2_" gradientUnits="userSpaceOnUse" x1="-26.333" y1="-26.333" x2="56.1662" y2="56.1662">
					<stop  offset="0" style="stop-color:#B3B3B3"/>
					<stop  offset="1" style="stop-color:#828282"/>
					<a:midPointStop  offset="0" style="stop-color:#B3B3B3"/>
					<a:midPointStop  offset="0.5" style="stop-color:#B3B3B3"/>
					<a:midPointStop  offset="1" style="stop-color:#828282"/>
				</linearGradient>
				<path fill="url(#XMLID_2_)" d="M121.164,0.552H6.336v126.896h81.408l33.92-33.92V0.552H121.164z M120.664,1.552
					c0,0.987,0,91.152,0,91.562c-0.289,0.289-33.045,33.045-33.334,33.334c-0.41,0-79.01,0-79.994,0c0-0.988,0-123.909,0-124.896
					C8.322,1.552,119.678,1.552,120.664,1.552z"/>
				<linearGradient id="XMLID_3_" gradientUnits="userSpaceOnUse" x1="43.0229" y1="25.4214" x2="204.0073" y2="111.0652">
					<stop  offset="0" style="stop-color:#FFFFFF"/>
					<stop  offset="0.5033" style="stop-color:#E7E7E7"/>
					<stop  offset="1" style="stop-color:#D4D4D4"/>
					<a:midPointStop  offset="0" style="stop-color:#FFFFFF"/>
					<a:midPointStop  offset="0.452" style="stop-color:#FFFFFF"/>
					<a:midPointStop  offset="1" style="stop-color:#D4D4D4"/>
				</linearGradient>
				<path fill="url(#XMLID_3_)" d="M118.006,15.223V3.94H10.199l-0.096,65.34c9.975,4.547,21.151,7.096,32.954,7.096
					C80.402,76.376,111.455,48.876,118.006,15.223z"/>
			</g>
			<linearGradient id="XMLID_4_" gradientUnits="userSpaceOnUse" x1="92.6777" y1="10.6509" x2="-23.9856" y2="10.6509">
				<stop  offset="0" style="stop-color:#0095FF"/>
				<stop  offset="1" style="stop-color:#00E1FF"/>
				<a:midPointStop  offset="0" style="stop-color:#0095FF"/>
				<a:midPointStop  offset="0.5" style="stop-color:#0095FF"/>
				<a:midPointStop  offset="1" style="stop-color:#00E1FF"/>
			</linearGradient>
			<path fill="url(#XMLID_4_)" d="M117.397,17.023H10.013V4.279h107.385V17.023z"/>
			<path fill="#FFFFFF" d="M21.278,13.387c-0.024-0.033-0.066-0.047-0.105-0.036c0,0-0.315,0.092-0.414,0.121
				c-0.072-0.104-0.842-1.215-0.842-1.215c-0.018-0.026-0.048-0.042-0.08-0.042c-0.032,0-0.062,0.016-0.08,0.042
				c-0.535,0.776-1.408,1.241-2.335,1.241c-1.402,0-2.569-1.014-2.806-2.344c-0.006-0.039-0.012-0.077-0.018-0.116
				c-0.001-0.005-0.001-0.01-0.002-0.016c-0.004-0.034-0.008-0.069-0.012-0.104c-0.001-0.016-0.002-0.032-0.003-0.047
				c-0.002-0.026-0.004-0.052-0.005-0.079c-0.002-0.044-0.004-0.088-0.004-0.133c0-1.08,0.59-2.049,1.541-2.529
				c0.032-0.016,0.053-0.049,0.053-0.086V7.201c0-0.032-0.015-0.063-0.042-0.081c-0.027-0.018-0.06-0.021-0.09-0.008l-0.141,0.06
				c-0.158,0.069-0.308,0.153-0.431,0.225c-0.093-0.065-1.151-0.806-1.151-0.806c-0.038-0.027-0.089-0.023-0.123,0.009l-0.801,0.782
				c-0.02,0.019-0.029,0.044-0.029,0.069c0,0.019,0.005,0.038,0.017,0.054c0,0,0.737,1.092,0.798,1.183
				c-0.201,0.335-0.34,0.668-0.425,1.014c-0.11,0.021-1.463,0.27-1.463,0.27c-0.044,0.008-0.077,0.046-0.079,0.091l-0.05,1.123
				c0,0.001,0,0.002,0,0.004c0,0.046,0.033,0.086,0.08,0.095c0,0,0.007,0.001,0.019,0.003c0.167,0.03,1.371,0.248,1.475,0.266
				c0.085,0.341,0.224,0.687,0.415,1.03c-0.064,0.09-0.897,1.254-0.897,1.254c-0.012,0.017-0.018,0.037-0.018,0.056
				c0,0.024,0.009,0.049,0.028,0.068l0.801,0.812c0.032,0.033,0.084,0.038,0.123,0.012c0,0,1.209-0.815,1.303-0.878
				c0.305,0.189,0.642,0.332,1.024,0.433c0.02,0.109,0.28,1.535,0.28,1.535c0.009,0.046,0.048,0.079,0.095,0.079h1.152
				c0.047,0,0.087-0.034,0.095-0.081c0,0,0.242-1.444,0.261-1.554c0.337-0.093,0.671-0.231,0.994-0.414l0.198,0.118
				c0.351,0.246,1.073,0.751,1.073,0.751c0.039,0.027,0.09,0.022,0.124-0.011l0.812-0.812c0.034-0.034,0.038-0.087,0.01-0.125
				L21.278,13.387z M23.086,5.768c0-0.01-0.001-0.021-0.005-0.031c-0.01-0.031-0.037-0.055-0.068-0.063l-2.064-0.511
				c-0.038-0.009-0.076,0.004-0.1,0.035c0,0-2.102,2.723-2.403,3.113c0-0.475,0-3.083,0-3.083c0-0.053-0.042-0.097-0.095-0.097
				l-1.864-0.02c-0.025,0-0.05,0.01-0.068,0.028S16.39,5.181,16.39,5.206l-0.061,7.796c0,0.026,0.011,0.053,0.03,0.071
				c0.02,0.018,0.046,0.028,0.073,0.026l1.963-0.12c0.052-0.003,0.091-0.046,0.091-0.096c0,0-0.031-2.635-0.036-3.143
				c0.31,0.431,2.437,3.39,2.437,3.39c0.024,0.033,0.066,0.047,0.106,0.036l1.994-0.582c0.03-0.008,0.054-0.032,0.064-0.062
				c0.004-0.01,0.005-0.021,0.005-0.031c0-0.021-0.007-0.041-0.019-0.058c0,0-2.455-3.321-2.541-3.437
				c0.09-0.112,2.569-3.169,2.569-3.169C23.079,5.812,23.086,5.79,23.086,5.768z M22.945,9.922l-1.323-0.23
				c-0.038-0.006-0.077,0.01-0.098,0.043c-0.021,0.033-0.021,0.075,0.002,0.107l1.002,1.443c0.021,0.031,0.059,0.046,0.097,0.04
				l0.331-0.061c0.046-0.008,0.08-0.049,0.079-0.096l-0.01-1.152C23.024,9.97,22.991,9.93,22.945,9.922z"/>
			<g>
				<path fill="#DEDEDE" d="M43.832,27.651v11.972H24.526V27.651H43.832z"/>
				<path fill="#8F8F8F" d="M43.832,27.139H24.014v12.998h20.331V27.139H43.832z M43.319,28.165c0,0.897,0,10.049,0,10.947
					c-0.946,0-17.335,0-18.28,0c0-0.898,0-10.05,0-10.947C25.984,28.165,42.374,28.165,43.319,28.165z"/>
				<path fill="#DEDEDE" d="M43.832,39.624v11.973H24.526V39.624H43.832z"/>
				<path fill="#8F8F8F" d="M43.832,39.111H24.014v12.998h20.331V39.111H43.832z M43.319,40.137c0,0.897,0,10.05,0,10.948
					c-0.946,0-17.335,0-18.28,0c0-0.898,0-10.05,0-10.948C25.984,40.137,42.374,40.137,43.319,40.137z"/>
				<path fill="#DEDEDE" d="M43.832,51.598v11.973H24.526V51.598H43.832z"/>
				<path fill="#545454" d="M43.832,51.084H24.014v12.999h20.331V51.084H43.832z M43.319,52.11c0,0.897,0,10.05,0,10.947
					c-0.946,0-17.335,0-18.28,0c0-0.897,0-10.05,0-10.947C25.984,52.11,42.374,52.11,43.319,52.11z"/>
				<path fill="#DEDEDE" d="M43.832,63.571v11.972H24.526V63.571H43.832z"/>
				<path fill="#8F8F8F" d="M43.832,63.058H24.014v12.999h20.331V63.058H43.832z M43.319,64.083c0,0.897,0,10.049,0,10.947
					c-0.946,0-17.335,0-18.28,0c0-0.897,0-10.05,0-10.947C25.984,64.083,42.374,64.083,43.319,64.083z"/>
				<path fill="#DEDEDE" d="M43.832,75.543v11.973H24.526V75.543H43.832z"/>
				<path fill="#8F8F8F" d="M43.832,75.03H24.014v12.998h20.331V75.03H43.832z M43.319,76.057c0,0.896,0,10.048,0,10.946
					c-0.946,0-17.335,0-18.28,0c0-0.898,0-10.05,0-10.946C25.984,76.057,42.374,76.057,43.319,76.057z"/>
				<path fill="#DEDEDE" d="M43.832,87.516v11.974H24.526V87.516H43.832z"/>
				<path fill="#8F8F8F" d="M43.832,87.003H24.014v12.999h20.331V87.003H43.832z M43.319,88.028c0,0.897,0,10.051,0,10.947
					c-0.946,0-17.335,0-18.28,0c0-0.896,0-10.05,0-10.947C25.984,88.028,42.374,88.028,43.319,88.028z"/>
				<path fill="#DEDEDE" d="M43.832,99.49v11.972H24.526V99.49H43.832z"/>
				<path fill="#8F8F8F" d="M43.832,98.978H24.014v12.997h20.331V98.978H43.832z M43.319,100.003c0,0.898,0,10.048,0,10.946
					c-0.946,0-17.335,0-18.28,0c0-0.898,0-10.048,0-10.946C25.984,100.003,42.374,100.003,43.319,100.003z"/>
				<path fill="#DEDEDE" d="M63.137,27.651v11.972H43.832V27.651H63.137z"/>
				<path fill="#8F8F8F" d="M63.137,27.139H43.319v12.998h20.332V27.139H63.137z M62.625,28.165c0,0.897,0,10.049,0,10.947
					c-0.946,0-17.334,0-18.28,0c0-0.898,0-10.05,0-10.947C45.29,28.165,61.679,28.165,62.625,28.165z"/>
				<path fill="#FFFFFF" d="M63.137,39.624v11.973H43.832V39.624H63.137z"/>
				<path fill="#545454" d="M63.137,39.111H43.319v12.998h20.332V39.111H63.137z M62.625,40.137c0,0.897,0,10.05,0,10.948
					c-0.946,0-17.334,0-18.28,0c0-0.898,0-10.05,0-10.948C45.29,40.137,61.679,40.137,62.625,40.137z"/>
				<path fill="#FFFFFF" d="M63.137,51.598v11.973H43.832V51.598H63.137z"/>
				<path fill="#8F8F8F" d="M63.137,51.084H43.319v12.999h20.332V51.084H63.137z M62.625,52.11c0,0.897,0,10.05,0,10.947
					c-0.946,0-17.334,0-18.28,0c0-0.897,0-10.05,0-10.947C45.29,52.11,61.679,52.11,62.625,52.11z"/>
				<path fill="#FFFFFF" d="M63.137,63.571v11.972H43.832V63.571H63.137z"/>
				<path fill="#8F8F8F" d="M63.137,63.058H43.319v12.999h20.332V63.058H63.137z M62.625,64.083c0,0.897,0,10.049,0,10.947
					c-0.946,0-17.334,0-18.28,0c0-0.897,0-10.05,0-10.947C45.29,64.083,61.679,64.083,62.625,64.083z"/>
				<path fill="#FFFFFF" d="M63.137,75.543v11.973H43.832V75.543H63.137z"/>
				<path fill="#8F8F8F" d="M63.137,75.03H43.319v12.998h20.332V75.03H63.137z M62.625,76.057c0,0.896,0,10.048,0,10.946
					c-0.946,0-17.334,0-18.28,0c0-0.898,0-10.05,0-10.946C45.29,76.057,61.679,76.057,62.625,76.057z"/>
				<path fill="#FFFFFF" d="M63.137,87.516v11.974H43.832V87.516H63.137z"/>
				<path fill="#8F8F8F" d="M63.137,87.003H43.319v12.999h20.332V87.003H63.137z M62.625,88.028c0,0.897,0,10.051,0,10.947
					c-0.946,0-17.334,0-18.28,0c0-0.896,0-10.05,0-10.947C45.29,88.028,61.679,88.028,62.625,88.028z"/>
				<path fill="#FFFFFF" d="M63.137,99.49v11.972H43.832V99.49H63.137z"/>
				<path fill="#8F8F8F" d="M63.137,98.978H43.319v12.997h20.332V98.978H63.137z M62.625,100.003c0,0.898,0,10.048,0,10.946
					c-0.946,0-17.334,0-18.28,0c0-0.898,0-10.048,0-10.946C45.29,100.003,61.679,100.003,62.625,100.003z"/>
				<path fill="#DEDEDE" d="M82.441,27.651v11.972H63.137V27.651H82.441z"/>
				<path fill="#8F8F8F" d="M82.441,27.139H62.625v12.998h20.33V27.139H82.441z M81.929,28.165c0,0.897,0,10.049,0,10.947
					c-0.946,0-17.332,0-18.278,0c0-0.898,0-10.05,0-10.947C64.597,28.165,80.982,28.165,81.929,28.165z"/>
				<path fill="#FFFFFF" d="M82.441,39.624v11.973H63.137V39.624H82.441z"/>
				<path fill="#8F8F8F" d="M82.441,39.111H62.625v12.998h20.33V39.111H82.441z M81.929,40.137c0,0.897,0,10.05,0,10.948
					c-0.946,0-17.332,0-18.278,0c0-0.898,0-10.05,0-10.948C64.597,40.137,80.982,40.137,81.929,40.137z"/>
				<path fill="#FFFFFF" d="M82.441,51.598v11.973H63.137V51.598H82.441z"/>
				<path fill="#8F8F8F" d="M82.441,51.084H62.625v12.999h20.33V51.084H82.441z M81.929,52.11c0,0.897,0,10.05,0,10.947
					c-0.946,0-17.332,0-18.278,0c0-0.897,0-10.05,0-10.947C64.597,52.11,80.982,52.11,81.929,52.11z"/>
				<path fill="#FFFFFF" d="M82.441,63.571v11.972H63.137V63.571H82.441z"/>
				<path fill="#8F8F8F" d="M82.441,63.058H62.625v12.999h20.33V63.058H82.441z M81.929,64.083c0,0.897,0,10.049,0,10.947
					c-0.946,0-17.332,0-18.278,0c0-0.897,0-10.05,0-10.947C64.597,64.083,80.982,64.083,81.929,64.083z"/>
				<path fill="#FFFFFF" d="M82.441,75.543v11.973H63.137V75.543H82.441z"/>
				<path fill="#8F8F8F" d="M82.441,75.03H62.625v12.998h20.33V75.03H82.441z M81.929,76.057c0,0.896,0,10.048,0,10.946
					c-0.946,0-17.332,0-18.278,0c0-0.898,0-10.05,0-10.946C64.597,76.057,80.982,76.057,81.929,76.057z"/>
				<path fill="#FFFFFF" d="M82.441,87.516v11.974H63.137V87.516H82.441z"/>
				<path fill="#8F8F8F" d="M82.441,87.003H62.625v12.999h20.33V87.003H82.441z M81.929,88.028c0,0.897,0,10.051,0,10.947
					c-0.946,0-17.332,0-18.278,0c0-0.896,0-10.05,0-10.947C64.597,88.028,80.982,88.028,81.929,88.028z"/>
				<path fill="#FFFFFF" d="M82.441,99.49v11.972H63.137V99.49H82.441z"/>
				<path fill="#8F8F8F" d="M82.441,98.978H62.625v12.997h20.33V98.978H82.441z M81.929,100.003c0,0.898,0,10.048,0,10.946
					c-0.946,0-17.332,0-18.278,0c0-0.898,0-10.048,0-10.946C64.597,100.003,80.982,100.003,81.929,100.003z"/>
				<path fill="#DEDEDE" d="M101.748,27.651v11.972H82.441V27.651H101.748z"/>
				<path fill="#8F8F8F" d="M101.748,27.139H81.929v12.998h20.331V27.139H101.748z M101.235,28.165c0,0.897,0,10.049,0,10.947
					c-0.946,0-17.336,0-18.281,0c0-0.898,0-10.05,0-10.947C83.899,28.165,100.289,28.165,101.235,28.165z"/>
				<path fill="#FFFFFF" d="M101.748,39.624v11.973H82.441V39.624H101.748z"/>
				<path fill="#8F8F8F" d="M101.748,39.111H81.929v12.998h20.331V39.111H101.748z M101.235,40.137c0,0.897,0,10.05,0,10.948
					c-0.946,0-17.336,0-18.281,0c0-0.898,0-10.05,0-10.948C83.899,40.137,100.289,40.137,101.235,40.137z"/>
				<path fill="#FFFFFF" d="M101.748,51.598v11.973H82.441V51.598H101.748z"/>
				<path fill="#8F8F8F" d="M101.748,51.084H81.929v12.999h20.331V51.084H101.748z M101.235,52.11c0,0.897,0,10.05,0,10.947
					c-0.946,0-17.336,0-18.281,0c0-0.897,0-10.05,0-10.947C83.899,52.11,100.289,52.11,101.235,52.11z"/>
				<path fill="#FFFFFF" d="M101.748,63.571v11.972H82.441V63.571H101.748z"/>
				<path fill="#8F8F8F" d="M101.748,63.058H81.929v12.999h20.331V63.058H101.748z M101.235,64.083c0,0.897,0,10.049,0,10.947
					c-0.946,0-17.336,0-18.281,0c0-0.897,0-10.05,0-10.947C83.899,64.083,100.289,64.083,101.235,64.083z"/>
				<path fill="#FFFFFF" d="M101.748,75.543v11.973H82.441V75.543H101.748z"/>
				<path fill="#8F8F8F" d="M101.748,75.03H81.929v12.998h20.331V75.03H101.748z M101.235,76.057c0,0.896,0,10.048,0,10.946
					c-0.946,0-17.336,0-18.281,0c0-0.898,0-10.05,0-10.946C83.899,76.057,100.289,76.057,101.235,76.057z"/>
				<path fill="#FFFFFF" d="M101.748,87.516v11.974H82.441V87.516H101.748z"/>
				<path fill="#8F8F8F" d="M101.748,87.003H81.929v12.999h20.331V87.003H101.748z M101.235,88.028c0,0.897,0,10.051,0,10.947
					c-0.946,0-17.336,0-18.281,0c0-0.896,0-10.05,0-10.947C83.899,88.028,100.289,88.028,101.235,88.028z"/>
				<path fill="#FFFFFF" d="M101.748,99.49v11.972H82.441V99.49H101.748z"/>
				<path fill="#8F8F8F" d="M101.748,98.978H81.929v12.997h20.331V98.978H101.748z M101.235,100.003c0,0.898,0,10.048,0,10.946
					c-0.946,0-17.336,0-18.281,0c0-0.898,0-10.048,0-10.946C83.899,100.003,100.289,100.003,101.235,100.003z"/>
				<g>
					<path fill="#6E6E6E" d="M33.661,48.293h-0.914V44.83c-0.335,0.314-0.73,0.546-1.184,0.697v-0.834
						c0.238-0.078,0.498-0.228,0.779-0.445c0.279-0.218,0.471-0.473,0.576-0.764h0.742V48.293z"/>
					<path fill="#6E6E6E" d="M34.217,59.416v0.853h-3.21c0.034-0.323,0.139-0.629,0.312-0.918c0.174-0.289,0.516-0.672,1.029-1.15
						c0.413-0.386,0.665-0.647,0.757-0.785c0.127-0.19,0.19-0.377,0.19-0.563c0-0.205-0.055-0.362-0.165-0.473
						c-0.111-0.109-0.264-0.166-0.458-0.166c-0.193,0-0.346,0.059-0.459,0.174c-0.113,0.116-0.18,0.307-0.197,0.575l-0.915-0.091
						c0.055-0.503,0.226-0.865,0.515-1.084c0.287-0.219,0.647-0.329,1.079-0.329c0.473,0,0.845,0.127,1.115,0.382
						c0.271,0.255,0.407,0.572,0.407,0.951c0,0.215-0.039,0.421-0.116,0.616c-0.078,0.195-0.199,0.399-0.366,0.612
						c-0.111,0.142-0.312,0.346-0.601,0.612c-0.291,0.266-0.474,0.442-0.551,0.529c-0.078,0.087-0.139,0.172-0.188,0.255H34.217z"/>
					<path fill="#6E6E6E" d="M31.024,70.94l0.888-0.107c0.028,0.226,0.104,0.398,0.227,0.517c0.123,0.12,0.273,0.179,0.45,0.179
						c0.188,0,0.347-0.072,0.476-0.217c0.129-0.146,0.195-0.341,0.195-0.589c0-0.232-0.062-0.418-0.186-0.555
						c-0.125-0.137-0.277-0.205-0.456-0.205c-0.117,0-0.258,0.023-0.42,0.068l0.103-0.737c0.248,0.007,0.438-0.049,0.571-0.163
						c0.131-0.114,0.196-0.266,0.196-0.456c0-0.161-0.048-0.289-0.143-0.386c-0.096-0.095-0.223-0.145-0.382-0.145
						c-0.157,0-0.291,0.056-0.402,0.165s-0.179,0.271-0.203,0.479l-0.843-0.145c0.059-0.291,0.146-0.523,0.265-0.696
						c0.12-0.174,0.284-0.311,0.497-0.41c0.212-0.1,0.45-0.149,0.714-0.149c0.449,0,0.812,0.145,1.083,0.431
						c0.225,0.236,0.337,0.501,0.337,0.797c0,0.42-0.229,0.756-0.69,1.006c0.272,0.059,0.491,0.192,0.654,0.396
						c0.164,0.206,0.246,0.453,0.246,0.743c0,0.422-0.154,0.782-0.461,1.079c-0.306,0.298-0.687,0.445-1.144,0.445
						c-0.433,0-0.792-0.124-1.076-0.372C31.234,71.667,31.07,71.341,31.024,70.94z"/>
					<path fill="#6E6E6E" d="M32.851,84.212v-0.966h-1.957v-0.797l2.076-3.039h0.769v3.037h0.591v0.799h-0.591v0.966H32.851z
						 M32.851,82.447v-1.633l-1.104,1.633H32.851z"/>
					<path fill="#6E6E6E" d="M31.002,94.885l0.913-0.094c0.027,0.206,0.104,0.369,0.233,0.489c0.128,0.12,0.278,0.18,0.446,0.18
						c0.192,0,0.354-0.077,0.487-0.233c0.135-0.156,0.2-0.392,0.2-0.707c0-0.296-0.065-0.516-0.198-0.664
						c-0.132-0.147-0.304-0.223-0.515-0.223c-0.265,0-0.501,0.117-0.71,0.35l-0.743-0.108l0.47-2.493h2.427v0.861H32.28
						l-0.145,0.813c0.205-0.101,0.413-0.152,0.626-0.152c0.408,0,0.753,0.148,1.035,0.444c0.283,0.296,0.425,0.682,0.425,1.153
						c0,0.395-0.114,0.747-0.343,1.056c-0.312,0.424-0.744,0.635-1.296,0.635c-0.44,0-0.801-0.117-1.082-0.354
						C31.224,95.602,31.057,95.283,31.002,94.885z"/>
					<path fill="#6E6E6E" d="M34.112,104.503l-0.888,0.097c-0.021-0.181-0.077-0.314-0.168-0.4c-0.09-0.087-0.209-0.131-0.352-0.131
						c-0.194,0-0.356,0.087-0.489,0.26c-0.133,0.175-0.217,0.535-0.252,1.084c0.229-0.27,0.512-0.403,0.852-0.403
						c0.382,0,0.71,0.146,0.983,0.438c0.273,0.293,0.41,0.671,0.41,1.134c0,0.491-0.144,0.886-0.431,1.183
						c-0.288,0.297-0.657,0.446-1.106,0.446c-0.484,0-0.879-0.19-1.19-0.564c-0.311-0.377-0.467-0.993-0.467-1.851
						c0-0.879,0.163-1.512,0.486-1.899c0.323-0.39,0.743-0.584,1.259-0.584c0.361,0,0.662,0.103,0.899,0.306
						C33.895,103.819,34.047,104.114,34.112,104.503z M32.043,106.512c0,0.3,0.068,0.532,0.204,0.696
						c0.139,0.162,0.295,0.243,0.472,0.243c0.17,0,0.311-0.065,0.424-0.2c0.112-0.134,0.169-0.353,0.169-0.657
						c0-0.314-0.062-0.543-0.182-0.689c-0.123-0.144-0.275-0.217-0.458-0.217c-0.177,0-0.325,0.068-0.447,0.209
						C32.102,106.034,32.043,106.241,32.043,106.512z"/>
				</g>
				<g>
					<path fill="#707070" d="M54.846,35.813h-1.023l-0.408-1.07h-1.888l-0.386,1.07h-1.019l1.811-4.708h1.018L54.846,35.813z
						 M53.102,33.947l-0.656-1.746l-0.631,1.746H53.102z"/>
					<path fill="#707070" d="M70.273,31.105h1.882c0.373,0,0.65,0.016,0.834,0.047c0.183,0.031,0.349,0.096,0.493,0.194
						c0.143,0.099,0.265,0.231,0.359,0.395c0.1,0.164,0.145,0.348,0.145,0.551c0,0.221-0.058,0.423-0.174,0.608
						c-0.119,0.185-0.278,0.323-0.48,0.416c0.284,0.083,0.504,0.225,0.656,0.426c0.153,0.201,0.23,0.438,0.23,0.708
						c0,0.213-0.049,0.422-0.15,0.624c-0.099,0.202-0.234,0.364-0.407,0.484c-0.172,0.121-0.386,0.195-0.638,0.223
						c-0.159,0.017-0.54,0.028-1.147,0.032h-1.603V31.105z M71.223,31.893v1.087h0.625c0.37,0,0.601-0.006,0.691-0.015
						c0.161-0.02,0.291-0.076,0.384-0.169c0.095-0.094,0.14-0.216,0.14-0.367c0-0.146-0.039-0.264-0.118-0.355
						c-0.082-0.09-0.201-0.146-0.36-0.165c-0.095-0.011-0.366-0.016-0.813-0.016H71.223z M71.223,33.768v1.25h0.884
						c0.345,0,0.562-0.01,0.656-0.029c0.143-0.025,0.257-0.087,0.345-0.187c0.091-0.098,0.134-0.231,0.134-0.396
						c0-0.14-0.032-0.259-0.102-0.357c-0.068-0.097-0.168-0.169-0.299-0.213c-0.132-0.045-0.412-0.067-0.847-0.067H71.223z"/>
					<path fill="#707070" d="M93.143,34.08l0.924,0.283c-0.14,0.518-0.377,0.903-0.709,1.154c-0.329,0.251-0.747,0.377-1.253,0.377
						c-0.627,0-1.145-0.213-1.549-0.641c-0.405-0.427-0.605-1.012-0.605-1.752c0-0.784,0.202-1.393,0.609-1.826
						c0.405-0.434,0.939-0.65,1.601-0.65c0.577,0,1.047,0.17,1.406,0.51c0.216,0.202,0.375,0.491,0.482,0.868l-0.941,0.222
						c-0.056-0.243-0.172-0.435-0.351-0.575c-0.177-0.141-0.393-0.212-0.648-0.212c-0.352,0-0.636,0.126-0.855,0.376
						c-0.218,0.25-0.327,0.656-0.327,1.217c0,0.596,0.107,1.02,0.323,1.272c0.215,0.253,0.497,0.379,0.842,0.379
						c0.255,0,0.475-0.08,0.657-0.241C92.932,34.679,93.062,34.426,93.143,34.08z"/>
				</g>
			</g>
			<g>
				
					<radialGradient id="XMLID_5_" cx="108.4668" cy="118.249" r="34.7364" fx="108.4668" fy="118.249" gradientUnits="userSpaceOnUse">
					<stop  offset="0" style="stop-color:#000000"/>
					<stop  offset="1" style="stop-color:#000000"/>
					<a:midPointStop  offset="0" style="stop-color:#000000"/>
					<a:midPointStop  offset="0.5" style="stop-color:#000000"/>
					<a:midPointStop  offset="1" style="stop-color:#000000"/>
				</radialGradient>
				<path opacity="0.1" fill="url(#XMLID_5_)" d="M85.191,90.976v35.754h1.793l33.639-33.639v-2.115H85.191z"/>
				<path fill="#FFFFFF" d="M87.537,126.948l33.627-33.627H87.537V126.948z"/>
				<linearGradient id="XMLID_6_" gradientUnits="userSpaceOnUse" x1="104.0166" y1="98.1807" x2="95.0883" y2="135.7938">
					<stop  offset="0" style="stop-color:#FFFFFF"/>
					<stop  offset="1" style="stop-color:#CCCCCC"/>
					<a:midPointStop  offset="0" style="stop-color:#FFFFFF"/>
					<a:midPointStop  offset="0.5" style="stop-color:#FFFFFF"/>
					<a:midPointStop  offset="1" style="stop-color:#CCCCCC"/>
				</linearGradient>
				<path fill="url(#XMLID_6_)" d="M89.865,125.056l29.594-29.592H89.865V125.056z"/>
				<linearGradient id="XMLID_7_" gradientUnits="userSpaceOnUse" x1="82.3086" y1="88.0928" x2="96.1043" y2="101.8885">
					<stop  offset="0" style="stop-color:#B3B3B3"/>
					<stop  offset="1" style="stop-color:#828282"/>
					<a:midPointStop  offset="0" style="stop-color:#B3B3B3"/>
					<a:midPointStop  offset="0.5" style="stop-color:#B3B3B3"/>
					<a:midPointStop  offset="1" style="stop-color:#828282"/>
				</linearGradient>
				<path fill="url(#XMLID_7_)" d="M87.537,92.821c-0.277,0-0.5,0.223-0.5,0.5v33.627c0,0.203,0.121,0.385,0.309,0.463
					c0.186,0.076,0.402,0.033,0.545-0.109l33.627-33.627c0.143-0.145,0.186-0.359,0.109-0.545c-0.078-0.188-0.26-0.309-0.463-0.309
					H87.537z M119.957,93.821c-1.58,1.578-30.342,30.34-31.92,31.92c0-2.209,0-30.986,0-31.92
					C88.971,93.821,117.748,93.821,119.957,93.821z"/>
			</g>
		</g>
		<path fill="none" d="M128,128H0V0h128V128z"/>
	</g>
</svg>
