<?xml version="1.0" encoding="iso-8859-1"?>
<!-- Generator: Adobe Illustrator 10.0.3, SVG Export Plug-In . SVG Version: 3.0.0 Build 77)  -->
<!DOCTYPE svg PUBLIC "-//W3C//DTD SVG 1.0//EN"    "http://www.w3.org/TR/2001/REC-SVG-20010904/DTD/svg10.dtd" [
	<!ENTITY ns_flows "http://ns.adobe.com/Flows/1.0/">
	<!ENTITY ns_svg "http://www.w3.org/2000/svg">
	<!ENTITY ns_xlink "http://www.w3.org/1999/xlink">
]>
<svg  xmlns="&ns_svg;" xmlns:xlink="&ns_xlink;" xmlns:a="http://ns.adobe.com/AdobeSVGViewerExtensions/3.0/"
	 width="128" height="128" viewBox="0 0 128 128" overflow="visible" enable-background="new 0 0 128 128" xml:space="preserve">
	<g id="Layer_1">
		<g>
			<g>
				<path fill="#FFFFFF" d="M121.164,1.052H6.836v125.896h80.701l33.627-33.627V1.052z"/>
				<linearGradient id="XMLID_1_" gradientUnits="userSpaceOnUse" x1="63.9204" y1="154.5645" x2="63.9204" y2="-100.9347">
					<stop  offset="0" style="stop-color:#FFFFFF"/>
					<stop  offset="0.2457" style="stop-color:#F6F6F6"/>
					<stop  offset="0.6374" style="stop-color:#DFDFDF"/>
					<stop  offset="1" style="stop-color:#C4C4C4"/>
					<a:midPointStop  offset="0" style="stop-color:#FFFFFF"/>
					<a:midPointStop  offset="0.6045" style="stop-color:#FFFFFF"/>
					<a:midPointStop  offset="1" style="stop-color:#C4C4C4"/>
				</linearGradient>
				<path fill="url(#XMLID_1_)" d="M117.734,4.019H10.266l-0.16,122.654h76.457l31.172-31.252V4.019z"/>
				<linearGradient id="XMLID_2_" gradientUnits="userSpaceOnUse" x1="-26.333" y1="-26.333" x2="56.1662" y2="56.1662">
					<stop  offset="0" style="stop-color:#B3B3B3"/>
					<stop  offset="1" style="stop-color:#828282"/>
					<a:midPointStop  offset="0" style="stop-color:#B3B3B3"/>
					<a:midPointStop  offset="0.5" style="stop-color:#B3B3B3"/>
					<a:midPointStop  offset="1" style="stop-color:#828282"/>
				</linearGradient>
				<path fill="url(#XMLID_2_)" d="M121.164,0.552H6.336v126.896h81.408l33.92-33.92V0.552H121.164z M120.664,1.552
					c0,0.987,0,91.152,0,91.562c-0.289,0.289-33.045,33.045-33.334,33.334c-0.41,0-79.01,0-79.994,0c0-0.988,0-123.909,0-124.896
					C8.322,1.552,119.678,1.552,120.664,1.552z"/>
				<linearGradient id="XMLID_3_" gradientUnits="userSpaceOnUse" x1="43.0229" y1="25.4214" x2="204.0073" y2="111.0652">
					<stop  offset="0" style="stop-color:#FFFFFF"/>
					<stop  offset="0.8603" style="stop-color:#DADADA"/>
					<stop  offset="1" style="stop-color:#D4D4D4"/>
					<a:midPointStop  offset="0" style="stop-color:#FFFFFF"/>
					<a:midPointStop  offset="0.5254" style="stop-color:#FFFFFF"/>
					<a:midPointStop  offset="1" style="stop-color:#D4D4D4"/>
				</linearGradient>
				<path fill="url(#XMLID_3_)" d="M118.006,15.223V3.94H10.199l-0.096,65.34c9.975,4.547,21.151,7.096,32.954,7.096
					C80.402,76.376,111.455,48.876,118.006,15.223z"/>
			</g>
			<linearGradient id="XMLID_4_" gradientUnits="userSpaceOnUse" x1="-2.4961" y1="10.6514" x2="119.5032" y2="10.6514">
				<stop  offset="0" style="stop-color:#FF4C00"/>
				<stop  offset="1" style="stop-color:#A20000"/>
				<a:midPointStop  offset="0" style="stop-color:#FF4C00"/>
				<a:midPointStop  offset="0.5" style="stop-color:#FF4C00"/>
				<a:midPointStop  offset="1" style="stop-color:#A20000"/>
			</linearGradient>
			<path fill="url(#XMLID_4_)" d="M117.613,17.023H10.229V4.279h107.384V17.023z"/>
			<g>
				
					<linearGradient id="XMLID_5_" gradientUnits="userSpaceOnUse" x1="3229.8145" y1="34.7246" x2="3297.6206" y2="116.2169" gradientTransform="matrix(-1 0 0 1 3289.5117 0)">
					<stop  offset="0" style="stop-color:#FF4C00"/>
					<stop  offset="1" style="stop-color:#A20000"/>
					<a:midPointStop  offset="0" style="stop-color:#FF4C00"/>
					<a:midPointStop  offset="0.5" style="stop-color:#FF4C00"/>
					<a:midPointStop  offset="1" style="stop-color:#A20000"/>
				</linearGradient>
				<path fill="url(#XMLID_5_)" d="M25.888,79.424c-0.361-1.304-0.263-3.315-0.026-4.705c-0.021,0.001-0.038,0.007-0.06,0.007
					C25.802,66.336,23.205,78.795,25.888,79.424z"/>
				<path fill="none" d="M111.423,102.918l-0.253-1.369c-0.432,0-0.864,0-1.294,0C109.876,101.938,110.508,102.408,111.423,102.918z
					"/>
				<path fill="#FFFFFF" d="M38.287,79.439l-2.19,0.828l1.775,1.48L38.287,79.439z"/>
				<path fill="#FFFFFF" d="M58.771,53.168c0.156-1.083-1.387-1.655-2.77-1.242c0.671,0.944,1.288,1.912,1.619,2.684
					C58.232,54.288,58.674,53.827,58.771,53.168z"/>
				<path fill="#FFFFFF" d="M55.766,55.165c-0.565-0.526-1.14-1.249-1.607-2.116c-1.132,0.998-1.934,2.21-1.934,2.21
					S54.043,55.435,55.766,55.165z"/>
				<path d="M55.766,55.165c0.974,0.907,1.898,1.22,2.079,0.598c0.078-0.268-0.02-0.674-0.226-1.153
					c-0.21,0.11-0.44,0.204-0.683,0.283C56.568,55.013,56.168,55.101,55.766,55.165z"/>
				<path d="M56.001,51.926c-1.271-1.789-2.725-3.472-2.725-3.472c-0.254,1.709,0.189,3.304,0.883,4.595
					c0.44-0.389,0.927-0.746,1.442-0.984C55.73,52.005,55.867,51.967,56.001,51.926z"/>
				<path d="M56.937,54.893c0.243-0.08,0.473-0.173,0.683-0.283c-0.331-0.772-0.947-1.739-1.619-2.684
					c-0.134,0.041-0.271,0.08-0.399,0.139c-0.516,0.238-1.002,0.595-1.442,0.984c0.467,0.867,1.042,1.59,1.607,2.116
					C56.168,55.101,56.568,55.013,56.937,54.893z"/>
				<path fill="#FFFFFF" d="M34.415,82.797l0.335-2.307l-1.776,0.827L34.415,82.797z"/>
				<path fill="#FFFFFF" d="M48.351,74.996l-2.189,0.826l1.775,1.481L48.351,74.996z"/>
				<path d="M105.012,111.162c-0.718,0-1.436,0-2.154,0c0.181,0.457,0.494,0.875,0.881,1.275L105.012,111.162z"/>
				<path d="M84.87,118.341c-2.544,2.546-6.225,6.66-7.021,3.624c-0.37-0.35-0.591-1.087-0.591-2.358
					c1.856-1.856,4.224-5.06,4.912-7.888c-2.134,1.961-6.381,5.176-8.765,5.176c0-0.278,0.099-0.611,0.264-0.983
					c-0.262,0.057-0.514,0.096-0.744,0.096c0-2.256,6.105-7.893,6.212-10.577c-1.49,1.486-8.332,4.363-6.034,1.767
					c-1.031,0.216-1.429-0.062-0.178-1.314c1.935-1.933,4.371-4.222,4.94-6.857c-2.625,0.48-4.512,4.234-7.3,4.234
					c0-0.371-0.039-0.723-0.093-1.068c-0.137,0.021-0.274,0.038-0.416,0.038c0-2.529-1.462-4.374-1.462-6.524
					c2.477,0,3.366,2.193,5.792,2.193c0-0.283-0.042-0.546-0.102-0.798c-1.401-2.174-4.924-3.16-5.142-5.12
					c-0.339-0.404-0.549-0.841-0.549-1.337c2.86,0,7.253-5.9,8.386-9.415c-2.06,0.835-6.043,4.456-7.141,5.555
					c-3.032,0-5.516,0.725-8.625,0.725c-0.913-1.143-7.722-2.169-9.348-2.169c-0.836-1.046-5.865,2.891-7.851,2.891
					c-3.329,0-4.428,2.78-7.9,0c0-0.189,0.041-0.359,0.099-0.526c-0.304-0.175-0.62-0.384-0.967-0.66
					c0-2.463,5.259-2.922,7.253-2.922c1.409-1.407,6.001-2.872,7.983-2.872c1.951-1.949,4.567-3.159,6.523-5.112
					c0.328,0.589,0.483,1.045,0.518,1.414c0.041-0.039,0.085-0.076,0.125-0.114c1.361,2.445-0.278,2.578-1.065,3.75
					c2.878-0.308,7.623-1.809,7.623-5.05c1.351-1.352,2.361-6.572,1.729-9.523c-0.289-0.405-0.672-0.644-1.161-0.644
					c0,2.699,0.454,3.885-1.391,5.733c0,2.695-1.925-1.921-2.171-2.117c0-0.082,0.011-0.163,0.015-0.244
					c-0.299-0.575-0.542-1.075-0.621-1.138c0-2.477,1.65-4.588,3.387-6.366C58.074,64.884,45.3,74.04,43.295,76.04
					c-4.463,0-9.148,3.564-14.357,3.564c-1.781,1.78-2.669,1.193-3.049-0.181c-2.684-0.629-0.086-13.088-0.086-4.698
					c0.021,0,0.039-0.006,0.06-0.007c0.277-1.623,0.737-2.38,0.869-0.137c2.317-0.681,2.761-3.909,1.744-6.194
					c-0.086-0.084-0.168-0.174-0.262-0.249c-0.223-0.279-0.332-0.538-0.357-0.779c-0.179-0.229-0.373-0.441-0.593-0.617
					c-2.039-2.553,4.92-3.455,6.524-5.064c3.212,0,5.502-2.921,8.716-2.921c1.237-1.235,7.056-5.792,8.662-5.792
					c0,0.939-0.429,1.595-0.955,2.167c0.701-0.382,1.293-0.628,1.658-0.628c0,1.688-1.393,2.452-2.228,3.472
					c2.342-0.162,4.172-0.678,6.639-0.678c0,0.766-2.806,1.685-4.622,2.039c1.743-0.213,3.304-0.545,5.272-0.545
					c0,0.567-1.552,1.217-3.086,1.657c1.042-0.08,2.024-0.23,2.435-0.23c2.655,0,2.842-2.162,4.331-3.655
					c0-0.75-0.126-3.3-0.456-4.485c-0.751-0.838-2.501-0.58-2.501-1.862c0.634,0,1.261,0.096,1.857,0.269
					c-0.773-0.812-2.5-0.573-2.5-1.853c2.814,0,5.52,1.844,5.847,4.213c0.501,0.783,0.73,1.687,0.558,2.641
					c1.228-1.152,2.258-2.952,2.258-3.982c1.757,0,4.714-0.023,6.448-0.903c-2.311-1.184-5.981-0.931-8.01-2.553
					c-2.08,0-2.983-1.446-5.063-1.446c-1.47-1.837-3.869,0-5.733,0c0-0.868,0.261-1.466,0.715-1.859
					c-0.484,0.133-0.959,0.238-1.403,0.238c0-6.355,13.694,1.434,17.403,1.005c-0.302-0.301-0.609-0.59-0.91-0.832
					c0.189-0.189,0.411-0.369,0.65-0.541c-0.384-0.4-0.785-0.784-1.174-1.096c3.562-3.558,16.271-4.124,19.569,0
					c2.47,0,5.953,4.222,7.255,5.846c0.899,0,1.322,2.006,1.396,3.239c0.165,0.674,0.243,1.41,0.243,1.902
					c-1.65,0-2.492-0.618-3.95-0.707c1.039,1.349,3.041,2.417,3.041,4.229c0,1.126,0.963,2.539,1.408,3.652
					c0,0.303-0.012,0.598-0.024,0.892c0.09,0.191,0.178,0.379,0.25,0.557c0,2.276-0.451,4.29-0.456,6.298
					c0.833-1.182,2.339-4.146,3.151-4.146c0,0.668,0.038,1.119,0.101,1.432c0.032-0.008,0.065-0.021,0.095-0.021
					c0,0.129,0.001,0.25,0.005,0.363c0.354,0.863,1.065-0.176,1.229,2.659c0.128,0.494,0.213,1.308,0.213,2.714
					c0,1.879-1.447,2.662-1.447,4.337c0,1.687-2.417,5.93-3.615,7.127c-1.146,1.146-1.556,2.499-1.43,3.844
					c0.25,0.764,0.659,1.506,1.198,2.179c0,0.395,0.077,0.75,0.178,1.084c0.018,0.024,0.034,0.049,0.054,0.073
					c0,0.042,0.005,0.08,0.008,0.121c0.212,0.636,0.485,1.192,0.45,1.771c0.289,0.806,0.456,1.531-0.458,2.444
					c-1.658,0-3.59-1.075-5.038-0.465c2.494,1.481,7.73,3.945,7.73,5.146c-0.22,0-0.427-0.011-0.636-0.022
					c0.512,0.412,0.838,0.782,0.838,1.074c-2.054,0-3.536-0.488-5.304-0.658c2.379,1.845,6.267,4.668,8.022,4.668
					c0,0.481-0.143,0.766-0.379,0.922c0.198,0.047,0.386,0.079,0.551,0.079c0,1.776-1.961,0.848-3.365,0.736
					c1.47,1.431,6.063,1.307,6.063,3.327c-0.11,0-0.223,0-0.334,0c0.143,0.124,0.257,0.261,0.341,0.412l6.161-6.162l-0.288-1.546
					c-0.915-0.51-1.547-0.979-1.547-1.369c0.43,0,0.862,0,1.294,0l-0.41-2.19c-2.363-1.185-5.946-1.969-5.946-3.654
					c0.64,0.165,1.127-0.06,1.462-0.679c-0.696-0.864-1.462-1.009-1.462-2.191c1.745,0,2.138,1.461,3.652,1.461
					c0-1.947-1.461-3.324-1.461-5.113c2.25,0,3.209,1.52,4.331,2.924c2.123-4.248-5.061-6.102-5.061-10.125
					c4.078,0,6.707,5.062,10.124,5.062c0-5.01-7.934-8.028-7.934-12.316c2.718,0,10.124,6.527,10.124,3.602
					c-1.782-2.232-8.714-6.828-8.714-9.396c3.852,0,6.584,4.333,10.176,4.333c0-3.818-5.752-7.802-8.716-10.177
					c-8.502-5.884,4.776-1.222,7.254-1.773c-3.243-3.064-12.35-14.874-16.646-14.874c-3.988-4.988-10.085-5.904-14.508-9.447
					c-6.655,0-16.978-2.599-22.494,2.924c-3.714,0-9.288-3.033-12.315,0c-2.109,0-3.802,3.801-5.062,5.062
					c0,8.954-5.716,7.184-10.124,11.583c-2.478,0-10.579,3.328-12.369,5.115c-4.83,4.832-4.331,12.311-4.331,16.649
					c2.133,1.706,2.107,9.445,5.062,9.445c2.604,0,6.241,0.688,7.985,2.87c3.727,1.492,5.771,0.731,9.445,0.731
					c5.881-5.883,22.439,1.06,22.439,9.445c2.267,1.813,3.589,13.789,1.463,15.916c0,2.421-0.354,4.666-0.811,6.971h15.949
					c1.426-2.01,2.715-3.999,2.673-5.281C84.918,118.397,84.901,118.366,84.87,118.341z M48.351,74.996l-0.414,2.308l-1.775-1.481
					L48.351,74.996z M38.287,79.439l-0.415,2.309l-1.775-1.48L38.287,79.439z M54.159,53.048c-0.693-1.291-1.137-2.886-0.883-4.595
					c0,0,1.453,1.684,2.725,3.472c1.382-0.413,2.926,0.159,2.77,1.242c-0.096,0.659-0.538,1.12-1.151,1.441
					c0.206,0.479,0.303,0.886,0.226,1.153c-0.181,0.622-1.105,0.309-2.079-0.598c-1.723,0.27-3.541,0.094-3.541,0.094
					S53.027,54.046,54.159,53.048z M34.415,82.797l-1.44-1.479l1.776-0.827L34.415,82.797z"/>
				
					<linearGradient id="XMLID_6_" gradientUnits="userSpaceOnUse" x1="3190.2002" y1="67.6943" x2="3257.98" y2="149.1547" gradientTransform="matrix(-1 0 0 1 3289.5117 0)">
					<stop  offset="0" style="stop-color:#FF4C00"/>
					<stop  offset="1" style="stop-color:#A20000"/>
					<a:midPointStop  offset="0" style="stop-color:#FF4C00"/>
					<a:midPointStop  offset="0.5" style="stop-color:#FF4C00"/>
					<a:midPointStop  offset="1" style="stop-color:#A20000"/>
				</linearGradient>
				<path fill="url(#XMLID_6_)" d="M97.328,69.426c-0.001,0.517,0.019,1.032,0.093,1.552c0.761-0.975,2.289-4.051,3.159-4.267
					c-0.062-0.312-0.101-0.764-0.101-1.432C99.667,65.279,98.161,68.244,97.328,69.426z"/>
				
					<linearGradient id="XMLID_7_" gradientUnits="userSpaceOnUse" x1="3177.4336" y1="78.3018" x2="3245.2463" y2="159.8019" gradientTransform="matrix(-1 0 0 1 3289.5117 0)">
					<stop  offset="0" style="stop-color:#FF4C00"/>
					<stop  offset="1" style="stop-color:#A20000"/>
					<a:midPointStop  offset="0" style="stop-color:#FF4C00"/>
					<a:midPointStop  offset="0.5" style="stop-color:#FF4C00"/>
					<a:midPointStop  offset="1" style="stop-color:#A20000"/>
				</linearGradient>
				<path fill="url(#XMLID_7_)" d="M77.85,121.965c-0.099-0.384-0.157-0.876-0.157-1.507c2.171-2.172,5.062-6.21,5.062-9.296
					c-0.167,0.169-0.37,0.358-0.584,0.557c-0.688,2.828-3.056,6.031-4.912,7.888C77.259,120.878,77.479,121.615,77.85,121.965z"/>
				
					<linearGradient id="XMLID_8_" gradientUnits="userSpaceOnUse" x1="3188.6904" y1="68.9512" x2="3256.5356" y2="150.4902" gradientTransform="matrix(-1 0 0 1 3289.5117 0)">
					<stop  offset="0" style="stop-color:#FF4C00"/>
					<stop  offset="1" style="stop-color:#A20000"/>
					<a:midPointStop  offset="0" style="stop-color:#FF4C00"/>
					<a:midPointStop  offset="0.5" style="stop-color:#FF4C00"/>
					<a:midPointStop  offset="1" style="stop-color:#A20000"/>
				</linearGradient>
				<path fill="url(#XMLID_8_)" d="M100.68,67.054c0.063,2.646,0.843,1.181,1.229,2.659
					C101.745,66.878,101.033,67.917,100.68,67.054z"/>
				
					<linearGradient id="XMLID_9_" gradientUnits="userSpaceOnUse" x1="3172.9512" y1="82.0332" x2="3240.7625" y2="163.5314" gradientTransform="matrix(-1 0 0 1 3289.5117 0)">
					<stop  offset="0" style="stop-color:#FF4C00"/>
					<stop  offset="1" style="stop-color:#A20000"/>
					<a:midPointStop  offset="0" style="stop-color:#FF4C00"/>
					<a:midPointStop  offset="0.5" style="stop-color:#FF4C00"/>
					<a:midPointStop  offset="1" style="stop-color:#A20000"/>
				</linearGradient>
				<path fill="url(#XMLID_9_)" d="M84.946,118.425c0.042,1.282-1.247,3.271-2.673,5.281h0.946
					C84.761,121.466,85.92,119.37,84.946,118.425z"/>
				
					<linearGradient id="XMLID_10_" gradientUnits="userSpaceOnUse" x1="3212.918" y1="48.7886" x2="3280.7217" y2="130.2778" gradientTransform="matrix(-1 0 0 1 3289.5117 0)">
					<stop  offset="0" style="stop-color:#FF4C00"/>
					<stop  offset="1" style="stop-color:#A20000"/>
					<a:midPointStop  offset="0" style="stop-color:#FF4C00"/>
					<a:midPointStop  offset="0.5" style="stop-color:#FF4C00"/>
					<a:midPointStop  offset="1" style="stop-color:#A20000"/>
				</linearGradient>
				<path fill="url(#XMLID_10_)" d="M61.231,69.341c0.157-3.521,3.631-6.29,5.718-8.381c-0.258-0.323-1.36,0.059-2.952,0.877
					c-1.737,1.778-3.387,3.89-3.387,6.366C60.689,68.266,60.933,68.766,61.231,69.341z"/>
				
					<linearGradient id="XMLID_11_" gradientUnits="userSpaceOnUse" x1="3223.1367" y1="40.2881" x2="3290.9373" y2="121.7735" gradientTransform="matrix(-1 0 0 1 3289.5117 0)">
					<stop  offset="0" style="stop-color:#FF4C00"/>
					<stop  offset="1" style="stop-color:#A20000"/>
					<a:midPointStop  offset="0" style="stop-color:#FF4C00"/>
					<a:midPointStop  offset="0.5" style="stop-color:#FF4C00"/>
					<a:midPointStop  offset="1" style="stop-color:#A20000"/>
				</linearGradient>
				<path fill="url(#XMLID_11_)" d="M52.626,44.98c0.443,0,0.918-0.104,1.403-0.238c3.11-2.686,15.413,4.376,17.206,2.582
					c-0.347-0.435-0.769-0.903-1.206-1.339C66.32,46.414,52.626,38.625,52.626,44.98z"/>
				
					<linearGradient id="XMLID_12_" gradientUnits="userSpaceOnUse" x1="3182.6064" y1="74.0117" x2="3250.4055" y2="155.4955" gradientTransform="matrix(-1 0 0 1 3289.5117 0)">
					<stop  offset="0" style="stop-color:#FF4C00"/>
					<stop  offset="1" style="stop-color:#A20000"/>
					<a:midPointStop  offset="0" style="stop-color:#FF4C00"/>
					<a:midPointStop  offset="0.5" style="stop-color:#FF4C00"/>
					<a:midPointStop  offset="1" style="stop-color:#A20000"/>
				</linearGradient>
				<path fill="url(#XMLID_12_)" d="M73.67,115.911c1.361-3.057,7.536-8.828,5.469-10.483c-0.001,0-0.001,0.001-0.001,0.002
					c-0.106,2.685-6.212,8.321-6.212,10.577C73.156,116.007,73.408,115.968,73.67,115.911z"/>
				
					<linearGradient id="XMLID_13_" gradientUnits="userSpaceOnUse" x1="3214.2939" y1="47.6484" x2="3282.0908" y2="129.1295" gradientTransform="matrix(-1 0 0 1 3289.5117 0)">
					<stop  offset="0" style="stop-color:#FF4C00"/>
					<stop  offset="1" style="stop-color:#A20000"/>
					<a:midPointStop  offset="0" style="stop-color:#FF4C00"/>
					<a:midPointStop  offset="0.5" style="stop-color:#FF4C00"/>
					<a:midPointStop  offset="1" style="stop-color:#A20000"/>
				</linearGradient>
				<path fill="url(#XMLID_13_)" d="M50.486,81.248c-1.982,0-6.574,1.465-7.983,2.872c-1.995,0-7.253,0.459-7.253,2.922
					c0.347,0.276,0.663,0.485,0.967,0.66c0.695-1.973,5.259-2.364,7.079-2.364c1.396-1.393,5.94-2.842,7.901-2.842
					c1.891-1.89,4.41-3.082,6.332-4.946c-0.035-0.369-0.19-0.825-0.518-1.414C55.054,78.089,52.437,79.299,50.486,81.248z"/>
				
					<linearGradient id="XMLID_14_" gradientUnits="userSpaceOnUse" x1="3186.7627" y1="70.5557" x2="3254.5593" y2="152.0363" gradientTransform="matrix(-1 0 0 1 3289.5117 0)">
					<stop  offset="0" style="stop-color:#FF4C00"/>
					<stop  offset="1" style="stop-color:#A20000"/>
					<a:midPointStop  offset="0" style="stop-color:#FF4C00"/>
					<a:midPointStop  offset="0.5" style="stop-color:#FF4C00"/>
					<a:midPointStop  offset="1" style="stop-color:#A20000"/>
				</linearGradient>
				<path fill="url(#XMLID_14_)" d="M72.926,105.882c-1.251,1.253-0.854,1.53,0.178,1.314c0.088-0.101,0.187-0.205,0.303-0.321
					c2.181-2.18,5.01-4.819,5.01-7.903c-0.188,0-0.371,0.019-0.55,0.053C77.297,101.66,74.86,103.949,72.926,105.882z"/>
				
					<linearGradient id="XMLID_15_" gradientUnits="userSpaceOnUse" x1="3209.667" y1="51.4976" x2="3277.4714" y2="132.9878" gradientTransform="matrix(-1 0 0 1 3289.5117 0)">
					<stop  offset="0" style="stop-color:#FF4C00"/>
					<stop  offset="1" style="stop-color:#A20000"/>
					<a:midPointStop  offset="0" style="stop-color:#FF4C00"/>
					<a:midPointStop  offset="0.5" style="stop-color:#FF4C00"/>
					<a:midPointStop  offset="1" style="stop-color:#A20000"/>
				</linearGradient>
				<path fill="url(#XMLID_15_)" d="M95.42,49.363c-1.302-1.625-4.785-5.846-7.255-5.846c-3.298-4.124-16.007-3.558-19.569,0
					c0.389,0.312,0.79,0.695,1.174,1.096c4.208-3.024,15.629-3.32,18.718,0.541c2.444,0,5.892,4.178,7.18,5.786
					c0.557,0,0.93,0.78,1.149,1.663C96.742,51.369,96.319,49.363,95.42,49.363z"/>
				
					<linearGradient id="XMLID_16_" gradientUnits="userSpaceOnUse" x1="3196.0479" y1="62.8232" x2="3263.8552" y2="144.3168" gradientTransform="matrix(-1 0 0 1 3289.5117 0)">
					<stop  offset="0" style="stop-color:#FF4C00"/>
					<stop  offset="1" style="stop-color:#A20000"/>
					<a:midPointStop  offset="0" style="stop-color:#FF4C00"/>
					<a:midPointStop  offset="0.5" style="stop-color:#FF4C00"/>
					<a:midPointStop  offset="1" style="stop-color:#A20000"/>
				</linearGradient>
				<path fill="url(#XMLID_16_)" d="M68.596,90.643c0,0.496,0.21,0.933,0.549,1.337c-0.006-0.063-0.025-0.123-0.025-0.188
					c3.272,0,8.573-7.801,8.573-10.742c-0.194,0-0.438,0.067-0.711,0.178C75.849,84.742,71.456,90.643,68.596,90.643z"/>
				
					<linearGradient id="XMLID_17_" gradientUnits="userSpaceOnUse" x1="3197.3359" y1="61.7534" x2="3265.1196" y2="143.2187" gradientTransform="matrix(-1 0 0 1 3289.5117 0)">
					<stop  offset="0" style="stop-color:#FF4C00"/>
					<stop  offset="1" style="stop-color:#A20000"/>
					<a:midPointStop  offset="0" style="stop-color:#FF4C00"/>
					<a:midPointStop  offset="0.5" style="stop-color:#FF4C00"/>
					<a:midPointStop  offset="1" style="stop-color:#A20000"/>
				</linearGradient>
				<path fill="url(#XMLID_17_)" d="M96.15,58.026c0-1.813-2.002-2.88-3.041-4.229c-0.11-0.006-0.217-0.017-0.336-0.017
					c0,2.234,3.616,3.312,3.616,5.733c0,0.935,0.667,2.066,1.145,3.058c0.013-0.294,0.024-0.589,0.024-0.892
					C97.113,60.565,96.15,59.152,96.15,58.026z"/>
				
					<linearGradient id="XMLID_18_" gradientUnits="userSpaceOnUse" x1="3191.9219" y1="66.252" x2="3259.7317" y2="147.7486" gradientTransform="matrix(-1 0 0 1 3289.5117 0)">
					<stop  offset="0" style="stop-color:#FF4C00"/>
					<stop  offset="1" style="stop-color:#A20000"/>
					<a:midPointStop  offset="0" style="stop-color:#FF4C00"/>
					<a:midPointStop  offset="0.5" style="stop-color:#FF4C00"/>
					<a:midPointStop  offset="1" style="stop-color:#A20000"/>
				</linearGradient>
				<path fill="url(#XMLID_18_)" d="M68.596,95.704c0,2.15,1.462,3.995,1.462,6.524c0.142,0,0.279-0.018,0.416-0.038
					c-0.312-1.979-1.354-3.577-1.354-5.389c2.451,0,3.332,2.17,5.733,2.17c0-0.721-0.219-1.331-0.566-1.872
					c0.06,0.252,0.102,0.515,0.102,0.798C71.962,97.897,71.072,95.704,68.596,95.704z"/>
				
					<linearGradient id="XMLID_19_" gradientUnits="userSpaceOnUse" x1="3207.8525" y1="53.0059" x2="3275.6511" y2="134.4889" gradientTransform="matrix(-1 0 0 1 3289.5117 0)">
					<stop  offset="0" style="stop-color:#FF4C00"/>
					<stop  offset="1" style="stop-color:#A20000"/>
					<a:midPointStop  offset="0" style="stop-color:#FF4C00"/>
					<a:midPointStop  offset="0.5" style="stop-color:#FF4C00"/>
					<a:midPointStop  offset="1" style="stop-color:#A20000"/>
				</linearGradient>
				<path fill="url(#XMLID_19_)" d="M64.21,76.136c0,3.241-4.744,4.742-7.623,5.05c-0.222,0.33-0.38,0.738-0.38,1.311
					c2.541,0,8.571-1.426,8.571-5.061c1.595-1.595,2.713-8.646,1.161-10.823C66.571,69.563,65.561,74.784,64.21,76.136z"/>
				
					<linearGradient id="XMLID_20_" gradientUnits="userSpaceOnUse" x1="3172.8516" y1="91.3906" x2="3223.8313" y2="152.6601" gradientTransform="matrix(-1 0 0 1 3289.5117 0)">
					<stop  offset="0" style="stop-color:#FF4C00"/>
					<stop  offset="1" style="stop-color:#A20000"/>
					<a:midPointStop  offset="0" style="stop-color:#FF4C00"/>
					<a:midPointStop  offset="0.5" style="stop-color:#FF4C00"/>
					<a:midPointStop  offset="1" style="stop-color:#A20000"/>
				</linearGradient>
				<path fill="url(#XMLID_20_)" d="M99.479,106.887c-0.087-0.007-0.169-0.012-0.249-0.012c0,2.128,4.5,2.037,5.979,3.339
					c0.111,0,0.224,0,0.334,0C105.543,108.193,100.949,108.317,99.479,106.887z"/>
				
					<linearGradient id="XMLID_21_" gradientUnits="userSpaceOnUse" x1="3179.376" y1="76.6406" x2="3247.3279" y2="158.3079" gradientTransform="matrix(-1 0 0 1 3289.5117 0)">
					<stop  offset="0" style="stop-color:#FF4C00"/>
					<stop  offset="1" style="stop-color:#A20000"/>
					<a:midPointStop  offset="0" style="stop-color:#FF4C00"/>
					<a:midPointStop  offset="0.5" style="stop-color:#FF4C00"/>
					<a:midPointStop  offset="1" style="stop-color:#A20000"/>
				</linearGradient>
				<path fill="url(#XMLID_21_)" d="M97.518,92.963c0.035-0.579-0.238-1.136-0.45-1.771C97.094,91.868,97.329,92.433,97.518,92.963z
					"/>
				
					<linearGradient id="XMLID_22_" gradientUnits="userSpaceOnUse" x1="3229.7393" y1="34.7944" x2="3297.5398" y2="116.2798" gradientTransform="matrix(-1 0 0 1 3289.5117 0)">
					<stop  offset="0" style="stop-color:#FF4C00"/>
					<stop  offset="1" style="stop-color:#A20000"/>
					<a:midPointStop  offset="0" style="stop-color:#FF4C00"/>
					<a:midPointStop  offset="0.5" style="stop-color:#FF4C00"/>
					<a:midPointStop  offset="1" style="stop-color:#A20000"/>
				</linearGradient>
				<path fill="url(#XMLID_22_)" d="M42.503,58.757c-3.214,0-5.503,2.921-8.716,2.921c-1.604,1.609-8.562,2.511-6.524,5.064
					c0.22,0.176,0.414,0.389,0.593,0.617c-0.198-1.953,5.401-2.815,6.813-4.232c3.179,0,5.445-2.891,8.625-2.891
					c0.943-0.941,4.569-3.826,6.915-5.105c0.526-0.572,0.955-1.227,0.955-2.167C49.559,52.965,43.74,57.522,42.503,58.757z"/>
				
					<linearGradient id="XMLID_23_" gradientUnits="userSpaceOnUse" x1="3215.7266" y1="46.4541" x2="3283.5281" y2="127.9408" gradientTransform="matrix(-1 0 0 1 3289.5117 0)">
					<stop  offset="0" style="stop-color:#FF4C00"/>
					<stop  offset="1" style="stop-color:#A20000"/>
					<a:midPointStop  offset="0" style="stop-color:#FF4C00"/>
					<a:midPointStop  offset="0.5" style="stop-color:#FF4C00"/>
					<a:midPointStop  offset="1" style="stop-color:#A20000"/>
				</linearGradient>
				<path fill="url(#XMLID_23_)" d="M63.414,55.486c-0.152,0.84-0.61,1.716-1.474,2.579c1.833,0,4.287-3.425,4.287-5.007
					c2.05,0,5.764-0.028,7.18-1.448c-0.344-0.429-0.785-0.752-1.286-1.01c-1.734,0.88-4.691,0.903-6.448,0.903
					C65.672,52.534,64.642,54.334,63.414,55.486z"/>
				
					<linearGradient id="XMLID_24_" gradientUnits="userSpaceOnUse" x1="3181.3242" y1="75.1006" x2="3249.0613" y2="156.5097" gradientTransform="matrix(-1 0 0 1 3289.5117 0)">
					<stop  offset="0" style="stop-color:#FF4C00"/>
					<stop  offset="1" style="stop-color:#A20000"/>
					<a:midPointStop  offset="0" style="stop-color:#FF4C00"/>
					<a:midPointStop  offset="0.5" style="stop-color:#FF4C00"/>
					<a:midPointStop  offset="1" style="stop-color:#A20000"/>
				</linearGradient>
				<path fill="url(#XMLID_24_)" d="M95.63,87.734c0.107,1.139,0.603,2.271,1.376,3.263c-0.101-0.334-0.178-0.689-0.178-1.084
					C96.289,89.24,95.88,88.498,95.63,87.734z"/>
				
					<linearGradient id="XMLID_25_" gradientUnits="userSpaceOnUse" x1="3219.6172" y1="43.2144" x2="3287.4189" y2="124.7013" gradientTransform="matrix(-1 0 0 1 3289.5117 0)">
					<stop  offset="0" style="stop-color:#FF4C00"/>
					<stop  offset="1" style="stop-color:#A20000"/>
					<a:midPointStop  offset="0" style="stop-color:#FF4C00"/>
					<a:midPointStop  offset="0.5" style="stop-color:#FF4C00"/>
					<a:midPointStop  offset="1" style="stop-color:#A20000"/>
				</linearGradient>
				<path fill="url(#XMLID_25_)" d="M56.279,60.218c-0.411,0-1.394,0.15-2.435,0.23c-1.067,0.306-2.126,0.511-2.648,0.511
					c0,1.694,4.697,0.723,5.734,0.723c2.628,0,2.812-2.141,4.286-3.617c0-0.921-0.191-4.584-0.722-5.007
					c0-0.446-0.135-0.751-0.34-0.98c0.33,1.185,0.456,3.735,0.456,4.485C59.121,58.056,58.935,60.218,56.279,60.218z"/>
				
					<linearGradient id="XMLID_26_" gradientUnits="userSpaceOnUse" x1="3222.5361" y1="40.792" x2="3290.3267" y2="122.2654" gradientTransform="matrix(-1 0 0 1 3289.5117 0)">
					<stop  offset="0" style="stop-color:#FF4C00"/>
					<stop  offset="1" style="stop-color:#A20000"/>
					<a:midPointStop  offset="0" style="stop-color:#FF4C00"/>
					<a:midPointStop  offset="0.5" style="stop-color:#FF4C00"/>
					<a:midPointStop  offset="1" style="stop-color:#A20000"/>
				</linearGradient>
				<path fill="url(#XMLID_26_)" d="M56.279,57.297c-2.467,0-4.297,0.516-6.639,0.678c-0.356,0.436-0.613,0.916-0.613,1.538
					c0.961,0,1.814-0.076,2.63-0.176C53.473,58.982,56.279,58.063,56.279,57.297z"/>
				
					<linearGradient id="XMLID_27_" gradientUnits="userSpaceOnUse" x1="3177.8613" y1="78.3867" x2="3244.8142" y2="158.8535" gradientTransform="matrix(-1 0 0 1 3289.5117 0)">
					<stop  offset="0" style="stop-color:#FF4C00"/>
					<stop  offset="1" style="stop-color:#A20000"/>
					<a:midPointStop  offset="0" style="stop-color:#FF4C00"/>
					<a:midPointStop  offset="0.5" style="stop-color:#FF4C00"/>
					<a:midPointStop  offset="1" style="stop-color:#A20000"/>
				</linearGradient>
				<path fill="url(#XMLID_27_)" d="M92.021,94.942c-0.245,0.105-0.479,0.251-0.692,0.465c1.239,0.996,5.88,3.124,7.787,4.658
					c0.209,0.012,0.416,0.022,0.636,0.022C99.752,98.888,94.516,96.424,92.021,94.942z"/>
				
					<linearGradient id="XMLID_28_" gradientUnits="userSpaceOnUse" x1="3173.5537" y1="81.5361" x2="3241.3711" y2="163.0419" gradientTransform="matrix(-1 0 0 1 3289.5117 0)">
					<stop  offset="0" style="stop-color:#FF4C00"/>
					<stop  offset="1" style="stop-color:#A20000"/>
					<a:midPointStop  offset="0" style="stop-color:#FF4C00"/>
					<a:midPointStop  offset="0.5" style="stop-color:#FF4C00"/>
					<a:midPointStop  offset="1" style="stop-color:#A20000"/>
				</linearGradient>
				<path fill="url(#XMLID_28_)" d="M102.673,105.149c-1.756,0-5.644-2.823-8.022-4.668c-0.371-0.036-0.75-0.062-1.155-0.062
					c1.62,1.295,6.38,5.083,8.799,5.652C102.53,105.915,102.673,105.631,102.673,105.149z"/>
				
					<linearGradient id="XMLID_29_" gradientUnits="userSpaceOnUse" x1="3221.8008" y1="41.3921" x2="3289.6252" y2="122.9063" gradientTransform="matrix(-1 0 0 1 3289.5117 0)">
					<stop  offset="0" style="stop-color:#FF4C00"/>
					<stop  offset="1" style="stop-color:#A20000"/>
					<a:midPointStop  offset="0" style="stop-color:#FF4C00"/>
					<a:midPointStop  offset="0.5" style="stop-color:#FF4C00"/>
					<a:midPointStop  offset="1" style="stop-color:#A20000"/>
				</linearGradient>
				<path fill="url(#XMLID_29_)" d="M57.01,48.633c0,1.28,1.728,1.04,2.5,1.853c1.413,0.412,2.644,1.266,3.346,2.36
					C62.53,50.477,59.824,48.633,57.01,48.633z"/>
				
					<linearGradient id="XMLID_30_" gradientUnits="userSpaceOnUse" x1="3229.9189" y1="34.6445" x2="3297.7195" y2="116.1299" gradientTransform="matrix(-1 0 0 1 3289.5117 0)">
					<stop  offset="0" style="stop-color:#FF4C00"/>
					<stop  offset="1" style="stop-color:#A20000"/>
					<a:midPointStop  offset="0" style="stop-color:#FF4C00"/>
					<a:midPointStop  offset="0.5" style="stop-color:#FF4C00"/>
					<a:midPointStop  offset="1" style="stop-color:#A20000"/>
				</linearGradient>
				<path fill="url(#XMLID_30_)" d="M26.731,74.582c0.023,0.393,0.037,0.871,0.037,1.458c3.738,0,3.955-5.442,1.708-7.652
					C29.492,70.673,29.048,73.901,26.731,74.582z"/>
				
					<linearGradient id="XMLID_31_" gradientUnits="userSpaceOnUse" x1="3166.1543" y1="87.6836" x2="3233.9844" y2="169.2044" gradientTransform="matrix(-1 0 0 1 3289.5117 0)">
					<stop  offset="0" style="stop-color:#FF4C00"/>
					<stop  offset="1" style="stop-color:#A20000"/>
					<a:midPointStop  offset="0" style="stop-color:#FF4C00"/>
					<a:midPointStop  offset="0.5" style="stop-color:#FF4C00"/>
					<a:midPointStop  offset="1" style="stop-color:#A20000"/>
				</linearGradient>
				<path fill="url(#XMLID_31_)" d="M102.857,111.162c-0.005,0-0.009,0-0.013,0c0,0.592,0.215,1.117,0.56,1.609l0.334-0.334
					C103.352,112.037,103.038,111.619,102.857,111.162z"/>
				<path d="M59.047,46.601c2.08,0,2.983,1.446,5.063,1.446c2.028,1.622,5.699,1.369,8.01,2.553c0.311-0.158,0.589-0.341,0.806-0.56
					c-1.936-2.423-6.896-1.603-9.392-3.6c-2.101,0-3.014-1.461-5.115-1.461c-1.136-1.418-2.818-0.67-4.39-0.238
					c-0.454,0.393-0.715,0.991-0.715,1.859C55.178,46.601,57.577,44.764,59.047,46.601z"/>
				<linearGradient id="XMLID_32_" gradientUnits="userSpaceOnUse" x1="63.1196" y1="36.7427" x2="63.1196" y2="144.2171">
					<stop  offset="0" style="stop-color:#FFFFFF"/>
					<stop  offset="0.2921" style="stop-color:#FF4C00"/>
					<stop  offset="1" style="stop-color:#A20000"/>
					<a:midPointStop  offset="0" style="stop-color:#FFFFFF"/>
					<a:midPointStop  offset="0.5" style="stop-color:#FFFFFF"/>
					<a:midPointStop  offset="0.2921" style="stop-color:#FF4C00"/>
					<a:midPointStop  offset="0.5" style="stop-color:#FF4C00"/>
					<a:midPointStop  offset="1" style="stop-color:#A20000"/>
				</linearGradient>
				<path fill="url(#XMLID_32_)" d="M59.047,46.601c2.08,0,2.983,1.446,5.063,1.446c2.028,1.622,5.699,1.369,8.01,2.553
					c0.311-0.158,0.589-0.341,0.806-0.56c-1.936-2.423-6.896-1.603-9.392-3.6c-2.101,0-3.014-1.461-5.115-1.461
					c-1.136-1.418-2.818-0.67-4.39-0.238c-0.454,0.393-0.715,0.991-0.715,1.859C55.178,46.601,57.577,44.764,59.047,46.601z"/>
				<path d="M62.856,52.846c0.161,1.165-0.251,2.456-1.514,3.717c0.658,0,1.395-0.441,2.072-1.077
					C63.586,54.533,63.358,53.628,62.856,52.846z"/>
				<linearGradient id="XMLID_33_" gradientUnits="userSpaceOnUse" x1="62.3784" y1="36.7427" x2="62.3784" y2="144.2142">
					<stop  offset="0" style="stop-color:#FFFFFF"/>
					<stop  offset="0.2921" style="stop-color:#FF4C00"/>
					<stop  offset="1" style="stop-color:#A20000"/>
					<a:midPointStop  offset="0" style="stop-color:#FFFFFF"/>
					<a:midPointStop  offset="0.5" style="stop-color:#FFFFFF"/>
					<a:midPointStop  offset="0.2921" style="stop-color:#FF4C00"/>
					<a:midPointStop  offset="0.5" style="stop-color:#FF4C00"/>
					<a:midPointStop  offset="1" style="stop-color:#A20000"/>
				</linearGradient>
				<path fill="url(#XMLID_33_)" d="M62.856,52.846c0.161,1.165-0.251,2.456-1.514,3.717c0.658,0,1.395-0.441,2.072-1.077
					C63.586,54.533,63.358,53.628,62.856,52.846z"/>
				<path d="M70.029,45.985c0.303-0.035,0.548-0.119,0.704-0.275c-0.282-0.354-0.615-0.732-0.964-1.098
					c-0.239,0.172-0.461,0.352-0.65,0.541C69.42,45.395,69.728,45.684,70.029,45.985z"/>
				<linearGradient id="XMLID_34_" gradientUnits="userSpaceOnUse" x1="69.9258" y1="36.7422" x2="69.9258" y2="144.2178">
					<stop  offset="0" style="stop-color:#FFFFFF"/>
					<stop  offset="0.2921" style="stop-color:#FF4C00"/>
					<stop  offset="1" style="stop-color:#A20000"/>
					<a:midPointStop  offset="0" style="stop-color:#FFFFFF"/>
					<a:midPointStop  offset="0.5" style="stop-color:#FFFFFF"/>
					<a:midPointStop  offset="0.2921" style="stop-color:#FF4C00"/>
					<a:midPointStop  offset="0.5" style="stop-color:#FF4C00"/>
					<a:midPointStop  offset="1" style="stop-color:#A20000"/>
				</linearGradient>
				<path fill="url(#XMLID_34_)" d="M70.029,45.985c0.303-0.035,0.548-0.119,0.704-0.275c-0.282-0.354-0.615-0.732-0.964-1.098
					c-0.239,0.172-0.461,0.352-0.65,0.541C69.42,45.395,69.728,45.684,70.029,45.985z"/>
				<path d="M97.006,90.997c0.019,0.066,0.04,0.131,0.062,0.194c-0.003-0.041-0.008-0.079-0.008-0.121
					C97.04,91.046,97.023,91.021,97.006,90.997z"/>
				<linearGradient id="XMLID_35_" gradientUnits="userSpaceOnUse" x1="97.0371" y1="36.7246" x2="97.0371" y2="144.2389">
					<stop  offset="0" style="stop-color:#FFFFFF"/>
					<stop  offset="0.2921" style="stop-color:#FF4C00"/>
					<stop  offset="1" style="stop-color:#A20000"/>
					<a:midPointStop  offset="0" style="stop-color:#FFFFFF"/>
					<a:midPointStop  offset="0.5" style="stop-color:#FFFFFF"/>
					<a:midPointStop  offset="0.2921" style="stop-color:#FF4C00"/>
					<a:midPointStop  offset="0.5" style="stop-color:#FF4C00"/>
					<a:midPointStop  offset="1" style="stop-color:#A20000"/>
				</linearGradient>
				<path fill="url(#XMLID_35_)" d="M97.006,90.997c0.019,0.066,0.04,0.131,0.062,0.194c-0.003-0.041-0.008-0.079-0.008-0.121
					C97.04,91.046,97.023,91.021,97.006,90.997z"/>
				<path d="M100.58,66.711c0.028,0.141,0.062,0.251,0.1,0.343c-0.004-0.113-0.005-0.234-0.005-0.363
					C100.646,66.69,100.612,66.703,100.58,66.711z"/>
				<linearGradient id="XMLID_36_" gradientUnits="userSpaceOnUse" x1="100.6299" y1="36.7153" x2="100.6299" y2="144.292">
					<stop  offset="0" style="stop-color:#FFFFFF"/>
					<stop  offset="0.2921" style="stop-color:#FF4C00"/>
					<stop  offset="1" style="stop-color:#A20000"/>
					<a:midPointStop  offset="0" style="stop-color:#FFFFFF"/>
					<a:midPointStop  offset="0.5" style="stop-color:#FFFFFF"/>
					<a:midPointStop  offset="0.2921" style="stop-color:#FF4C00"/>
					<a:midPointStop  offset="0.5" style="stop-color:#FF4C00"/>
					<a:midPointStop  offset="1" style="stop-color:#A20000"/>
				</linearGradient>
				<path fill="url(#XMLID_36_)" d="M100.58,66.711c0.028,0.141,0.062,0.251,0.1,0.343c-0.004-0.113-0.005-0.234-0.005-0.363
					C100.646,66.69,100.612,66.703,100.58,66.711z"/>
				<path d="M28.475,68.388c-0.167-0.375-0.374-0.722-0.619-1.028c0.026,0.241,0.134,0.5,0.357,0.779
					C28.307,68.214,28.389,68.304,28.475,68.388z"/>
				<linearGradient id="XMLID_37_" gradientUnits="userSpaceOnUse" x1="28.1655" y1="36.7681" x2="28.1655" y2="144.1616">
					<stop  offset="0" style="stop-color:#FFFFFF"/>
					<stop  offset="0.2921" style="stop-color:#FF4C00"/>
					<stop  offset="1" style="stop-color:#A20000"/>
					<a:midPointStop  offset="0" style="stop-color:#FFFFFF"/>
					<a:midPointStop  offset="0.5" style="stop-color:#FFFFFF"/>
					<a:midPointStop  offset="0.2921" style="stop-color:#FF4C00"/>
					<a:midPointStop  offset="0.5" style="stop-color:#FF4C00"/>
					<a:midPointStop  offset="1" style="stop-color:#A20000"/>
				</linearGradient>
				<path fill="url(#XMLID_37_)" d="M28.475,68.388c-0.167-0.375-0.374-0.722-0.619-1.028c0.026,0.241,0.134,0.5,0.357,0.779
					C28.307,68.214,28.389,68.304,28.475,68.388z"/>
				<path d="M25.862,74.719c0.318-0.005,0.603-0.059,0.869-0.137C26.599,72.339,26.139,73.096,25.862,74.719z"/>
				<linearGradient id="XMLID_38_" gradientUnits="userSpaceOnUse" x1="26.2964" y1="36.7754" x2="26.2964" y2="144.1615">
					<stop  offset="0" style="stop-color:#FFFFFF"/>
					<stop  offset="0.2921" style="stop-color:#FF4C00"/>
					<stop  offset="1" style="stop-color:#A20000"/>
					<a:midPointStop  offset="0" style="stop-color:#FFFFFF"/>
					<a:midPointStop  offset="0.5" style="stop-color:#FFFFFF"/>
					<a:midPointStop  offset="0.2921" style="stop-color:#FF4C00"/>
					<a:midPointStop  offset="0.5" style="stop-color:#FF4C00"/>
					<a:midPointStop  offset="1" style="stop-color:#A20000"/>
				</linearGradient>
				<path fill="url(#XMLID_38_)" d="M25.862,74.719c0.318-0.005,0.603-0.059,0.869-0.137C26.599,72.339,26.139,73.096,25.862,74.719
					z"/>
				<path d="M105.55,110.626c-0.084-0.151-0.198-0.288-0.341-0.412c-0.845,0-1.689,0-2.536,0c0,0.337,0.066,0.649,0.185,0.948
					c0.719,0,1.437,0,2.154,0L105.55,110.626z"/>
				<linearGradient id="XMLID_39_" gradientUnits="userSpaceOnUse" x1="104.1113" y1="36.7617" x2="104.1113" y2="144.2135">
					<stop  offset="0" style="stop-color:#FFFFFF"/>
					<stop  offset="0.2921" style="stop-color:#FF4C00"/>
					<stop  offset="1" style="stop-color:#A20000"/>
					<a:midPointStop  offset="0" style="stop-color:#FFFFFF"/>
					<a:midPointStop  offset="0.5" style="stop-color:#FFFFFF"/>
					<a:midPointStop  offset="0.2921" style="stop-color:#FF4C00"/>
					<a:midPointStop  offset="0.5" style="stop-color:#FF4C00"/>
					<a:midPointStop  offset="1" style="stop-color:#A20000"/>
				</linearGradient>
				<path fill="url(#XMLID_39_)" d="M105.55,110.626c-0.084-0.151-0.198-0.288-0.341-0.412c-0.845,0-1.689,0-2.536,0
					c0,0.337,0.066,0.649,0.185,0.948c0.719,0,1.437,0,2.154,0L105.55,110.626z"/>
				<path d="M97.06,95.407c0.914-0.913,0.747-1.639,0.458-2.444c-0.022,0.417-0.207,0.849-0.689,1.332c-1.961,0-4.3-1.495-5.792,0
					c0.226,0.181,0.572,0.402,0.985,0.647C93.47,94.332,95.401,95.407,97.06,95.407z"/>
				<linearGradient id="XMLID_40_" gradientUnits="userSpaceOnUse" x1="94.2773" y1="36.7563" x2="94.2773" y2="144.2113">
					<stop  offset="0" style="stop-color:#FFFFFF"/>
					<stop  offset="0.2921" style="stop-color:#FF4C00"/>
					<stop  offset="1" style="stop-color:#A20000"/>
					<a:midPointStop  offset="0" style="stop-color:#FFFFFF"/>
					<a:midPointStop  offset="0.5" style="stop-color:#FFFFFF"/>
					<a:midPointStop  offset="0.2921" style="stop-color:#FF4C00"/>
					<a:midPointStop  offset="0.5" style="stop-color:#FF4C00"/>
					<a:midPointStop  offset="1" style="stop-color:#A20000"/>
				</linearGradient>
				<path fill="url(#XMLID_40_)" d="M97.06,95.407c0.914-0.913,0.747-1.639,0.458-2.444c-0.022,0.417-0.207,0.849-0.689,1.332
					c-1.961,0-4.3-1.495-5.792,0c0.226,0.181,0.572,0.402,0.985,0.647C93.47,94.332,95.401,95.407,97.06,95.407z"/>
				<path d="M97.06,83.891c1.198-1.197,3.615-5.44,3.615-7.127c0-1.675,1.447-2.458,1.447-4.337c0-1.406-0.085-2.22-0.213-2.714
					c0.022,0.381,0.034,0.828,0.034,1.361c0,1.9-1.464,2.691-1.464,4.383c0,1.703-2.441,5.991-3.651,7.2
					c-1.5,1.5-1.761,3.353-1.198,5.077C95.504,86.39,95.914,85.036,97.06,83.891z"/>
				<linearGradient id="XMLID_41_" gradientUnits="userSpaceOnUse" x1="98.7891" y1="36.7393" x2="98.7891" y2="144.2302">
					<stop  offset="0" style="stop-color:#FFFFFF"/>
					<stop  offset="0.2921" style="stop-color:#FF4C00"/>
					<stop  offset="1" style="stop-color:#A20000"/>
					<a:midPointStop  offset="0" style="stop-color:#FFFFFF"/>
					<a:midPointStop  offset="0.5" style="stop-color:#FFFFFF"/>
					<a:midPointStop  offset="0.2921" style="stop-color:#FF4C00"/>
					<a:midPointStop  offset="0.5" style="stop-color:#FF4C00"/>
					<a:midPointStop  offset="1" style="stop-color:#A20000"/>
				</linearGradient>
				<path fill="url(#XMLID_41_)" d="M97.06,83.891c1.198-1.197,3.615-5.44,3.615-7.127c0-1.675,1.447-2.458,1.447-4.337
					c0-1.406-0.085-2.22-0.213-2.714c0.022,0.381,0.034,0.828,0.034,1.361c0,1.9-1.464,2.691-1.464,4.383
					c0,1.703-2.441,5.991-3.651,7.2c-1.5,1.5-1.761,3.353-1.198,5.077C95.504,86.39,95.914,85.036,97.06,83.891z"/>
				<path d="M96.816,52.602c0.008,0.13,0.012,0.253,0.012,0.363c-1.795,0-2.633-0.732-4.331-0.732c0,0.585,0.248,1.092,0.612,1.563
					c1.458,0.089,2.3,0.707,3.95,0.707C97.06,54.012,96.981,53.276,96.816,52.602z"/>
				<linearGradient id="XMLID_42_" gradientUnits="userSpaceOnUse" x1="94.7783" y1="36.7441" x2="94.7783" y2="144.2104">
					<stop  offset="0" style="stop-color:#FFFFFF"/>
					<stop  offset="0.2921" style="stop-color:#FF4C00"/>
					<stop  offset="1" style="stop-color:#A20000"/>
					<a:midPointStop  offset="0" style="stop-color:#FFFFFF"/>
					<a:midPointStop  offset="0.5" style="stop-color:#FFFFFF"/>
					<a:midPointStop  offset="0.2921" style="stop-color:#FF4C00"/>
					<a:midPointStop  offset="0.5" style="stop-color:#FF4C00"/>
					<a:midPointStop  offset="1" style="stop-color:#A20000"/>
				</linearGradient>
				<path fill="url(#XMLID_42_)" d="M96.816,52.602c0.008,0.13,0.012,0.253,0.012,0.363c-1.795,0-2.633-0.732-4.331-0.732
					c0,0.585,0.248,1.092,0.612,1.563c1.458,0.089,2.3,0.707,3.95,0.707C97.06,54.012,96.981,53.276,96.816,52.602z"/>
				<path d="M102.845,106.15c-0.165,0-0.353-0.032-0.551-0.079c-0.697,0.464-2.21-0.189-3.273-0.189
					c0,0.411,0.179,0.732,0.459,1.005C100.884,106.998,102.845,107.927,102.845,106.15z"/>
				<linearGradient id="XMLID_43_" gradientUnits="userSpaceOnUse" x1="100.9326" y1="36.7261" x2="100.9326" y2="144.2316">
					<stop  offset="0" style="stop-color:#FFFFFF"/>
					<stop  offset="0.2921" style="stop-color:#FF4C00"/>
					<stop  offset="1" style="stop-color:#A20000"/>
					<a:midPointStop  offset="0" style="stop-color:#FFFFFF"/>
					<a:midPointStop  offset="0.5" style="stop-color:#FFFFFF"/>
					<a:midPointStop  offset="0.2921" style="stop-color:#FF4C00"/>
					<a:midPointStop  offset="0.5" style="stop-color:#FF4C00"/>
					<a:midPointStop  offset="1" style="stop-color:#A20000"/>
				</linearGradient>
				<path fill="url(#XMLID_43_)" d="M102.845,106.15c-0.165,0-0.353-0.032-0.551-0.079c-0.697,0.464-2.21-0.189-3.273-0.189
					c0,0.411,0.179,0.732,0.459,1.005C100.884,106.998,102.845,107.927,102.845,106.15z"/>
				<path d="M99.116,100.065c-2.163-0.105-3.741-0.707-5.89-0.707c0.348,0.278,0.842,0.673,1.424,1.123
					c1.768,0.17,3.25,0.658,5.304,0.658C99.954,100.848,99.628,100.478,99.116,100.065z"/>
				<linearGradient id="XMLID_44_" gradientUnits="userSpaceOnUse" x1="96.5898" y1="36.7485" x2="96.5898" y2="144.2179">
					<stop  offset="0" style="stop-color:#FFFFFF"/>
					<stop  offset="0.2921" style="stop-color:#FF4C00"/>
					<stop  offset="1" style="stop-color:#A20000"/>
					<a:midPointStop  offset="0" style="stop-color:#FFFFFF"/>
					<a:midPointStop  offset="0.5" style="stop-color:#FFFFFF"/>
					<a:midPointStop  offset="0.2921" style="stop-color:#FF4C00"/>
					<a:midPointStop  offset="0.5" style="stop-color:#FF4C00"/>
					<a:midPointStop  offset="1" style="stop-color:#A20000"/>
				</linearGradient>
				<path fill="url(#XMLID_44_)" d="M99.116,100.065c-2.163-0.105-3.741-0.707-5.89-0.707c0.348,0.278,0.842,0.673,1.424,1.123
					c1.768,0.17,3.25,0.658,5.304,0.658C99.954,100.848,99.628,100.478,99.116,100.065z"/>
				<path d="M97.534,62.57c-0.121,2.514-0.671,4.74-0.342,7.04c0.042-0.053,0.089-0.116,0.136-0.185
					c0.005-2.009,0.456-4.022,0.456-6.298C97.712,62.949,97.624,62.761,97.534,62.57z"/>
				<linearGradient id="XMLID_45_" gradientUnits="userSpaceOnUse" x1="97.4883" y1="36.7451" x2="97.4883" y2="144.2152">
					<stop  offset="0" style="stop-color:#FFFFFF"/>
					<stop  offset="0.2921" style="stop-color:#FF4C00"/>
					<stop  offset="1" style="stop-color:#A20000"/>
					<a:midPointStop  offset="0" style="stop-color:#FFFFFF"/>
					<a:midPointStop  offset="0.5" style="stop-color:#FFFFFF"/>
					<a:midPointStop  offset="0.2921" style="stop-color:#FF4C00"/>
					<a:midPointStop  offset="0.5" style="stop-color:#FF4C00"/>
					<a:midPointStop  offset="1" style="stop-color:#A20000"/>
				</linearGradient>
				<path fill="url(#XMLID_45_)" d="M97.534,62.57c-0.121,2.514-0.671,4.74-0.342,7.04c0.042-0.053,0.089-0.116,0.136-0.185
					c0.005-2.009,0.456-4.022,0.456-6.298C97.712,62.949,97.624,62.761,97.534,62.57z"/>
				<path d="M77.866,99.024c0.079-0.369,0.123-0.745,0.123-1.127c-2.812,0-4.735,3.924-7.516,4.293
					c0.054,0.346,0.093,0.697,0.093,1.068C73.354,103.259,75.241,99.505,77.866,99.024z"/>
				<linearGradient id="XMLID_46_" gradientUnits="userSpaceOnUse" x1="74.2314" y1="36.7437" x2="74.2314" y2="144.2233">
					<stop  offset="0" style="stop-color:#FFFFFF"/>
					<stop  offset="0.2921" style="stop-color:#FF4C00"/>
					<stop  offset="1" style="stop-color:#A20000"/>
					<a:midPointStop  offset="0" style="stop-color:#FFFFFF"/>
					<a:midPointStop  offset="0.5" style="stop-color:#FFFFFF"/>
					<a:midPointStop  offset="0.2921" style="stop-color:#FF4C00"/>
					<a:midPointStop  offset="0.5" style="stop-color:#FF4C00"/>
					<a:midPointStop  offset="1" style="stop-color:#A20000"/>
				</linearGradient>
				<path fill="url(#XMLID_46_)" d="M77.866,99.024c0.079-0.369,0.123-0.745,0.123-1.127c-2.812,0-4.735,3.924-7.516,4.293
					c0.054,0.346,0.093,0.697,0.093,1.068C73.354,103.259,75.241,99.505,77.866,99.024z"/>
				<path d="M74.286,97.1c-0.593-2.459-3.832-3.559-5.142-5.12C69.362,93.939,72.885,94.926,74.286,97.1z"/>
				<linearGradient id="XMLID_47_" gradientUnits="userSpaceOnUse" x1="71.7148" y1="36.7646" x2="71.7148" y2="144.2031">
					<stop  offset="0" style="stop-color:#FFFFFF"/>
					<stop  offset="0.2921" style="stop-color:#FF4C00"/>
					<stop  offset="1" style="stop-color:#A20000"/>
					<a:midPointStop  offset="0" style="stop-color:#FFFFFF"/>
					<a:midPointStop  offset="0.5" style="stop-color:#FFFFFF"/>
					<a:midPointStop  offset="0.2921" style="stop-color:#FF4C00"/>
					<a:midPointStop  offset="0.5" style="stop-color:#FF4C00"/>
					<a:midPointStop  offset="1" style="stop-color:#A20000"/>
				</linearGradient>
				<path fill="url(#XMLID_47_)" d="M74.286,97.1c-0.593-2.459-3.832-3.559-5.142-5.12C69.362,93.939,72.885,94.926,74.286,97.1z"/>
				<path d="M44.017,88.229c1.986,0,7.015-3.937,7.851-2.891c1.626,0,8.436,1.026,9.348,2.169c3.109,0,5.592-0.725,8.625-0.725
					c1.098-1.099,5.081-4.72,7.141-5.555c0.178-0.546,0.277-1.039,0.277-1.439c-1.676,0-6.676,4.534-7.934,5.792
					c-3.063,0-5.572,0.732-8.715,0.732c-0.922-1.154-7.802-2.192-9.445-2.192c-0.845-1.056-5.926,2.922-7.933,2.922
					c-3.032,0-4.24,2.267-7.016,0.66c-0.059,0.167-0.099,0.337-0.099,0.526C39.589,91.009,40.688,88.229,44.017,88.229z"/>
				<linearGradient id="XMLID_48_" gradientUnits="userSpaceOnUse" x1="56.688" y1="37.3257" x2="56.688" y2="143.3491">
					<stop  offset="0" style="stop-color:#FFFFFF"/>
					<stop  offset="0.2921" style="stop-color:#FF4C00"/>
					<stop  offset="1" style="stop-color:#A20000"/>
					<a:midPointStop  offset="0" style="stop-color:#FFFFFF"/>
					<a:midPointStop  offset="0.5" style="stop-color:#FFFFFF"/>
					<a:midPointStop  offset="0.2921" style="stop-color:#FF4C00"/>
					<a:midPointStop  offset="0.5" style="stop-color:#FF4C00"/>
					<a:midPointStop  offset="1" style="stop-color:#A20000"/>
				</linearGradient>
				<path fill="url(#XMLID_48_)" d="M44.017,88.229c1.986,0,7.015-3.937,7.851-2.891c1.626,0,8.436,1.026,9.348,2.169
					c3.109,0,5.592-0.725,8.625-0.725c1.098-1.099,5.081-4.72,7.141-5.555c0.178-0.546,0.277-1.039,0.277-1.439
					c-1.676,0-6.676,4.534-7.934,5.792c-3.063,0-5.572,0.732-8.715,0.732c-0.922-1.154-7.802-2.192-9.445-2.192
					c-0.845-1.056-5.926,2.922-7.933,2.922c-3.032,0-4.24,2.267-7.016,0.66c-0.059,0.167-0.099,0.337-0.099,0.526
					C39.589,91.009,40.688,88.229,44.017,88.229z"/>
				<path d="M79.138,105.43c0.017-0.414-0.104-0.759-0.417-1.009c-0.945,0.943-4.032,2.444-5.617,2.775
					C70.806,109.793,77.647,106.916,79.138,105.43z"/>
				<linearGradient id="XMLID_49_" gradientUnits="userSpaceOnUse" x1="76.002" y1="36.7559" x2="76.0019" y2="144.2153">
					<stop  offset="0" style="stop-color:#FFFFFF"/>
					<stop  offset="0.2921" style="stop-color:#FF4C00"/>
					<stop  offset="1" style="stop-color:#A20000"/>
					<a:midPointStop  offset="0" style="stop-color:#FFFFFF"/>
					<a:midPointStop  offset="0.5" style="stop-color:#FFFFFF"/>
					<a:midPointStop  offset="0.2921" style="stop-color:#FF4C00"/>
					<a:midPointStop  offset="0.5" style="stop-color:#FF4C00"/>
					<a:midPointStop  offset="1" style="stop-color:#A20000"/>
				</linearGradient>
				<path fill="url(#XMLID_49_)" d="M79.138,105.43c0.017-0.414-0.104-0.759-0.417-1.009c-0.945,0.943-4.032,2.444-5.617,2.775
					C70.806,109.793,77.647,106.916,79.138,105.43z"/>
				<path d="M84.87,118.341c0.031,0.025,0.048,0.057,0.076,0.084c-0.014-0.39-0.138-0.72-0.436-0.957
					c-2.246,2.248-5.373,5.709-6.661,4.497C78.646,125.001,82.326,120.887,84.87,118.341z"/>
				<linearGradient id="XMLID_50_" gradientUnits="userSpaceOnUse" x1="81.3984" y1="36.7524" x2="81.3984" y2="144.2206">
					<stop  offset="0" style="stop-color:#FFFFFF"/>
					<stop  offset="0.2921" style="stop-color:#FF4C00"/>
					<stop  offset="1" style="stop-color:#A20000"/>
					<a:midPointStop  offset="0" style="stop-color:#FFFFFF"/>
					<a:midPointStop  offset="0.5" style="stop-color:#FFFFFF"/>
					<a:midPointStop  offset="0.2921" style="stop-color:#FF4C00"/>
					<a:midPointStop  offset="0.5" style="stop-color:#FF4C00"/>
					<a:midPointStop  offset="1" style="stop-color:#A20000"/>
				</linearGradient>
				<path fill="url(#XMLID_50_)" d="M84.87,118.341c0.031,0.025,0.048,0.057,0.076,0.084c-0.014-0.39-0.138-0.72-0.436-0.957
					c-2.246,2.248-5.373,5.709-6.661,4.497C78.646,125.001,82.326,120.887,84.87,118.341z"/>
				<path d="M60.154,52.078c-0.08-0.283-0.17-0.492-0.274-0.574c0-0.47-0.147-0.786-0.37-1.019
					c-0.597-0.173-1.224-0.269-1.857-0.269C57.653,51.499,59.403,51.24,60.154,52.078z"/>
				<linearGradient id="XMLID_51_" gradientUnits="userSpaceOnUse" x1="58.9038" y1="36.7466" x2="58.9038" y2="144.1888">
					<stop  offset="0" style="stop-color:#FFFFFF"/>
					<stop  offset="0.2921" style="stop-color:#FF4C00"/>
					<stop  offset="1" style="stop-color:#A20000"/>
					<a:midPointStop  offset="0" style="stop-color:#FFFFFF"/>
					<a:midPointStop  offset="0.5" style="stop-color:#FFFFFF"/>
					<a:midPointStop  offset="0.2921" style="stop-color:#FF4C00"/>
					<a:midPointStop  offset="0.5" style="stop-color:#FF4C00"/>
					<a:midPointStop  offset="1" style="stop-color:#A20000"/>
				</linearGradient>
				<path fill="url(#XMLID_51_)" d="M60.154,52.078c-0.08-0.283-0.17-0.492-0.274-0.574c0-0.47-0.147-0.786-0.37-1.019
					c-0.597-0.173-1.224-0.269-1.857-0.269C57.653,51.499,59.403,51.24,60.154,52.078z"/>
				<path d="M82.171,111.719c0.125-0.518,0.203-1.023,0.203-1.505c-1.694,1.691-5.957,5.115-8.704,5.697
					c-0.165,0.372-0.264,0.705-0.264,0.983C75.79,116.895,80.037,113.68,82.171,111.719z"/>
				<linearGradient id="XMLID_52_" gradientUnits="userSpaceOnUse" x1="77.8906" y1="36.7412" x2="77.8906" y2="144.2231">
					<stop  offset="0" style="stop-color:#FFFFFF"/>
					<stop  offset="0.2921" style="stop-color:#FF4C00"/>
					<stop  offset="1" style="stop-color:#A20000"/>
					<a:midPointStop  offset="0" style="stop-color:#FFFFFF"/>
					<a:midPointStop  offset="0.5" style="stop-color:#FFFFFF"/>
					<a:midPointStop  offset="0.2921" style="stop-color:#FF4C00"/>
					<a:midPointStop  offset="0.5" style="stop-color:#FF4C00"/>
					<a:midPointStop  offset="1" style="stop-color:#A20000"/>
				</linearGradient>
				<path fill="url(#XMLID_52_)" d="M82.171,111.719c0.125-0.518,0.203-1.023,0.203-1.505c-1.694,1.691-5.957,5.115-8.704,5.697
					c-0.165,0.372-0.264,0.705-0.264,0.983C75.79,116.895,80.037,113.68,82.171,111.719z"/>
				<path d="M56.93,58.792c-1.968,0-3.529,0.332-5.272,0.545c-0.484,0.094-0.9,0.151-1.171,0.151c0,1.04,1.749,1.084,3.358,0.96
					C55.378,60.009,56.93,59.358,56.93,58.792z"/>
				<linearGradient id="XMLID_53_" gradientUnits="userSpaceOnUse" x1="53.7085" y1="36.7397" x2="53.7085" y2="144.2311">
					<stop  offset="0" style="stop-color:#FFFFFF"/>
					<stop  offset="0.2921" style="stop-color:#FF4C00"/>
					<stop  offset="1" style="stop-color:#A20000"/>
					<a:midPointStop  offset="0" style="stop-color:#FFFFFF"/>
					<a:midPointStop  offset="0.5" style="stop-color:#FFFFFF"/>
					<a:midPointStop  offset="0.2921" style="stop-color:#FF4C00"/>
					<a:midPointStop  offset="0.5" style="stop-color:#FF4C00"/>
					<a:midPointStop  offset="1" style="stop-color:#A20000"/>
				</linearGradient>
				<path fill="url(#XMLID_53_)" d="M56.93,58.792c-1.968,0-3.529,0.332-5.272,0.545c-0.484,0.094-0.9,0.151-1.171,0.151
					c0,1.04,1.749,1.084,3.358,0.96C55.378,60.009,56.93,59.358,56.93,58.792z"/>
				<path d="M51.868,54.503c-0.365,0-0.958,0.246-1.658,0.628c-0.835,0.91-1.916,1.608-1.916,2.895c0.474,0,0.917-0.021,1.347-0.051
					C50.476,56.955,51.868,56.191,51.868,54.503z"/>
				<linearGradient id="XMLID_54_" gradientUnits="userSpaceOnUse" x1="50.0811" y1="36.7422" x2="50.0811" y2="144.2202">
					<stop  offset="0" style="stop-color:#FFFFFF"/>
					<stop  offset="0.2921" style="stop-color:#FF4C00"/>
					<stop  offset="1" style="stop-color:#A20000"/>
					<a:midPointStop  offset="0" style="stop-color:#FFFFFF"/>
					<a:midPointStop  offset="0.5" style="stop-color:#FFFFFF"/>
					<a:midPointStop  offset="0.2921" style="stop-color:#FF4C00"/>
					<a:midPointStop  offset="0.5" style="stop-color:#FF4C00"/>
					<a:midPointStop  offset="1" style="stop-color:#A20000"/>
				</linearGradient>
				<path fill="url(#XMLID_54_)" d="M51.868,54.503c-0.365,0-0.958,0.246-1.658,0.628c-0.835,0.91-1.916,1.608-1.916,2.895
					c0.474,0,0.917-0.021,1.347-0.051C50.476,56.955,51.868,56.191,51.868,54.503z"/>
				<path d="M63.387,71.702c1.845-1.849,1.391-3.034,1.391-5.733c0.489,0,0.872,0.238,1.161,0.644
					c-0.263-1.226-0.806-2.062-1.729-2.062c0,2.726,0.458,3.925-1.406,5.794c0,1.87-0.917,0.256-1.572-1.003
					c-0.004,0.081-0.015,0.162-0.015,0.244C61.462,69.781,63.387,74.397,63.387,71.702z"/>
				<linearGradient id="XMLID_55_" gradientUnits="userSpaceOnUse" x1="63.5776" y1="36.7363" x2="63.5776" y2="144.2384">
					<stop  offset="0" style="stop-color:#FFFFFF"/>
					<stop  offset="0.2921" style="stop-color:#FF4C00"/>
					<stop  offset="1" style="stop-color:#A20000"/>
					<a:midPointStop  offset="0" style="stop-color:#FFFFFF"/>
					<a:midPointStop  offset="0.5" style="stop-color:#FFFFFF"/>
					<a:midPointStop  offset="0.2921" style="stop-color:#FF4C00"/>
					<a:midPointStop  offset="0.5" style="stop-color:#FF4C00"/>
					<a:midPointStop  offset="1" style="stop-color:#A20000"/>
				</linearGradient>
				<path fill="url(#XMLID_55_)" d="M63.387,71.702c1.845-1.849,1.391-3.034,1.391-5.733c0.489,0,0.872,0.238,1.161,0.644
					c-0.263-1.226-0.806-2.062-1.729-2.062c0,2.726,0.458,3.925-1.406,5.794c0,1.87-0.917,0.256-1.572-1.003
					c-0.004,0.081-0.015,0.162-0.015,0.244C61.462,69.781,63.387,74.397,63.387,71.702z"/>
				<path d="M28.938,79.604c5.209,0,9.895-3.564,14.357-3.564c2.005-2,14.779-11.156,20.702-14.203
					c0.84-0.86,1.702-1.645,2.405-2.349c-1.23-1.541-21.33,12.673-23.899,15.238c-4.51,0-9.245,3.602-14.508,3.602
					c-0.921,0.921-1.604,1.215-2.106,1.097C26.268,80.798,27.157,81.385,28.938,79.604z"/>
				<linearGradient id="XMLID_56_" gradientUnits="userSpaceOnUse" x1="46.145" y1="36.7422" x2="46.145" y2="144.2194">
					<stop  offset="0" style="stop-color:#FFFFFF"/>
					<stop  offset="0.2921" style="stop-color:#FF4C00"/>
					<stop  offset="1" style="stop-color:#A20000"/>
					<a:midPointStop  offset="0" style="stop-color:#FFFFFF"/>
					<a:midPointStop  offset="0.5" style="stop-color:#FFFFFF"/>
					<a:midPointStop  offset="0.2921" style="stop-color:#FF4C00"/>
					<a:midPointStop  offset="0.5" style="stop-color:#FF4C00"/>
					<a:midPointStop  offset="1" style="stop-color:#A20000"/>
				</linearGradient>
				<path fill="url(#XMLID_56_)" d="M28.938,79.604c5.209,0,9.895-3.564,14.357-3.564c2.005-2,14.779-11.156,20.702-14.203
					c0.84-0.86,1.702-1.645,2.405-2.349c-1.23-1.541-21.33,12.673-23.899,15.238c-4.51,0-9.245,3.602-14.508,3.602
					c-0.921,0.921-1.604,1.215-2.106,1.097C26.268,80.798,27.157,81.385,28.938,79.604z"/>
				<path d="M57.653,77.436c-0.04,0.038-0.084,0.075-0.125,0.114c0.155,1.613-1.978,1.559-1.978,3.698
					c0.302,0,0.655-0.021,1.038-0.062C57.375,80.014,59.014,79.881,57.653,77.436z"/>
				<linearGradient id="XMLID_57_" gradientUnits="userSpaceOnUse" x1="56.7378" y1="36.752" x2="56.7378" y2="144.208">
					<stop  offset="0" style="stop-color:#FFFFFF"/>
					<stop  offset="0.2921" style="stop-color:#FF4C00"/>
					<stop  offset="1" style="stop-color:#A20000"/>
					<a:midPointStop  offset="0" style="stop-color:#FFFFFF"/>
					<a:midPointStop  offset="0.5" style="stop-color:#FFFFFF"/>
					<a:midPointStop  offset="0.2921" style="stop-color:#FF4C00"/>
					<a:midPointStop  offset="0.5" style="stop-color:#FF4C00"/>
					<a:midPointStop  offset="1" style="stop-color:#A20000"/>
				</linearGradient>
				<path fill="url(#XMLID_57_)" d="M57.653,77.436c-0.04,0.038-0.084,0.075-0.125,0.114c0.155,1.613-1.978,1.559-1.978,3.698
					c0.302,0,0.655-0.021,1.038-0.062C57.375,80.014,59.014,79.881,57.653,77.436z"/>
				
					<linearGradient id="XMLID_58_" gradientUnits="userSpaceOnUse" x1="3199.1025" y1="60.2852" x2="3266.9011" y2="141.7682" gradientTransform="matrix(-1 0 0 1 3289.5117 0)">
					<stop  offset="0" style="stop-color:#FF4C00"/>
					<stop  offset="1" style="stop-color:#A20000"/>
					<a:midPointStop  offset="0" style="stop-color:#FF4C00"/>
					<a:midPointStop  offset="0.5" style="stop-color:#FF4C00"/>
					<a:midPointStop  offset="1" style="stop-color:#A20000"/>
				</linearGradient>
				<path fill="url(#XMLID_58_)" d="M102.845,111.162c0.004,0,0.008,0,0.013,0c-0.118-0.299-0.185-0.611-0.185-0.948
					c0.847,0,1.691,0,2.536,0c-1.479-1.302-5.979-1.211-5.979-3.339c0.08,0,0.162,0.005,0.249,0.012
					c-0.28-0.272-0.459-0.594-0.459-1.005c1.063,0,2.576,0.653,3.273,0.189c-2.419-0.569-7.179-4.357-8.799-5.652
					c0.405,0,0.784,0.026,1.155,0.062c-0.582-0.45-1.076-0.845-1.424-1.123c2.148,0,3.727,0.602,5.89,0.707
					c-1.907-1.534-6.548-3.662-7.787-4.658c0.214-0.214,0.447-0.359,0.692-0.465c-0.413-0.245-0.76-0.467-0.985-0.647
					c1.492-1.495,3.831,0,5.792,0c0.482-0.483,0.667-0.915,0.689-1.332c-0.188-0.53-0.424-1.095-0.45-1.771
					c-0.021-0.063-0.043-0.128-0.062-0.194c-0.773-0.991-1.269-2.124-1.376-3.263c-0.562-1.725-0.302-3.577,1.198-5.077
					c1.21-1.209,3.651-5.497,3.651-7.2c0-1.691,1.464-2.482,1.464-4.383c0-0.533-0.012-0.98-0.034-1.361
					c-0.387-1.479-1.166-0.014-1.229-2.659c-0.037-0.092-0.071-0.202-0.1-0.343c-0.87,0.216-2.398,3.292-3.159,4.267
					c-0.074-0.52-0.094-1.035-0.093-1.552c-0.047,0.068-0.094,0.132-0.136,0.185c-0.329-2.3,0.221-4.526,0.342-7.04
					c-0.478-0.992-1.145-2.123-1.145-3.058c0-2.422-3.616-3.499-3.616-5.733c0.119,0,0.226,0.011,0.336,0.017
					c-0.364-0.472-0.612-0.978-0.612-1.563c1.698,0,2.536,0.732,4.331,0.732c0-0.11-0.004-0.233-0.012-0.363
					c-0.22-0.883-0.593-1.663-1.149-1.663c-1.288-1.608-4.735-5.786-7.18-5.786c-3.089-3.861-14.51-3.565-18.718-0.541
					c0.349,0.366,0.682,0.744,0.964,1.098c-0.156,0.156-0.401,0.24-0.704,0.275c0.438,0.436,0.859,0.904,1.206,1.339
					c-1.793,1.794-14.096-5.268-17.206-2.582c1.571-0.433,3.254-1.181,4.39,0.238c2.102,0,3.014,1.461,5.115,1.461
					c2.496,1.997,7.456,1.177,9.392,3.6c-0.217,0.219-0.495,0.402-0.806,0.56c0.501,0.258,0.942,0.581,1.286,1.01
					c-1.416,1.42-5.13,1.448-7.18,1.448c0,1.583-2.453,5.007-4.287,5.007c0.864-0.863,1.322-1.739,1.474-2.579
					c-0.677,0.635-1.414,1.077-2.072,1.077c1.263-1.262,1.675-2.552,1.514-3.717c-0.703-1.094-1.933-1.949-3.346-2.36
					c0.223,0.233,0.37,0.549,0.37,1.019c0.104,0.083,0.194,0.291,0.274,0.574c0.205,0.229,0.34,0.534,0.34,0.98
					c0.531,0.423,0.722,4.086,0.722,5.007c-1.474,1.476-1.658,3.617-4.286,3.617c-1.037,0-5.734,0.972-5.734-0.723
					c0.521,0,1.581-0.205,2.648-0.511c-1.609,0.124-3.358,0.079-3.358-0.96c0.271,0,0.688-0.057,1.171-0.151
					c-0.816,0.1-1.669,0.176-2.63,0.176c0-0.622,0.257-1.102,0.613-1.538c-0.43,0.03-0.873,0.051-1.347,0.051
					c0-1.287,1.081-1.985,1.916-2.895c-2.346,1.279-5.972,4.164-6.915,5.105c-3.18,0-5.446,2.891-8.625,2.891
					c-1.412,1.417-7.012,2.279-6.813,4.232c0.245,0.307,0.452,0.653,0.619,1.028c2.248,2.21,2.031,7.652-1.708,7.652
					c0-0.587-0.014-1.065-0.037-1.458c-0.267,0.078-0.551,0.132-0.869,0.137c-0.236,1.39-0.334,3.401,0.026,4.705
					c0.502,0.118,1.186-0.176,2.106-1.097c5.264,0,9.999-3.602,14.508-3.602c2.569-2.564,22.669-16.779,23.899-15.238
					c-0.703,0.705-1.565,1.489-2.405,2.349c1.592-0.819,2.694-1.201,2.952-0.877c-2.087,2.092-5.561,4.86-5.718,8.381
					c0.655,1.259,1.572,2.873,1.572,1.003c1.865-1.869,1.406-3.068,1.406-5.794c0.924,0,1.467,0.837,1.729,2.062
					c1.552,2.178,0.434,9.229-1.161,10.823c0,3.635-6.03,5.061-8.571,5.061c0-0.572,0.158-0.98,0.38-1.311
					c-0.383,0.041-0.736,0.062-1.038,0.062c0-2.14,2.133-2.085,1.978-3.698c-1.921,1.864-4.44,3.057-6.332,4.946
					c-1.961,0-6.506,1.449-7.901,2.842c-1.82,0-6.383,0.392-7.079,2.364c2.776,1.606,3.984-0.66,7.016-0.66
					c2.006,0,7.088-3.978,7.933-2.922c1.644,0,8.523,1.038,9.445,2.192c3.143,0,5.651-0.732,8.715-0.732
					c1.258-1.258,6.258-5.792,7.934-5.792c0,0.4-0.1,0.894-0.277,1.439c0.273-0.11,0.517-0.178,0.711-0.178
					c0,2.941-5.301,10.742-8.573,10.742c0,0.064,0.02,0.124,0.025,0.188c1.31,1.562,4.549,2.661,5.142,5.12
					c0.348,0.541,0.566,1.151,0.566,1.872c-2.401,0-3.282-2.17-5.733-2.17c0,1.812,1.043,3.41,1.354,5.389
					c2.78-0.369,4.704-4.293,7.516-4.293c0,0.382-0.044,0.758-0.123,1.127c0.179-0.034,0.362-0.053,0.55-0.053
					c0,3.084-2.829,5.724-5.01,7.903c-0.116,0.116-0.215,0.221-0.303,0.321c1.585-0.331,4.672-1.832,5.617-2.775
					c0.313,0.25,0.434,0.595,0.417,1.009c0-0.001,0-0.002,0.001-0.002c2.067,1.655-4.107,7.427-5.469,10.483
					c2.747-0.582,7.01-4.006,8.704-5.697c0,0.481-0.078,0.987-0.203,1.505c0.214-0.198,0.417-0.388,0.584-0.557
					c0,3.086-2.892,7.124-5.062,9.296c0,0.631,0.059,1.123,0.157,1.507c1.288,1.212,4.415-2.249,6.661-4.497
					c0.298,0.237,0.422,0.567,0.436,0.957c0.974,0.945-0.186,3.041-1.727,5.281h9.249l10.936-10.935
					C103.06,112.279,102.845,111.754,102.845,111.162z"/>
				<linearGradient id="XMLID_59_" gradientUnits="userSpaceOnUse" x1="65.5352" y1="36.7407" x2="65.5351" y2="144.2207">
					<stop  offset="0" style="stop-color:#FFFFFF"/>
					<stop  offset="0.2921" style="stop-color:#FF4C00"/>
					<stop  offset="1" style="stop-color:#A20000"/>
					<a:midPointStop  offset="0" style="stop-color:#FFFFFF"/>
					<a:midPointStop  offset="0.5" style="stop-color:#FFFFFF"/>
					<a:midPointStop  offset="0.2921" style="stop-color:#FF4C00"/>
					<a:midPointStop  offset="0.5" style="stop-color:#FF4C00"/>
					<a:midPointStop  offset="1" style="stop-color:#A20000"/>
				</linearGradient>
				<path fill="url(#XMLID_59_)" d="M102.845,111.162c0.004,0,0.008,0,0.013,0c-0.118-0.299-0.185-0.611-0.185-0.948
					c0.847,0,1.691,0,2.536,0c-1.479-1.302-5.979-1.211-5.979-3.339c0.08,0,0.162,0.005,0.249,0.012
					c-0.28-0.272-0.459-0.594-0.459-1.005c1.063,0,2.576,0.653,3.273,0.189c-2.419-0.569-7.179-4.357-8.799-5.652
					c0.405,0,0.784,0.026,1.155,0.062c-0.582-0.45-1.076-0.845-1.424-1.123c2.148,0,3.727,0.602,5.89,0.707
					c-1.907-1.534-6.548-3.662-7.787-4.658c0.214-0.214,0.447-0.359,0.692-0.465c-0.413-0.245-0.76-0.467-0.985-0.647
					c1.492-1.495,3.831,0,5.792,0c0.482-0.483,0.667-0.915,0.689-1.332c-0.188-0.53-0.424-1.095-0.45-1.771
					c-0.021-0.063-0.043-0.128-0.062-0.194c-0.773-0.991-1.269-2.124-1.376-3.263c-0.562-1.725-0.302-3.577,1.198-5.077
					c1.21-1.209,3.651-5.497,3.651-7.2c0-1.691,1.464-2.482,1.464-4.383c0-0.533-0.012-0.98-0.034-1.361
					c-0.387-1.479-1.166-0.014-1.229-2.659c-0.037-0.092-0.071-0.202-0.1-0.343c-0.87,0.216-2.398,3.292-3.159,4.267
					c-0.074-0.52-0.094-1.035-0.093-1.552c-0.047,0.068-0.094,0.132-0.136,0.185c-0.329-2.3,0.221-4.526,0.342-7.04
					c-0.478-0.992-1.145-2.123-1.145-3.058c0-2.422-3.616-3.499-3.616-5.733c0.119,0,0.226,0.011,0.336,0.017
					c-0.364-0.472-0.612-0.978-0.612-1.563c1.698,0,2.536,0.732,4.331,0.732c0-0.11-0.004-0.233-0.012-0.363
					c-0.22-0.883-0.593-1.663-1.149-1.663c-1.288-1.608-4.735-5.786-7.18-5.786c-3.089-3.861-14.51-3.565-18.718-0.541
					c0.349,0.366,0.682,0.744,0.964,1.098c-0.156,0.156-0.401,0.24-0.704,0.275c0.438,0.436,0.859,0.904,1.206,1.339
					c-1.793,1.794-14.096-5.268-17.206-2.582c1.571-0.433,3.254-1.181,4.39,0.238c2.102,0,3.014,1.461,5.115,1.461
					c2.496,1.997,7.456,1.177,9.392,3.6c-0.217,0.219-0.495,0.402-0.806,0.56c0.501,0.258,0.942,0.581,1.286,1.01
					c-1.416,1.42-5.13,1.448-7.18,1.448c0,1.583-2.453,5.007-4.287,5.007c0.864-0.863,1.322-1.739,1.474-2.579
					c-0.677,0.635-1.414,1.077-2.072,1.077c1.263-1.262,1.675-2.552,1.514-3.717c-0.703-1.094-1.933-1.949-3.346-2.36
					c0.223,0.233,0.37,0.549,0.37,1.019c0.104,0.083,0.194,0.291,0.274,0.574c0.205,0.229,0.34,0.534,0.34,0.98
					c0.531,0.423,0.722,4.086,0.722,5.007c-1.474,1.476-1.658,3.617-4.286,3.617c-1.037,0-5.734,0.972-5.734-0.723
					c0.521,0,1.581-0.205,2.648-0.511c-1.609,0.124-3.358,0.079-3.358-0.96c0.271,0,0.688-0.057,1.171-0.151
					c-0.816,0.1-1.669,0.176-2.63,0.176c0-0.622,0.257-1.102,0.613-1.538c-0.43,0.03-0.873,0.051-1.347,0.051
					c0-1.287,1.081-1.985,1.916-2.895c-2.346,1.279-5.972,4.164-6.915,5.105c-3.18,0-5.446,2.891-8.625,2.891
					c-1.412,1.417-7.012,2.279-6.813,4.232c0.245,0.307,0.452,0.653,0.619,1.028c2.248,2.21,2.031,7.652-1.708,7.652
					c0-0.587-0.014-1.065-0.037-1.458c-0.267,0.078-0.551,0.132-0.869,0.137c-0.236,1.39-0.334,3.401,0.026,4.705
					c0.502,0.118,1.186-0.176,2.106-1.097c5.264,0,9.999-3.602,14.508-3.602c2.569-2.564,22.669-16.779,23.899-15.238
					c-0.703,0.705-1.565,1.489-2.405,2.349c1.592-0.819,2.694-1.201,2.952-0.877c-2.087,2.092-5.561,4.86-5.718,8.381
					c0.655,1.259,1.572,2.873,1.572,1.003c1.865-1.869,1.406-3.068,1.406-5.794c0.924,0,1.467,0.837,1.729,2.062
					c1.552,2.178,0.434,9.229-1.161,10.823c0,3.635-6.03,5.061-8.571,5.061c0-0.572,0.158-0.98,0.38-1.311
					c-0.383,0.041-0.736,0.062-1.038,0.062c0-2.14,2.133-2.085,1.978-3.698c-1.921,1.864-4.44,3.057-6.332,4.946
					c-1.961,0-6.506,1.449-7.901,2.842c-1.82,0-6.383,0.392-7.079,2.364c2.776,1.606,3.984-0.66,7.016-0.66
					c2.006,0,7.088-3.978,7.933-2.922c1.644,0,8.523,1.038,9.445,2.192c3.143,0,5.651-0.732,8.715-0.732
					c1.258-1.258,6.258-5.792,7.934-5.792c0,0.4-0.1,0.894-0.277,1.439c0.273-0.11,0.517-0.178,0.711-0.178
					c0,2.941-5.301,10.742-8.573,10.742c0,0.064,0.02,0.124,0.025,0.188c1.31,1.562,4.549,2.661,5.142,5.12
					c0.348,0.541,0.566,1.151,0.566,1.872c-2.401,0-3.282-2.17-5.733-2.17c0,1.812,1.043,3.41,1.354,5.389
					c2.78-0.369,4.704-4.293,7.516-4.293c0,0.382-0.044,0.758-0.123,1.127c0.179-0.034,0.362-0.053,0.55-0.053
					c0,3.084-2.829,5.724-5.01,7.903c-0.116,0.116-0.215,0.221-0.303,0.321c1.585-0.331,4.672-1.832,5.617-2.775
					c0.313,0.25,0.434,0.595,0.417,1.009c0-0.001,0-0.002,0.001-0.002c2.067,1.655-4.107,7.427-5.469,10.483
					c2.747-0.582,7.01-4.006,8.704-5.697c0,0.481-0.078,0.987-0.203,1.505c0.214-0.198,0.417-0.388,0.584-0.557
					c0,3.086-2.892,7.124-5.062,9.296c0,0.631,0.059,1.123,0.157,1.507c1.288,1.212,4.415-2.249,6.661-4.497
					c0.298,0.237,0.422,0.567,0.436,0.957c0.974,0.945-0.186,3.041-1.727,5.281h9.249l10.936-10.935
					C103.06,112.279,102.845,111.754,102.845,111.162z"/>
			</g>
			<g>
				
					<radialGradient id="XMLID_60_" cx="108.4668" cy="118.249" r="34.7364" fx="108.4668" fy="118.249" gradientUnits="userSpaceOnUse">
					<stop  offset="0" style="stop-color:#000000"/>
					<stop  offset="1" style="stop-color:#000000"/>
					<a:midPointStop  offset="0" style="stop-color:#000000"/>
					<a:midPointStop  offset="0.5" style="stop-color:#000000"/>
					<a:midPointStop  offset="1" style="stop-color:#000000"/>
				</radialGradient>
				<path opacity="0.1" fill="url(#XMLID_60_)" d="M85.191,90.976v35.754h1.793l33.639-33.639v-2.115H85.191z"/>
				<path fill="#FFFFFF" d="M87.537,126.948l33.627-33.627H87.537V126.948z"/>
				<linearGradient id="XMLID_61_" gradientUnits="userSpaceOnUse" x1="104.0166" y1="98.1807" x2="95.0883" y2="135.7938">
					<stop  offset="0" style="stop-color:#FFFFFF"/>
					<stop  offset="1" style="stop-color:#CCCCCC"/>
					<a:midPointStop  offset="0" style="stop-color:#FFFFFF"/>
					<a:midPointStop  offset="0.5" style="stop-color:#FFFFFF"/>
					<a:midPointStop  offset="1" style="stop-color:#CCCCCC"/>
				</linearGradient>
				<path fill="url(#XMLID_61_)" d="M89.865,125.056l29.594-29.592H89.865V125.056z"/>
				<linearGradient id="XMLID_62_" gradientUnits="userSpaceOnUse" x1="82.3086" y1="88.0928" x2="96.1043" y2="101.8885">
					<stop  offset="0" style="stop-color:#B3B3B3"/>
					<stop  offset="1" style="stop-color:#828282"/>
					<a:midPointStop  offset="0" style="stop-color:#B3B3B3"/>
					<a:midPointStop  offset="0.5" style="stop-color:#B3B3B3"/>
					<a:midPointStop  offset="1" style="stop-color:#828282"/>
				</linearGradient>
				<path fill="url(#XMLID_62_)" d="M87.537,92.821c-0.277,0-0.5,0.223-0.5,0.5v33.627c0,0.203,0.121,0.385,0.309,0.463
					c0.186,0.076,0.402,0.033,0.545-0.109l33.627-33.627c0.143-0.145,0.186-0.359,0.109-0.545c-0.078-0.188-0.26-0.309-0.463-0.309
					H87.537z M119.957,93.821c-1.58,1.578-30.342,30.34-31.92,31.92c0-2.209,0-30.986,0-31.92
					C88.971,93.821,117.748,93.821,119.957,93.821z"/>
			</g>
			<g>
				<path fill="#FFFFFF" d="M12.359,14.948V6.354h2.601l1.548,5.862l1.538-5.862h2.611v8.594h-1.609l-0.008-6.765l-1.711,6.765
					h-1.666l-1.686-6.765l-0.008,6.765H12.359z"/>
				<path fill="#FFFFFF" d="M22.012,10.704c0-0.877,0.131-1.613,0.393-2.209c0.195-0.438,0.461-0.832,0.799-1.181
					c0.337-0.349,0.708-0.607,1.11-0.775c0.535-0.227,1.151-0.341,1.851-0.341c1.265,0,2.277,0.394,3.037,1.181
					s1.139,1.882,1.139,3.284c0,1.391-0.377,2.479-1.13,3.264s-1.761,1.178-3.022,1.178c-1.277,0-2.292-0.391-3.045-1.172
					S22.012,12.075,22.012,10.704z M23.793,10.646c0,0.977,0.225,1.716,0.676,2.219c0.45,0.504,1.022,0.756,1.716,0.756
					s1.262-0.25,1.707-0.75c0.444-0.499,0.667-1.248,0.667-2.248c0-0.987-0.217-1.725-0.649-2.21s-1.008-0.729-1.725-0.729
					S24.89,7.929,24.451,8.42C24.012,8.912,23.793,9.654,23.793,10.646z"/>
				<path fill="#FFFFFF" d="M30.955,14.948v-1.562l4.521-5.578h-4.006V6.354h6.281v1.344l-4.699,5.797h4.871v1.453H30.955z"/>
			</g>
		</g>
		<path fill="none" d="M128,128H0V0h128V128z"/>
	</g>
</svg>
