<?xml version="1.0" encoding="iso-8859-1"?>
<!-- Generator: Adobe Illustrator 10.0.3, SVG Export Plug-In . SVG Version: 3.0.0 Build 77)  -->
<!DOCTYPE svg PUBLIC "-//W3C//DTD SVG 1.0//EN"    "http://www.w3.org/TR/2001/REC-SVG-20010904/DTD/svg10.dtd" [
	<!ENTITY ns_flows "http://ns.adobe.com/Flows/1.0/">
	<!ENTITY ns_svg "http://www.w3.org/2000/svg">
	<!ENTITY ns_xlink "http://www.w3.org/1999/xlink">
]>
<svg  xmlns="&ns_svg;" xmlns:xlink="&ns_xlink;" xmlns:a="http://ns.adobe.com/AdobeSVGViewerExtensions/3.0/"
	 width="128" height="128" viewBox="0 0 128 128" overflow="visible" enable-background="new 0 0 128 128" xml:space="preserve">
	<g id="Layer_1">
		<g>
			<g>
				<path fill="#FFFFFF" d="M121.164,1.052H6.836v125.896h80.701l33.627-33.627V1.052z"/>
				<linearGradient id="XMLID_1_" gradientUnits="userSpaceOnUse" x1="63.9204" y1="154.5645" x2="63.9204" y2="-100.9347">
					<stop  offset="0" style="stop-color:#FFFFFF"/>
					<stop  offset="0.258" style="stop-color:#F1F1F1"/>
					<stop  offset="0.7396" style="stop-color:#CECECE"/>
					<stop  offset="0.8595" style="stop-color:#C4C4C4"/>
					<a:midPointStop  offset="0" style="stop-color:#FFFFFF"/>
					<a:midPointStop  offset="0.5674" style="stop-color:#FFFFFF"/>
					<a:midPointStop  offset="0.8595" style="stop-color:#C4C4C4"/>
				</linearGradient>
				<path fill="url(#XMLID_1_)" d="M117.734,4.019H10.266l-0.16,122.654h76.457l31.172-31.252V4.019z"/>
				<linearGradient id="XMLID_2_" gradientUnits="userSpaceOnUse" x1="-26.333" y1="-26.333" x2="56.1662" y2="56.1662">
					<stop  offset="0" style="stop-color:#B3B3B3"/>
					<stop  offset="1" style="stop-color:#828282"/>
					<a:midPointStop  offset="0" style="stop-color:#B3B3B3"/>
					<a:midPointStop  offset="0.5" style="stop-color:#B3B3B3"/>
					<a:midPointStop  offset="1" style="stop-color:#828282"/>
				</linearGradient>
				<path fill="url(#XMLID_2_)" d="M121.164,0.552H6.336v126.896h81.408l33.92-33.92V0.552H121.164z M120.664,1.552
					c0,0.987,0,91.152,0,91.562c-0.289,0.289-33.045,33.045-33.334,33.334c-0.41,0-79.01,0-79.994,0c0-0.988,0-123.909,0-124.896
					C8.322,1.552,119.678,1.552,120.664,1.552z"/>
				<linearGradient id="XMLID_3_" gradientUnits="userSpaceOnUse" x1="43.0229" y1="25.4214" x2="204.0073" y2="111.0652">
					<stop  offset="0" style="stop-color:#FFFFFF"/>
					<stop  offset="0.5033" style="stop-color:#E7E7E7"/>
					<stop  offset="1" style="stop-color:#D4D4D4"/>
					<a:midPointStop  offset="0" style="stop-color:#FFFFFF"/>
					<a:midPointStop  offset="0.452" style="stop-color:#FFFFFF"/>
					<a:midPointStop  offset="1" style="stop-color:#D4D4D4"/>
				</linearGradient>
				<path fill="url(#XMLID_3_)" d="M118.006,15.223V3.94H10.199l-0.096,65.34c9.975,4.547,21.151,7.096,32.954,7.096
					C80.402,76.376,111.455,48.876,118.006,15.223z"/>
			</g>
			<path fill="none" d="M72.158,83.212V70.529c-8.568,3.576-17.923,5.638-27.732,5.815v6.867H72.158z"/>
			<path fill="none" d="M59.562,44.832c-3.404,2.08-6.689,6.015-9.764,11.694c-3.102,5.73-4.674,11.508-4.674,17.173
				c0,3.169,0.682,4.568,1.254,5.186c0.738,0.798,1.577,1.138,2.804,1.138c3.207,0,6.845-1.571,10.815-4.67
				c4.09-3.188,7.158-7.917,9.12-14.059c0,0,5.252-16.324,6.19-19.24c-1.517-0.177-2.854-0.296-3.85-0.296
				C66.903,41.758,62.901,42.792,59.562,44.832z"/>
			<path fill="none" d="M42.301,76.366c0.279,1.989,0.896,3.499,1.878,4.559c1.307,1.411,2.944,2.098,5.004,2.098
				c3.891,0,8.151-1.785,12.66-5.305c1.867-1.455,3.529-3.201,5.002-5.197c-7.485,2.487-15.479,3.855-23.787,3.855
				C42.805,76.376,42.554,76.368,42.301,76.366z"/>
			<linearGradient id="XMLID_4_" gradientUnits="userSpaceOnUse" x1="-56.2222" y1="10.6514" x2="74.8195" y2="10.6514">
				<stop  offset="0" style="stop-color:#FFFFFF"/>
				<stop  offset="1" style="stop-color:#FF0000"/>
				<a:midPointStop  offset="0" style="stop-color:#FFFFFF"/>
				<a:midPointStop  offset="0.5" style="stop-color:#FFFFFF"/>
				<a:midPointStop  offset="1" style="stop-color:#FF0000"/>
			</linearGradient>
			<path fill="url(#XMLID_4_)" d="M117.397,17.023H10.013V4.279h107.385V17.023z"/>
			<g>
				
					<radialGradient id="XMLID_5_" cx="108.4668" cy="118.249" r="34.7364" fx="108.4668" fy="118.249" gradientUnits="userSpaceOnUse">
					<stop  offset="0" style="stop-color:#000000"/>
					<stop  offset="1" style="stop-color:#000000"/>
					<a:midPointStop  offset="0" style="stop-color:#000000"/>
					<a:midPointStop  offset="0.5" style="stop-color:#000000"/>
					<a:midPointStop  offset="1" style="stop-color:#000000"/>
				</radialGradient>
				<path opacity="0.1" fill="url(#XMLID_5_)" d="M85.191,90.976v35.754h1.793l33.639-33.639v-2.115H85.191z"/>
				<path fill="#FFFFFF" d="M87.537,126.948l33.627-33.627H87.537V126.948z"/>
				<linearGradient id="XMLID_6_" gradientUnits="userSpaceOnUse" x1="104.0166" y1="98.1807" x2="95.0883" y2="135.7938">
					<stop  offset="0" style="stop-color:#FFFFFF"/>
					<stop  offset="1" style="stop-color:#CCCCCC"/>
					<a:midPointStop  offset="0" style="stop-color:#FFFFFF"/>
					<a:midPointStop  offset="0.5" style="stop-color:#FFFFFF"/>
					<a:midPointStop  offset="1" style="stop-color:#CCCCCC"/>
				</linearGradient>
				<path fill="url(#XMLID_6_)" d="M89.865,125.056l29.594-29.592H89.865V125.056z"/>
				<linearGradient id="XMLID_7_" gradientUnits="userSpaceOnUse" x1="82.3086" y1="88.0928" x2="96.1043" y2="101.8885">
					<stop  offset="0" style="stop-color:#B3B3B3"/>
					<stop  offset="1" style="stop-color:#828282"/>
					<a:midPointStop  offset="0" style="stop-color:#B3B3B3"/>
					<a:midPointStop  offset="0.5" style="stop-color:#B3B3B3"/>
					<a:midPointStop  offset="1" style="stop-color:#828282"/>
				</linearGradient>
				<path fill="url(#XMLID_7_)" d="M87.537,92.821c-0.277,0-0.5,0.223-0.5,0.5v33.627c0,0.203,0.121,0.385,0.309,0.463
					c0.186,0.076,0.402,0.033,0.545-0.109l33.627-33.627c0.143-0.145,0.186-0.359,0.109-0.545c-0.078-0.188-0.26-0.309-0.463-0.309
					H87.537z M119.957,93.821c-1.58,1.578-30.342,30.34-31.92,31.92c0-2.209,0-30.986,0-31.92
					C88.971,93.821,117.748,93.821,119.957,93.821z"/>
			</g>
			<g id="Layer_x005F_2_2_">
				<g opacity="0.35">
					<path fill="none" d="M60.326,29.604c-8.263,7.357,27.625,72.342,36.217,55.654c9.664-18.773-86.067,20.969-65.423,26.348
						C55.309,117.907,75.73,15.887,60.326,29.604z"/>
					<path opacity="0.35" d="M58.713,28.594c-6.105,6.004,0.619,18.865,3.332,24.984c4.958,11.187,11.438,22.806,20.215,31.464
						c2.578,2.545,5.771,5.248,9.609,5.158c3.725-0.084,6.83-3.348,7.814-6.746c2.059-7.121-9.295-5.322-12.873-4.686
						c-10.656,1.891-21.09,5.992-30.992,10.246c-9.019,3.877-18.561,8.207-26.104,14.617c-1.979,1.682-4.291,4.051-4.186,6.842
						c0.102,2.699,4.053,3.512,6.081,3.611c9.033,0.439,15.488-8.787,19.479-15.633c8.849-15.182,13.694-33.551,16.252-50.818
						c0.836-5.661,1.93-12.352,0.383-17.991C66.385,24.754,61.832,25.911,58.713,28.594c-3.028,2.607,0.926,4.001,3.225,2.023
						c0.556-0.48-0.585-0.188-0.252,0.043c0.414,0.287,0.818,1.743,0.975,2.562c0.741,3.895,0.285,8.062-0.142,11.963
						c-1.322,12.122-4.39,24.218-8.435,35.702c-3.197,9.078-7.412,21.291-15.53,27.248c-2.117,1.553-5.042,2.209-7.343,0.598
						c-0.438-0.307-0.364-0.635-0.245-0.904c0.284-0.641,1.314-1.615,2.278-2.434c7.445-6.328,17.506-10.311,26.423-14
						c9.249-3.83,19.304-7.818,29.349-8.809c1.711-0.17,5.172-0.361,5.504,1.084c0.127,0.549-0.221,1.635-0.689,2.141
						c-0.443,0.482,0.494-0.055-0.133-0.041c-0.684,0.018-1.447-0.385-2.037-0.684c-4.307-2.176-7.574-6.553-10.412-10.305
						c-3.951-5.223-7.33-10.888-10.396-16.668c-2.932-5.524-5.555-11.271-7.444-17.24c-0.719-2.273-1.289-4.604-1.554-6.977
						c-0.086-0.774-0.107-1.545-0.027-2.318c0.051-0.496,0.561-1.406,0.11-0.96c2.834-2.789-1.026-4.185-3.225-2.024L58.713,28.594z
						"/>
				</g>
				<g>
					<path fill="none" d="M57.035,28.072c-8.263,7.358,27.627,72.343,36.219,55.654c9.664-18.771-86.068,20.971-65.422,26.348
						C52.019,116.374,72.441,14.354,57.035,28.072z"/>
					<path fill="#F8310E" d="M55.423,27.061c-6.105,6.004,0.619,18.867,3.332,24.986c4.958,11.185,11.437,22.804,20.214,31.464
						c2.58,2.543,5.771,5.246,9.609,5.156c3.727-0.084,6.832-3.348,7.814-6.746c2.061-7.119-9.291-5.32-12.873-4.686
						C72.865,79.126,62.43,83.228,52.53,87.481c-9.02,3.877-18.562,8.209-26.104,14.617c-1.979,1.682-4.291,4.051-4.185,6.842
						c0.101,2.699,4.053,3.512,6.081,3.611c9.033,0.439,15.487-8.785,19.479-15.633c8.849-15.18,13.695-33.551,16.251-50.818
						c0.838-5.66,1.931-12.352,0.384-17.991c-1.34-4.889-5.892-3.733-9.011-1.047c-3.029,2.607,0.925,4,3.224,2.021
						c0.556-0.479-0.586-0.187-0.251,0.044c0.413,0.286,0.819,1.745,0.974,2.562c0.741,3.896,0.285,8.063-0.142,11.963
						c-1.322,12.124-4.39,24.218-8.434,35.704c-3.196,9.076-7.412,21.289-15.53,27.248c-2.116,1.553-5.042,2.207-7.343,0.596
						c-0.438-0.305-0.365-0.633-0.246-0.904c0.283-0.641,1.314-1.613,2.278-2.432c7.446-6.328,17.506-10.311,26.425-14.002
						c9.25-3.83,19.301-7.818,29.35-8.809c1.709-0.17,5.17-0.359,5.502,1.084c0.127,0.549-0.221,1.635-0.688,2.143
						c-0.445,0.48,0.492-0.057-0.135-0.043c-0.684,0.018-1.447-0.385-2.037-0.684c-4.305-2.176-7.574-6.553-10.412-10.303
						c-3.951-5.225-7.33-10.89-10.396-16.668c-2.93-5.525-5.556-11.271-7.443-17.24c-0.719-2.275-1.29-4.605-1.554-6.978
						c-0.086-0.772-0.107-1.545-0.027-2.318c0.052-0.496,0.561-1.405,0.11-0.961c2.834-2.787-1.026-4.183-3.224-2.021L55.423,27.061
						z"/>
				</g>
			</g>
			<g>
				<path fill="#FFFFFF" d="M13.097,15.115V5.74h3.038c1.151,0,1.902,0.047,2.251,0.141c0.537,0.141,0.987,0.447,1.35,0.918
					c0.362,0.472,0.543,1.081,0.543,1.828c0,0.577-0.105,1.061-0.313,1.454c-0.209,0.393-0.475,0.701-0.797,0.926
					c-0.323,0.224-0.65,0.373-0.983,0.444c-0.453,0.09-1.108,0.135-1.965,0.135h-1.236v3.529H13.097z M14.984,7.32v2.685h1.038
					c0.748,0,1.248-0.049,1.5-0.148c0.252-0.099,0.45-0.254,0.593-0.465c0.143-0.211,0.214-0.457,0.214-0.736
					c0-0.344-0.1-0.628-0.301-0.852c-0.201-0.224-0.455-0.364-0.763-0.42C17.04,7.342,16.585,7.32,15.901,7.32H14.984z"/>
				<path fill="#FFFFFF" d="M21.827,5.74h3.458c0.78,0,1.375,0.06,1.784,0.179c0.55,0.162,1.021,0.45,1.413,0.863
					c0.392,0.414,0.69,0.92,0.895,1.52c0.205,0.599,0.307,1.338,0.307,2.216c0,0.772-0.096,1.437-0.288,1.995
					c-0.234,0.683-0.569,1.234-1.003,1.657c-0.329,0.32-0.772,0.569-1.33,0.748c-0.417,0.133-0.976,0.198-1.675,0.198h-3.561V5.74z
					 M23.715,7.32v6.214h1.417c0.531,0,0.913-0.03,1.148-0.089c0.309-0.077,0.563-0.207,0.767-0.39
					c0.203-0.184,0.369-0.486,0.497-0.906c0.128-0.42,0.192-0.993,0.192-1.719s-0.064-1.282-0.192-1.67
					c-0.128-0.388-0.308-0.691-0.538-0.909c-0.231-0.218-0.524-0.365-0.879-0.441C25.86,7.35,25.341,7.32,24.568,7.32H23.715z"/>
				<path fill="#FFFFFF" d="M31.279,15.115V5.74h6.43V7.32h-4.542v2.225h3.929v1.58h-3.929v3.99H31.279z"/>
			</g>
		</g>
		<path fill="none" d="M128,128H0V0h128V128z"/>
	</g>
</svg>
