<?xml version="1.0"?>
<!DOCTYPE svg PUBLIC "-//W3C//DTD SVG 1.0//EN"
	"http://www.w3.org/TR/2001/REC-SVG-20010904/DTD/svg10.dtd">
<svg xmlns:x="http://ns.adobe.com/Extensibility/1.0/"
	xmlns:i="http://ns.adobe.com/AdobeIllustrator/10.0/" xmlns:graph=""
	xmlns="http://www.w3.org/2000/svg" xmlns:xlink="http://www.w3.org/1999/xlink"
	xmlns:a="http://ns.adobe.com/AdobeSVGViewerExtensions/3.0/" width="116"
	height="127" viewBox="-0.322 -0.104 116 127" overflow="visible"
	enable-background="new -0.322 -0.104 116 127" xml:space="preserve">
	<g id="Layer_1_2_">
		<g>
			<path d="M114.828 0.5 L0.5 0.5 L0.5 126.396 L81.201 126.396 L114.828 92.769 z"
				 style="fill:rgb(255,255,255)"/>
			<linearGradient id="XMLID_1_" gradientUnits="userSpaceOnUse" x1="57.5845"
				y1="154.013" x2="57.5845" y2="-101.487">
				<stop offset="0" style="stop-color:rgb(255,255,255)"/>
				<stop offset="0.258" style="stop-color:rgb(241,241,241)"/>
				<stop offset="0.7396" style="stop-color:rgb(206,206,206)"/>
				<stop offset="0.8595" style="stop-color:rgb(196,196,196)"/>
			</linearGradient>
			<path
				d="M111.398 3.467 L3.93 3.467 L3.77 126.121 L80.227 126.121 L111.399 94.869 L111.399
					3.467 z"
				 style="fill:url(#XMLID_1_)"/>
			<linearGradient id="XMLID_2_" gradientUnits="userSpaceOnUse" x1="-32.6685"
				y1="-26.8843" x2="49.8302" y2="55.6144">
				<stop offset="0" style="stop-color:rgb(178,178,178)"/>
				<stop offset="1" style="stop-color:rgb(130,130,130)"/>
			</linearGradient>
			<path
				d="M114.828 0 L0 0 L0 126.896 L81.408 126.896 L115.328 92.976 L115.328 0 zM114.328 1
					C114.328 1.987 114.328 92.152 114.328 92.563 C114.039 92.852 81.283 125.608
					80.994 125.897 C80.584 125.897 1.984 125.897 1 125.897 C1 124.908 1 1.988
					1 1 C1.986 1 113.342 1 114.328 1 z"
				 style="fill:url(#XMLID_2_)"/>
			<linearGradient id="XMLID_3_" gradientUnits="userSpaceOnUse" x1="36.6865"
				y1="24.8691" x2="197.669" y2="110.512">
				<stop offset="0" style="stop-color:rgb(255,255,255)"/>
				<stop offset="0.5033" style="stop-color:rgb(231,231,231)"/>
				<stop offset="1" style="stop-color:rgb(212,212,212)"/>
			</linearGradient>
			<path
				d="M111.67 14.671 L111.67 3.388 L3.863 3.388 L3.767 68.728 C13.742 73.275 24.918 75.824
					36.721 75.824 C74.066 75.824 105.119 48.325 111.67 14.671 z"
				 style="fill:url(#XMLID_3_)"/>
		</g>
		<path
			d="M65.822 82.66 L65.822 69.978 C57.254 73.554 47.899 75.616 38.09 75.793 L38.09 82.66
				z"
			 style="fill:none"/>
		<linearGradient id="XMLID_4_" gradientUnits="userSpaceOnUse" x1="21.8281"
			y1="52.8003" x2="182.81" y2="138.443">
			<stop offset="0" style="stop-color:rgb(255,255,255)"/>
			<stop offset="0.5033" style="stop-color:rgb(231,231,231)"/>
			<stop offset="1" style="stop-color:rgb(212,212,212)"/>
		</linearGradient>
		<path
			d="M65.822 61.863 L38.09 61.863 L38.09 75.793 C47.899 75.615 57.254 73.554 65.822 69.978
				z"
			 style="fill:url(#XMLID_4_)"/>
		<g>
			<path
				d="M66.721 31.764 L21.187 32.033 L20.433 48.799 L26.49 48.764 L26.654 46.604 C26.799
					44.712 27.224 43.237 27.92 42.218 C28.58 41.256 29.318 40.633 30.177 40.315
					C30.505 40.199 31.612 39.917 34.503 39.9 C34.503 39.9 36.937 39.885 38.347
					39.877 C38.347 41.752 38.347 76.814 38.347 76.814 C38.347 80.211 37.932 80.98
					37.915 81.011 C37.472 81.644 36.572 81.964 35.179 81.972 L31.007 81.997
					L31.007 88.038 L57.575 87.882 L57.575 81.84 L53.422 81.864 C52.521 81.87
					51.327 81.732 50.689 81.078 C50.592 80.866 50.235 79.874 50.235 76.756 C50.235
					76.756 50.235 41.66 50.235 39.807 C51.593 39.799 55.14 39.778 55.14 39.778
					C56.862 39.767 58.218 40.018 59.173 40.52 C60.061 40.989 60.769 41.728
					61.336 42.779 C61.487 43.066 61.885 44.019 62.212 46.509 L62.481 48.55 L68.421
					48.514 L67.666 31.758 zM65.788 33.733 C65.857 35.265 66.291 44.915 66.365
					46.563 C65.55 46.568 64.928 46.571 64.201 46.576 C64.184 46.448 64.159 46.254
					64.159 46.254 C63.888 44.19 63.521 42.71 63.067 41.854 C62.306 40.443
					61.333 39.44 60.088 38.783 C58.842 38.128 57.174 37.802 55.126 37.814 L48.269
					37.855 L48.269 76.757 C48.269 79.749 48.59 81.691 49.197 82.374 C50.105
					83.356 51.525 83.841 53.432 83.83 C53.432 83.83 54.674 83.821 55.608 83.815
					C55.608 84.591 55.608 85.16 55.608 85.93 C53.883 85.94 34.714 86.053 32.968
					86.063 C32.968 85.287 32.968 84.719 32.968 83.95 C33.91 83.944 35.187 83.937
					35.187 83.937 C37.267 83.924 38.688 83.33 39.535 82.117 C40.049 81.374
					40.308 79.592 40.308 76.814 L40.308 37.901 L34.489 37.936 C32.143 37.95 30.467
					38.129 29.507 38.468 C28.239 38.937 27.194 39.8 26.298 41.109 C25.403
					42.416 24.864 44.215 24.694 46.455 C24.694 46.455 24.678 46.666 24.667 46.811
					C23.919 46.815 23.305 46.819 22.486 46.823 C22.56 45.157 22.994 35.502 23.064
					33.987 C24.815 33.975 64.018 33.744 65.788 33.733 z"
				 style="fill:rgb(121,0,0)"/>
			<linearGradient id="XMLID_5_" gradientUnits="userSpaceOnUse" x1="44.4263"
				y1="115.898" x2="44.4263" y2="69.3969">
				<stop offset="0" style="stop-color:rgb(255,144,0)"/>
				<stop offset="1" style="stop-color:rgb(255,0,0)"/>
			</linearGradient>
			<path
				d="M66.727 32.746 L22.125 33.009 L21.459 47.81 L25.579 47.787 L25.674 46.53 C25.831
					44.463 26.315 42.826 27.109 41.664 C27.888 40.528 28.779 39.786 29.836 39.394
					C30.415 39.19 31.712 38.935 34.498 38.918 C34.498 38.918 37.673 38.899 39.33
					38.889 C39.33 41.423 39.33 76.814 39.33 76.814 C39.33 80.415 38.873 81.351
					38.732 81.554 C38.083 82.485 36.92 82.945 35.183 82.954 L31.989 82.974
					L31.989 87.052 L56.593 86.906 L56.593 82.828 L53.428 82.848 C51.809 82.857
					50.633 82.479 49.932 81.721 C49.831 81.608 49.253 80.757 49.253 76.757 C49.253
					76.757 49.253 41.365 49.253 38.832 C51.046 38.821 55.134 38.797 55.134
					38.797 C57.018 38.786 58.531 39.073 59.631 39.651 C60.696 40.215 61.538 41.086
					62.199 42.314 C62.47 42.827 62.867 43.958 63.186 46.383 L63.341 47.564
					L67.393 47.54 z"
				 style="fill:url(#XMLID_5_)"/>
			<linearGradient id="XMLID_6_" gradientUnits="userSpaceOnUse" x1="44.4263"
				y1="20.4194" x2="44.4263" y2="52.4619">
				<stop offset="0" style="stop-color:rgb(255,255,255)"/>
				<stop offset="100%" style="stop-opacity:0;stop-color:rgb(255,255,255)"/>
			</linearGradient>
			<path a:adobe-blending-mode="screen"
				d="M48.27 59.604 L48.27 38.831 C48.27 38.291 48.706 37.852 49.246 37.849 L55.127 37.814
					C57.176 37.802 58.845 38.128 60.089 38.783 C61.333 39.441 62.307 40.443
					63.068 41.854 C63.522 42.712 63.888 44.193 64.159 46.254 C64.159 46.254 64.184
					46.448 64.202 46.576 C64.93 46.572 65.551 46.568 66.367 46.563 C66.292
					44.915 65.858 35.266 65.789 33.733 C64.018 33.743 24.816 33.975 23.065 33.985
					C22.996 35.5 22.562 45.155 22.487 46.821 C23.306 46.816 23.921 46.813 24.669
					46.808 C24.68 46.664 24.695 46.454 24.695 46.454 C24.865 44.215 25.404
					42.416 26.299 41.106 C27.197 39.796 28.243 38.935 29.509 38.465 C30.471 38.126
					32.148 37.948 34.492 37.934 L39.323 37.905 C39.585 37.904 39.836 38.007
					40.021 38.191 C40.207 38.376 40.311 38.626 40.311 38.888 L40.311 59.54 C41.731
					59.684 43.184 59.759 44.662 59.759 C45.884 59.759 47.086 59.702 48.27
					59.604 z"
				 style="fill:url(#XMLID_6_)"/>
			<path
				d="M91.086 44.536 L45.55 44.805 L44.797 61.571 L50.855 61.535 L51.019 59.375 C51.164
					57.483 51.589 56.007 52.285 54.989 C52.945 54.027 53.682 53.404 54.541 53.086
					C54.869 52.97 55.976 52.689 58.867 52.671 C58.867 52.671 61.461 52.656
					62.712 52.649 C62.712 54.524 62.712 89.586 62.712 89.586 C62.712 92.983 62.297
					93.753 62.278 93.783 C61.836 94.416 60.936 94.736 59.542 94.745 L55.37
					94.77 L55.37 100.811 L81.938 100.654 L81.938 94.613 L77.785 94.637 C76.498
					94.644 75.559 94.37 75.054 93.854 C74.96 93.653 74.599 92.67 74.599 89.526
					C74.599 89.526 74.599 54.432 74.599 52.579 C75.955 52.571 79.502 52.55 79.502
					52.55 C81.225 52.539 82.582 52.789 83.537 53.292 C84.424 53.76 85.132 54.5
					85.699 55.552 C85.851 55.84 86.249 56.792 86.577 59.281 L86.843 61.322 L92.784
					61.287 L92.029 44.531 zM90.152 46.505 C90.221 48.037 90.655 57.687 90.729
					59.335 C89.914 59.34 89.293 59.344 88.565 59.348 C88.548 59.22 88.523
					59.026 88.523 59.026 C88.252 56.962 87.884 55.482 87.431 54.626 C86.669 53.214
					85.697 52.211 84.452 51.553 C83.207 50.899 81.538 50.574 79.489 50.586
					L72.634 50.626 L72.634 89.525 C72.634 92.521 72.954 94.463 73.562 95.144 C74.468
					96.125 75.889 96.611 77.797 96.6 C77.797 96.6 79.038 96.593 79.973 96.587
					C79.973 97.363 79.973 97.931 79.973 98.7 C78.247 98.711 59.079 98.823
					57.333 98.835 C57.333 98.058 57.333 97.49 57.333 96.721 C58.275 96.716 59.552
					96.707 59.552 96.707 C61.63 96.695 63.054 96.1 63.901 94.887 C64.415 94.145
					64.674 92.362 64.674 89.584 L64.674 50.672 L58.855 50.707 C56.51 50.721
					54.834 50.9 53.873 51.239 C52.605 51.708 51.56 52.57 50.662 53.88 C49.769
					55.188 49.23 56.986 49.059 59.228 C49.059 59.228 49.042 59.439 49.033 59.582
					C48.285 59.587 47.671 59.59 46.851 59.595 C46.926 57.929 47.36 48.275 47.428
					46.759 C49.179 46.748 88.381 46.516 90.152 46.505 z"/>
			<linearGradient id="XMLID_7_" gradientUnits="userSpaceOnUse" x1="68.79"
				y1="105.856" x2="68.79" y2="82.418">
				<stop offset="0" style="stop-color:rgb(176,176,176)"/>
				<stop offset="1" style="stop-color:rgb(0,0,0)"/>
				<a:midPointStop offset="0" style="stop-color:#B0B0B0"/>
				<a:midPointStop offset="0.5" style="stop-color:#B0B0B0"/>
				<a:midPointStop offset="1" style="stop-color:#000000"/>
			</linearGradient>
			<path
				d="M91.091 45.518 L46.49 45.781 L45.823 60.583 L49.943 60.559 L50.039 59.302 C50.195
					57.234 50.679 55.597 51.473 54.435 C52.252 53.3 53.143 52.557 54.2 52.165
					C54.778 51.962 56.075 51.706 58.862 51.689 C58.862 51.689 62.038 51.67 63.693
					51.661 C63.693 54.194 63.693 89.585 63.693 89.585 C63.693 93.185 63.236
					94.123 63.096 94.326 C62.447 95.257 61.284 95.715 59.547 95.726 L56.353 95.745
					L56.353 99.822 L80.957 99.677 L80.957 95.598 L77.792 95.618 C76.173 95.628
					74.996 95.249 74.296 94.491 C74.196 94.379 73.617 93.527 73.617 89.525
					C73.617 89.525 73.617 54.136 73.617 51.602 C75.41 51.591 79.498 51.568 79.498
					51.568 C81.382 51.556 82.895 51.844 83.995 52.422 C85.06 52.985 85.902 53.857
					86.565 55.086 C86.835 55.598 87.231 56.728 87.55 59.154 L87.704 60.336
					L91.757 60.312 z"
				 style="fill:url(#XMLID_7_)"/>
			<linearGradient id="XMLID_8_" gradientUnits="userSpaceOnUse" x1="68.8701"
				y1="36.5698" x2="68.8701" y2="65.748">
				<stop offset="0" style="stop-color:rgb(255,255,255)"/>
				<stop offset="1" style="stop-color:rgb(0,0,0)"/>
				<a:midPointStop offset="0" style="stop-color:#FFFFFF"/>
				<a:midPointStop offset="0.5" style="stop-color:#FFFFFF"/>
				<a:midPointStop offset="1" style="stop-color:#000000"/>
			</linearGradient>
			<path a:adobe-blending-mode="screen"
				d="M72.713 72.044 L72.713 51.271 C72.713 50.731 73.149 50.292 73.689 50.289 L79.571
					50.254 C81.62 50.242 83.289 50.568 84.533 51.223 C85.777 51.881 86.751 52.884
					87.512 54.294 C87.965 55.152 88.332 56.633 88.604 58.694 C88.604 58.694
					88.629 58.888 88.646 59.016 C89.374 59.012 89.995 59.008 90.811 59.003 C90.737
					57.356 90.303 47.706 90.233 46.173 C88.462 46.184 49.26 46.415 47.509 46.426
					C47.441 47.941 47.006 57.596 46.931 59.261 C47.75 59.256 48.364 59.253
					49.112 59.248 C49.123 59.105 49.139 58.894 49.139 58.894 C49.309 56.655 49.848
					54.856 50.743 53.546 C51.641 52.236 52.686 51.375 53.953 50.905 C54.915
					50.567 56.592 50.388 58.936 50.374 L63.766 50.345 C64.029 50.344 64.28 50.447
					64.465 50.631 C64.651 50.816 64.754 51.066 64.754 51.328 L64.754 71.979
					C66.174 72.123 67.626 72.199 69.105 72.199 C70.328 72.199 71.529 72.143
					72.713 72.044 z"
				 style="fill:url(#XMLID_8_)"/>
		</g>
		<g>
			<radialGradient id="XMLID_9_" cx="102.131" cy="117.697" r="34.7364"
				fx="102.131" fy="117.697" gradientUnits="userSpaceOnUse">
				<stop offset="0" style="stop-color:rgb(0,0,0)"/>
				<stop offset="1" style="stop-color:rgb(0,0,0)"/>
				<a:midPointStop offset="0" style="stop-color:#000000"/>
				<a:midPointStop offset="0.5" style="stop-color:#000000"/>
				<a:midPointStop offset="1" style="stop-color:#000000"/>
			</radialGradient>
			<path
				d="M78.855 90.424 L78.855 126.178 L80.648 126.178 L114.287 92.539 L114.287 90.424 z"
				
				 style="opacity:0.1;fill:url(#XMLID_9_)"/>
			<path d="M81.201 126.396 L114.828 92.769 L81.201 92.769 z"
				 style="fill:rgb(255,255,255)"/>
			<linearGradient id="XMLID_10_" gradientUnits="userSpaceOnUse" x1="97.6816"
				y1="97.6289" x2="88.7534" y2="135.242">
				<stop offset="0" style="stop-color:rgb(255,255,255)"/>
				<stop offset="1" style="stop-color:rgb(204,204,204)"/>
				<a:midPointStop offset="0" style="stop-color:#FFFFFF"/>
				<a:midPointStop offset="0.5" style="stop-color:#FFFFFF"/>
				<a:midPointStop offset="1" style="stop-color:#CCCCCC"/>
			</linearGradient>
			<path d="M83.529 124.504 L113.123 94.912 L83.529 94.912 z"
				 style="fill:url(#XMLID_10_)"/>
			<linearGradient id="XMLID_11_" gradientUnits="userSpaceOnUse" x1="75.9727"
				y1="87.541" x2="89.7684" y2="101.337">
				<stop offset="0" style="stop-color:rgb(178,178,178)"/>
				<stop offset="1" style="stop-color:rgb(130,130,130)"/>
				<a:midPointStop offset="0" style="stop-color:#B2B2B2"/>
				<a:midPointStop offset="0.5" style="stop-color:#B2B2B2"/>
				<a:midPointStop offset="1" style="stop-color:#828282"/>
			</linearGradient>
			<path
				d="M81.201 92.27 C80.924 92.27 80.701 92.493 80.701 92.77 L80.701 126.397 C80.701 126.6
					80.822 126.782 81.01 126.86 C81.196 126.936 81.412 126.893 81.555 126.751
					L115.182 93.124 C115.325 92.979 115.368 92.765 115.291 92.579 C115.213 92.391
					115.031 92.27 114.828 92.27 zM113.621 93.27 C112.041 94.848 83.279 123.61
					81.701 125.19 C81.701 122.981 81.701 94.204 81.701 93.27 C82.635 93.27
					111.412 93.27 113.621 93.27 z"
				 style="fill:url(#XMLID_11_)"/>
		</g>
		<linearGradient id="XMLID_12_" gradientUnits="userSpaceOnUse" x1="-10.3584"
			y1="10.0996" x2="120.962" y2="10.0996">
			<stop offset="0" style="stop-color:rgb(179,202,255)"/>
			<stop offset="1" style="stop-color:rgb(0,83,189)"/>
			<a:midPointStop offset="0" style="stop-color:#B3CAFF"/>
			<a:midPointStop offset="0.5" style="stop-color:#B3CAFF"/>
			<a:midPointStop offset="1" style="stop-color:#0053BD"/>
		</linearGradient>
		<path d="M111.062 16.471 L3.677 16.471 L3.677 3.728 L111.062 3.728 z"
			 style="fill:url(#XMLID_12_)"/>
		<g>
			<path d="M6.422 14.186 L6.422 12.549 L8.059 12.549 L8.059 14.186 z"
				 style="fill:rgb(255,255,255)"/>
			<path
				d="M11.667 14.186 L11.667 7.08 L9.15 7.08 L9.15 5.639 L15.906 5.639 L15.906 7.08 L13.388
					7.08 L13.388 14.186 z"
				 style="fill:rgb(255,255,255)"/>
			<path
				d="M18.956 14.186 L18.956 7.08 L16.438 7.08 L16.438 5.639 L23.194 5.639 L23.194 7.08
					L20.676 7.08 L20.676 14.186 z"
				 style="fill:rgb(255,255,255)"/>
			<path
				d="M24.328 14.186 L24.328 5.639 L30.19 5.639 L30.19 7.08 L26.049 7.08 L26.049 9.108
					L29.63 9.108 L29.63 10.548 L26.049 10.548 L26.049 14.185 L24.328 14.185 z"
				 style="fill:rgb(255,255,255)"/>
		</g>
	</g>
</svg>
