<?xml version="1.0"?>
<!DOCTYPE svg PUBLIC "-//W3C//DTD SVG 1.0//EN"
	"http://www.w3.org/TR/2001/REC-SVG-20010904/DTD/svg10.dtd">
<svg xmlns:x="http://ns.adobe.com/Extensibility/1.0/"
	xmlns:i="http://ns.adobe.com/AdobeIllustrator/10.0/" xmlns:graph=""
	xmlns="http://www.w3.org/2000/svg" xmlns:xlink="http://www.w3.org/1999/xlink"
	xmlns:a="http://ns.adobe.com/AdobeSVGViewerExtensions/3.0/" width="115"
	height="128" viewBox="0.164 -0.104 115 128" overflow="visible"
	enable-background="new 0.164 -0.104 115 128" xml:space="preserve">
	<g id="Layer_1_2_">
		<path d="M114.828 0.5 L0.5 0.5 L0.5 126.396 L81.201 126.396 L114.828 92.769 z"
			 style="fill:rgb(255,255,255)"/>
		<linearGradient id="XMLID_1_" gradientUnits="userSpaceOnUse" x1="57.5845"
			y1="154.013" x2="57.5845" y2="-101.487">
			<stop offset="0" style="stop-color:rgb(255,255,255)"/>
			<stop offset="0.2457" style="stop-color:rgb(246,246,246)"/>
			<stop offset="0.6374" style="stop-color:rgb(223,223,223)"/>
			<stop offset="1" style="stop-color:rgb(196,196,196)"/>
			<a:midPointStop offset="0" style="stop-color:#FFFFFF"/>
			<a:midPointStop offset="0.6045" style="stop-color:#FFFFFF"/>
			<a:midPointStop offset="1" style="stop-color:#C4C4C4"/>
		</linearGradient>
		<path
			d="M111.398 3.467 L3.93 3.467 L3.77 126.121 L80.227 126.121 L111.399 94.869 L111.399
				3.467 z"
			 style="fill:url(#XMLID_1_)"/>
		<linearGradient id="XMLID_2_" gradientUnits="userSpaceOnUse" x1="-32.6694"
			y1="-26.8853" x2="49.8298" y2="55.614">
			<stop offset="0" style="stop-color:rgb(178,178,178)"/>
			<stop offset="1" style="stop-color:rgb(130,130,130)"/>
			<a:midPointStop offset="0" style="stop-color:#B2B2B2"/>
			<a:midPointStop offset="0.5" style="stop-color:#B2B2B2"/>
			<a:midPointStop offset="1" style="stop-color:#828282"/>
		</linearGradient>
		<path
			d="M114.828 0 L0 0 L0 126.896 L81.408 126.896 L115.328 92.976 L115.328 0 zM114.328 1
				C114.328 1.987 114.328 92.152 114.328 92.563 C114.039 92.852 81.283 125.608
				80.994 125.897 C80.584 125.897 1.984 125.897 1 125.897 C1 124.908 1 1.988 1
				1 C1.986 1 113.342 1 114.328 1 z"
			 style="fill:url(#XMLID_2_)"/>
		<linearGradient id="XMLID_3_" gradientUnits="userSpaceOnUse" x1="36.687"
			y1="24.8696" x2="197.673" y2="110.514">
			<stop offset="0" style="stop-color:rgb(255,255,255)"/>
			<stop offset="0.8603" style="stop-color:rgb(218,218,218)"/>
			<stop offset="1" style="stop-color:rgb(212,212,212)"/>
			<a:midPointStop offset="0" style="stop-color:#FFFFFF"/>
			<a:midPointStop offset="0.5254" style="stop-color:#FFFFFF"/>
			<a:midPointStop offset="1" style="stop-color:#D4D4D4"/>
		</linearGradient>
		<path
			d="M111.67 14.671 L111.67 3.388 L3.863 3.388 L3.767 68.728 C13.742 73.275 24.918 75.824
				36.721 75.824 C74.066 75.824 105.119 48.325 111.67 14.671 z"
			 style="fill:url(#XMLID_3_)"/>
		<linearGradient id="XMLID_4_" gradientUnits="userSpaceOnUse" x1="-10.1421"
			y1="10.0996" x2="121.178" y2="10.0996">
			<stop offset="0" style="stop-color:rgb(179,202,255)"/>
			<stop offset="1" style="stop-color:rgb(0,83,189)"/>
			<a:midPointStop offset="0" style="stop-color:#B3CAFF"/>
			<a:midPointStop offset="0.5" style="stop-color:#B3CAFF"/>
			<a:midPointStop offset="1" style="stop-color:#0053BD"/>
		</linearGradient>
		<path d="M111.277 16.471 L3.893 16.471 L3.893 3.728 L111.277 3.728 z"
			 style="fill:url(#XMLID_4_)"/>
		<g>
			<radialGradient id="XMLID_5_" cx="102.131" cy="118.697" r="34.7364"
				fx="102.131" fy="118.697" gradientUnits="userSpaceOnUse">
				<stop offset="0" style="stop-color:rgb(0,0,0)"/>
				<stop offset="1" style="stop-color:rgb(0,0,0)"/>
				<a:midPointStop offset="0" style="stop-color:#000000"/>
				<a:midPointStop offset="0.5" style="stop-color:#000000"/>
				<a:midPointStop offset="1" style="stop-color:#000000"/>
			</radialGradient>
			<path
				d="M78.855 91.424 L78.855 127.178 L80.648 127.178 L114.287 93.539 L114.287 91.424 z"
				
				 style="opacity:0.1;fill:url(#XMLID_5_)"/>
			<path d="M81.201 127.396 L114.828 93.769 L81.201 93.769 z"
				 style="fill:rgb(255,255,255)"/>
			<linearGradient id="XMLID_6_" gradientUnits="userSpaceOnUse" x1="97.6807"
				y1="98.6289" x2="88.7524" y2="136.242">
				<stop offset="0" style="stop-color:rgb(255,255,255)"/>
				<stop offset="1" style="stop-color:rgb(204,204,204)"/>
				<a:midPointStop offset="0" style="stop-color:#FFFFFF"/>
				<a:midPointStop offset="0.5" style="stop-color:#FFFFFF"/>
				<a:midPointStop offset="1" style="stop-color:#CCCCCC"/>
			</linearGradient>
			<path d="M83.529 125.504 L113.123 95.912 L83.529 95.912 z"
				 style="fill:url(#XMLID_6_)"/>
			<linearGradient id="XMLID_7_" gradientUnits="userSpaceOnUse" x1="75.9727"
				y1="88.541" x2="89.7684" y2="102.337">
				<stop offset="0" style="stop-color:rgb(178,178,178)"/>
				<stop offset="1" style="stop-color:rgb(130,130,130)"/>
				<a:midPointStop offset="0" style="stop-color:#B2B2B2"/>
				<a:midPointStop offset="0.5" style="stop-color:#B2B2B2"/>
				<a:midPointStop offset="1" style="stop-color:#828282"/>
			</linearGradient>
			<path
				d="M81.201 93.27 C80.924 93.27 80.701 93.493 80.701 93.77 L80.701 127.397 C80.701 127.6
					80.822 127.782 81.01 127.86 C81.196 127.936 81.412 127.893 81.555 127.751
					L115.182 94.124 C115.325 93.979 115.368 93.765 115.291 93.579 C115.213 93.391
					115.031 93.27 114.828 93.27 zM113.621 94.27 C112.041 95.848 83.279 124.61
					81.701 126.19 C81.701 123.981 81.701 95.204 81.701 94.27 C82.635 94.27
					111.412 94.27 113.621 94.27 z"
				 style="fill:url(#XMLID_7_)"/>
		</g>
		<g>
			<path
				d="M75.181 81.135 C57.991 65.375 85.504 55.629 78.235 48.364 C77.852 47.982 77.341 47.584
					76.73 47.178 C76.899 54.533 56.328 65.424 71.563 79.39 C91.887 98.022
					61.68 118.326 41.831 110.913 C61.283 122.643 96.796 100.947 75.181 81.135
					z"
				 style="opacity:0.3;fill:rgb(112,112,112)"/>
			<linearGradient id="XMLID_8_" gradientUnits="userSpaceOnUse" x1="52.145"
				y1="75.583" x2="52.145" y2="164.252">
				<stop offset="0" style="stop-color:rgb(179,202,255)"/>
				<stop offset="1" style="stop-color:rgb(0,83,189)"/>
				<a:midPointStop offset="0" style="stop-color:#B3CAFF"/>
				<a:midPointStop offset="0.5" style="stop-color:#B3CAFF"/>
				<a:midPointStop offset="1" style="stop-color:#0053BD"/>
			</linearGradient>
			<path
				d="M35.143 104.469 C22.044 84.615 46.048 73.726 37.189 58.547 C20.613 30.141 65.75 39.896
					76.729 47.178 C76.707 46.232 76.346 45.345 75.519 44.516 C68.253 37.251
					16.069 26.815 33.568 56.8 C42.426 71.979 18.421 82.868 31.52 102.719 C34.187
					106.761 37.795 109.407 41.829 110.913 C39.267 109.369 36.98 107.253 35.143
					104.469 z"
				 style="fill:url(#XMLID_8_)"/>
			<path
				d="M71.563 79.391 C56.328 65.424 76.899 54.534 76.73 47.179 C65.751 39.896 20.613 30.142
					37.19 58.547 C46.049 73.726 22.044 84.615 35.144 104.469 C36.981 107.253
					39.268 109.369 41.831 110.914 C61.68 118.326 91.887 98.022 71.563 79.391 z"
				 style="opacity:0.3"/>
			<linearGradient id="XMLID_9_" gradientUnits="userSpaceOnUse" x1="26.313"
				y1="46.2002" x2="77.4404" y2="97.3276">
				<stop offset="0" style="stop-color:rgb(179,202,255)"/>
				<stop offset="1" style="stop-color:rgb(0,83,189)"/>
				<a:midPointStop offset="0" style="stop-color:#B3CAFF"/>
				<a:midPointStop offset="0.5" style="stop-color:#B3CAFF"/>
				<a:midPointStop offset="1" style="stop-color:#0053BD"/>
			</linearGradient>
			<path
				d="M71.563 79.391 C56.328 65.424 76.899 54.534 76.73 47.179 C65.751 39.896 20.613 30.142
					37.19 58.547 C46.049 73.726 22.044 84.615 35.144 104.469 C36.981 107.253
					39.268 109.369 41.831 110.914 C61.68 118.326 91.887 98.022 71.563 79.391 z"
				 style="fill:url(#XMLID_9_)"/>
			<linearGradient id="XMLID_10_" gradientUnits="userSpaceOnUse" x1="49.7935"
				y1="-19.958" x2="52.9278" y2="80.8645">
				<stop offset="0" style="stop-color:rgb(179,202,255)"/>
				<stop offset="0.7753" style="stop-color:rgb(0,66,154)"/>
				<a:midPointStop offset="0" style="stop-color:#B3CAFF"/>
				<a:midPointStop offset="0.5" style="stop-color:#B3CAFF"/>
				<a:midPointStop offset="0.7753" style="stop-color:#00429A"/>
			</linearGradient>
			<path
				d="M32.01 38.593 C28.754 41.104 26.216 46.397 32.613 57.358 C36.389 63.83 33.786 65.838
					30.77 73.288 C27.206 82.091 23.167 92.069 30.598 103.33 C35.699 111.059
					48.636 114.697 58.374 113.309 C68.24 111.904 76.8 105.527 79.193 97.802 C81.201
					91.313 78.758 84.482 72.311 78.574 C62.644 69.714 68.305 65.28 73.298
					57.465 C76.652 52.214 79.821 47.255 76.302 43.735 C71.231 38.664 41.424 31.335
					32.01 38.593 zM32.444 102.11 C25.655 91.821 29.298 82.821 32.821 74.117
					C35.921 66.459 38.849 63.653 34.525 56.242 C30.04 48.557 29.649 43.21 33.362
					40.346 C41.186 34.314 69.683 40.245 74.737 45.299 C76.89 47.452 74.883
					50.871 71.433 56.273 C66.514 63.971 59.778 70.087 70.815 80.205 C76.679 85.582
					78.844 91.44 77.077 97.147 C74.931 104.084 67.11 109.828 58.062 111.118
					C49.205 112.379 37.055 109.097 32.444 102.11 z"
				 style="fill:url(#XMLID_10_)"/>
			<path
				d="M101.345 62.486 L96.512 62.486 L80.025 46 C80.255 45.65 80.392 45.231 80.392 44.78
					C80.392 43.558 79.401 42.568 78.183 42.568 C77.73 42.568 77.312 42.705 76.959
					42.936 L60.019 25.993 L60.019 20.713 L59.577 20.713 L54.115 20.713 L54.115
					26.618 L59.395 26.618 L76.339 43.561 C76.107 43.911 75.969 44.329 75.969
					44.78 C75.969 46.003 76.96 46.993 78.184 46.993 C78.634 46.993 79.049 46.857
					79.402 46.626 L95.888 63.11 L95.888 68.392 L101.791 68.392 L101.791 62.486
					L101.35 62.486 zM59.133 25.732 C58.467 25.732 55.664 25.732 55 25.732
					C55 25.066 55 22.262 55 21.597 C55.664 21.597 58.468 21.597 59.133 21.597 C59.133
					22.263 59.133 25.066 59.133 25.732 zM100.903 67.505 C100.24 67.505 97.436
					67.505 96.772 67.505 C96.772 66.84 96.772 64.035 96.772 63.371 C97.436
					63.371 100.24 63.371 100.903 63.371 C100.903 64.035 100.903 66.84 100.903
					67.505 z"/>
			<path
				d="M42.796 33.45 L42.796 27.546 L42.352 27.546 L36.89 27.546 L36.89 32.825 L31.421 38.293
					C31.072 38.063 30.653 37.926 30.202 37.926 C28.979 37.926 27.99 38.916
					27.99 40.137 C27.99 40.587 28.125 41.006 28.357 41.357 L22.573 47.142 L17.294
					47.142 L17.294 53.048 L23.199 53.048 L23.199 47.769 L28.983 41.984 C29.334
					42.214 29.753 42.351 30.203 42.351 C31.426 42.351 32.417 41.361 32.417
					40.139 C32.417 39.688 32.28 39.27 32.049 38.92 L37.519 33.451 L42.798 33.451
					zM37.775 28.432 C38.44 28.432 41.244 28.432 41.91 28.432 C41.91 29.097 41.91
					31.899 41.91 32.565 C41.244 32.565 38.44 32.565 37.775 32.565 C37.775
					31.898 37.775 29.096 37.775 28.432 zM18.18 52.161 C18.18 51.496 18.18 48.691
					18.18 48.026 C18.822 48.026 21.441 48.026 22.22 48.026 L22.313 48.119 C22.313
					48.897 22.313 51.517 22.313 52.16 C21.647 52.16 18.844 52.16 18.178 52.16
					z"/>
		</g>
		<g>
			<path
				d="M10.414 14.828 L7.344 6.234 L9.224 6.234 L11.399 12.593 L13.503 6.234 L15.345 6.234
					L12.288 14.828 z"
				 style="fill:rgb(255,255,255)"/>
			<path
				d="M16.223 14.828 L16.223 6.234 L22.582 6.234 L22.582 7.687 L17.957 7.687 L17.957 9.593
					L22.254 9.593 L22.254 11.046 L17.957 11.046 L17.957 13.374 L22.754 13.374
					L22.754 14.827 L16.223 14.827 z"
				 style="fill:rgb(255,255,255)"/>
			<path
				d="M29.742 11.656 L31.43 12.172 C31.171 13.118 30.741 13.82 30.138 14.28 C29.535 14.739
					28.772 14.968 27.846 14.968 C26.7 14.968 25.758 14.578 25.021 13.798 C24.283
					13.019 23.915 11.952 23.915 10.599 C23.915 9.168 24.285 8.057 25.026
					7.265 C25.766 6.474 26.741 6.077 27.948 6.077 C29.002 6.077 29.859 6.388 30.517
					7.01 C30.909 7.377 31.203 7.906 31.399 8.593 L29.68 9 C29.577 8.556 29.364
					8.205 29.039 7.948 C28.714 7.691 28.32 7.562 27.855 7.562 C27.213 7.562
					26.693 7.791 26.294 8.248 C25.895 8.706 25.695 9.447 25.695 10.471 C25.695
					11.558 25.892 12.331 26.286 12.793 C26.68 13.254 27.192 13.484 27.822 13.484
					C28.287 13.484 28.686 13.338 29.021 13.043 C29.356 12.75 29.597 12.287
					29.742 11.656 z"
				 style="fill:rgb(255,255,255)"/>
			<path
				d="M34.83 14.828 L34.83 7.688 L32.299 7.688 L32.299 6.234 L39.096 6.234 L39.096 7.687
					L36.565 7.687 L36.565 14.828 z"
				 style="fill:rgb(255,255,255)"/>
			<path
				d="M39.646 10.584 C39.646 9.707 39.777 8.971 40.039 8.375 C40.234 7.937 40.5 7.543 40.838
					7.194 C41.175 6.845 41.546 6.588 41.948 6.419 C42.483 6.191 43.099 6.078
					43.799 6.078 C45.064 6.078 46.076 6.472 46.836 7.259 C47.596 8.046 47.975
					9.141 47.975 10.543 C47.975 11.934 47.598 13.022 46.845 13.807 C46.092 14.592
					45.084 14.985 43.823 14.985 C42.546 14.985 41.531 14.594 40.778 13.813
					C40.025 13.032 39.646 11.955 39.646 10.584 zM41.428 10.525 C41.428 11.502
					41.653 12.241 42.104 12.744 C42.554 13.248 43.126 13.5 43.82 13.5 C44.514
					13.5 45.082 13.25 45.527 12.75 C45.971 12.251 46.194 11.502 46.194 10.502 C46.194
					9.515 45.977 8.777 45.545 8.291 C45.112 7.806 44.537 7.562 43.82 7.562
					C43.103 7.562 42.525 7.808 42.087 8.3 C41.647 8.792 41.428 9.534 41.428
					10.525 z"
				 style="fill:rgb(255,255,255)"/>
			<path
				d="M49.34 14.828 L49.34 6.234 L52.986 6.234 C53.902 6.234 54.568 6.311 54.984 6.465
					C55.399 6.619 55.732 6.894 55.982 7.287 C56.232 7.682 56.357 8.132 56.357 8.64
					C56.357 9.284 56.169 9.816 55.792 10.235 C55.416 10.655 54.852 10.92 54.103
					11.029 C54.476 11.248 54.785 11.489 55.028 11.751 C55.271 12.014 55.599
					12.48 56.012 13.148 L57.06 14.828 L54.986 14.828 L53.741 12.955 C53.295 12.285
					52.99 11.863 52.825 11.689 C52.661 11.515 52.487 11.396 52.303 11.331
					C52.119 11.267 51.827 11.234 51.429 11.234 L51.076 11.234 L51.076 14.828 zM51.074
					9.859 L52.356 9.859 C53.187 9.859 53.706 9.824 53.913 9.754 C54.12
					9.685 54.281 9.564 54.398 9.393 C54.515 9.221 54.574 9.007 54.574 8.75 C54.574
					8.462 54.497 8.229 54.343 8.053 C54.189 7.875 53.971 7.764 53.691 7.717
					C53.55 7.697 53.129 7.688 52.427 7.688 L51.075 7.688 L51.075 9.859 z"
				 style="fill:rgb(255,255,255)"/>
		</g>
	</g>
</svg>
