<?xml version="1.0"?>
<!DOCTYPE svg PUBLIC "-//W3C//DTD SVG 1.0//EN"
	"http://www.w3.org/TR/2001/REC-SVG-20010904/DTD/svg10.dtd">
<svg xmlns:x="http://ns.adobe.com/Extensibility/1.0/"
	xmlns:i="http://ns.adobe.com/AdobeIllustrator/10.0/" xmlns:graph=""
	xmlns="http://www.w3.org/2000/svg" xmlns:xlink="http://www.w3.org/1999/xlink"
	xmlns:a="http://ns.adobe.com/AdobeSVGViewerExtensions/3.0/" width="116"
	height="127" viewBox="-0.358 -0.104 116 127" overflow="visible"
	enable-background="new -0.358 -0.104 116 127" xml:space="preserve">
	<g id="Layer_1_2_">
		<g>
			<path d="M114.828 0.5 L0.5 0.5 L0.5 126.396 L81.201 126.396 L114.828 92.769 z"
				 style="fill:rgb(255,255,255)"/>
			<linearGradient id="XMLID_1_" gradientUnits="userSpaceOnUse" x1="57.5845"
				y1="154.013" x2="57.5845" y2="-101.487">
				<stop offset="0" style="stop-color:rgb(255,255,255)"/>
				<stop offset="0.2457" style="stop-color:rgb(246,246,246)"/>
				<stop offset="0.6374" style="stop-color:rgb(223,223,223)"/>
				<stop offset="1" style="stop-color:rgb(196,196,196)"/>
				<a:midPointStop offset="0" style="stop-color:#FFFFFF"/>
				<a:midPointStop offset="0.6045" style="stop-color:#FFFFFF"/>
				<a:midPointStop offset="1" style="stop-color:#C4C4C4"/>
			</linearGradient>
			<path
				d="M111.398 3.467 L3.93 3.467 L3.77 126.121 L80.227 126.121 L111.399 94.869 L111.399
					3.467 z"
				 style="fill:url(#XMLID_1_)"/>
			<linearGradient id="XMLID_2_" gradientUnits="userSpaceOnUse" x1="-32.6685"
				y1="-26.8843" x2="49.8302" y2="55.6144">
				<stop offset="0" style="stop-color:rgb(178,178,178)"/>
				<stop offset="1" style="stop-color:rgb(130,130,130)"/>
				<a:midPointStop offset="0" style="stop-color:#B2B2B2"/>
				<a:midPointStop offset="0.5" style="stop-color:#B2B2B2"/>
				<a:midPointStop offset="1" style="stop-color:#828282"/>
			</linearGradient>
			<path
				d="M114.828 0 L0 0 L0 126.896 L81.408 126.896 L115.328 92.976 L115.328 0 zM114.328 1
					C114.328 1.987 114.328 92.152 114.328 92.563 C114.039 92.852 81.283 125.608
					80.994 125.897 C80.584 125.897 1.984 125.897 1 125.897 C1 124.908 1 1.988
					1 1 C1.986 1 113.342 1 114.328 1 z"
				 style="fill:url(#XMLID_2_)"/>
			<linearGradient id="XMLID_3_" gradientUnits="userSpaceOnUse" x1="36.6875"
				y1="24.8701" x2="197.672" y2="110.514">
				<stop offset="0" style="stop-color:rgb(255,255,255)"/>
				<stop offset="0.8603" style="stop-color:rgb(218,218,218)"/>
				<stop offset="1" style="stop-color:rgb(212,212,212)"/>
				<a:midPointStop offset="0" style="stop-color:#FFFFFF"/>
				<a:midPointStop offset="0.5254" style="stop-color:#FFFFFF"/>
				<a:midPointStop offset="1" style="stop-color:#D4D4D4"/>
			</linearGradient>
			<path
				d="M111.67 14.671 L111.67 3.388 L3.863 3.388 L3.767 68.728 C13.742 73.275 24.918 75.824
					36.721 75.824 C74.066 75.824 105.119 48.325 111.67 14.671 z"
				 style="fill:url(#XMLID_3_)"/>
		</g>
		<linearGradient id="XMLID_4_" gradientUnits="userSpaceOnUse" x1="-63.0259"
			y1="10.0996" x2="71.3125" y2="10.0996">
			<stop offset="0" style="stop-color:rgb(255,255,255)"/>
			<stop offset="0.0626" style="stop-color:rgb(230,249,255)"/>
			<stop offset="0.1386" style="stop-color:rgb(206,242,255)"/>
			<stop offset="0.1854" style="stop-color:rgb(197,240,255)"/>
			<stop offset="1" style="stop-color:rgb(29,116,217)"/>
		</linearGradient>
		<path
			d="M111.356 16.471 L3.972 16.471 L3.972 3.728 L111.357 3.728 L111.357 16.471 z"
			 style="fill-rule:evenodd;clip-rule:evenodd;fill:url(#XMLID_4_)"/>
		<g>
			<path
				d="M8.358 14.298 L8.358 5.705 L10.958 5.705 L12.506 11.567 L14.044 5.705 L16.655 5.705
					L16.655 14.299 L15.046 14.299 L15.038 7.534 L13.328 14.299 L11.662 14.299
					L9.975 7.534 L9.967 14.299 L8.358 14.299 z"
				 style="fill:rgb(255,255,255)"/>
			<path
				d="M18.01 10.054 C18.01 9.177 18.14 8.441 18.402 7.845 C18.597 7.407 18.864 7.013 19.202
					6.664 C19.54 6.315 19.91 6.057 20.312 5.889 C20.847 5.662 21.464 5.548
					22.163 5.548 C23.428 5.548 24.44 5.942 25.2 6.729 C25.959 7.516 26.339 8.611
					26.339 10.013 C26.339 11.404 25.962 12.492 25.209 13.277 C24.455 14.062
					23.448 14.455 22.187 14.455 C20.91 14.455 19.895 14.064 19.142 13.283 C18.387
					12.501 18.01 11.425 18.01 10.054 zM19.792 9.996 C19.792 10.972 20.017 11.712
					20.468 12.216 C20.919 12.719 21.49 12.971 22.184 12.971 C22.878 12.971
					23.446 12.721 23.891 12.222 C24.336 11.722 24.558 10.972 24.558 9.973 C24.558
					8.986 24.342 8.248 23.909 7.763 C23.476 7.277 22.901 7.034 22.184 7.034
					C21.467 7.034 20.889 7.28 20.45 7.771 C20.011 8.262 19.792 9.004 19.792 9.996
					z"
				 style="fill:rgb(255,255,255)"/>
			<path
				d="M29.899 14.298 L26.828 5.704 L28.708 5.704 L30.882 12.063 L32.986 5.704 L34.828 5.704
					L31.772 14.298 z"
				 style="fill:rgb(255,255,255)"/>
		</g>
		<g>
			<path
				d="M96.898 93.993 C96.898 93.993 90.44 87.536 90.103 87.196 C93.803 81.066 95.766 74.04
					95.766 66.848 C95.766 45.107 78.078 27.419 56.338 27.419 C34.597 27.419
					16.91 45.107 16.91 66.848 C16.91 88.588 34.598 106.276 56.338 106.276 C64.163
					106.276 71.712 103.983 78.192 99.657 C78.544 100.011 84.713 106.179 84.713
					106.179 C84.776 106.241 84.859 106.276 84.947 106.276 L96.663 106.276 C96.848
					106.276 96.995 106.127 96.995 105.944 L96.995 94.227 C96.996 94.139
					96.961 94.055 96.898 93.993 zM56.357 90.347 C43.378 90.347 32.857 79.826 32.857
					66.849 C32.857 53.87 43.378 43.349 56.357 43.349 C69.336 43.349 79.856
					53.87 79.856 66.849 C79.856 79.825 69.336 90.347 56.357 90.347 z"
				 style="opacity:0.15"/>
			<radialGradient id="XMLID_5_" cx="56.2598" cy="107.212" r="80.6135"
				fx="56.2598" fy="107.212" gradientUnits="userSpaceOnUse">
				<stop offset="0" style="stop-color:rgb(255,255,255)"/>
				<stop offset="0.0626" style="stop-color:rgb(230,249,255)"/>
				<stop offset="0.1386" style="stop-color:rgb(206,242,255)"/>
				<stop offset="0.1854" style="stop-color:rgb(197,240,255)"/>
				<stop offset="1" style="stop-color:rgb(29,116,217)"/>
			</radialGradient>
			<path
				d="M88.69 85.346 C92.219 79.587 94.258 72.813 94.258 65.566 C94.258 44.632 77.29 27.663
					56.357 27.663 C35.424 27.663 18.455 44.633 18.455 65.566 C18.455 86.498
					35.424 103.467 56.357 103.467 C64.224 103.467 71.534 101.07 77.589 96.963
					L84.092 103.467 L95.45 103.467 L95.45 92.107 zM56.357 89.064 C43.378 89.064
					32.857 78.543 32.857 65.565 C32.857 52.586 43.378 42.065 56.357 42.065 C69.336
					42.065 79.856 52.586 79.856 65.565 C79.856 78.543 69.336 89.064 56.357
					89.064 z"
				 style="fill-rule:evenodd;clip-rule:evenodd;fill:url(#XMLID_5_)"/>
			<linearGradient id="XMLID_6_" gradientUnits="userSpaceOnUse" x1="56.3569"
				y1="17.8584" x2="56.3569" y2="78.5111">
				<stop offset="0%" style="stop-color:rgb(255,255,255)"/>
				<stop offset="100%" style="stop-opacity:0;stop-color:rgb(255,255,255)"/>
			</linearGradient>
			<path a:adobe-blending-mode="screen"
				d="M30.29 65.565 C30.29 51.191 41.984 39.497 56.357 39.497 C70.731 39.497 82.423 51.191
					82.423 65.565 C82.423 69.326 81.616 72.899 80.177 76.132 C84.252 74.611
					88.01 72.703 91.351 70.46 C91.577 68.845 91.692 67.209 91.692 65.564 C91.692
					46.079 75.84 30.228 56.357 30.228 C36.874 30.228 21.022 46.081 21.022 65.565
					C21.022 66.619 21.077 67.659 21.169 68.691 C24.379 71.162 28.05 73.304
					32.083 75.046 C30.931 72.105 30.29 68.908 30.29 65.565 z"
				 style="fill:url(#XMLID_6_)"/>
			<path
				d="M77.59 93.542 C71.534 97.645 64.225 100.043 56.358 100.043 C36 100.043 19.395 83.99
					18.499 63.854 C18.474 64.421 18.456 64.991 18.456 65.566 C18.456 86.498
					35.425 103.467 56.358 103.467 C64.225 103.467 71.535 101.07 77.59 96.963 L84.093
					103.467 L95.45 103.467 L95.45 100.043 L84.093 100.043 z"
				 style="opacity:0.7;fill-rule:evenodd;clip-rule:evenodd;fill:rgb(255,255,255)"/>
			<radialGradient id="XMLID_7_" cx="63.4199" cy="125.048" r="63.5431"
				fx="63.4199" fy="125.048" gradientUnits="userSpaceOnUse">
				<stop offset="0" style="stop-color:rgb(139,187,255)"/>
				<stop offset="1" style="stop-color:rgb(13,86,172)"/>
				<a:midPointStop offset="0" style="stop-color:#8BBBFF"/>
				<a:midPointStop offset="0.5" style="stop-color:#8BBBFF"/>
				<a:midPointStop offset="1" style="stop-color:#0D56AC"/>
			</radialGradient>
			<path
				d="M18.134 65.565 C18.134 86.64 35.281 103.788 56.357 103.788 C63.943 103.788 71.261
					101.565 77.543 97.372 C77.884 97.713 83.865 103.693 83.865 103.693 C83.927
					103.755 84.008 103.788 84.093 103.788 L95.45 103.788 C95.63 103.788 95.772
					103.643 95.772 103.467 L95.772 92.107 C95.772 92.022 95.738 91.94 95.677 91.88
					C95.677 91.88 89.416 85.62 89.09 85.292 C92.677 79.35 94.579 72.537 94.579
					65.565 C94.579 44.488 77.433 27.341 56.356 27.341 C35.279 27.341 18.134
					44.488 18.134 65.565 zM18.775 65.565 C18.775 44.842 35.635 27.982 56.357
					27.982 C77.08 27.982 93.938 44.842 93.938 65.565 C93.938 72.503 92.029 79.286
					88.417 85.178 C88.386 85.229 88.369 85.288 88.369 85.345 C88.369 85.429
					88.4 85.51 88.463 85.572 C88.463 85.572 94.948 92.056 95.131 92.24 C95.131
					92.492 95.131 102.547 95.131 103.144 C94.531 103.144 84.478 103.144 84.227
					103.144 C84.043 102.964 77.818 96.736 77.818 96.736 C77.709 96.628 77.537 96.612
					77.412 96.699 C71.186 100.916 63.905 103.144 56.358 103.144 C35.635 103.145
					18.775 86.287 18.775 65.565 z"
				 style="fill:url(#XMLID_7_)"/>
			<radialGradient id="XMLID_8_" cx="63.4229" cy="125.044" r="63.537" fx="63.4229"
				fy="125.044" gradientUnits="userSpaceOnUse">
				<stop offset="0" style="stop-color:rgb(139,187,255)"/>
				<stop offset="1" style="stop-color:rgb(13,86,172)"/>
				<a:midPointStop offset="0" style="stop-color:#8BBBFF"/>
				<a:midPointStop offset="0.5" style="stop-color:#8BBBFF"/>
				<a:midPointStop offset="1" style="stop-color:#0D56AC"/>
			</radialGradient>
			<path
				d="M32.537 65.565 C32.537 78.699 43.223 89.384 56.358 89.384 C69.493 89.384 80.179 78.698
					80.179 65.565 C80.179 52.43 69.492 41.743 56.358 41.743 C43.224 41.743
					32.537 52.43 32.537 65.565 zM33.179 65.565 C33.179 52.783 43.576 42.385 56.358
					42.385 C69.138 42.385 79.538 52.782 79.538 65.565 C79.538 78.345 69.139
					88.743 56.358 88.743 C43.576 88.743 33.179 78.346 33.179 65.565 z"
				 style="fill:url(#XMLID_8_)"/>
			<path
				d="M82.149 46.075 C82.149 45.99 82.115 45.908 82.055 45.848 L77.288 41.082 C77.163 40.957
					76.959 40.957 76.835 41.082 C76.835 41.082 58.207 59.709 57.995 59.92
					C57.599 59.847 57.2 59.793 56.805 59.793 C53.201 59.793 50.268 62.727 50.267
					66.33 C50.267 69.934 53.201 72.867 56.805 72.867 C60.409 72.867 63.343 69.934
					63.343 66.329 C63.343 65.935 63.289 65.535 63.215 65.14 C63.426 64.928
					82.055 46.302 82.055 46.302 C82.115 46.241 82.149 46.16 82.149 46.075 zM56.806
					68.374 C55.68 68.374 54.764 67.456 54.764 66.33 C54.764 65.204 55.681
					64.287 56.806 64.287 C57.933 64.287 58.849 65.204 58.849 66.33 C58.849 67.456
					57.934 68.374 56.806 68.374 z"
				 style="opacity:0.15"/>
			<g>
				<linearGradient id="XMLID_9_" gradientUnits="userSpaceOnUse" x1="65.7783"
					y1="54.8726" x2="65.7783" y2="37.7925">
					<stop offset="0" style="stop-color:rgb(255,255,255)"/>
					<stop offset="1" style="stop-color:rgb(178,178,178)"/>
				</linearGradient>
				<path
					d="M81.396 45.244 L76.631 40.479 L70.426 46.683 L57.686 59.424 C57.263 59.333 56.825
						59.283 56.375 59.283 C52.942 59.283 50.16 62.066 50.159 65.501 C50.159 68.933
						52.942 71.716 56.375 71.716 C59.809 71.716 62.592 68.933 62.592 65.5
						C62.592 65.05 62.542 64.611 62.451 64.188 L75.192 51.449 zM56.376 67.864 C55.071
						67.864 54.012 66.804 54.012 65.501 C54.012 64.194 55.071 63.136 56.376
						63.136 C57.681 63.136 58.741 64.195 58.741 65.501 C58.741 66.806 57.683
						67.864 56.376 67.864 z"
					 style="fill:url(#XMLID_9_)"/>
				<linearGradient id="XMLID_10_" gradientUnits="userSpaceOnUse" x1="68.6133"
					y1="66.9893" x2="56.7406" y2="52.0681">
					<stop offset="0" style="stop-color:rgb(255,255,255)"/>
					<stop offset="0.0626" style="stop-color:rgb(230,249,255)"/>
					<stop offset="0.1386" style="stop-color:rgb(206,242,255)"/>
					<stop offset="0.1854" style="stop-color:rgb(197,240,255)"/>
					<stop offset="1" style="stop-color:rgb(29,116,217)"/>
				</linearGradient>
				<path
					d="M56.376 59.283 C52.943 59.283 50.161 62.066 50.16 65.501 C50.16 68.933 52.943 71.716
						56.376 71.716 C59.81 71.716 62.593 68.933 62.593 65.5 C62.593 65.05 62.543
						64.611 62.452 64.188 L75.193 51.449 L70.426 46.683 L57.686 59.424 C57.264
						59.333 56.826 59.284 56.376 59.283 zM58.741 65.501 C58.741 66.806 57.683
						67.864 56.376 67.864 C55.071 67.864 54.012 66.804 54.012 65.501 C54.012
						64.194 55.071 63.136 56.376 63.136 C57.681 63.136 58.741 64.194 58.741 65.501
						z"
					 style="fill-rule:evenodd;clip-rule:evenodd;fill:url(#XMLID_10_)"/>
				<path
					d="M81.396 45.244 L80.423 44.269 L74.215 50.474 L61.476 63.214 C61.565 63.638 61.616
						64.074 61.616 64.527 C61.616 67.96 58.833 70.743 55.4 70.743 C53.932 70.743
						52.586 70.23 51.523 69.38 C52.662 70.804 54.412 71.717 56.376 71.717 C59.81
						71.717 62.593 68.934 62.593 65.501 C62.593 65.051 62.543 64.612 62.452
						64.189 L75.193 51.45 z"
					 style="fill:rgb(255,255,255)"/>
				<radialGradient id="XMLID_11_" cx="55.4927" cy="68.7363" r="4.1628"
					fx="55.4927" fy="68.7363" gradientUnits="userSpaceOnUse">
					<stop offset="0" style="stop-color:rgb(139,187,255)"/>
					<stop offset="1" style="stop-color:rgb(13,86,172)"/>
				</radialGradient>
				<path
					d="M53.691 65.501 C53.691 66.98 54.895 68.185 56.376 68.185 C57.857 68.185 59.062 66.981
						59.062 65.501 C59.062 64.019 57.857 62.815 56.376 62.815 C54.895 62.815
						53.691 64.019 53.691 65.501 zM54.333 65.501 C54.333 64.374 55.25 63.458
						56.376 63.458 C57.503 63.458 58.419 64.375 58.419 65.501 C58.419 66.627 57.502
						67.542 56.376 67.542 C55.25 67.542 54.333 66.627 54.333 65.501 z"
					 style="fill:url(#XMLID_11_)"/>
				<radialGradient id="XMLID_12_" cx="60.5308" cy="75.3057" r="24.7116"
					fx="60.5308" fy="75.3057" gradientUnits="userSpaceOnUse">
					<stop offset="0" style="stop-color:rgb(139,187,255)"/>
					<stop offset="1" style="stop-color:rgb(13,86,172)"/>
				</radialGradient>
				<path
					d="M76.405 40.252 C76.405 40.252 57.778 58.878 57.565 59.09 C57.169 59.017 56.771 58.963
						56.376 58.962 C52.772 58.963 49.839 61.896 49.838 65.501 C49.838 69.105
						52.772 72.038 56.376 72.038 C59.981 72.038 62.914 69.104 62.914 65.5 C62.914
						65.104 62.858 64.704 62.786 64.309 C62.998 64.099 81.624 45.472 81.624
						45.472 C81.685 45.411 81.718 45.33 81.718 45.244 C81.718 45.159 81.685
						45.077 81.624 45.017 L76.858 40.251 C76.732 40.126 76.53 40.126 76.405 40.252
						zM57.913 59.651 C57.913 59.651 76.19 41.376 76.632 40.933 C77.023 41.324
						80.554 44.853 80.945 45.244 C80.502 45.688 62.225 63.962 62.225 63.962
						C62.164 64.023 62.131 64.107 62.131 64.189 C62.131 64.212 62.134 64.235 62.137
						64.258 C62.227 64.67 62.272 65.088 62.272 65.5 C62.272 68.752 59.628
						71.395 56.376 71.395 C53.126 71.395 50.48 68.752 50.48 65.501 C50.48 62.25
						53.126 59.605 56.376 59.604 C56.788 59.604 57.206 59.65 57.619 59.738 C57.726
						59.761 57.835 59.729 57.913 59.651 z"
					 style="fill:url(#XMLID_12_)"/>
				<linearGradient id="XMLID_13_" gradientUnits="userSpaceOnUse" x1="42.4497"
					y1="-155.068" x2="42.4497" y2="-109.688"
					gradientTransform="matrix(0.5775 0.5775 -0.5573 0.5573 -27.5701 100.087)">
					<stop offset="3.44828%" style="stop-color:rgb(255,255,255)"/>
					<stop offset="100%" style="stop-opacity:0;stop-color:rgb(255,255,255)"/>
				</linearGradient>
				<path a:adobe-blending-mode="screen"
					d="M79.29 44.425 L77.122 42.258 L57.982 61.397 L60.149 63.566 z"
					 style="fill:url(#XMLID_13_)"/>
			</g>
			<linearGradient id="XMLID_14_" gradientUnits="userSpaceOnUse" x1="95.0117"
				y1="86.3232" x2="87.7912" y2="92.8213">
				<stop offset="3.44828%" style="stop-color:rgb(255,255,255)"/>
				<stop offset="100%" style="stop-opacity:0;stop-color:rgb(255,255,255)"/>
			</linearGradient>
			<path a:adobe-blending-mode="screen"
				d="M93.288 91.938 L93.228 98.233 L82.547 87.552 L85.723 84.374 z"
				 style="fill:url(#XMLID_14_)"/>
		</g>
		<g>
			<radialGradient id="XMLID_15_" cx="102.131" cy="117.697" r="34.7364"
				fx="102.131" fy="117.697" gradientUnits="userSpaceOnUse">
				<stop offset="0" style="stop-color:rgb(0,0,0)"/>
				<stop offset="1" style="stop-color:rgb(0,0,0)"/>
				<a:midPointStop offset="0" style="stop-color:#000000"/>
				<a:midPointStop offset="0.5" style="stop-color:#000000"/>
				<a:midPointStop offset="1" style="stop-color:#000000"/>
			</radialGradient>
			<path
				d="M78.855 90.424 L78.855 126.178 L80.648 126.178 L114.287 92.539 L114.287 90.424 z"
				
				 style="opacity:0.1;fill:url(#XMLID_15_)"/>
			<path d="M81.201 126.396 L114.828 92.769 L81.201 92.769 z"
				 style="fill:rgb(255,255,255)"/>
			<linearGradient id="XMLID_16_" gradientUnits="userSpaceOnUse" x1="97.6807"
				y1="97.6289" x2="88.7524" y2="135.242">
				<stop offset="0" style="stop-color:rgb(255,255,255)"/>
				<stop offset="1" style="stop-color:rgb(204,204,204)"/>
				<a:midPointStop offset="0" style="stop-color:#FFFFFF"/>
				<a:midPointStop offset="0.5" style="stop-color:#FFFFFF"/>
				<a:midPointStop offset="1" style="stop-color:#CCCCCC"/>
			</linearGradient>
			<path d="M83.529 124.504 L113.123 94.912 L83.529 94.912 z"
				 style="fill:url(#XMLID_16_)"/>
			<linearGradient id="XMLID_17_" gradientUnits="userSpaceOnUse" x1="75.9727"
				y1="87.541" x2="89.7684" y2="101.337">
				<stop offset="0" style="stop-color:rgb(178,178,178)"/>
				<stop offset="1" style="stop-color:rgb(130,130,130)"/>
				<a:midPointStop offset="0" style="stop-color:#B2B2B2"/>
				<a:midPointStop offset="0.5" style="stop-color:#B2B2B2"/>
				<a:midPointStop offset="1" style="stop-color:#828282"/>
			</linearGradient>
			<path
				d="M81.201 92.27 C80.924 92.27 80.701 92.493 80.701 92.77 L80.701 126.397 C80.701 126.6
					80.822 126.782 81.01 126.86 C81.196 126.936 81.412 126.893 81.555 126.751
					L115.182 93.124 C115.325 92.979 115.368 92.765 115.291 92.579 C115.213 92.391
					115.031 92.27 114.828 92.27 zM113.621 93.27 C112.041 94.848 83.279 123.61
					81.701 125.19 C81.701 122.981 81.701 94.204 81.701 93.27 C82.635 93.27
					111.412 93.27 113.621 93.27 z"
				 style="fill:url(#XMLID_17_)"/>
		</g>
	</g>
</svg>
