<?xml version="1.0"?>
<!DOCTYPE svg PUBLIC "-//W3C//DTD SVG 1.0//EN"
	"http://www.w3.org/TR/2001/REC-SVG-20010904/DTD/svg10.dtd">
<svg xmlns:x="http://ns.adobe.com/Extensibility/1.0/"
	xmlns:i="http://ns.adobe.com/AdobeIllustrator/10.0/" xmlns:graph=""
	xmlns="http://www.w3.org/2000/svg" xmlns:xlink="http://www.w3.org/1999/xlink"
	xmlns:a="http://ns.adobe.com/AdobeSVGViewerExtensions/3.0/" width="116"
	height="127" viewBox="-0.358 -0.104 116 127" overflow="visible"
	enable-background="new -0.358 -0.104 116 127" xml:space="preserve">
	<g id="Layer_1_2_">
		<g>
			<path d="M114.828 0.5 L0.5 0.5 L0.5 126.396 L81.201 126.396 L114.828 92.769 z"
				 style="fill:rgb(255,255,255)"/>
			<linearGradient id="XMLID_1_" gradientUnits="userSpaceOnUse" x1="57.5845"
				y1="154.013" x2="57.5845" y2="-101.487">
				<stop offset="0" style="stop-color:rgb(255,255,255)"/>
				<stop offset="0.2457" style="stop-color:rgb(246,246,246)"/>
				<stop offset="0.6374" style="stop-color:rgb(223,223,223)"/>
				<stop offset="1" style="stop-color:rgb(196,196,196)"/>
			</linearGradient>
			<path
				d="M111.398 3.467 L3.93 3.467 L3.77 126.121 L80.227 126.121 L111.399 94.869 L111.399
					3.467 z"
				 style="fill:url(#XMLID_1_)"/>
			<linearGradient id="XMLID_2_" gradientUnits="userSpaceOnUse" x1="-32.6685"
				y1="-26.8843" x2="49.8302" y2="55.6144">
				<stop offset="0" style="stop-color:rgb(178,178,178)"/>
				<stop offset="1" style="stop-color:rgb(130,130,130)"/>
			</linearGradient>
			<path
				d="M114.828 0 L0 0 L0 126.896 L81.408 126.896 L115.328 92.976 L115.328 0 zM114.328 1
					C114.328 1.987 114.328 92.152 114.328 92.563 C114.039 92.852 81.283 125.608
					80.994 125.897 C80.584 125.897 1.984 125.897 1 125.897 C1 124.908 1 1.988
					1 1 C1.986 1 113.342 1 114.328 1 z"
				 style="fill:url(#XMLID_2_)"/>
			<linearGradient id="XMLID_3_" gradientUnits="userSpaceOnUse" x1="36.6875"
				y1="24.8701" x2="197.672" y2="110.514">
				<stop offset="0" style="stop-color:rgb(255,255,255)"/>
				<stop offset="0.8603" style="stop-color:rgb(218,218,218)"/>
				<stop offset="1" style="stop-color:rgb(212,212,212)"/>
			</linearGradient>
			<path
				d="M111.67 14.671 L111.67 3.388 L3.863 3.388 L3.767 68.728 C13.742 73.275 24.918 75.824
					36.721 75.824 C74.066 75.824 105.119 48.325 111.67 14.671 z"
				 style="fill:url(#XMLID_3_)"/>
		</g>
		<linearGradient id="XMLID_4_" gradientUnits="userSpaceOnUse" x1="-10.0635"
			y1="10.0996" x2="121.257" y2="10.0996">
			<stop offset="0" style="stop-color:rgb(179,202,255)"/>
			<stop offset="1" style="stop-color:rgb(0,83,189)"/>
		</linearGradient>
		<path
			d="M111.356 16.471 L3.972 16.471 L3.972 3.728 L111.357 3.728 L111.357 16.471 z"
			 style="fill:url(#XMLID_4_)"/>
		<g>
			<path
				d="M6.397 13.969 L6.397 5.375 L8.997 5.375 L10.545 11.237 L12.083 5.375 L14.694 5.375
					L14.694 13.969 L13.085 13.969 L13.077 7.204 L11.367 13.969 L9.7 13.969 L8.014
					7.204 L8.006 13.969 z"
				 style="fill:rgb(255,255,255)"/>
			<path
				d="M24.159 13.969 L22.292 13.969 L21.546 12.016 L18.099 12.016 L17.394 13.969 L15.534
					13.969 L18.839 5.375 L20.696 5.375 zM20.975 10.563 L19.776 7.375 L18.624
					10.563 z"
				 style="fill:rgb(255,255,255)"/>
			<path
				d="M25.075 13.969 L25.075 5.375 L26.761 5.375 L30.294 11.131 L30.294 5.375 L31.903 5.375
					L31.903 13.969 L30.164 13.969 L26.684 8.329 L26.684 13.969 z"
				 style="fill:rgb(255,255,255)"/>
		</g>
		<g>
			<radialGradient id="XMLID_5_" cx="54.9287" cy="105.516" r="97.3444"
				fx="54.9287" fy="105.516" gradientUnits="userSpaceOnUse">
				<stop offset="0" style="stop-color:rgb(45,88,164)"/>
				<stop offset="1" style="stop-color:rgb(13,45,96)"/>
				<a:midPointStop offset="0" style="stop-color:#2D58A4"/>
				<a:midPointStop offset="0.5" style="stop-color:#2D58A4"/>
				<a:midPointStop offset="1" style="stop-color:#0D2D60"/>
			</radialGradient>
			<path
				d="M31.743 32.514 C24.643 31.488 23.722 33.164 22.828 38.179 L13.548 90.08 C12.229 97.456
					14.939 97.657 21.95 98.164 L50.484 100.232 C52.75 99.269 54.67 99.357
					56.245 100.495 L84.595 103.523 C92.46 104.369 92.879 105.262 92.973 97.242
					L93.587 44.578 C93.648 39.413 93.488 40.132 88.528 39.52 z"
				 style="fill:url(#XMLID_5_)"/>
			<radialGradient id="XMLID_6_" cx="-236.068" cy="555.703" r="84.6787"
				fx="-236.068" fy="555.703"
				gradientTransform="matrix(1.0275 0 0 1.0275 295.8 -446.882)"
				gradientUnits="userSpaceOnUse">
				<stop offset="0" style="stop-color:rgb(222,225,255)"/>
				<stop offset="0.6292" style="stop-color:rgb(43,114,194)"/>
				<stop offset="1" style="stop-color:rgb(35,83,164)"/>
				<a:midPointStop offset="0" style="stop-color:#DEE1FF"/>
				<a:midPointStop offset="0.5" style="stop-color:#DEE1FF"/>
				<a:midPointStop offset="0.6292" style="stop-color:#2B72C2"/>
				<a:midPointStop offset="0.5" style="stop-color:#2B72C2"/>
				<a:midPointStop offset="1" style="stop-color:#2353A4"/>
			</radialGradient>
			<path
				d="M31.076 33.499 C24.418 32.363 24.526 33.523 23.673 38.409 L14.697 89.701 C13.402
					97.09 14.121 96.371 21.133 96.879 L49.666 98.945 C51.933 97.984 53.85 98.072
					55.424 99.209 L83.321 102.242 C91.186 103.096 91.534 103.975 91.698 95.955
					L92.765 43.598 C92.872 38.433 92.688 38.982 87.709 38.537 z"
				 style="fill:url(#XMLID_6_)"/>
			<g>
				<path
					d="M29.191 32.821 C28.67 33.66 27.032 35.04 26.343 35.076 L16.133 94.238 L52.104 97.146
						L52.104 97.149 L89.306 100.284 L91.05 40.681 C91.089 39.309 88.61 40.382
						87.134 38.494 C78.32 36.428 64.873 31.809 58.325 35.553 C53.528 30.892
						35.303 31.839 29.191 32.821 z"
					 style="fill-rule:evenodd;clip-rule:evenodd;fill:rgb(76,76,76)"/>
				<g>
					<linearGradient id="XMLID_7_" gradientUnits="userSpaceOnUse" x1="-225.711"
						y1="521.592" x2="-271.751" y2="475.552"
						gradientTransform="matrix(1.1149 0 0 1.005 315.223 -435.707)">
						<stop offset="0.32" style="stop-color:rgb(102,102,102)"/>
						<stop offset="0.68" style="stop-color:rgb(255,255,255)"/>
					</linearGradient>
					<path
						d="M27.343 35.893 C23.675 55.207 21.188 73.928 17.517 93.241 L53.49 96.149 C55.459 76.917
							57.426 57.684 59.397 38.452 C55.348 34.96 43.44 35.07 30.185 35.739
							C29.976 35.75 29.748 33.413 29.653 33.577 C29.175 34.407 28.083 35.852 27.343
							35.893 z"
						 style="fill-rule:evenodd;clip-rule:evenodd;fill:url(#XMLID_7_)"/>
					<linearGradient id="XMLID_8_" gradientUnits="userSpaceOnUse" x1="-225.079"
						y1="533.974" x2="-208.214" y2="471.032"
						gradientTransform="matrix(1.1149 0 0 1.005 315.223 -435.706)">
						<stop offset="0.25" style="stop-color:rgb(102,102,102)"/>
						<stop offset="0.75" style="stop-color:rgb(255,255,255)"/>
					</linearGradient>
					<path
						d="M90.239 40.85 L88.233 99.285 L53.49 96.152 C55.459 76.921 57.426 57.684 59.397 38.452
							C63.305 35.723 75.26 36.628 86.417 39.269 C87.91 41.207 88.9 40.496
							90.239 40.85 z"
						 style="fill-rule:evenodd;clip-rule:evenodd;fill:url(#XMLID_8_)"/>
					<g>
						<linearGradient id="XMLID_9_" gradientUnits="userSpaceOnUse" x1="-227.769"
							y1="499.642" x2="-271.364" y2="494.289"
							gradientTransform="matrix(1.0275 0 0 1.0275 295.267 -446.869)">
							<stop offset="0.27" style="stop-color:rgb(229,229,229)"/>
							<stop offset="0.385" style="stop-color:rgb(186,186,186)"/>
							<stop offset="0.73" style="stop-color:rgb(255,255,255)"/>
						</linearGradient>
						<path
							d="M29.581 33.534 C26.198 53.279 22.816 73.025 19.436 92.77 C30.661 92.876 42.061 92.108
								52.587 95.744 C54.4 76.081 56.215 56.42 58.029 36.757 C54.033 32.931
								42.819 32.728 29.581 33.534 z"
							 style="fill-rule:evenodd;clip-rule:evenodd;fill:url(#XMLID_9_)"/>
						<linearGradient id="XMLID_10_" gradientUnits="userSpaceOnUse" x1="-249.668"
							y1="459.572" x2="-249.668" y2="518.168"
							gradientTransform="matrix(1.0275 0 0 1.0275 295.267 -446.869)">
							<stop offset="0%" style="stop-opacity:0;stop-color:rgb(255,255,255)"/>
							<stop offset="100%" style="stop-color:rgb(255,255,255)"/>
						</linearGradient>
						<path a:adobe-blending-mode="screen"
							d="M30.442 36.456 C27.378 54.343 24.314 72.23 21.253 90.117 C31.421 90.215 41.748 89.518
								51.284 92.811 C52.926 74.998 54.571 57.188 56.214 39.376 C52.593 35.909
								42.434 35.726 30.442 36.456 z"
							 style="fill:url(#XMLID_10_)"/>
						<linearGradient id="XMLID_11_" gradientUnits="userSpaceOnUse" x1="-199.694"
							y1="502.777" x2="-239.6" y2="497.169"
							gradientTransform="matrix(1.0275 0 0 1.0275 295.267 -446.868)">
							<stop offset="0.21" style="stop-color:rgb(178,178,178)"/>
							<stop offset="0.79" style="stop-color:rgb(255,255,255)"/>
						</linearGradient>
						<path
							d="M86.453 39.207 L84.605 98.952 C74.671 96.466 56.69 93.278 52.587 95.747 C54.4 76.085
								56.215 56.421 58.029 36.758 C62.078 33.627 75.177 35.896 86.453 39.207
								z"
							 style="fill-rule:evenodd;clip-rule:evenodd;fill:url(#XMLID_11_)"/>
						<linearGradient id="XMLID_12_" gradientUnits="userSpaceOnUse" x1="-219.705"
							y1="463.644" x2="-219.705" y2="519.837"
							gradientTransform="matrix(1.0275 0 0 1.0275 295.267 -446.868)">
							<stop offset="0%" style="stop-color:rgb(255,255,255)"/>
							<stop offset="99%" style="stop-opacity:0;stop-color:rgb(255,255,255)"/>
						</linearGradient>
						<path a:adobe-blending-mode="screen"
							d="M83.939 43.356 L82.365 94.228 C73.906 92.112 58.596 89.397 55.102 91.499 C56.646
								74.757 58.192 58.013 59.736 41.27 C63.184 38.605 74.337 40.537 83.939 43.356
								z"
							 style="fill:url(#XMLID_12_)"/>
					</g>
				</g>
				<path d="M57.956 36.124 L52.17 96.286 L52.787 96.43 L58.503 36.299 z"
					 style="fill-rule:evenodd;clip-rule:evenodd;fill:rgb(127,127,127)"/>
			</g>
		</g>
		<g>
			<radialGradient id="XMLID_13_" cx="102.131" cy="117.697" r="34.7364"
				fx="102.131" fy="117.697" gradientUnits="userSpaceOnUse">
				<stop offset="0" style="stop-color:rgb(0,0,0)"/>
				<stop offset="1" style="stop-color:rgb(0,0,0)"/>
				<a:midPointStop offset="0" style="stop-color:#000000"/>
				<a:midPointStop offset="0.5" style="stop-color:#000000"/>
				<a:midPointStop offset="1" style="stop-color:#000000"/>
			</radialGradient>
			<path
				d="M78.855 90.424 L78.855 126.178 L80.648 126.178 L114.287 92.539 L114.287 90.424 z"
				
				 style="opacity:0.1;fill:url(#XMLID_13_)"/>
			<path d="M81.201 126.396 L114.828 92.769 L81.201 92.769 z"
				 style="fill:rgb(255,255,255)"/>
			<linearGradient id="XMLID_14_" gradientUnits="userSpaceOnUse" x1="97.6807"
				y1="97.6289" x2="88.7524" y2="135.242">
				<stop offset="0" style="stop-color:rgb(255,255,255)"/>
				<stop offset="1" style="stop-color:rgb(204,204,204)"/>
				<a:midPointStop offset="0" style="stop-color:#FFFFFF"/>
				<a:midPointStop offset="0.5" style="stop-color:#FFFFFF"/>
				<a:midPointStop offset="1" style="stop-color:#CCCCCC"/>
			</linearGradient>
			<path d="M83.529 124.504 L113.123 94.912 L83.529 94.912 z"
				 style="fill:url(#XMLID_14_)"/>
			<linearGradient id="XMLID_15_" gradientUnits="userSpaceOnUse" x1="75.9727"
				y1="87.541" x2="89.7684" y2="101.337">
				<stop offset="0" style="stop-color:rgb(178,178,178)"/>
				<stop offset="1" style="stop-color:rgb(130,130,130)"/>
				<a:midPointStop offset="0" style="stop-color:#B2B2B2"/>
				<a:midPointStop offset="0.5" style="stop-color:#B2B2B2"/>
				<a:midPointStop offset="1" style="stop-color:#828282"/>
			</linearGradient>
			<path
				d="M81.201 92.27 C80.924 92.27 80.701 92.493 80.701 92.77 L80.701 126.397 C80.701 126.6
					80.822 126.782 81.01 126.86 C81.196 126.936 81.412 126.893 81.555 126.751
					L115.182 93.124 C115.325 92.979 115.368 92.765 115.291 92.579 C115.213 92.391
					115.031 92.27 114.828 92.27 zM113.621 93.27 C112.041 94.848 83.279 123.61
					81.701 125.19 C81.701 122.981 81.701 94.204 81.701 93.27 C82.635 93.27
					111.412 93.27 113.621 93.27 z"
				 style="fill:url(#XMLID_15_)"/>
		</g>
		<path
			d="M60.992 34.508 C60.111 51.264 60.879 67.477 62.669 84.164 C63.239 83.644 63.812 83.125
				64.382 82.611 C65.006 82.815 65.627 83.023 66.251 83.232 C65.328 66.73
				64.907 50.23 65.161 33.728 C63.967 33.988 61.057 33.289 60.992 34.508 z"
			 style="opacity:0.4;fill-rule:evenodd;clip-rule:evenodd;fill:rgb(102,51,0)"/>
		<linearGradient id="XMLID_16_" gradientUnits="userSpaceOnUse" x1="-236.144"
			y1="517.498" x2="-236.144" y2="466.277"
			gradientTransform="matrix(1 0 0 1 298.97 -432.865)">
			<stop offset="0" style="stop-color:rgb(255,0,0)"/>
			<stop offset="0.35" style="stop-color:rgb(255,199,199)"/>
			<stop offset="0.6" style="stop-color:rgb(255,128,128)"/>
			<stop offset="0.76" style="stop-color:rgb(255,173,173)"/>
			<stop offset="1" style="stop-color:rgb(255,255,255)"/>
			<a:midPointStop offset="0" style="stop-color:#FF0000"/>
			<a:midPointStop offset="0.5" style="stop-color:#FF0000"/>
			<a:midPointStop offset="0.35" style="stop-color:#FFC7C7"/>
			<a:midPointStop offset="0.5" style="stop-color:#FFC7C7"/>
			<a:midPointStop offset="0.6" style="stop-color:#FF8080"/>
			<a:midPointStop offset="0.5" style="stop-color:#FF8080"/>
			<a:midPointStop offset="0.76" style="stop-color:#FFADAD"/>
			<a:midPointStop offset="0.5" style="stop-color:#FFADAD"/>
			<a:midPointStop offset="1" style="stop-color:#FFFFFF"/>
		</linearGradient>
		<path
			d="M60.489 34.347 C59.756 34.92 61.918 40.363 61.892 45.404 C61.864 50.448 60.384 57.686
				60.333 64.24 C60.282 70.796 61.163 77.836 61.578 84.633 C62.148 84.113
				62.722 83.594 63.292 83.077 C63.915 83.283 64.536 83.489 65.16 83.698 C64.64
				77.367 63.576 71.111 63.601 64.709 C63.626 58.304 65.236 50.513 65.315 45.404
				C65.394 40.295 65.171 34.316 64.46 33.413 C63.753 32.509 61.224 33.774 60.489
				34.347 z"
			 style="fill-rule:evenodd;clip-rule:evenodd;fill:url(#XMLID_16_);stroke:rgb(153,0,0);stroke-width:0.216;
			stroke-miterlimit:2.4142"/>
	</g>
</svg>
