<?xml version="1.0" encoding="iso-8859-1"?>
<!-- Generator: Adobe Illustrator 10.0.3, SVG Export Plug-In . SVG Version: 3.0.0 Build 77)  -->
<!DOCTYPE svg PUBLIC "-//W3C//DTD SVG 1.0//EN"    "http://www.w3.org/TR/2001/REC-SVG-20010904/DTD/svg10.dtd" [
	<!ENTITY ns_flows "http://ns.adobe.com/Flows/1.0/">
	<!ENTITY ns_svg "http://www.w3.org/2000/svg">
	<!ENTITY ns_xlink "http://www.w3.org/1999/xlink">
]>
<svg  xmlns="&ns_svg;" xmlns:xlink="&ns_xlink;" xmlns:a="http://ns.adobe.com/AdobeSVGViewerExtensions/3.0/"
	 width="128" height="128" viewBox="0 0 128 128" overflow="visible" enable-background="new 0 0 128 128" xml:space="preserve">
	<g id="Layer_1">
		<g>
			<g>
				<path fill="#FFFFFF" d="M121.164,1.052H6.836v125.896h80.701l33.627-33.627V1.052z"/>
				<linearGradient id="XMLID_1_" gradientUnits="userSpaceOnUse" x1="63.9204" y1="154.5645" x2="63.9204" y2="-100.9357">
					<stop  offset="0" style="stop-color:#FFFFFF"/>
					<stop  offset="0.2458" style="stop-color:#F6F6F6"/>
					<stop  offset="0.6375" style="stop-color:#DFDFDF"/>
					<stop  offset="1" style="stop-color:#C4C4C4"/>
					<a:midPointStop  offset="0" style="stop-color:#FFFFFF"/>
					<a:midPointStop  offset="0.6045" style="stop-color:#FFFFFF"/>
					<a:midPointStop  offset="1" style="stop-color:#C4C4C4"/>
				</linearGradient>
				<path fill="url(#XMLID_1_)" d="M117.734,4.019H10.266l-0.16,122.654h76.457l31.172-31.252V4.019z"/>
				<linearGradient id="XMLID_2_" gradientUnits="userSpaceOnUse" x1="-26.333" y1="-26.333" x2="56.1662" y2="56.1662">
					<stop  offset="0" style="stop-color:#B3B3B3"/>
					<stop  offset="1" style="stop-color:#828282"/>
					<a:midPointStop  offset="0" style="stop-color:#B3B3B3"/>
					<a:midPointStop  offset="0.5" style="stop-color:#B3B3B3"/>
					<a:midPointStop  offset="1" style="stop-color:#828282"/>
				</linearGradient>
				<path fill="url(#XMLID_2_)" d="M121.164,0.552H6.336v126.896h81.408l33.92-33.92V0.552H121.164 M120.664,1.552
					c0,0.986,0,91.152,0,91.562c-0.289,0.289-33.045,33.045-33.334,33.334c-0.41,0-79.01,0-79.994,0c0-0.988,0-123.908,0-124.896
					C8.322,1.552,119.678,1.552,120.664,1.552z"/>
				<linearGradient id="XMLID_3_" gradientUnits="userSpaceOnUse" x1="43.0229" y1="25.4214" x2="204.0072" y2="111.0654">
					<stop  offset="0" style="stop-color:#FFFFFF"/>
					<stop  offset="0.8604" style="stop-color:#DADADA"/>
					<stop  offset="1" style="stop-color:#D4D4D4"/>
					<a:midPointStop  offset="0" style="stop-color:#FFFFFF"/>
					<a:midPointStop  offset="0.5254" style="stop-color:#FFFFFF"/>
					<a:midPointStop  offset="1" style="stop-color:#D4D4D4"/>
				</linearGradient>
				<path fill="url(#XMLID_3_)" d="M118.006,15.223V3.94H10.199l-0.096,65.34c9.975,4.547,21.151,7.096,32.954,7.096
					C80.402,76.376,111.455,48.876,118.006,15.223z"/>
				<linearGradient id="XMLID_4_" gradientUnits="userSpaceOnUse" x1="-56.6899" y1="10.6509" x2="77.6484" y2="10.6509">
					<stop  offset="0" style="stop-color:#FFFFFF"/>
					<stop  offset="0.0594" style="stop-color:#FFF9E8"/>
					<stop  offset="0.1374" style="stop-color:#FFF2D0"/>
					<stop  offset="0.1854" style="stop-color:#FFF0C7"/>
					<stop  offset="1" style="stop-color:#FF2B00"/>
					<a:midPointStop  offset="0" style="stop-color:#FFFFFF"/>
					<a:midPointStop  offset="0.4" style="stop-color:#FFFFFF"/>
					<a:midPointStop  offset="0.1854" style="stop-color:#FFF0C7"/>
					<a:midPointStop  offset="0.5" style="stop-color:#FFF0C7"/>
					<a:midPointStop  offset="1" style="stop-color:#FF2B00"/>
				</linearGradient>
				<path fill-rule="evenodd" clip-rule="evenodd" fill="url(#XMLID_4_)" d="M117.692,17.022H10.308V4.279h107.385V17.022z"/>
				
					<radialGradient id="XMLID_5_" cx="108.4668" cy="118.249" r="34.7364" fx="108.4668" fy="118.249" gradientUnits="userSpaceOnUse">
					<stop  offset="0" style="stop-color:#FFFFFF"/>
					<stop  offset="1" style="stop-color:#000000"/>
					<a:midPointStop  offset="0" style="stop-color:#FFFFFF"/>
					<a:midPointStop  offset="0.5" style="stop-color:#FFFFFF"/>
					<a:midPointStop  offset="1" style="stop-color:#000000"/>
				</radialGradient>
				<path opacity="0.1" fill="url(#XMLID_5_)" d="M85.191,90.976v35.754h1.793l33.639-33.639v-2.115H85.191z"/>
				<path fill="#FFFFFF" d="M87.537,126.948l33.627-33.627H87.537V126.948z"/>
				<linearGradient id="XMLID_6_" gradientUnits="userSpaceOnUse" x1="104.0176" y1="98.1816" x2="95.089" y2="135.7953">
					<stop  offset="0" style="stop-color:#FFFFFF"/>
					<stop  offset="1" style="stop-color:#CCCCCC"/>
					<a:midPointStop  offset="0" style="stop-color:#FFFFFF"/>
					<a:midPointStop  offset="0.5" style="stop-color:#FFFFFF"/>
					<a:midPointStop  offset="1" style="stop-color:#CCCCCC"/>
				</linearGradient>
				<path fill="url(#XMLID_6_)" d="M89.865,125.056l29.594-29.592H89.865V125.056z"/>
				<linearGradient id="XMLID_7_" gradientUnits="userSpaceOnUse" x1="82.3086" y1="88.0928" x2="96.1043" y2="101.8885">
					<stop  offset="0" style="stop-color:#B3B3B3"/>
					<stop  offset="1" style="stop-color:#828282"/>
					<a:midPointStop  offset="0" style="stop-color:#B3B3B3"/>
					<a:midPointStop  offset="0.5" style="stop-color:#B3B3B3"/>
					<a:midPointStop  offset="1" style="stop-color:#828282"/>
				</linearGradient>
				<path fill="url(#XMLID_7_)" d="M87.537,92.821c-0.277,0-0.5,0.223-0.5,0.5v33.627c0,0.203,0.121,0.385,0.309,0.463
					c0.186,0.076,0.402,0.033,0.545-0.109l33.627-33.627c0.143-0.145,0.186-0.359,0.109-0.545c-0.078-0.188-0.26-0.309-0.463-0.309
					H87.537 M119.957,93.821c-1.58,1.578-30.342,30.34-31.92,31.92c0-2.209,0-30.986,0-31.92
					C88.971,93.821,117.748,93.821,119.957,93.821z"/>
			</g>
			<g>
				<path fill="#CCCCCC" d="M13.503,80.675v-6.289h6.289v6.289H13.503z"/>
				<path fill="#CCCCCC" d="M47.484,68.517l6.468,1.977c-0.992,3.627-2.643,6.32-4.952,8.081c-2.31,1.76-5.237,2.64-8.786,2.64
					c-4.393,0-8.003-1.494-10.829-4.485c-2.829-2.988-4.242-7.075-4.242-12.262c0-5.483,1.419-9.744,4.26-12.779
					c2.837-3.034,6.573-4.552,11.2-4.552c4.041,0,7.323,1.19,9.848,3.575c1.501,1.407,2.628,3.431,3.38,6.068l-6.588,1.557
					c-0.393-1.703-1.211-3.047-2.455-4.031c-1.245-0.984-2.755-1.479-4.537-1.479c-2.459,0-4.453,0.876-5.983,2.63
					c-1.531,1.753-2.296,4.593-2.296,8.518c0,4.166,0.754,7.131,2.264,8.899c1.509,1.769,3.472,2.651,5.889,2.651
					c1.782,0,3.312-0.563,4.596-1.69C46.006,72.707,46.927,70.935,47.484,68.517z"/>
				<path fill="#CCCCCC" d="M59.56,80.675v-32.94h10.665c4.042,0,6.676,0.165,7.904,0.494c1.885,0.496,3.464,1.572,4.736,3.23
					c1.272,1.658,1.909,3.799,1.909,6.423c0,2.025-0.367,3.729-1.101,5.108c-0.734,1.379-1.666,2.464-2.796,3.251
					c-1.131,0.788-2.277,1.31-3.444,1.563c-1.586,0.314-3.886,0.472-6.893,0.472h-4.333v12.398H59.56z M66.208,53.304v9.402h3.642
					c2.625,0,4.378-0.172,5.263-0.52c0.884-0.344,1.578-0.887,2.082-1.626c0.501-0.739,0.752-1.596,0.752-2.577
					c0-1.206-0.352-2.2-1.057-2.984c-0.706-0.782-1.597-1.272-2.675-1.469c-0.797-0.151-2.393-0.226-4.791-0.226H66.208z"/>
				<path fill="#CCCCCC" d="M90.239,80.675v-32.94h10.664c4.043,0,6.678,0.165,7.904,0.494c1.884,0.496,3.464,1.572,4.737,3.23
					c1.272,1.658,1.909,3.799,1.909,6.423c0,2.025-0.368,3.729-1.101,5.108c-0.733,1.379-1.666,2.464-2.797,3.251
					c-1.13,0.788-2.278,1.31-3.444,1.563c-1.586,0.314-3.884,0.472-6.892,0.472h-4.334v12.398H90.239z M96.887,53.304v9.402h3.643
					c2.624,0,4.378-0.172,5.264-0.52c0.883-0.344,1.577-0.887,2.08-1.626c0.503-0.739,0.753-1.596,0.753-2.577
					c0-1.206-0.353-2.2-1.059-2.984c-0.705-0.782-1.596-1.272-2.674-1.469c-0.797-0.151-2.391-0.226-4.791-0.226H96.887z"/>
			</g>
			<g>
				<path fill="#FFFFFF" d="M12.904,14.375v-1.641h1.641v1.641H12.904z"/>
				<path fill="#FFFFFF" d="M21.77,11.203l1.688,0.516c-0.259,0.946-0.689,1.649-1.292,2.108c-0.603,0.459-1.366,0.688-2.292,0.688
					c-1.146,0-2.088-0.39-2.825-1.17c-0.738-0.78-1.106-1.846-1.106-3.199c0-1.431,0.37-2.542,1.111-3.334
					c0.74-0.792,1.715-1.188,2.922-1.188c1.054,0,1.911,0.311,2.569,0.933c0.392,0.367,0.686,0.895,0.882,1.583l-1.719,0.406
					c-0.103-0.444-0.316-0.795-0.641-1.052s-0.719-0.386-1.184-0.386c-0.642,0-1.162,0.229-1.561,0.686s-0.599,1.198-0.599,2.222
					c0,1.087,0.197,1.86,0.591,2.322c0.394,0.461,0.906,0.692,1.536,0.692c0.465,0,0.864-0.147,1.199-0.441
					S21.624,11.834,21.77,11.203z"/>
				<path fill="#FFFFFF" d="M24.92,14.375V5.781h2.782c1.055,0,1.742,0.043,2.062,0.129C30.256,6.04,30.668,6.32,31,6.753
					s0.498,0.991,0.498,1.676c0,0.528-0.096,0.973-0.287,1.333s-0.435,0.643-0.729,0.848c-0.295,0.206-0.594,0.342-0.898,0.408
					c-0.414,0.082-1.014,0.123-1.798,0.123h-1.13v3.234H24.92z M26.654,7.234v2.453h0.95c0.685,0,1.142-0.045,1.373-0.136
					c0.23-0.09,0.412-0.231,0.543-0.424c0.131-0.193,0.196-0.417,0.196-0.672c0-0.314-0.092-0.574-0.276-0.778
					c-0.184-0.204-0.417-0.332-0.698-0.383c-0.208-0.04-0.624-0.059-1.25-0.059H26.654z"/>
				<path fill="#FFFFFF" d="M32.924,14.375V5.781h2.782c1.055,0,1.742,0.043,2.062,0.129c0.492,0.129,0.904,0.41,1.236,0.843
					s0.498,0.991,0.498,1.676c0,0.528-0.096,0.973-0.287,1.333s-0.435,0.643-0.729,0.848c-0.295,0.206-0.594,0.342-0.898,0.408
					c-0.414,0.082-1.014,0.123-1.798,0.123h-1.13v3.234H32.924z M34.658,7.234v2.453h0.95c0.685,0,1.142-0.045,1.373-0.136
					c0.23-0.09,0.412-0.231,0.543-0.424c0.131-0.193,0.196-0.417,0.196-0.672c0-0.314-0.092-0.574-0.276-0.778
					c-0.184-0.204-0.417-0.332-0.698-0.383c-0.208-0.04-0.624-0.059-1.25-0.059H34.658z"/>
			</g>
		</g>
		<path fill="none" d="M128,128H0V0h128V128z"/>
	</g>
</svg>
