<?xml version="1.0" encoding="iso-8859-1"?>
<!-- Generator: Adobe Illustrator 10.0.3, SVG Export Plug-In . SVG Version: 3.0.0 Build 77)  -->
<!DOCTYPE svg PUBLIC "-//W3C//DTD SVG 1.0//EN"    "http://www.w3.org/TR/2001/REC-SVG-20010904/DTD/svg10.dtd" [
	<!ENTITY ns_flows "http://ns.adobe.com/Flows/1.0/">
	<!ENTITY ns_svg "http://www.w3.org/2000/svg">
	<!ENTITY ns_xlink "http://www.w3.org/1999/xlink">
]>
<svg  xmlns="&ns_svg;" xmlns:xlink="&ns_xlink;" xmlns:a="http://ns.adobe.com/AdobeSVGViewerExtensions/3.0/"
	 width="128" height="128" viewBox="0 0 128 128" overflow="visible" enable-background="new 0 0 128 128" xml:space="preserve">
	<g id="Layer_1">
		<g>
			<path fill="#FFFFFF" d="M121.164,1.052H6.836v125.896h80.701l33.627-33.627V1.052z"/>
			<linearGradient id="XMLID_1_" gradientUnits="userSpaceOnUse" x1="63.9204" y1="154.5645" x2="63.9204" y2="-100.9347">
				<stop  offset="0" style="stop-color:#FFFFFF"/>
				<stop  offset="0.2457" style="stop-color:#F6F6F6"/>
				<stop  offset="0.6374" style="stop-color:#DFDFDF"/>
				<stop  offset="1" style="stop-color:#C4C4C4"/>
				<a:midPointStop  offset="0" style="stop-color:#FFFFFF"/>
				<a:midPointStop  offset="0.6045" style="stop-color:#FFFFFF"/>
				<a:midPointStop  offset="1" style="stop-color:#C4C4C4"/>
			</linearGradient>
			<path fill="url(#XMLID_1_)" d="M117.734,4.019H10.266l-0.16,122.654h76.457l31.172-31.252V4.019z"/>
			<linearGradient id="XMLID_2_" gradientUnits="userSpaceOnUse" x1="-26.333" y1="-26.333" x2="56.1662" y2="56.1662">
				<stop  offset="0" style="stop-color:#B3B3B3"/>
				<stop  offset="1" style="stop-color:#828282"/>
				<a:midPointStop  offset="0" style="stop-color:#B3B3B3"/>
				<a:midPointStop  offset="0.5" style="stop-color:#B3B3B3"/>
				<a:midPointStop  offset="1" style="stop-color:#828282"/>
			</linearGradient>
			<path fill="url(#XMLID_2_)" d="M121.164,0.552H6.336v126.896h81.408l33.92-33.92V0.552H121.164z M120.664,1.552
				c0,0.987,0,91.152,0,91.562c-0.289,0.289-33.045,33.045-33.334,33.334c-0.41,0-79.01,0-79.994,0c0-0.988,0-123.909,0-124.896
				C8.322,1.552,119.678,1.552,120.664,1.552z"/>
			<linearGradient id="XMLID_3_" gradientUnits="userSpaceOnUse" x1="43.0229" y1="25.4214" x2="204.0073" y2="111.0652">
				<stop  offset="0" style="stop-color:#FFFFFF"/>
				<stop  offset="0.8603" style="stop-color:#DADADA"/>
				<stop  offset="1" style="stop-color:#D4D4D4"/>
				<a:midPointStop  offset="0" style="stop-color:#FFFFFF"/>
				<a:midPointStop  offset="0.5254" style="stop-color:#FFFFFF"/>
				<a:midPointStop  offset="1" style="stop-color:#D4D4D4"/>
			</linearGradient>
			<path fill="url(#XMLID_3_)" d="M118.006,15.223V3.94H10.199l-0.096,65.34c9.975,4.547,21.151,7.096,32.954,7.096
				C80.402,76.376,111.455,48.876,118.006,15.223z"/>
			<g>
				<path fill="#787878" d="M12.716,20.358l-0.092,1.166H12.25l-0.091-1.166H12.716 M13.516,20.358l-0.092,1.166h-0.375
					l-0.092-1.166H13.516"/>
				<path fill="#787878" d="M14.353,20.479c1.08-0.2,2.48-0.047,2.48,1.337c0,1.418-1.328,1.662-2.48,1.504V20.479 M14.985,22.838
					c1.501,0.35,1.582-2.282,0-1.895V22.838"/>
				<path fill="#787878" d="M18.303,20.436v2.897H17.67v-2.897H18.303"/>
				<path fill="#787878" d="M20.938,22.108h-1.032v0.688h1.152v0.537h-1.785v-2.897H21v0.538h-1.094v0.601h1.032V22.108"/>
				<path fill="#787878" d="M22.454,20.986h-0.758v-0.551h2.157v0.551h-0.766v2.346h-0.633V20.986"/>
				<path fill="#787878" d="M24.956,22.589l-0.195,0.743h-0.658l0.857-2.897h0.829l0.874,2.897H25.98l-0.217-0.743H24.956
					 M25.668,22.099l-0.175-0.615c-0.021-0.081-0.129-0.494-0.149-0.559c-0.087,0.396-0.188,0.783-0.296,1.173H25.668"/>
				<path fill="#787878" d="M29.36,22.589l-0.195,0.743h-0.658l0.857-2.897h0.829l0.874,2.897h-0.682l-0.217-0.743H29.36
					 M30.072,22.099l-0.175-0.615c-0.021-0.081-0.129-0.494-0.15-0.559c-0.085,0.396-0.188,0.783-0.295,1.173H30.072"/>
				<path fill="#787878" d="M32.029,20.986h-0.758v-0.551h2.157v0.551h-0.766v2.346h-0.633V20.986"/>
				<path fill="#787878" d="M34.181,20.436h0.629v1.281h0.008c0.246-0.443,0.551-0.858,0.829-1.281h0.783l-0.929,1.234l0.974,1.663
					h-0.736l-0.691-1.25l-0.237,0.306v0.945h-0.629V20.436"/>
				<path fill="#787878" d="M37.791,20.436v2.897h-0.633v-2.897H37.791"/>
				<path fill="#787878" d="M38.756,23.333v-2.897h0.741l0.583,1.062c0.175,0.32,0.325,0.666,0.466,0.993
					c-0.067-0.682-0.05-1.37-0.05-2.055h0.583v2.897h-0.666l-0.6-1.117c-0.178-0.333-0.347-0.697-0.504-1.023
					c0.039,0.713,0.029,1.427,0.029,2.141H38.756"/>
				<path fill="#787878" d="M42.066,22.662c0.197,0.107,1.527,0.319,1.103-0.294c-0.335-0.482-1.199-0.31-1.199-1.112
					c0-1.09,2.223-1.171,1.637-0.197c-0.205-0.106-1.34-0.198-0.938,0.298c0.314,0.387,0.958,0.283,1.148,0.841
					c0.374,1.102-1.158,1.412-1.88,1.001L42.066,22.662"/>
				<path fill="#787878" d="M46.908,21.987v0.435h-1.091v-0.435H46.908"/>
				<path fill="#787878" d="M51.039,23.255c-1.32,0.652-2.592-0.694-2.066-1.989c0.341-0.839,2.574-1.283,1.971-0.233
					c-1.809-0.809-1.828,2.499,0.004,1.707L51.039,23.255"/>
				<path fill="#787878" d="M52.937,23.38c-1.783,0-1.721-2.992,0.045-2.992c1.795,0,1.748,2.992-0.042,2.992H52.937 M52.966,22.86
					c0.926,0,0.923-1.951,0-1.951c-0.931,0-0.935,1.951-0.005,1.951H52.966"/>
				<path fill="#787878" d="M55.147,20.479c0.513-0.098,1.322-0.194,1.753,0.167c0.477,0.385,0.255,1.103-0.233,1.329
					c0.489,0.204,0.406,0.958,0.6,1.358c-0.216,0-0.433,0-0.649,0c-0.225-0.443-0.115-1.267-0.841-1.139v1.139h-0.629V20.479
					 M55.776,21.721h0.25c0.781,0,0.537-1.009-0.25-0.795V21.721"/>
				<path fill="#787878" d="M58.032,20.474c0.629-0.111,1.748-0.221,1.978,0.575c0.24,0.833-0.579,1.411-1.35,1.244
					c0,0.347,0,0.693,0,1.04h-0.628V20.474 M58.661,21.79c0.954,0.22,0.952-1.127,0-0.855V21.79"/>
				<path fill="#787878" d="M62.058,23.38c-1.783,0-1.72-2.992,0.045-2.992c1.796,0,1.749,2.992-0.042,2.992H62.058 M62.087,22.86
					c0.926,0,0.922-1.951,0-1.951c-0.931,0-0.934,1.951-0.004,1.951H62.087"/>
				<path fill="#787878" d="M67.583,23.255c-1.319,0.652-2.592-0.694-2.066-1.989c0.341-0.839,2.574-1.283,1.971-0.233
					c-1.81-0.809-1.828,2.499,0.004,1.707L67.583,23.255"/>
				<path fill="#787878" d="M70.088,22.108h-1.031v0.688h1.152v0.537h-1.785v-2.897h1.728v0.538h-1.095v0.601h1.031V22.108"/>
				<path fill="#787878" d="M71.604,20.986h-0.757v-0.551h2.156v0.551h-0.767v2.346h-0.633V20.986"/>
				<path fill="#787878" d="M74.947,23.38c-1.783,0-1.72-2.992,0.046-2.992c1.796,0,1.749,2.992-0.042,2.992H74.947 M74.976,22.86
					c0.926,0,0.924-1.951,0-1.951c-0.931,0-0.933,1.951-0.003,1.951H74.976 M75.201,19.739l0.429,0.542h-0.441l-0.208-0.284h-0.008
					l-0.208,0.284h-0.438l0.424-0.542H75.201"/>
				<path fill="#787878" d="M77.158,23.333v-2.897h0.74l0.583,1.062c0.175,0.321,0.323,0.666,0.467,0.993
					c-0.066-0.682-0.05-1.37-0.05-2.055h0.583v2.897h-0.666l-0.601-1.117c-0.178-0.333-0.346-0.696-0.503-1.023
					c0.037,0.713,0.028,1.427,0.028,2.141H77.158"/>
				<path fill="#787878" d="M81.085,20.436v2.897h-0.634v-2.897H81.085"/>
				<path fill="#787878" d="M84.106,23.255c-1.32,0.652-2.592-0.694-2.066-1.989c0.341-0.84,2.574-1.282,1.97-0.233
					c-1.81-0.809-1.829,2.496,0.005,1.707L84.106,23.255"/>
				<path fill="#787878" d="M86.004,23.38c-1.782,0-1.719-2.992,0.047-2.992c1.796,0,1.748,2.992-0.042,2.992H86.004 M86.033,22.86
					c0.925,0,0.923-1.951,0-1.951c-0.931,0-0.934,1.951-0.004,1.951H86.033"/>
				<path fill="#787878" d="M88.648,20.358l-0.092,1.166h-0.376l-0.091-1.166H88.648 M89.446,20.358l-0.09,1.166h-0.375
					l-0.092-1.166H89.446"/>
				<path fill="#787878" d="M12.283,25.391c1.08-0.2,2.481-0.048,2.481,1.337c0,1.416-1.329,1.665-2.481,1.504V25.391
					 M12.916,27.751c1.5,0.35,1.581-2.282,0-1.896V27.751"/>
				<path fill="#787878" d="M16.234,25.348v2.897h-0.633v-2.897H16.234"/>
				<path fill="#787878" d="M18.87,27.02h-1.033v0.688h1.153v0.538h-1.787v-2.897h1.729v0.537h-1.095v0.602h1.033V27.02"/>
				<path fill="#787878" d="M20.385,25.898h-0.758v-0.55h2.157v0.55h-0.766v2.347h-0.633V25.898"/>
				<path fill="#787878" d="M22.887,27.501l-0.196,0.744h-0.657l0.857-2.897h0.829l0.875,2.897h-0.683l-0.216-0.744H22.887
					 M23.598,27.011l-0.174-0.615c-0.022-0.081-0.129-0.494-0.15-0.558c-0.086,0.396-0.187,0.783-0.295,1.173H23.598"/>
				<path fill="#787878" d="M27.292,27.501l-0.196,0.744h-0.658l0.858-2.897h0.829l0.875,2.897h-0.684l-0.216-0.744H27.292
					 M28.004,27.011l-0.176-0.615c-0.022-0.083-0.129-0.492-0.15-0.558c-0.086,0.396-0.187,0.783-0.295,1.173H28.004"/>
				<path fill="#787878" d="M29.793,25.348h0.633v2.346h1.117v0.551h-1.75V25.348"/>
				<path fill="#787878" d="M32.97,25.348v2.897h-0.633v-2.897H32.97"/>
				<path fill="#787878" d="M36.309,27.136c-0.015-0.396-0.021-0.808-0.034-1.19c-0.187,0.758-0.432,1.504-0.657,2.251h-0.496
					l-0.3-1.117c-0.1-0.375-0.182-0.766-0.262-1.135c-0.025,0.767-0.062,1.533-0.1,2.299h-0.587l0.18-2.897h0.845l0.274,0.971
					c0.094,0.338,0.169,0.713,0.254,1.032c0.152-0.678,0.359-1.338,0.562-2.002h0.833l0.15,2.897h-0.616L36.309,27.136"/>
				<path fill="#787878" d="M39.543,27.02h-1.033v0.688h1.154v0.538h-1.787v-2.897h1.729v0.537h-1.096v0.602h1.033V27.02"/>
				<path fill="#787878" d="M40.514,28.245v-2.897h0.741l0.583,1.062c0.175,0.32,0.324,0.666,0.467,0.993
					c-0.067-0.682-0.051-1.37-0.051-2.054h0.583v2.897H42.17l-0.599-1.118c-0.178-0.333-0.347-0.697-0.504-1.023
					c0.039,0.712,0.03,1.427,0.03,2.141H40.514"/>
				<path fill="#787878" d="M44.348,25.898H43.59v-0.55h2.157v0.55H44.98v2.347h-0.632V25.898"/>
				<path fill="#787878" d="M46.85,27.501l-0.196,0.744h-0.658l0.857-2.897h0.829l0.875,2.897h-0.683l-0.217-0.744H46.85
					 M47.562,27.011l-0.175-0.615c-0.021-0.081-0.129-0.493-0.149-0.558c-0.087,0.395-0.188,0.783-0.296,1.173H47.562"/>
				<path fill="#787878" d="M49.348,25.391c0.513-0.098,1.321-0.194,1.753,0.167c0.476,0.384,0.256,1.103-0.233,1.328
					c0.49,0.204,0.405,0.958,0.6,1.359c-0.217,0-0.433,0-0.65,0c-0.228-0.442-0.114-1.267-0.841-1.139v1.139h-0.629V25.391
					 M49.977,26.633h0.25c0.782,0,0.533-1.022-0.25-0.795V26.633"/>
				<path fill="#787878" d="M55.159,27.02h-1.032v0.688h1.153v0.538h-1.786v-2.897h1.728v0.537h-1.095v0.602h1.032V27.02"/>
				<path fill="#787878" d="M56.151,27.575c0.195,0.106,1.527,0.319,1.102-0.294c-0.334-0.482-1.199-0.311-1.199-1.112
					c0-1.09,2.223-1.172,1.637-0.198c-0.205-0.105-1.34-0.198-0.938,0.299c0.314,0.387,0.959,0.283,1.148,0.841
					c0.374,1.101-1.158,1.412-1.88,1.001L56.151,27.575"/>
				<path fill="#787878" d="M58.794,25.387c0.631-0.112,1.748-0.222,1.978,0.575c0.241,0.833-0.579,1.409-1.35,1.244
					c0,0.347,0,0.693,0,1.04h-0.628V25.387 M59.422,26.702c0.941,0.228,0.966-1.119,0-0.856V26.702"/>
				<path fill="#787878" d="M63.298,27.02h-1.032v0.688h1.153v0.538h-1.786v-2.897h1.728v0.537h-1.095v0.602h1.032V27.02"/>
				<path fill="#787878" d="M66.324,28.167c-1.318,0.656-2.59-0.698-2.065-1.989c0.341-0.838,2.575-1.282,1.97-0.232
					c-1.812-0.811-1.826,2.498,0.005,1.707L66.324,28.167"/>
				<path fill="#787878" d="M67.799,25.348v2.897h-0.633v-2.897H67.799"/>
				<path fill="#787878" d="M69.414,27.501l-0.195,0.744h-0.658l0.857-2.897h0.829l0.874,2.897h-0.683l-0.217-0.744H69.414
					 M70.126,27.011l-0.175-0.615c-0.021-0.079-0.13-0.496-0.149-0.558c-0.087,0.396-0.188,0.783-0.296,1.173H70.126"/>
				<path fill="#787878" d="M71.916,25.348h0.633v2.346h1.115v0.551h-1.748V25.348"/>
				<path fill="#787878" d="M12.778,37.158l-0.292,0.911h-0.374l0.953-2.897h0.437l0.958,2.897h-0.387l-0.3-0.911H12.778
					 M13.699,36.866l-0.279-0.834c-0.017-0.057-0.139-0.48-0.154-0.529c-0.103,0.464-0.265,0.912-0.412,1.363H13.699"/>
				<path fill="#787878" d="M18.315,35.018v2.514c-0.001,0.179,0.004,0.359,0.017,0.538c-0.107,0-0.224,0.017-0.329,0l-0.017-0.361
					h-0.008c-0.546,1.13-1.702-0.103-1.517-0.973c0.14-0.661,1.022-1.148,1.488-0.479v-1.238H18.315 M17.95,36.836
					c0-0.91-1.149-0.639-1.149,0.202c0,0.847,1.149,1.062,1.149,0.159V36.836"/>
				<path fill="#787878" d="M19.514,35.607c-0.304,0-0.296-0.486,0.008-0.486c0.309,0,0.304,0.486-0.004,0.486H19.514 M19.34,38.069
					v-2.08h0.367v2.08H19.34"/>
				<path fill="#787878" d="M20.938,37.093c0.012,0.703,0.69,0.851,1.245,0.619c0.022,0.088,0.045,0.178,0.067,0.267
					c-1.031,0.477-2.038-0.411-1.55-1.489c0.47-1.04,1.854-0.443,1.649,0.607L20.938,37.093 M22.008,36.823
					c0.015-0.808-0.982-0.75-1.066,0H22.008"/>
				<path fill="#787878" d="M23.673,35.491v0.498h0.525v0.288h-0.525v1.122c0,0.312,0.169,0.477,0.487,0.378
					c0.005,0.096,0.011,0.191,0.017,0.288c-1.099,0.399-0.862-1.184-0.862-1.788h-0.312v-0.288h0.312v-0.382L23.673,35.491"/>
				<path fill="#787878" d="M26.446,37.571c-0.001,0.167,0.008,0.333,0.03,0.499c-0.106,0-0.225,0.019-0.33,0l-0.033-0.262h-0.012
					c-0.331,0.496-1.233,0.374-1.233-0.288c0-0.685,0.779-0.722,1.211-0.817c0-0.545-0.615-0.586-0.986-0.326
					c-0.028-0.084-0.056-0.169-0.083-0.254c0.648-0.417,1.437-0.122,1.437,0.671V37.571 M26.088,37.008
					c-0.314-0.007-0.853,0.03-0.853,0.468c0,0.589,0.853,0.371,0.853-0.107V37.008"/>
				<path fill="#787878" d="M29.215,37.158l-0.292,0.911h-0.375l0.953-2.897h0.438l0.958,2.897h-0.388l-0.3-0.911H29.215
					 M30.134,36.866l-0.278-0.834c-0.018-0.056-0.139-0.481-0.154-0.529c-0.104,0.464-0.265,0.912-0.413,1.363H30.134"/>
				<path fill="#787878" d="M32.112,35.491v0.498h0.525v0.288h-0.525v1.122c0,0.314,0.168,0.476,0.487,0.378
					c0.006,0.096,0.011,0.191,0.016,0.288c-1.098,0.399-0.861-1.184-0.861-1.788h-0.312v-0.288h0.312v-0.382L32.112,35.491"/>
				<path fill="#787878" d="M33.832,36.943h0.008c0.229-0.337,0.511-0.641,0.771-0.954h0.437l-0.778,0.855l0.887,1.225H34.71
					l-0.691-1.002l-0.187,0.22v0.782h-0.367v-3.052h0.367V36.943"/>
				<path fill="#787878" d="M36.08,35.607c-0.305,0-0.298-0.486,0.008-0.486c0.309,0,0.304,0.486-0.004,0.486H36.08 M35.905,38.069
					v-2.08h0.366v2.08H35.905"/>
				<path fill="#787878" d="M37.296,36.552c0.001-0.188-0.004-0.375-0.017-0.563c0.108,0,0.217,0,0.324,0l0.021,0.34h0.008
					c0.32-0.617,1.196-0.448,1.345,0.185c0.115,0.487,0.033,1.06,0.033,1.555h-0.366V36.87c0-0.806-0.983-0.759-0.983-0.002
					c0,0.4,0,0.801,0,1.201h-0.366V36.552"/>
				<path fill="#787878" d="M39.972,37.687c0.227,0.139,0.875,0.299,0.875-0.163c0-0.417-0.671-0.408-0.85-0.738
					c-0.471-0.87,1.347-1.135,1.041-0.444c-0.177-0.104-0.48-0.201-0.66-0.036c-0.393,0.36,0.422,0.587,0.584,0.708
					c0.834,0.621-0.403,1.369-1.078,0.957L39.972,37.687"/>
				<path fill="#787878" d="M43.594,37.093c0.011,0.702,0.69,0.851,1.246,0.619c0.021,0.088,0.044,0.178,0.066,0.267
					c-1.032,0.479-2.038-0.413-1.55-1.489c0.471-1.04,1.854-0.443,1.649,0.607L43.594,37.093 M44.665,36.823
					c0.014-0.808-0.982-0.75-1.066,0H44.665 M44.752,35.121l-0.508,0.615h-0.258l0.367-0.615H44.752"/>
				<path fill="#787878" d="M47.187,35.018h0.366v1.303h0.009c0.611-1.1,1.693,0.162,1.5,1.021
					c-0.161,0.716-1.119,1.119-1.554,0.384l-0.021,0.344H47.17c0.013-0.142,0.017-0.353,0.017-0.538V35.018 M47.553,37.236
					c0,0.896,1.174,0.617,1.174-0.22c0-0.857-1.174-1.061-1.174-0.154V37.236"/>
				<path fill="#787878" d="M51.392,37.571c-0.002,0.167,0.008,0.333,0.029,0.499c-0.106,0-0.225,0.019-0.329,0l-0.033-0.262h-0.013
					c-0.329,0.497-1.231,0.373-1.231-0.288c0-0.685,0.779-0.722,1.211-0.817c0-0.545-0.615-0.586-0.986-0.326
					c-0.028-0.084-0.056-0.169-0.083-0.254c0.648-0.418,1.436-0.122,1.436,0.671V37.571 M51.034,37.008
					c-0.314-0.007-0.854,0.03-0.854,0.468c0,0.589,0.854,0.371,0.854-0.107V37.008"/>
				<path fill="#787878" d="M52.345,37.687c0.226,0.139,0.874,0.299,0.874-0.163c0-0.417-0.671-0.408-0.849-0.738
					c-0.471-0.87,1.347-1.135,1.041-0.444c-0.177-0.104-0.48-0.201-0.66-0.036c-0.395,0.36,0.421,0.587,0.583,0.708
					c0.835,0.621-0.403,1.369-1.077,0.957L52.345,37.687"/>
				<path fill="#787878" d="M54.635,35.607c-0.304,0-0.297-0.486,0.009-0.486c0.309,0,0.303,0.486-0.005,0.486H54.635 M54.46,38.069
					v-2.08h0.367v2.08H54.46"/>
				<path fill="#787878" d="M57.287,37.996c-0.896,0.442-1.771-0.305-1.548-1.25c0.177-0.746,1.762-1.09,1.473-0.405
					c-1.37-0.732-1.522,2.068,0.013,1.371L57.287,37.996"/>
				<path fill="#787878" d="M59.555,37.571c-0.001,0.167,0.008,0.333,0.03,0.499c-0.106,0-0.224,0.019-0.329,0l-0.034-0.262H59.21
					c-0.329,0.497-1.232,0.373-1.232-0.288c0-0.685,0.779-0.722,1.212-0.817c0-0.545-0.616-0.586-0.987-0.326
					c-0.027-0.084-0.056-0.169-0.083-0.254c0.648-0.418,1.436-0.122,1.436,0.671V37.571 M59.198,37.008
					c-0.314-0.007-0.854,0.03-0.854,0.468c0,0.589,0.854,0.371,0.854-0.107V37.008"/>
				<path fill="#787878" d="M60.559,36.552c0-0.188-0.006-0.375-0.017-0.563c0.107,0,0.214,0,0.321,0l0.017,0.335h0.012
					c0.279-0.491,0.991-0.514,1.211,0.035c0.327-0.632,1.165-0.5,1.306,0.167c0.104,0.489,0.03,1.048,0.03,1.543h-0.358v-1.177
					c0-0.721-0.903-0.861-0.903-0.112c-0.114,0.354,0,0.914,0,1.29h-0.358v-1.246c0-0.783-0.904-0.659-0.904,0.045
					c0,0.4,0,0.801,0,1.201h-0.358V36.552"/>
				<path fill="#787878" d="M64.656,37.093c0.011,0.702,0.69,0.851,1.245,0.619c0.021,0.088,0.045,0.178,0.066,0.267
					c-1.031,0.479-2.036-0.413-1.549-1.489c0.471-1.04,1.854-0.443,1.649,0.607L64.656,37.093 M65.727,36.823
					c0.014-0.808-0.982-0.75-1.066,0H65.727"/>
				<path fill="#787878" d="M66.949,36.552c0.002-0.188-0.004-0.375-0.016-0.563c0.107,0,0.217,0,0.324,0l0.021,0.34h0.009
					c0.318-0.618,1.195-0.447,1.344,0.185c0.115,0.487,0.033,1.06,0.033,1.555h-0.365V36.87c0-0.806-0.982-0.759-0.982-0.002
					c0,0.4,0,0.801,0,1.201h-0.367V36.552"/>
				<path fill="#787878" d="M70.102,35.491v0.498h0.523v0.288h-0.523v1.122c0,0.312,0.168,0.477,0.486,0.378
					c0.006,0.096,0.012,0.191,0.018,0.288c-1.099,0.399-0.861-1.184-0.861-1.788h-0.312v-0.288h0.312v-0.382L70.102,35.491"/>
				<path fill="#787878" d="M71.638,37.093c0.011,0.702,0.69,0.851,1.244,0.619c0.022,0.088,0.045,0.178,0.066,0.267
					c-1.03,0.479-2.035-0.413-1.549-1.489c0.47-1.04,1.854-0.443,1.649,0.607L71.638,37.093 M72.707,36.823
					c0.016-0.807-0.983-0.75-1.065,0H72.707"/>
				<path fill="#787878" d="M76.666,37.996c-0.896,0.445-1.771-0.307-1.546-1.25c0.175-0.746,1.76-1.09,1.472-0.405
					c-1.374-0.733-1.52,2.071,0.012,1.371L76.666,37.996"/>
				<path fill="#787878" d="M78.307,38.117c-1.301,0-1.26-2.175,0.032-2.175c1.31,0,1.265,2.175-0.027,2.175H78.307 M78.319,37.833
					c0.814,0,0.831-1.607,0.008-1.607c-0.827,0-0.829,1.607-0.012,1.607H78.319"/>
				<path fill="#787878" d="M80.188,36.552c-0.001-0.188-0.006-0.375-0.015-0.563c0.105,0,0.214,0,0.319,0l0.017,0.335h0.013
					c0.28-0.492,0.991-0.512,1.212,0.035c0.327-0.632,1.163-0.5,1.307,0.167c0.103,0.489,0.029,1.048,0.029,1.543h-0.358v-1.177
					c0-0.721-0.903-0.861-0.903-0.112c-0.114,0.354,0,0.914,0,1.29H81.45v-1.246c0-0.783-0.902-0.659-0.902,0.045
					c0,0.4,0,0.801,0,1.201h-0.36V36.552"/>
				<path fill="#787878" d="M84.078,36.668c0.001-0.227-0.006-0.453-0.018-0.679c0.102,0,0.23-0.026,0.329,0l0.02,0.357h0.009
					c0.628-1.108,1.733,0.097,1.536,0.996c-0.151,0.678-1.048,1.111-1.511,0.448v1.131h-0.365V36.668 M84.443,37.222
					c0,0.912,1.174,0.644,1.174-0.207c0-0.853-1.174-1.054-1.174-0.154V37.222"/>
				<path fill="#787878" d="M87.686,38.117c-1.301,0-1.26-2.175,0.034-2.175c1.309,0,1.264,2.175-0.029,2.175H87.686 M87.699,37.833
					c0.814,0,0.832-1.607,0.008-1.607c-0.827,0-0.831,1.607-0.013,1.607H87.699"/>
				<path fill="#787878" d="M89.519,37.687c0.227,0.139,0.874,0.299,0.874-0.163c0-0.416-0.672-0.408-0.85-0.738
					c-0.469-0.871,1.348-1.134,1.041-0.444c-0.176-0.104-0.479-0.201-0.659-0.036c-0.394,0.36,0.421,0.587,0.584,0.708
					c0.833,0.621-0.403,1.369-1.077,0.957L89.519,37.687"/>
				<path fill="#787878" d="M92.074,35.491v0.498H92.6v0.288h-0.525v1.122c0,0.312,0.169,0.477,0.486,0.378
					c0.006,0.096,0.011,0.191,0.017,0.288c-1.097,0.399-0.86-1.184-0.86-1.788h-0.312v-0.288h0.312v-0.382L92.074,35.491"/>
				<path fill="#787878" d="M94.848,37.571c-0.001,0.167,0.009,0.333,0.028,0.499c-0.106,0-0.225,0.019-0.328,0l-0.034-0.262h-0.012
					c-0.331,0.494-1.233,0.375-1.233-0.288c0-0.685,0.78-0.722,1.212-0.817c0-0.544-0.615-0.586-0.986-0.326
					c-0.027-0.084-0.057-0.169-0.084-0.254c0.648-0.417,1.438-0.123,1.438,0.671V37.571 M94.489,37.008
					c-0.314-0.007-0.854,0.031-0.854,0.468c0,0.589,0.854,0.371,0.854-0.107V37.008"/>
				<path fill="#787878" d="M98.89,35.018v2.514c-0.001,0.179,0.005,0.359,0.017,0.538c-0.107,0-0.224,0.017-0.329,0l-0.017-0.361
					h-0.008c-0.545,1.131-1.703-0.103-1.517-0.973c0.14-0.661,1.021-1.149,1.486-0.479v-1.238H98.89 M98.522,36.836
					c0-0.91-1.149-0.638-1.149,0.202c0,0.846,1.149,1.062,1.149,0.159V36.836"/>
				<path fill="#787878" d="M100.122,37.093c0.012,0.702,0.69,0.851,1.244,0.619c0.023,0.088,0.044,0.178,0.067,0.267
					c-1.031,0.477-2.037-0.411-1.55-1.489c0.47-1.04,1.854-0.443,1.648,0.607L100.122,37.093 M101.191,36.823
					c0.014-0.807-0.983-0.75-1.065,0H101.191"/>
				<path fill="#787878" d="M103.715,36.668c0.001-0.227-0.005-0.453-0.017-0.679c0.102,0,0.23-0.026,0.328,0l0.021,0.357h0.008
					c0.629-1.108,1.733,0.097,1.535,0.996c-0.149,0.677-1.047,1.111-1.51,0.448v1.131h-0.366V36.668 M104.081,37.222
					c0,0.912,1.175,0.644,1.175-0.207c0-0.853-1.175-1.054-1.175-0.154V37.222"/>
				<path fill="#787878" d="M106.504,36.638c0.001-0.216-0.005-0.433-0.017-0.649c0.107,0,0.214,0,0.32,0l0.018,0.408h0.012
					c0.124-0.376,0.814-0.735,0.661-0.09c-0.863-0.086-0.632,1.241-0.632,1.762h-0.367L106.504,36.638"/>
				<path fill="#787878" d="M109.073,38.117c-1.301,0-1.26-2.175,0.032-2.175c1.309,0,1.264,2.175-0.029,2.175H109.073
					 M109.085,37.833c0.815,0,0.832-1.607,0.008-1.607c-0.826,0-0.829,1.607-0.012,1.607H109.085"/>
				<path fill="#787878" d="M111.396,35.491v0.498h0.524v0.288h-0.524v1.122c0,0.314,0.168,0.476,0.486,0.378
					c0.005,0.096,0.011,0.191,0.016,0.288c-1.098,0.399-0.86-1.184-0.86-1.788h-0.312v-0.288h0.312v-0.382L111.396,35.491"/>
				<path fill="#787878" d="M14.036,42.676c0,0.429-0.077,0.903-0.511,1.101c-0.303,0.139-1.463,0.211-1.092-0.361
					c0.685,0.466,1.337-0.03,1.24-0.791h-0.008c-0.578,1.034-1.649-0.18-1.463-0.997c0.154-0.674,1.082-1.128,1.514-0.417
					l0.012-0.309h0.324c-0.012,0.146-0.016,0.313-0.016,0.566V42.676 M13.669,41.718c0-0.888-1.132-0.597-1.132,0.219
					c0,0.819,1.132,1.031,1.132,0.155V41.718"/>
				<path fill="#787878" d="M15.876,43.029c-1.301,0-1.26-2.175,0.033-2.175c1.309,0,1.264,2.175-0.029,2.175H15.876 M15.889,42.745
					c0.814,0,0.831-1.607,0.008-1.607c-0.829,0-0.832,1.607-0.012,1.607H15.889"/>
				<path fill="#787878" d="M17.761,41.551c0.002-0.216-0.004-0.433-0.016-0.649c0.107,0,0.214,0,0.321,0l0.017,0.408h0.012
					c0.087-0.269,0.36-0.52,0.662-0.443c0,0.111,0.025,0.245,0,0.353c-0.864-0.087-0.633,1.242-0.633,1.762h-0.367L17.761,41.551"/>
				<path fill="#787878" d="M21.251,39.93v2.515c-0.001,0.179,0.004,0.358,0.017,0.538c-0.107,0-0.224,0.017-0.33,0l-0.016-0.361
					h-0.008c-0.549,1.129-1.701-0.103-1.517-0.974c0.14-0.661,1.021-1.148,1.487-0.479V39.93H21.251 M20.884,41.748
					c0-0.91-1.149-0.638-1.149,0.202c0,0.846,1.149,1.062,1.149,0.159V41.748"/>
				<path fill="#787878" d="M23.961,42.415c-0.001,0.189,0.004,0.378,0.017,0.567c-0.108,0-0.216,0-0.325,0l-0.021-0.339h-0.008
					c-0.339,0.618-1.198,0.449-1.332-0.205c-0.1-0.488-0.029-1.042-0.029-1.536h0.367v1.147c0,0.755,0.965,0.893,0.965,0.125
					c0.113-0.349,0-0.902,0-1.272h0.367V42.415"/>
				<path fill="#787878" d="M24.989,41.551c0.001-0.216-0.004-0.433-0.017-0.649c0.106,0,0.213,0,0.32,0l0.017,0.408h0.013
					c0.089-0.27,0.36-0.518,0.663-0.443c0,0.111,0.025,0.245,0,0.353c-0.864-0.086-0.633,1.239-0.633,1.762h-0.367L24.989,41.551"/>
				<path fill="#787878" d="M28.158,42.483c-0.002,0.167,0.008,0.333,0.029,0.499c-0.106,0-0.225,0.018-0.329,0l-0.034-0.263h-0.012
					c-0.33,0.497-1.233,0.374-1.233-0.287c0-0.686,0.779-0.722,1.212-0.817c0-0.546-0.614-0.585-0.987-0.327
					c-0.027-0.085-0.056-0.169-0.083-0.253c0.649-0.417,1.437-0.123,1.437,0.67V42.483 M27.799,41.92
					c-0.314-0.006-0.854,0.031-0.854,0.469c0,0.588,0.854,0.371,0.854-0.108V41.92"/>
				<path fill="#787878" d="M29.111,42.599c0.226,0.139,0.875,0.3,0.875-0.163c0-0.416-0.672-0.408-0.85-0.739
					c-0.47-0.871,1.348-1.133,1.042-0.443c-0.176-0.106-0.481-0.202-0.66-0.037c-0.394,0.361,0.421,0.588,0.584,0.708
					c0.836,0.62-0.404,1.365-1.078,0.957L29.111,42.599"/>
				<path fill="#787878" d="M31.346,43.029c-0.324,0-0.315-0.542,0.008-0.542c0.328,0,0.324,0.542-0.004,0.542H31.346"/>
				<path fill="#787878" d="M33.474,42.982v-2.897h0.399l0.896,1.466c0.182,0.302,0.359,0.639,0.512,0.937
					c-0.069-0.796-0.042-1.604-0.042-2.403h0.341v2.897h-0.366l-0.891-1.47c-0.189-0.312-0.373-0.655-0.532-0.963
					c0.045,0.809,0.024,1.624,0.024,2.433H33.474"/>
				<path fill="#787878" d="M36.821,42.006c0.012,0.702,0.69,0.851,1.245,0.619c0.022,0.089,0.045,0.178,0.067,0.267
					c-1.031,0.484-2.035-0.415-1.549-1.488c0.472-1.043,1.841-0.44,1.649,0.607L36.821,42.006 M37.891,41.735
					c0.015-0.806-0.983-0.75-1.065,0H37.891"/>
				<path fill="#787878" d="M39.115,39.93h0.366v3.052h-0.366V39.93"/>
				<path fill="#787878" d="M41.925,42.483c-0.001,0.167,0.008,0.333,0.03,0.499c-0.106,0-0.225,0.018-0.33,0l-0.033-0.263H41.58
					c-0.33,0.498-1.232,0.373-1.232-0.287c0-0.686,0.779-0.722,1.211-0.817c0-0.547-0.614-0.585-0.986-0.327
					c-0.028-0.085-0.055-0.169-0.083-0.253c0.648-0.418,1.436-0.122,1.436,0.67V42.483 M41.566,41.92
					c-0.313-0.006-0.853,0.031-0.853,0.469c0,0.588,0.853,0.371,0.853-0.108V41.92"/>
				<path fill="#787878" d="M44.177,42.599c0.227,0.139,0.875,0.299,0.875-0.163c0-0.416-0.672-0.408-0.85-0.739
					c-0.47-0.871,1.348-1.133,1.041-0.443c-0.176-0.106-0.48-0.202-0.66-0.037c-0.394,0.361,0.42,0.588,0.584,0.708
					c0.837,0.62-0.404,1.365-1.078,0.957L44.177,42.599"/>
				<path fill="#787878" d="M47.712,42.483c-0.002,0.167,0.008,0.333,0.029,0.499c-0.106,0-0.225,0.018-0.329,0l-0.033-0.263h-0.013
					c-0.33,0.497-1.232,0.374-1.232-0.287c0-0.686,0.779-0.722,1.211-0.817c0-0.547-0.614-0.585-0.987-0.327
					c-0.027-0.085-0.056-0.169-0.083-0.253c0.648-0.417,1.437-0.123,1.437,0.67V42.483 M46.471,40.57
					c0-0.639,0.71-0.217,1.016-0.438c0.014,0.852-0.792-0.065-0.829,0.438H46.471 M47.354,41.92
					c-0.314-0.006-0.854,0.031-0.854,0.469c0,0.588,0.854,0.371,0.854-0.108V41.92"/>
				<path fill="#787878" d="M49.535,43.029c-1.3,0-1.26-2.175,0.034-2.175c1.308,0,1.264,2.175-0.029,2.175H49.535 M49.548,42.745
					c0.815,0,0.831-1.607,0.009-1.607c-0.829,0-0.832,1.607-0.013,1.607H49.548"/>
				<path fill="#787878" d="M52.716,41.581c0.001-0.227-0.004-0.453-0.017-0.679c0.102,0,0.231-0.026,0.329,0l0.021,0.356h0.009
					c0.626-1.108,1.731,0.099,1.534,0.996c-0.149,0.677-1.046,1.112-1.509,0.448v1.131h-0.366V41.581 M53.083,42.135
					c0,0.912,1.174,0.644,1.174-0.207c0-0.854-1.174-1.055-1.174-0.154V42.135"/>
				<path fill="#787878" d="M55.505,41.551c0.001-0.216-0.004-0.433-0.017-0.649c0.106,0,0.214,0,0.321,0l0.017,0.408h0.012
					c0.088-0.269,0.36-0.52,0.663-0.443c0,0.111,0.025,0.245,0,0.353c-0.864-0.087-0.633,1.242-0.633,1.762h-0.367L55.505,41.551"/>
				<path fill="#787878" d="M58.074,43.029c-1.301,0-1.261-2.175,0.033-2.175c1.308,0,1.264,2.175-0.029,2.175H58.074
					 M58.087,42.745c0.815,0,0.83-1.607,0.008-1.607c-0.828,0-0.831,1.607-0.013,1.607H58.087"/>
				<path fill="#787878" d="M60.13,40.519c-0.304,0-0.296-0.485,0.008-0.485c0.309,0,0.304,0.485-0.004,0.485H60.13 M59.956,42.982
					v-2.08h0.367v2.08H59.956"/>
				<path fill="#787878" d="M61.346,39.93h0.367v1.302h0.008c0.611-1.099,1.693,0.163,1.5,1.022
					c-0.161,0.716-1.12,1.119-1.555,0.384l-0.021,0.344H61.33c0.012-0.142,0.016-0.353,0.016-0.538V39.93 M61.712,42.148
					c0,0.897,1.174,0.618,1.174-0.22c0-0.858-1.174-1.062-1.174-0.154V42.148"/>
				<path fill="#787878" d="M64.306,40.519c-0.305,0-0.298-0.485,0.008-0.485c0.309,0,0.303,0.485-0.004,0.485H64.306
					 M64.132,42.982v-2.08h0.365v2.08H64.132"/>
				<path fill="#787878" d="M67.262,39.93v2.515c-0.001,0.179,0.004,0.358,0.017,0.538c-0.106,0-0.224,0.017-0.328,0l-0.017-0.361
					h-0.009c-0.549,1.129-1.702-0.103-1.517-0.974c0.14-0.66,1.021-1.149,1.487-0.479V39.93H67.262 M66.896,41.748
					c0-0.91-1.149-0.638-1.149,0.202c0,0.846,1.149,1.062,1.149,0.159V41.748"/>
				<path fill="#787878" d="M69.106,43.029c-1.3,0-1.261-2.175,0.033-2.175c1.309,0,1.264,2.175-0.028,2.175H69.106 M69.119,42.745
					c0.814,0,0.831-1.607,0.008-1.607c-0.828,0-0.83,1.607-0.012,1.607H69.119"/>
				<path fill="#787878" d="M70.938,42.599c0.227,0.14,0.875,0.299,0.875-0.163c0-0.416-0.672-0.408-0.85-0.739
					c-0.471-0.871,1.348-1.133,1.041-0.443c-0.176-0.106-0.48-0.202-0.66-0.037c-0.395,0.361,0.422,0.588,0.584,0.708
					c0.836,0.62-0.403,1.365-1.077,0.957L70.938,42.599"/>
				<path fill="#787878" d="M75.173,43.029c-1.301,0-1.262-2.175,0.032-2.175c1.309,0,1.265,2.175-0.028,2.175H75.173
					 M75.185,42.745c0.816,0,0.83-1.607,0.008-1.607c-0.828,0-0.83,1.607-0.012,1.607H75.185"/>
				<path fill="#787878" d="M77.003,42.599c0.227,0.14,0.874,0.299,0.874-0.163c0-0.417-0.67-0.408-0.848-0.739
					c-0.471-0.87,1.347-1.134,1.041-0.443c-0.177-0.106-0.482-0.202-0.661-0.037c-0.395,0.361,0.423,0.588,0.585,0.708
					c0.835,0.62-0.403,1.365-1.077,0.957L77.003,42.599"/>
				<path fill="#787878" d="M81.838,42.483c-0.002,0.167,0.007,0.333,0.028,0.499c-0.107,0-0.225,0.018-0.328,0l-0.034-0.263h-0.013
					c-0.329,0.498-1.231,0.373-1.231-0.287c0-0.686,0.779-0.722,1.21-0.817c0-0.547-0.613-0.585-0.985-0.327
					c-0.028-0.085-0.057-0.169-0.084-0.253c0.647-0.417,1.438-0.123,1.438,0.67V42.483 M81.479,41.92
					c-0.315-0.006-0.854,0.031-0.854,0.469c0,0.588,0.854,0.371,0.854-0.108V41.92"/>
				<path fill="#787878" d="M84.281,42.904c-0.271,0.139-0.462,0.046-0.646,0.292c0.601,0.086,0.106,0.948-0.424,0.568
					c0.019-0.061,0.037-0.121,0.058-0.181c0.369,0.211,0.577-0.21,0.078-0.253c0.056-0.1,0.1-0.236,0.176-0.318
					c-0.752-0.103-1.021-1.004-0.694-1.621c0.241-0.457,1.674-0.858,1.373-0.137c-1.349-0.729-1.548,2.047,0.012,1.371
					L84.281,42.904"/>
				<path fill="#787878" d="M86.805,42.415c-0.001,0.189,0.003,0.378,0.017,0.567c-0.108,0-0.218,0-0.326,0l-0.02-0.339h-0.009
					c-0.341,0.617-1.197,0.451-1.331-0.205c-0.102-0.488-0.03-1.042-0.03-1.536h0.366v1.147c0,0.755,0.965,0.894,0.965,0.125
					c0.113-0.349,0-0.902,0-1.272h0.368V42.415"/>
				<path fill="#787878" d="M89.265,42.909c-0.896,0.442-1.771-0.306-1.548-1.25c0.177-0.748,1.763-1.089,1.473-0.405
					c-1.365-0.739-1.527,2.07,0.013,1.371L89.265,42.909"/>
				<path fill="#787878" d="M91.532,42.483c-0.001,0.167,0.01,0.333,0.029,0.499c-0.106,0-0.224,0.018-0.329,0l-0.031-0.263h-0.015
					c-0.327,0.498-1.231,0.373-1.231-0.287c0-0.686,0.78-0.722,1.212-0.817c0-0.547-0.616-0.585-0.987-0.327
					c-0.027-0.085-0.055-0.169-0.082-0.253c0.647-0.417,1.435-0.122,1.435,0.67V42.483 M91.175,41.92
					c-0.313-0.006-0.854,0.031-0.854,0.469c0,0.588,0.854,0.371,0.854-0.108V41.92"/>
				<path fill="#787878" d="M92.541,41.551c0.001-0.216-0.004-0.433-0.017-0.649c0.105,0,0.213,0,0.319,0l0.017,0.408h0.015
					c0.087-0.268,0.359-0.521,0.66-0.443c0,0.111,0.024,0.245,0,0.353c-0.862-0.089-0.632,1.243-0.632,1.762h-0.366L92.541,41.551"
					/>
				<path fill="#787878" d="M94.498,42.006c0.012,0.702,0.69,0.851,1.244,0.619c0.022,0.089,0.045,0.178,0.065,0.267
					c-1.029,0.486-2.034-0.416-1.549-1.488c0.469-1.038,1.858-0.443,1.65,0.607L94.498,42.006 M95.567,41.735
					c0.012-0.806-0.982-0.75-1.065,0H95.567"/>
				<path fill="#787878" d="M96.741,42.599c0.226,0.14,0.874,0.299,0.874-0.163c0-0.417-0.671-0.408-0.85-0.739
					c-0.469-0.871,1.349-1.133,1.042-0.443c-0.177-0.106-0.479-0.202-0.661-0.037c-0.393,0.361,0.422,0.588,0.585,0.708
					c0.835,0.62-0.402,1.365-1.077,0.957L96.741,42.599"/>
				<path fill="#787878" d="M100.363,42.006c0.012,0.702,0.691,0.851,1.246,0.619c0.021,0.089,0.043,0.178,0.065,0.267
					c-1.03,0.486-2.034-0.416-1.55-1.488c0.47-1.038,1.856-0.443,1.648,0.607L100.363,42.006 M101.434,41.735
					c0.012-0.807-0.981-0.749-1.066,0H101.434"/>
				<path fill="#787878" d="M105.393,42.909c-0.897,0.442-1.772-0.306-1.548-1.25c0.176-0.746,1.762-1.091,1.474-0.405
					c-1.366-0.739-1.529,2.07,0.012,1.371L105.393,42.909"/>
				<path fill="#787878" d="M107.661,42.483c-0.001,0.167,0.009,0.333,0.03,0.499c-0.107,0-0.225,0.018-0.329,0l-0.034-0.263h-0.012
					c-0.331,0.495-1.233,0.375-1.233-0.287c0-0.686,0.779-0.722,1.212-0.817c0-0.546-0.614-0.585-0.986-0.327
					c-0.028-0.085-0.057-0.169-0.084-0.253c0.648-0.417,1.437-0.123,1.437,0.67V42.483 M107.303,41.92
					c-0.313-0.006-0.853,0.031-0.853,0.469c0,0.588,0.853,0.371,0.853-0.108V41.92"/>
				<path fill="#787878" d="M108.669,41.551c0.001-0.216-0.004-0.433-0.017-0.649c0.106,0,0.214,0,0.32,0l0.017,0.408h0.012
					c0.089-0.271,0.361-0.518,0.663-0.443c0,0.111,0.024,0.245,0,0.353c-0.863-0.086-0.634,1.239-0.634,1.762h-0.365L108.669,41.551
					"/>
				<path fill="#787878" d="M110.442,39.93h0.366v1.302h0.009c0.612-1.098,1.693,0.162,1.5,1.022
					c-0.16,0.716-1.121,1.119-1.555,0.384l-0.021,0.344h-0.316c0.012-0.142,0.017-0.353,0.017-0.538V39.93 M110.809,42.148
					c0,0.897,1.174,0.618,1.174-0.22c0-0.858-1.174-1.062-1.174-0.154V42.148"/>
				<path fill="#787878" d="M69.314,46.918c0.012,0.702,0.69,0.851,1.244,0.619c0.023,0.089,0.045,0.178,0.066,0.266
					c-1.031,0.48-2.035-0.412-1.549-1.488c0.47-1.04,1.854-0.443,1.65,0.607L69.314,46.918 M70.385,46.647
					c0.014-0.806-0.984-0.75-1.066,0H70.385"/>
				<path fill="#787878" d="M71.612,46.462c0.001-0.217-0.005-0.433-0.017-0.649c0.106,0,0.214,0,0.32,0l0.018,0.409h0.012
					c0.124-0.379,0.814-0.734,0.662-0.09c-0.862-0.1-0.633,1.25-0.633,1.762h-0.367L71.612,46.462"/>
				<path fill="#787878" d="M76.12,47.821c-0.896,0.44-1.771-0.305-1.546-1.25c0.176-0.747,1.762-1.09,1.472-0.404
					c-1.367-0.741-1.525,2.072,0.013,1.371L76.12,47.821"/>
				<path fill="#787878" d="M77.761,47.941c-1.3,0-1.259-2.175,0.034-2.175c1.309,0,1.265,2.175-0.029,2.175H77.761 M77.774,47.657
					c0.815,0,0.83-1.607,0.009-1.607c-0.829,0-0.833,1.607-0.013,1.607H77.774"/>
				<path fill="#787878" d="M79.643,46.376c0-0.188-0.005-0.375-0.017-0.563c0.107,0,0.214,0,0.321,0l0.017,0.335h0.013
					c0.28-0.49,0.99-0.515,1.212,0.035c0.325-0.631,1.163-0.5,1.306,0.167c0.104,0.489,0.03,1.047,0.03,1.543h-0.357v-1.177
					c0-0.721-0.903-0.861-0.903-0.112c-0.114,0.354,0,0.913,0,1.289h-0.358v-1.247c0-0.783-0.904-0.659-0.904,0.046
					c0,0.4,0,0.801,0,1.201h-0.358V46.376"/>
				<path fill="#787878" d="M86.204,47.575h-0.009c-0.585,1.096-1.665-0.21-1.472-1.041c0.152-0.667,1.081-1.127,1.502-0.408
					l0.013-0.314h0.349c-0.066,0.972-0.017,1.958-0.017,2.932h-0.366V47.575 M86.204,46.656c0-0.904-1.149-0.624-1.149,0.21
					c0,0.832,1.149,1.069,1.149,0.181V46.656"/>
				<path fill="#787878" d="M89.276,47.327c-0.002,0.189,0.006,0.378,0.018,0.567c-0.108,0-0.218,0-0.326,0l-0.02-0.339h-0.009
					c-0.337,0.62-1.198,0.448-1.331-0.205c-0.101-0.488-0.03-1.042-0.03-1.537h0.366v1.148c0,0.756,0.966,0.894,0.966,0.125
					c0.113-0.349,0-0.902,0-1.272h0.366V47.327"/>
				<path fill="#787878" d="M90.509,46.918c0.012,0.702,0.691,0.851,1.245,0.619c0.023,0.089,0.044,0.178,0.066,0.266
					c-1.03,0.478-2.038-0.409-1.55-1.488c0.47-1.04,1.854-0.444,1.649,0.607L90.509,46.918 M91.578,46.647
					c0.018-0.807-0.982-0.75-1.064,0H91.578"/>
				<path fill="#787878" d="M95.521,47.395c-0.001,0.167,0.009,0.333,0.029,0.499c-0.107,0-0.225,0.019-0.329,0l-0.033-0.262h-0.013
					c-0.328,0.498-1.231,0.373-1.231-0.288c0-0.684,0.777-0.723,1.21-0.816c0-0.545-0.614-0.587-0.985-0.327
					c-0.027-0.084-0.056-0.169-0.083-0.254c0.648-0.419,1.436-0.12,1.436,0.671V47.395 M95.163,46.833
					c-0.314-0.007-0.854,0.031-0.854,0.468c0,0.588,0.854,0.371,0.854-0.108V46.833"/>
				<path fill="#787878" d="M97.823,46.492c0.002-0.227-0.004-0.453-0.016-0.679c0.102,0,0.229-0.026,0.328,0l0.021,0.357h0.007
					c0.629-1.108,1.732,0.098,1.536,0.996c-0.149,0.678-1.046,1.112-1.511,0.449v1.13h-0.366V46.492 M98.189,47.047
					c0,0.912,1.175,0.644,1.175-0.207c0-0.854-1.175-1.055-1.175-0.154V47.047"/>
				<path fill="#787878" d="M101.434,47.941c-1.301,0-1.26-2.175,0.033-2.175c1.308,0,1.264,2.175-0.029,2.175H101.434
					 M101.445,47.657c0.814,0,0.831-1.607,0.009-1.607c-0.827,0-0.831,1.607-0.012,1.607H101.445"/>
				<path fill="#787878" d="M105.001,47.327c-0.001,0.189,0.003,0.378,0.018,0.567c-0.108,0-0.218,0-0.325,0l-0.021-0.339h-0.01
					c-0.338,0.617-1.196,0.45-1.331-0.205c-0.1-0.488-0.029-1.042-0.029-1.537h0.365v1.148c0,0.756,0.968,0.894,0.968,0.125
					c0.112-0.349,0-0.902,0-1.272h0.365V47.327"/>
				<path fill="#787878" d="M107.462,47.821c-0.896,0.438-1.772-0.303-1.548-1.25c0.176-0.748,1.762-1.088,1.472-0.404
					c-1.356-0.745-1.531,2.072,0.014,1.371L107.462,47.821"/>
				<path fill="#787878" d="M109.729,47.395c-0.002,0.167,0.009,0.333,0.03,0.499c-0.106,0-0.225,0.019-0.329,0l-0.033-0.262h-0.013
					c-0.329,0.498-1.232,0.373-1.232-0.288c0-0.684,0.778-0.723,1.212-0.816c0-0.545-0.615-0.587-0.987-0.327
					c-0.028-0.084-0.055-0.169-0.083-0.254c0.647-0.417,1.436-0.122,1.436,0.671V47.395 M109.373,46.833
					c-0.315-0.007-0.854,0.031-0.854,0.468c0,0.588,0.854,0.371,0.854-0.108V46.833"/>
				<path fill="#787878" d="M112.207,45.431c-0.304,0-0.297-0.486,0.009-0.486c0.309,0,0.304,0.486-0.004,0.486H112.207
					 M112.032,47.894v-2.081h0.367v2.081H112.032"/>
				<path fill="#787878" d="M69.414,52.854c-1.301,0-1.26-2.175,0.033-2.175c1.309,0,1.264,2.175-0.029,2.175H69.414 M69.427,52.57
					c0.814,0,0.831-1.608,0.009-1.608c-0.828,0-0.832,1.608-0.014,1.608H69.427"/>
				<path fill="#787878" d="M73.041,49.755v2.514c-0.002,0.179,0.004,0.358,0.016,0.537c-0.107,0-0.225,0.017-0.328,0l-0.018-0.361
					h-0.008c-0.547,1.13-1.703-0.103-1.518-0.974c0.141-0.66,1.022-1.149,1.488-0.479v-1.237H73.041 M72.674,51.573
					c0-0.909-1.149-0.639-1.149,0.201c0,0.847,1.149,1.062,1.149,0.159V51.573"/>
				<path fill="#787878" d="M75.751,52.239c-0.002,0.189,0.004,0.378,0.017,0.567c-0.107,0-0.217,0-0.325,0l-0.021-0.339h-0.009
					c-0.339,0.618-1.198,0.45-1.331-0.205c-0.101-0.488-0.03-1.042-0.03-1.536h0.367v1.147c0,0.756,0.965,0.895,0.965,0.125
					c0.112-0.349,0-0.902,0-1.272h0.367V52.239"/>
				<path fill="#787878" d="M78.215,52.728c-0.27,0.141-0.462,0.048-0.646,0.293c0.6,0.086,0.108,0.945-0.424,0.567
					c0.019-0.06,0.037-0.121,0.059-0.18c0.365,0.213,0.579-0.211,0.077-0.253c0.056-0.099,0.099-0.236,0.176-0.318
					c-0.751-0.102-1.021-1.005-0.693-1.621c0.242-0.458,1.674-0.857,1.372-0.137c-1.343-0.732-1.55,2.048,0.012,1.371L78.215,52.728
					"/>
				<path fill="#787878" d="M80.471,52.308c-0.001,0.167,0.009,0.333,0.031,0.498c-0.107,0-0.226,0.019-0.33,0l-0.033-0.262h-0.013
					c-0.329,0.497-1.232,0.373-1.232-0.288c0-0.685,0.779-0.722,1.212-0.817c0-0.545-0.617-0.586-0.987-0.326
					c-0.028-0.084-0.055-0.169-0.083-0.254c0.648-0.419,1.436-0.122,1.436,0.67V52.308 M79.231,50.395
					c0-0.639,0.711-0.218,1.016-0.438c0.014,0.851-0.794-0.065-0.829,0.438H79.231 M80.112,51.744
					c-0.313-0.007-0.853,0.031-0.853,0.469c0,0.588,0.853,0.371,0.853-0.107V51.744"/>
				<path fill="#787878" d="M82.295,52.854c-1.301,0-1.261-2.175,0.033-2.175c1.31,0,1.265,2.175-0.028,2.175H82.295 M82.308,52.57
					c0.816,0,0.83-1.608,0.008-1.608c-0.826,0-0.83,1.608-0.012,1.608H82.308"/>
				<path fill="#787878" d="M85.684,51.83c0.013,0.701,0.69,0.854,1.245,0.62c0.021,0.089,0.045,0.178,0.066,0.267
					c-1.032,0.482-2.036-0.413-1.551-1.488c0.477-1.053,1.825-0.436,1.651,0.607L85.684,51.83 M86.754,51.56
					c0.012-0.807-0.982-0.75-1.065,0H86.754"/>
				<path fill="#787878" d="M88.136,50.726l0.288,0.443c0.006,0.229,0.078,0.342,0.215,0.339c0.149-0.266,0.319-0.525,0.484-0.782
					h0.399l-0.688,1.006l0.704,1.074h-0.416l-0.296-0.468c-0.005-0.243-0.081-0.364-0.225-0.361
					c-0.152,0.283-0.331,0.559-0.504,0.83h-0.404l0.716-1.062l-0.682-1.019H88.136"/>
				<path fill="#787878" d="M91.729,52.308c-0.001,0.167,0.009,0.333,0.028,0.498c-0.106,0-0.225,0.019-0.328,0l-0.032-0.262h-0.014
					c-0.328,0.497-1.231,0.373-1.231-0.288c0-0.685,0.779-0.722,1.211-0.817c0-0.545-0.615-0.586-0.987-0.326
					c-0.027-0.084-0.056-0.169-0.082-0.254c0.647-0.417,1.436-0.122,1.436,0.67V52.308 M91.371,51.744
					c-0.314-0.007-0.854,0.031-0.854,0.469c0,0.588,0.854,0.371,0.854-0.107V51.744"/>
				<path fill="#787878" d="M94.455,52.501c0,0.429-0.076,0.903-0.511,1.101c-0.303,0.138-1.46,0.211-1.092-0.362
					c0.687,0.463,1.337-0.029,1.241-0.791h-0.009c-0.577,1.035-1.649-0.179-1.464-0.997c0.153-0.674,1.083-1.13,1.514-0.417
					l0.013-0.31h0.324c-0.012,0.146-0.017,0.314-0.017,0.568V52.501 M94.09,51.542c0-0.888-1.133-0.597-1.133,0.22
					c0,0.818,1.133,1.031,1.133,0.154V51.542"/>
				<path fill="#787878" d="M95.684,51.83c0.012,0.701,0.691,0.854,1.246,0.62c0.021,0.089,0.043,0.178,0.065,0.267
					c-1.032,0.482-2.035-0.413-1.55-1.488c0.476-1.053,1.825-0.436,1.65,0.607L95.684,51.83 M96.754,51.56
					c0.012-0.807-0.982-0.75-1.065,0H96.754"/>
				<path fill="#787878" d="M97.982,51.375c0.001-0.217-0.005-0.433-0.017-0.649c0.105,0,0.213,0,0.319,0l0.017,0.409h0.013
					c0.125-0.377,0.814-0.735,0.662-0.091c-0.864-0.086-0.633,1.241-0.633,1.762h-0.366L97.982,51.375"/>
				<path fill="#787878" d="M101.15,52.308c-0.001,0.167,0.009,0.333,0.028,0.498c-0.106,0-0.225,0.019-0.329,0l-0.032-0.262h-0.012
					c-0.332,0.494-1.234,0.375-1.234-0.288c0-0.685,0.78-0.722,1.212-0.817c0-0.545-0.614-0.586-0.986-0.326
					c-0.027-0.084-0.057-0.169-0.084-0.254c0.648-0.417,1.438-0.123,1.438,0.67V52.308 M100.791,51.744
					c-0.313-0.007-0.852,0.032-0.852,0.469c0,0.588,0.852,0.371,0.852-0.107V51.744"/>
				<path fill="#787878" d="M103.894,49.755v2.514c-0.001,0.179,0.004,0.358,0.017,0.537c-0.105,0-0.224,0.017-0.329,0l-0.017-0.361
					h-0.008c-0.548,1.129-1.702-0.103-1.518-0.974c0.14-0.66,1.023-1.15,1.488-0.479v-1.237H103.894 M103.527,51.573
					c0-0.909-1.148-0.638-1.148,0.201c0,0.847,1.148,1.063,1.148,0.159V51.573"/>
				<path fill="#787878" d="M106.337,52.308c-0.001,0.167,0.009,0.333,0.029,0.498c-0.106,0-0.225,0.019-0.329,0l-0.032-0.262
					h-0.014c-0.327,0.497-1.231,0.373-1.231-0.288c0-0.685,0.78-0.722,1.212-0.817c0-0.545-0.617-0.585-0.987-0.326
					c-0.028-0.084-0.056-0.169-0.082-0.254c0.647-0.42,1.435-0.12,1.435,0.67V52.308 M105.979,51.744
					c-0.313-0.007-0.854,0.032-0.854,0.469c0,0.588,0.854,0.371,0.854-0.107V51.744"/>
				<path fill="#787878" d="M110.38,49.755v2.514c-0.001,0.179,0.004,0.358,0.018,0.537c-0.106,0-0.225,0.017-0.33,0l-0.016-0.361
					h-0.009c-0.549,1.13-1.702-0.103-1.518-0.974c0.141-0.66,1.022-1.149,1.488-0.479v-1.237H110.38 M110.014,51.573
					c0-0.909-1.149-0.638-1.149,0.201c0,0.846,1.149,1.063,1.149,0.159V51.573"/>
				<path fill="#787878" d="M68.211,56.201c0.002-0.188-0.004-0.375-0.016-0.563c0.107,0,0.215,0,0.324,0l0.021,0.34h0.009
					c0.316-0.619,1.195-0.446,1.344,0.184c0.115,0.488,0.033,1.061,0.033,1.556H69.56V56.52c0-0.806-0.982-0.759-0.982-0.003
					c0,0.401,0,0.801,0,1.202h-0.366V56.201"/>
				<path fill="#787878" d="M71.113,55.256c-0.305,0-0.297-0.486,0.008-0.486c0.309,0,0.304,0.486-0.004,0.486H71.113
					 M70.938,57.718v-2.08h0.367v2.08H70.938"/>
				<path fill="#787878" d="M73.148,57.766c-1.301,0-1.26-2.176,0.033-2.176c1.309,0,1.264,2.176-0.029,2.176H73.148 M73.161,57.482
					c0.814,0,0.831-1.607,0.009-1.607c-0.828,0-0.831,1.607-0.013,1.607H73.161"/>
				<path fill="#787878" d="M76.33,56.317c0.002-0.227-0.005-0.453-0.019-0.679c0.104,0,0.232-0.026,0.329,0l0.021,0.356h0.009
					c0.626-1.109,1.73,0.1,1.534,0.997c-0.149,0.676-1.046,1.112-1.509,0.448v1.131H76.33V56.317 M76.696,56.872
					c0,0.912,1.173,0.644,1.173-0.206c0-0.854-1.173-1.056-1.173-0.155V56.872"/>
				<path fill="#787878" d="M79.118,56.288c0.001-0.217-0.003-0.433-0.015-0.649c0.104,0,0.212,0,0.318,0l0.017,0.408h0.014
					c0.087-0.269,0.359-0.52,0.66-0.442c0,0.112,0.026,0.245,0,0.353c-0.863-0.087-0.632,1.242-0.632,1.762h-0.365L79.118,56.288"/>
				<path fill="#787878" d="M81.688,57.766c-1.3,0-1.261-2.176,0.033-2.176c1.308,0,1.265,2.176-0.029,2.176H81.688 M81.699,57.482
					c0.815,0,0.832-1.607,0.01-1.607c-0.829,0-0.832,1.607-0.015,1.607H81.699"/>
				<path fill="#787878" d="M85.313,54.666v2.515c-0.002,0.18,0.004,0.359,0.017,0.538c-0.107,0-0.224,0.017-0.328,0l-0.018-0.361
					h-0.009c-0.548,1.129-1.701-0.103-1.516-0.974c0.14-0.661,1.022-1.149,1.487-0.479v-1.238H85.313 M84.947,56.484
					c0-0.909-1.149-0.638-1.149,0.202c0,0.847,1.149,1.062,1.149,0.159V56.484"/>
				<path fill="#787878" d="M88.024,57.151c-0.001,0.189,0.004,0.378,0.016,0.567c-0.108,0-0.217,0-0.324,0l-0.021-0.339h-0.009
					c-0.337,0.62-1.197,0.449-1.33-0.205c-0.101-0.488-0.03-1.042-0.03-1.536h0.366v1.147c0,0.756,0.965,0.895,0.965,0.125
					c0.113-0.349,0-0.902,0-1.272h0.368V57.151"/>
				<path fill="#787878" d="M88.817,57.499l0.912-1.225c0.18-0.079,0.27-0.191,0.267-0.335h-1.094v-0.3h1.535v0.236l-0.903,1.211
					c-0.174,0.08-0.26,0.19-0.258,0.332h1.179v0.301h-1.638V57.499"/>
				<path fill="#787878" d="M91.42,55.256c-0.304,0-0.296-0.486,0.009-0.486c0.31,0,0.305,0.486-0.003,0.486H91.42 M91.246,57.718
					v-2.08h0.366v2.08H91.246"/>
				<path fill="#787878" d="M94.377,54.666v2.515c-0.002,0.18,0.004,0.359,0.016,0.538c-0.106,0-0.223,0.017-0.328,0l-0.017-0.361
					h-0.009c-0.544,1.131-1.703-0.104-1.516-0.974c0.14-0.661,1.02-1.149,1.486-0.479v-1.238H94.377 M94.01,56.484
					c0-0.909-1.149-0.638-1.149,0.202c0,0.847,1.149,1.062,1.149,0.159V56.484"/>
				<path fill="#787878" d="M96.221,57.766c-1.3,0-1.259-2.176,0.034-2.176c1.308,0,1.263,2.176-0.029,2.176H96.221 M96.233,57.482
					c0.814,0,0.831-1.607,0.009-1.607c-0.828,0-0.831,1.607-0.013,1.607H96.233"/>
				<path fill="#787878" d="M99.4,56.317c0.003-0.227-0.003-0.453-0.016-0.679c0.102,0,0.229-0.026,0.328,0l0.021,0.356h0.009
					c0.625-1.11,1.73,0.101,1.534,0.997c-0.149,0.676-1.046,1.112-1.509,0.448v1.131H99.4V56.317 M99.769,56.872
					c0,0.912,1.173,0.644,1.173-0.206c0-0.854-1.173-1.056-1.173-0.155V56.872"/>
				<path fill="#787878" d="M102.398,56.742c0.012,0.705,0.69,0.85,1.246,0.62c0.021,0.088,0.045,0.177,0.065,0.266
					c-1.03,0.482-2.035-0.413-1.55-1.489c0.47-1.038,1.857-0.443,1.65,0.607L102.398,56.742 M103.47,56.472
					c0.012-0.808-0.981-0.75-1.067,0H103.47"/>
				<path fill="#787878" d="M104.693,54.666h0.365v3.052h-0.365V54.666"/>
				<path fill="#787878" d="M106.903,57.766c-1.3,0-1.26-2.176,0.034-2.176c1.307,0,1.264,2.176-0.03,2.176H106.903 M106.915,57.482
					c0.814,0,0.832-1.607,0.009-1.607c-0.828,0-0.83,1.607-0.012,1.607H106.915"/>
				<path fill="#787878" d="M110.084,56.317c0.002-0.227-0.004-0.453-0.017-0.679c0.104,0,0.231-0.026,0.33,0l0.021,0.356h0.008
					c0.625-1.11,1.731,0.101,1.535,0.997c-0.149,0.676-1.048,1.112-1.511,0.448v1.131h-0.366V56.317 M110.45,56.872
					c0,0.912,1.174,0.644,1.174-0.206c0-0.854-1.174-1.056-1.174-0.155V56.872"/>
				<path fill="#787878" d="M67.994,61.113c0-0.187-0.006-0.375-0.016-0.562c0.105,0,0.213,0,0.32,0l0.016,0.335h0.014
					c0.279-0.491,0.99-0.512,1.211,0.035c0.326-0.631,1.164-0.5,1.307,0.167c0.104,0.488,0.03,1.047,0.03,1.542h-0.358v-1.178
					c0-0.722-0.903-0.861-0.903-0.112c-0.113,0.354,0,0.914,0,1.29h-0.358v-1.247c0-0.783-0.904-0.659-0.904,0.045
					c0,0.4,0,0.801,0,1.201h-0.357V61.113"/>
				<path fill="#787878" d="M72.703,62.677c-1.301,0-1.261-2.174,0.033-2.174c1.309,0,1.264,2.174-0.029,2.174H72.703
					 M72.716,62.394c0.815,0,0.831-1.608,0.009-1.608c-0.828,0-0.832,1.608-0.014,1.608H72.716"/>
				<path fill="#787878" d="M74.689,60.55l0.395,1.165c0.019,0.056,0.16,0.488,0.175,0.538c0.154-0.575,0.374-1.139,0.563-1.702
					h0.382l-0.791,2.08h-0.35l-0.766-2.08H74.689"/>
				<path fill="#787878" d="M77.128,61.655c0.013,0.702,0.69,0.852,1.245,0.619c0.021,0.089,0.045,0.178,0.067,0.267
					c-1.032,0.479-2.037-0.413-1.55-1.489c0.47-1.04,1.853-0.443,1.649,0.607L77.128,61.655 M78.198,61.384
					c0.014-0.807-0.981-0.749-1.064,0H78.198"/>
				<path fill="#787878" d="M79.427,61.199c0.001-0.216-0.005-0.433-0.017-0.648c0.107,0,0.214,0,0.32,0l0.018,0.408h0.012
					c0.087-0.269,0.36-0.52,0.662-0.442c0,0.111,0.024,0.244,0,0.353c-0.864-0.101-0.634,1.25-0.634,1.762h-0.366L79.427,61.199"/>
				<path fill="#787878" d="M83.919,62.132c-0.001,0.167,0.009,0.333,0.028,0.499c-0.106,0-0.225,0.018-0.328,0l-0.033-0.262h-0.012
					c-0.331,0.496-1.233,0.375-1.233-0.288c0-0.684,0.778-0.723,1.211-0.816c0-0.545-0.614-0.588-0.986-0.328
					c-0.027-0.084-0.057-0.169-0.083-0.253c0.647-0.417,1.437-0.123,1.437,0.67V62.132 M83.561,61.569
					c-0.314-0.007-0.853,0.031-0.853,0.468c0,0.589,0.853,0.371,0.853-0.107V61.569"/>
				<path fill="#787878" d="M86.429,61.655c0.012,0.702,0.69,0.852,1.245,0.619c0.022,0.089,0.044,0.178,0.067,0.267
					c-1.032,0.477-2.038-0.41-1.552-1.489c0.471-1.04,1.854-0.443,1.651,0.607L86.429,61.655 M87.499,61.384
					c0.017-0.807-0.982-0.75-1.065,0H87.499"/>
				<path fill="#787878" d="M88.724,61.113c0.001-0.187-0.005-0.375-0.017-0.562c0.107,0,0.215,0,0.323,0l0.022,0.339h0.008
					c0.317-0.618,1.195-0.446,1.344,0.185c0.115,0.488,0.033,1.06,0.033,1.556h-0.366v-1.199c0-0.805-0.982-0.759-0.982-0.002
					c0,0.4,0,0.801,0,1.201h-0.365V61.113"/>
				<path fill="#787878" d="M91.875,60.052v0.499h0.523v0.288h-0.523v1.123c0,0.31,0.169,0.48,0.487,0.378
					c0.006,0.096,0.011,0.191,0.017,0.288c-1.099,0.4-0.863-1.183-0.863-1.788h-0.311V60.55h0.311v-0.382L91.875,60.052"/>
				<path fill="#787878" d="M93.231,61.199c0.002-0.216-0.003-0.433-0.016-0.648c0.105,0,0.212,0,0.319,0l0.017,0.408h0.014
					c0.087-0.27,0.36-0.518,0.662-0.442c0,0.111,0.024,0.244,0,0.353c-0.864-0.1-0.634,1.248-0.634,1.762h-0.365L93.231,61.199"/>
				<path fill="#787878" d="M96.4,62.132c-0.001,0.167,0.008,0.333,0.028,0.499c-0.107,0-0.225,0.018-0.329,0l-0.033-0.262h-0.012
					c-0.329,0.499-1.232,0.373-1.232-0.288c0-0.684,0.779-0.723,1.212-0.816c0-0.545-0.615-0.587-0.987-0.328
					c-0.027-0.084-0.056-0.169-0.083-0.253c0.647-0.417,1.437-0.123,1.437,0.67V62.132 M96.042,61.569
					c-0.313-0.007-0.854,0.031-0.854,0.468c0,0.589,0.854,0.371,0.854-0.107V61.569"/>
				<path fill="#787878" d="M99.144,59.579v2.515c-0.001,0.179,0.005,0.358,0.017,0.537c-0.107,0-0.224,0.016-0.328,0l-0.018-0.361
					h-0.009c-0.547,1.128-1.701-0.103-1.516-0.973c0.14-0.661,1.021-1.149,1.488-0.479v-1.238H99.144 M98.778,61.397
					c0-0.909-1.149-0.638-1.149,0.202c0,0.846,1.149,1.062,1.149,0.159V61.397"/>
				<path fill="#787878" d="M101.587,62.132c-0.003,0.167,0.008,0.333,0.03,0.499c-0.106,0-0.226,0.018-0.33,0l-0.033-0.262h-0.013
					c-0.328,0.498-1.231,0.373-1.231-0.288c0-0.684,0.777-0.723,1.212-0.816c0-0.545-0.616-0.587-0.987-0.328
					c-0.028-0.084-0.056-0.169-0.084-0.253c0.648-0.417,1.437-0.123,1.437,0.67V62.132 M101.229,61.569
					c-0.313-0.007-0.854,0.031-0.854,0.468c0,0.589,0.854,0.371,0.854-0.107V61.569"/>
				<path fill="#787878" d="M105.63,59.579v2.515c-0.002,0.179,0.004,0.358,0.017,0.537c-0.106,0-0.223,0.016-0.328,0l-0.018-0.361
					h-0.009c-0.548,1.129-1.7-0.103-1.517-0.973c0.14-0.661,1.023-1.149,1.488-0.479v-1.238H105.63 M105.264,61.397
					c0-0.909-1.149-0.638-1.149,0.202c0,0.846,1.149,1.062,1.149,0.159V61.397"/>
				<path fill="#787878" d="M108.073,62.132c-0.003,0.167,0.008,0.333,0.03,0.499c-0.107,0-0.226,0.018-0.33,0l-0.032-0.262h-0.014
					c-0.328,0.499-1.231,0.373-1.231-0.288c0-0.684,0.778-0.723,1.211-0.816c0-0.545-0.615-0.587-0.987-0.328
					c-0.027-0.084-0.055-0.169-0.082-0.253c0.647-0.417,1.436-0.123,1.436,0.67V62.132 M107.716,61.569
					c-0.314-0.007-0.854,0.031-0.854,0.468c0,0.589,0.854,0.371,0.854-0.107V61.569"/>
				<path fill="#787878" d="M71.475,74.315v2.515c-0.001,0.18,0.005,0.358,0.018,0.537c-0.107,0-0.225,0.017-0.329,0l-0.017-0.36
					h-0.008c-0.548,1.128-1.703-0.104-1.518-0.975c0.141-0.66,1.021-1.149,1.488-0.479v-1.238H71.475 M71.109,76.135
					c0-0.91-1.149-0.639-1.149,0.2c0,0.848,1.149,1.062,1.149,0.159V76.135"/>
				<path fill="#787878" d="M72.707,76.391c0.012,0.7,0.691,0.854,1.245,0.619c0.022,0.09,0.044,0.179,0.067,0.269
					c-1.031,0.479-2.037-0.414-1.55-1.489c0.47-1.039,1.853-0.443,1.649,0.606L72.707,76.391 M73.778,76.121
					c0.015-0.807-0.984-0.751-1.067,0H73.778"/>
				<path fill="#787878" d="M76.51,76.391c0.01,0.7,0.689,0.854,1.243,0.619c0.023,0.09,0.045,0.179,0.065,0.269
					c-1.029,0.479-2.035-0.414-1.548-1.489c0.47-1.039,1.854-0.443,1.649,0.606L76.51,76.391 M77.579,76.121
					c0.014-0.807-0.983-0.751-1.066,0H77.579"/>
				<path fill="#787878" d="M78.803,75.85c0-0.188-0.005-0.376-0.017-0.562c0.107,0,0.216,0,0.324,0l0.021,0.34h0.007
					c0.32-0.617,1.196-0.449,1.346,0.185c0.115,0.487,0.034,1.061,0.034,1.556h-0.367v-1.2c0-0.806-0.982-0.758-0.982-0.001
					c0,0.4,0,0.801,0,1.201h-0.366V75.85"/>
				<path fill="#787878" d="M81.737,76.391c0.012,0.7,0.69,0.854,1.245,0.619c0.021,0.09,0.044,0.179,0.066,0.269
					c-1.031,0.48-2.036-0.415-1.551-1.489c0.471-1.039,1.854-0.444,1.65,0.606L81.737,76.391 M82.808,76.121
					c0.017-0.807-0.982-0.751-1.066,0H82.808"/>
				<path fill="#787878" d="M84.036,75.936c0.001-0.215-0.005-0.433-0.017-0.648c0.105,0,0.212,0,0.319,0l0.017,0.407h0.014
					c0.124-0.377,0.813-0.732,0.661-0.089c-0.863-0.103-0.633,1.252-0.633,1.762h-0.366L84.036,75.936"/>
				<path fill="#545454" d="M87.499,77.062c0,0.429-0.076,0.902-0.511,1.102c-0.303,0.138-1.46,0.211-1.092-0.361
					c0.686,0.463,1.337-0.03,1.239-0.792h-0.008c-0.575,1.035-1.649-0.179-1.464-0.995c0.154-0.675,1.084-1.132,1.515-0.417
					l0.013-0.311h0.324c-0.012,0.146-0.017,0.313-0.017,0.567V77.062 M87.133,76.103c0-0.888-1.132-0.596-1.132,0.22
					c0,0.819,1.132,1.031,1.132,0.155V76.103"/>
				<path fill="#545454" d="M88.693,74.905c-0.305,0-0.298-0.486,0.008-0.486c0.311,0,0.306,0.486-0.003,0.486H88.693 M88.52,77.367
					v-2.08h0.366v2.08H88.52"/>
				<path fill="#545454" d="M91.329,76.869c-0.001,0.165,0.009,0.332,0.028,0.498c-0.105,0-0.224,0.018-0.328,0l-0.034-0.262h-0.012
					c-0.329,0.497-1.231,0.372-1.231-0.288c0-0.686,0.779-0.723,1.212-0.817c0-0.546-0.616-0.585-0.987-0.326
					c-0.028-0.085-0.056-0.169-0.084-0.254c0.648-0.42,1.437-0.122,1.437,0.671V76.869 M90.972,76.306
					c-0.313-0.006-0.854,0.029-0.854,0.468c0,0.588,0.854,0.372,0.854-0.106V76.306"/>
				<path fill="#545454" d="M92.487,77.414c-0.325,0-0.316-0.54,0.008-0.54c0.329,0,0.323,0.54-0.005,0.54H92.487"/>
				<path fill="#545454" d="M96.93,77.791c-0.601-0.162-1.677-0.29-2.116-0.77c-0.567-0.62-0.493-1.851,0.19-2.361
					c1.632-1.211,2.887,1.881,1.208,2.634c0.279,0.073,0.583,0.142,0.82,0.185L96.93,77.791 M95.729,77.109
					c1.208,0,1.219-2.381,0.013-2.381c-1.219,0-1.235,2.381-0.017,2.381H95.729"/>
				<path fill="#545454" d="M99.576,76.8c-0.002,0.19,0.005,0.379,0.018,0.567c-0.108,0-0.218,0-0.326,0l-0.02-0.34H99.24
					c-0.464,0.848-1.362,0.221-1.362-0.524c-0.046-0.395,0-0.817,0-1.216h0.365v1.146c0,0.757,0.967,0.895,0.967,0.125
					c0.113-0.349,0-0.901,0-1.271h0.366V76.8"/>
				<path fill="#545454" d="M102.021,76.869c-0.001,0.165,0.008,0.332,0.028,0.498c-0.107,0-0.225,0.018-0.328,0l-0.033-0.262
					h-0.013c-0.329,0.497-1.232,0.372-1.232-0.288c0-0.686,0.78-0.723,1.211-0.817c0-0.546-0.614-0.585-0.987-0.326
					c-0.026-0.085-0.055-0.169-0.082-0.254c0.647-0.42,1.437-0.122,1.437,0.671V76.869 M101.663,76.306
					c-0.313-0.006-0.854,0.029-0.854,0.468c0,0.588,0.854,0.372,0.854-0.106V76.306"/>
				<path fill="#545454" d="M103.024,75.85c0.001-0.188-0.005-0.376-0.017-0.562c0.107,0,0.216,0,0.323,0l0.022,0.34h0.008
					c0.317-0.618,1.195-0.448,1.344,0.185c0.114,0.487,0.033,1.061,0.033,1.556h-0.366v-1.2c0-0.806-0.982-0.758-0.982-0.001
					c0,0.4,0,0.801,0,1.201h-0.365V75.85"/>
				<path fill="#545454" d="M107.49,74.315v2.515c-0.001,0.18,0.005,0.358,0.018,0.537c-0.107,0-0.224,0.017-0.329,0l-0.017-0.36
					h-0.01c-0.544,1.129-1.701-0.104-1.516-0.975c0.141-0.66,1.022-1.149,1.487-0.479v-1.238H107.49 M107.124,76.135
					c0-0.91-1.149-0.639-1.149,0.2c0,0.848,1.149,1.062,1.149,0.159V76.135"/>
				<path fill="#545454" d="M109.335,77.414c-1.3,0-1.26-2.175,0.034-2.175c1.307,0,1.264,2.175-0.03,2.175H109.335 M109.347,77.131
					c0.814,0,0.832-1.607,0.01-1.607c-0.83,0-0.832,1.607-0.013,1.607H109.347"/>
				<path fill="#787878" d="M69.214,81.896c0.228,0.139,0.874,0.301,0.874-0.162c0-0.417-0.67-0.409-0.85-0.739
					c-0.47-0.871,1.35-1.134,1.042-0.444c-0.177-0.104-0.48-0.199-0.66-0.035c-0.393,0.36,0.421,0.588,0.584,0.709
					c0.836,0.619-0.402,1.366-1.077,0.955L69.214,81.896"/>
				<path fill="#787878" d="M72.748,81.78c-0.001,0.167,0.009,0.334,0.029,0.499c-0.105,0-0.223,0.018-0.328,0l-0.033-0.262h-0.012
					c-0.33,0.497-1.232,0.373-1.232-0.288c0-0.685,0.779-0.723,1.211-0.817c0-0.546-0.614-0.585-0.986-0.326
					c-0.027-0.084-0.056-0.169-0.084-0.254c0.648-0.421,1.436-0.121,1.436,0.671V81.78 M72.391,81.219
					c-0.314-0.008-0.853,0.029-0.853,0.468c0,0.587,0.853,0.371,0.853-0.107V81.219"/>
				<path fill="#787878" d="M73.752,80.763c0.002-0.188-0.003-0.376-0.016-0.563c0.107,0,0.216,0,0.324,0l0.021,0.34h0.008
					c0.317-0.617,1.196-0.447,1.344,0.185c0.115,0.487,0.034,1.061,0.034,1.556h-0.367V81.08c0-0.806-0.981-0.76-0.981-0.003
					c0,0.401,0,0.802,0,1.202h-0.367V80.763"/>
				<path fill="#545454" d="M78.203,81.975c0,0.428-0.076,0.903-0.512,1.101c-0.302,0.138-1.461,0.211-1.092-0.362
					c0.685,0.468,1.338-0.031,1.241-0.79h-0.008c-0.577,1.032-1.651-0.179-1.465-0.997c0.154-0.674,1.084-1.131,1.513-0.417
					l0.015-0.31h0.324c-0.012,0.146-0.017,0.314-0.017,0.566V81.975 M77.836,81.015c0-0.887-1.133-0.596-1.133,0.221
					s1.133,1.03,1.133,0.154V81.015"/>
				<path fill="#545454" d="M80.909,81.712c-0.002,0.19,0.004,0.38,0.017,0.567c-0.108,0-0.217,0-0.325,0L80.58,81.94h-0.009
					c-0.339,0.619-1.198,0.448-1.332-0.205c-0.099-0.488-0.029-1.041-0.029-1.536h0.367v1.147c0,0.756,0.965,0.893,0.965,0.124
					c0.112-0.349,0-0.902,0-1.271h0.367V81.712"/>
				<path fill="#545454" d="M82.699,79.331l-0.508,0.614h-0.26l0.368-0.614H82.699 M81.932,82.279v-2.08H82.3v2.08H81.932"/>
				<path fill="#545454" d="M83.324,80.763c0.002-0.188-0.006-0.376-0.018-0.563c0.108,0,0.217,0,0.325,0l0.021,0.34h0.009
					c0.317-0.619,1.195-0.446,1.344,0.185c0.115,0.487,0.033,1.061,0.033,1.556h-0.365V81.08c0-0.806-0.982-0.76-0.982-0.003
					c0,0.401,0,0.802,0,1.202h-0.366V80.763"/>
				<path fill="#545454" d="M86.258,81.303c0.012,0.701,0.691,0.854,1.246,0.62c0.021,0.088,0.045,0.177,0.065,0.266
					c-1.03,0.491-2.033-0.419-1.55-1.487c0.47-1.039,1.854-0.443,1.651,0.606L86.258,81.303 M87.329,81.034
					c0.016-0.808-0.983-0.751-1.066,0H87.329"/>
				<path fill="#545454" d="M89.972,81.78c-0.001,0.167,0.01,0.334,0.029,0.499c-0.106,0-0.225,0.018-0.329,0l-0.032-0.262h-0.014
					c-0.327,0.497-1.231,0.373-1.231-0.288c0-0.684,0.779-0.723,1.211-0.817c0-0.546-0.615-0.586-0.986-0.326
					c-0.027-0.084-0.056-0.169-0.082-0.254c0.647-0.422,1.435-0.119,1.435,0.671V81.78 M89.613,81.219
					c-0.313-0.008-0.852,0.029-0.852,0.468c0,0.587,0.852,0.371,0.852-0.107V81.219"/>
				<path fill="#545454" d="M90.738,82.812c0.15-0.422,0.041-1.186,0.658-1.074c-0.102,0.365-0.283,0.841-0.399,1.044L90.738,82.812
					"/>
				<path fill="#545454" d="M94.685,81.78c-0.002,0.167,0.008,0.334,0.029,0.499c-0.105,0-0.225,0.018-0.329,0l-0.033-0.262h-0.013
					c-0.329,0.496-1.231,0.373-1.231-0.288c0-0.685,0.779-0.723,1.212-0.817c0-0.546-0.616-0.585-0.987-0.326
					c-0.028-0.084-0.056-0.169-0.084-0.254c0.647-0.419,1.437-0.122,1.437,0.671V81.78 M94.327,81.219
					c-0.314-0.008-0.854,0.029-0.854,0.468c0,0.587,0.854,0.371,0.854-0.107V81.219"/>
				<path fill="#545454" d="M97.162,79.816c-0.306,0-0.298-0.485,0.008-0.485c0.31,0,0.305,0.485-0.003,0.485H97.162 M96.987,82.279
					v-2.08h0.366v2.08H96.987"/>
				<path fill="#545454" d="M98.378,80.763c0.002-0.188-0.004-0.376-0.018-0.563c0.108,0,0.217,0,0.324,0l0.021,0.34h0.01
					c0.315-0.619,1.193-0.446,1.343,0.185c0.115,0.487,0.033,1.061,0.033,1.556h-0.365V81.08c0-0.806-0.982-0.76-0.982-0.003
					c0,0.401,0,0.802,0,1.202h-0.366V80.763"/>
				<path fill="#545454" d="M101.055,81.896c0.227,0.139,0.874,0.301,0.874-0.162c0-0.416-0.671-0.409-0.851-0.739
					c-0.471-0.87,1.348-1.135,1.042-0.444c-0.176-0.104-0.48-0.201-0.66-0.035c-0.394,0.36,0.421,0.588,0.584,0.709
					c0.837,0.619-0.403,1.366-1.076,0.955L101.055,81.896"/>
				<path fill="#545454" d="M104.856,81.712c-0.001,0.19,0.003,0.379,0.015,0.567c-0.107,0-0.216,0-0.324,0l-0.021-0.339h-0.009
					c-0.338,0.619-1.197,0.448-1.33-0.205c-0.102-0.488-0.03-1.041-0.03-1.536h0.366v1.147c0,0.756,0.965,0.893,0.965,0.124
					c0.113-0.349,0-0.902,0-1.271h0.368V81.712"/>
				<path fill="#545454" d="M105.879,79.228h0.367v3.052h-0.367V79.228"/>
				<path fill="#545454" d="M107.444,79.816c-0.305,0-0.298-0.485,0.009-0.485c0.309,0,0.304,0.485-0.003,0.485H107.444
					 M107.269,82.279v-2.08h0.368v2.08H107.269"/>
				<path fill="#545454" d="M108.66,80.763c0.003-0.188-0.004-0.376-0.017-0.563c0.108,0,0.217,0,0.325,0l0.021,0.34h0.009
					c0.317-0.619,1.195-0.446,1.344,0.185c0.115,0.487,0.033,1.061,0.033,1.556h-0.365V81.08c0-0.806-0.982-0.76-0.982-0.003
					c0,0.401,0,0.802,0,1.202h-0.367V80.763"/>
				<path fill="#545454" d="M112.807,81.78c-0.001,0.167,0.009,0.334,0.029,0.499c-0.106,0-0.225,0.018-0.329,0l-0.034-0.262h-0.012
					c-0.327,0.497-1.231,0.373-1.231-0.288c0-0.685,0.779-0.723,1.212-0.817c0-0.546-0.616-0.585-0.987-0.326
					c-0.028-0.084-0.056-0.169-0.084-0.254c0.649-0.419,1.437-0.122,1.437,0.671V81.78 M112.449,81.219
					c-0.313-0.006-0.854,0.029-0.854,0.468c0,0.587,0.854,0.371,0.854-0.107V81.219"/>
				<path fill="#545454" d="M69.693,86.973l0.912-1.225c0.18-0.08,0.268-0.191,0.266-0.336h-1.094v-0.301h1.535v0.235l-0.903,1.213
					c-0.174,0.079-0.26,0.189-0.258,0.332h1.178v0.3h-1.636V86.973"/>
				<path fill="#545454" d="M72.3,86.216c0.011,0.7,0.69,0.854,1.245,0.619c0.021,0.088,0.043,0.178,0.066,0.266
					c-1.031,0.48-2.036-0.411-1.55-1.488c0.47-1.04,1.853-0.442,1.649,0.608L72.3,86.216 M73.369,85.944
					c0.012-0.807-0.982-0.75-1.065,0H73.369"/>
				<path fill="#545454" d="M74.594,85.675c0.001-0.189-0.005-0.377-0.018-0.563c0.109,0,0.218,0,0.325,0l0.021,0.339h0.008
					c0.32-0.615,1.196-0.446,1.346,0.186c0.115,0.487,0.033,1.06,0.033,1.556h-0.365v-1.199c0-0.805-0.984-0.759-0.984-0.002
					c0,0.4,0,0.8,0,1.201h-0.365V85.675"/>
				<path fill="#545454" d="M78.74,86.692c-0.003,0.167,0.007,0.333,0.029,0.499c-0.105,0-0.225,0.018-0.329,0l-0.033-0.263h-0.013
					c-0.329,0.499-1.232,0.374-1.232-0.288c0-0.684,0.778-0.722,1.211-0.816c0-0.544-0.615-0.588-0.985-0.325
					c-0.029-0.086-0.056-0.17-0.085-0.255c0.648-0.417,1.438-0.123,1.438,0.671V86.692 M78.382,86.131
					c-0.314-0.008-0.854,0.029-0.854,0.468c0,0.589,0.854,0.37,0.854-0.108V86.131"/>
				<path fill="#545454" d="M81.484,84.14v2.516c-0.001,0.179,0.003,0.357,0.017,0.536c-0.107,0-0.225,0.016-0.33,0l-0.017-0.36
					h-0.008c-0.55,1.129-1.702-0.104-1.517-0.974c0.14-0.658,1.022-1.152,1.486-0.479V84.14H81.484 M81.116,85.958
					c0-0.909-1.146-0.637-1.146,0.202c0,0.847,1.146,1.061,1.146,0.159V85.958"/>
				<path fill="#545454" d="M83.328,87.239c-1.301,0-1.26-2.176,0.033-2.176c1.308,0,1.263,2.176-0.028,2.176H83.328 M83.34,86.955
					c0.815,0,0.832-1.608,0.008-1.608c-0.826,0-0.829,1.608-0.012,1.608H83.34"/>
				<path fill="#545454" d="M86.717,86.216c0.012,0.7,0.69,0.854,1.245,0.619c0.021,0.088,0.044,0.178,0.066,0.266
					c-1.032,0.483-2.036-0.412-1.551-1.488c0.471-1.04,1.854-0.442,1.65,0.608L86.717,86.216 M87.787,85.944
					c0.012-0.808-0.98-0.749-1.067,0H87.787"/>
				<path fill="#545454" d="M89.011,85.675c-0.001-0.189-0.006-0.376-0.017-0.563c0.105,0,0.213,0,0.319,0l0.017,0.336h0.014
					c0.277-0.494,0.992-0.513,1.212,0.034c0.324-0.633,1.164-0.499,1.306,0.166c0.104,0.489,0.031,1.048,0.031,1.544h-0.36v-1.177
					c0-0.723-0.902-0.861-0.902-0.111c-0.114,0.354,0,0.912,0,1.288h-0.357v-1.247c0-0.782-0.903-0.658-0.903,0.046
					c0,0.4,0,0.8,0,1.201h-0.358V85.675"/>
				<path fill="#545454" d="M94.23,87.191v-1.793h-0.278v-0.287h0.278v-0.1c0-0.88,1.216-1.068,0.991-0.567
					c-0.475-0.203-0.676,0.271-0.629,0.667h0.488v0.287h-0.484v1.793H94.23"/>
				<path fill="#545454" d="M96.601,87.239c-1.3,0-1.261-2.176,0.033-2.176c1.308,0,1.263,2.176-0.03,2.176H96.601 M96.612,86.955
					c0.814,0,0.832-1.608,0.008-1.608c-0.826,0-0.83,1.608-0.012,1.608H96.612"/>
				<path fill="#545454" d="M98.486,85.76c0.001-0.217-0.005-0.433-0.018-0.648c0.107,0,0.214,0,0.321,0l0.016,0.408h0.014
					c0.124-0.377,0.812-0.734,0.661-0.089c-0.861-0.103-0.632,1.249-0.632,1.761h-0.367L98.486,85.76"/>
				<path fill="#545454" d="M100.276,85.675c-0.001-0.189-0.007-0.376-0.018-0.563c0.106,0,0.215,0,0.322,0l0.015,0.336h0.014
					c0.279-0.491,0.99-0.514,1.211,0.034c0.326-0.633,1.164-0.499,1.308,0.166c0.103,0.489,0.029,1.048,0.029,1.544h-0.358v-1.177
					c0-0.723-0.903-0.861-0.903-0.111c-0.113,0.354,0,0.912,0,1.288h-0.358v-1.247c0-0.782-0.902-0.657-0.902,0.046
					c0,0.4,0,0.8,0,1.201h-0.358V85.675"/>
				<path fill="#545454" d="M105.584,86.692c-0.001,0.167,0.008,0.333,0.029,0.499c-0.107,0-0.225,0.018-0.329,0l-0.033-0.263
					h-0.013c-0.328,0.499-1.231,0.374-1.231-0.288c0-0.684,0.78-0.723,1.211-0.816c0-0.544-0.616-0.587-0.986-0.325
					c-0.028-0.086-0.056-0.17-0.084-0.255c0.648-0.415,1.437-0.123,1.437,0.671V86.692 M105.227,86.131
					c-0.313-0.008-0.854,0.029-0.854,0.468c0,0.589,0.854,0.37,0.854-0.108V86.131"/>
				<path fill="#545454" d="M109.627,84.14v2.516c-0.002,0.179,0.003,0.357,0.016,0.536c-0.105,0-0.222,0.016-0.327,0l-0.017-0.36
					h-0.01c-0.549,1.129-1.7-0.104-1.517-0.974c0.141-0.658,1.024-1.152,1.487-0.479V84.14H109.627 M109.26,85.958
					c0-0.909-1.148-0.637-1.148,0.202c0,0.847,1.148,1.061,1.148,0.159V85.958"/>
				<path fill="#545454" d="M110.858,86.216c0.013,0.7,0.69,0.854,1.245,0.619c0.021,0.088,0.045,0.178,0.066,0.266
					c-1.032,0.483-2.036-0.412-1.551-1.488c0.478-1.053,1.825-0.436,1.651,0.608L110.858,86.216 M111.929,85.944
					c0.012-0.807-0.982-0.75-1.064,0H111.929"/>
				<path fill="#545454" d="M12.941,106.841l-0.92-2.896h0.396l0.437,1.427c0.106,0.358,0.21,0.731,0.308,1.082
					c0.2-0.85,0.52-1.682,0.795-2.509h0.387l-1.003,2.896H12.941"/>
				<path fill="#545454" d="M16.513,105.482h-1.086v1.044h1.216v0.314H15.06v-2.896h1.52v0.313h-1.153v0.916h1.086V105.482"/>
				<path fill="#545454" d="M17.529,103.986c0.453-0.094,1.139-0.172,1.511,0.177c0.443,0.401,0.177,1.101-0.308,1.298
					c0.522,0.188,0.423,0.969,0.625,1.38c-0.121,0-0.258,0.023-0.375,0c-0.337-0.604-0.13-1.397-1.091-1.255v1.255h-0.362V103.986
					 M17.891,105.302h0.371c1.003,0,0.652-1.326-0.371-1.054V105.302"/>
				<path fill="#545454" d="M20.181,103.981c1.065-0.158,2.311,0.007,2.311,1.341c0,1.337-1.178,1.662-2.311,1.51V103.981
					 M20.547,106.549c2.001,0.394,2.057-2.756,0-2.291V106.549"/>
				<path fill="#545454" d="M23.736,103.944v1.718c0,1.174,1.336,1.166,1.336,0c0.061-0.558,0-1.155,0-1.718h0.367v1.693
					c0,1.07-1.503,1.9-1.97,0.652c-0.256-0.685-0.1-1.632-0.1-2.346H23.736"/>
				<path fill="#545454" d="M26.483,103.986c0.453-0.094,1.138-0.172,1.512,0.177c0.443,0.402,0.177,1.101-0.308,1.298
					c0.521,0.188,0.425,0.969,0.624,1.38c-0.12,0-0.257,0.023-0.375,0c-0.341-0.602-0.128-1.397-1.09-1.255v1.255h-0.363V103.986
					 M26.846,105.302h0.37c1.004,0,0.652-1.329-0.37-1.054V105.302"/>
				<path fill="#545454" d="M29.614,105.929l-0.292,0.912h-0.375l0.954-2.896h0.437l0.957,2.896h-0.387l-0.299-0.912H29.614
					 M30.535,105.638l-0.279-0.835c-0.017-0.056-0.139-0.48-0.154-0.528c-0.104,0.464-0.265,0.912-0.412,1.363H30.535"/>
				<path fill="#545454" d="M32.079,106.385c0.36,0.239,1.232,0.341,1.232-0.306c0-0.556-0.763-0.573-1.071-0.896
					c-1.086-1.14,1.585-1.701,1.225-0.84c-0.272-0.172-0.817-0.241-1.005,0.098c-0.302,0.539,0.518,0.726,0.817,0.913
					c1.149,0.717-0.298,2.03-1.294,1.346L32.079,106.385"/>
				<path fill="#545454" d="M37.341,105.482h-1.086v1.044h1.215v0.314h-1.582v-2.896h1.52v0.313h-1.153v0.916h1.086V105.482"/>
				<path fill="#545454" d="M39.651,103.944h0.367v2.582h1.199v0.314h-1.565V103.944"/>
				<path fill="#545454" d="M43.486,105.482h-1.087v1.044h1.216v0.314h-1.582v-2.896h1.52v0.313h-1.153v0.916h1.087V105.482"/>
				<path fill="#545454" d="M46.642,106.711c-1.208,0.481-2.529-0.199-2.28-1.614c0.218-1.232,2.404-1.317,2.105-0.745
					c-1.16-0.566-2.291,0.761-1.53,1.809c0.273,0.377,0.926,0.541,1.347,0.322c0.099-0.12,0-0.695,0-0.862h-0.567v-0.301h0.924
					V106.711"/>
				<path fill="#545454" d="M47.97,103.944v1.718c0,1.174,1.336,1.166,1.336,0c0.061-0.558,0-1.155,0-1.718h0.367v1.693
					c0,1.07-1.503,1.899-1.97,0.652c-0.256-0.683-0.1-1.633-0.1-2.346H47.97"/>
				<path fill="#545454" d="M53.082,105.568c-0.021-0.416-0.038-0.848-0.054-1.251c-0.252,0.847-0.557,1.675-0.85,2.506h-0.274
					l-0.458-1.381c-0.12-0.37-0.23-0.758-0.329-1.125c-0.02,0.843-0.078,1.683-0.129,2.523h-0.345l0.195-2.896H51.3l0.479,1.4
					c0.105,0.321,0.199,0.659,0.292,0.976c0.208-0.809,0.519-1.593,0.799-2.376h0.462l0.174,2.896h-0.358L53.082,105.568"/>
				<path fill="#545454" d="M55.93,105.482h-1.087v1.044h1.216v0.314h-1.582v-2.896h1.52v0.313h-1.153v0.916h1.087V105.482"/>
				<path fill="#545454" d="M56.9,106.385c0.36,0.239,1.232,0.341,1.232-0.306c0-0.556-0.763-0.573-1.071-0.896
					c-1.085-1.14,1.584-1.701,1.225-0.84c-0.272-0.173-0.817-0.24-1.005,0.098c-0.302,0.539,0.518,0.726,0.817,0.913
					c1.149,0.717-0.298,2.03-1.294,1.346L56.9,106.385"/>
				<path fill="#545454" d="M59.555,106.887c-0.321,0-0.316-0.537,0.004-0.537c0.326,0,0.326,0.537,0,0.537H59.555 M59.56,105.371
					c-0.321,0-0.316-0.537,0.004-0.537c0.326,0,0.325,0.537,0,0.537H59.56"/>
				<path fill="#545454" d="M62.162,105.929l-0.292,0.912h-0.375l0.953-2.896h0.438l0.958,2.896h-0.387l-0.3-0.912H62.162
					 M63.082,105.638l-0.278-0.835c-0.018-0.057-0.139-0.48-0.155-0.528c-0.102,0.464-0.264,0.912-0.412,1.363H63.082"/>
				<path fill="#545454" d="M64.647,103.789h0.367v3.052h-0.367V103.789"/>
				<path fill="#545454" d="M66.071,106.841v-1.792h-0.278v-0.288h0.278v-0.1c0-0.881,1.215-1.066,0.991-0.567
					c-0.477-0.206-0.678,0.273-0.629,0.667h0.486v0.288h-0.482v1.792H66.071"/>
				<path fill="#545454" d="M69.09,106.342c-0.002,0.167,0.008,0.334,0.028,0.499c-0.106,0-0.224,0.018-0.328,0l-0.034-0.263h-0.012
					c-0.33,0.496-1.232,0.375-1.232-0.288c0-0.683,0.777-0.724,1.211-0.815c0-0.546-0.613-0.587-0.986-0.328
					c-0.027-0.084-0.056-0.169-0.084-0.253c0.648-0.419,1.438-0.122,1.438,0.671V106.342 M68.731,105.778
					c-0.313-0.006-0.854,0.031-0.854,0.468c0,0.589,0.854,0.373,0.854-0.105V105.778"/>
				<path fill="#545454" d="M71.529,106.767c-0.896,0.441-1.771-0.304-1.547-1.249c0.176-0.747,1.762-1.091,1.472-0.404
					c-1.362-0.751-1.528,2.083,0.013,1.369L71.529,106.767"/>
				<path fill="#545454" d="M72.558,105.865c0.011,0.701,0.692,0.852,1.244,0.617c0.022,0.09,0.044,0.18,0.067,0.269
					c-1.031,0.479-2.037-0.413-1.549-1.489c0.469-1.039,1.853-0.442,1.648,0.607L72.558,105.865 M73.628,105.594
					c0.012-0.807-0.983-0.751-1.065,0H73.628"/>
				<path fill="#545454" d="M74.535,107.373c0.149-0.422,0.041-1.186,0.657-1.075c-0.1,0.367-0.282,0.844-0.398,1.045
					L74.535,107.373"/>
				<path fill="#545454" d="M77.528,105.929l-0.293,0.912h-0.373l0.953-2.896h0.438l0.956,2.896h-0.387l-0.3-0.912H77.528
					 M78.447,105.638l-0.278-0.835c-0.017-0.056-0.139-0.48-0.153-0.528c-0.103,0.464-0.266,0.912-0.412,1.363H78.447"/>
				<path fill="#545454" d="M80.014,103.789h0.367v3.052h-0.367V103.789"/>
				<path fill="#545454" d="M81.438,106.841v-1.792h-0.279v-0.288h0.279v-0.1c0-0.879,1.215-1.066,0.99-0.567
					c-0.475-0.207-0.677,0.275-0.629,0.667h0.488v0.288h-0.483v1.792H81.438"/>
				<path fill="#545454" d="M84.455,106.342c-0.002,0.167,0.009,0.334,0.03,0.499c-0.106,0-0.226,0.018-0.33,0l-0.032-0.263h-0.014
					c-0.329,0.497-1.231,0.373-1.231-0.288c0-0.683,0.777-0.724,1.212-0.815c0-0.546-0.615-0.587-0.987-0.328
					c-0.028-0.084-0.056-0.169-0.083-0.253c0.647-0.419,1.436-0.122,1.436,0.671V106.342 M84.098,105.778
					c-0.313-0.006-0.854,0.031-0.854,0.468c0,0.589,0.854,0.373,0.854-0.105V105.778"/>
				<path fill="#545454" d="M86.896,106.767c-0.896,0.438-1.771-0.302-1.547-1.249c0.176-0.746,1.762-1.092,1.473-0.404
					c-1.365-0.747-1.528,2.078,0.012,1.369L86.896,106.767"/>
				<path fill="#545454" d="M87.924,105.865c0.012,0.701,0.691,0.852,1.245,0.617c0.021,0.09,0.044,0.18,0.066,0.269
					c-1.031,0.48-2.036-0.414-1.551-1.489c0.471-1.039,1.854-0.443,1.65,0.607L87.924,105.865 M88.994,105.594
					c0.017-0.807-0.982-0.751-1.066,0H88.994"/>
				<path fill="#545454" d="M12.325,108.898c0.449-0.096,1.141-0.171,1.511,0.177c0.443,0.403,0.176,1.102-0.308,1.299
					c0.523,0.189,0.423,0.967,0.625,1.38c-0.12,0-0.258,0.023-0.375,0c-0.337-0.604-0.131-1.397-1.091-1.256v1.256h-0.362V108.898
					 M12.687,110.214h0.371c1.004,0,0.652-1.329-0.371-1.053V110.214"/>
				<path fill="#545454" d="M16.654,111.186c-0.001,0.189,0.004,0.379,0.017,0.568c-0.109,0-0.217,0-0.325,0l-0.021-0.34h-0.008
					c-0.466,0.844-1.362,0.224-1.362-0.524c-0.044-0.395,0-0.819,0-1.216h0.367v1.146c0,0.757,0.966,0.896,0.966,0.126
					c0.112-0.35,0-0.901,0-1.271h0.366V111.186 M16.405,108.805l-0.508,0.613h-0.259l0.367-0.613H16.405"/>
				<path fill="#545454" d="M19.115,111.68c-0.896,0.438-1.771-0.302-1.547-1.249c0.177-0.748,1.762-1.091,1.473-0.406
					c-1.375-0.734-1.518,2.076,0.012,1.371L19.115,111.68"/>
				<path fill="#545454" d="M21.646,111.186c-0.001,0.189,0.004,0.379,0.017,0.568c-0.107,0-0.216,0-0.324,0l-0.021-0.34h-0.008
					c-0.465,0.844-1.362,0.224-1.362-0.524c-0.045-0.395,0-0.819,0-1.216h0.367v1.146c0,0.757,0.966,0.896,0.966,0.126
					c0.112-0.35,0-0.901,0-1.271h0.366V111.186"/>
				<path fill="#545454" d="M22.67,108.701h0.366v3.053H22.67V108.701"/>
				<path fill="#545454" d="M25.48,111.254c-0.002,0.167,0.008,0.334,0.029,0.5c-0.106,0-0.224,0.018-0.329,0l-0.033-0.264h-0.013
					c-0.33,0.496-1.232,0.374-1.232-0.288c0-0.685,0.78-0.722,1.211-0.816c0-0.547-0.616-0.584-0.986-0.327
					c-0.028-0.083-0.056-0.169-0.083-0.252c0.647-0.42,1.436-0.123,1.436,0.67V111.254 M25.123,110.691
					c-0.314-0.006-0.854,0.03-0.854,0.468c0,0.587,0.854,0.372,0.854-0.107V110.691"/>
				<path fill="#545454" d="M26.247,112.286c0.149-0.423,0.041-1.186,0.658-1.075c-0.1,0.365-0.283,0.843-0.399,1.045
					L26.247,112.286"/>
				<path fill="#545454" d="M30.235,110.395h-1.086v1.044h1.215v0.315h-1.582v-2.898h1.52v0.313h-1.153v0.917h1.086V110.395"/>
				<path fill="#545454" d="M31.238,110.235c0.001-0.188-0.004-0.375-0.016-0.562c0.108,0,0.216,0,0.324,0l0.021,0.338h0.008
					c0.318-0.617,1.196-0.446,1.345,0.186c0.114,0.487,0.033,1.061,0.033,1.557h-0.367v-1.2c0-0.807-0.982-0.758-0.982-0.001
					c0,0.4,0,0.8,0,1.201h-0.367V110.235"/>
				<path fill="#545454" d="M35.705,108.701v2.514c-0.001,0.181,0.004,0.359,0.017,0.539c-0.106,0-0.224,0.017-0.329,0l-0.017-0.362
					h-0.008c-0.547,1.13-1.702-0.103-1.517-0.975c0.141-0.66,1.022-1.147,1.488-0.478v-1.238H35.705 M35.339,110.519
					c0-0.91-1.149-0.637-1.149,0.203c0,0.847,1.149,1.062,1.149,0.157V110.519"/>
				<path fill="#545454" d="M37.496,108.805l-0.508,0.613h-0.258l0.366-0.613H37.496 M36.729,111.754v-2.08h0.366v2.08H36.729"/>
				<path fill="#545454" d="M38.261,109.674l0.396,1.164c0.02,0.057,0.159,0.486,0.175,0.536c0.152-0.575,0.374-1.139,0.562-1.7
					h0.384l-0.792,2.08h-0.35l-0.766-2.08H38.261"/>
				<path fill="#545454" d="M40.713,109.29c-0.305,0-0.297-0.485,0.008-0.485c0.309,0,0.304,0.485-0.004,0.485H40.713
					 M40.539,111.754v-2.08h0.366v2.08H40.539"/>
				<path fill="#545454" d="M43.349,111.254c-0.001,0.167,0.008,0.334,0.029,0.5c-0.106,0-0.224,0.018-0.328,0l-0.033-0.264h-0.013
					c-0.33,0.496-1.233,0.374-1.233-0.288c0-0.685,0.78-0.722,1.211-0.816c0-0.547-0.615-0.584-0.986-0.327
					c-0.028-0.083-0.056-0.169-0.083-0.252c0.648-0.42,1.437-0.123,1.437,0.67V111.254 M42.991,110.691
					c-0.314-0.007-0.854,0.03-0.854,0.468c0,0.587,0.854,0.372,0.854-0.107V110.691"/>
				<path fill="#545454" d="M44.115,112.286c0.15-0.423,0.041-1.186,0.657-1.075c-0.1,0.365-0.283,0.843-0.4,1.045L44.115,112.286"
					/>
				<path fill="#545454" d="M46.654,108.898c0.449-0.096,1.142-0.171,1.511,0.177c0.443,0.402,0.177,1.102-0.308,1.299
					c0.521,0.188,0.426,0.967,0.625,1.38c-0.121,0-0.258,0.023-0.375,0c-0.337-0.604-0.13-1.397-1.091-1.256v1.256h-0.362V108.898
					 M47.017,110.214h0.37c1.004,0,0.653-1.329-0.37-1.053V110.214"/>
				<path fill="#545454" d="M50.768,111.254c-0.002,0.167,0.008,0.334,0.029,0.5c-0.106,0-0.225,0.018-0.329,0l-0.033-0.264h-0.013
					c-0.33,0.498-1.232,0.373-1.232-0.288c0-0.685,0.78-0.722,1.211-0.816c0-0.547-0.615-0.584-0.986-0.327
					c-0.028-0.083-0.056-0.169-0.083-0.252c0.647-0.421,1.436-0.121,1.436,0.67V111.254 M50.409,110.691
					c-0.314-0.007-0.853,0.03-0.853,0.468c0,0.587,0.853,0.372,0.853-0.107V110.691"/>
				<path fill="#545454" d="M53.511,108.701v2.514c-0.001,0.181,0.004,0.359,0.017,0.539c-0.107,0-0.224,0.017-0.328,0l-0.017-0.362
					h-0.008c-0.547,1.13-1.702-0.103-1.517-0.975c0.14-0.66,1.022-1.147,1.488-0.478v-1.238H53.511 M53.145,110.519
					c0-0.91-1.149-0.637-1.149,0.203c0,0.847,1.149,1.062,1.149,0.157V110.519"/>
				<path fill="#545454" d="M54.71,109.29c-0.305,0-0.297-0.485,0.008-0.485c0.309,0,0.304,0.485-0.004,0.485H54.71 M54.535,111.754
					v-2.08h0.366v2.08H54.535"/>
				<path fill="#545454" d="M57.362,111.68c-0.896,0.438-1.773-0.302-1.548-1.249c0.177-0.748,1.762-1.091,1.473-0.406
					c-1.375-0.735-1.518,2.076,0.012,1.371L57.362,111.68"/>
				<path fill="#545454" d="M58.208,108.701h0.365v1.298h0.009c0.467-0.858,1.34-0.173,1.34,0.516c0.059,0.396,0,0.839,0,1.239
					h-0.366v-1.195c0-0.804-0.983-0.762-0.983-0.006c0,0.4,0,0.8,0,1.201h-0.365V108.701"/>
				<path fill="#545454" d="M61.108,109.29c-0.304,0-0.297-0.485,0.008-0.485c0.309,0,0.304,0.485-0.004,0.485H61.108
					 M60.934,111.754v-2.08h0.367v2.08H60.934"/>
				<path fill="#545454" d="M63.145,111.8c-1.301,0-1.26-2.175,0.034-2.175c1.308,0,1.263,2.175-0.029,2.175H63.145 M63.157,111.517
					c0.815,0,0.832-1.607,0.008-1.607c-0.827,0-0.83,1.607-0.012,1.607H63.157"/>
				<path fill="#545454" d="M64.672,112.286c0.15-0.423,0.041-1.186,0.658-1.075c-0.1,0.365-0.283,0.843-0.4,1.045L64.672,112.286"
					/>
				<path fill="#545454" d="M69.169,111.662c-1.181,0.637-2.302-0.477-2.097-1.659c0.104-0.592,0.529-1.056,1.126-1.168
					c0.334-0.061,1.179-0.12,0.888,0.407c-2.094-1.074-2.154,3.208,0.012,2.12L69.169,111.662"/>
				<path fill="#545454" d="M70.018,108.701h0.367v1.298h0.008c0.465-0.861,1.341-0.171,1.341,0.516c0.058,0.396,0,0.839,0,1.239
					h-0.366v-1.195c0-0.804-0.982-0.762-0.982-0.006c0,0.4,0,0.8,0,1.201h-0.367V108.701"/>
				<path fill="#545454" d="M72.92,109.29c-0.305,0-0.298-0.485,0.008-0.485c0.309,0,0.303,0.485-0.004,0.485H72.92 M72.744,111.754
					v-2.08h0.367v2.08H72.744"/>
				<path fill="#545454" d="M75.571,111.68c-0.896,0.438-1.771-0.302-1.548-1.249c0.178-0.748,1.762-1.091,1.473-0.406
					c-1.375-0.734-1.518,2.076,0.012,1.371L75.571,111.68"/>
				<path fill="#545454" d="M77.235,111.8c-1.3,0-1.259-2.175,0.034-2.175c1.31,0,1.265,2.175-0.029,2.175H77.235 M77.25,111.517
					c0.814,0,0.831-1.607,0.008-1.607c-0.828,0-0.831,1.607-0.013,1.607H77.25 M77.807,108.805l-0.508,0.613h-0.257l0.365-0.613
					H77.807"/>
				<path fill="#545454" d="M79.123,110.322c0.001-0.217-0.004-0.434-0.017-0.648c0.106,0,0.213,0,0.32,0l0.016,0.407h0.014
					c0.124-0.378,0.814-0.734,0.661-0.091c-0.862-0.1-0.633,1.252-0.633,1.764h-0.365L79.123,110.322"/>
				<path fill="#545454" d="M81.088,109.29c-0.304,0-0.297-0.485,0.009-0.485c0.308,0,0.303,0.485-0.005,0.485H81.088
					 M80.913,111.754v-2.08h0.365v2.08H80.913"/>
				<path fill="#545454" d="M83.723,111.254c-0.001,0.167,0.01,0.334,0.029,0.5c-0.106,0-0.224,0.018-0.328,0l-0.033-0.264h-0.013
					c-0.331,0.495-1.233,0.375-1.233-0.288c0-0.685,0.78-0.722,1.212-0.816c0-0.547-0.614-0.584-0.986-0.327
					c-0.026-0.083-0.057-0.169-0.083-0.252c0.647-0.42,1.436-0.123,1.436,0.67V111.254 M83.364,110.691
					c-0.313-0.007-0.853,0.03-0.853,0.468c0,0.587,0.853,0.372,0.853-0.107V110.691"/>
				<path fill="#545454" d="M84.489,112.286c0.15-0.423,0.039-1.188,0.658-1.075c-0.102,0.365-0.283,0.843-0.4,1.045L84.489,112.286
					"/>
				<path fill="#545454" d="M87.481,110.842l-0.291,0.912h-0.374l0.953-2.898h0.438l0.956,2.898h-0.386l-0.299-0.912H87.481
					 M88.401,110.549l-0.278-0.834c-0.018-0.059-0.139-0.479-0.154-0.528c-0.103,0.465-0.264,0.911-0.411,1.362H88.401"/>
				<path fill="#545454" d="M14.282,116.574c-1.181,0.637-2.3-0.476-2.096-1.659c0.102-0.591,0.528-1.056,1.125-1.167
					c0.334-0.062,1.178-0.121,0.887,0.406c-2.092-1.074-2.155,3.206,0.013,2.119L14.282,116.574"/>
				<path fill="#545454" d="M15.301,115.689c0.012,0.701,0.691,0.852,1.245,0.618c0.022,0.089,0.044,0.178,0.067,0.267
					c-1.031,0.478-2.038-0.41-1.55-1.489c0.47-1.04,1.854-0.442,1.649,0.609L15.301,115.689 M16.371,115.419
					c0.015-0.809-0.982-0.751-1.065,0H16.371"/>
				<path fill="#545454" d="M17.596,113.614h0.366v1.301h0.009c0.612-1.099,1.692,0.162,1.5,1.022
					c-0.161,0.716-1.119,1.117-1.554,0.383l-0.021,0.345h-0.316c0.013-0.143,0.017-0.353,0.017-0.537V113.614 M17.961,115.83
					c0,0.898,1.174,0.62,1.174-0.218c0-0.859-1.174-1.062-1.174-0.154V115.83"/>
				<path fill="#545454" d="M21.204,116.712c-1.3,0-1.26-2.174,0.034-2.174c1.308,0,1.264,2.174-0.029,2.174H21.204 M21.217,116.428
					c0.814,0,0.832-1.605,0.008-1.605c-0.828,0-0.831,1.605-0.012,1.605H21.217"/>
				<path fill="#545454" d="M23.087,113.614h0.366v3.051h-0.366V113.614"/>
				<path fill="#545454" d="M24.652,114.203c-0.304,0-0.298-0.487,0.008-0.487c0.31,0,0.303,0.487-0.004,0.487H24.652
					 M24.478,116.665v-2.081h0.366v2.081H24.478"/>
				<path fill="#545454" d="M25.868,115.147c0.001-0.188-0.004-0.376-0.017-0.563c0.109,0,0.217,0,0.325,0l0.021,0.341h0.008
					c0.318-0.616,1.196-0.447,1.345,0.186c0.115,0.486,0.034,1.06,0.034,1.555h-0.367v-1.199c0-0.805-0.982-0.759-0.982-0.002
					c0,0.4,0,0.802,0,1.201h-0.366V115.147"/>
				<path fill="#545454" d="M28.594,113.614h0.367v1.297h0.008c0.464-0.862,1.34-0.17,1.34,0.517c0.058,0.395,0,0.839,0,1.237
					h-0.366v-1.194c0-0.804-0.982-0.762-0.982-0.007c0,0.4,0,0.802,0,1.201h-0.367V113.614"/>
				<path fill="#545454" d="M32.741,116.167c-0.002,0.166,0.008,0.333,0.029,0.498c-0.106,0-0.224,0.019-0.329,0l-0.034-0.263
					h-0.013c-0.329,0.499-1.232,0.373-1.232-0.287c0-0.686,0.78-0.725,1.212-0.817c0-0.545-0.616-0.586-0.987-0.326
					c-0.027-0.084-0.056-0.17-0.083-0.253c0.646-0.42,1.436-0.122,1.436,0.669V116.167 M32.383,115.604
					c-0.314-0.007-0.854,0.03-0.854,0.468c0,0.588,0.854,0.373,0.854-0.106V115.604"/>
				<path fill="#545454" d="M33.507,117.198c0.15-0.423,0.041-1.186,0.658-1.075c-0.1,0.365-0.283,0.843-0.4,1.045L33.507,117.198"
					/>
				<path fill="#545454" d="M36,116.21c0.36,0.237,1.233,0.339,1.233-0.307c0-0.555-0.764-0.573-1.071-0.896
					c-1.086-1.142,1.585-1.704,1.225-0.84c-0.271-0.177-0.818-0.24-1.005,0.096c-0.301,0.541,0.517,0.726,0.817,0.915
					c1.148,0.717-0.297,2.03-1.294,1.344L36,116.21"/>
				<path fill="#545454" d="M39.943,116.167c-0.001,0.166,0.008,0.333,0.029,0.498c-0.105,0-0.224,0.019-0.329,0l-0.033-0.263
					h-0.013c-0.33,0.495-1.232,0.374-1.232-0.287c0-0.686,0.78-0.725,1.211-0.817c0-0.545-0.616-0.587-0.986-0.326
					c-0.028-0.084-0.056-0.17-0.083-0.253c0.647-0.418,1.436-0.123,1.436,0.669V116.167 M39.585,115.604
					c-0.314-0.007-0.854,0.03-0.854,0.468c0,0.588,0.854,0.373,0.854-0.106V115.604"/>
				<path fill="#545454" d="M40.947,113.614h0.367v3.051h-0.367V113.614"/>
				<path fill="#545454" d="M42.287,116.283c0.226,0.138,0.874,0.297,0.874-0.164c0-0.416-0.671-0.408-0.85-0.739
					c-0.47-0.87,1.348-1.133,1.042-0.442c-0.176-0.104-0.48-0.202-0.661-0.037c-0.394,0.36,0.422,0.588,0.585,0.709
					c0.835,0.619-0.403,1.368-1.078,0.957L42.287,116.283"/>
				<path fill="#545454" d="M45.822,116.167c-0.002,0.166,0.007,0.333,0.029,0.498c-0.106,0-0.225,0.019-0.329,0l-0.034-0.263
					h-0.012c-0.33,0.499-1.232,0.373-1.232-0.287c0-0.686,0.78-0.725,1.212-0.817c0-0.545-0.616-0.586-0.987-0.326
					c-0.027-0.084-0.056-0.17-0.083-0.253c0.646-0.42,1.437-0.122,1.437,0.669V116.167 M45.464,115.604
					c-0.314-0.007-0.854,0.03-0.854,0.468c0,0.588,0.854,0.373,0.854-0.106V115.604"/>
				<path fill="#545454" d="M46.588,117.198c0.149-0.423,0.041-1.186,0.657-1.075c-0.1,0.365-0.283,0.843-0.399,1.045
					L46.588,117.198"/>
				<path fill="#545454" d="M49.127,113.807c0.529-0.105,1.403-0.18,1.664,0.439c0.355,0.839-0.547,1.454-1.303,1.258
					c0,0.388,0,0.774,0,1.161h-0.361V113.807 M49.489,115.199c1.2,0.328,1.332-1.408,0-1.126V115.199"/>
				<path fill="#545454" d="M51.85,115.689c0.011,0.7,0.69,0.854,1.245,0.618c0.022,0.089,0.044,0.178,0.066,0.267
					c-1.031,0.479-2.036-0.411-1.549-1.489c0.47-1.04,1.854-0.442,1.649,0.609L51.85,115.689 M52.92,115.419
					c0.014-0.808-0.983-0.751-1.066,0H52.92"/>
				<path fill="#545454" d="M54.144,115.264c0.001-0.227-0.004-0.453-0.016-0.68c0.102,0,0.231-0.026,0.329,0l0.021,0.358h0.008
					c0.627-1.111,1.731,0.097,1.534,0.995c-0.148,0.677-1.045,1.111-1.509,0.449v1.129h-0.367V115.264 M54.51,115.818
					c0,0.912,1.173,0.645,1.173-0.206c0-0.854-1.173-1.056-1.173-0.154V115.818"/>
				<path fill="#545454" d="M57.104,114.203c-0.305,0-0.299-0.487,0.008-0.487c0.31,0,0.302,0.487-0.004,0.487H57.104
					 M56.929,116.665v-2.081h0.366v2.081H56.929"/>
				<path fill="#545454" d="M58.32,115.147c0.001-0.188-0.005-0.376-0.017-0.563c0.108,0,0.217,0,0.325,0l0.021,0.341h0.008
					c0.318-0.616,1.196-0.447,1.345,0.186c0.115,0.486,0.033,1.06,0.033,1.555h-0.367v-1.199c0-0.805-0.982-0.759-0.982-0.002
					c0,0.4,0,0.802,0,1.201H58.32V115.147"/>
				<path fill="#545454" d="M61.867,116.712c-1.301,0-1.261-2.174,0.033-2.174c1.309,0,1.264,2.174-0.029,2.174H61.867
					 M61.879,116.428c0.815,0,0.832-1.605,0.008-1.605c-0.828,0-0.831,1.605-0.013,1.605H61.879"/>
				<path fill="#545454" d="M63.395,117.198c0.15-0.423,0.041-1.187,0.658-1.075c-0.1,0.365-0.283,0.843-0.4,1.045L63.395,117.198"
					/>
				<path fill="#545454" d="M65.934,113.812c0.449-0.098,1.141-0.171,1.512,0.175c0.441,0.401,0.179,1.103-0.309,1.299
					c0.52,0.19,0.428,0.967,0.625,1.38c-0.12,0-0.258,0.024-0.375,0c-0.332-0.604-0.133-1.396-1.091-1.255v1.255h-0.362V113.812
					 M66.296,115.127h0.37c1.004,0,0.654-1.33-0.37-1.054V115.127"/>
				<path fill="#545454" d="M70.047,116.167c-0.002,0.166,0.008,0.333,0.029,0.498c-0.106,0-0.225,0.019-0.328,0l-0.033-0.263
					h-0.014c-0.329,0.499-1.231,0.373-1.231-0.287c0-0.686,0.779-0.725,1.211-0.817c0-0.545-0.616-0.586-0.987-0.326
					c-0.027-0.084-0.055-0.17-0.082-0.253c0.646-0.42,1.436-0.122,1.436,0.669V116.167 M69.689,115.604
					c-0.314-0.007-0.854,0.03-0.854,0.468c0,0.588,0.854,0.373,0.854-0.106V115.604"/>
				<path fill="#545454" d="M71.051,113.614h0.365v1.301h0.01c0.611-1.099,1.692,0.162,1.5,1.022
					c-0.161,0.715-1.119,1.119-1.555,0.383l-0.021,0.345h-0.316c0.014-0.143,0.018-0.353,0.018-0.537V113.614 M71.416,115.83
					c0,0.898,1.175,0.62,1.175-0.218c0-0.859-1.175-1.062-1.175-0.154V115.83"/>
				<path fill="#545454" d="M75.254,116.167c-0.001,0.166,0.009,0.333,0.031,0.498c-0.107,0-0.225,0.019-0.329,0l-0.034-0.263H74.91
					c-0.33,0.499-1.232,0.373-1.232-0.287c0-0.686,0.778-0.723,1.211-0.817c0-0.545-0.615-0.587-0.986-0.326
					c-0.027-0.084-0.057-0.17-0.083-0.253c0.646-0.42,1.435-0.122,1.435,0.669V116.167 M74.897,115.604
					c-0.315-0.007-0.854,0.03-0.854,0.468c0,0.588,0.854,0.373,0.854-0.106V115.604"/>
				<path fill="#545454" d="M76.258,115.147c0.001-0.188-0.004-0.376-0.017-0.563c0.109,0,0.218,0,0.326,0l0.02,0.341h0.009
					c0.318-0.616,1.196-0.447,1.344,0.186c0.115,0.486,0.034,1.06,0.034,1.555h-0.365v-1.199c0-0.806-0.983-0.759-0.983-0.002
					c0,0.4,0,0.802,0,1.201h-0.367V115.147"/>
				<path fill="#545454" d="M79.193,115.689c0.011,0.7,0.691,0.854,1.246,0.618c0.021,0.089,0.042,0.178,0.065,0.267
					c-1.031,0.479-2.036-0.411-1.55-1.489c0.47-1.04,1.854-0.442,1.65,0.609L79.193,115.689 M80.265,115.419
					c0.014-0.809-0.982-0.751-1.067,0H80.265"/>
				<path fill="#545454" d="M81.929,114.086v0.498h0.523v0.287h-0.523v1.124c0,0.312,0.169,0.476,0.487,0.377
					c0.006,0.097,0.011,0.193,0.017,0.288c-1.1,0.392-0.862-1.177-0.862-1.789h-0.312v-0.287h0.312v-0.381L81.929,114.086"/>
				<path fill="#545454" d="M83.465,115.689c0.012,0.7,0.69,0.852,1.244,0.618c0.023,0.089,0.045,0.178,0.068,0.267
					c-1.032,0.478-2.039-0.41-1.552-1.489c0.471-1.04,1.854-0.442,1.65,0.609L83.465,115.689 M84.534,115.419
					c0.018-0.808-0.982-0.751-1.065,0H84.534"/>
				<path fill="#545454" d="M85.442,117.198c0.149-0.423,0.041-1.186,0.658-1.075c-0.1,0.365-0.283,0.843-0.399,1.045
					L85.442,117.198"/>
				<path fill="#545454" d="M87.978,113.768h1.512v0.314h-1.146v0.962h1.058v0.311h-1.058v1.311h-0.366V113.768"/>
				<path fill="#545454" d="M12.325,118.723c0.418-0.103,1.073-0.158,1.428,0.147c0.448,0.342,0.204,0.975-0.237,1.161
					c0.586,0.14,0.769,0.881,0.336,1.301c-0.368,0.355-1.066,0.304-1.527,0.236V118.723 M12.687,119.91h0.329
					c0.958,0,0.604-1.147-0.329-0.938V119.91 M12.687,121.293c1.266,0.224,1.271-1.247,0-1.104V121.293"/>
				<path fill="#545454" d="M14.994,120.146c0.001-0.216-0.004-0.434-0.017-0.649c0.107,0,0.214,0,0.32,0l0.017,0.409h0.012
					c0.124-0.376,0.813-0.733,0.662-0.091c-0.864-0.075-0.633,1.231-0.633,1.762H14.99L14.994,120.146"/>
				<path fill="#545454" d="M17.562,121.624c-1.301,0-1.261-2.174,0.033-2.174c1.308,0,1.263,2.174-0.029,2.174H17.562
					 M17.575,121.34c0.814,0,0.832-1.607,0.008-1.607c-0.828,0-0.831,1.607-0.013,1.607H17.575"/>
				<path fill="#545454" d="M19.885,118.999v0.497h0.524v0.288h-0.524v1.122c0,0.312,0.168,0.479,0.487,0.379
					c0.005,0.096,0.011,0.192,0.017,0.287c-1.1,0.392-0.862-1.177-0.862-1.788h-0.312v-0.288h0.312v-0.382L19.885,118.999"/>
				<path fill="#545454" d="M22.034,121.624c-1.301,0-1.261-2.174,0.033-2.174c1.309,0,1.264,2.174-0.029,2.174H22.034
					 M22.046,121.34c0.815,0,0.832-1.607,0.008-1.607c-0.828,0-0.831,1.607-0.013,1.607H22.046"/>
				<path fill="#545454" d="M23.865,121.195c0.227,0.138,0.874,0.296,0.874-0.164c0-0.414-0.672-0.409-0.85-0.738
					c-0.47-0.871,1.349-1.134,1.042-0.444c-0.177-0.104-0.48-0.2-0.66-0.035c-0.394,0.359,0.422,0.588,0.584,0.709
					c0.836,0.619-0.403,1.367-1.078,0.956L23.865,121.195"/>
				<path fill="#545454" d="M29.019,118.526v2.514c-0.001,0.179,0.004,0.357,0.017,0.536c-0.106,0-0.224,0.018-0.329,0l-0.017-0.36
					h-0.008c-0.545,1.132-1.702-0.103-1.517-0.974c0.14-0.66,1.022-1.148,1.488-0.479v-1.236H29.019 M28.653,120.344
					c0-0.91-1.149-0.638-1.149,0.203c0,0.845,1.149,1.06,1.149,0.157V120.344"/>
				<path fill="#545454" d="M30.251,120.601c0.012,0.702,0.691,0.854,1.245,0.619c0.022,0.09,0.044,0.178,0.067,0.268
					c-1.031,0.479-2.036-0.412-1.55-1.489c0.47-1.04,1.854-0.443,1.649,0.608L30.251,120.601 M31.321,120.33
					c0.015-0.806-0.983-0.749-1.066,0H31.321"/>
				<path fill="#545454" d="M35.264,121.079c-0.002,0.167,0.008,0.331,0.029,0.497c-0.106,0-0.224,0.019-0.329,0l-0.033-0.261
					h-0.012c-0.331,0.495-1.233,0.374-1.233-0.288c0-0.686,0.78-0.724,1.211-0.816c0-0.546-0.616-0.587-0.986-0.327
					c-0.028-0.085-0.056-0.169-0.083-0.254c0.648-0.415,1.437-0.123,1.437,0.67V121.079 M34.906,120.515
					c-0.314-0.007-0.853,0.032-0.853,0.47c0,0.588,0.853,0.371,0.853-0.108V120.515"/>
				<path fill="#545454" d="M36.267,118.526h0.367v3.05h-0.367V118.526"/>
				<path fill="#545454" d="M37.69,121.576v-1.792h-0.278v-0.288h0.278v-0.098c0-0.882,1.215-1.069,0.992-0.567
					c-0.475-0.215-0.677,0.279-0.629,0.665h0.487v0.288h-0.483v1.792H37.69"/>
				<path fill="#545454" d="M40.709,121.079c-0.001,0.167,0.008,0.331,0.03,0.497c-0.106,0-0.225,0.019-0.33,0l-0.033-0.261h-0.012
					c-0.33,0.497-1.232,0.372-1.232-0.288c0-0.686,0.779-0.723,1.211-0.816c0-0.546-0.615-0.588-0.987-0.327
					c-0.028-0.085-0.055-0.169-0.083-0.254c0.648-0.417,1.436-0.122,1.436,0.67V121.079 M40.351,120.515
					c-0.313-0.007-0.853,0.032-0.853,0.47c0,0.588,0.853,0.371,0.853-0.108V120.515"/>
				<path fill="#545454" d="M41.746,121.576v-1.792h-0.279v-0.288h0.279v-0.098c0-0.883,1.216-1.068,0.991-0.567
					c-0.474-0.215-0.676,0.279-0.628,0.665h0.487v0.288h-0.483v1.792H41.746"/>
				<path fill="#545454" d="M44.764,121.079c-0.001,0.167,0.008,0.331,0.029,0.497c-0.106,0-0.224,0.019-0.328,0l-0.034-0.261
					h-0.012c-0.33,0.495-1.233,0.374-1.233-0.288c0-0.686,0.78-0.724,1.212-0.816c0-0.546-0.616-0.587-0.987-0.327
					c-0.028-0.085-0.056-0.169-0.083-0.254c0.649-0.415,1.437-0.123,1.437,0.67V121.079 M44.407,120.515
					c-0.314-0.007-0.854,0.032-0.854,0.47c0,0.588,0.854,0.371,0.854-0.108V120.515"/>
				<path fill="#545454" d="M45.53,122.111c0.149-0.424,0.041-1.187,0.657-1.076c-0.099,0.365-0.283,0.843-0.399,1.045
					L45.53,122.111"/>
			</g>
			<g>
				
					<radialGradient id="XMLID_4_" cx="108.4668" cy="118.249" r="34.7364" fx="108.4668" fy="118.249" gradientUnits="userSpaceOnUse">
					<stop  offset="0" style="stop-color:#000000"/>
					<stop  offset="1" style="stop-color:#000000"/>
					<a:midPointStop  offset="0" style="stop-color:#000000"/>
					<a:midPointStop  offset="0.5" style="stop-color:#000000"/>
					<a:midPointStop  offset="1" style="stop-color:#000000"/>
				</radialGradient>
				<path opacity="0.1" fill="url(#XMLID_4_)" d="M85.191,90.976v35.754h1.793l33.639-33.639v-2.115H85.191z"/>
				<path fill="#FFFFFF" d="M87.537,126.948l33.627-33.627H87.537V126.948z"/>
				<linearGradient id="XMLID_5_" gradientUnits="userSpaceOnUse" x1="104.0166" y1="98.1807" x2="95.0883" y2="135.7938">
					<stop  offset="0" style="stop-color:#FFFFFF"/>
					<stop  offset="1" style="stop-color:#CCCCCC"/>
					<a:midPointStop  offset="0" style="stop-color:#FFFFFF"/>
					<a:midPointStop  offset="0.5" style="stop-color:#FFFFFF"/>
					<a:midPointStop  offset="1" style="stop-color:#CCCCCC"/>
				</linearGradient>
				<path fill="url(#XMLID_5_)" d="M89.865,125.056l29.594-29.592H89.865V125.056z"/>
				<linearGradient id="XMLID_6_" gradientUnits="userSpaceOnUse" x1="82.3086" y1="88.0928" x2="96.1043" y2="101.8885">
					<stop  offset="0" style="stop-color:#B3B3B3"/>
					<stop  offset="1" style="stop-color:#828282"/>
					<a:midPointStop  offset="0" style="stop-color:#B3B3B3"/>
					<a:midPointStop  offset="0.5" style="stop-color:#B3B3B3"/>
					<a:midPointStop  offset="1" style="stop-color:#828282"/>
				</linearGradient>
				<path fill="url(#XMLID_6_)" d="M87.537,92.821c-0.277,0-0.5,0.223-0.5,0.5v33.627c0,0.203,0.121,0.385,0.309,0.463
					c0.186,0.076,0.402,0.033,0.545-0.109l33.627-33.627c0.143-0.145,0.186-0.359,0.109-0.545c-0.078-0.188-0.26-0.309-0.463-0.309
					H87.537z M119.957,93.821c-1.58,1.578-30.342,30.34-31.92,31.92c0-2.209,0-30.986,0-31.92
					C88.971,93.821,117.748,93.821,119.957,93.821z"/>
			</g>
			<linearGradient id="XMLID_7_" gradientUnits="userSpaceOnUse" x1="-3.8062" y1="10.6514" x2="127.5141" y2="10.6514">
				<stop  offset="0" style="stop-color:#B3CAFF"/>
				<stop  offset="1" style="stop-color:#0053BD"/>
				<a:midPointStop  offset="0" style="stop-color:#B3CAFF"/>
				<a:midPointStop  offset="0.5" style="stop-color:#B3CAFF"/>
				<a:midPointStop  offset="1" style="stop-color:#0053BD"/>
			</linearGradient>
			<path fill="url(#XMLID_7_)" d="M117.613,17.023H10.229V4.279h107.384V17.023z"/>
			<g>
				<path fill="#FFFFFF" d="M15.366,7.036h2.847c0.643,0,1.132,0.051,1.469,0.152c0.453,0.138,0.84,0.382,1.163,0.733
					s0.568,0.782,0.737,1.291c0.168,0.51,0.252,1.137,0.252,1.884c0,0.656-0.079,1.221-0.237,1.696
					c-0.193,0.58-0.469,1.049-0.826,1.408c-0.271,0.272-0.636,0.484-1.095,0.636c-0.344,0.112-0.804,0.168-1.379,0.168h-2.932V7.036
					z M16.928,8.38v5.281h1.162c0.435,0,0.749-0.025,0.941-0.076c0.253-0.065,0.462-0.176,0.629-0.332
					c0.166-0.155,0.302-0.412,0.407-0.77c0.105-0.357,0.158-0.844,0.158-1.46s-0.053-1.09-0.158-1.42
					c-0.105-0.33-0.252-0.587-0.441-0.772c-0.189-0.185-0.43-0.31-0.721-0.375c-0.217-0.051-0.644-0.076-1.278-0.076H16.928z"/>
				<path fill="#FFFFFF" d="M23.913,11.069c0-0.812,0.118-1.494,0.353-2.046c0.175-0.406,0.415-0.771,0.719-1.094
					c0.303-0.323,0.636-0.562,0.997-0.719c0.481-0.21,1.035-0.315,1.664-0.315c1.137,0,2.046,0.365,2.729,1.094
					c0.682,0.729,1.023,1.743,1.023,3.042c0,1.288-0.338,2.296-1.016,3.023s-1.583,1.091-2.716,1.091
					c-1.147,0-2.06-0.362-2.737-1.086C24.252,13.336,23.913,12.339,23.913,11.069z M25.522,11.015c0,0.904,0.202,1.589,0.605,2.056
					s0.915,0.7,1.536,0.7s1.13-0.231,1.528-0.694s0.597-1.157,0.597-2.083c0-0.915-0.194-1.597-0.581-2.047
					c-0.388-0.45-0.902-0.675-1.544-0.675s-1.159,0.228-1.551,0.684C25.719,9.41,25.522,10.097,25.522,11.015z"/>
				<path fill="#FFFFFF" d="M38.639,12.083l1.516,0.484c-0.232,0.872-0.618,1.52-1.158,1.943c-0.54,0.423-1.225,0.635-2.054,0.635
					c-1.026,0-1.87-0.362-2.531-1.086c-0.661-0.724-0.991-1.713-0.991-2.968c0-1.328,0.333-2.359,0.998-3.094
					s1.539-1.102,2.623-1.102c0.946,0,1.715,0.29,2.306,0.869c0.352,0.342,0.616,0.834,0.792,1.475l-1.547,0.375
					c-0.092-0.415-0.283-0.743-0.573-0.983c-0.291-0.24-0.643-0.36-1.058-0.36c-0.574,0-1.039,0.212-1.396,0.637
					c-0.357,0.425-0.536,1.113-0.536,2.064c0,1.009,0.175,1.728,0.527,2.156c0.351,0.429,0.808,0.643,1.37,0.643
					c0.414,0,0.771-0.136,1.069-0.407C38.294,13.092,38.508,12.666,38.639,12.083z"/>
			</g>
			<g opacity="0.5">
				<path fill="none" stroke="#4F4F4F" stroke-width="0.8" d="M38.153,48.208h21.73v7.875h-21.73V48.208z"/>
				<path fill="none" stroke="#4F4F4F" stroke-width="0.8" d="M16.423,56.082v-7.875h21.73v7.875H16.423z"/>
				<path fill="none" stroke="#4F4F4F" stroke-width="0.8" d="M38.153,63.957h-21.73v-7.875h21.73V63.957z"/>
				<path fill="none" stroke="#4F4F4F" stroke-width="0.8" d="M38.153,88.77h-0.114v8.14H16.423v-8.254h21.73V88.77z"/>
				<path fill="none" stroke="#4F4F4F" stroke-width="0.8" d="M59.887,88.77h-0.116v8.14H37.976v-8.254h21.911V88.77z"/>
				<path fill="none" stroke="#4F4F4F" stroke-width="0.8" d="M38.153,80.259h-21.73v-8.092h21.73V80.259z"/>
				<path fill="none" stroke="#4F4F4F" stroke-width="0.8" d="M38.153,72.167h-21.73v-8.21h21.73V72.167z"/>
				<path fill="none" stroke="#4F4F4F" stroke-width="0.8" d="M38.153,63.957h21.73v8.21h-21.73V63.957z"/>
				<path fill="none" stroke="#4F4F4F" stroke-width="0.8" d="M38.153,88.655h21.73v0.114h-21.73V88.655z"/>
				<path fill="none" stroke="#4F4F4F" stroke-width="0.8" d="M38.153,56.082h21.73v7.875h-21.73V56.082z"/>
				<path fill="none" stroke="#4F4F4F" stroke-width="0.8" d="M38.153,72.167h21.73v8.092h-21.73V72.167z"/>
				<path fill="#8D9BB2" stroke="#4F4F4F" stroke-width="0.8" d="M38.153,80.259h21.73v8.396h-21.73V80.259z"/>
				<path fill="#8D9BB2" stroke="#4F4F4F" stroke-width="0.8" d="M38.153,88.655h-21.73v-8.396h21.73V88.655z"/>
				<path fill="#8D9BB2" stroke="#4F4F4F" stroke-width="0.8" d="M38.153,55.827h21.73v8.397h-21.73V55.827z"/>
				<path fill="#8D9BB2" stroke="#4F4F4F" stroke-width="0.8" d="M38.153,64.225h-21.73v-8.397h21.73V64.225z"/>
			</g>
		</g>
		<path fill="none" d="M128,128H0V0h128V128z"/>
	</g>
</svg>
