<?xml version="1.0" encoding="UTF-8" standalone="no"?>
<!DOCTYPE svg PUBLIC "-//W3C//DTD SVG 20010904//EN"
"http://www.w3.org/TR/2001/REC-SVG-20010904/DTD/svg10.dtd">
<svg
   width="128"
   height="128"
>
  <defs
     id="defs603">
    <linearGradient
       id="defitem30"
       gradientUnits="userSpaceOnUse"
       x1="64.8646"
       y1="123.023"
       x2="64.8646"
       y2="4.20176">
      <stop
         stop-color="#dfdfdf"
         offset="0"
         stop-opacity="1"
         id="stop605" />
      <stop
         stop-color="#f9f9f9"
         offset="0.8595"
         stop-opacity="1"
         id="stop606" />
    </linearGradient>
    <linearGradient
       id="defitem31"
       gradientUnits="userSpaceOnUse"
       x1="104.89"
       y1="32.536"
       x2="90.0927"
       y2="3.63759">
      <stop
         stop-color="#ffffff"
         offset="0"
         stop-opacity="1"
         id="stop608" />
      <stop
         stop-color="#dadad6"
         offset="1"
         stop-opacity="1"
         id="stop609" />
    </linearGradient>
    <linearGradient
       id="defitem32"
       gradientUnits="userSpaceOnUse"
       x1="11.227"
       y1="123.494"
       x2="116.32"
       y2="55.5854">
      <stop
         stop-color="#ffffff"
         offset="0"
         stop-opacity="1"
         id="stop611" />
      <stop
         stop-color="#f4f4f4"
         offset="1"
         stop-opacity="1"
         id="stop612" />
    </linearGradient>
    <linearGradient
       id="defitem33"
       gradientUnits="userSpaceOnUse"
       x1="-56.2222"
       y1="10.6514"
       x2="74.8195"
       y2="10.6514">
      <stop
         offset="0"
         style="stop-color:#ffffff;stop-opacity:1;"
         id="stop654" />
      <stop
         offset="1"
         style="stop-color:#f0951a;stop-opacity:1;"
         id="stop655" />
    </linearGradient>
    <linearGradient
       id="defitem0"
       gradientUnits="userSpaceOnUse"
       x1="81.0031"
       y1="164.639"
       x2="81.0031"
       y2="90.655">
      <stop
         stop-color="#ffa800"
         offset="0"
         stop-opacity="1"
         id="stop562" />
      <stop
         stop-color="#fff231"
         offset="1"
         stop-opacity="1"
         id="stop563" />
    </linearGradient>
    <linearGradient
       id="defitem1"
       gradientUnits="userSpaceOnUse"
       x1="118.725"
       y1="72.8819"
       x2="118.725"
       y2="72.8819">
      <stop
         stop-color="#ffa800"
         offset="0"
         stop-opacity="1"
         id="stop565" />
      <stop
         stop-color="#ffcc00"
         offset="1"
         stop-opacity="1"
         id="stop566" />
    </linearGradient>
    <linearGradient
       id="defitem2"
       gradientUnits="userSpaceOnUse"
       x1="128.299"
       y1="52.9607"
       x2="128.299"
       y2="139.704">
      <stop
         stop-color="#ffcd00"
         offset="0"
         stop-opacity="1"
         id="stop568" />
      <stop
         stop-color="#fff231"
         offset="1"
         stop-opacity="1"
         id="stop569" />
    </linearGradient>
    <linearGradient
       id="defitem3"
       gradientUnits="userSpaceOnUse"
       x1="140.146"
       y1="52.9604"
       x2="140.146"
       y2="139.705">
      <stop
         stop-color="#ffa800"
         offset="0"
         stop-opacity="1"
         id="stop571" />
      <stop
         stop-color="#fff231"
         offset="1"
         stop-opacity="1"
         id="stop572" />
    </linearGradient>
    <linearGradient
       id="defitem4"
       gradientUnits="userSpaceOnUse"
       x1="151.537"
       y1="-10.064"
       x2="-7.61855"
       y2="149.092">
      <stop
         stop-color="#ffa800"
         offset="0"
         stop-opacity="1"
         id="stop574" />
      <stop
         stop-color="#ffcc00"
         offset="1"
         stop-opacity="1"
         id="stop575" />
    </linearGradient>
    <linearGradient
       id="defitem5"
       gradientUnits="userSpaceOnUse"
       x1="111.214"
       y1="-19.5899"
       x2="-30.4089"
       y2="122.033">
      <stop
         stop-color="#ffa800"
         offset="0"
         stop-opacity="1"
         id="stop577" />
      <stop
         stop-color="#ffcc00"
         offset="1"
         stop-opacity="1"
         id="stop578" />
    </linearGradient>
    <linearGradient
       id="defitem6"
       gradientUnits="userSpaceOnUse"
       x1="135.978"
       y1="7.24011"
       x2="-9.08133"
       y2="152.3">
      <stop
         stop-color="#ffa800"
         offset="0"
         stop-opacity="1"
         id="stop580" />
      <stop
         stop-color="#ffcc00"
         offset="1"
         stop-opacity="1"
         id="stop581" />
    </linearGradient>
    <linearGradient
       id="defitem7"
       gradientUnits="userSpaceOnUse"
       x1="194.828"
       y1="32.2429"
       x2="2.31344"
       y2="224.757">
      <stop
         stop-color="#ffa800"
         offset="0"
         stop-opacity="1"
         id="stop583" />
      <stop
         stop-color="#ffcc00"
         offset="1"
         stop-opacity="1"
         id="stop584" />
    </linearGradient>
    <linearGradient
       id="defitem8"
       gradientUnits="userSpaceOnUse"
       x1="162.553"
       y1="22.0632"
       x2="-11.3941"
       y2="196.01">
      <stop
         stop-color="#ffa800"
         offset="0"
         stop-opacity="1"
         id="stop586" />
      <stop
         stop-color="#ffcc00"
         offset="1"
         stop-opacity="1"
         id="stop587" />
    </linearGradient>
    <linearGradient
       id="defitem9"
       gradientUnits="userSpaceOnUse"
       x1="166.992"
       y1="16.1914"
       x2="13.3132"
       y2="169.87">
      <stop
         stop-color="#ffa800"
         offset="0"
         stop-opacity="1"
         id="stop589" />
      <stop
         stop-color="#ffcc00"
         offset="1"
         stop-opacity="1"
         id="stop590" />
    </linearGradient>
    <linearGradient
       id="defitem10"
       gradientUnits="userSpaceOnUse"
       x1="125.164"
       y1="-25.1714"
       x2="-28.6134"
       y2="128.606">
      <stop
         stop-color="#ffa800"
         offset="0"
         stop-opacity="1"
         id="stop592" />
      <stop
         stop-color="#ffcc00"
         offset="1"
         stop-opacity="1"
         id="stop593" />
    </linearGradient>
    <linearGradient
       id="defitem11"
       gradientUnits="userSpaceOnUse"
       x1="59.6913"
       y1="39.0511"
       x2="-15.0772"
       y2="113.82">
      <stop
         stop-color="#ffa800"
         offset="0"
         stop-opacity="1"
         id="stop595" />
      <stop
         stop-color="#ffcc00"
         offset="1"
         stop-opacity="1"
         id="stop596" />
    </linearGradient>
    <linearGradient
       id="defitem12"
       gradientUnits="userSpaceOnUse"
       x1="74.1488"
       y1="30.0211"
       x2="9.02067"
       y2="95.1493">
      <stop
         stop-color="#ffa800"
         offset="0"
         stop-opacity="1"
         id="stop598" />
      <stop
         stop-color="#ffcc00"
         offset="1"
         stop-opacity="1"
         id="stop599" />
    </linearGradient>
    <linearGradient
       id="defitem13"
       gradientUnits="userSpaceOnUse"
       x1="47.2894"
       y1="24.6566"
       x2="47.2894"
       y2="153.559">
      <stop
         stop-color="#ffcd00"
         offset="0"
         stop-opacity="1"
         id="stop601" />
      <stop
         stop-color="#fff231"
         offset="1"
         stop-opacity="1"
         id="stop602" />
    </linearGradient>
    <linearGradient
       id="defitem14"
       gradientUnits="userSpaceOnUse"
       x1="6.90755"
       y1="31.9287"
       x2="150.519"
       y2="31.9287">
      <stop
         stop-color="#ffcd00"
         offset="0"
         stop-opacity="1"
         id="stop604" />
      <stop
         stop-color="#fff231"
         offset="1"
         stop-opacity="1"
         id="stop661" />
    </linearGradient>
    <linearGradient
       id="defitem15"
       gradientUnits="userSpaceOnUse"
       x1="78.5292"
       y1="24.6317"
       x2="78.5292"
       y2="153.556">
      <stop
         stop-color="#ffcd00"
         offset="0"
         stop-opacity="1"
         id="stop607" />
      <stop
         stop-color="#fff231"
         offset="1"
         stop-opacity="1"
         id="stop664" />
    </linearGradient>
    <linearGradient
       id="defitem16"
       gradientUnits="userSpaceOnUse"
       x1="51.9049"
       y1="37.3427"
       x2="8.57833"
       y2="80.6692">
      <stop
         stop-color="#ffa800"
         offset="0"
         stop-opacity="1"
         id="stop610" />
      <stop
         stop-color="#ffcc00"
         offset="1"
         stop-opacity="1"
         id="stop667" />
    </linearGradient>
    <linearGradient
       id="defitem17"
       gradientUnits="userSpaceOnUse"
       x1="7.33122"
       y1="84.2578"
       x2="52.4673"
       y2="78.3963">
      <stop
         stop-color="#ffa800"
         offset="0"
         stop-opacity="1"
         id="stop613" />
      <stop
         stop-color="#ffcc00"
         offset="1"
         stop-opacity="1"
         id="stop614" />
    </linearGradient>
    <linearGradient
       id="defitem18"
       gradientUnits="userSpaceOnUse"
       x1="105.901"
       y1="58.7793"
       x2="-36.0101"
       y2="169.092">
      <stop
         stop-color="#ffa800"
         offset="0"
         stop-opacity="1"
         id="stop616" />
      <stop
         stop-color="#ffcc00"
         offset="1"
         stop-opacity="1"
         id="stop617" />
    </linearGradient>
    <linearGradient
       id="defitem19"
       gradientUnits="userSpaceOnUse"
       x1="116.891"
       y1="53.1564"
       x2="43.3731"
       y2="125.55">
      <stop
         stop-color="#ffcd00"
         offset="0"
         stop-opacity="1"
         id="stop619" />
      <stop
         stop-color="#fff231"
         offset="1"
         stop-opacity="1"
         id="stop620" />
    </linearGradient>
    <linearGradient
       id="defitem20"
       gradientUnits="userSpaceOnUse"
       x1="21.2744"
       y1="157.238"
       x2="108.49"
       y2="70.0211">
      <stop
         stop-color="#ff1a00"
         offset="0"
         stop-opacity="1"
         id="stop622" />
      <stop
         stop-color="#970000"
         offset="1"
         stop-opacity="1"
         id="stop623" />
    </linearGradient>
    <linearGradient
       id="defitem21"
       gradientUnits="userSpaceOnUse"
       x1="21.2744"
       y1="157.238"
       x2="108.49"
       y2="70.0211">
      <stop
         stop-color="#ff1a00"
         offset="0"
         stop-opacity="1"
         id="stop625" />
      <stop
         stop-color="#970000"
         offset="1"
         stop-opacity="1"
         id="stop626" />
    </linearGradient>
    <linearGradient
       id="defitem22"
       gradientUnits="userSpaceOnUse"
       x1="40.4102"
       y1="65.5726"
       x2="115.828"
       y2="140.432">
      <stop
         stop-color="#ff0000"
         offset="0"
         stop-opacity="1"
         id="stop628" />
      <stop
         stop-color="#ff771c"
         offset="1"
         stop-opacity="1"
         id="stop629" />
    </linearGradient>
    <radialGradient
       href="#defitem0"
       id="radialGradient667" />
  </defs>
  <path
     id="path605"
     fill="#ffffff"
     d="M121.164 126.948L6.836 126.948L6.836 1.052L87.537 1.052L121.164 34.679L121.164 126.948L121.164 126.948Z"
     transform="matrix(1,0,0,-1,0,128)"
     style="font-size:12;fill:#ffffff;" />
  <path
     id="path614"
     fill="url(#defitem30)"
     d="M117.734 123.981L10.266 123.981L10.106 1.327L86.563 1.327L117.735 32.579L117.735 123.981L117.734 123.981Z"
     transform="matrix(1,0,0,-1,0,128)"
     style="font-size:12;fill:url(#defitem30);" />
  <path
     id="path621"
     fill="#000000"
     fill-opacity="0.9804"
     d="M 85.19101 90.97601 L 85.19101 126.73 L 86.98401 126.73 L 120.623 93.09101 L 120.623 90.97601 L 85.19101 90.97601 L 85.19101 90.97601 z "
     style="font-size:12;fill:#919191;fill-opacity:0.24;" />
  <path
     id="path652"
     fill="none"
     d="M128 0L0 0L0 128L128 128L128 0Z"
     transform="matrix(1,0,0,-1,0,128)"
     style="font-size:12;fill:none;" />
  <path
     id="path651"
     fill="url(#defitem32)"
     d="M118.006 112.777L118.006 124.06L10.199 124.06L10.103 58.72C20.078 54.173 31.254 51.624 43.057 51.624C80.402 51.624 111.455 79.124 118.006 112.777Z"
     transform="matrix(1,0,0,-1,0,128)"
     style="font-size:12;fill:url(#defitem32);" />
  <path
     id="path659"
     fill="url(#defitem33)"
     d="M 117.374 16.875 L 10 16.875 L 10 4.130995 L 117.375 4.130995 L 117.375 16.875 L 117.374 16.875 z "
     style="font-size:12;fill:url(#defitem33);" />
  <path
     id="path628"
     fill="#828282"
     d="M121.164 127.448L6.336 127.448L6.336 0.552L87.744 0.552L121.664 34.472L121.664 127.448L121.164 127.448ZM120.664 126.448C120.664 125.461 120.664 35.296 120.664 34.886C120.375 34.597 87.619 1.841 87.33 1.552C86.92 1.552 8.32 1.552 7.336 1.552C7.336 2.54 7.336 125.461 7.336 126.448C8.322 126.448 119.678 126.448 120.664 126.448Z"
     transform="matrix(1,0,0,-1,0,128)"
     style="font-size:12;fill:#828282;" />
  <path
     id="path297"
     fill="#000000"
     fill-opacity="0.15"
     stroke-width="0"
     d="M 126.1746 76.74573 C 126.1746 76.74573 117.6562 70.39549 115.853 69.05061 C 115.8634 68.78933 115.865 68.74309 115.8738 68.52709 C 116.7538 67.91197 117.945 67.14397 119.0514 66.43461 C 122.437 64.26221 124.0018 63.20973 124.7842 62.24973 C 125.177 61.76797 125.3842 61.17061 125.3842 60.56445 C 125.3842 60.30485 125.3466 60.04533 125.2698 59.79021 C 124.001 55.60885 122.1946 51.42661 119.8986 47.35837 C 119.5234 46.69277 118.881 46.22077 118.1346 46.06157 C 118.1346 46.06157 109.073 44.12717 108.2914 43.96078 C 106.9354 41.84558 105.3994 39.79758 103.7298 37.81518 C 105.0322 36.14718 106.8482 33.82078 106.8482 33.82078 C 107.2266 33.33518 107.413 32.75678 107.413 32.18075 C 107.413 31.48155 107.1394 30.78715 106.605 30.26715 C 103.4626 27.21275 100.0754 24.39755 96.54093 21.89915 C 95.75853 21.34635 94.74093 21.25595 93.87293 21.66155 C 93.87293 21.66155 89.79133 23.56875 88.08173 24.36715 C 85.94973 23.05675 83.73933 21.87195 81.47213 20.81035 C 81.51293 18.81595 81.58653 15.23435 81.58653 15.21595 C 81.58653 14.13675 80.93613 13.16155 79.93437 12.75035 C 75.62949 10.97915 71.18149 9.593552 66.71389 8.630352 C 65.39389 8.345552 64.06949 9.092752 63.63037 10.36955 C 63.63037 10.36955 62.62677 13.28795 61.92813 15.31755 C 59.79925 15.11115 57.69525 15.02235 55.63653 15.07675 C 54.38765 13.49835 50.18501 8.188752 50.18501 8.188752 C 49.63837 7.497552 48.78589 7.121552 47.90677 7.183152 C 44.19477 7.444752 40.62237 8.106352 37.20989 9.047152 C 36.79837 8.920752 36.38061 8.807952 35.93789 8.896752 C 34.80989 9.120752 33.95301 10.04315 33.81165 11.18475 C 33.70061 12.08795 33.66325 14.64235 33.66325 17.57675 C 33.66325 18.91995 33.67213 20.32475 33.68365 21.70395 C 31.15212 20.47035 23.83922 16.90635 23.83922 16.90635 C 22.89872 16.44795 21.76982 16.57835 20.96362 17.24475 C 18.07302 19.63355 15.58142 22.39515 13.55832 25.45355 C 13.32272 25.80875 13.17612 26.21595 13.13072 26.63995 C 13.04722 27.42155 12.62142 36.04558 12.49262 38.66958 C 12.49072 38.71278 12.48982 38.75678 12.48982 38.79998 C 12.48982 39.68478 12.92902 40.51438 13.66672 41.01118 C 13.66672 41.01118 14.88362 41.83118 15.52102 42.26078 C 12.73162 42.42398 9.798319 42.59518 9.798319 42.59518 C 8.535219 42.66958 7.498719 43.62078 7.315619 44.87277 L 5.191219 59.45509 C 5.172519 59.58309 5.163619 59.71109 5.163619 59.83997 C 5.163619 59.95197 5.170719 60.06485 5.185019 60.17685 L 6.746719 72.43821 C 6.905919 73.68445 7.926319 74.65245 9.177819 74.75909 C 9.177819 74.75909 19.13432 75.63549 19.41782 75.66133 C 20.23662 77.43997 21.16812 79.19021 22.03382 80.67997 C 21.98762 80.74133 21.92902 80.75461 21.88542 80.82661 L 21.04462 82.19021 C 20.29342 84.19733 18.68902 88.07909 16.27382 93.72709 C 16.12982 94.06397 16.05872 94.42045 16.05872 94.77509 C 16.05872 95.35109 16.24542 95.92261 16.60722 96.39549 C 19.10232 99.65773 27.26762 107.9235 30.82412 108.7715 C 31.56092 108.9466 32.33692 108.8009 32.96013 108.3698 C 32.96013 108.3698 40.71301 103.0026 42.91661 101.4765 C 44.82677 102.6622 47.66053 104.3654 49.72013 105.3725 C 49.94053 107.3298 51.26853 119.1502 51.26853 119.1502 C 51.38149 120.1511 52.04725 121.0027 52.99125 121.3529 C 60.15213 124.008 64.80101 125.1662 68.53701 125.2267 C 69.47125 125.2418 70.34949 124.7618 70.84453 123.9689 L 76.88989 114.3031 C 77.32813 113.6062 77.57165 113.2106 77.74765 112.9031 C 79.19837 112.8222 81.15453 112.6605 82.88093 112.3574 C 83.97373 113.7618 89.41853 120.7636 89.41853 120.7636 C 90.06173 121.5902 91.12893 121.9644 92.14653 121.7191 C 96.76493 120.6089 101.5594 117.1725 101.761 117.0275 C 101.905 116.9235 102.0386 116.8054 102.1586 116.6755 C 102.5418 116.2614 111.565 106.5022 112.9178 104.9049 C 113.3386 104.408 113.5578 103.7955 113.5578 103.1795 C 113.5578 102.7342 113.4434 102.2871 113.2098 101.8791 C 113.2098 101.8791 112.7506 101.0765 112.5786 100.7751 C 112.6434 100.7289 112.721 100.7094 112.7826 100.6569 L 123.441 91.55021 C 123.7426 91.29245 123.9826 90.97149 124.1442 90.60885 C 125.7266 87.06133 126.765 83.21949 127.229 79.19021 C 127.2402 79.08797 127.2466 78.98573 127.2466 78.88445 C 127.2466 78.04885 126.8538 77.25333 126.1738 76.74661 L 126.1746 76.74573 z M 84.18493 80.92973 C 75.55125 82.76621 65.08277 80.41421 56.18413 74.63645 C 44.98053 67.36349 38.43037 56.27645 38.50501 46.50877 C 46.26589 37.21038 62.76101 36.11918 76.10325 45.49277 C 87.65133 53.60349 93.11453 67.29149 91.48733 78.03645 C 89.37133 79.36445 86.92493 80.34573 84.18493 80.92973 z "
     style="font-size:12;fill-opacity:0.15;stroke-width:0;"
     transform="matrix(0.75,0,0,0.75,16,15.99999)" />
  <path
     id="path309"
     fill="url(#defitem2)"
     stroke-width="0"
     d="M 99.97441 92.02576 C 99.97441 92.25152 100.0288 92.47912 100.1392 92.688 C 100.1392 92.688 103.472 98.93688 104.2512 100.3991 C 104.2136 100.4426 104.1488 100.52 104.0872 100.5929 L 105.3032 99.97688 L 100.4912 90.95288 C 100.456 90.98224 100.4152 90.99912 100.3832 91.032 C 100.1136 91.30312 99.97441 91.66136 99.97441 92.02576 z "
     style="font-size:12;fill:url(#defitem2);stroke-width:0;"
     transform="matrix(0.75,0,0,0.75,16,15.99999)" />
  <path
     id="path313"
     fill="url(#defitem3)"
     stroke-width="0"
     d="M 117.4136 72.83648 L 107.6368 65.53952 L 107.448 62.14136 C 107.2552 62.37864 107.1352 62.52536 107.1352 62.52536 C 106.9304 62.77688 106.8192 63.09248 106.8192 63.41512 C 106.8192 63.44088 106.8208 63.46752 106.8208 63.49336 L 106.9464 65.75464 C 106.9696 66.17064 107.1776 66.55648 107.5112 66.80536 C 107.5112 66.80536 115.6168 72.85424 116.7744 73.71912 C 116.6168 74.88088 115.8088 80.82848 115.5168 82.97776 L 115.9528 83.19648 L 117.4128 72.83736 L 117.4136 72.83648 z "
     style="font-size:12;fill:url(#defitem3);stroke-width:0;"
     transform="matrix(0.75,0,0,0.75,16,15.99999)" />
  <path
     id="path317"
     fill="url(#defitem4)"
     stroke-width="0"
     d="M 23.3831 29.38241 L 15.4071 23.4488 C 15.3991 23.4584 11.3449 22.472 11.3378 22.48 C 11.256 23.2456 10.712 34.35521 10.712 34.35521 L 20.6587 41.05441 L 23.3823 29.38241 L 23.3831 29.38241 z "
     style="font-size:12;fill:url(#defitem4);stroke-width:0;"
     transform="matrix(0.75,0,0,0.75,16,15.99999)" />
  <path
     id="path321"
     fill="url(#defitem5)"
     stroke-width="0"
     d="M 54.92441 87.94664 L 42.70937 81.17776 L 30.63289 89.48176 L 19.2569 78.33424 C 19.0943 78.48536 19.4303 78.28448 14.2809 90.33152 C 17.1315 94.05864 24.6951 101.184 26.9983 101.7334 C 38.40001 93.84 38.40001 93.84 38.40001 93.84 C 38.40001 93.84 45.81777 98.55464 47.75465 99.10224 C 49.47553 114.408 47.75465 99.10224 49.47553 114.408 C 55.50225 116.6426 60.38577 118.0551 64.13777 118.1155 C 71.06489 106.9849 71.04001 107.152 71.06489 106.9849 L 55.08801 103.2525 L 54.92441 87.94664 z "
     style="font-size:12;fill:url(#defitem5);stroke-width:0;"
     transform="matrix(0.75,0,0,0.75,16,15.99999)" />
  <path
     id="path325"
     fill="url(#defitem6)"
     stroke-width="0"
     d="M 84.84081 91.528 L 73.27641 92.31464 L 70.52889 105.0426 C 70.53065 105.0426 71.31825 105.8746 71.32001 105.8746 C 71.32001 105.8746 76.87737 105.7511 79.50937 104.9475 C 87.08081 114.6818 79.50937 104.9475 87.08081 114.6818 C 91.24081 113.6818 95.75841 110.4205 95.75841 110.4205 C 95.75841 110.4205 105.1096 100.3075 106.4408 98.736 L 94.05361 105.0685 L 84.84161 91.528 L 84.84081 91.528 z "
     style="font-size:12;fill:url(#defitem6);stroke-width:0;"
     transform="matrix(0.75,0,0,0.75,16,15.99999)" />
  <path
     id="path329"
     fill="url(#defitem7)"
     stroke-width="0"
     d="M 108.3256 63.16448 C 109.4192 61.82136 117.1016 57.55648 118.272 56.12 L 107.9304 56.05864 L 108.3256 63.16448 z "
     style="font-size:12;fill:url(#defitem7);stroke-width:0;"
     transform="matrix(0.75,0,0,0.75,16,15.99999)" />
  <path
     id="path333"
     fill="url(#defitem8)"
     stroke-width="0"
     d="M 95.14641 87.94848 L 106.6072 94.184 L 117.2656 85.07736 L 104.4696 77.61424 L 95.14641 87.94848 z "
     style="font-size:12;fill:url(#defitem8);stroke-width:0;"
     transform="matrix(0.75,0,0,0.75,16,15.99999)" />
  <path
     id="path337"
     fill="url(#defitem9)"
     stroke-width="0"
     d="M 32.01425 7.0672 C 31.79201 8.8664 31.93065 19.7848 31.93065 19.7848 C 31.92977 19.792 31.93153 19.7776 31.93065 19.7848 L 37.17153 16.1688 C 37.17153 16.1688 32.01513 7.0672 32.01425 7.0672 z "
     style="font-size:12;fill:url(#defitem9);stroke-width:0;"
     transform="matrix(0.75,0,0,0.75,16,15.99999)" />
  <path
     id="path341"
     fill="url(#defitem10)"
     stroke-width="0"
     d="M 22.2355 55.53864 L 7.8356 54.16176 L 5.5111 40.81441 L 3.3858 55.39552 L 4.9476 67.65688 C 4.9476 67.65688 4.9476 67.65688 16.7654 68.69776 C 18.6658 73.33864 22.0275 78.34576 22.0275 78.34576 L 27.9715 68.45952 L 22.2355 55.53864 z "
     style="font-size:12;fill:url(#defitem10);stroke-width:0;"
     transform="matrix(0.75,0,0,0.75,16,15.99999)" />
  <path
     id="path345"
     fill="url(#defitem11)"
     stroke-width="0"
     d="M 5.5111 40.81441 L 4.4871 54.66488 L 4.9476 67.65688 L 6.9236 54.08352 L 5.5111 40.81441 z "
     style="font-size:12;fill:url(#defitem11);stroke-width:0;"
     transform="matrix(0.75,0,0,0.75,16,15.99999)" />
  <path
     id="path349"
     fill="url(#defitem12)"
     stroke-width="0"
     d="M 22.2355 55.53864 L 16.7654 68.69776 L 22.32 78.34576 L 28.79289 67.55552 L 22.2365 55.53776 L 22.2355 55.53864 z "
     style="font-size:12;fill:url(#defitem12);stroke-width:0;"
     transform="matrix(0.75,0,0,0.75,16,15.99999)" />
  <path
     id="path353"
     fill="url(#defitem13)"
     stroke-width="0"
     d="M 43.45425 5.1528 L 32.01425 7.0664 L 32.24089 7.4664 C 35.83737 6.3728 39.66401 5.6784 43.64889 5.3984 L 43.45337 5.152 L 43.45425 5.1528 z "
     style="font-size:12;fill:url(#defitem13);stroke-width:0;"
     transform="matrix(0.75,0,0,0.75,16,15.99999)" />
  <path
     id="path357"
     fill="url(#defitem14)"
     stroke-width="0"
     d="M 101.9096 101.7022 C 100.928 102.2 99.89921 102.72 98.92641 103.2125 C 99.95281 102.7466 100.9448 102.2409 101.9096 101.7022 z "
     style="font-size:12;fill:url(#defitem14);stroke-width:0;"
     transform="matrix(0.75,0,0,0.75,16,15.99999)" />
  <path
     id="path366"
     fill="url(#defitem16)"
     stroke-width="0"
     d="M 30.63201 89.48264 L 26.9974 101.7325 L 38.39913 93.83912 L 42.70937 81.17864 L 30.63289 89.48264 L 30.63201 89.48264 z "
     style="font-size:12;fill:url(#defitem16);stroke-width:0;"
     transform="matrix(0.75,0,0,0.75,16,15.99999)" />
  <path
     id="path367"
     fill="#ffffff"
     fill-opacity="0.4"
     stroke-width="0"
     d="M 47.75377 99.10136 L 54.92441 87.94664 L 55.08801 103.2515 L 49.47465 114.4071 L 47.75377 99.10136 z "
     style="font-size:12;fill:#ffffff;fill-opacity:0.4;stroke-width:0;"
     transform="matrix(0.75,0,0,0.75,16,15.99999)" />
  <path
     id="path368"
     fill="#ffffff"
     fill-opacity="0.4"
     stroke-width="0"
     d="M 84.77121 91.75648 L 79.50937 104.9475 L 87.08081 114.6818 L 94.05361 105.0685 L 84.77281 91.75552 L 84.77121 91.75648 z "
     style="font-size:12;fill:#ffffff;fill-opacity:0.4;stroke-width:0;"
     transform="matrix(0.75,0,0,0.75,16,15.99999)" />
  <path
     id="path372"
     fill="url(#defitem17)"
     fill-opacity="0.5"
     stroke-width="0"
     d="M 6.9236 54.08352 L 4.9476 67.65688 L 16.7654 68.69776 L 22.2355 55.53864 L 6.9236 54.08352 z "
     style="font-size:12;fill:url(#defitem17);fill-opacity:0.5;stroke-width:0;"
     transform="matrix(0.75,0,0,0.75,16,15.99999)" />
  <path
     id="path377"
     fill="url(#defitem18)"
     stroke-width="0"
     d="M 121.7296 72.30136 C 121.7296 72.30136 113.2112 65.95112 111.408 64.60624 C 111.4184 64.34488 111.4208 64.29864 111.4296 64.08264 C 112.3096 63.46752 113.5008 62.69952 114.6072 61.99024 C 117.992 59.81776 119.5576 58.76536 120.3392 57.80536 C 120.7328 57.32352 120.9392 56.72624 120.9392 56.12 C 120.9392 55.86048 120.9024 55.60088 120.8248 55.34576 C 119.5568 51.16448 117.7504 46.9824 115.4544 42.91361 C 115.0792 42.24801 114.4368 41.77601 113.6896 41.61681 C 113.6896 41.61681 104.6288 39.68241 103.8472 39.51681 C 102.4904 37.40081 100.9544 35.35281 99.28561 33.37041 C 100.5872 31.70321 102.4032 29.37601 102.4032 29.37601 C 102.7824 28.89041 102.968 28.31201 102.968 27.736 C 102.968 27.0376 102.6952 26.3432 102.16 25.8232 C 99.01761 22.768 95.63121 19.9528 92.09601 17.4552 C 91.31361 16.9024 90.29601 16.8112 89.42881 17.2168 C 89.42881 17.2168 85.34641 19.1248 83.63761 19.9224 C 81.50481 18.6128 79.29513 17.4272 77.02753 16.3664 C 77.06841 14.3712 77.14225 10.7904 77.14225 10.7712 C 77.14225 9.6928 76.49153 8.7176 75.48977 8.3056 C 71.18489 6.5352 66.73689 5.1496 62.26937 4.1856 C 60.94937 3.9016 59.62489 4.648 59.18577 5.9256 C 59.18577 5.9256 58.18225 8.8432 57.48353 10.8728 C 55.35465 10.6664 53.25065 10.5776 51.19201 10.632 C 49.94313 9.0544 45.74041 3.744 45.74041 3.744 C 45.19377 3.0536 44.34137 2.6776 43.46225 2.7384 C 39.75025 3 36.17777 3.6624 32.76537 4.6024 C 32.35377 4.4768 31.93601 4.3632 31.49337 4.4528 C 30.36537 4.6768 29.50849 5.5992 29.36713 6.7408 C 29.25601 7.6432 29.21865 10.1984 29.21865 13.1328 C 29.21865 14.4752 29.22753 15.88 29.23913 17.2592 C 26.7075 16.0256 19.3947 12.4624 19.3947 12.4624 C 18.4543 12.0032 17.3254 12.1344 16.5191 12.8 C 13.6285 15.1896 11.1369 17.9512 9.1138 21.0088 C 8.8783 21.3648 8.7315 21.7712 8.6863 22.1952 C 8.6027 22.9776 8.1769 31.60081 8.0489 34.22561 C 8.0471 34.26961 8.0463 34.31281 8.0463 34.35681 C 8.0463 35.24081 8.4854 36.07121 9.2231 36.56801 C 9.2231 36.56801 10.44 37.38721 11.0774 37.81681 C 8.288 37.98081 5.3547 38.15201 5.3547 38.15201 C 4.0916 38.22561 3.0551 39.17681 2.872 40.42961 L 0.7467 55.01064 C 0.728 55.13864 0.7191 55.26664 0.7191 55.39552 C 0.7191 55.50752 0.7262 55.62048 0.7405 55.73248 L 2.3022 67.99376 C 2.4614 69.24 3.4818 70.208 4.7334 70.31464 C 4.7334 70.31464 14.6898 71.19112 14.9734 71.21688 C 15.792 72.99552 16.7235 74.74576 17.5894 76.23552 C 17.5431 76.29688 17.4845 76.31024 17.4409 76.38224 L 16.6 77.74576 C 15.8489 79.75288 14.2445 83.63464 11.8294 89.28264 C 11.6854 89.61952 11.6143 89.976 11.6143 90.33064 C 11.6143 90.90664 11.8009 91.47824 12.1627 91.95112 C 14.6578 95.21336 22.8231 103.4791 26.3795 104.3271 C 27.1165 104.5022 27.8925 104.3565 28.51553 103.9254 C 28.51553 103.9254 36.26849 98.55824 38.47201 97.032 C 40.38225 98.21776 43.21601 99.92088 45.27553 100.928 C 45.49601 102.8854 46.82401 114.7058 46.82401 114.7058 C 46.93689 115.7066 47.60265 116.5582 48.54665 116.9085 C 55.70753 119.5635 60.35641 120.7218 64.09241 120.7822 C 65.02665 120.7973 65.90489 120.3173 66.40001 119.5245 L 72.44537 109.8586 C 72.88353 109.1618 73.12713 108.7662 73.30313 108.4586 C 74.75377 108.3778 76.71025 108.216 78.43641 107.9129 C 79.52889 109.3174 84.97441 116.3191 84.97441 116.3191 C 85.61681 117.1458 86.68481 117.52 87.70241 117.2746 C 92.32001 116.1645 97.11441 112.728 97.31681 112.5831 C 97.46081 112.4791 97.59361 112.3609 97.71361 112.2311 C 98.09681 111.8169 107.12 102.0578 108.4728 100.4605 C 108.8944 99.96352 109.1128 99.35112 109.1128 98.73512 C 109.1128 98.28976 108.9992 97.84264 108.7656 97.43464 C 108.7656 97.43464 108.3056 96.632 108.1344 96.33064 C 108.1992 96.28448 108.2768 96.26488 108.3376 96.21248 L 118.9968 87.10576 C 119.2976 86.848 119.5376 86.52712 119.6992 86.16448 C 121.2816 82.61688 122.32 78.77512 122.784 74.74576 C 122.7952 74.64352 122.8016 74.54136 122.8016 74.44 C 122.8016 73.60448 122.4088 72.80888 121.7288 72.30224 L 121.7296 72.30136 z M 117.2648 85.07736 L 106.6064 94.184 L 102.584 91.99552 C 104.1816 94.76976 105.7624 97.52536 106.44 98.73688 C 105.1088 100.3085 95.75761 110.4214 95.75761 110.4214 C 95.75761 110.4214 91.24001 113.6826 87.08001 114.6826 C 79.50841 104.9485 87.08001 114.6826 79.50841 104.9485 C 76.87641 105.752 71.31913 105.8755 71.31913 105.8755 C 71.31913 105.8755 71.28625 105.8409 71.24265 105.7955 C 71.17601 106.2391 71.11553 106.64 71.06313 106.9849 C 71.03825 107.152 71.06313 106.9849 64.13601 118.1155 C 60.38401 118.0551 55.50041 116.6418 49.47377 114.408 C 47.75289 99.10224 49.47377 114.408 47.75289 99.10224 C 45.81601 98.55376 38.39825 93.84 38.39825 93.84 C 38.39825 93.84 38.39825 93.84 26.9965 101.7334 C 24.6943 101.1849 17.1298 94.05864 14.2791 90.33152 C 19.4285 78.28448 19.0934 78.48536 19.2551 78.33424 L 20.5991 79.65152 C 20.2098 79.19552 19.8035 78.74576 19.4285 78.28448 L 20.9075 76.58936 C 19.7565 74.72176 17.9671 71.63824 16.7635 68.69776 L 14.5334 68.50136 C 13.8267 68.43912 13.1751 68.38224 12.5689 68.32888 L 11.4667 68.23112 C 11.0303 68.19288 10.624 68.15736 10.2445 68.12352 L 9.0294 68.016 C 8.3067 67.95288 7.7102 67.90048 7.2214 67.85688 L 6.4249 67.78664 C 6.3138 67.77688 6.2142 67.768 6.1191 67.76 L 5.6774 67.72088 C 5.6089 67.71464 5.5467 67.70936 5.4898 67.704 L 5.2436 67.68264 C 5.1609 67.67552 5.1005 67.67024 5.0578 67.66576 L 4.9618 67.65776 C 4.9485 67.65688 4.9476 67.65688 4.9476 67.65688 L 3.3858 55.39552 L 5.5111 40.81441 L 19.1183 40.01681 L 10.7129 34.35681 C 10.7129 34.35681 11.2569 23.2464 11.3387 22.4808 C 13.2631 19.5736 15.5831 17.0344 18.2195 14.8552 C 20.7627 16.1048 27.9654 19.6072 29.83377 20.5144 C 30.50225 19.9744 31.20449 19.4736 31.92265 18.9928 C 31.89601 16.456 31.82937 8.5728 32.01513 7.0664 C 32.01513 7.0664 32.09777 7.2136 32.24177 7.4664 C 35.83825 6.3728 39.66489 5.6784 43.64977 5.3984 L 49.92977 13.3336 C 52.96713 13.1624 56.11465 13.3008 59.31737 13.7432 L 61.70841 6.792 C 65.95113 7.7064 70.23113 9.0256 74.47641 10.7712 L 74.32713 18.0176 C 77.43201 19.368 80.50561 20.9992 83.49681 22.9312 L 90.55841 19.632 C 94.05681 22.1032 97.31121 24.8264 100.3024 27.7344 L 95.86641 33.41601 C 98.30081 36.09841 100.4432 38.94721 102.2496 41.90081 C 103.7488 42.22081 110.6448 43.69041 113.1328 44.2232 C 115.3176 48.096 117.0504 52.08712 118.2728 56.11824 C 117.2056 57.42752 110.7496 61.07824 108.7792 62.73336 C 108.7832 62.92624 108.7944 63.12176 108.7944 63.31376 C 108.7944 64.13248 108.7544 64.94048 108.6928 65.74048 L 108.7072 65.91824 L 120.1352 74.43736 C 119.7048 78.17336 118.752 81.73952 117.2648 85.07464 L 117.2648 85.07736 z "
     style="font-size:12;fill:url(#defitem18);stroke-width:0;"
     transform="matrix(0.75,0,0,0.75,16,15.99999)" />
  <path
     id="path386"
     fill="#ffffff"
     stroke-width="0"
     d="M 55.3164 101.9262 L 49.42752 114.2595 L 56.53864 103.5929 L 55.3164 101.9262 z "
     style="font-size:12;fill:#ffffff;stroke-width:0;"
     transform="matrix(0.75,0,0,0.75,16,15.99999)" />
  <path
     id="path387"
     fill="#ffffff"
     stroke-width="0"
     d="M 93.64961 104.4818 L 87.20561 114.4818 L 95.31681 104.704 L 93.64961 104.4818 z "
     style="font-size:12;fill:#ffffff;stroke-width:0;"
     transform="matrix(0.75,0,0,0.75,16,15.99999)" />
  <path
     id="path388"
     fill="#ffffff"
     stroke-width="0"
     d="M 30.09425 89.03736 L 26.872 101.5929 L 31.42753 88.92624 L 30.09425 89.03736 z "
     style="font-size:12;fill:#ffffff;stroke-width:0;"
     transform="matrix(0.75,0,0,0.75,16,15.99999)" />
  <path
     id="path389"
     fill="#ffffff"
     stroke-width="0"
     d="M 6.7609 53.37064 L 4.9831 67.48176 L 7.4276 54.14848 L 6.7609 53.37064 z "
     style="font-size:12;fill:#ffffff;stroke-width:0;"
     transform="matrix(0.75,0,0,0.75,16,15.99999)" />
  <path
     id="path362"
     fill="#ffffff"
     stroke-width="0"
     d="M 108.7072 65.92 L 108.6928 65.74224 C 108.7536 64.94136 108.7944 64.13336 108.7944 63.31552 C 108.7944 61.11912 108.5592 58.85688 108.1088 56.55288 L 118.2728 56.12 C 117.0504 52.088 115.3176 48.09776 113.1328 44.2248 C 110.6448 43.6928 103.7472 42.2224 102.2496 41.9024 C 100.4432 38.9488 98.30081 36.0992 95.86641 33.4176 L 100.3024 27.736 C 97.31121 24.8288 94.05681 22.1056 90.55841 19.6336 L 83.49681 22.9336 C 80.50561 21 77.43201 19.3696 74.32713 18.0192 L 74.47641 10.7736 C 70.23113 9.0272 65.95113 7.7096 61.70841 6.7936 L 59.31737 13.7448 C 56.11465 13.3024 52.96713 13.1648 49.92977 13.3352 L 43.64975 5.4 C 39.66487 5.6792 35.83823 6.3736 32.24175 7.4688 L 37.17151 16.1696 C 34.48887 17.296 32.02311 18.744 29.83375 20.5168 C 27.9653 19.6088 20.7626 16.1064 18.2195 14.8568 C 15.5831 17.0368 13.2631 19.5744 11.3386 22.4824 L 22.472 29.7992 C 20.9458 32.9816 20.0791 36.4144 19.8186 39.9776 L 5.5111 40.8144 C 5.3102 45.1416 5.7991 49.60448 6.9236 54.08352 L 22.2355 55.53864 C 23.7635 59.64352 25.976 63.70048 28.79199 67.55648 L 19.4302 78.28448 C 22.6595 82.25952 26.4053 86.03023 30.63287 89.48263 L 42.70935 81.17864 L 42.75735 81.20536 C 43.45151 81.696 44.15823 82.17776 44.87999 82.64624 C 48.10313 84.73863 51.47913 86.50935 54.92441 87.94751 L 55.08801 103.2525 C 60.39113 105.1209 65.77153 106.3822 71.06489 106.9849 C 71.62665 103.2506 73.17601 92.98399 73.27737 92.31551 C 77.26937 92.55287 81.16721 92.30663 84.84161 91.52887 L 94.05361 105.0694 C 95.74401 104.5351 97.37121 103.9174 98.92721 103.2134 C 99.90081 102.7209 100.928 102.2009 101.9104 101.7031 C 103.5096 100.8125 105.0208 99.82223 106.4408 98.73775 C 105.0888 96.32175 100.144 87.76175 98.64481 85.16799 C 100.8616 83.36536 102.7704 81.25064 104.3296 78.84624 C 104.3864 78.75912 104.4336 78.66664 104.4896 78.57952 L 117.2664 85.07823 C 118.7536 81.74312 119.7064 78.176 120.1368 74.44088 L 108.7096 65.92176 L 108.7072 65.92 z M 93.30401 68.74136 C 85.79441 80.312 66.91553 81.39024 51.14041 71.15112 C 35.36351 60.90936 28.66399 43.2264 36.17599 31.6552 C 43.68711 20.0824 62.56537 19.0048 78.34225 29.2456 C 94.11841 39.4888 100.8176 57.16976 93.30401 68.74136 z "
     style="font-size:12;fill:#ffffff;stroke-width:0;"
     transform="matrix(0.75,0,0,0.75,16,15.99999)" />
  <path
     id="path385"
     fill="url(#defitem19)"
     stroke-width="0"
     d="M 107.7608 65.11197 C 108.0144 63.14845 108.0632 58.37949 107.6128 56.07461 L 118.2719 56.11997 C 117.0495 52.08797 115.3167 48.09773 113.1311 44.22477 C 110.6431 43.69277 103.7463 42.22237 102.2487 41.90237 C 100.4423 38.94877 98.29916 36.09917 95.86556 33.41757 L 100.3015 27.73597 C 97.31036 24.82877 94.05596 22.10557 90.55756 19.63357 L 83.49596 22.93357 C 80.50476 20.99997 77.43111 19.36957 74.32623 18.01917 L 74.47551 10.77357 C 70.23023 9.027167 65.95023 7.709567 61.70751 6.793567 L 59.31639 13.74477 C 56.11375 13.30237 52.96623 13.16477 49.92887 13.33517 L 43.64888 5.399967 C 39.664 5.679167 35.83736 6.373567 32.24088 7.468767 L 37.17064 16.16957 C 34.488 17.29597 32.02224 18.74397 29.83288 20.51677 C 27.96453 19.60877 20.76177 16.10637 18.21867 14.85677 C 15.58217 17.03677 13.26217 19.57437 11.33767 22.48237 L 22.87207 29.40957 C 21.34577 32.59197 20.91027 36.36557 20.64977 39.92797 L 5.511071 40.81437 C 5.310171 45.14157 6.340371 49.07733 7.464871 53.55645 L 22.87207 54.44533 C 24.40007 58.55021 27.46313 63.62661 30.27912 67.48261 L 21.39027 78.14933 C 23.97067 81.32621 25.43657 83.70309 30.42752 87.7786 C 30.42752 87.7786 30.27912 87.7786 42.576 79.33421 C 45.09424 81.85245 52.61239 85.45148 56.05775 86.88972 L 56.50223 102.4454 C 61.80535 104.3138 64.54223 104.8054 69.83551 105.408 C 70.39735 101.6738 71.80799 91.5582 71.90935 90.88972 C 75.90135 91.12708 81.86476 90.7786 85.53836 90.00084 L 94.57596 103.3342 C 97.24236 102.5938 103.3775 99.3822 104.7983 98.2968 C 103.4463 95.8808 98.89036 87.26132 97.39116 84.66748 C 99.60796 82.86485 102.4983 79.81245 104.0575 77.40797 C 104.1143 77.32085 116.9463 84.22308 116.9463 84.22308 C 118.4335 80.88797 119.7055 78.17509 120.1359 74.43997 L 107.7608 65.11197 z M 93.30396 68.74133 C 85.79436 80.31197 66.91551 81.39021 51.14039 71.15109 C 35.36352 60.90933 28.664 43.22637 36.176 31.65517 C 43.68712 20.08237 62.56535 19.00477 78.34223 29.24557 C 94.11836 39.48877 100.8175 57.16973 93.30396 68.74133 z "
     style="font-size:12;fill:url(#defitem19);stroke-width:0;"
     transform="matrix(0.75,0,0,0.75,16,15.99999)" />
  <path
     id="path381"
     fill="url(#defitem20)"
     stroke-width="0"
     d="M 51.73962 70.19288 C 36.39302 60.23024 29.76106 43.1096 36.95566 32.02639 C 44.1495 20.9448 62.48634 20.0336 77.83298 29.9952 C 86.73293 35.7744 93.14252 44.3776 94.97853 53.01248 C 96.18413 58.68352 95.36732 63.92088 92.61452 68.16088 C 89.86253 72.4 85.41053 75.27736 79.73962 76.48536 C 71.10586 78.32176 60.63746 75.96976 51.73874 70.192 L 51.73962 70.19288 z M 34.59214 30.4928 C 26.55125 42.8768 33.55566 61.74664 50.20454 72.55648 C 59.71746 78.73064 70.97786 81.23024 80.32813 79.24088 C 86.74573 77.87648 91.60912 74.67702 94.77551 69.79527 C 97.51466 65.14034 98.62643 61.89511 97.4592 52.65931 C 95.73537 43.34527 89.8333 35.23874 79.0621 27.96194 C 62.41222 17.15313 43.2396 18.5012 34.59214 30.4912 L 34.59214 30.4928 z "
     style="font-size:12;fill:url(#defitem20);stroke-width:0;"
     transform="matrix(0.75,0,0,0.75,16,15.99999)" />
  <path
     style="font-size:12;fill:url(#defitem22);stroke-width:1.11111;"
     d="M 51.73948 70.19288 C 36.39284 60.23024 29.5447 43.23674 36.73929 32.15434 C 43.93313 21.07194 63.3086 11.40483 81.89756 23.34 C 92.34716 29.9648 96.28076 42.492 96.98956 49.85808 C 97.20796 55.67016 95.36716 63.92088 92.61436 68.16088 C 89.86237 72.4 85.41035 75.27736 79.73948 76.48536 C 71.10572 78.32176 60.63732 75.96976 51.7386 70.192 L 51.73948 70.19288 z "
     id="path666"
     transform="matrix(0.75,0,0,0.75,16,15.99999)" />
  <path
     transform="scale(0.91617,0.928505)"
     style="font-size:12;font-weight:bold;fill:#ffffff;stroke-width:1;font-family:Helvetica;"
     d="M 40.7948 7.00051 L 38.9948 7.00051 L 38.9948 15.6165 L 40.7948 15.6165 L 40.7948 7.00051 z M 35.2508 11.1405 L 37.8788 7.00051 L 35.8028 7.00051 L 34.2308 9.78451 L 32.6948 7.00051 L 30.5468 7.00051 L 33.1748 11.2125 L 30.3908 15.6165 L 32.4908 15.6165 L 34.2308 12.6765 L 35.8628 15.6165 L 38.0588 15.6165 L 35.2508 11.1405 z M 29.4668 7.00051 L 23.1308 7.00051 L 23.1308 15.6165 L 29.6708 15.6165 L 29.6708 14.0925 L 24.8948 14.0925 L 24.8948 11.8605 L 29.0948 11.8605 L 29.0948 10.3365 L 24.8948 10.3365 L 24.8948 8.52451 L 29.4668 8.52451 L 29.4668 7.00051 z M 16.3988 12.7005 L 17.2388 11.8365 L 19.9028 15.6165 L 22.2188 15.6165 L 18.4988 10.5285 L 22.0148 7.00051 L 19.6868 7.00051 L 16.3988 10.5045 L 16.3988 7.00051 L 14.5988 7.00051 L 14.5988 15.6165 L 16.3988 15.6165 L 16.3988 12.7005 z "
     id="path684" />
  <path
     id="path629"
     fill="#ffffff"
     d="M87.537 1.052L121.164 34.679L87.537 34.679L87.537 1.052Z"
     transform="matrix(1,0,0,-1,0,128)"
     style="font-size:12;fill:#ffffff;" />
  <path
     id="path636"
     fill="url(#defitem31)"
     d="M89.865 2.944L119.459 32.536L89.865 32.536L89.865 2.944Z"
     transform="matrix(1,0,0,-1,0,128)"
     style="font-size:12;fill:url(#defitem31);" />
  <path
     id="path643"
     fill="#828282"
     d="M87.537 35.179C87.26 35.179 87.037 34.956 87.037 34.679L87.037 1.052C87.037 0.849 87.158 0.667 87.346 0.589C87.532 0.513 87.748 0.556 87.891 0.698L121.518 34.325C121.661 34.47 121.704 34.684 121.627 34.87C121.549 35.058 121.367 35.179 121.164 35.179L87.537 35.179ZM119.957 34.179C118.377 32.601 89.615 3.839 88.037 2.259C88.037 4.468 88.037 33.245 88.037 34.179C88.971 34.179 117.748 34.179 119.957 34.179Z"
     transform="matrix(1,0,0,-1,0,128)"
     style="font-size:12;fill:#828282;" />
</svg>
