<?xml version="1.0"?>
<!DOCTYPE svg PUBLIC "-//W3C//DTD SVG 1.0//EN"
	"http://www.w3.org/TR/2001/REC-SVG-20010904/DTD/svg10.dtd">
<svg xmlns:x="http://ns.adobe.com/Extensibility/1.0/"
	xmlns:i="http://ns.adobe.com/AdobeIllustrator/10.0/" xmlns:graph=""
	xmlns="http://www.w3.org/2000/svg" xmlns:xlink="http://www.w3.org/1999/xlink"
	xmlns:a="http://ns.adobe.com/AdobeSVGViewerExtensions/3.0/" width="115"
	height="127" viewBox="0.164 -0.104 115 127" overflow="visible"
	enable-background="new 0.164 -0.104 115 127" xml:space="preserve">
	<g id="Layer_1_2_">
		<path d="M114.828 0.5 L0.5 0.5 L0.5 126.396 L81.201 126.396 L114.828 92.769 z"
			 style="fill:rgb(255,255,255)"/>
		<linearGradient id="XMLID_1_" gradientUnits="userSpaceOnUse" x1="57.5845"
			y1="154.013" x2="57.5845" y2="-101.487">
			<stop offset="0" style="stop-color:rgb(255,255,255)"/>
			<stop offset="0.2457" style="stop-color:rgb(246,246,246)"/>
			<stop offset="0.6374" style="stop-color:rgb(223,223,223)"/>
			<stop offset="1" style="stop-color:rgb(196,196,196)"/>
		</linearGradient>
		<path
			d="M111.398 3.467 L3.93 3.467 L3.77 126.121 L80.227 126.121 L111.399 94.869 L111.399
				3.467 z"
			 style="fill:url(#XMLID_1_)"/>
		<linearGradient id="XMLID_2_" gradientUnits="userSpaceOnUse" x1="-32.6694"
			y1="-26.8853" x2="49.8298" y2="55.614">
			<stop offset="0" style="stop-color:rgb(178,178,178)"/>
			<stop offset="1" style="stop-color:rgb(130,130,130)"/>
			<a:midPointStop offset="0" style="stop-color:#B2B2B2"/>
			<a:midPointStop offset="0.5" style="stop-color:#B2B2B2"/>
			<a:midPointStop offset="1" style="stop-color:#828282"/>
		</linearGradient>
		<path
			d="M114.828 0 L0 0 L0 126.896 L81.408 126.896 L115.328 92.976 L115.328 0 zM114.328 1
				C114.328 1.987 114.328 92.152 114.328 92.563 C114.039 92.852 81.283 125.608
				80.994 125.897 C80.584 125.897 1.984 125.897 1 125.897 C1 124.908 1 1.988 1
				1 C1.986 1 113.342 1 114.328 1 z"
			 style="fill:url(#XMLID_2_)"/>
		<linearGradient id="XMLID_3_" gradientUnits="userSpaceOnUse" x1="36.687"
			y1="24.8696" x2="197.673" y2="110.514">
			<stop offset="0" style="stop-color:rgb(255,255,255)"/>
			<stop offset="0.8603" style="stop-color:rgb(218,218,218)"/>
			<stop offset="1" style="stop-color:rgb(212,212,212)"/>
			<a:midPointStop offset="0" style="stop-color:#FFFFFF"/>
			<a:midPointStop offset="0.5254" style="stop-color:#FFFFFF"/>
			<a:midPointStop offset="1" style="stop-color:#D4D4D4"/>
		</linearGradient>
		<path
			d="M111.67 14.671 L111.67 3.388 L3.863 3.388 L3.767 68.728 C13.742 73.275 24.918 75.824
				36.721 75.824 C74.066 75.824 105.119 48.325 111.67 14.671 z"
			 style="fill:url(#XMLID_3_)"/>
		<linearGradient id="XMLID_4_" gradientUnits="userSpaceOnUse" x1="-10.1421"
			y1="10.0996" x2="121.178" y2="10.0996">
			<stop offset="0" style="stop-color:rgb(179,202,255)"/>
			<stop offset="1" style="stop-color:rgb(0,83,189)"/>
		</linearGradient>
		<path d="M111.277 16.471 L3.893 16.471 L3.893 3.728 L111.277 3.728 z"
			 style="fill:url(#XMLID_4_)"/>
		<radialGradient id="XMLID_5_" cx="66.3555" cy="103.35" r="57.5918" fx="66.3555"
			fy="103.35" gradientUnits="userSpaceOnUse">
			<stop offset="0" style="stop-color:rgb(0,0,0)"/>
			<stop offset="1" style="stop-color:rgb(0,0,0)"/>
		</radialGradient>
		<path
			d="M90.83 100.896 C90.83 103.474 74.861 105.563 55.163 105.563 C35.465 105.563 19.496
				103.474 19.496 100.896 C19.496 98.319 35.464 96.23 55.163 96.23 C74.861 96.229
				90.83 98.318 90.83 100.896 z"
			 style="opacity:0.1;fill:url(#XMLID_5_)"/>
		<g>
			<radialGradient id="XMLID_6_" cx="102.131" cy="117.697" r="34.7364"
				fx="102.131" fy="117.697" gradientUnits="userSpaceOnUse">
				<stop offset="0" style="stop-color:rgb(0,0,0)"/>
				<stop offset="1" style="stop-color:rgb(0,0,0)"/>
			</radialGradient>
			<path
				d="M78.855 90.424 L78.855 126.178 L80.648 126.178 L114.287 92.539 L114.287 90.424 z"
				
				 style="opacity:0.1;fill:url(#XMLID_6_)"/>
			<path d="M81.201 126.396 L114.828 92.769 L81.201 92.769 z"
				 style="fill:rgb(255,255,255)"/>
			<linearGradient id="XMLID_7_" gradientUnits="userSpaceOnUse" x1="97.6816"
				y1="97.6289" x2="88.7534" y2="135.242">
				<stop offset="0" style="stop-color:rgb(255,255,255)"/>
				<stop offset="1" style="stop-color:rgb(204,204,204)"/>
			</linearGradient>
			<path d="M83.529 124.504 L113.123 94.912 L83.529 94.912 z"
				 style="fill:url(#XMLID_7_)"/>
			<linearGradient id="XMLID_8_" gradientUnits="userSpaceOnUse" x1="75.9727"
				y1="87.541" x2="89.7684" y2="101.337">
				<stop offset="0" style="stop-color:rgb(178,178,178)"/>
				<stop offset="1" style="stop-color:rgb(130,130,130)"/>
				<a:midPointStop offset="0" style="stop-color:#B2B2B2"/>
				<a:midPointStop offset="0.5" style="stop-color:#B2B2B2"/>
				<a:midPointStop offset="1" style="stop-color:#828282"/>
			</linearGradient>
			<path
				d="M81.201 92.27 C80.924 92.27 80.701 92.493 80.701 92.77 L80.701 126.397 C80.701 126.6
					80.822 126.782 81.01 126.86 C81.196 126.936 81.412 126.893 81.555 126.751
					L115.182 93.124 C115.325 92.979 115.368 92.765 115.291 92.579 C115.213 92.391
					115.031 92.27 114.828 92.27 zM113.621 93.27 C112.041 94.848 83.279 123.61
					81.701 125.19 C81.701 122.981 81.701 94.204 81.701 93.27 C82.635 93.27
					111.412 93.27 113.621 93.27 z"
				 style="fill:url(#XMLID_8_)"/>
		</g>
		<g>
			<radialGradient id="XMLID_9_" cx="54.2632" cy="107.916" r="83.6957"
				fx="54.2632" fy="107.916" gradientUnits="userSpaceOnUse">
				<stop offset="0" style="stop-color:rgb(212,232,255)"/>
				<stop offset="0.0861" style="stop-color:rgb(202,228,255)"/>
				<stop offset="0.3389" style="stop-color:rgb(178,219,255)"/>
				<stop offset="0.4944" style="stop-color:rgb(169,215,255)"/>
				<stop offset="1" style="stop-color:rgb(18,96,217)"/>
				<a:midPointStop offset="0" style="stop-color:#D4E8FF"/>
				<a:midPointStop offset="0.4" style="stop-color:#D4E8FF"/>
				<a:midPointStop offset="0.4944" style="stop-color:#A9D7FF"/>
				<a:midPointStop offset="0.5" style="stop-color:#A9D7FF"/>
				<a:midPointStop offset="1" style="stop-color:#1260D9"/>
			</radialGradient>
			<path
				d="M54.981 103.968 C77.049 103.968 94.946 85.989 94.946 63.93 C94.946 42.015 77.05 24.034
					54.981 24.034 C33.07 24.034 15.018 42.015 15.018 63.93 C15.019 85.988
					33.07 103.968 54.981 103.968 z"
				 style="fill-rule:evenodd;clip-rule:evenodd;fill:url(#XMLID_9_)"/>
			<g>
				<radialGradient id="XMLID_10_" cx="54.2939" cy="107.437" r="80.205"
					fx="54.2939" fy="107.437"
					gradientTransform="matrix(1 0 0 0.9479 0 4.2221)"
					gradientUnits="userSpaceOnUse">
					<stop offset="0" style="stop-color:rgb(255,255,255)"/>
					<stop offset="0.1176" style="stop-color:rgb(230,249,255)"/>
					<stop offset="0.2604" style="stop-color:rgb(206,242,255)"/>
					<stop offset="0.3483" style="stop-color:rgb(197,240,255)"/>
					<stop offset="0.427" style="stop-color:rgb(187,233,253)"/>
					<stop offset="1" style="stop-color:rgb(29,116,217)"/>
					<a:midPointStop offset="0" style="stop-color:#FFFFFF"/>
					<a:midPointStop offset="0.4" style="stop-color:#FFFFFF"/>
					<a:midPointStop offset="0.3483" style="stop-color:#C5F0FF"/>
					<a:midPointStop offset="0.5" style="stop-color:#C5F0FF"/>
					<a:midPointStop offset="0.427" style="stop-color:#BBE9FD"/>
					<a:midPointStop offset="0.5" style="stop-color:#BBE9FD"/>
					<a:midPointStop offset="1" style="stop-color:#1D74D9"/>
				</radialGradient>
				<path
					d="M54.981 102.28 C76.116 102.28 93.259 85.06 93.259 63.933 C93.259 42.942 76.115 25.719
						54.981 25.719 C33.996 25.719 16.706 42.943 16.706 63.933 C16.706 85.061
						33.997 102.28 54.981 102.28 z"
					 style="fill-rule:evenodd;clip-rule:evenodd;fill:url(#XMLID_10_)"/>
			</g>
			<radialGradient id="XMLID_11_" cx="57.5576" cy="97.2256" r="47.5662"
				fx="57.5576" fy="97.2256" gradientUnits="userSpaceOnUse">
				<stop offset="0.1742" style="stop-color:rgb(83,164,255)"/>
				<stop offset="0.2463" style="stop-color:rgb(75,153,246)"/>
				<stop offset="0.7613" style="stop-color:rgb(21,80,187)"/>
				<stop offset="1" style="stop-color:rgb(0,51,164)"/>
				<a:midPointStop offset="0.1742" style="stop-color:#53A4FF"/>
				<a:midPointStop offset="0.4677" style="stop-color:#53A4FF"/>
				<a:midPointStop offset="1" style="stop-color:#0033A4"/>
			</radialGradient>
			<path a:adobe-blending-mode="multiply"
				d="M36.522 64.094 C36.198 63.79 36.414 62.458 36.414 62.458 C36.414 62.458 31.591 59.901
					26.338 58.364 C25.69 58.174 26.017 56.831 26.659 56.318 L26.445 54.882
					C26.338 54.167 27.517 50.688 28.694 50.382 C29.874 50.075 28.588 52.429 28.588
					52.429 L27.41 53.146 C27.41 53.146 28.803 54.782 29.125 54.782 C29.446
					54.782 29.982 53.962 29.982 53.962 L28.482 52.942 L29.874 52.326 L29.961 51.787
					L30.197 51.712 L32.503 48.189 C34.096 47.53 36.056 46.715 36.305 46.596
					C36.734 46.392 39.735 44.651 40.271 44.243 C40.807 43.833 41.985 43.935
					42.414 43.935 C42.842 43.935 43.485 43.73 43.594 42.604 C43.701 41.479 44.13
					41.272 44.452 41.581 C44.772 41.886 44.128 42.398 44.88 42.604 C45.63 42.808
					46.271 43.321 46.807 42.808 C47.201 42.434 46.676 42.008 46.323 41.683
					L52.274 41.683 L52.919 39.84 L51.525 39.635 L46.378 39.124 L46.378 38.51 L45.967
					38.581 C46.526 35.493 49.836 36.002 47.345 34.214 C47.192 34.105 45.013
					37.678 44.458 37.608 C43.454 37.476 42.153 37.464 41.877 37.793 C41.513
					38.23 42.699 36.296 43.722 35.71 C42.091 36.197 36.933 37.976 31.481 43.833
					C26.269 49.432 24.19 56.975 24.19 57.238 C24.19 57.75 25.263 57.956 25.372
					58.57 C25.477 59.182 23.335 61.23 23.335 62.253 C23.335 62.727 22.83 69.033
					24.62 74.229 C26.711 80.292 31.175 85.358 31.694 85.69 L32.766 85.178 C32.766
					85.178 30.301 80.777 30.196 80.367 C30.087 79.958 32.981 74.023 34.376
					74.228 C35.768 74.428 35.447 74.842 36.304 74.331 C37.161 73.82 37.696 69.621
					38.66 69.214 C39.625 68.803 40.698 68.293 40.592 67.269 C40.486 66.243
					36.841 64.402 36.522 64.094 zM44.237 35.543 C44.078 35.543 43.904 35.608 43.724
					35.71 C44.145 35.586 44.343 35.543 44.237 35.543 zM54.636 37.589 L54.74
					36.053 L53.133 36.155 L53.349 37.59 L54.636 37.59 zM59.778 34.007 L56.885
					32.983 L57.421 34.622 zM48.954 37.792 C49.277 37.792 55.708 33.497 55.063
					33.393 C54.42 33.291 54.313 33.393 52.597 33.188 C50.883 32.982 49.06 35.643
					48.631 36.053 C48.204 36.465 48.348 37.792 48.954 37.792 zM66.43 75.95 C66.43
					75.95 65.703 76.147 66.533 76.444 C67.363 76.738 70.683 71.611 70.683
					71.611 L67.882 73.385 zM86.452 60.268 L85.91 59.211 C85.267 55.563 83.799 50.888
					80.642 46.064 C75.897 38.809 62.694 34.625 62.694 34.625 L61.967 35.51
					L61.553 34.822 L60.516 34.426 L60.516 35.312 L61.448 36.104 L60.828 36.399
					L58.439 36.594 L53.045 39.555 L53.564 41.921 L52.941 42.122 L52.631 42.611
					L54.394 45.275 L54.497 46.164 L53.045 46.458 L53.045 48.233 L52.217 48.428
					L52.319 49.81 L45.265 54.744 L45.472 57.505 C45.991 58.193 50.038 62.339
					50.038 62.339 C50.038 62.339 54.704 62.533 55.742 61.943 C56.78 61.35 56.053
					62.532 56.366 62.828 C56.678 63.126 56.781 65.197 57.091 65.394 C57.402 65.591
					57.091 66.774 57.507 67.17 C57.923 67.564 57.923 72.299 57.923 72.299
					C57.923 72.299 60.413 76.539 60.413 77.625 C60.413 78.709 60.309 78.611 62.278
					78.513 C64.252 78.414 64.663 77.625 65.079 77.329 C65.495 77.031 65.495
					76.342 65.912 75.749 C66.327 75.16 67.05 72.889 67.984 72.103 C68.919 71.311
					71.408 70.718 71.614 69.34 C71.821 67.956 72.757 66.87 72.757 66.87 L77.242
					62.087 L77.115 62.731 L77.011 65.196 L78.358 64.703 L78.256 62.039 L77.772
					61.52 L77.84 61.449 C77.84 61.449 77.528 60.858 77.114 60.858 C76.7 60.858
					74.21 61.449 73.795 61.349 C73.378 61.253 71.613 56.516 71.303 56.32 C70.992
					56.123 69.023 52.867 69.023 52.867 C69.023 52.867 73.586 58.391 74.314
					60.56 C74.737 61.823 76.318 60.646 77.607 59.329 L77.946 60.167 L78.774
					59.969 L78.67 58.982 L79.606 58.982 L79.606 60.461 L79.295 61.253 L79.188 62.532
					L80.018 63.324 L80.436 62.633 L81.782 61.35 L83.339 60.562 L83.756 61.35
					L83.963 62.437 L83.546 63.619 L82.717 64.31 L82.3 66.089 L82.3 66.973 L81.369
					66.384 L81.265 64.51 L79.918 64.608 L79.294 66.284 L80.227 67.666 L82.404
					67.96 L84.17 66.284 L84.376 63.032 L85.162 61.989 C85.672 63.314 86.035
					64.701 86.035 65.992 C86.035 67.409 86.679 65.012 86.132 60.692 zM60.309
					50.208 L54.706 50.009 L57.092 48.038 L58.338 48.038 L60.309 49.416 zM67.155
					49.516 L67.155 50.404 L64.77 50.404 L64.977 50.996 L63.525 51.194 L63.42
					51.687 L62.384 51.492 L60.517 51.096 L60.829 50.603 L61.139 50.009 L62.176
					48.924 L62.592 49.714 L64.148 49.615 L64.979 48.728 L68.192 49.317 zM67.362
					48.234 L66.117 48.429 L65.912 47.543 L67.466 47.348 L67.674 46.458 L68.817
					47.642 zM78.463 68.653 L79.295 67.566 L78.463 67.269 L77.841 68.058 L77.115
					69.142 L77.735 69.44 zM73.379 78.907 L72.652 79.501 L72.756 80.98 L73.691
					80.98 L73.691 79.697 L74.521 78.614 L74.521 76.344 L74.001 76.242 zM82.094
					72.202 L81.886 70.626 L80.54 70.626 L80.436 71.805 L79.188 71.612 L78.88 70.328
					L78.257 69.933 L77.529 70.823 L76.805 70.627 L76.596 71.315 L77.426 71.513
					L77.426 77.925 L80.364 78.637 C80.296 78.756 80.245 78.855 80.227 78.908
					C80.017 79.601 81.057 79.897 81.781 79.601 C82.051 79.49 82.906 78.621
					83.441 77.332 C84.188 75.54 84.842 73.174 84.974 72.335 L85.308 71.611 L83.233
					72.4 z"
				 style="opacity:0.1;fill:url(#XMLID_11_)"/>
			<linearGradient id="XMLID_12_" gradientUnits="userSpaceOnUse" x1="54.7808"
				y1="10.5996" x2="54.7808" y2="100.666">
				<stop offset="0.0899" style="stop-color:rgb(43,159,215)"/>
				<stop offset="0.3508" style="stop-color:rgb(17,117,212)"/>
				<stop offset="0.5562" style="stop-color:rgb(0,88,210)"/>
				<stop offset="1" style="stop-color:rgb(0,50,187)"/>
			</linearGradient>
			<path
				d="M42.002 29.225 C41.809 29.225 41.598 29.303 41.382 29.426 C41.892 29.276 42.13 29.225
					42.002 29.225 zM54.583 31.679 L54.71 29.837 L52.767 29.959 L53.026 31.679
					zM32.665 63.488 C32.274 63.121 32.537 61.522 32.537 61.522 C32.537 61.522
					26.701 58.455 20.345 56.611 C19.56 56.382 19.957 54.77 20.733 54.157 L20.475
					52.433 C20.346 51.576 21.772 47.4 23.199 47.034 C24.626 46.663 23.069
					49.488 23.069 49.488 L21.641 50.347 C21.641 50.347 23.328 52.312 23.719 52.312
					C24.107 52.312 24.756 51.33 24.756 51.33 L22.94 50.106 L24.626 49.365 L24.731
					48.718 L25.014 48.629 L27.806 44.4 C29.733 43.609 32.106 42.631 32.406
					42.488 C32.925 42.243 36.556 40.157 37.205 39.666 C37.855 39.171 39.278
					39.297 39.797 39.297 C40.317 39.297 41.095 39.05 41.225 37.696 C41.355 36.347
					41.874 36.1 42.263 36.469 C42.652 36.835 41.873 37.45 42.783 37.696 C43.692
					37.946 44.467 38.558 45.117 37.946 C45.592 37.494 44.956 36.982 44.528
					36.593 L51.729 36.593 L52.509 34.381 L50.823 34.136 L44.596 33.524 L44.596
					32.785 L44.099 32.869 C44.774 29.164 48.778 29.777 45.764 27.63 C45.58 27.5
					42.944 31.787 42.272 31.703 C41.057 31.542 39.484 31.53 39.15 31.925 C38.709
					32.448 40.145 30.13 41.383 29.426 C39.408 30.01 33.168 32.143 26.57 39.171
					C20.262 45.892 17.75 54.943 17.75 55.261 C17.75 55.872 19.047 56.12 19.178
					56.858 C19.305 57.592 16.714 60.048 16.714 61.277 C16.714 61.843 16.102
					69.414 18.269 75.647 C20.8 82.925 26.201 89.002 26.829 89.402 L28.124 88.786
					C28.124 88.786 25.143 83.507 25.013 83.015 C24.883 82.526 28.386 75.401 30.071
					75.647 C31.756 75.89 31.366 76.385 32.405 75.769 C33.444 75.156 34.09
					70.118 35.257 69.63 C36.424 69.136 37.723 68.523 37.594 67.296 C37.463 66.067
					33.056 63.859 32.665 63.488 zM60.809 27.382 L57.467 26.716 L57.956 28.119
					zM47.708 31.924 C48.098 31.924 55.88 26.77 55.1 26.643 C54.324 26.522 54.128
					27.034 52.052 26.79 C49.977 26.543 47.837 29.347 47.319 29.837 C46.802
					30.33 46.976 31.924 47.708 31.924 zM83.414 68.957 L84.421 67.656 L83.414 67.298
					L82.663 68.247 L81.785 69.546 L82.536 69.903 zM87.809 73.221 L87.556
					71.325 L85.926 71.325 L85.8 72.742 L84.291 72.509 L83.919 70.97 L83.165 70.498
					L82.285 71.562 L81.407 71.325 L81.155 72.151 L82.161 72.389 L82.161 80.083
					L85.716 80.937 C85.633 81.081 85.571 81.199 85.55 81.262 C85.297 82.094
					86.555 82.449 87.432 82.094 C87.758 81.961 88.792 80.918 89.44 79.372 C90.345
					77.222 91.135 74.382 91.294 73.378 L91.699 72.507 L89.19 73.455 zM92.6
					58.666 L92.427 57.627 C91.649 53.249 89.856 47.651 86.054 41.852 C79.431 31.754
					64.942 27.599 64.942 27.599 L63.458 29.184 L62.957 28.359 L61.7 27.883
					L61.7 28.947 L62.828 29.898 L62.077 30.253 L59.189 30.488 L52.662 34.04 L53.288
					36.879 L52.536 37.119 L52.16 37.707 L54.294 40.904 L54.419 41.97 L52.662
					42.324 L52.662 44.454 L51.659 44.688 L51.785 46.346 L43.249 52.268 L43.499
					55.58 C44.127 56.408 49.024 61.38 49.024 61.38 C49.024 61.38 54.67 61.614
					55.927 60.906 C57.18 60.196 56.303 61.614 56.68 61.971 C57.055 62.326 57.18
					64.809 57.557 65.05 C57.934 65.285 57.557 66.704 58.059 67.18 C58.561 67.655
					58.561 73.336 58.561 73.336 C58.561 73.336 61.573 78.421 61.573 79.729
					C61.573 81.029 61.449 80.91 63.835 80.792 C66.222 80.673 66.721 79.729 67.223
					79.372 C67.728 79.016 67.728 78.188 68.229 77.477 C68.732 76.766 69.608
					74.043 70.739 73.099 C71.87 72.149 74.881 71.437 75.132 69.782 C75.385 68.126
					76.515 66.823 76.515 66.823 L81.942 61.08 L81.788 61.853 L81.664 64.81
					L83.294 64.22 L83.168 61.023 L82.582 60.404 L82.666 60.313 C82.666 60.313
					82.288 59.604 81.788 59.604 C81.286 59.604 78.271 60.313 77.771 60.196 C77.267
					60.077 75.132 54.396 74.755 54.16 C74.379 53.923 71.995 50.017 71.995 50.017
					C71.995 50.017 77.516 56.646 78.395 59.248 C78.905 60.764 80.821 59.352
					82.381 57.77 L82.79 58.774 L83.794 58.535 L83.669 57.354 L84.799 57.354
					L84.799 59.13 L84.422 60.075 L84.292 61.613 L85.298 62.562 L85.801 61.736 L87.433
					60.194 L89.318 59.247 L89.819 60.194 L90.07 61.498 L89.567 62.917 L88.563
					63.746 L88.06 65.88 L88.06 66.943 L86.931 66.234 L86.805 63.986 L85.175
					64.105 L84.421 66.114 L85.55 67.775 L88.184 68.128 L90.321 66.114 L90.57
					62.213 L91.519 60.958 C92.137 62.546 92.578 64.215 92.578 65.762 C92.578 67.461
					93.358 64.586 92.695 59.403 zM61.448 46.823 L54.672 46.584 L57.556 44.218
					L59.061 44.218 L61.448 45.873 zM69.733 45.995 L69.733 47.06 L66.844 47.06
					L67.098 47.769 L65.34 48.01 L65.214 48.6 L63.957 48.363 L61.7 47.888 L62.077
					47.297 L62.452 46.584 L63.707 45.284 L64.21 46.231 L66.094 46.113 L67.099
					45.046 L70.987 45.756 zM69.983 44.455 L68.478 44.689 L68.227 43.624 L70.106
					43.389 L70.36 42.324 L71.743 43.746 zM77.265 81.264 L76.385 81.976 L76.513
					83.752 L77.641 83.752 L77.641 82.216 L78.647 80.911 L78.647 78.19 L78.019
					78.068 zM68.855 77.718 C68.855 77.718 67.978 77.949 68.979 78.307 C69.983
					78.664 74 72.509 74 72.509 L70.612 74.639 zM62.023 100.403 L61.27 99.686
					L59.764 99.448 L59.515 100.166 L57.509 99.926 L57.383 98.974 L55.877 98.974
					L54.245 99.926 L51.36 99.926 L51.11 99.213 L46.467 98.734 L45.714 99.449
					L43.834 98.974 L43.583 97.303 L42.705 97.182 L41.702 98.974 L38.316 98.854
					C38.92 99.141 43.979 102.16 51.736 102.791 C62.024 103.621 66.916 101.12 66.916
					101.12 L66.54 100.761 z"
				 style="fill:url(#XMLID_12_)"/>
			<path
				d="M22.224 50.149 C22.219 49.971 22.204 49.795 22.204 49.617 C22.204 49.055 22.243 48.499
					22.297 47.949 C21.294 49.325 20.506 51.876 20.605 52.527 L20.863 54.265
					C20.086 54.882 19.692 56.509 20.475 56.74 C21.815 57.131 23.13 57.58 24.374
					58.042 C23.195 55.83 22.462 53.456 22.262 50.982 C21.978 50.668 21.77 50.424
					21.77 50.424 z"
				 style="fill:none"/>
			<path d="M74.13 72.769"/>
			<path a:adobe-blending-mode="screen"
				d="M54.981 92.69 C37.588 92.69 23.125 82.311 21.8 66.073 C21.734 66.871 21.69 67.675
					21.69 68.486 C21.69 85.854 36.73 100.012 54.982 100.012 C73.365 100.012 88.275
					85.854 88.275 68.486 C88.275 67.674 88.234 66.871 88.167 66.073 C86.852
					82.312 72.498 92.69 54.981 92.69 z"
				 style="opacity:0.5;fill:rgb(255,255,255)"/>
			<path a:adobe-blending-mode="screen"
				d="M75.183 84.255 C75.183 75.564 66.274 68.521 55.284 68.521 C44.295 68.521 35.385 75.564
					35.385 84.255 C35.385 92.943 44.296 99.989 55.284 99.989 C66.273 99.989
					75.183 92.943 75.183 84.255 z"
				 style="opacity:0.2;fill:rgb(255,255,255)"/>
			<linearGradient id="XMLID_13_" gradientUnits="userSpaceOnUse" x1="55.4458"
				y1="27.8354" x2="55.4458" y2="68.6422">
				<stop offset="10.9195%" style="stop-color:rgb(255,255,255)"/>
				<stop offset="100%" style="stop-opacity:0;stop-color:rgb(255,255,255)"/>
			</linearGradient>
			<path a:adobe-blending-mode="screen"
				d="M85.786 47.536 C85.786 59.162 72.205 68.587 55.447 68.587 C38.69 68.587 25.107 59.163
					25.107 47.536 C25.107 35.909 38.69 26.484 55.447 26.484 C72.205 26.484
					85.786 35.91 85.786 47.536 z"
				 style="fill:url(#XMLID_13_)"/>
		</g>
		<g>
			<path
				d="M9.09 14.558 L9.09 6.179 L10.777 6.179 L10.777 9.47 L14.11 9.47 L14.11 6.179 L15.796
					6.179 L15.796 14.557 L14.11 14.557 L14.11 10.882 L10.777 10.882 L10.777
					14.557 L9.09 14.557 z"
				 style="fill:rgb(255,255,255)"/>
			<path
				d="M19.416 14.558 L19.416 7.592 L16.947 7.592 L16.947 6.179 L23.57 6.179 L23.57 7.592
					L21.102 7.592 L21.102 14.558 z"
				 style="fill:rgb(255,255,255)"/>
			<path
				d="M24.667 14.558 L24.667 6.179 L27.209 6.179 L28.706 11.894 L30.192 6.179 L32.73 6.179
					L32.73 14.557 L31.167 14.557 L31.16 7.962 L29.516 14.557 L27.875 14.557
					L26.236 7.962 L26.229 14.557 L24.667 14.557 z"
				 style="fill:rgb(255,255,255)"/>
			<path
				d="M34.465 14.558 L34.465 6.248 L36.151 6.248 L36.151 13.145 L40.361 13.145 L40.361
					14.558 z"
				 style="fill:rgb(255,255,255)"/>
		</g>
	</g>
</svg>
