<?xml version="1.0" encoding="iso-8859-1"?>
<!-- Generator: Adobe Illustrator 10.0.3, SVG Export Plug-In . SVG Version: 3.0.0 Build 77)  -->
<!DOCTYPE svg PUBLIC "-//W3C//DTD SVG 1.0//EN"    "http://www.w3.org/TR/2001/REC-SVG-20010904/DTD/svg10.dtd" [
	<!ENTITY ns_flows "http://ns.adobe.com/Flows/1.0/">
	<!ENTITY ns_svg "http://www.w3.org/2000/svg">
	<!ENTITY ns_xlink "http://www.w3.org/1999/xlink">
]>
<svg  xmlns="&ns_svg;" xmlns:xlink="&ns_xlink;" xmlns:a="http://ns.adobe.com/AdobeSVGViewerExtensions/3.0/"
	 width="128" height="128" viewBox="0 0 128 128" overflow="visible" enable-background="new 0 0 128 128" xml:space="preserve">
	<g id="Layer_1">
		<g>
			<path fill="#FFFFFF" d="M121.164,1.052H6.836v125.896h80.701l33.627-33.627V1.052z"/>
			<linearGradient id="XMLID_1_" gradientUnits="userSpaceOnUse" x1="63.9204" y1="154.5645" x2="63.9204" y2="-100.9337">
				<stop  offset="0" style="stop-color:#FFFFFF"/>
				<stop  offset="0.258" style="stop-color:#F1F1F1"/>
				<stop  offset="0.7396" style="stop-color:#CECECE"/>
				<stop  offset="0.8595" style="stop-color:#C4C4C4"/>
				<a:midPointStop  offset="0" style="stop-color:#FFFFFF"/>
				<a:midPointStop  offset="0.5674" style="stop-color:#FFFFFF"/>
				<a:midPointStop  offset="0.8595" style="stop-color:#C4C4C4"/>
			</linearGradient>
			<path fill="url(#XMLID_1_)" d="M117.734,4.02H10.266l-0.16,122.653h76.457l31.172-31.252V4.02z"/>
			<linearGradient id="XMLID_2_" gradientUnits="userSpaceOnUse" x1="-26.333" y1="-26.333" x2="56.1662" y2="56.1662">
				<stop  offset="0" style="stop-color:#B3B3B3"/>
				<stop  offset="1" style="stop-color:#828282"/>
				<a:midPointStop  offset="0" style="stop-color:#B3B3B3"/>
				<a:midPointStop  offset="0.5" style="stop-color:#B3B3B3"/>
				<a:midPointStop  offset="1" style="stop-color:#828282"/>
			</linearGradient>
			<path fill="url(#XMLID_2_)" d="M121.164,0.552H6.336v126.896h81.408l33.92-33.92V0.552H121.164z M120.664,1.552
				c0,0.987,0,91.152,0,91.562c-0.289,0.289-33.045,33.045-33.334,33.334c-0.41,0-79.01,0-79.994,0c0-0.988,0-123.908,0-124.896
				C8.322,1.552,119.678,1.552,120.664,1.552z"/>
			<linearGradient id="XMLID_3_" gradientUnits="userSpaceOnUse" x1="43.0229" y1="25.4219" x2="204.0073" y2="111.0656">
				<stop  offset="0" style="stop-color:#FFFFFF"/>
				<stop  offset="0.5033" style="stop-color:#E7E7E7"/>
				<stop  offset="1" style="stop-color:#D4D4D4"/>
				<a:midPointStop  offset="0" style="stop-color:#FFFFFF"/>
				<a:midPointStop  offset="0.452" style="stop-color:#FFFFFF"/>
				<a:midPointStop  offset="1" style="stop-color:#D4D4D4"/>
			</linearGradient>
			<path fill="url(#XMLID_3_)" d="M118.006,15.223V3.94H10.199l-0.096,65.34c9.975,4.547,21.151,7.096,32.954,7.096
				C80.402,76.376,111.455,48.877,118.006,15.223z"/>
		</g>
		<g>
			
				<radialGradient id="XMLID_4_" cx="108.4668" cy="118.249" r="34.7364" fx="108.4668" fy="118.249" gradientUnits="userSpaceOnUse">
				<stop  offset="0" style="stop-color:#000000"/>
				<stop  offset="1" style="stop-color:#000000"/>
				<a:midPointStop  offset="0" style="stop-color:#000000"/>
				<a:midPointStop  offset="0.5" style="stop-color:#000000"/>
				<a:midPointStop  offset="1" style="stop-color:#000000"/>
			</radialGradient>
			<path opacity="0.1" fill="url(#XMLID_4_)" d="M85.191,90.976v35.754h1.793l33.639-33.639v-2.115H85.191z"/>
			<path fill="#FFFFFF" d="M87.537,126.948l33.627-33.627H87.537V126.948z"/>
			<linearGradient id="XMLID_5_" gradientUnits="userSpaceOnUse" x1="104.0166" y1="98.1807" x2="95.0883" y2="135.7938">
				<stop  offset="0" style="stop-color:#FFFFFF"/>
				<stop  offset="1" style="stop-color:#CCCCCC"/>
				<a:midPointStop  offset="0" style="stop-color:#FFFFFF"/>
				<a:midPointStop  offset="0.5" style="stop-color:#FFFFFF"/>
				<a:midPointStop  offset="1" style="stop-color:#CCCCCC"/>
			</linearGradient>
			<path fill="url(#XMLID_5_)" d="M89.865,125.056l29.594-29.592H89.865V125.056z"/>
			<linearGradient id="XMLID_6_" gradientUnits="userSpaceOnUse" x1="82.3086" y1="88.0928" x2="96.1043" y2="101.8885">
				<stop  offset="0" style="stop-color:#B3B3B3"/>
				<stop  offset="1" style="stop-color:#828282"/>
				<a:midPointStop  offset="0" style="stop-color:#B3B3B3"/>
				<a:midPointStop  offset="0.5" style="stop-color:#B3B3B3"/>
				<a:midPointStop  offset="1" style="stop-color:#828282"/>
			</linearGradient>
			<path fill="url(#XMLID_6_)" d="M87.537,92.821c-0.277,0-0.5,0.223-0.5,0.5v33.627c0,0.203,0.121,0.385,0.309,0.463
				c0.186,0.076,0.402,0.033,0.545-0.109l33.627-33.627c0.143-0.145,0.186-0.359,0.109-0.545c-0.078-0.188-0.26-0.309-0.463-0.309
				H87.537z M119.957,93.821c-1.58,1.578-30.342,30.34-31.92,31.92c0-2.209,0-30.986,0-31.92
				C88.971,93.821,117.748,93.821,119.957,93.821z"/>
		</g>
		<g>
			<path d="M64.095,53.889c0,0.875-0.709,1.583-1.584,1.583c-0.876,0-1.585-0.708-1.585-1.583c0-0.875,0.709-1.585,1.585-1.585
				C63.386,52.304,64.095,53.014,64.095,53.889z"/>
			<path fill="#FF0000" d="M81.736,36.602l-2.001,2.891c8.64,4.356,14.413,11.903,14.601,20.52l14.74,3.046
				C107.417,51.212,96.648,41.238,81.736,36.602z"/>
			<path d="M62.92,33.818c-23.221,0-42.455,11.934-45.851,27.509l13.819-2.443c1.025-13.021,14.82-23.338,31.696-23.338
				c6.32,0,12.203,1.453,17.15,3.946l2.001-2.891C75.984,34.814,69.618,33.818,62.92,33.818z"/>
			<path fill="#FFFFFF" stroke="#000000" d="M112.332,63.747c0-0.144-17.992-3.592-17.996-3.735L62.159,53.36"/>
			<path d="M25.364,82.231h-8.627v-17.78h8.627v1.409l1.408-1.409h6.161h1.937l-3.521,3.521l-5.969-0.023L25.364,82.231z"/>
			<path d="M63.059,73.666C62.884,66.135,50.01,64.82,50.01,64.82H39.151v22.594l7.969-0.613l-0.087-4.028
				C47.033,82.772,63.257,82.18,63.059,73.666z M47.383,81.634V66.835l0.175-0.264C65.511,74.278,47.383,81.634,47.383,81.634z"/>
			<path d="M76.573,82.422h-8.057V64.441h34.095c0,0,1.868,0.234,3.152,1.051c1.284,0.817,2.219,1.75,2.219,1.75v15.216h-8.64
				V67.242h-7.006v15.297h-8.524V66.893H76.69L76.573,82.422z"/>
		</g>
		<path fill="none" d="M128,128H0V0h128V128z"/>
		<linearGradient id="XMLID_7_" gradientUnits="userSpaceOnUse" x1="-56.2222" y1="10.6514" x2="74.8195" y2="10.6514">
			<stop  offset="0" style="stop-color:#FFFFFF"/>
			<stop  offset="1" style="stop-color:#FF0000"/>
			<a:midPointStop  offset="0" style="stop-color:#FFFFFF"/>
			<a:midPointStop  offset="0.5" style="stop-color:#FFFFFF"/>
			<a:midPointStop  offset="1" style="stop-color:#FF0000"/>
		</linearGradient>
		<path fill="url(#XMLID_7_)" d="M117.397,17.023H10.013V4.279h107.385V17.023z"/>
		<g>
			<path fill="#FFFFFF" d="M13.138,15.864V7.27h3.645c0.917,0,1.583,0.077,1.998,0.231c0.416,0.154,0.748,0.429,0.998,0.823
				c0.25,0.394,0.375,0.845,0.375,1.352c0,0.644-0.188,1.176-0.565,1.595c-0.377,0.42-0.94,0.684-1.689,0.793
				c0.374,0.219,0.682,0.46,0.925,0.722s0.571,0.728,0.984,1.397l1.048,1.68h-2.074l-1.245-1.874
				c-0.446-0.669-0.751-1.091-0.916-1.265s-0.338-0.293-0.522-0.358c-0.184-0.064-0.476-0.097-0.875-0.097h-0.352v3.594H13.138z
				 M14.872,10.895h1.282c0.831,0,1.35-0.035,1.557-0.105c0.207-0.07,0.369-0.191,0.486-0.362c0.117-0.171,0.176-0.385,0.176-0.642
				c0-0.288-0.077-0.521-0.231-0.698c-0.154-0.177-0.372-0.289-0.652-0.335c-0.141-0.02-0.562-0.029-1.264-0.029h-1.352V10.895z"/>
			<path fill="#FFFFFF" d="M21.804,15.864V7.27h2.782c1.054,0,1.742,0.043,2.062,0.129c0.492,0.129,0.904,0.41,1.236,0.842
				c0.332,0.433,0.498,0.991,0.498,1.676c0,0.528-0.096,0.973-0.287,1.333s-0.435,0.643-0.729,0.848s-0.594,0.341-0.899,0.408
				c-0.414,0.083-1.013,0.124-1.798,0.124h-1.13v3.234H21.804z M23.538,8.723v2.453h0.95c0.685,0,1.142-0.045,1.373-0.136
				c0.23-0.09,0.412-0.232,0.542-0.424c0.131-0.193,0.197-0.417,0.197-0.672c0-0.314-0.092-0.574-0.276-0.778
				c-0.184-0.205-0.417-0.332-0.698-0.383c-0.208-0.04-0.624-0.059-1.25-0.059H23.538z"/>
			<path fill="#FFFFFF" d="M29.792,15.864V7.27h2.6l1.548,5.862l1.538-5.862h2.611v8.594h-1.609l-0.008-6.765l-1.711,6.765h-1.666
				l-1.686-6.765l-0.008,6.765H29.792z"/>
		</g>
	</g>
</svg>
